<svg width="80px" height="80px" viewBox="0 0 80 80" xmlns="http://www.w3.org/2000/svg">
  <style>
    .fr-artwork-decorative {
      fill: #ECECFF;
    }
    .fr-artwork-minor {
      fill: #E1000F;
    }
    .fr-artwork-major {
      fill: #000091;
    }
  </style>
  <symbol id="artwork-decorative">
    <path d="M68 13a1.001 1.001 0 0 1 0-2 1.001 1.001 0 0 1 0 2ZM41 76a1.001 1.001 0 0 1 0-2 1.001 1.001 0 0 1 0 2ZM15 10a1.001 1.001 0 0 1 0-2 1.001 1.001 0 0 1 0 2Z"/>
  </symbol>
  <symbol id="artwork-minor">
    <path d="M33.106 42.553a1 1 0 0 1 1.341-.447L37 43.382l2.553-1.276a1 1 0 1 1 .894 1.788L37 45.618l-3.447-1.724a1 1 0 0 1-.447-1.341Zm0 4a1 1 0 0 1 1.341-.447L37 47.382l2.553-1.276a1 1 0 1 1 .894 1.788L37 49.618l-3.447-1.724a1 1 0 0 1-.447-1.341Z"/>
  </symbol>
  <symbol id="artwork-major">
    <path fill-rule="evenodd" clip-rule="evenodd" d="M61 14a1 1 0 0 1 1 1v2h1a3 3 0 1 1 0 6v3a3 3 0 1 1 0 6v23c0 .5-.5 1-1 1s-1-.5-1-1V32H51v3c0 .5-.5 1-1 1s-1-.5-1-1v-3a3 3 0 1 1 0-6v-3a3 3 0 1 1 0-6h2v-2a1 1 0 1 1 2 0v2h1v-2a1 1 0 1 1 2 0v2h1v-2a1 1 0 1 1 2 0v2h1v-2a1 1 0 0 1 1-1Zm3 15a1 1 0 0 1-1 1H49a1 1 0 1 1 0-2h14a1 1 0 0 1 1 1ZM49 19a1 1 0 1 0 0 2h14a1 1 0 1 0 0-2H49Zm12 7v-3h-4v3h4Zm-10-3h4v3h-4v-3ZM21 52a3 3 0 0 1 3-3h3a3 3 0 0 1 3 3v3a3 3 0 0 1-3 3h-3a3 3 0 0 1-3-3v-3Zm3-1a1 1 0 0 0-1 1v3a1 1 0 0 0 1 1h3a1 1 0 0 0 1-1v-3a1 1 0 0 0-1-1h-3ZM44 52a3 3 0 0 1 3-3h3a3 3 0 0 1 3 3v3a3 3 0 0 1-3 3h-3a3 3 0 0 1-3-3v-3Zm3-1a1 1 0 0 0-1 1v3a1 1 0 0 0 1 1h3a1 1 0 0 0 1-1v-3a1 1 0 0 0-1-1h-3Z M31 63v-5a6.006 6.006 0 0 1 6-6.006c3.314 0 6 2.693 6 6.006v5h15c-.462-13.005-9.908-23.003-21-23.003-5.736 0-11.028 2.672-14.864 7.05-1.27 1.146-2.493-.125-1.648-1.151C24.359 41.198 29.91 38.307 36 38.02v-1.023h-5a2 2 0 0 1-2-2v-3A2 2 0 0 1 31 30h5v-1a1 1 0 0 1 2 0v9.021c4.022.195 7.776 1.556 11.004 3.793L49 39c0-.5.502-.995 1-1 .506-.005 1 .5 1 1l.001 4.367C56.266 47.939 59.746 54.987 60 63h1v-3.008c0-.496.5-.992 1-.992s1 .496 1 .992v2.999a2 2 0 0 1-2 2h-.017c-.923.009-1.553.015-1.973 0H59L15 65c-1 0-1-1-1-1 0-5.527 1.57-10.635 4.13-14.873.78-1.295 2.498-.29 1.637 1.144A26.518 26.518 0 0 0 16 63h15Zm2 0h8v-5a4.006 4.006 0 0 0-4-4.007c-2.21 0-4 1.798-4 4.007v5Zm3-28.002v-3h-5v3h5Z"/>
  </symbol>
  <use class="fr-artwork-decorative" href="#artwork-decorative"/>
  <use class="fr-artwork-minor" href="#artwork-minor"/>
  <use class="fr-artwork-major" href="#artwork-major"/>
</svg>
