<svg width="80px" height="80px" viewBox="0 0 80 80" xmlns="http://www.w3.org/2000/svg">
 	<style>
		.fr-artwork-decorative {
			fill: #ECECFF;
		}
		.fr-artwork-minor {
			fill: #E1000F;
		}
		.fr-artwork-major {
			fill: #000091;
		}
	</style>
	<g class="fr-artwork-decorative" id="artwork-decorative">
    <path d="M57,78c-0.5514,0-1-0.4486-1-1s0.4486-1,1-1s1,0.4486,1,1S57.5514,78,57,78z M61,6c-0.5514,0-1-0.4486-1-1
	c0-0.55145,0.4486-1,1-1s1,0.44855,1,1C62,5.5514,61.5514,6,61,6z M27,78c-0.5514,0-1-0.4486-1-1s0.4486-1,1-1s1,0.4486,1,1
	S27.5514,78,27,78z"/>
  </g>
  <g class="fr-artwork-minor" id="artwork-minor">
    <path d="M44.99329,9.88336L45,10v4c0,0.55231-0.44769,1-1,1c-0.51282,0-0.93549-0.38599-0.99329-0.88342L43,14v-4
	c0-0.55231,0.44769-1,1-1C44.51282,9,44.93549,9.38605,44.99329,9.88336z M19,34h-6l-0.11658,0.00671
	C12.38599,34.06451,12,34.48718,12,35c0,0.55231,0.44769,1,1,1h6l0.11658-0.00671C19.61401,35.93549,20,35.51282,20,35
	C20,34.44769,19.55231,34,19,34z M43,37c0,1.65692-1.34308,3-3,3s-3-1.34308-3-3s1.34308-3,3-3S43,35.34308,43,37z M41,37
	c0-0.55231-0.44769-1-1-1s-1,0.44769-1,1s0.44769,1,1,1S41,37.55231,41,37z M19,38h-6l-0.11658,0.00671
	C12.38599,38.06451,12,38.48718,12,39c0,0.55231,0.44769,1,1,1h6l0.11658-0.00671C19.61401,39.93549,20,39.51282,20,39
	C20,38.44769,19.55231,38,19,38z M31,34h-6l-0.11658,0.00671C24.38599,34.06451,24,34.48718,24,35c0,0.55231,0.44769,1,1,1h6
	l0.11658-0.00671C31.61401,35.93549,32,35.51282,32,35C32,34.44769,31.55231,34,31,34z M31,38h-6l-0.11658,0.00671
	C24.38599,38.06451,24,38.48718,24,39c0,0.55231,0.44769,1,1,1h6l0.11658-0.00671C31.61401,39.93549,32,39.51282,32,39
	C32,38.44769,31.55231,38,31,38z M55,34h-6l-0.11658,0.00671C48.38599,34.06451,48,34.48718,48,35c0,0.55231,0.44769,1,1,1h6
	l0.11658-0.00671C55.61401,35.93549,56,35.51282,56,35C56,34.44769,55.55231,34,55,34z M55,38h-6l-0.11658,0.00671
	C48.38599,38.06451,48,38.48718,48,39c0,0.55231,0.44769,1,1,1h6l0.11658-0.00671C55.61401,39.93549,56,39.51282,56,39
	C56,38.44769,55.55231,38,55,38z M61,36h6l0.11658-0.00671C67.61401,35.93549,68,35.51282,68,35c0-0.55231-0.44769-1-1-1h-6
	l-0.11658,0.00671C60.38599,34.06451,60,34.48718,60,35C60,35.55231,60.44769,36,61,36z M67,38h-6l-0.11658,0.00671
	C60.38599,38.06451,60,38.48718,60,39c0,0.55231,0.44769,1,1,1h6l0.11658-0.00671C67.61401,39.93549,68,39.51282,68,39
	C68,38.44769,67.55231,38,67,38z"/>
  </g>
  <g class="fr-artwork-major" id="artwork-major">
    <path d="M39.00671,14.11658L39,14v-4c0-0.55231,0.44769-1,1-1c0.51282,0,0.93549,0.38605,0.99329,0.88336L41,10v4
	c0,0.55231-0.44769,1-1,1C39.48718,15,39.06451,14.61401,39.00671,14.11658z M77,26H64v-5l-0.00671-0.11658
	C63.93549,20.38599,63.51282,20,63,20c-0.55231,0-1,0.44769-1,1v5H18v-4h35l0.11658-0.00671C53.61401,21.93549,54,21.51282,54,21
	c0-0.55231-0.44769-1-1-1H41v-3l-0.00671-0.11658C40.93549,16.38599,40.51282,16,40,16c-0.55231,0-1,0.44769-1,1v3H17
	l-0.11658,0.00671C16.38599,20.06451,16,20.48718,16,21v5H3l-0.11664,0.00671C2.38605,26.06451,2,26.48718,2,27
	c0,0.55231,0.44769,1,1,1h74l0.11658-0.00671C77.61401,27.93549,78,27.51282,78,27C78,26.44769,77.55231,26,77,26z M25,66
	c0.55231,0,1-0.44769,1-1V45l-0.00671-0.11658C25.93549,44.38599,25.51282,44,25,44c-0.55231,0-1,0.44769-1,1v20l0.00671,0.11658
	C24.06451,65.61401,24.48718,66,25,66z M21,48c-0.55231,0-1,0.44769-1,1v19h-8V49l-0.00671-0.11658
	C11.93549,48.38599,11.51282,48,11,48c-0.55231,0-1,0.44769-1,1v19H7l-0.11664,0.00671C6.38605,68.06451,6,68.48718,6,69
	c0,0.55231,0.44769,1,1,1h14c0.06903,0,0.13641-0.00702,0.20148-0.02032C21.65723,69.88641,22,69.48322,22,69V49l-0.00671-0.11658
	C21.93549,48.38599,21.51282,48,21,48z M15,62c0.55231,0,1-0.44769,1-1V45l-0.00671-0.11658C15.93549,44.38599,15.51282,44,15,44
	c-0.55231,0-1,0.44769-1,1v16l0.00671,0.11658C14.06451,61.61401,14.48718,62,15,62z M57,22h2l0.11658-0.00671
	C59.61401,21.93549,60,21.51282,60,21c0-0.55231-0.44769-1-1-1h-2l-0.11658,0.00671C56.38599,20.06451,56,20.48718,56,21
	C56,21.55231,56.44769,22,57,22z M7,66c0.55231,0,1-0.44769,1-1V31l-0.00671-0.11658C7.93549,30.38599,7.51282,30,7,30
	c-0.55231,0-1,0.44769-1,1v34l0.00671,0.11658C6.06451,65.61401,6.48718,66,7,66z M33,48h14
	c0.51282,0,0.93549,0.38599,0.99329,0.88342L48,49v15h3c0.55231,0,1,0.44769,1,1c0,0.51282-0.38599,0.93549-0.88342,0.99329L51,66
	H29c-0.55231,0-1-0.44769-1-1c0-0.51282,0.38599-0.93549,0.88342-0.99329L29,64h3V49c0-0.51282,0.38599-0.93549,0.88342-0.99329
	L33,48z M34,64h5v-9c0-0.55231,0.44769-1,1-1c0.51282,0,0.93549,0.38599,0.99329,0.88342L41,55v9h5V49.99902H34V64z M45,46
	l0.11658-0.00671C45.61401,45.93549,46,45.51282,46,45c0-0.55231-0.44769-1-1-1H35l-0.11658,0.00671
	C34.38599,44.06451,34,44.48718,34,45c0,0.55231,0.44769,1,1,1H45z M55.99329,65.11658L56,65V45c0-0.55231-0.44769-1-1-1
	c-0.51282,0-0.93549,0.38599-0.99329,0.88342L54,45v20c0,0.55231,0.44769,1,1,1C55.51282,66,55.93549,65.61401,55.99329,65.11658z
	 M59.99329,61.11658L60,61V49c0-0.55231-0.44769-1-1-1c-0.51282,0-0.93549,0.38599-0.99329,0.88342L58,49v12
	c0,0.55231,0.44769,1,1,1C59.51282,62,59.93549,61.61401,59.99329,61.11658z M65.99329,65.11658L66,65V45c0-0.55231-0.44769-1-1-1
	c-0.51282,0-0.93549,0.38599-0.99329,0.88342L64,45v20c0,0.55231,0.44769,1,1,1C65.51282,66,65.93549,65.61401,65.99329,65.11658z
	 M69,48c-0.51282,0-0.93549,0.38599-0.99329,0.88342L68,49v19H25l-0.11658,0.00671C24.38599,68.06451,24,68.48718,24,69
	c0,0.55231,0.44769,1,1,1h44c0.03949,0,0.07843-0.00232,0.1167-0.00671c0.45898-0.05341,0.8233-0.4176,0.87659-0.87671
	C69.99768,69.07837,70,69.03937,70,69V49C70,48.44769,69.55231,48,69,48z M73,30c-0.55231,0-1,0.44769-1,1v38l0.00671,0.11658
	C72.06451,69.61401,72.48718,70,73,70c0.55231,0,1-0.44769,1-1V31l-0.00671-0.11658C73.93549,30.38599,73.51282,30,73,30z"/>
  </g>
</svg>
