<svg width="80px" height="80px" viewBox="0 0 80 80" xmlns="http://www.w3.org/2000/svg">
  <style>
    .fr-artwork-decorative {
      fill: #ECECFF;
    }
    .fr-artwork-minor {
      fill: #E1000F;
    }
    .fr-artwork-major {
      fill: #000091;
    }
  </style>
  <symbol id="artwork-decorative">
    <path d="M16.3 10.7a1 1 0 1 0 0-2 1 1 0 0 0 0 2ZM67 13.7a1 1 0 1 0 0-2 1 1 0 0 0 0 2ZM65 74.4a1 1 0 1 0 0-2 1 1 0 0 0 0 2ZM23.2 76.9a1 1 0 1 0 0-2 1 1 0 0 0 0 2Z"/>
  </symbol>
  <symbol id="artwork-minor">
    <path d="M61 41a1 1 0 0 1 1-1h4a1 1 0 1 1 0 2h-4a1 1 0 0 1-1-1ZM51 41a1 1 0 0 1 1-1h4a1 1 0 1 1 0 2h-4a1 1 0 0 1-1-1ZM61 46a1 1 0 0 1 1-1h4a1 1 0 1 1 0 2h-4a1 1 0 0 1-1-1ZM51 46a1 1 0 0 1 1-1h4a1 1 0 1 1 0 2h-4a1 1 0 0 1-1-1ZM25 34a1 1 0 0 1 1-1h4a1 1 0 1 1 0 2h-4a1 1 0 0 1-1-1ZM14 34a1 1 0 0 1 1-1h4a1 1 0 1 1 0 2h-4a1 1 0 0 1-1-1ZM25 39a1 1 0 0 1 1-1h4a1 1 0 1 1 0 2h-4a1 1 0 0 1-1-1ZM14 39a1 1 0 0 1 1-1h4a1 1 0 1 1 0 2h-4a1 1 0 0 1-1-1ZM36 34a1 1 0 0 1 1-1h4a1 1 0 1 1 0 2h-4a1 1 0 0 1-1-1ZM36 39a1 1 0 0 1 1-1h4a1 1 0 1 1 0 2h-4a1 1 0 0 1-1-1ZM52 53.015v5.966l.008.012a.016.016 0 0 0 .005.004l.004.002a.09.09 0 0 0 .017.001h3.903a.216.216 0 0 0 .063-.056V53.019a.045.045 0 0 0-.008-.012l-.005-.004-.004-.002a.08.08 0 0 0-.017-.001h-3.931c-.001 0-.007 0-.016.004a.076.076 0 0 0-.019.01Zm4 .006Zm-.073 5.984ZM50 53.013C50 51.77 51.052 51 52.035 51h3.93C57.183 51 58 52 58 53.013v5.974c0 .586-.289 1.083-.624 1.411-.336.33-.834.602-1.41.602h-3.931C50.817 61 50 60 50 58.987v-5.974ZM62 53.014v5.967l.008.013.004.003.004.002.016.001h3.923a.14.14 0 0 0 .032-.004V53.02a.046.046 0 0 0-.009-.013.019.019 0 0 0-.003-.003L65.97 53a.076.076 0 0 0-.016-.001h-3.923s-.005 0-.013.004a.072.072 0 0 0-.019.01Zm3.987.007ZM60 53.013C60 51.772 61.049 51 62.032 51h3.923a2.024 2.024 0 0 1 2.032 2.013v5.895c.08.613-.195 1.146-.545 1.49-.376.368-.91.602-1.487.602h-3.923A2.024 2.024 0 0 1 60 58.987v-5.974Z"/>
  </symbol>
  <symbol id="artwork-major">
    <path d="M42.625 12.78a1 1 0 0 0-1.25-1.56l-15 12a1 1 0 1 0 1.25 1.56l15-12ZM47.987 13.836a.996.996 0 0 0-.951-.835 1 1 0 0 0-.666.222l-9.995 7.996a1 1 0 1 0 1.25 1.562L46 16.08V67H13a1 1 0 1 0 0 2h34a1 1 0 0 0 1-1M58 29a1 1 0 1 0 0 2h8a1 1 0 1 0 0-2h-8ZM50 34a1 1 0 0 1 1-1h20a1 1 0 0 1 1 1v34a1 1 0 0 1-1 1H51a1 1 0 1 1 0-2h19V35H51a1 1 0 0 1-1-1ZM10 68.1a1 1 0 1 1-2 0 1 1 0 0 1 2 0Z M22 44a1 1 0 0 1 1-1h10a1 1 0 1 1 0 2H23a1 1 0 0 1-1-1Z M33.768 24.86a1 1 0 0 1-.128 1.408l-3 2.5A1 1 0 0 1 30 29H10v35a1 1 0 1 1-2 0V28a1 1 0 0 1 1-1h20.638l2.722-2.268a1 1 0 0 1 1.408.128Z"/>
    <path fill-rule="evenodd" clip-rule="evenodd" d="M16 64a1 1 0 0 1 1-1h3V48a1 1 0 0 1 1-1h14a1 1 0 0 1 1 1v15h3a1 1 0 1 1 0 2H17a1 1 0 0 1-1-1Zm13-1v-9a1 1 0 1 0-2 0v9h-5V49h12v14h-5Z"/>
  </symbol>
  <use class="fr-artwork-decorative" href="#artwork-decorative"/>
  <use class="fr-artwork-minor" href="#artwork-minor"/>
  <use class="fr-artwork-major" href="#artwork-major"/>
</svg>
