<svg width="80px" height="80px" viewBox="0 0 80 80" xmlns="http://www.w3.org/2000/svg">
 	<style>
		.fr-artwork-decorative {
			fill: #ECECFF;
		}
		.fr-artwork-minor {
			fill: #E1000F;
		}
		.fr-artwork-major {
			fill: #000091;
		}
	</style>
	<symbol id="artwork-decorative">
    <path d="M63,22c-0.5514,0-1-0.4486-1-1s0.4486-1,1-1s1,0.4486,1,1S63.5514,22,63,22z M18,80c-0.5514,0-1-0.4486-1-1
	s0.4486-1,1-1s1,0.4486,1,1S18.5514,80,18,80z M18,2c-0.5514,0-1-0.4486-1-1c0-0.55145,0.4486-1,1-1s1,0.44855,1,1
	C19,1.5514,18.5514,2,18,2z"/>
  </symbol>
  <symbol id="artwork-minor">
    <path d="M28.66351,9.84943c-0.21002,0.18628-0.48853,0.27576-0.7677,0.24658
	c-1.53699-0.16058-2.57654,0.09747-3.19128,0.70819c-0.49634,0.49292-0.49634,1.37708,0.19788,2.83301
	c0.133,0.27911,0.12958,0.604-0.0094,0.88007l-1,1.98645l-0.06299,0.10779c-0.18414,0.27441-0.49445,0.44257-0.8302,0.44257
	c-2.1676,0-3,0.62012-3,1.97974c0,1.35956,0.8324,1.97968,3,1.97968c0.55219,0,1,0.44769,1,1V24l-0.00684,0.11658
	C23.9353,24.61401,23.51257,25,22.99982,25l-0.1167-0.00671c-0.49731-0.0578-0.8833-0.48047-0.8833-0.99329v-1.03699
	l-0.2738-0.03284c-2.3786-0.33246-3.7262-1.65637-3.7262-3.89636l0.00439-0.22089c0.09247-2.25153,1.61261-3.52216,4.21118-3.72882
	l0.15839-0.01111l0.52002-1.03198l-0.1087-0.26813c-0.69159-1.81348-0.56732-3.31769,0.51001-4.3877l0.16882-0.15863
	c0.97906-0.86975,2.33698-1.24493,4.02875-1.16626l0.18115,0.01068l0.0614-0.04913c1.19885-0.92804,2.40765-1.25073,3.57886-0.86298
	c1.20154,0.39783,2.0835,1.2738,2.61053,2.55548c0.21008,0.51074-0.03369,1.09515-0.54449,1.30511
	c-0.5108,0.21014-1.09521-0.03369-1.30524-0.54449c-0.31348-0.76233-0.76489-1.21063-1.3894-1.41742
	C30.16058,8.88379,29.50842,9.09973,28.66351,9.84943z M25,56c0.51288,0,0.93549-0.38599,0.99329-0.88342L26,55
	c0-0.51282-0.38599-0.93549-0.88342-0.99329L25,54h-3.14282c-0.9483,0-1.77087,0.67828-1.85077,1.60217L20,55.75v4.5
	c0,0.94849,0.77521,1.67419,1.70862,1.74438L21.85718,62H25c0.55231,0,1-0.44769,1-1c0-0.51282-0.38599-0.93549-0.88342-0.99329
	L25,60h-3v-4H25z M36.14288,54H33l-0.11658,0.00671C32.38611,54.06451,32,54.48718,32,55l0.00671,0.11658
	C32.06451,55.61401,32.48718,56,33,56h3v4h-3l-0.11658,0.00671C32.38611,60.06451,32,60.48718,32,61c0,0.55231,0.44769,1,1,1
	h3.14288l0.14862-0.00562C37.22479,61.92419,38,61.19849,38,60.25v-4.5l-0.00629-0.14783C37.91382,54.67828,37.09113,54,36.14288,54
	z M52.29041,10.00262L52.00031,10h-1.08398l-0.01465-0.08289c-0.35236-1.80792-1.63928-2.84161-3.67249-2.91315L47.00031,7
	c-1.98969,0-3.3559,0.64551-3.82281,1.92334l-0.03918,0.12164l-0.07959,0.00873c-1.84808,0.22375-2.96991,1.14557-3.05341,2.75037
	L40.00031,12c0,0.55231,0.44769,1,1,1c0.51282,0,0.93549-0.38599,0.99323-0.88342L42.00031,12c0-0.67529,0.487-1,2-1
	c0.51282,0,0.93549-0.38599,0.99323-0.88342L45.00031,10c0-0.67529,0.487-1,2-1c1.44769,0,2,0.55231,2,2
	c0,0.51282,0.38599,0.93549,0.8833,0.99329L50.00031,12h2c2.85291,0,4,0.68829,4,2s-1.14709,2-4,2c-0.55231,0-1,0.44769-1,1
	c0,0.67529-0.48712,1-2,1c-0.81171,0-1.42249-0.05878-1.81207-0.16248L47.034,17.7901l-0.05768-0.02307l-0.02734-0.10095
	c-0.26428-0.80688-1.47455-0.93378-1.85437-0.09247l-0.04303,0.11017C44.51868,19.28247,43.56201,20,42.00031,20
	c-1.56183,0-2.51849-0.71753-3.05139-2.31622c-0.30389-0.91168-1.59338-0.91168-1.89734,0C36.50653,19.31891,35.8255,20,35.00031,20
	c-1.0047,0-1.71771-0.21191-2.18201-0.6051l-0.1109-0.10199c-0.52069-0.52069-1.39099-0.3147-1.64142,0.34967l-0.03589,0.11493l-1,4
	c-0.13391,0.53577,0.19183,1.07867,0.7276,1.21259c0.4975,0.12439,1.00122-0.14758,1.17792-0.61609l0.03479-0.11151l0.66492-2.65552
	l0.01917,0.00934c0.59814,0.24127,1.28491,0.37256,2.05365,0.3988L35.00031,22c1.2276,0,2.22302-0.58618,2.98383-1.67767
	l0.06818-0.10236c0.8847,1.11176,2.13391,1.71765,3.6983,1.77545L42.00031,22c1.84967,0,3.28027-0.7381,4.21259-2.14282
	l0.1134-0.17816c0.61963,0.21277,1.43231,0.30621,2.42273,0.3194L49.00031,20c1.98962,0,3.35577-0.64551,3.82269-1.92328
	l0.03333-0.10071l0.2655-0.01752c3.02856-0.23511,4.77667-1.47229,4.87415-3.75439L58.00031,14
	C58.00031,11.38068,55.92468,10.06818,52.29041,10.00262z"/>
  </symbol>
  <symbol id="artwork-major">
    <path d="M70,69c0,0.51282-0.38599,0.93549-0.88342,0.99329L69,70H55c-0.55231,0-1-0.44769-1-1
	c0-0.51282,0.38599-0.93549,0.88342-0.99329L55,68h7v-8h-9c-0.55231,0-1-0.44769-1-1c0-0.51282,0.38599-0.93549,0.88342-0.99329
	L53,58h9v-3c0-0.55231,0.44769-1,1-1c0.51282,0,0.93549,0.38599,0.99329,0.88342L64,55v13h5C69.55231,68,70,68.44769,70,69z M59,72
	H19l-0.11658,0.00671C18.38599,72.06451,18,72.48718,18,73c0,0.55231,0.44769,1,1,1h40l0.11658-0.00671
	C59.61401,73.93549,60,73.51282,60,73C60,72.44769,59.55231,72,59,72z M47,50l-0.11658,0.00671C46.38599,50.06451,46,50.48718,46,51
	c0,0.55231,0.44769,1,1,1h6l0.11658-0.00671C53.61401,51.93549,54,51.51282,54,51c0-0.55231-0.44769-1-1-1H47z M49,70H11
	c-0.55231,0-1-0.44769-1-1c0-0.51282,0.38599-0.93549,0.88342-0.99329L11,68h3V52l-0.14929-0.00549
	C12.81592,51.91821,12,51.05438,12,50v-2l0.00549-0.14929C12.08179,46.81592,12.94562,46,14,46h6.10498l1.88879-17
	C20.89209,28.9967,20,28.10248,20,27v-3c0-0.55231,0.44769-1,1-1h12c0.55231,0,1,0.44769,1,1v3c0,1.10248-0.89209,1.9967-1.99377,2
	l1.5423,13.88068c0.06085,0.54895-0.33459,1.04333-0.88354,1.10431c-0.5097,0.0567-0.97235-0.28027-1.08466-0.76819
	l-0.01959-0.11517L30.99377,38H29c-0.55231,0-1-0.44769-1-1c0-0.51282,0.38599-0.93549,0.88342-0.99329L29,36h1.77161l-0.22223-2H27
	c-0.55231,0-1-0.44769-1-1c0-0.51282,0.38599-0.93549,0.88342-0.99329L27,32h3.32721l-0.32111-2.88959
	C30.00201,29.0733,30,29.0365,29.99988,29h-6.00018l-0.0058,0.11041L22.11731,46H42v-4h-2c-1.10461,0-2-0.89539-2-2v-2
	c0-1.10461,0.89539-2,2-2h2.09998c0.46332-2.28223,2.48102-4,4.90002-4h12l0.21692,0.00458
	c2.3219,0.09912,4.2337,1.78174,4.68311,3.99542H66c1.10461,0,2,0.89539,2,2v2c0,1.10461-0.89539,2-2,2h-2v9
	c0,0.55231-0.44769,1-1,1c-0.51282,0-0.93549-0.38599-0.99329-0.88342L62,51v-3h-9c-0.55231,0-1-0.44769-1-1
	c0-0.51282,0.38599-0.93549,0.88342-0.99329L53,46h9v-4H44v26h5c0.55231,0,1,0.44769,1,1c0,0.51282-0.38599,0.93549-0.88342,0.99329
	L49,70z M22,27h10v-2H22V27z M42,48H21.01453c-0.00885,0.00012-0.0177,0.00012-0.02655,0H14v2h23l0.11658,0.00671
	C37.61401,50.06451,38,50.48718,38,51c0,0.55231-0.44769,1-1,1H16v12h21c0.55231,0,1,0.44769,1,1
	c0,0.51282-0.38599,0.93549-0.88342,0.99329L37,66H16v2h26v-2h-1c-0.55231,0-1-0.44769-1-1
	c0-0.51282,0.38599-0.93549,0.88342-0.99329L41,64h1V48z M44.17072,36h17.65857c-0.4118-1.16522-1.52307-2-2.82928-2H47
	l-0.17627,0.00513C45.59448,34.07629,44.5639,34.88757,44.17072,36z M66,40v-2H40v2H66z"/>
  </symbol>
  <use class="fr-artwork-decorative" href="#artwork-decorative"/>
  <use class="fr-artwork-minor" href="#artwork-minor"/>
  <use class="fr-artwork-major" href="#artwork-major"/>
</svg>
