<svg width="80px" height="80px" viewBox="0 0 80 80" xmlns="http://www.w3.org/2000/svg">
 	<style>
		.fr-artwork-decorative {
			fill: #ECECFF;
		}
		.fr-artwork-minor {
			fill: #E1000F;
		}
		.fr-artwork-major {
			fill: #000091;
		}
	</style>
	<symbol id="artwork-decorative">
        <path d="M68 13c-.5514 0-1-.4486-1-1s.4486-1 1-1 1 .4486 1 1-.4486 1-1 1ZM41 76c-.5514 0-1-.4486-1-1s.4486-1 1-1 1 .4486 1 1-.4486 1-1 1ZM15 10c-.5514 0-1-.4486-1-1s.4486-1 1-1 1 .4486 1 1-.4486 1-1 1Z" />
    </symbol>
    <symbol id="artwork-minor">
        <path d="M53 44c.5523 0 1 .4477 1 1v10c0 .5523-.4477 1-1 1H43c-.5523 0-1-.4477-1-1V45c0-.5523.4477-1 1-1Zm-6 7h-3v3h3v-3Zm5 0h-3v3h3v-3Zm-5-5h-3v3h3v-3Zm5 0h-3v3h3v-3Zm-7-14c.5523 0 1 .4477 1 1s-.4477 1-1 1H35c-.5523 0-1-.4477-1-1s.4477-1 1-1h10Z" />
  </symbol>
    <symbol id="artwork-major">
        <path d="M29 18c.5523 0 1 .4477 1 1s-.4477 1-1 1h-7v2h3c.5128 0 .9355.386.9933.8834L26 23c0 .5523-.4477 1-1 1h-1v2.722l15.5601-7.62.1077-.0453a.9899.9899 0 0 1 .332-.057.9936.9936 0 0 1 .2976.0454l.0136.0045.0212.007.1077.0453 24.5 12a1 1 0 0 1 .4705 1.3119l-2.5 5.5c-.2375.5225-.865.7383-1.3737.4724L60 37.583v4.8876c0 .5523-.4477 1-1 1s-1-.4477-1-1V36.649l-18-9.518-18 9.517V60h4V45c0-.5523.4477-1 1-1h10c.5523 0 1 .4477 1 1v15h11c.5523 0 1 .4477 1 1s-.4477 1-1 1H9c-.5523 0-1-.4477-1-1s.4477-1 1-1h3l.0003-2.0629C9.4143 57.5952 8 55.8685 8 53c0-2.8613 1.3748-6.9856 4.1056-12.4472l.0134-.0268.027-.047.036-.0545a.9497.9497 0 0 1 .0741-.0932.9717.9717 0 0 1 .1207-.1136l.0478-.0358.0534-.0359.0748-.0404.0118-.0058a.9768.9768 0 0 1 .0656-.029l.0203-.0078.0206-.0075a1.1595 1.1595 0 0 1 .1145-.0325l.0197-.004a.9768.9768 0 0 1 .1863-.0192h.0168a.9939.9939 0 0 1 .111.007l.0753.0123.0198.0041a.878.878 0 0 1 .0663.0169l.0239.0074.0237.008a1.0318 1.0318 0 0 1 .1072.0443l.0116.0058.0728.0404.0555.036a.9497.9497 0 0 1 .0932.0741.9717.9717 0 0 1 .1136.1207l.0358.0478.0349.0534.027.048.0144.0268C16.6252 46.0144 18 50.1388 18 53c0 2.8682-1.414 4.5948-3.9993 4.937L14 60h6V37.583l-1.5367.8032c-.5087.2659-1.1362.05-1.3737-.4724l-2.5-5.5a1 1 0 0 1 .4705-1.3119l7.1421-3.4988A.9956.9956 0 0 1 22 27v-3h-1c-.5523 0-1-.4477-1-1v-4c0-.5523.4477-1 1-1h8Zm36.059 28.0017a.9962.9962 0 0 1 .6481.2912C67.2487 47.8345 68 50.0884 68 53c0 2.5869-.6252 4.2985-1.999 4.8266L66 60h3c.5523 0 1 .4477 1 1s-.4477 1-1 1H55c-.5523 0-1-.4477-1-1s.4477-1 1-1h3V49c0-.5523.4477-1 1-1s1 .4477 1 1v11h4v-2.173c-1.3745-.5277-2-2.2395-2-4.827 0-2.9116.7513-5.1655 2.2929-6.7071a.9962.9962 0 0 1 .648-.2912h.1181ZM36 46h-8v14h8V46Zm29.0007 2.6123-.035.056C64.3274 49.7474 64 51.1836 64 53c0 2.1012.3766 2.9353.9325 2.9964L65 56l.0675-.0036C65.6234 55.9353 66 55.1012 66 53c0-1.8478-.3389-3.3023-.9993-4.3877ZM13 43.2933l-.1982.428C10.93 47.7945 10 50.9025 10 53c0 2.1144.8856 3 3 3l.2074-.003C15.1724 55.9396 16 55.044 16 53c0-2.1704-.9958-5.4226-3.0001-9.7067ZM33 50c.5523 0 1 .4477 1 1v2c0 .5523-.4477 1-1 1s-1-.4477-1-1v-2c0-.5523.4477-1 1-1Zm6.999-28.887L16.812 32.47l1.66 3.653 21.0647-11.0092.038-.019.0163-.0078.0128-.0052.0102-.0048.058-.0218a1.1536 1.1536 0 0 1 .0802-.0242l.0339-.0079a1.0048 1.0048 0 0 1 .0865-.0152l.0233-.0026a1.0007 1.0007 0 0 1 .0461-.0038l.016-.0008.0684-.0006.0236.001c.019.001.0381.0025.057.0045.004.0006.0086.001.0132.0016a.7857.7857 0 0 1 .0454.0063l.0272.0052.018.0035.014.0031c.0044.0013.0094.0025.0143.0037a.8034.8034 0 0 1 .0369.0096l.023.0072.029.0094.0682.0266.0178.0082.0173.0077.032.016L61.528 36.123l1.66-3.653-23.189-11.357Z" />
    </symbol>
  <use class="fr-artwork-decorative" href="#artwork-decorative"/>
  <use class="fr-artwork-minor" href="#artwork-minor"/>
  <use class="fr-artwork-major" href="#artwork-major"/>
</svg>