<svg width="80px" height="80px" viewBox="0 0 80 80" xmlns="http://www.w3.org/2000/svg">
 	<style>
		.fr-artwork-decorative {
			fill: #ECECFF;
		}
		.fr-artwork-minor {
			fill: #E1000F;
		}
		.fr-artwork-major {
			fill: #000091;
		}
	</style>
	<symbol id="artwork-decorative">
    <path d="M76,74c-0.5514,0-1-0.4486-1-1s0.4486-1,1-1s1,0.4486,1,1S76.5514,74,76,74z M39,8c-0.5514,0-1-0.4486-1-1
	c0-0.55145,0.4486-1,1-1s1,0.44855,1,1C40,7.5514,39.5514,8,39,8z M4,66c-0.5514,0-1-0.4486-1-1s0.4486-1,1-1s1,0.4486,1,1
	S4.5514,66,4,66z"/>
  </symbol>
  <symbol id="artwork-minor">
    <path d="M28,55c1.65692,0,3-1.34308,3-3s-1.34308-3-3-3s-3,1.34308-3,3S26.34308,55,28,55z M28,51
	c0.55231,0,1,0.44769,1,1s-0.44769,1-1,1s-1-0.44769-1-1S27.44769,51,28,51z M25.93427,46.53088
	c-0.01471-0.05054-0.01428-0.10254-0.03754-0.15167l-2.99915-6.33911l-0.05756-0.10529
	c-0.27325-0.43524-0.84174-0.59753-1.30902-0.35364C16.94067,41.97681,14,46.72772,14,52c0,0.55231,0.44769,1,1,1h7l0.11658-0.00671
	c0.05609-0.00653,0.104-0.03308,0.15686-0.04846c0.05109-0.01483,0.10248-0.02386,0.14978-0.04626
	c0.06854-0.03235,0.12592-0.07825,0.18488-0.12469c0.03833-0.03015,0.0802-0.05341,0.11377-0.08868
	c0.05664-0.05957,0.09644-0.13116,0.13708-0.20325c0.02063-0.0365,0.04919-0.06659,0.06512-0.10577
	C22.97162,52.25964,23,52.13361,23,52c0-1.80377,0.96228-3.4389,2.49469-4.32819c0.04724-0.0274,0.0766-0.07062,0.11755-0.10413
	c0.05219-0.0426,0.10669-0.08044,0.1485-0.13165c0.04132-0.05048,0.06702-0.10718,0.09735-0.16388
	c0.03033-0.05652,0.0636-0.10925,0.08264-0.17035c0.01917-0.06146,0.02161-0.12402,0.02869-0.18811
	c0.00714-0.0636,0.01813-0.12457,0.01276-0.18921C25.97675,46.65833,25.95325,46.59595,25.93427,46.53088z M21.07538,51h-5.03436
	l0.02661-0.27789c0.38049-3.57831,2.34369-6.76489,5.30359-8.72742l0.18176-0.11871l2.16888,4.58307
	C22.2901,47.5647,21.33569,49.18884,21.07538,51z M20.48462,63.81372C22.71271,65.23383,25.30103,66,28.00012,66
	c2.68628,0,5.263-0.75891,7.48425-2.16638c0.41992-0.26624,0.58063-0.80042,0.37714-1.25415l-2.92981-6.53027l-0.05389-0.10358
	c-0.02216-0.03723-0.05695-0.06122-0.08319-0.0946c-0.01508-0.01941-0.0199-0.04333-0.03662-0.06189
	c-0.01483-0.01648-0.03552-0.02271-0.05121-0.03796c-0.06073-0.0589-0.12628-0.10614-0.19873-0.1474
	c-0.04053-0.02332-0.07843-0.04694-0.12122-0.06415c-0.06946-0.02777-0.14044-0.04169-0.2146-0.05347
	c-0.05096-0.00818-0.09924-0.01935-0.15082-0.01971c-0.06519-0.00024-0.12848,0.0144-0.19385,0.02734
	c-0.0614,0.01178-0.12109,0.0199-0.17993,0.04333c-0.01233,0.00494-0.02539,0.0036-0.03766,0.00909l-0.1037,0.05389
	c-0.0282,0.01678-0.04559,0.04382-0.07159,0.06299c-0.02844,0.02063-0.06232,0.02856-0.08899,0.05261
	C30.43329,56.5379,29.25391,57,27.99988,57c-1.2251,0-2.37543-0.44647-3.27893-1.23376
	c-0.01453-0.01514-0.03546-0.02386-0.05096-0.03809c-0.00378-0.00336-0.0083-0.00562-0.01208-0.00903
	c-0.00134-0.00122-0.00311-0.0014-0.00446-0.00262c-0.07184-0.06335-0.14581-0.12549-0.23743-0.16742
	c-0.02478-0.01135-0.05121-0.00867-0.07642-0.01782c-0.03741-0.01404-0.07538-0.01721-0.11383-0.02661
	c-0.0863-0.02026-0.17029-0.03876-0.25641-0.03595c-0.05225,0.00104-0.10107,0.01611-0.15259,0.02527
	c-0.07013,0.01343-0.13879,0.02332-0.20435,0.05115c-0.0647,0.02643-0.12018,0.06903-0.17908,0.10944
	c-0.04553,0.03192-0.09204,0.05859-0.13208,0.09821c-0.01703,0.01648-0.03943,0.02338-0.05554,0.04126
	c-0.05084,0.05652-0.0755,0.12463-0.11115,0.18829c-0.01233,0.02234-0.03308,0.0368-0.04388,0.06042l-0.0282,0.06171
	c-0.00598,0.01544-0.01532,0.02905-0.02045,0.04468l-2.92938,6.4054l-0.04425,0.11499
	C19.93341,63.09589,20.09888,63.56781,20.48462,63.81372z M24.39508,57.99884C25.46869,58.64526,26.70697,59,27.99988,59
	c1.29596,0,2.53705-0.3562,3.61237-1.00543l2.05585,4.58344l-0.28906,0.15222C31.72888,63.55939,29.89789,64,28.00012,64
	l-0.40753-0.00677c-1.76111-0.05872-3.45691-0.4978-4.99469-1.27472l-0.29181-0.1535L24.39508,57.99884z M41.1167,52.99329
	c0.49731-0.0578,0.88342-0.48041,0.88342-0.99329c0-5.30469-2.97723-10.08002-7.61151-12.46039
	c-0.45459-0.23352-1.01208-0.08673-1.29272,0.34039l-3.89319,5.92609l-0.05841,0.10114
	c-0.0097,0.01929-0.00909,0.04071-0.01746,0.06036c-0.00757,0.01764-0.02246,0.02948-0.02905,0.04779
	c-0.01288,0.03571-0.00732,0.07184-0.01599,0.10791c-0.01746,0.07239-0.03101,0.14252-0.03204,0.21576
	c-0.00085,0.05573,0.00488,0.10779,0.01318,0.16217c0.01025,0.06805,0.02563,0.13214,0.04956,0.1969
	c0.01947,0.05255,0.04187,0.10059,0.06976,0.14917c0.03333,0.05835,0.07263,0.11029,0.11804,0.16156
	c0.03912,0.04437,0.0791,0.08429,0.12622,0.12152c0.02325,0.01843,0.0376,0.04395,0.06287,0.06055l0.10114,0.05835
	c0.01941,0.00977,0.04083,0.00916,0.06061,0.01752c0.01758,0.00751,0.02942,0.02234,0.04761,0.02893
	C31.66351,48.00531,33,49.87622,33,52c0,0.55231,0.44769,1,1,1h7.00012L41.1167,52.99329z M34.92175,51
	c-0.30707-2.13397-1.58179-3.98602-3.42017-5.0509l2.75354-4.19208l0.04895,0.02979c3.13745,1.93842,5.23102,5.22217,5.6275,8.92767
	L39.95813,51H34.92175z M17.70782,64.25079c0.42255,0.35553,0.47705,0.98633,0.12158,1.409
	c-0.35553,0.42273-0.98633,0.47711-1.409,0.12158C12.37927,62.38257,10,57.38409,10,52c0-9.9411,8.0589-18,18-18
	c3.03662,0,5.96649,0.7536,8.57812,2.17181c0.48529,0.26349,0.6651,0.87061,0.40155,1.35596s-0.87067,0.6651-1.35596,0.40155
	C33.30328,36.66931,30.70111,36,28,36c-8.83661,0-16,7.16339-16,16C12,56.78741,14.11383,61.22809,17.70782,64.25079z M46,52
	c0,9.94122-8.05878,18-18,18c-2.97491,0-5.84778-0.72321-8.4201-2.08698c-0.48798-0.25873-0.67377-0.86401-0.4151-1.35193
	c0.25873-0.48792,0.86401-0.67383,1.35193-0.4151C22.80219,67.35767,25.3537,68,28,68c8.83661,0,16-7.16339,16-16
	c0-4.23322-1.64978-8.20361-4.54742-11.1731c-0.38568-0.39532-0.37787-1.02838,0.01746-1.41412
	c0.39526-0.38568,1.02838-0.37787,1.41406,0.0174C44.14252,42.76959,46,47.23962,46,52z"/>
  </symbol>
  <symbol id="artwork-major">
    <path d="M69.11499,69.99371L69,70h-6c-0.55231,0-1-0.44769-1-1c0-0.51282,0.38599-0.93549,0.88342-0.99329L63,68
	h4.26202l-0.1601-0.29498C63.21942,60.47528,61.39771,51.23822,61.6178,40H59c-0.55231,0-1-0.44769-1-1
	c0-0.51282,0.38599-0.93549,0.88342-0.99329L59,38h2.67767c0.04663-1.16107,0.11401-2.34271,0.20233-3.54468L61.91498,34h-2.8924
	c-0.0152,0.00031-0.03046,0.00031-0.0459,0h-4.55096l-0.04645,0.76678c-0.83917,15.2002,1,26.44153,5.47241,33.70911
	c0.38953,0.633-0.02368,1.43878-0.73669,1.51782L59,70h-6c-0.55231,0-1-0.44769-1-1c0-0.51282,0.38599-0.93549,0.88342-0.99329
	L53,68h4.27502l-0.198-0.37811C53.26672,60.22412,51.69,49.68689,52.31439,36H43c-0.55231,0-1-0.44769-1-1
	c0-0.51282,0.38599-0.93549,0.88342-0.99329L43,34h9.41998c0.10669-1.78522,0.24933-3.6217,0.42761-5.50952L52.89502,28h-9.87415
	c-0.01447,0.00031-0.02887,0.00031-0.04327,0H35.065l0.0661,1.10522l0.10132,1.88275c0.02557,0.5517-0.401,1.01959-0.95264,1.04523
	c-0.5517,0.02551-1.01965-0.401-1.04517-0.9527l-0.0575-1.11298l-0.17505-2.90424C32.96552,26.4873,33.42279,26,34,26h7.71881
	l-0.35382-1.41302l-0.01929,0.00934c-0.59802,0.24127-1.28479,0.37256-2.05359,0.3988L39,25
	c-1.2276,0-2.22308-0.58618-2.98383-1.67767L35.948,23.21997c-0.88477,1.11176-2.13391,1.71765-3.69843,1.77545L32,25
	c-1.84967,0-3.28027-0.7381-4.21259-2.14282l-0.1134-0.17816c-0.61969,0.21277-1.43231,0.30621-2.42273,0.3194L25,23
	c-1.98962,0-3.3559-0.64551-3.82281-1.92328l-0.0332-0.10071l-0.2655-0.01752c-3.02856-0.23511-4.77679-1.47229-4.87421-3.75439
	L16,17c0-2.61932,2.07562-3.93182,5.7099-3.99738L22,13h1.08398l0.01453-0.08289c0.35248-1.80792,1.63928-2.84161,3.67249-2.91309
	L27,10c1.98962,0,3.3559,0.64551,3.82281,1.92328l0.03918,0.1217l0.07959,0.00873c1.84808,0.22382,2.96979,1.14557,3.05341,2.75037
	L34,15c0,0.55231-0.44769,1-1,1c-0.51282,0-0.93549-0.38599-0.99329-0.88342L32,15c0-0.67529-0.487-1-2-1
	c-0.51282,0-0.93549-0.38599-0.99329-0.88342L29,13c0-0.67529-0.487-1-2-1c-1.44769,0-2,0.55231-2,2
	c0,0.51282-0.38599,0.93549-0.88342,0.99329L24,15h-2c-2.85291,0-4,0.68817-4,2c0,1.31171,1.14709,2,4,2c0.55231,0,1,0.44769,1,1
	c0,0.67529,0.487,1,2,1c0.81171,0,1.42242-0.05878,1.81207-0.16248l0.15424-0.04742l0.05768-0.02307l0.02734-0.10095
	c0.26428-0.80688,1.47455-0.93378,1.85437-0.09259l0.04303,0.11029C29.48163,22.28247,30.43829,23,32,23
	s2.51837-0.71753,3.05133-2.31622c0.30389-0.91168,1.59344-0.91168,1.8974,0C37.49371,22.31891,38.1748,23,39,23
	c1.00458,0,1.71771-0.21191,2.18201-0.6051l0.1109-0.10199c0.52069-0.52069,1.39087-0.3147,1.64142,0.34961l0.03577,0.11499
	L43.78082,26H46v-1c0-0.55231,0.44769-1,1-1c2.16669,0,3-0.625,3-2s-0.83331-2-3-2c-0.33667,0-0.64771-0.16913-0.8316-0.44458
	l-0.06281-0.10822l-1-2c-0.13739-0.27478-0.14087-0.59753-0.0094-0.87518c0.69598-1.46954,0.69598-2.3656,0.19672-2.86493
	c-0.61469-0.61469-1.65259-0.87421-3.18829-0.71259c-0.28052,0.02948-0.56049-0.06079-0.77081-0.24872
	c-0.84448-0.75452-1.495-0.97131-2.01758-0.79712c-0.62421,0.20801-1.07623,0.66016-1.39044,1.42944
	c-0.20886,0.51129-0.7926,0.75647-1.30389,0.54767c-0.51129-0.20886-0.75647-0.7926-0.54767-1.30389
	c0.52637-1.2887,1.40765-2.16998,2.60956-2.57062c1.17322-0.39099,2.38361-0.0658,3.58313,0.86896l0.06012,0.04877l0.17969-0.01038
	c1.69312-0.07935,3.05219,0.29877,4.03149,1.17456l0.16888,0.15973c1.07458,1.07458,1.19861,2.58417,0.50812,4.40637
	L47.10498,16.974l0.52301,1.04602l0.15662,0.01019c2.599,0.20801,4.11847,1.48621,4.21088,3.74786L52,22
	c0,2.25-1.34692,3.5816-3.72589,3.9162L48,25.94897V26h6c0.59302,0,1.05573,0.51312,0.99469,1.10291
	c-0.16498,1.59448-0.30481,3.15198-0.41937,4.67249L54.55939,32h3.74591c0.81848-2.39801,0.29761-3.56848-1.54779-4.02991
	c-0.75409-0.18848-1.01422-1.12756-0.4646-1.67719c1.04968-1.04968,1.27002-1.93103,0.81268-2.8457
	c-0.4715-0.94293-1.08289-1.38983-1.9325-1.44202L55,22c-0.55231,0-1-0.44769-1-1s0.44769-1,1-1
	c1.7262,0,3.06403,0.89191,3.89441,2.5528c0.6402,1.28027,0.57422,2.57843-0.13879,3.81561L58.63898,26.56l0.14972,0.08447
	C60.51019,27.6673,61.04102,29.5274,60.38757,32H63c0.58649,0,1.047,0.50238,0.99622,1.08661
	c-1.31622,15.13708,0.64911,26.92902,5.85547,35.38928C70.24121,69.10889,69.828,69.91467,69.11499,69.99371z M48.1167,68.00671
	L48,68h-8.92853c-0.55225,0-1,0.44769-1,1c0,0.51282,0.38605,0.93549,0.88342,0.99329L39.07147,70H48c0.55231,0,1-0.44769,1-1
	C49,68.48718,48.61401,68.06451,48.1167,68.00671z M31.31622,28.05127C29.68109,27.50629,29,26.8252,29,26l-0.00641-0.11511
	c-0.07556-0.67688-0.81091-1.0943-1.4408-0.7793l-0.16211,0.07452c-0.03308,0.01428-0.06909,0.02936-0.10779,0.0451
	l-0.26288,0.09998l-0.15265,0.05261c-0.51849,0.17291-1.03027,0.27527-1.47955,0.27527c-0.76221,0-1.20453-0.26538-1.43909-0.9693
	l-0.04333-0.10846c-0.2121-0.45361-0.73511-0.68622-1.22162-0.52405c-0.52399,0.17474-0.80707,0.74103-0.63245,1.26495
	c0.5307,1.59198,1.77209,2.33685,3.33649,2.33685l0.29828-0.00861c0.4989-0.02838,1.00568-0.12585,1.51093-0.27429l0.07397-0.02319
	l0.06927,0.15204c0.53314,1.07745,1.67932,1.89496,3.34351,2.44965c0.52393,0.17462,1.09021-0.10846,1.26495-0.63245
	C32.12329,28.7923,31.84021,28.22601,31.31622,28.05127z"/>
  </symbol>
  <use class="fr-artwork-decorative" href="#artwork-decorative"/>
  <use class="fr-artwork-minor" href="#artwork-minor"/>
  <use class="fr-artwork-major" href="#artwork-major"/>
</svg>
