<svg width="80px" height="80px" viewBox="0 0 80 80" xmlns="http://www.w3.org/2000/svg">
 	<style>
		.fr-artwork-decorative {
			fill: #ECECFF;
		}
		.fr-artwork-minor {
			fill: #E1000F;
		}
		.fr-artwork-major {
			fill: #000091;
		}
	</style>
	<g class="fr-artwork-decorative" id="artwork-decorative">
    <path d="M15,14c-0.5514,0-1-0.4486-1-1s0.4486-1,1-1s1,0.4486,1,1S15.5514,14,15,14z M5,70c-0.5514,0-1-0.4486-1-1
	s0.4486-1,1-1s1,0.4486,1,1S5.5514,70,5,70z M75,64c-0.5514,0-1-0.4486-1-1s0.4486-1,1-1s1,0.4486,1,1S75.5514,64,75,64z M59,12
	c-0.5514,0-1-0.4486-1-1s0.4486-1,1-1s1,0.4486,1,1S59.5514,12,59,12z"/>
  </g>
  <g class="fr-artwork-minor" id="artwork-minor">
    <path d="M14.0064,37.6022C14.0862,36.6783,14.9089,36,15.8571,36H19l0.1166,0.0067C19.614,36.0645,20,36.4872,20,37
	l-0.0067,0.1166C19.9355,37.614,19.5128,38,19,38h-3v4h3l0.1166,0.0067C19.614,42.0645,20,42.4872,20,43c0,0.5523-0.4477,1-1,1
	h-3.1429l-0.1485-0.0056C14.7752,43.9242,14,43.1985,14,42.25v-4.5L14.0064,37.6022z M27.9936,37.6022
	C27.9138,36.6783,27.0911,36,26.1429,36H23l-0.1166,0.0067C22.386,36.0645,22,36.4872,22,37l0.0067,0.1166
	C22.0645,37.614,22.4872,38,23,38h3v4h-3l-0.1166,0.0067C22.386,42.0645,22,42.4872,22,43c0,0.5523,0.4477,1,1,1h3.1429
	l0.1485-0.0056C27.2248,43.9242,28,43.1985,28,42.25v-4.5L27.9936,37.6022z M64.1429,36c0.9482,0,1.7709,0.6783,1.8507,1.6022
	L66,37.75v4.5c0,0.9485-0.7752,1.6742-1.7085,1.7444L64.1429,44H61c-0.5523,0-1-0.4477-1-1c0-0.5128,0.386-0.9355,0.8834-0.9933
	L61,42h3v-4h-3c-0.5128,0-0.9355-0.386-0.9933-0.8834L60,37c0-0.5128,0.386-0.9355,0.8834-0.9933L61,36H64.1429z M52.0064,37.6022
	C52.0862,36.6783,52.9089,36,53.8571,36H57l0.1166,0.0067C57.614,36.0645,58,36.4872,58,37l-0.0067,0.1166
	C57.9355,37.614,57.5128,38,57,38h-3v4h3l0.1166,0.0067C57.614,42.0645,58,42.4872,58,43c0,0.5523-0.4477,1-1,1h-3.1429
	l-0.1486-0.0056C52.7752,43.9242,52,43.1985,52,42.25v-4.5L52.0064,37.6022z M18,48h-4c-1.10461,0-2,0.89539-2,2v6
	c0,1.10461,0.89539,2,2,2h4c1.10461,0,2-0.89539,2-2v-6C20,48.89539,19.10461,48,18,48z M18,56h-4v-6h4V56z M28,48h-4
	c-1.10461,0-2,0.89539-2,2v6c0,1.10461,0.89539,2,2,2h4c1.10461,0,2-0.89539,2-2v-6C30,48.89539,29.10461,48,28,48z M28,56h-4v-6h4
	V56z M56,48h-4c-1.10461,0-2,0.89539-2,2v6c0,1.10461,0.89539,2,2,2h4c1.10461,0,2-0.89539,2-2v-6C58,48.89539,57.10461,48,56,48z
	 M56,56h-4v-6h4V56z M66,48h-4c-1.10461,0-2,0.89539-2,2v6c0,1.10461,0.89539,2,2,2h4c1.10461,0,2-0.89539,2-2v-6
	C68,48.89539,67.10461,48,66,48z M66,56h-4v-6h4V56z"/>
  </g>
  <g class="fr-artwork-major" id="artwork-major">
    <path d="M20.29291,27.70709c-0.36053-0.36047-0.38818-0.92767-0.08319-1.32001l0.08319-0.09418l14-14
	c0.3905-0.3905,1.02368-0.3905,1.41418,0c0.36053,0.36047,0.38818,0.92767,0.08319,1.32001l-0.08319,0.09418l-14,14
	C21.31659,28.0976,20.68341,28.0976,20.29291,27.70709z M67.11658,31.99329C67.61401,31.93549,68,31.51282,68,31
	c0-0.55231-0.44769-1-1-1h-9.60339L40.68542,14.27179l-0.10052-0.08301c-0.38318-0.27686-0.9173-0.24921-1.27032,0.08301
	L28.61823,24.33911l-0.086,0.09161c-0.31683,0.38287-0.30634,0.95068,0.04309,1.3219l0.09167,0.086
	c0.38281,0.31677,0.95062,0.30627,1.3219-0.04315l10.01013-9.42249l16.02679,15.08344l0.12799,0.1106
	C56.50598,31.84637,56.94373,32,57.39661,32H67L67.11658,31.99329z M71,30c-0.51282,0-0.93549,0.38599-0.99329,0.88342L70,31v33h-9
	c-0.51282,0-0.93549,0.38599-0.99329,0.88342L60,65c0,0.51282,0.38599,0.93549,0.88342,0.99329L61,66h10
	c0.51282,0,0.93549-0.38599,0.99329-0.88342L72,65V31C72,30.44769,71.55231,30,71,30z M21,64h-8l-0.11658,0.00671
	C12.38599,64.06451,12,64.48718,12,65c0,0.55231,0.44769,1,1,1h8l0.11658-0.00671C21.61401,65.93549,22,65.51282,22,65
	C22,64.44769,21.55231,64,21,64z M9,64c-0.55231,0-1,0.44769-1,1s0.44769,1,1,1s1-0.44769,1-1S9.55231,64,9,64z M39,32h2
	l0.11658-0.00671C41.61401,31.93549,42,31.51282,42,31c0-0.55231-0.44769-1-1-1h-1v-1l-0.00671-0.11658
	C39.93549,28.38599,39.51282,28,39,28c-0.55231,0-1,0.44769-1,1v2c0,0.03943,0.00232,0.07837,0.00671,0.11658
	C38.06451,31.61401,38.48718,32,39,32z M35,42h10l0.11658-0.00671C45.61401,41.93549,46,41.51282,46,41c0-0.55231-0.44769-1-1-1H35
	l-0.11658,0.00671C34.38599,40.06451,34,40.48718,34,41C34,41.55231,34.44769,42,35,42z M55,64H25l-0.11658,0.00671
	C24.38599,64.06451,24,64.48718,24,65c0,0.55231,0.44769,1,1,1h30l0.11658-0.00671C55.61401,65.93549,56,65.51282,56,65
	C56,64.44769,55.55231,64,55,64z M25.79028,29.61292c0.30499-0.39233,0.27734-0.95953-0.08319-1.32001
	c-0.3905-0.3905-1.02368-0.3905-1.41418,0L22.58398,30H9l-0.11664,0.00671C8.38605,30.06451,8,30.48718,8,31v30l0.00671,0.11658
	C8.06451,61.61401,8.48718,62,9,62l0.11664-0.00671C9.61395,61.93549,10,61.51282,10,61V32h13l0.13141-0.00873
	c0.21667-0.02869,0.41937-0.12787,0.57568-0.28418l2-2L25.79028,29.61292z M59,28h8l0.11658-0.00671
	C67.61401,27.93549,68,27.51282,68,27c0-0.55231-0.44769-1-1-1h-8l-0.11658,0.00671C58.38599,26.06451,58,26.48718,58,27
	C58,27.55231,58.44769,28,59,28z M71,28c0.55231,0,1-0.44769,1-1s-0.44769-1-1-1s-1,0.44769-1,1S70.44769,28,71,28z M33,44h14
	c0.51282,0,0.93549,0.38599,0.99329,0.88342L48,45v15h3c0.55231,0,1,0.44769,1,1c0,0.51282-0.38599,0.93549-0.88342,0.99329L51,62
	H29c-0.55231,0-1-0.44769-1-1c0-0.51282,0.38599-0.93549,0.88342-0.99329L29,60h3V45c0-0.51282,0.38599-0.93549,0.88342-0.99329
	L33,44z M34,60h5v-9c0-0.55231,0.44769-1,1-1c0.51282,0,0.93549,0.38599,0.99329,0.88342L41,51v9h5V45.99902H34V60z M34,30
	c0-3.31372,2.68628-6,6-6s6,2.68628,6,6s-2.68628,6-6,6S34,33.31372,34,30z M36,30c0,2.20911,1.79089,4,4,4s4-1.79089,4-4
	s-1.79089-4-4-4S36,27.79089,36,30z"/>
  </g>
</svg>
