<svg xmlns="http://www.w3.org/2000/svg" viewBox="0 0 24 24" width="24" height="24">
<path d="M9.00008 10C9.00008 10.5523 8.55236 11 8.00008 11C7.44779 11 7.00008 10.5523 7.00008 10C7.00008 9.44772 7.44779 9 8.00008 9C8.55236 9 9.00008 9.44772 9.00008 10ZM2 4C1.44772 4 1 4.44772 1 5V19C1 19.5523 1.44772 20 2 20H22C22.5523 20 23 19.5523 23 19V5C23 4.44772 22.5523 4 22 4H2ZM11.0001 10C11.0001 11.6569 9.65693 13 8.00008 13C6.34322 13 5.00008 11.6569 5.00008 10C5.00008 8.34315 6.34322 7 8.00008 7C9.65693 7 11.0001 8.34315 11.0001 10ZM5.52725 17.0251L4.11304 15.6109C5.10725 14.6167 6.48362 14 8.00212 14C9.52063 14 10.897 14.6167 11.8912 15.6109L10.477 17.0251C9.84253 16.3907 8.9689 16 8.00212 16C7.03535 16 6.16172 16.3907 5.52725 17.0251ZM16.0001 10.5858L17.793 8.79289L19.2072 10.2071L17.4143 12L19.2072 13.7929L17.793 15.2071L16.0001 13.4142L14.2072 15.2071L12.793 13.7929L14.5859 12L12.793 10.2071L14.2072 8.79289L16.0001 10.5858Z"/>
</svg>
