<svg xmlns="http://www.w3.org/2000/svg" viewBox="0 0 24 24" width="24" height="24">
  <path d="M20.0835 15.1998L21.2856 15.9211C21.5224 16.0632 21.5991 16.3703 21.4571 16.6071C21.4148 16.6775 21.356 16.7364 21.2856 16.7786L12.5146 22.0411C12.198 22.2312 11.8023 22.2312 11.4857 22.0411L2.71475 16.7786C2.47796 16.6365 2.40118 16.3294 2.54325 16.0926C2.58548 16.0222 2.64437 15.9633 2.71475 15.9211L3.91684 15.1998L12.0002 20.0498L20.0835 15.1998ZM20.0835 10.4998L21.2856 11.2211C21.5224 11.3632 21.5991 11.6703 21.4571 11.9071C21.4148 11.9775 21.356 12.0364 21.2856 12.0786L12.0002 17.6498L2.71475 12.0786C2.47796 11.9365 2.40118 11.6294 2.54325 11.3926C2.58548 11.3222 2.64437 11.2633 2.71475 11.2211L3.91684 10.4998L12.0002 15.3498L20.0835 10.4998ZM12.5146 1.30852L21.2856 6.57108C21.5224 6.71315 21.5991 7.02028 21.4571 7.25707C21.4148 7.32745 21.356 7.38635 21.2856 7.42857L12.0002 12.9998L2.71475 7.42857C2.47796 7.2865 2.40118 6.97937 2.54325 6.74258C2.58548 6.6722 2.64437 6.61331 2.71475 6.57108L11.4857 1.30852C11.8023 1.11852 12.198 1.11852 12.5146 1.30852ZM12.0002 3.33221L5.88747 6.99983L12.0002 10.6675L18.1129 6.99983L12.0002 3.33221Z"/>
</svg>
