<svg width="80px" height="80px" viewBox="0 0 80 80" xmlns="http://www.w3.org/2000/svg">
 	<style>
		.fr-artwork-decorative {
			fill: #ECECFF;
		}
		.fr-artwork-minor {
			fill: #E1000F;
		}
		.fr-artwork-major {
			fill: #000091;
		}
	</style>
	<symbol id="artwork-decorative">
    <path d="M63,5c-0.5514,0-1-0.4486-1-1c0-0.55145,0.4486-1,1-1s1,0.44855,1,1C64,4.5514,63.5514,5,63,5z M27,77
	c-0.5514,0-1-0.4486-1-1s0.4486-1,1-1s1,0.4486,1,1S27.5514,77,27,77z M17,13c-0.5514,0-1-0.4486-1-1s0.4486-1,1-1s1,0.4486,1,1
	S17.5514,13,17,13z"/>
  </symbol>
  <symbol id="artwork-minor">
    <path d="M51.36011,27.6402c-0.5722-1.00159-1.62769-0.91058-2.61359-0.16309L48.5777,27.6015
	c-0.7702,0.5498-1.31879,0.68207-2.47498,0.73987l-0.55713,0.0318c-1.13171,0.08331-1.93042,0.29541-2.91852,0.87134
	c-0.38885,0.22656-0.74249,0.49481-1.05817,0.79437c0.53107-1.797,1.10602-3.34937,1.72131-4.65619
	c3.164,0.51111,6.47308-2.72961,6.69476-6.7381c0.10645-1.9234-0.23877-4.5788-0.8172-6.3952
	c-0.3479-1.09259-0.74615-1.83569-1.32819-2.1991c-1.05463-0.65863-1.94659,0.0257-2.45367,1.2959l-0.09094,0.22003
	c-0.45428,1.06055-0.91809,1.54279-1.99548,2.3092l-0.48212,0.3476c-1.00909,0.75159-1.63379,1.42438-2.24536,2.56555
	c-1.44531,2.69666-0.9361,6.13562,0.90967,7.74054c-0.29907,0.63458-0.58691,1.31696-0.86371,2.0473
	c-0.56976-1.0318-1.41406-1.96631-2.4809-2.62799c-1.10028-0.68256-1.97778-0.95282-3.22736-1.09912l-0.59143-0.06
	c-1.31622-0.12512-1.95898-0.31079-2.88269-1.00214l-0.18878-0.14508c-1.07422-0.8465-2.1889-0.9931-2.77295,0.10449
	c-0.32227,0.60583-0.29565,1.44855-0.05066,2.5686c0.40729,1.8623,1.4361,4.33453,2.48987,5.94702
	c1.81354,2.77496,5.18842,4.04407,7.70831,3.26221c-1.01727,4.79846-1.2226,9.33856-0.61139,13.617
	c0.07806,0.54675,0.58472,0.9267,1.13141,0.84857c0.54669-0.07819,0.92657-0.58472,0.84851-1.13141
	c-0.48761-3.41327-0.42401-7.01776,0.19348-10.81537c0.21472,0.4198,0.51086,0.80048,0.89349,1.12146
	c2.33478,1.95911,6.47083,1.10052,8.39032-1.90875c0.90369-1.41681,1.74548-3.60132,2.04425-5.26624
	C51.69263,28.98022,51.68298,28.20538,51.36011,27.6402z M42.33472,17.7334c0.49249-0.91882,0.9621-1.39679,1.88727-2.05957
	l0.48254-0.34644c1.11206-0.81879,1.75238-1.50928,2.30585-2.69788l0.09662-0.2149l0.04993,0.133l0.10516,0.30859
	c0.50519,1.58661,0.81879,3.99908,0.72601,5.67792c-0.13953,2.52216-1.91077,4.56958-3.6145,4.86505
	c0.42859-0.66785,0.87341-1.23199,1.3335-1.69208c0.3905-0.3905,0.3905-1.02368,0-1.41418s-1.02368-0.3905-1.41418,0
	c-0.64398,0.64398-1.25043,1.43622-1.82092,2.3772C41.63171,21.56842,41.40741,19.46362,42.33472,17.7334z M39.4198,30.078
	l-2.86511-1.91003c-0.45947-0.3064-1.08038-0.18219-1.38678,0.27734c-0.28442,0.4267-0.19769,0.99249,0.18408,1.31647
	l0.09332,0.07031l2.6449,1.76318c-1.62561,0.55304-4.13788-0.3385-5.50293-2.42719
	c-0.91986-1.40747-1.85449-3.65356-2.21027-5.28021l-0.06311-0.31989L30.28979,23.427l0.19189,0.13861
	c1.07361,0.75281,1.97333,1.03046,3.34589,1.18372l0.591,0.05865c1.13275,0.11139,1.77844,0.29053,2.66425,0.84003
	C38.78607,26.70453,39.64502,28.69952,39.4198,30.078z M49.54291,29.63641c-0.2533,1.41119-1.00031,3.34998-1.7619,4.54388
	c-1.29498,2.03021-4.04852,2.60193-5.41858,1.45227c-0.00922-0.00769-0.01831-0.01556-0.02734-0.0235l1.98114-0.6604
	c0.52399-0.17468,0.80707-0.74097,0.63251-1.26489c-0.16223-0.48645-0.66211-0.76538-1.15222-0.66296l-0.11273,0.03046
	l-1.90417,0.6347c0.14722-1.00629,0.78821-2.0921,1.85449-2.71356c0.75128-0.43781,1.30762-0.56702,2.30823-0.6203l0.55548-0.03052
	c1.24561-0.08472,2.0675-0.30377,3.03131-0.94672l0.06219-0.04205C49.57672,29.4339,49.56158,29.53229,49.54291,29.63641z"/>
  </symbol>
  <symbol id="artwork-major">
    <path d="M22.1736,25.0149c2.3894,0.4213,4.2689,3.5625,3.8112,6.1584c-0.0959,0.5439-0.6146,0.9071-1.1584,0.8112
	c-0.5439-0.0959-0.9071-0.6146-0.8112-1.1585c0.2761-1.566-0.9553-3.624-2.1888-3.8415c-1.3755-0.2425-2.9105,0.6598-3.2544,2.0292
	l-0.0343,0.1601l-4.5526,18.0058l-0.0172,0.1588c-0.1332,1.5089,0.479,3.5039,1.8037,6.1587l0.3188,0.6257l0.2795,0.5305
	l0.4629,0.8512l0.5371,0.9597l0.9726,1.715l0.6784,1.2091l0.7226,1.3161l0.3704,0.6958l0.3253,0.6324l0.2824,0.5748l0.1654,0.354
	l0.1478,0.3328l0.1308,0.3131l0.1144,0.2952l0.0985,0.279l0.0834,0.2646c0.0127,0.0429,0.0247,0.0854,0.0362,0.1273l0.0617,0.24599
	c0.0091,0.0401,0.0176,0.0798,0.0256,0.1191l0.0414,0.2313l0.0285,0.2237l0.0163,0.2177l0.0047,0.2135L21.6711,66h10.3287
	c0-0.0743,0.0084-0.1498,0.0259-0.2253c1.3606-5.88219-1.0442-11.8709-4.5843-14.1775l-0.2004-0.134
	c-2.6865-1.8424-3.2079-4.1719-2.4366-8.4258l0.122-0.6364c0.0219-0.1084,0.0445-0.218,0.0678-0.3288l0.1157-0.5292l0.2757-1.3412
	c0.2428-1.1424-0.7146-3.0368-1.5935-3.2237c-0.9862-0.2096-1.5954,0.2013-1.8104,1.2124l-0.9331,4.7626l-0.6016,2.998
	l-0.3669,1.7751l-0.1021,0.4823c-0.2487,1.1666,0.5527,3.2745,2.4559,6.207l0.4247,0.641c0.1472,0.2178,0.3001,0.4398,0.4586,0.666
	l0.4925,0.6906c0.3241,0.4472,0.2243,1.0725-0.2229,1.3966c-0.4471,0.3241-1.0724,0.2243-1.3965-0.2228l-0.2634-0.3664
	l-0.502-0.7155l-0.4686-0.6931c-2.2597-3.4092-3.267-5.9813-2.9685-7.8372l0.0342-0.1832l0.3367-1.6114l0.6477-3.2112l0.9129-4.6491
	l0.1025-0.5277c0.4451-2.0939,2.1039-3.2128,4.1861-2.7702c2.0056,0.4263,3.5014,3.2849,3.1694,5.4042l-0.0341,0.185l-0.2353,1.1447
	c-0.0038,0.0261-0.0086,0.0522-0.0145,0.0783l-0.025,0.1141l-0.1551,0.7547c-0.0077,0.0374-0.0174,0.074-0.029,0.1095
	l-0.0534,0.2628l-0.1049,0.5697l-0.0867,0.5378c-0.452,3.0467,0.0465,4.5351,1.8939,5.7388l0.222,0.1493
	c4.0707,2.8237,6.6814,9.4197,5.2696,15.9292H37c0.5523,0,1,0.4477,1,1c0,0.5128-0.3861,0.9355-0.8834,0.9933L37,68H17
	c-0.5523,0-1-0.4477-1-1c0-0.5128,0.386-0.9355,0.8833-0.9933L17,66h2.6484l0.002-0.0801l-0.0064-0.1663l-0.0177-0.1745
	l-0.0295-0.1841l-0.0419-0.1951l-0.0548-0.2077l-0.0684-0.2216l-0.0825-0.237l-0.0972-0.2539l-0.1746-0.4156l-0.1365-0.3024
	l-0.1532-0.3243l-0.2625-0.5309l-0.3034-0.5884l-0.3463-0.6509l-0.5319-0.9735l-0.9574-1.7102l-0.9515-1.6794l-0.5216-0.9401
	l-0.4564-0.8495l-0.2805-0.5402c-1.6228-3.1713-2.3953-5.5884-2.1968-7.6542l0.0299-0.2564l0.0212-0.1091l4.5529-17.9995
	C17.0297,26.2238,19.7069,24.5799,22.1736,25.0149z M54.2043,31.1733c-0.4578-2.5959,1.4218-5.7371,3.8111-6.1584
	c2.4668-0.435,5.144,1.2089,5.5903,3.7402l4.5529,17.9995l0.0212,0.1091l0.0284,0.2439c0.2049,2.1277-0.6701,4.638-2.5016,7.9967
	l-0.31779,0.5748l-0.3396,0.5984l-0.5716,0.981l-1.0099,1.6972l-0.6849,1.1596l-0.599,1.0295l-0.5175,0.9097l-0.4404,0.8004
	l-0.2824,0.5347L60.7,63.8732l-0.2064,0.4366l-0.1178,0.2672L60.273,64.8267l-0.0882,0.2334l-0.0743,0.21841l-0.0608,0.2047
	l-0.0479,0.1924l-0.0356,0.1812L59.9463,66H63l0.1166,0.0067C63.6139,66.0645,64,66.4872,64,67c0,0.5523-0.4477,1-1,1H43
	l-0.1167-0.0067C42.386,67.9355,42,67.5128,42,67c0-0.5523,0.4477-1,1-1h3.1606c-1.4118-6.5095,1.1989-13.1055,5.2696-15.9292
	l0.222-0.1493c1.8474-1.2037,2.3459-2.6921,1.8939-5.7388l-0.0867-0.5378l-0.1049-0.5697
	c-0.0161-0.0833-0.0328-0.1675-0.0501-0.2528c-0.013-0.0386-0.0238-0.0785-0.0323-0.1195l-0.1623-0.7898l-0.0178-0.079
	c-0.0059-0.0261-0.0108-0.0523-0.0145-0.0783l-0.2353-1.1447l-0.0341-0.185c-0.332-2.1193,1.1638-4.9779,3.1694-5.4042
	c2.0822-0.4426,3.741,0.6763,4.1861,2.7702l0.1692,1.0066l0.474,2.7629l0.3565,2.0093l0.1973,1.0783l0.2437,1.2898l0.1683,0.8568
	l0.2054,0.9957c0.3984,1.8686-0.5993,4.4975-2.9343,8.0204L58.575,56.505l-0.5019,0.7155l-0.2634,0.3664
	c-0.3242,0.4471-0.9494,0.5469-1.3966,0.2228c-0.4472-0.3241-0.5469-0.9494-0.2228-1.3966
	c0.0849-0.1171,0.1684-0.2333,0.2505-0.3484l0.4755-0.6783l0.4416-0.6535c2.0527-3.0981,2.9217-5.3162,2.6641-6.5244l-0.1056-0.5041
	l-0.2285-1.1423l-0.318-1.6794l-0.2804-1.5449l-0.4639-2.6534l-0.4265-2.5195c-0.2104-0.9855-0.8196-1.3964-1.8058-1.1868
	c-0.8789,0.1869-1.8363,2.0813-1.5935,3.2237l0.2758,1.3414l0.1156,0.529l0.131,0.6505c0.8542,4.4547,0.3742,6.8531-2.3778,8.7405
	l-0.2004,0.134c-3.5401,2.3066-5.9449,8.2953-4.5843,14.1775c0.0175,0.0755,0.0259,0.151,0.0259,0.2253h9.7195l0.0014-0.0486
	l0.0175-0.2152c0.0039-0.0363,0.0083-0.0728,0.0133-0.1097l0.0363-0.2245l0.0497-0.2327l0.0636-0.2427l0.0781-0.2543
	c0.0286-0.0869,0.0597-0.176,0.0934-0.2675l0.1091-0.2825l0.1256-0.299l0.1426-0.3172l0.1603-0.3371l0.2749-0.5466l0.2072-0.394
	l0.3482-0.6398l0.5372-0.9527l0.6254-1.0787l2.16-3.6448l0.5315-0.921l0.3183-0.5679l0.3448-0.6341
	c1.5092-2.8288,2.2121-4.919,2.0762-6.4635l-0.0158-0.1462l-4.5525-18.0059l-0.0343-0.1601
	c-0.3439-1.3694-1.8789-2.2717-3.2544-2.0292c-1.2336,0.2175-2.4649,2.2755-2.1888,3.8415
	c0.0959,0.5439-0.2673,1.0626-0.8112,1.1585C54.8188,32.0804,54.3002,31.7172,54.2043,31.1733z M55.2,60c0.5523,0,1-0.4477,1-1
	s-0.4477-1-1-1s-1,0.4477-1,1S54.6477,60,55.2,60z"/>
  </symbol>
  <use class="fr-artwork-decorative" href="#artwork-decorative"/>
  <use class="fr-artwork-minor" href="#artwork-minor"/>
  <use class="fr-artwork-major" href="#artwork-major"/>
</svg>
