<svg width="80px" height="80px" viewBox="0 0 80 80" xmlns="http://www.w3.org/2000/svg">
 	<style>
		.fr-artwork-decorative {
			fill: #ECECFF;
		}
		.fr-artwork-minor {
			fill: #E1000F;
		}
		.fr-artwork-major {
			fill: #000091;
		}
	</style>
	<g class="fr-artwork-decorative" id="artwork-decorative">
        <path d="M68 13c-.5514 0-1-.4486-1-1s.4486-1 1-1 1 .4486 1 1-.4486 1-1 1ZM41 76c-.5514 0-1-.4486-1-1s.4486-1 1-1 1 .4486 1 1-.4486 1-1 1ZM15 10c-.5514 0-1-.4486-1-1s.4486-1 1-1 1 .4486 1 1-.4486 1-1 1Z"/>
    </g>
  <g class="fr-artwork-minor" id="artwork-minor">
        <path d="M57.9799 26.8004c.1023.5025-.1916.9937-.6674 1.1496l-.1129.0299c-1.679.342-2.4543 2.1919-2.1399 5.7497L55 33.7302c.6238 0 1.1881-.0563 2.2954-.2242l1.6205-.2532.6688-.0938c2.4794-.3207 4.0117-.1815 5.3288.7567C68.6775 36.5968 70 39.562 70 44.8364c0 7.5286-5.4617 13.8895-12.7586 14.9953-.546.0828-1.0558-.2928-1.1386-.8389-.0827-.546.2929-1.0558.839-1.1385C63.2603 56.8967 68 51.3767 68 44.8363c0-4.6642-1.0474-7.0126-4.2468-9.2916-.7864-.5602-1.9363-.6575-3.943-.3979l-.7244.1031-1.7763.2763c-.8683.1274-1.4223.1849-1.9881.1999.1074.6431.2422 1.3283.4046 2.0561a1.002 1.002 0 0 1 .0238.2476c.666-.25 1.0872-.7032 1.3015-1.346.1747-.524.741-.8071 1.265-.6325.5239.1747.807.741.6324 1.265-.8598 2.5794-3.376 3.418-7.1448 2.6643-.5416-.1083-.8928-.6352-.7845-1.1767.1083-.5416.6352-.8928 1.1767-.7845.5846.117 1.1117.1901 1.5845.2208l-.0066-.0224c-.2051-.9192-.37-1.7898-.4938-2.611a28.4984 28.4984 0 0 1-.601-.0836l-1.4347-.2262c-2.7612-.4415-4.0721-.4174-4.9943.2452C43.0642 37.832 42 40.2102 42 44.8364c0 .5523-.4477 1-1 1s-1-.4477-1-1c0-5.2352 1.339-8.2276 5.083-10.9183 1.4664-1.0538 3.0617-1.1197 6.1302-.6503l1.484.2352c.1247.0192.2427.037.3547.0533-.305-4.372.8816-6.9522 3.7485-7.5362.5412-.1102 1.0692.2391 1.1795.7803ZM41 48c.5523 0 1 .4477 1 1v2c0 .5523-.4477 1-1 1s-1-.4477-1-1v-2c0-.5523.4477-1 1-1Z"/>
  </g>
    <g class="fr-artwork-major" id="artwork-major">
        <path d="M25.1973 47.6684c.111.541-.2377 1.0696-.7787 1.1805-.541.111-1.0696-.2377-1.1805-.7788-.4254-2.0747-1.212-2.5957-2.8258-2.0083-.9379.3414-1.4336 1.0083-1.4126 1.915a.9977.9977 0 0 1-.3274.7635.7884.7884 0 0 1-.0317.0822c-.225.5044-.8162.731-1.3206.506-3.2422-1.446-4.6498-1.0273-5.0377 1.1728-.388 2.2002.7915 3.075 4.3327 2.8252a1 1 0 0 1 .291.0219.9696.9696 0 0 1 .1785.0415c.524.1744.8074.7406.633 1.2646-.669 2.0096-.2484 2.854 1.443 3.1522 1.3158.232 2.1788-.5978 2.5881-2.88l.0121-.1938c.0299-.396.081-.8113.1514-1.2466l.0323-.1662.012-.0963.0067-.0298.001-.007.008-.033.0117-.0457a.9932.9932 0 0 1 .1867-.349.9998.9998 0 0 1 .2954-.2427l.0438-.0225a1.0732 1.0732 0 0 1 .1346-.0529l.0211-.0063.0661-.0166a.988.988 0 0 1 .2836-.0194l.022.002.039.0045.031.0046.0105.0018a.9953.9953 0 0 1 .5016.249l.052.0516a1.0286 1.0286 0 0 1 .1185.1539 1.055 1.055 0 0 1 .0381.0666 1.03 1.03 0 0 1 .0383.082l.0047.0113a.9932.9932 0 0 1 .0687.4347l-.0009.0116c-.0452.5918-.1138 1.1461-.2059 1.6613-.1234 2.2458.724 3.3058 3.3715 4.0797.4621.1351 1.0954.2558 1.8557.3596l.8753-4.9613c.0959-.5439.6145-.907 1.1584-.8111.544.0959.9071.6145.8112 1.1584l-.852 4.8252c2.9251.2384 6.7621.2912 10.1436.0804l.5565-3.1691c.0959-.5439.6145-.907 1.1584-.8112.544.096.907.6146.8112 1.1585l-.4704 2.6661.1421-.0111c2.1097-.1759 3.7229-.3516 5.0865-.5697l.2885-.0474c1.0224-.1726 1.8204-.3626 2.3622-.5652l.183-.0732.0932-.0422-.1125-.1105-.1141-.1017c-.4442-.3826-1.134-.843-2.0314-1.358-1.576-.9048-3.7141-1.9364-6.1168-2.9832-1.38-.6014-2.917-1.1947-4.5276-1.758l-.6916 3.9122c-.0959.5439-.6145.907-1.1584.8112-.544-.096-.907-.6146-.8112-1.1585l.6946-3.9392a1.0008 1.0008 0 0 1 .0834-.26 95.232 95.232 0 0 0-2.9935-.9165l-.8456-.2394c-1.108-.3078-2.129-.5676-2.9558-.754-.5387-.1214-.877-.6566-.7556-1.1954.1215-.5388.6567-.877 1.1954-.7556l.679.1587c.9487.229 2.0633.5256 3.2367.864 3.3973.9797 6.8262 2.167 9.6491 3.397l1.1386.5012c5.8936 2.624 8.9159 4.475 8.6003 6.2649-.3233 1.8332-3.1406 2.3713-10.6173 2.9615l-.8342.0647a.583.583 0 0 1-.0282.002l.0282-.002c-4.0076.3054-8.775.231-12.159-.1158a.9403.9403 0 0 1-.2556-.0107 1.0099 1.0099 0 0 1-.122-.0294c-1.22-.1371-2.2363-.311-2.9394-.5165-2.0694-.6049-3.38-1.4665-4.1022-2.6663-.8574 1.1184-2.0664 1.5847-3.6277 1.3094-2.5216-.4446-3.665-2.0437-3.319-4.4181-3.85-.06-5.7739-1.8446-5.1815-5.2041.599-3.3976 3.0655-4.4013 6.7728-3.075.28-1.3455 1.2403-2.3862 2.6428-2.8967 2.833-1.0311 4.8115.2793 5.469 3.486ZM37 20c.5523 0 1 .4477 1 1l-.0009 5.697 3.8324 5.7472c.01.0152.0145.0223.0189.0293l.0063.0104a1.2284 1.2284 0 0 1 .0445.0822l-.0061-.0111.0107.0207a1.0018 1.0018 0 0 1 .066.1875l.0058.0255.0051.0254a.9246.9246 0 0 1 .0087.0535l.0019.0158.0039.0392a.9996.9996 0 0 1 .0027.0551L42 35c0 .5523-.4477 1-1 1s-1-.4477-1-1l-.0009-1h-6L34 45c0 .5523-.4477 1-1 1s-1-.4477-1-1l-.0009-11H18l-.0009 4H25c.5523 0 1 .4477 1 1s-.4477 1-1 1h-7v3c0 .5128-.386.9355-.8834.9933L17 44c-.5523 0-1-.4477-1-1V33l.0067-.1166.0019-.0158.0039-.0267.0046-.0266a.9897.9897 0 0 1 .1074-.2976l.0386-.0642 3.836-5.7555L20 21c0-.5523.4477-1 1-1h16Zm-.0009 8.802L34.8671 32h4.264l-2.132-3.198ZM35.1301 28h-13.596l-2.667 4h13.596l2.667-4ZM36 22H22l-.0009 4h14L36 22Z"/>
    </g>
</svg>