<svg width="80px" height="80px" viewBox="0 0 80 80" xmlns="http://www.w3.org/2000/svg">
 	<style>
		.fr-artwork-decorative {
			fill: #ECECFF;
		}
		.fr-artwork-minor {
			fill: #E1000F;
		}
		.fr-artwork-major {
			fill: #000091;
		}
	</style>
	<symbol id="artwork-decorative">
        <path d="M7 62c-.5514 0-1-.4486-1-1s.4486-1 1-1 1 .4486 1 1-.4486 1-1 1Zm64 4c-.5514 0-1-.4486-1-1s.4486-1 1-1 1 .4486 1 1-.4486 1-1 1ZM15 10c-.5514 0-1-.4486-1-1s.4486-1 1-1 1 .4486 1 1-.4486 1-1 1Z" />
    </symbol>
    <symbol id="artwork-minor">
        <path d="m19.5042 22.8912 17.0801 12.2972c.4482.3228.55.9477.2272 1.3959-.3227.4482-.9476.55-1.3958.2273L19.1439 25.0957l-2.3464 3.2296 19.7902 14.03a1 1 0 0 1 .2456.2492l.0608.1005c.7905 1.5002 1.7414 2.2213 2.9182 2.2896L40 45c1.1046 0 2-.8954 2-2s-.8954-2-2-2c-.4102 0-.7994.1229-1.128.3481l-.137.1027c-.4275.3497-1.0576.2867-1.4073-.1408-.3497-.4275-.2866-1.0575.1409-1.4072A3.987 3.987 0 0 1 40 39c1.8639 0 3.43 1.2748 3.874 3H51c.5523 0 1 .4477 1 1s-.4477 1-1 1l-7.1262.0008c-.4279 1.661-1.8958 2.9042-3.668 2.994L40 47c-1.9038 0-3.4532-.9903-4.5886-2.8562l-.1686-.29-20.428-14.4811c-.424-.3006-.5425-.8704-.2904-1.3113l.0598-.0923 3.5267-4.8541c.3236-.4455.9465-.5455 1.3933-.2238ZM29 42c.5523 0 1 .4477 1 1s-.4477 1-1 1h-8c-.5523 0-1-.4477-1-1s.4477-1 1-1h8Z" />
  </symbol>
    <symbol id="artwork-major">
        <path d="M65.6966 12.2742c3.2058 1.1669 3.7893 3.7255 1.9164 7.09 2.2291.8873 3.0422 2.6769 2.1665 5.0828-.5425 1.4905-1.5516 2.3044-2.949 2.487.679 1.2251.77 2.791.2591 4.8858l-.0476.1799L69 32c.5523 0 1 .4477 1 1v6c0 .5523-.4477 1-1 1l-3.118-.0003L63.6098 58.12c-.5646 4.5022-4.3925 7.88-8.93 7.88H25.3202c-4.5375 0-8.3654-3.3778-8.93-7.88L14.117 39.9997 9 40c-.5523 0-1-.4477-1-1v-6c0-.5523.4477-1 1-1h6c.5523 0 1 .4477 1 1s-.4477 1-1 1h-5v4h13c.5128 0 .9355.386.9933.8834L24 39c0 .5523-.4477 1-1 1l-6.867-.0003 2.2416 17.8714C18.8138 61.3728 21.791 64 25.3202 64h29.3596c3.5292 0 6.5064-2.6272 6.9456-6.1289l2.2406-17.8714L47 40c-.5523 0-1-.4477-1-1s.4477-1 1-1h21v-4l-2.1204.0016A.9943.9943 0 0 1 65.4001 34H57c-.5128 0-.9355-.386-.9933-.8834L56 33c0-.5523.4477-1 1-1l1.517-.0003.0434-.0992c.2244-.4476.7536-.6658 1.2355-.4904l1.6211.5896 3.536-.0002c.0831-.2476.148-.4666.1936-.6536.653-2.6775.1601-3.9415-1.8414-4.958-.4943-.178-1.0105-.3963-1.5477-.654l-.0065-.0032-.0103-.005a.9946.9946 0 0 1-.4388-.4339l.0306.0551a1.0034 1.0034 0 0 1-.1427-.5067v-.013a.997.997 0 0 1 .056-.3245l.0045-.0125.0276-.068a1.0191 1.0191 0 0 1 .0105-.0225l.0066-.014a1.17 1.17 0 0 1 .0285-.0529l-.035.0669a1.0025 1.0025 0 0 1 .172-.2519.9916.9916 0 0 1 .1146-.1044 1.0095 1.0095 0 0 1 .3886-.1852l.0113-.0027a.999.999 0 0 1 .0818-.0145l.016-.002a.9462.9462 0 0 1 .1093-.007h.013a.9923.9923 0 0 1 .3255.0564l.0114.0042c.578.2104 1.1056.4327 1.582.672 2.1797.7862 3.3293.4536 3.786-.8016.5875-1.6139.0665-2.4004-2.0082-2.8258-.541-.111-.8897-.6395-.7788-1.1805a.995.995 0 0 1 .0562-.1833.987.987 0 0 1 .1236-.255c1.987-2.9418 1.8191-4.4007-.2802-5.1648-2.0994-.764-3.1658.2456-3.5346 3.7763-.0574.5493-.5492.9481-1.0985.8907l-.0893-.0129a.9977.9977 0 0 1-.8227-.0989c-.7747-.4716-1.6002-.3757-2.3647.2659-1.3157 1.104-1.2577 2.0455.3264 3.4513a.9997.9997 0 0 1 .313.9625c.426-.0778.8785-.1064 1.3566-.0892.552.02.9832.4835.9633 1.0354-.0199.552-.4834.9832-1.0354.9633-1.7993-.0649-2.9042.7361-3.7644 3.1935l-.0143.0432a14.8545 14.8545 0 0 0-.1029.3458l-.7036 2.5454a149.714 149.714 0 0 0-.239.895l-.2209.871a.9928.9928 0 0 1-.0286.112l-.0054.0157a.9404.9404 0 0 1-.0544.1305.9842.9842 0 0 1-.143.2112.8727.8727 0 0 1-.072.0736.9563.9563 0 0 1-.09.074 1.0819 1.0819 0 0 1-.0427.0292l-.0094.0062-.012.0074a1.0056 1.0056 0 0 1-.2936.1216 1.0308 1.0308 0 0 1-.1091.0196l-.0296.003a.8819.8819 0 0 1-.069.004L39 34c-.5523 0-1-.4477-1-1s.4477-1 1-1l13.221-.0003.0721-.2809c.3495-1.3237.9151-3.3731 1.0638-3.8351l.0177-.053.1059-.2915a11.64 11.64 0 0 1 .2104-.5204.9987.9987 0 0 1-.987-.7616c-.3881-1.5859-1.2068-2.7386-2.7916-3.8897-.5404-.3925-1.3909-.452-2.9331-.2353l-1.809.2823c-.4332.0635-.7624.1025-1.0662.1236.0747.6194.1853 1.3057.3352 2.0603.2905-.2154.4873-.5157.6063-.8967.1648-.5271.7256-.821 1.2528-.6562.5271.1648.821.7256.6562 1.2528-.7386 2.3634-2.9382 3.1455-6.1631 2.4575-.5402-.1153-.8846-.6465-.7694-1.1867.1152-.54.6465-.8845 1.1866-.7693.377.0804.7227.1373 1.039.171l.2304.0209-.0256-.1314c-.1677-.8624-.2899-1.6663-.3645-2.4099-.2634-.036-.5666-.0829-.9323-.1423l-.5147-.0844c-2.0005-.3262-2.9357-.3087-3.5498.1413-.4389.3216-.8222.645-1.1554.9812l.013-.03a.9969.9969 0 0 1-.5015.5782C34.3867 25.2286 34 26.8248 34 29.2877c0 .5523-.4477 1-1 1s-1-.4477-1-1c0-2.4141.3638-4.2258 1.259-5.7399-2.7298-.6085-4.4381.0465-5.3646 1.8994-.247.494-.8476.6942-1.3416.4472-.494-.247-.6942-.8476-.4472-1.3416 1.504-3.008 4.4492-3.8846 8.5134-2.718.3807-.372.8096-.731 1.2899-1.083 1.1165-.8182 2.2956-.9067 4.4434-.5963l1.6558.2615c.087-2.4916.9682-3.9917 2.775-4.3932.5391-.1198 1.0733.2201 1.193.7593.1113.5006-.1738.997-.6468 1.1612l-.1124.0319c-.7355.1634-1.1757.9907-1.2215 2.5627.3333-.0239.7259-.0763 1.3234-.1703l1.0781-.1722c2.2257-.341 3.5433-.2806 4.6908.553 1.8499 1.3436 2.9342 2.8032 3.4731 4.7074.4642-.6481.9957-1.1418 1.5954-1.4927a.4002.4002 0 0 1-.0546-.0422c-2.4483-2.1727-2.594-4.5414-.2844-6.4793 1.1433-.9594 2.525-1.2707 3.8306-.8414.7045-3.8728 2.807-5.5069 6.0488-4.327ZM27 48c.5523 0 1 .4477 1 1v4c0 .5523-.4477 1-1 1s-1-.4477-1-1v-3h-2v7c0 1.5977 1.249 2.9037 2.8237 2.995L27 60c.5523 0 1 .4477 1 1s-.4477 1-1 1c-2.7614 0-5-2.2386-5-5v-8c0-.5523.4477-1 1-1h4Zm10 0c.5523 0 1 .4477 1 1v2c0 .5523-.4477 1-1 1s-1-.4477-1-1v-1h-2v10h3c.5128 0 .9355.386.9933.8834L38 61c0 .5523-.4477 1-1 1h-4c-.5523 0-1-.4477-1-1V49c0-.5523.4477-1 1-1h4Zm10 0c.5523 0 1 .4477 1 1v12c0 .5523-.4477 1-1 1h-4c-.5523 0-1-.4477-1-1v-4c0-.5523.4477-1 1-1s1 .4477 1 1v3h2V49c0-.5128.386-.9355.8834-.9933L47 48Zm10 0c.5523 0 1 .4477 1 1v8c0 2.7614-2.2386 5-5 5-.5523 0-1-.4477-1-1v-4c0-.5523.4477-1 1-1s1 .4477 1 1v2.829l.0118-.0039c1.1063-.3963 1.9121-1.424 1.9831-2.6488L56 57v-8c0-.5523.4477-1 1-1Z" />
    </symbol>
  <use class="fr-artwork-decorative" href="#artwork-decorative"/>
  <use class="fr-artwork-minor" href="#artwork-minor"/>
  <use class="fr-artwork-major" href="#artwork-major"/>
</svg>