<svg width="80px" height="80px" viewBox="0 0 80 80" xmlns="http://www.w3.org/2000/svg">
 	<style>
		.fr-artwork-decorative {
			fill: #ECECFF;
		}
		.fr-artwork-minor {
			fill: #E1000F;
		}
		.fr-artwork-major {
			fill: #000091;
		}
	</style>
	<symbol id="artwork-decorative">
    <path d="M56,77c-0.5514,0-1-0.4486-1-1s0.4486-1,1-1s1,0.4486,1,1S56.5514,77,56,77z M8,65c-0.5514,0-1-0.4486-1-1
	s0.4486-1,1-1s1,0.4486,1,1S8.5514,65,8,65z M76,58c-0.5514,0-1-0.4486-1-1s0.4486-1,1-1s1,0.4486,1,1S76.5514,58,76,58z M65,10
	c-0.5514,0-1-0.4486-1-1c0-0.55145,0.4486-1,1-1s1,0.44855,1,1C66,9.5514,65.5514,10,65,10z M24,4c-0.5514,0-1-0.4486-1-1
	c0-0.55145,0.4486-1,1-1s1,0.44855,1,1C25,3.5514,24.5514,4,24,4z"/>
  </symbol>
  <symbol id="artwork-minor">
    <path d="M37.09613,15.68091c0.41675,1.13849,0.03406,2.47546-0.72015,3.1084
	c-0.32117,0.26947-0.60449,0.42859-1.08655,0.5752l-0.315,0.08722c-0.05713,0.01447-0.11664,0.02905-0.17889,0.04388
	L34.3877,19.5871l-1.9234,0.39331l-0.2417,0.05139l0.13501,0.07062l0.2453,0.13306l0.46838,0.26361
	c0.47833,0.27612,0.64221,0.8877,0.36603,1.36603c-0.27612,0.47827-0.8877,0.64221-1.36603,0.36597l-0.2135-0.1217l-0.44611-0.24475
	l-1.53375-0.80225l-0.68585-0.3656c-0.1134-0.06116-0.22687-0.12299-0.34125-0.18567l-0.70435-0.3916l-0.7666-0.43768
	c-0.47827-0.27612-0.64221-0.8877-0.36609-1.36603c0.27618-0.47827,0.88782-0.64221,1.36609-0.36597l0.74664,0.42627
	c0.11829,0.06659,0.23389,0.13129,0.34778,0.1947l0.13489,0.07391c0.1012-0.07104,0.21741-0.12433,0.34509-0.1543l0.54681-0.12689
	l1.04401-0.23224l0.76923-0.16266l1.58154-0.32166l0.44653-0.09906l0.2218-0.0564l0.17236-0.05164
	c0.02515-0.00836,0.04865-0.01666,0.07074-0.02496l0.11639-0.04962l0.09113-0.0517l0.07568-0.0564
	c0.11969-0.10052,0.24982-0.55493,0.1275-0.88879c-0.20569-0.56213-1.01794-1.04443-2.72992-1.23773l-3.38318-0.34729
	l-1.86475-0.18457l-2.07898-0.1972l-2.12518-0.18719l-0.95898-0.07623l-0.15552,0.00262l-0.11621,0.0116l-0.19769,0.03381
	l-0.15002,0.03448l-0.16669,0.04492l-0.28528,0.08795l-0.45569,0.15955l-0.55511,0.21259l-0.66888,0.27081l-1.24835,0.52686
	l-2.27167,0.98651l-0.10803,0.03754l-0.07318,0.01776l-0.07678,0.01123c-0.01318,0.00128-0.02673,0.0022-0.04041,0.00287
	l-0.086-0.00037l-0.09503-0.00891l-0.1059-0.01843l-0.1192-0.02856l-0.20807-0.06378l-0.16144-0.05774l-0.28168-0.11096
	l-0.21722-0.09161l-0.51465-0.22894l-0.81622-0.37994l-2.33569-1.11993c-0.4975-0.23981-0.70636-0.83746-0.46649-1.33502
	c0.23981-0.4975,0.83759-0.70636,1.33508-0.46649l1.75269,0.8363l0.71143,0.33209l0.77692,0.35345l0.47137,0.2052l0.26007,0.10535
	l2.0202-0.87726l1.13751-0.48181l0.5755-0.23553l0.6593-0.25677l0.2887-0.10559l0.38873-0.13232l0.34247-0.10321l0.20679-0.05389
	l0.19232-0.04291l0.18011-0.03265l0.17047-0.02319l0.16321-0.01465c0.02673-0.00177,0.05322-0.00317,0.07959-0.00427
	l0.23444-0.00201l0.23236,0.01202l1.24774,0.10181l2.20557,0.19727l2.60559,0.25092l3.54425,0.36029l0.5506,0.0575
	C34.99689,13.35028,36.5708,14.24579,37.09613,15.68091z M26.6886,34.26361L23.75,32.56702l-0.10437-0.05249
	c-0.45966-0.19861-1.00525-0.02563-1.26166,0.41846c-0.27618,0.47833-0.11224,1.0899,0.36603,1.36603l2.9386,1.69659
	l0.10443,0.05249c0.45947,0.19873,1.00519,0.0257,1.2616-0.41852C27.33081,35.15131,27.16693,34.53967,26.6886,34.26361z
	 M20.1189,36.88239l-4.43188-2.55988c0.03357,0.01709,0.03796,0.01459,0.03369,0.0069l-0.08759-0.10803l-0.1756-0.22687
	l-0.2467-0.33783c-0.15021-0.21075-0.30963-0.4436-0.47443-0.6936l-0.33582-0.52118l-0.17108-0.27502
	c-1.05798-1.71918-2.0213-3.63397-2.73999-5.57458l-0.11841-0.21619L11.328,26.30487l-0.03192-0.04077l-0.12817-0.12299
	l-0.16461-0.13824l-0.31848-0.24908l-2.93628-2.2052l-0.27948-0.22278l-0.06177-0.06299
	c-0.26367-0.24133-0.64838-0.33301-1.00891-0.20569c-0.52081,0.1839-0.79388,0.75507-0.60999,1.27588l0.08783,0.16602
	l0.07349,0.12915l0.03229,0.04205l0.08795,0.08698l0.08997,0.08099l0.20734,0.16919l0.36462,0.28204l2.01453,1.5069l0.95721,0.72705
	l0.12378,0.31903c0.0741,0.18646,0.15106,0.37408,0.23041,0.56232l0.24542,0.5658l0.25787,0.5661l0.26831,0.56305l0.27637,0.55695
	c0.04663,0.0921,0.09351,0.1839,0.14062,0.27509l0.28442,0.54163c0.04767,0.08905,0.0954,0.17767,0.14325,0.26556l0.28741,0.5188
	l0.2865,0.49969l0.28351,0.47723c0.04681,0.07745,0.09351,0.15387,0.13989,0.22919l0.2746,0.4375l0.26599,0.40698l0.25513,0.37329
	l0.24188,0.33624c0.03925,0.0528,0.07764,0.10388,0.11542,0.1532l0.21802,0.27466c0.24377,0.29474,0.4494,0.49731,0.60059,0.58459
	l4.47589,2.58423l0.10443,0.05237c0.45959,0.19873,1.00519,0.02576,1.2616-0.41846
	C20.76111,37.77008,20.59723,37.15857,20.1189,36.88239z M23,38c-0.55231,0-1,0.44769-1,1s0.44769,1,1,1s1-0.44769,1-1
	S23.55231,38,23,38z M73.89612,26.59998c-0.3313-0.44189-0.95801-0.53156-1.40002-0.20038l-1.36389,1.02393l-1.31268,0.99878
	l-0.66589,0.52869l-0.31812,0.27063l-0.1825,0.16888l-0.09808,0.0993l-0.11621,0.13269l-0.05939,0.0799l-0.04706,0.07501
	l-0.05078,0.10651l-0.02338,0.06927l-0.02374,0.10522c-0.00604,0.03577-0.01086,0.07257-0.01508,0.11127l-0.0816,0.7041
	l-0.08472,0.66553c-0.0144,0.10767-0.02887,0.21381-0.04346,0.31818l-0.08923,0.60699l-0.0918,0.56763L67.73431,33.56
	l-0.0965,0.48779l-0.09863,0.44739l-0.10028,0.40674l-0.10193,0.3656c-0.15387,0.51746-0.31238,0.8952-0.47205,1.1283
	c-0.05432,0.0791-0.10974,0.15979-0.1662,0.24188l-0.73383,1.05713l-1.07233,1.52289l-1.79077,2.50787l-2.27582,3.15039
	c-1.0235,1.38593-1.84717,1.84814-2.43689,1.7453c-0.35028-0.0611-0.67871-0.40088-0.70587-0.55487l-0.01105-0.09363
	l0.00079-0.10486l0.01526-0.12561c0.00226-0.01361,0.00476-0.02759,0.00745-0.04199l0.00635-0.03174l0.04138-0.17511
	l0.06207-0.22028l0.08533-0.27509l0.64771-1.94482l0.32031-0.99731c0.10675-0.33948,0.21429-0.68835,0.32446-1.0542
	c0.0097-0.03204,0.01764-0.06427,0.02399-0.0965l0.38824-0.23248l0.74249-0.43347c0.47827-0.27612,0.64209-0.8877,0.36597-1.36603
	c-0.27606-0.47827-0.8877-0.64221-1.36597-0.36597c-0.13519,0.078-0.26581,0.15375-0.39252,0.22778l-0.72192,0.4267
	l-0.67065,0.40741c-0.1098,0.0675-0.21912,0.13525-0.32874,0.20361l-1.79248,1.13477l-0.435,0.26379l-0.21222,0.12408
	c-0.47827,0.27625-0.64221,0.88782-0.36597,1.36603c0.27606,0.47827,0.8877,0.64221,1.36597,0.36609
	c0.07721-0.04462,0.15381-0.08942,0.23059-0.13489l0.46985-0.28491l0.11908-0.07538l-0.5871,1.7605l-0.12469,0.39886
	l-0.09583,0.34082c-0.15021,0.5791-0.1629,0.92688-0.08276,1.3811c0.17096,0.9696,1.13745,1.96948,2.33191,2.1778
	c1.50549,0.26263,3.06787-0.65259,4.55396-2.75531l0.64331-0.88739l2.29999-3.1958l1.43799-2.0246l0.82172-1.172l0.71204-1.02979
	l0.07965-0.12219c0.54694-0.88031,0.974-2.44354,1.3219-4.75134l0.10205-0.71478c0.0166-0.12292,0.03308-0.24762,0.04926-0.37421
	l0.10181-0.8335l0.36151-0.30182l0.43793-0.349l0.93677-0.72565L73.69568,28C74.13763,27.6687,74.22729,27.04187,73.89612,26.59998z
	 M60.56451,21.2699l0.10712,0.01508c0.16199,0.01715,0.25226-0.00598,0.43219-0.06366l0.19629-0.07104l0.48376-0.20087
	l2.54321-1.12219l0.44214-0.18622c-0.04962,0.0191-0.06421,0.02289-0.08331,0.01758l-0.05573-0.02087
	c-0.02838-0.00989-0.07037-0.02197-0.13776-0.03448c0.54285,0.10107,1.065-0.25714,1.1662-0.79999
	c0.10107-0.54303-0.25714-1.06512-0.80005-1.1662c-0.24127-0.04504-0.33167-0.02551-0.55078,0.0437l-0.06,0.0199l-0.13733,0.05066
	l-0.21088,0.08484l-0.27051,0.1142l-2.76447,1.21686l-0.21649,0.09033l-0.35101-0.05371
	c-0.30463-0.04401-0.61481-0.08362-0.9281-0.11902l-0.63031-0.065l-0.6347-0.05389l-0.6347-0.04315l-0.63068-0.03296
	l-0.62244-0.02289l-0.60999-0.01306l-0.5932-0.00391l-0.57239,0.00519c-0.09338,0.00159-0.18579,0.0036-0.27704,0.00592
	l-0.53308,0.01801l-0.50177,0.02618l-0.46613,0.034c-0.07452,0.00629-0.14728,0.01288-0.21838,0.01978l-0.40479,0.0451
	c-0.57361,0.07281-0.9917,0.16919-1.19012,0.28381L44.5,22.95361l-0.09772,0.06421
	c-0.40179,0.29871-0.52478,0.85767-0.26831,1.30188c0.27612,0.47821,0.88776,0.64209,1.36603,0.36597l6.30627-3.63977
	c-0.03168,0.02051-0.03186,0.02557-0.02325,0.02582l0.13617-0.02173l0.2829-0.03851l0.41394-0.04468
	c0.08545-0.00818,0.17358-0.01599,0.26398-0.0235l0.57001-0.04041l0.61658-0.03027l0.32239-0.0108
	C56.39801,20.80463,58.53021,20.92572,60.56451,21.2699z M49,26c-0.55231,0-1,0.44769-1,1s0.44769,1,1,1s1-0.44769,1-1
	S49.55231,26,49,26z"/>
  </symbol>
  <symbol id="artwork-major">
    <path d="M41.9948,27.308C41.8951,25.4643,40.3686,24,38.5,24c-1.933,0-3.5,1.567-3.5,3.5v1.8368
	C34.5454,29.1208,34.0368,29,33.5,29c-1.933,0-3.5,1.567-3.5,3.5v14.885l-0.6083-0.7143l-1.2221-1.4585l-0.621-0.7295
	l-0.3751-0.4244l-0.215-0.232l-0.192-0.1959c-0.0303-0.0299-0.0599-0.0584-0.0887-0.0857l-0.1655-0.1493
	c-0.0794-0.0678-0.1541-0.1258-0.2267-0.1763l-0.143-0.0915c-0.0707-0.0414-0.1409-0.0768-0.213-0.1084l-0.1474-0.0588
	c-0.9252-0.3368-2.2744,0.0003-3.052,0.9305c-0.9802,1.1725-0.9687,2.9833,0.1092,5.3216l1.4898,3.3219l1.4473,3.1759l0.7659,1.648
	l0.5358,1.1315l0.0704,0.1392c0.3399,0.6387,0.9716,1.4004,1.9037,2.3033l0.4516,0.4268c0.3154,0.2913,0.6592,0.5962,1.032,0.9153
	l0.5807,0.4893c0.2008,0.1667,0.4088,0.337,0.6241,0.511l0.2586,0.2079l0.0003,3.5176l0.0077,0.1254
	c0.0618,0.4931,0.4825,0.8746,0.9923,0.8746c0.5522,0,1-0.4478,1-1v-4.4846l-0.6678-0.5284l-0.8107-0.6579l-0.4972-0.416
	l-0.4625-0.3974l-0.4275-0.3787l-0.3925-0.3596l-0.3572-0.3401c-0.1132-0.1101-0.2205-0.2169-0.3219-0.3204l-0.2863-0.3003
	l-0.2507-0.28l-0.2149-0.2594c-0.1968-0.2489-0.3398-0.4663-0.4281-0.6508l-0.392-0.826l-0.7397-1.5857l-1.2162-2.6586
	l-1.9767-4.3996c-0.6885-1.5793-0.6769-2.5238-0.293-2.9831c0.228-0.2728,0.6866-0.3873,0.8334-0.3339
	c0.0133,0.0049,0.0302,0.0145,0.051,0.0292l0.0743,0.0597l0.0992,0.0925l0.2798,0.2913l0.3998,0.4472l0.5332,0.6196l1.334,1.5888
	l0.5347,0.6301l0.485,0.5618l0.4579,0.5185l0.4531,0.5001l0.4709,0.5066c0.2467,0.2625,0.6018,0.362,0.9305,0.2946
	c0.0244-0.005,0.0485-0.0109,0.0723-0.0176C31.693,50.843,32,50.4574,32,50V32.5l0.0069-0.1445C32.0796,31.5949,32.7203,31,33.5,31
	c0.8284,0,1.5,0.6716,1.5,1.5V45l0.0067,0.1166C35.0645,45.614,35.4872,46,36,46c0.5523,0,1-0.4477,1-1V27.5l0.0069-0.1445
	C37.0796,26.5949,37.7203,26,38.5,26c0.8284,0,1.5,0.6716,1.5,1.5V45l0.0067,0.1166C40.0645,45.614,40.4872,46,41,46
	c0.5523,0,1-0.4477,1-1V30.4706l0.0068-0.1412C42.0793,29.5856,42.7178,29,43.5,29c0.8311,0,1.5,0.6611,1.5,1.4706V45l0.0067,0.1166
	C45.0645,45.614,45.4872,46,46,46c0.5523,0,1-0.4477,1-1V34.4706l0.0068-0.1412C47.0793,33.5856,47.7178,33,48.5,33
	c0.8311,0,1.5,0.6611,1.5,1.4706V53l-0.0034,0.291c-0.0429,1.8163-0.5054,3.1493-1.8312,5.1582
	c-0.1436,0.2175-0.3899,0.5062-0.7367,0.8666l-0.3218,0.3265l-0.3706,0.3618l-0.3701,0.3511l-1.3677,1.2646l-0.5099,0.4809
	L44,62.5858V67l0.0067,0.1166C44.0645,67.614,44.4872,68,45,68l0.1166-0.0067C45.614,67.9355,46,67.5128,46,67v-3.578l0.0993-0.0936
	l1.6361-1.5154l0.4032-0.3826l0.4206-0.4111c0.5912-0.5895,1.0063-1.0608,1.2754-1.4685C51.4391,57.1198,52,55.3747,52,53V34.4706
	l-0.0052-0.1907C51.895,32.4495,50.366,31,48.5,31c-0.5365,0-1.0452,0.1198-1.5,0.3341v-0.8635l-0.0052-0.1907
	C46.895,28.4495,45.366,27,43.5,27c-0.5383,0-1.0485,0.1206-1.5044,0.3362L41.9948,27.308z"/>
  </symbol>
  <use class="fr-artwork-decorative" href="#artwork-decorative"/>
  <use class="fr-artwork-minor" href="#artwork-minor"/>
  <use class="fr-artwork-major" href="#artwork-major"/>
</svg>
