<svg width="80px" height="80px" viewBox="0 0 80 80" xmlns="http://www.w3.org/2000/svg">
 	<style>
		.fr-artwork-decorative {
			fill: #ECECFF;
		}
		.fr-artwork-minor {
			fill: #E1000F;
		}
		.fr-artwork-major {
			fill: #000091;
		}
	</style>
	<g class="fr-artwork-decorative" id="artwork-decorative">
    <path d="M69,68c-0.5514,0-1-0.4486-1-1s0.4486-1,1-1s1,0.4486,1,1S69.5514,68,69,68z M67,12c-0.5514,0-1-0.4486-1-1
	s0.4486-1,1-1s1,0.4486,1,1S67.5514,12,67,12z M9,16c-0.5514,0-1-0.4486-1-1s0.4486-1,1-1s1,0.4486,1,1S9.5514,16,9,16z"/>
  </g>
  <g class="fr-artwork-minor" id="artwork-minor">
    <path d="M48.4472,18.89441C47.48792,19.37408,47,20.34998,47,22c0,0.55231-0.44769,1-1,1s-1-0.44769-1-1
	c0-2.34991,0.8454-4.04071,2.5528-4.89441c0.49402-0.24701,1.0946-0.04681,1.34161,0.4472S48.94122,18.6474,48.4472,18.89441z
	 M36.4472,7.10559c-0.49402-0.24701-1.0946-0.04675-1.34161,0.4472s-0.04681,1.09467,0.4472,1.34161
	C36.51208,9.37408,37,10.34998,37,12c0,0.55231,0.44769,1,1,1s1-0.44769,1-1C39,9.65009,38.1546,7.95929,36.4472,7.10559z M18,59
	c-0.55231,0-1,0.44769-1,1s0.44769,1,1,1c1.48322,0,2.4646,0.98138,3.02991,3.24249c0.13391,0.53583,0.67682,0.86163,1.21259,0.7276
	c0.53583-0.13391,0.86163-0.67682,0.7276-1.21259C22.20209,60.6853,20.51678,59,18,59z"/>
  </g>
  <g class="fr-artwork-major" id="artwork-major">
    <path d="M64.35321,54.94812c-3.77002,6.27429-9.92859,10.22125-16.27631,10.26215
	c-0.55219,0.00354-1.00281-0.44128-1.00641-0.99359c-0.00348-0.55219,0.44128-1.00275,0.99359-1.00635
	c5.60742-0.03613,11.14581-3.58563,14.57483-9.29236c1.63031-2.71326,2.4527-6.69476,2.4519-11.93335l-0.00861-0.9375
	c-0.04022-2.21802-0.22021-4.64893-0.54089-7.29211l-0.146-1.14581c-0.05164-0.38629-0.10602-0.77692-0.16333-1.17181
	l-0.1806-1.19769c-0.12616-0.80707-0.26392-1.63159-0.41309-2.47327l-0.2326-1.27551
	c-0.04022-0.21472-0.08112-0.4306-0.12268-0.64752l-0.25861-1.31427l-0.06543-0.32043l-0.28369,0.07355
	c-0.42609,0.1106-0.84698,0.22198-1.26288,0.33417l-1.23199,0.33929c-11.9632,3.36169-19.45593,7.46692-22.47314,12.21423
	l-0.14948,0.242c-5.11749,8.51666-4.1756,18.81934,2.7547,23.42065c2.32831-7.33252,2.57922-12.81317,0.79309-16.38538
	c-0.24701-0.49402-0.04681-1.0946,0.4472-1.34161s1.0946-0.04681,1.34161,0.4472c1.15472,2.30933,1.58008,5.19281,1.3045,8.64252
	c1.40527-2.40332,3.08618-4.69556,5.06122-6.86804c0.37146-0.40857,1.00385-0.43866,1.4126-0.0672
	c0.40857,0.37152,0.43866,1.00391,0.0672,1.4126c-2.67975,2.94775-4.79639,6.11639-6.36951,9.50195
	C45.49762,55.41107,46.70361,55,48,55c0.55231,0,1,0.44769,1,1s-0.44769,1-1,1c-2.02478,0-3.90314,1.48212-5.62305,4.55707
	C41.45917,64.85242,41,68.33234,41,72c0,0.55231-0.44769,1-1,1s-1-0.44769-1-1c0-3.12958,0.32349-6.13245,0.96198-9.0105
	c-0.06775-0.03949-0.1366-0.07477-0.2041-0.1153c-8.448-5.07611-9.66565-16.92072-3.91449-26.49243
	c2.70691-4.50488,8.69073-8.32855,17.95441-11.53345l1.10492-0.37421c0.18671-0.06195,0.37469-0.12354,0.5639-0.18494
	l1.15039-0.36566c0.19421-0.06055,0.38971-0.12073,0.58649-0.18073l1.1958-0.3573c0.20178-0.05902,0.40491-0.1178,0.60919-0.17639
	l1.24121-0.34882c0.62823-0.17297,1.2677-0.34387,1.91852-0.51282l1.31689-0.33478c0.54999-0.13721,1.10382,0.20978,1.22052,0.7644
	l0.28027,1.36121l0.26282,1.33582c0.08466,0.4411,0.1665,0.87799,0.24536,1.31061l0.22803,1.28528l0.21039,1.26007
	c0.03369,0.20795,0.06653,0.41479,0.09869,0.62061l0.1842,1.22223c0.08783,0.6048,0.16888,1.20007,0.24353,1.78607l0.14038,1.15924
	c0.10962,0.95544,0.20099,1.88477,0.27399,2.78778l0.0788,1.07117C67.4538,45.56348,66.59741,51.2132,64.35321,54.94812z
	 M22.37689,20.31653l0.67169-0.76562c0.34332-0.38568,0.69763-0.7757,1.06293-1.16998l0.7453-0.79431l0.77472-0.80573
	c0.39478-0.4057,0.8006-0.81567,1.21735-1.22998L26.94,15.45898l1.133,1.31891l0.6861,0.80762l0.98083,1.16711l0.92279,1.11407
	l0.86469,1.06079l0.80658,1.00739l0.50543,0.64191l0.47949,0.6181l0.67078,0.88251l0.41473,0.55841l0.38879,0.53461l0.36279,0.51056
	l0.49561,0.72083l0.29791,0.45062l0.27179,0.42645l0.24579,0.40234c0.07758,0.13007,0.15088,0.25616,0.21979,0.3783l0.1936,0.354
	c0.258,0.48828,0.86304,0.67511,1.35132,0.41711c0.4884-0.25793,0.67511-0.86292,0.41718-1.35132
	c-0.03217-0.06104-0.06549-0.12292-0.09991-0.18579l-0.21906-0.3891l-0.24481-0.41211l-0.27051-0.4353l-0.29639-0.4585
	l-0.3222-0.48169l-0.3479-0.50494c-0.06018-0.08606-0.1214-0.17316-0.18372-0.26117l-0.38678-0.53992l-0.6286-0.85358
	l-0.45142-0.59821l-0.47742-0.6217l-0.50317-0.64508l-0.80359-1.01172l-0.56812-0.70392l-0.59418-0.72742l-0.93994-1.1355
	l-0.9986-1.1886l-1.42249-1.66785l-1.1355-1.31323c-0.37677-0.43347-1.04041-0.46118-1.45209-0.06067
	C17.45728,21.88959,13,28.8952,13,34.43237c0,8.03235,4.83881,15.19855,11.85699,16.38922
	c0.23492,0.03992,0.47485,0.06262,0.71362,0.08917c0.63971,2.71991,1.80853,5.88226,3.52521,9.51636
	c0.2359,0.49939,0.83185,0.71295,1.3313,0.47705c0.49939-0.2359,0.71295-0.83185,0.47705-1.3313
	c-2.50049-5.29346-3.79718-9.50769-3.90479-12.6076c-0.04297-1.23895,0.17694-2.88947,0.49603-4.40656l0.13251-0.59851
	l0.14075-0.57642l0.14673-0.54681l0.15021-0.5094c0.2522-0.81329,0.50958-1.43829,0.72382-1.71368l0.0708-0.10382
	c0.25397-0.427,0.15619-0.98645-0.24634-1.29938c-0.43591-0.33911-1.06421-0.26062-1.40332,0.17542
	c-0.573,0.73676-1.22675,2.66748-1.67511,4.77844c-0.82513-0.95782-1.89691-1.67249-3.21924-2.11328
	c-0.52393-0.17456-1.09021,0.10852-1.26489,0.63251c-0.17462,0.52393,0.10846,1.09021,0.63245,1.26489
	c1.70142,0.56714,2.80042,1.66614,3.36755,3.36755c0.00122,0.0036,0.00421,0.00592,0.00543,0.00946
	c-0.05103,0.60608-0.07428,1.18652-0.05615,1.70898c0.01984,0.57159,0.08759,1.1828,0.17719,1.81201
	C19.22937,47.8288,15,41.56073,15,34.43237l0.0036-0.24768C15.11011,30.5296,17.55823,25.88849,22.37689,20.31653z"/>
  </g>
</svg>
