<svg width="80px" height="80px" viewBox="0 0 80 80" xmlns="http://www.w3.org/2000/svg">
 	<style>
		.fr-artwork-decorative {
			fill: #ECECFF;
		}
		.fr-artwork-minor {
			fill: #E1000F;
		}
		.fr-artwork-major {
			fill: #000091;
		}
	</style>
	<g class="fr-artwork-decorative" id="artwork-decorative">
    <path d="M53,77c-0.5514,0-1-0.4486-1-1s0.4486-1,1-1s1,0.4486,1,1S53.5514,77,53,77z M57,5c-0.5514,0-1-0.4486-1-1
	c0-0.55145,0.4486-1,1-1s1,0.44855,1,1C58,4.5514,57.5514,5,57,5z M23,77c-0.5514,0-1-0.4486-1-1s0.4486-1,1-1s1,0.4486,1,1
	S23.5514,77,23,77z"/>
  </g>
  <g class="fr-artwork-minor" id="artwork-minor">
    <path d="M26.00671,17.11658L26,17v-2c0-0.55231,0.44769-1,1-1c0.51282,0,0.93549,0.38599,0.99329,0.88342L28,15v2
	c0,0.55231-0.44769,1-1,1C26.48718,18,26.06451,17.61401,26.00671,17.11658z M30,25c0,1.65692-1.34308,3-3,3s-3-1.34308-3-3
	s1.34308-3,3-3S30,23.34308,30,25z M28,25c0-0.55231-0.44769-1-1-1s-1,0.44769-1,1s0.44769,1,1,1S28,25.55231,28,25z
	 M19.11658,25.99329C19.61401,25.93549,20,25.51282,20,25c0-0.55231-0.44769-1-1-1h-2l-0.11658,0.00671
	C16.38599,24.06451,16,24.48718,16,25c0,0.55231,0.44769,1,1,1h2L19.11658,25.99329z M37,24h-2l-0.11658,0.00671
	C34.38599,24.06451,34,24.48718,34,25c0,0.55231,0.44769,1,1,1h2l0.11658-0.00671C37.61401,25.93549,38,25.51282,38,25
	C38,24.44769,37.55231,24,37,24z M27,32c-0.55231,0-1,0.44769-1,1v2l0.00671,0.11658C26.06451,35.61401,26.48718,36,27,36
	c0.55231,0,1-0.44769,1-1v-2l-0.00671-0.11658C27.93549,32.38599,27.51282,32,27,32z M20.63599,17.2218l-0.08716-0.0777
	c-0.39252-0.31079-0.96436-0.28491-1.32703,0.0777c-0.3905,0.3905-0.3905,1.02368,0,1.41418l1.41418,1.41431l0.08734,0.0777
	c0.39246,0.31079,0.96429,0.28491,1.32697-0.0777c0.3905-0.39056,0.3905-1.02368,0-1.41431L20.63599,17.2218z M33.36401,29.94971
	l-0.08734-0.0777c-0.39246-0.31079-0.96429-0.28491-1.32697,0.0777c-0.3905,0.39056-0.3905,1.02368,0,1.41431l1.41431,1.41418
	l0.08716,0.0777c0.39252,0.31079,0.96436,0.28491,1.32703-0.0777c0.3905-0.39062,0.3905-1.02368,0-1.41418L33.36401,29.94971z
	 M33.36401,20.05029l1.41418-1.41431l0.0777-0.08716c0.31079-0.39252,0.28491-0.96436-0.0777-1.32703
	c-0.39062-0.3905-1.02368-0.3905-1.41418,0l-1.41431,1.41418l-0.0777,0.08734c-0.31079,0.39246-0.28491,0.96429,0.0777,1.32697
	C32.34033,20.4408,32.97339,20.4408,33.36401,20.05029z M20.63599,29.94971l-1.41418,1.41431l-0.0777,0.08716
	c-0.31079,0.39252-0.28491,0.96436,0.0777,1.32703c0.3905,0.3905,1.02368,0.3905,1.41418,0l1.41431-1.41418l0.0777-0.08734
	c0.31079-0.39246,0.28491-0.96429-0.0777-1.32697C21.65973,29.5592,21.02661,29.5592,20.63599,29.94971z"/>
  </g>
  <g class="fr-artwork-major" id="artwork-major">
    <path d="M32.47528,43.81702c-0.414-0.29755-0.53296-0.85284-0.29529-1.28925l0.06689-0.10638l12.9411-18.005
	c0.38031-0.52917,1.14551-0.55219,1.56122-0.0791l0.07831,0.1012l19,28c0.31012,0.45703,0.19098,1.07892-0.26599,1.38904
	c-0.42444,0.2879-0.99091,0.20581-1.31793-0.17334l-0.07111-0.09265L53.61279,38H43c-0.55231,0-1-0.44769-1-1
	c0-0.51282,0.38599-0.93549,0.88342-0.99329L43,36h9.25562l-1.35724-2H45c-0.55231,0-1-0.44769-1-1
	c0-0.51282,0.38599-0.93549,0.88342-0.99329L45,32h4.54132l-3.56531-5.25403l-12.1051,16.84265
	c-0.29749,0.414-0.85278,0.53296-1.28918,0.29529L32.47528,43.81702z M25.11658,57.99329C25.61401,57.93549,26,57.51282,26,57
	c0-0.55231-0.44769-1-1-1h-8.099L26,42.76501L36.16772,57.5545c0.0257,0.03857,0.05408,0.0752,0.08478,0.1098l0.00092,0.00122
	c0.08167,0.09186,0.17767,0.16565,0.28217,0.2204c0.11932,0.06256,0.25281,0.10187,0.39453,0.11169
	c0.02808,0.00195,0.0564,0.00281,0.08472,0.00238H51l0.11658-0.00671C51.61401,57.93549,52,57.51282,52,57c0-0.55231-0.44769-1-1-1
	H37.526L26.82397,40.43347l-0.07959-0.10156c-0.42261-0.47412-1.19586-0.44031-1.56836,0.10156L14.474,56H11l-0.11658,0.00671
	C10.38599,56.06451,10,56.48718,10,57c0,0.55231,0.44769,1,1,1h3.98529c0.00922,0.00012,0.01843,0.00012,0.02759,0H25
	L25.11658,57.99329z M69,60H17l-0.11658,0.00671C16.38599,60.06451,16,60.48718,16,61c0,0.55231,0.44769,1,1,1h52l0.11658-0.00671
	C69.61401,61.93549,70,61.51282,70,61C70,60.44769,69.55231,60,69,60z M59,64H29l-0.11658,0.00671
	C28.38599,64.06451,28,64.48718,28,65c0,0.55231,0.44769,1,1,1h30l0.11658-0.00671C59.61401,65.93549,60,65.51282,60,65
	C60,64.44769,59.55231,64,59,64z"/>
  </g>
</svg>
