<svg width="80px" height="80px" viewBox="0 0 80 80" xmlns="http://www.w3.org/2000/svg">
 	<style>
		.fr-artwork-decorative {
			fill: #ECECFF;
		}
		.fr-artwork-minor {
			fill: #E1000F;
		}
		.fr-artwork-major {
			fill: #000091;
		}
	</style>
	<g class="fr-artwork-decorative" id="artwork-decorative">
    <path d="M19,72c-0.5514,0-1-0.4486-1-1s0.4486-1,1-1s1,0.4486,1,1S19.5514,72,19,72z M31,10c-0.5514,0-1-0.4486-1-1
	c0-0.55145,0.4486-1,1-1s1,0.44855,1,1C32,9.5514,31.5514,10,31,10z M67,66c-0.5514,0-1-0.4486-1-1s0.4486-1,1-1s1,0.4486,1,1
	S67.5514,66,67,66z M67,16c-0.5514,0-1-0.4486-1-1s0.4486-1,1-1s1,0.4486,1,1S67.5514,16,67,16z M9,32c-0.5514,0-1-0.4486-1-1
	s0.4486-1,1-1s1,0.4486,1,1S9.5514,32,9,32z"/>
  </g>
  <g class="fr-artwork-minor" id="artwork-minor">
    <path d="M32.4453,44.1679c0.4595-0.3063,1.0804-0.1821,1.3867,0.2774C35.3156,46.6706,38.5061,48,41,48
	c0.5523,0,1,0.4477,1,1s-0.4477,1-1,1c-3.1061,0-6.931-1.5937-8.8321-4.4453C31.8616,45.0952,31.9858,44.4743,32.4453,44.1679z"/>
  </g>
  <g class="fr-artwork-major" id="artwork-major">
    <path d="M39.00671,20.04651L39,19.92981v-5.47369c0-0.55225,0.44769-1,1-1c0.51282,0,0.93549,0.38611,0.99329,0.88336
	L41,14.45612v5.47369c0,0.55231-0.44769,1-1,1C39.48718,20.92981,39.06451,20.54382,39.00671,20.04651z M19.37927,39H14
	l-0.11658,0.00671C13.38599,39.06451,13,39.48718,13,40c0,0.55231,0.44769,1,1,1h5.37927l0.11664-0.00671
	c0.49738-0.0578,0.88336-0.48047,0.88336-0.99329C20.37927,39.44769,19.93158,39,19.37927,39z M66,39h-5.37927l-0.11664,0.00671
	c-0.49738,0.0578-0.88336,0.48047-0.88336,0.99329c0,0.55231,0.44769,1,1,1H66l0.11658-0.00671C66.61401,40.93549,67,40.51282,67,40
	C67,39.44769,66.55231,39,66,39z M40,59.07019c-0.55231,0-1,0.44769-1,1v5.47369l0.00671,0.11664
	c0.0578,0.49725,0.48047,0.88336,0.99329,0.88336c0.55231,0,1-0.44769,1-1v-5.47369l-0.00671-0.11658
	C40.93549,59.45618,40.51282,59.07019,40,59.07019z M24.04541,53.89557l-1.79309,1.82452l-0.0824,0.09503
	c-0.30164,0.3949-0.26892,0.96185,0.09467,1.31915c0.39392,0.38715,1.02704,0.38159,1.41412-0.01227l1.79309-1.82458l0.0824-0.09491
	c0.30157-0.3949,0.26898-0.96191-0.0946-1.31921C25.06561,53.49622,24.4325,53.50171,24.04541,53.89557z M55.95459,24.27991
	l1.79309-1.82458l0.0824-0.09491c0.30164-0.3949,0.26892-0.96191-0.09467-1.31921c-0.39392-0.38721-1.02704-0.38159-1.41412,0.01233
	l-1.79321,1.82446L54.4458,22.9729c-0.30157,0.39502-0.26898,0.96191,0.0946,1.31927
	C54.93439,24.67932,55.5675,24.67383,55.95459,24.27991z M23.67871,21.05353l-0.09338-0.08405
	c-0.38971-0.30847-0.95715-0.28571-1.32074,0.07172c-0.39386,0.38708-0.39941,1.0202-0.01227,1.41412l1.79309,1.82458
	l0.09351,0.08398c0.38959,0.30841,0.95697,0.28558,1.32068-0.07172c0.39392-0.38708,0.39941-1.02026,0.01221-1.41418
	L23.67871,21.05353z M55.95459,53.89557l-0.09351-0.08398c-0.38959-0.30847-0.95697-0.28571-1.32068,0.07172
	c-0.39392,0.38708-0.39941,1.0202-0.01233,1.41412l1.79321,1.82458l0.09338,0.08398
	c0.38971,0.30841,0.95715,0.28558,1.32074-0.07172c0.39386-0.38708,0.39941-1.02026,0.01227-1.41418L55.95459,53.89557z M40,26
	c-7.73199,0-14,6.26801-14,14c0,1.91528,0.38538,3.77838,1.12323,5.50281c0.21716,0.50781,0.80499,0.74329,1.31268,0.52606
	c0.50781-0.21729,0.74329-0.80499,0.52606-1.31274C28.33002,43.2392,28,41.64362,28,40c0-6.62738,5.37262-12,12-12s12,5.37262,12,12
	s-5.37262,12-12,12c-3.5495,0-6.84521-1.54871-9.11212-4.19141c-0.35956-0.41907-0.99091-0.46747-1.4101-0.10791
	c-0.41919,0.35962-0.46747,0.99091-0.10791,1.4101C32.01282,52.19177,35.86072,54,40,54c7.73199,0,14-6.26801,14-14
	S47.73199,26,40,26z"/>
  </g>
</svg>
