<svg width="80px" height="80px" viewBox="0 0 80 80" xmlns="http://www.w3.org/2000/svg">
 	<style>
		.fr-artwork-decorative {
			fill: #ECECFF;
		}
		.fr-artwork-minor {
			fill: #E1000F;
		}
		.fr-artwork-major {
			fill: #000091;
		}
	</style>
	<symbol id="artwork-decorative">
    <path d="M68,13c-0.5514,0-1-0.4486-1-1s0.4486-1,1-1s1,0.4486,1,1S68.5514,13,68,13z M14,69c-0.5514,0-1-0.4486-1-1
	s0.4486-1,1-1s1,0.4486,1,1S14.5514,69,14,69z M10,17c-0.5514,0-1-0.4486-1-1c0-0.5514,0.4486-1,1-1s1,0.4486,1,1
	C11,16.5514,10.5514,17,10,17z"/>
  </symbol>
  <symbol id="artwork-minor">
    <path d="M36.02991,30.75751C36.81598,27.61292,39.23529,26,43,26c0.55231,0,1,0.44769,1,1s-0.44769,1-1,1
	c-2.90198,0-4.48273,1.05377-5.02991,3.24249c-0.13391,0.53583-0.67682,0.86163-1.21259,0.7276
	C36.22168,31.83618,35.89587,31.29327,36.02991,30.75751z M45,36c-0.55231,0-1,0.44769-1,1
	c0,2.05762-1.07947,3.0022-3.12402,3.25769c-0.91449,0.11432-1.91815,0.0661-2.88959-0.08569
	c-0.05042-0.00787-0.09882-0.01569-0.1452-0.0235l-0.36127-0.0661l-0.23743-0.05249C36.61139,39.87207,36,40.34943,36,41
	c0,2.00861-1.487,3-5,3c-0.55231,0-1,0.44769-1,1s0.44769,1,1,1l0.30292-0.00262c3.69751-0.06396,5.99036-1.31226,6.55829-3.72937
	l0.0188-0.09198l0.22699,0.03296c1.00543,0.1283,2.03223,0.15643,3.01703,0.03333C44.07953,41.8728,46,40.19238,46,37
	C46,36.44769,45.55231,36,45,36z M57.79999,40.40002c-0.33136-0.44183-0.95819-0.53143-1.39996-0.20001
	c-0.44183,0.33136-0.53143,0.95819-0.20001,1.39996c1.6925,2.25665,1.6925,3.60321,0.2453,4.56793
	c-1.49402,0.99597-2.93182,0.51678-4.64532-1.76788c-0.33136-0.44183-0.95819-0.53143-1.39996-0.20001
	c-0.44183,0.33136-0.53143,0.95819-0.20001,1.39996c2.2865,3.04865,4.84869,3.90271,7.35468,2.23212
	C60.10748,46.13013,60.10748,43.47668,57.79999,40.40002z"/>
  </symbol>
  <symbol id="artwork-major">
    <path d="M16.01361,30.83557c0.6875-4.125,3.3429-6.42365,7.72028-6.7851l0.10211-0.00751l-0.02362-0.23395
	c-0.07385-0.87982-0.04456-1.78595,0.13245-2.67285l0.08496-0.37866c0.67499-2.70001,2.64514-4.45282,6.03149-4.72144
	C30.02051,15.70349,30,15.35809,30,15c0-5.02972,3.37762-7,9-7c2.76343,0,4.93799,1.27148,6.43622,3.72388l0.11176,0.18915
	l0.02942-0.0033c3.27411-0.38324,5.93701,0.3324,7.91302,2.17389l0.21667,0.20929c1.92493,1.92487,2.72302,4.53967,2.4212,7.76837
	l-0.01831,0.17474l0.24652,0.07257c2.93079,0.89032,4.54388,2.73083,4.63898,5.4353L61,28c0,3.64209-1.88959,6-6,6
	c-3.21899,0-5-1.78101-5-5c0-0.55231,0.44769-1,1-1s1,0.44769,1,1c0,2.11438,0.88562,3,3,3c2.8963,0,4-1.3772,4-4
	c0-2.1438-1.29547-3.43933-4.19611-4.01941c-0.52771-0.10547-0.8772-0.60962-0.79102-1.14069
	c0.51031-3.14539-0.07538-5.48822-1.71997-7.13281s-3.98749-2.23029-7.13281-1.71997
	c-0.4317,0.07001-0.85889-0.14874-1.0545-0.53992C42.93597,11.10809,41.2738,10,39,10c-4.66339,0-7,1.36298-7,5
	c0,2.80621,1.61603,4.42218,5.16443,5.01361c0.54468,0.09076,0.91278,0.60602,0.82196,1.15082
	c-0.09076,0.5448-0.60596,0.91278-1.15076,0.82196c-3.14832-0.52472-5.26245-1.87067-6.23053-3.97937
	c-2.77063,0.09967-4.14288,1.2674-4.63501,3.23547c-0.24109,0.96442-0.24109,2.02472-0.09229,3.0166l0.04248,0.25751
	l0.03589,0.18121c0.00525,0.02338,0.00995,0.0434,0.01392,0.05969C26.12793,25.38861,25.65057,26,25,26
	c-4.20099,0-6.4317,1.6731-7.00769,5.12402C17.396,35.89447,18.9751,38,23,38c4.26111,0,6.4989-1.1189,7.02979-3.24249
	c0.13403-0.53583,0.67694-0.86163,1.21271-0.7276c0.53583,0.13391,0.86163,0.67682,0.7276,1.21259
	C31.16772,38.45227,28.0722,40,23,40C17.69153,40,15.27069,36.77222,16.01361,30.83557z M41,66h-2.38641
	c0.22894-0.50348,0.3587-1.09619,0.38239-1.771L39,64V52c0-0.05231-0.00403-0.1037-0.01178-0.15381
	c0.06158-1.26709-0.30054-2.70691-1.09381-4.2934c-0.24701-0.49402-0.84772-0.69421-1.34161-0.4472
	c-0.49402,0.24701-0.69421,0.8476-0.4472,1.34161c1.73474,3.46948,0.98511,5.46851-2.42181,6.60406
	c-3.42596,1.14203-5.53699-0.17737-6.72229-4.32599c-0.20947-0.73315-1.12946-0.97156-1.66858-0.43237
	c-2.32983,2.32977-4.44373,2.59399-6.69293,0.9071c-2.23346-1.67511-2.5083-4.14752-0.70557-7.75281
	c0.24701-0.49402,0.04681-1.0946-0.4472-1.34161s-1.09473-0.04681-1.34161,0.4472c-2.19739,4.39471-1.80542,7.9223,1.29443,10.24719
	l0.21539,0.15698c2.5871,1.83081,5.26337,1.76025,7.82269-0.14478l0.0979-0.0752l0.0719,0.17609
	c1.65881,3.95703,4.65198,5.3877,8.70831,4.03558c1.0802-0.36005,1.97559-0.81989,2.68378-1.37158V64c0,1.44769-0.55231,2-2,2H23
	l-0.11658,0.00671C22.38599,66.06451,22,66.48718,22,67c0,0.55231,0.44769,1,1,1h18l0.11658-0.00671
	C41.61389,67.93549,42,67.51282,42,67C42,66.44769,41.55231,66,41,66z M59.28729,55.95782
	c4.89703-1.46912,7.63422-4.72412,7.95923-8.62482l0.01788-0.26141c0.14429-2.69751-0.95837-5.26392-2.72791-6.45752
	l-0.03448-0.02209l0.0484-0.0871l0.10858-0.21356c1.04883-2.1535,0.99103-4.81824-0.80151-7.80585
	c-0.28418-0.47357-0.89838-0.62708-1.37201-0.34296c-0.47357,0.28418-0.6272,0.89838-0.34296,1.37201
	c1.48096,2.46838,1.48096,4.46667,0.64038,6.05457c-0.07489,0.14148-0.14838,0.26453-0.21637,0.36829l-0.12714,0.18182
	l-0.1048,0.12927l-0.04169,0.04443c-0.54968,0.54956-0.28949,1.48871,0.46448,1.67719l0.14319,0.04199
	c1.42224,0.47919,2.55591,2.71832,2.35284,5.15491c-0.25549,3.06683-2.41803,5.63831-6.54083,6.87518
	c-4.38336,1.315-7.79138-0.12897-10.44098-3.41107c-0.70563-0.87408-1.29822-1.815-1.77917-2.75549
	c-0.16791-0.32819-0.30945-0.63184-0.42493-0.90228l-0.17609-0.42773c-0.3587-0.71667-1.41193-0.74072-1.78583,0.0072
	C43.62592,47.51208,42.65002,48,41,48c-0.55231,0-1,0.44769-1,1s0.44769,1,1,1l0.27881-0.00409
	c1.37817-0.04059,2.51648-0.38574,3.37646-1.03912l0.10272-0.08276l0.19293,0.36475c0.31274,0.57251,0.6626,1.14215,1.05096,1.6983
	c-0.00067,0.01251-0.00128,0.02502-0.00159,0.0376C46.00012,50.98309,46,50.99152,46,51v13l0.0033,0.24542
	C46.0683,66.58618,47.07501,68,49,68h14l0.11658-0.00671C63.61389,67.93549,64,67.51282,64,67c0-0.55231-0.44769-1-1-1H49
	l-0.09412-0.00342C48.29449,65.95129,48,65.44092,48,64V53.29858C50.95642,56.16083,54.72791,57.32568,59.28729,55.95782z
	 M67.70709,66.29291c-0.3905-0.3905-1.02368-0.3905-1.41418,0s-0.3905,1.02368,0,1.41418s1.02368,0.3905,1.41418,0
	S68.0976,66.68341,67.70709,66.29291z"/>
  </symbol>
  <use class="fr-artwork-decorative" href="#artwork-decorative"/>
  <use class="fr-artwork-minor" href="#artwork-minor"/>
  <use class="fr-artwork-major" href="#artwork-major"/>
</svg>
