<svg width="80px" height="80px" viewBox="0 0 80 80" xmlns="http://www.w3.org/2000/svg">
 	<style>
		.fr-artwork-decorative {
			fill: #ECECFF;
		}
		.fr-artwork-minor {
			fill: #E1000F;
		}
		.fr-artwork-major {
			fill: #000091;
		}
	</style>
	<g class="fr-artwork-decorative" id="artwork-decorative">
    <path d="M75,22c-0.5514,0-1-0.4486-1-1s0.4486-1,1-1s1,0.4486,1,1S75.5514,22,75,22z M5,60c-0.5514,0-1-0.4486-1-1
	s0.4486-1,1-1s1,0.4486,1,1S5.5514,60,5,60z M73,64c-0.5514,0-1-0.4486-1-1s0.4486-1,1-1s1,0.4486,1,1S73.5514,64,73,64z"/>
  </g>
  <g class="fr-artwork-minor" id="artwork-minor">
    <path d="M34,39v2c0,0.55231-0.44769,1-1,1h-4c-0.55231,0-1-0.44769-1-1v-2c0-0.55231,0.44769-1,1-1h4
	C33.55231,38,34,38.44769,34,39z M41,40h-3v-1l-0.00671-0.11658C37.93549,38.38599,37.51282,38,37,38c-0.55231,0-1,0.44769-1,1v2
	l0.00671,0.11658C36.06451,41.61401,36.48718,42,37,42h4l0.11658-0.00671C41.61401,41.93549,42,41.51282,42,41l-0.00671-0.11658
	C41.93549,40.38599,41.51282,40,41,40z M41,30l0.11658-0.00671C41.61401,29.93549,42,29.51282,42,29c0-0.55231-0.44769-1-1-1h-4
	l-0.11658,0.00671C36.38599,28.06451,36,28.48718,36,29v6l0.00671,0.11658C36.06451,35.61401,36.48718,36,37,36h4l0.11658-0.00671
	C41.61401,35.93549,42,35.51282,42,35l-0.00671-0.11658C41.93549,34.38599,41.51282,34,41,34h-3v-4H41z M41,46l0.11658-0.00671
	C41.61401,45.93549,42,45.51282,42,45c0-0.55231-0.44769-1-1-1h-4l-0.11658,0.00671C36.38599,44.06451,36,44.48718,36,45v6
	l0.00671,0.11658C36.06451,51.61401,36.48718,52,37,52h3l0.11658-0.00671C40.61401,51.93549,41,51.51282,41,51v-2l0.11658-0.00671
	C41.61401,48.93549,42,48.51282,42,48c0-0.55231-0.44769-1-1-1h-1l-0.11658,0.00671C39.38599,47.06451,39,47.48718,39,48v2h-1v-4H41
	z M66.8869,42.34161C66.50769,42.7608,65.96881,43,65.40363,43H62c0,1.88562-1.11438,3-3,3s-3-1.11438-3-3h-3.39642
	c-1.10449,0-2-0.89539-2-2c0-0.56659,0.2403-1.10651,0.66125-1.48578l0.2486-0.23242C52.46259,38.33667,53,37.0498,53,35.70349
	v-2.00568C53,30.55103,55.55103,28,58.69781,28h0.61108C62.45203,28,65,30.54797,65,33.6911v1.99438
	c0,1.43439,0.60699,2.80182,1.67078,3.76392l0.07434,0.06732C67.56433,40.25757,67.62781,41.5224,66.8869,42.34161z M60,43h-2
	c0,0.78101,0.21899,1,1,1S60,43.78101,60,43z M65.40363,41l-0.28192-0.2627C63.76752,39.40967,63,37.5899,63,35.68549V33.6911
	C63,31.65259,61.34741,30,59.3089,30h-0.61108C56.65558,30,55,31.65558,55,33.69781v2.00568
	c0,1.99701-0.84698,3.90039-2.33063,5.23718L52.60358,41H65.40363z"/>
  </g>
  <g class="fr-artwork-major" id="artwork-major">
    <path d="M20,51c0,0.55231,0.44769,1,1,1h12c0.55231,0,1-0.44769,1-1v-6c0-0.55231-0.44769-1-1-1H21
	c-0.55231,0-1,0.44769-1,1V51z M22,46h10v4H22V46z M20,41c0,0.55231,0.44769,1,1,1h4c0.55231,0,1-0.44769,1-1v-6
	c0-0.55231-0.44769-1-1-1h-4c-0.55231,0-1,0.44769-1,1V41z M22,36h2v4h-2V36z M20,31v-2c0-0.55231,0.44769-1,1-1h2
	c0.55231,0,1,0.44769,1,1v2c0,0.55231-0.44769,1-1,1h-2C20.44769,32,20,31.55231,20,31z M26,32c0,0.55231,0.44769,1,1,1h2v2
	c0,0.51282,0.38599,0.93549,0.88342,0.99329L30,36h3c0.55231,0,1-0.44769,1-1v-6c0-0.55231-0.44769-1-1-1h-6
	c-0.55231,0-1,0.44769-1,1V32z M28,30h4v4h-1v-2c0-0.51282-0.38599-0.93549-0.88342-0.99329L30,31h-2V30z M26,11
	c0-0.55231,0.44769-1,1-1h8c0.55231,0,1,0.44769,1,1s-0.44769,1-1,1h-8C26.44769,12,26,11.55231,26,11z M74,37
	c0,8.2843-6.7157,15-15,15c-2.67841,0-5.25537-0.70398-7.5191-2.01801l-0.22388-0.13397l-0.04053,0.00446
	c-0.05182,0.00635-0.11237,0.01611-0.18121,0.02942l-0.31708,0.07178l-0.37048,0.10071l-0.79523,0.2464l-0.92877,0.29919
	l-0.66614,0.20831l-0.38049,0.11212l-0.33521,0.09076l-0.2948,0.06946c-0.82837,0.17596-1.17468,0.06299-1.6189-0.3399
	c-0.59857-0.54291-0.51868-1.11993-0.13818-1.88495l0.12378-0.237l0.10291-0.18207l0.18243-0.29852l0.2417-0.37067l0.72589-1.0824
	l0.19781-0.31l0.14569-0.24835l0.07581-0.14276l-0.23462-0.32318c-1.6994-2.39862-2.6651-5.25073-2.74591-8.25085L44,37
	c0-8.2843,6.7157-15,15-15c2.69092,0,5.2804,0.71039,7.55469,2.0387c0.47693,0.2785,0.6377,0.89093,0.35919,1.3678
	c-0.27856,0.47693-0.89099,0.63782-1.36786,0.35919C63.57581,24.61499,61.33398,24,59,24c-7.17969,0-13,5.82031-13,13
	c0,2.96899,0.99701,5.7832,2.80109,8.06207c0.4364,0.55121,0.34692,1.07361-0.00488,1.77533l-0.13269,0.25177l-0.11353,0.19861
	l-0.20471,0.33081l-0.17316,0.26532L47.526,48.84399l0.41998-0.12799l1.34253-0.43042l0.60461-0.18701l0.34198-0.099l0.29919-0.0788
	c0.74542-0.18347,1.09003-0.15619,1.47778,0.05084l0.14832,0.086C54.19818,49.32092,56.54779,50,59,50c7.17969,0,13-5.82031,13-13
	c0-2.96979-0.99762-5.78473-2.80249-8.0639c-0.3429-0.43292-0.26984-1.06189,0.16309-1.40472
	c0.43298-0.3429,1.06189-0.2699,1.40479,0.16315C72.84772,30.32397,74,33.57538,74,37z M51.99329,54.88342L52,55v12
	c0,3.78552-3.00482,6.86908-6.75928,6.99591L45,74H17c-3.78552,0-6.86908-3.00482-6.99591-6.75928L10,67V13
	c0-3.78546,3.00482-6.86908,6.7594-6.99591L17,6h28c3.7854,0,6.86908,3.00476,6.99591,6.7594L52,13v6c0,0.55231-0.44769,1-1,1
	c-0.51282,0-0.93549-0.38599-0.99329-0.88342L50,19v-6c0-2.68878-2.12231-4.88184-4.78308-4.99536L45,8H17
	c-2.68878,0-4.88177,2.12231-4.99542,4.78308L12,13v54c0,2.68878,2.12231,4.88177,4.78308,4.99542L17,72h28
	c2.68878,0,4.88177-2.12231,4.99542-4.78308L50,67V55c0-0.55231,0.44769-1,1-1C51.51282,54,51.93549,54.38599,51.99329,54.88342z
	 M20,67c0-0.51282,0.38599-0.93549,0.88342-0.99329L21,66h20c0.55231,0,1,0.44769,1,1c0,0.51282-0.38599,0.93549-0.88342,0.99329
	L41,68H21C20.44769,68,20,67.55231,20,67z"/>
  </g>
</svg>
