<svg width="80px" height="80px" viewBox="0 0 80 80" xmlns="http://www.w3.org/2000/svg">
 	<style>
		.fr-artwork-decorative {
			fill: #ECECFF;
		}
		.fr-artwork-minor {
			fill: #E1000F;
		}
		.fr-artwork-major {
			fill: #000091;
		}
	</style>
	<g class="fr-artwork-decorative" id="artwork-decorative">
    <path d="M15,14c-0.5514,0-1-0.4486-1-1s0.4486-1,1-1s1,0.4486,1,1S15.5514,14,15,14z M5,70c-0.5514,0-1-0.4486-1-1
	s0.4486-1,1-1s1,0.4486,1,1S5.5514,70,5,70z M75,64c-0.5514,0-1-0.4486-1-1s0.4486-1,1-1s1,0.4486,1,1S75.5514,64,75,64z M59,12
	c-0.5514,0-1-0.4486-1-1s0.4486-1,1-1s1,0.4486,1,1S59.5514,12,59,12z"/>
  </g>
  <g class="fr-artwork-minor" id="artwork-minor">
    <path d="M42.1481,10c16.5685,0,30,13.4315,30,30c0,0.5523-0.4477,1-1,1s-1-0.4477-1-1c0-15.464-12.536-28-28-28
	s-28,12.536-28,28s12.536,28,28,28c11.1547,0,21.1072-6.5825,25.5784-16.5917c0.2253-0.5042,0.8167-0.7304,1.3209-0.5052
	c0.5043,0.2253,0.7304,0.8167,0.5052,1.3209C64.7624,62.9473,54.099,70,42.1481,70c-16.5685,0-30-13.4315-30-30
	S25.5796,10,42.1481,10z M71.1481,48.5926c0,0.5932-0.4809,1.0741-1.0741,1.0741S69,49.1858,69,48.5926
	c0-0.5932,0.4808-1.0741,1.074-1.0741S71.1481,47.9994,71.1481,48.5926z M14.4931,21.0321
	c-0.4394-0.3346-1.0668-0.2495-1.4014,0.1899c-3.37962,4.4394-5.23989,9.8577-5.23989,15.5558c0,0.5523,0.44771,1,1,1
	c0.55228,0,1-0.4477,1-1c0-5.2566,1.71449-10.2502,4.83129-14.3443C15.0176,21.994,14.9326,21.3666,14.4931,21.0321z"/>
  </g>
  <g class="fr-artwork-major" id="artwork-major">
    <path d="M53.22491,53.00409L53,53h-2c-2.20911,0-4-1.79089-4-4c0-0.08203-0.00989-0.1618-0.0285-0.2381
	c2.00378-1.06311,3.65302-2.7486,4.7168-4.8114C51.78638,43.9826,51.89117,44,52,44c2.55231,0,4-1.44769,4-4
	c0-1.43683-0.44891-2.55511-1.38678-3.25439c-0.50562-0.37689-1.30603-0.5954-2.47882-0.73663
	c-0.04272-0.0058-0.08643-0.00879-0.13068-0.00897l-0.00165-0.00012c-0.0965-0.00031-0.19049,0.01331-0.27985,0.03925
	c-0.14404,0.04156-0.27472,0.11456-0.38416,0.2113c-0.19348,0.17096-0.32025,0.41565-0.33636,0.69006
	C51.00018,36.96558,50.99969,36.9906,51,37.01538V38.5l-0.00372,0.2757C50.85791,43.90491,46.87231,48,42,48
	c-4.95941,0-9-4.24268-9-9.5v-3.10358l9.1521-1.40802l0.11792-0.02551c0.26978-0.07568,0.4975-0.26178,0.62439-0.51569l1-2
	l0.0462-0.1073c0.17072-0.4707-0.03473-1.005-0.49341-1.23431l-0.1073-0.0462c-0.4707-0.17072-1.005,0.03473-1.23431,0.49341
	L41.336,32.09003l-11.19598,1.72198l0.01819-0.12878C31.13831,27.151,35.0033,24,42,24l0.35913,0.00281
	c6.65118,0.10498,10.38696,3.15106,11.42938,9.34558l0.05151,0.33063l-6.59753-1.64911l-0.11469-0.02179
	c-0.49652-0.06464-0.97363,0.25177-1.0979,0.74939c-0.13403,0.53577,0.19177,1.07867,0.7276,1.21259l8,2l0.11682,0.02222
	c0.61975,0.08038,1.17578-0.43262,1.12219-1.07532C55.28668,26.39941,50.52081,22,42,22s-13.28668,4.39941-13.99652,12.91699
	c-0.05377,0.64453,0.50934,1.16968,1.14862,1.07141L31,35.7041v0.43689c-0.71582,0.13788-1.24341,0.32892-1.61328,0.60461
	C28.44879,37.44489,27.99988,38.56317,27.99988,40c0,2.55231,1.44769,4,4,4c0.10895,0,0.21375-0.0174,0.31183-0.04962
	c1.06378,2.06293,2.71301,3.74841,4.7168,4.81152C37.00989,48.8382,37,48.91797,37,49c0,1.29871-0.6189,2.45282-1.57782,3.18347
	c-0.0155,0.01105-0.03058,0.02234-0.04535,0.03412C34.71228,52.70929,33.89008,53,33,53h-2l-0.22491,0.00409
	C27.56561,53.12238,25,55.7616,25,59c0,0.55231,0.44769,1,1,1s1-0.44769,1-1c0-2.20911,1.79089-4,4-4h2l0.22491-0.00409
	c0.83636-0.03088,1.62909-0.23291,2.34399-0.57208c1.0722,1.68726,3.0495,2.20239,5.67358,1.54626
	c0.53583-0.13391,0.86163-0.67682,0.7276-1.21259c-0.13391-0.53583-0.67682-0.86163-1.21259-0.7276
	c-1.86981,0.46741-2.96179,0.21442-3.54443-0.75793c0.97864-0.96515,1.62714-2.2641,1.76111-3.7121
	C39.93512,49.8465,40.95007,50,42,50s2.06488-0.1535,3.02582-0.44012c0.27551,2.9776,2.72687,5.32465,5.74927,5.43604L51,55h2
	c2.20911,0,4,1.79089,4,4c0,0.55231,0.44769,1,1,1s1-0.44769,1-1C59,55.7616,56.43439,53.12238,53.22491,53.00409z M53,38.5
	v-0.30988c0.2121,0.05566,0.35358,0.11108,0.41772,0.15887C53.79248,38.62848,54,39.14532,54,40
	c0,1.27179-0.42621,1.8526-1.51129,1.97491C52.82092,40.87811,53,39.71057,53,38.5z M29.99988,40
	c0-0.85468,0.20752-1.37152,0.58234-1.651C30.6463,38.30121,30.7879,38.24579,31,38.19012V38.5l0.0036,0.29633
	c0.02667,1.10486,0.2027,2.17157,0.50769,3.17859C30.42621,41.8526,29.99988,41.27179,29.99988,40z"/>
  </g>
</svg>
