<svg width="80px" height="80px" viewBox="0 0 80 80" xmlns="http://www.w3.org/2000/svg">
 	<style>
		.fr-artwork-decorative {
			fill: #ECECFF;
		}
		.fr-artwork-minor {
			fill: #E1000F;
		}
		.fr-artwork-major {
			fill: #000091;
		}
	</style>
	<g class="fr-artwork-decorative" id="artwork-decorative">
    <path d="M77,24c-0.5514,0-1-0.4486-1-1s0.4486-1,1-1s1,0.4486,1,1S77.5514,24,77,24z M29,80c-0.5514,0-1-0.4486-1-1
	s0.4486-1,1-1s1,0.4486,1,1S29.5514,80,29,80z M15,10c-0.5514,0-1-0.4486-1-1c0-0.55145,0.4486-1,1-1s1,0.44855,1,1
	C16,9.5514,15.5514,10,15,10z"/>
  </g>
  <g class="fr-artwork-minor" id="artwork-minor">
    <path d="M69.55188,69.32581c-5.15045,4.17072-12.70685,3.37646-16.87756-1.77399
	c-4.17084-5.15039-3.37659-12.70685,1.77386-16.87762c5.15051-4.17072,12.70685-3.37653,16.87762,1.77399
	c0.34747,0.4292,0.28137,1.0589-0.14783,1.40643c-0.4292,0.3476-1.0589,0.28137-1.40649-0.14783
	c-3.47559-4.29211-9.77258-4.95392-14.0647-1.47827c-4.29199,3.47571-4.95386,9.77258-1.47821,14.0647
	c3.47565,4.29205,9.77264,4.95386,14.06464,1.47827c2.72748-2.20868,4.0639-5.63489,3.62592-9.05298
	c-0.07025-0.54779,0.31696-1.04883,0.86475-1.11902c0.54785-0.07019,1.04883,0.31702,1.11902,0.86481
	C74.4281,62.56329,72.82391,66.67621,69.55188,69.32581z M66.4389,55.50873l-6.06793,7.10229l-2.32977-2.7547l-0.05908-0.06403
	c-0.43073-0.41663-1.07574-0.42407-1.49774-0.03003c-0.43909,0.41016-0.47797,1.10522-0.08948,1.56445l2.82959,3.34436
	c0.05219,0.06171,0.10931,0.11914,0.17084,0.17169c0.62988,0.53802,1.57678,0.46362,2.11481-0.16626l6.5683-7.68939l0.05377-0.06873
	c0.3327-0.47809,0.27112-1.11218-0.13611-1.49609C67.54498,54.99689,66.84198,55.03693,66.4389,55.50873z"/>
  </g>
  <g class="fr-artwork-major" id="artwork-major">
    <path d="M70,19v26c0,0.55231-0.44769,1-1,1c-0.51282,0-0.93549-0.38599-0.99329-0.88342L68,45V28h-5
	c-0.55231,0-1-0.44769-1-1c0-0.51282,0.38599-0.93549,0.88342-0.99329L63,26h5v-7c0-1.59772-1.2489-2.90369-2.82367-2.99487L65,16
	h-7v3c0,0.55231-0.44769,1-1,1c-0.51282,0-0.93549-0.38599-0.99329-0.88342L56,19v-3H24v3c0,0.55231-0.44769,1-1,1
	c-0.51282,0-0.93549-0.38599-0.99329-0.88342L22,19v-3h-7c-1.59772,0-2.90369,1.2489-2.99487,2.82367L12,19v7h10v-1
	c0-0.55231,0.44769-1,1-1c0.51282,0,0.93549,0.38599,0.99329,0.88342L24,25v1h33c0.55231,0,1,0.44769,1,1
	c0,0.51282-0.38599,0.93549-0.88342,0.99329L57,28H24v1c0,0.55231-0.44769,1-1,1c-0.51282,0-0.93549-0.38599-0.99329-0.88342L22,29
	v-1H12v33c0,1.59772,1.2489,2.90369,2.82373,2.99487L15,64h28c0.55231,0,1,0.44769,1,1c0,0.51282-0.38599,0.93549-0.88342,0.99329
	L43,66H15c-2.68878,0-4.88177-2.12231-4.99542-4.78308L10,61V19c0-2.68878,2.12231-4.88177,4.78308-4.99542L15,14h7v-3
	c0-0.55231,0.44769-1,1-1c0.51282,0,0.93549,0.38599,0.99329,0.88342L24,11v3h32v-3c0-0.55231,0.44769-1,1-1
	c0.51282,0,0.93549,0.38599,0.99329,0.88342L58,11v3h7c2.68878,0,4.88177,2.12231,4.99542,4.78308L70,19z M47,64
	c-0.55231,0-1,0.44769-1,1s0.44769,1,1,1s1-0.44769,1-1S47.55231,64,47,64z M30,41c0,1.65692-1.34308,3-3,3h-6
	c-1.65692,0-3-1.34308-3-3v-4c0-1.65692,1.34308-3,3-3h6c1.65692,0,3,1.34308,3,3V41z M28,37c0-0.55231-0.44769-1-1-1h-6
	c-0.55231,0-1,0.44769-1,1v4c0,0.55231,0.44769,1,1,1h6c0.55231,0,1-0.44769,1-1V37z M62,37v4c0,1.65692-1.34308,3-3,3h-6
	c-1.65692,0-3-1.34308-3-3v-4c0-1.65692,1.34308-3,3-3h6C60.65692,34,62,35.34308,62,37z M60,37c0-0.55231-0.44769-1-1-1h-6
	c-0.55231,0-1,0.44769-1,1v4c0,0.55231,0.44769,1,1,1h6c0.55231,0,1-0.44769,1-1V37z M34,41v-4c0-1.65692,1.34308-3,3-3h6
	c1.65692,0,3,1.34308,3,3v4c0,1.65692-1.34308,3-3,3h-6C35.34308,44,34,42.65692,34,41z M36,41c0,0.55231,0.44769,1,1,1h6
	c0.55231,0,1-0.44769,1-1v-4c0-0.55231-0.44769-1-1-1h-6c-0.55231,0-1,0.44769-1,1V41z M30,51v4c0,1.65692-1.34308,3-3,3h-6
	c-1.65692,0-3-1.34308-3-3v-4c0-1.65692,1.34308-3,3-3h6C28.65692,48,30,49.34308,30,51z M28,51c0-0.55231-0.44769-1-1-1h-6
	c-0.55231,0-1,0.44769-1,1v4c0,0.55231,0.44769,1,1,1h6c0.55231,0,1-0.44769,1-1V51z M34,51c0-1.65692,1.34308-3,3-3h6
	c1.65692,0,3,1.34308,3,3v4c0,1.65692-1.34308,3-3,3h-6c-1.65692,0-3-1.34308-3-3V51z M36,55c0,0.55231,0.44769,1,1,1h6
	c0.55231,0,1-0.44769,1-1v-4c0-0.55231-0.44769-1-1-1h-6c-0.55231,0-1,0.44769-1,1V55z"/>
  </g>
</svg>
