<svg width="80px" height="80px" viewBox="0 0 80 80" xmlns="http://www.w3.org/2000/svg">
 	<style>
		.fr-artwork-decorative {
			fill: #ECECFF;
		}
		.fr-artwork-minor {
			fill: #E1000F;
		}
		.fr-artwork-major {
			fill: #000091;
		}
	</style>
	<g class="fr-artwork-decorative" id="artwork-decorative">
    <path d="M59,76c-0.5514,0-1-0.4486-1-1s0.4486-1,1-1s1,0.4486,1,1S59.5514,76,59,76z M67,12c-0.5514,0-1-0.4486-1-1
	s0.4486-1,1-1s1,0.4486,1,1S67.5514,12,67,12z M9,16c-0.5514,0-1-0.4486-1-1s0.4486-1,1-1s1,0.4486,1,1S9.5514,16,9,16z"/>
  </g>
  <g class="fr-artwork-minor" id="artwork-minor">
    <path d="M45,40h10c0.55231,0,1-0.44769,1-1v-8c0-0.55231-0.44769-1-1-1H45c-0.55231,0-1,0.44769-1,1v8
	C44,39.55231,44.44769,40,45,40z M46,32h8v6h-8V32z M61,44H51c-0.55231,0-1,0.44769-1,1v8c0,0.55231,0.44769,1,1,1h10
	c0.55231,0,1-0.44769,1-1v-8C62,44.44769,61.55231,44,61,44z M60,52h-8v-6h8V52z M58,31c0-0.51282,0.38599-0.93549,0.88342-0.99329
	L59,30h2c0.55231,0,1,0.44769,1,1c0,0.51282-0.38599,0.93549-0.88342,0.99329L61,32h-2C58.44769,32,58,31.55231,58,31z M62,35
	c0,0.51282-0.38599,0.93549-0.88342,0.99329L61,36h-2c-0.55231,0-1-0.44769-1-1c0-0.51282,0.38599-0.93549,0.88342-0.99329L59,34h2
	C61.55231,34,62,34.44769,62,35z M62,39c0,0.51282-0.38599,0.93549-0.88342,0.99329L61,40h-2c-0.55231,0-1-0.44769-1-1
	c0-0.51282,0.38599-0.93549,0.88342-0.99329L59,38h2C61.55231,38,62,38.44769,62,39z M48,45
	c0,0.51282-0.38599,0.93549-0.88342,0.99329L47,46h-2c-0.55231,0-1-0.44769-1-1c0-0.51282,0.38599-0.93549,0.88342-0.99329L45,44h2
	C47.55231,44,48,44.44769,48,45z M48,49c0,0.51282-0.38599,0.93549-0.88342,0.99329L47,50h-2c-0.55231,0-1-0.44769-1-1
	c0-0.51282,0.38599-0.93549,0.88342-0.99329L45,48h2C47.55231,48,48,48.44769,48,49z M48,53
	c0,0.51282-0.38599,0.93549-0.88342,0.99329L47,54h-2c-0.55231,0-1-0.44769-1-1c0-0.51282,0.38599-0.93549,0.88342-0.99329L45,52h2
	C47.55231,52,48,52.44769,48,53z"/>
  </g>
  <g class="fr-artwork-major" id="artwork-major">
    <path d="M16,21c0-0.55139,0.44861-1,1-1s1,0.44861,1,1s-0.44861,1-1,1S16,21.55139,16,21z M21,22
	c0.55139,0,1-0.44861,1-1s-0.44861-1-1-1s-1,0.44861-1,1S20.44861,22,21,22z M25,22c0.55139,0,1-0.44861,1-1s-0.44861-1-1-1
	s-1,0.44861-1,1S24.44861,22,25,22z M35.83081,31.5799l-4.27728-1.49213l0.43988-1.79889L32,28.23407
	C31.99957,28.10822,31.8927,28,31.75409,28H30.3775l-0.06628,0.00873c-0.08459,0.02258-0.15222,0.08777-0.1731,0.17297
	l-1.35675,5.54633l0.00073-0.26825l-0.00781-0.05859l-0.02209-0.05377c-0.02869-0.0506-0.0766-0.09064-0.13617-0.11023
	l-2.12946-0.69977l2.12946-0.69904l0.05536-0.026c0.06799-0.04279,0.11072-0.11609,0.11072-0.19659V30.3866l-0.00763-0.05872
	c-0.03467-0.13037-0.18195-0.2113-0.32227-0.16248l-4.29041,1.49402l-0.05408,0.02649C24.04138,31.729,24,31.80127,24,31.88049
	v1.31458l0.00751,0.0578c0.01971,0.07434,0.0766,0.13635,0.1543,0.16345l4.29041,1.4939l0.03821,0.00836l-0.19354,0.79254
	l-0.00659,0.05475C28.29071,35.89178,28.39771,36,28.53632,36h1.37659l0.06622-0.00873
	c0.08466-0.02258,0.15228-0.08777,0.1731-0.17297l0.99329-4.06189c0.00897,0.00409,0.01837,0.00781,0.02808,0.01099l2.22552,0.73218
	l-2.22552,0.73303l-0.05786,0.02728C31.04462,33.30469,31,33.38147,31,33.4657v1.2876l0.00787,0.06152
	c0.03632,0.1366,0.19031,0.22125,0.33704,0.1701l4.4859-1.56482l0.05658-0.02771C35.95673,33.34717,36,33.27142,36,33.18848
	v-1.37695l-0.00781-0.06055C35.97162,31.6731,35.91211,31.60822,35.83081,31.5799z M16,32h2v-4h-2V32z M16,36h2v-2h-2V36z M16,42h2
	v-4h-2V42z M16,48h2v-4h-2V48z M16,52h2v-2h-2V52z M68,17v46c0,0.55231-0.44769,1-1,1H13c-0.55231,0-1-0.44769-1-1V17
	c0-0.55231,0.44769-1,1-1h54C67.55231,16,68,16.44769,68,17z M14,58h6V26h-6V58z M66,18H14v6h37c0.55231,0,1,0.44769,1,1
	c0,0.51282-0.38599,0.93549-0.88342,0.99329L51,26H40v32h15c0.55231,0,1,0.44769,1,1c0,0.51282-0.38599,0.93549-0.88342,0.99329
	L55,60H14v2h52v-2h-5c-0.55231,0-1-0.44769-1-1c0-0.51282,0.38599-0.93549,0.88342-0.99329L61,58h5V26h-9c-0.55231,0-1-0.44769-1-1
	c0-0.51282,0.38599-0.93549,0.88342-0.99329L57,24h9V18z M38,58V26H22v32H38z"/>
  </g>
</svg>
