<svg width="80px" height="80px" viewBox="0 0 80 80" xmlns="http://www.w3.org/2000/svg">
 	<style>
		.fr-artwork-decorative {
			fill: #ECECFF;
		}
		.fr-artwork-minor {
			fill: #E1000F;
		}
		.fr-artwork-major {
			fill: #000091;
		}
	</style>
	<g class="fr-artwork-decorative" id="artwork-decorative">
    <path d="M73,18c-0.5514,0-1-0.4486-1-1s0.4486-1,1-1s1,0.4486,1,1S73.5514,18,73,18z M7,18c-0.5514,0-1-0.4486-1-1
	s0.4486-1,1-1s1,0.4486,1,1S7.5514,18,7,18z M11,68c-0.5514,0-1-0.4486-1-1s0.4486-1,1-1s1,0.4486,1,1S11.5514,68,11,68z M65,72
	c-0.5514,0-1-0.4486-1-1s0.4486-1,1-1s1,0.4486,1,1S65.5514,72,65,72z M19,6c-0.5514,0-1-0.4486-1-1c0-0.55145,0.4486-1,1-1
	s1,0.44855,1,1C20,5.5514,19.5514,6,19,6z M55,78c-0.5514,0-1-0.4486-1-1s0.4486-1,1-1s1,0.4486,1,1S55.5514,78,55,78z"/>
  </g>
  <g class="fr-artwork-minor" id="artwork-minor">
    <path d="M65.10162,33.98138c-0.54071,0.11292-1.07043-0.23389-1.18323-0.7746
	c-0.3186-1.52637-1.552-2.78827-3.18658-3.24347c-0.5321-0.14813-0.84332-0.69952-0.69519-1.23151
	c0.14819-0.5321,0.69958-0.84332,1.23157-0.69513c2.3396,0.65143,4.13324,2.48633,4.60803,4.76154
	C65.98901,33.33893,65.64221,33.86859,65.10162,33.98138z M72.23212,54.99042c-1.38373,0.79877-3.13922,0.37018-4.00562-0.948
	l-0.09247-0.15015l-5.8667-10.16125C61.53754,43.90106,60.78088,44,60,44c-5.51489,0-10-4.48511-10-10c0-5.5152,4.48499-10,10-10
	s10,4.4848,10,10c0,2.56488-0.97845,4.89935-2.57111,6.67114l5.90118,10.22113
	C74.15863,52.32721,73.66693,54.16199,72.23212,54.99042z M68,34c0-4.41058-3.58948-8-8-8s-8,3.58942-8,8c0,4.41028,3.58972,8,8,8
	S68,38.41028,68,34z M71.65057,51.9967l-0.05249-0.10443l-5.68463-9.84607c-0.53589,0.3949-1.11072,0.73712-1.7204,1.0202
	l5.67297,9.82587c0.27618,0.47833,0.88776,0.64221,1.36609,0.36603C71.67621,53.00189,71.84918,52.4563,71.65057,51.9967z
	 M45.89441,30.5528c0.22937,0.45868,0.07312,1.0094-0.34589,1.28351l-0.10132,0.05811l-1.51294,0.75647
	C43.62115,34.54681,41.98358,36,40,36c-2.04871,0-3.7218-1.552-3.95343-3.53925l-3.44604-3.44604
	C31.89935,29.6203,30.99756,30,30,30c-1.3656,0-2.57037-0.68915-3.2923-1.73584l-2.74445,1.37219C23.97443,29.758,24,29.87549,24,30
	c0,2.20648-1.79352,4-4,4s-4-1.79352-4-4c0-2.2066,1.79352-4,4-4c1.3656,0,2.57037,0.68909,3.29236,1.73578l2.74438-1.37213
	C26.02557,26.242,26,26.12451,26,26c0-2.2066,1.79352-4,4-4s4,1.7934,4,4c0,0.4718-0.09668,0.91809-0.24719,1.33862l2.75323,2.75323
	C37.18604,28.85187,38.4881,28,40,28c1.68518,0,3.1225,1.04932,3.71094,2.52655l0.84186-0.42096
	C45.04681,29.85858,45.6474,30.05878,45.89441,30.5528z M22,30c0-1.10199-0.89801-2-2-2s-2,0.89801-2,2c0,1.10193,0.89807,2,2,2
	S22,31.10193,22,30z M32,26c0-1.10199-0.89801-2-2-2s-2,0.89801-2,2c0,1.10193,0.89807,2,2,2S32,27.10193,32,26z M42,32
	c0-1.10199-0.89801-2-2-2s-2,0.89801-2,2c0,1.10187,0.89813,2,2,2C41.10193,34,42,33.10187,42,32z"/>
  </g>
  <g class="fr-artwork-major" id="artwork-major">
    <path d="M58.00671,19.11658C58.06451,19.61401,58.48718,20,59,20c0.55231,0,1-0.44769,1-1v-2l-0.00671-0.11658
	C59.93549,16.38599,59.51282,16,59,16H40v-1c0-1.59772-1.2489-2.90369-2.82367-2.99487L37,12h-4
	c-1.59772,0-2.90369,1.2489-2.99487,2.82367L30,15v1H11l-0.11658,0.00671C10.38599,16.06451,10,16.48718,10,17v38l0.00671,0.11658
	C10.06451,55.61401,10.48718,56,11,56h7v1l0.00513,0.17627C18.09631,58.7511,19.40228,60,21,60h10.00006l-4.80005,6.40002
	L26.13098,66.505c-0.24646,0.43152-0.13879,0.98907,0.26904,1.29498c0.44177,0.33142,1.0686,0.24182,1.39996-0.20001L33.5,60
	h3.00006l5.69995,7.59998c0.33136,0.44183,0.95819,0.53143,1.39996,0.20001c0.40784-0.30591,0.5155-0.86346,0.26904-1.29498
	l-0.06903-0.10498L39,60h10l0.17633-0.00513C50.7511,59.90369,52,58.59772,52,57v-1h7l0.11658-0.00671
	C59.61401,55.93549,60,55.51282,60,55v-6l-0.00671-0.11658C59.93549,48.38599,59.51282,48,59,48l-0.11658,0.00671
	C58.38599,48.06451,58,48.48718,58,49v5H12V18h46v1L58.00671,19.11658z M50,57l-0.00671,0.11658
	C49.93549,57.61401,49.51282,58,49,58H21l-0.11658-0.00671C20.38599,57.93549,20,57.51282,20,57v-1h30V57z M32,15
	c0-0.51282,0.38599-0.93549,0.88342-0.99329L33,14h4c0.51282,0,0.93549,0.38599,0.99329,0.88342L38,15v1h-6V15z M22,41v-1h-4v8h4v-3
	c0-0.51282,0.38599-0.93549,0.88342-0.99329L23,44c0.51282,0,0.93549,0.38599,0.99329,0.88342L24,45v4
	c0,0.51282-0.38599,0.93549-0.88342,0.99329L23,50h-6c-0.51282,0-0.93549-0.38599-0.99329-0.88342L16,49V39
	c0-0.51282,0.38599-0.93549,0.88342-0.99329L17,38h6c0.51282,0,0.93549,0.38599,0.99329,0.88342L24,39v2c0,0.55231-0.44769,1-1,1
	c-0.51282,0-0.93549-0.38599-0.99329-0.88342L22,41z M28,36v12h4V37c0-0.51282,0.38599-0.93549,0.88342-0.99329L33,36
	c0.51282,0,0.93549,0.38599,0.99329,0.88342L34,37v12c0,0.51282-0.38599,0.93549-0.88342,0.99329L33,50h-6
	c-0.51282,0-0.93549-0.38599-0.99329-0.88342L26,49V35c0-0.51282,0.38599-0.93549,0.88342-0.99329L27,34h2c0.55231,0,1,0.44769,1,1
	c0,0.51282-0.38599,0.93549-0.88342,0.99329L29,36H28z M38,44v4h4v-5c0-0.51282,0.38599-0.93549,0.88342-0.99329L43,42
	c0.51282,0,0.93549,0.38599,0.99329,0.88342L44,43v6c0,0.51282-0.38599,0.93549-0.88342,0.99329L43,50h-6
	c-0.51282,0-0.93549-0.38599-0.99329-0.88342L36,49v-6c0-0.51282,0.38599-0.93549,0.88342-0.99329L37,42h2c0.55231,0,1,0.44769,1,1
	c0,0.51282-0.38599,0.93549-0.88342,0.99329L39,44H38z M48,41v7h4v-1c0-0.51282,0.38599-0.93549,0.88342-0.99329L53,46
	c0.51282,0,0.93549,0.38599,0.99329,0.88342L54,47v2c0,0.51282-0.38599,0.93549-0.88342,0.99329L53,50h-6
	c-0.51282,0-0.93549-0.38599-0.99329-0.88342L46,49v-8c0-0.55231,0.44769-1,1-1c0.51282,0,0.93549,0.38599,0.99329,0.88342L48,41z"
	/>
  </g>
</svg>
