<svg width="80px" height="80px" viewBox="0 0 80 80" xmlns="http://www.w3.org/2000/svg">
  <style>
		.fr-artwork-decorative {
			fill: #ECECFF;
		}
		.fr-artwork-minor {
			fill: #E1000F;
		}
		.fr-artwork-major {
			fill: #000091;
		}
	</style>
  <symbol id="artwork-decorative">
    <path d="M73 33c-.5514 0-1-.4486-1-1s.4486-1 1-1 1 .4486 1 1-.4486 1-1 1ZM12 43c-.5514 0-1-.4486-1-1s.4486-1 1-1 1 .4486 1 1-.4486 1-1 1ZM8 6c-.5514 0-1-.4486-1-1s.4486-1 1-1 1 .4486 1 1-.4486 1-1 1Zm15 68c-.5514 0-1-.4486-1-1s.4486-1 1-1 1 .4486 1 1-.4486 1-1 1ZM44 8c-.5514 0-1-.4486-1-1s.4486-1 1-1 1 .4486 1 1-.4486 1-1 1Zm27 64c-.5514 0-1-.4486-1-1s.4486-1 1-1 1 .4486 1 1-.4486 1-1 1Z"/>
  </symbol>
  <symbol id="artwork-minor">
    <path fill-rule="evenodd" d="M66 14a2.9863 2.9863 0 0 1-.4957 1.6525C66.693 16.3396 67.5 17.5257 67.5 19c0 .5523-.4477 1-1 1s-1-.4477-1-1c0-1.0015-.9083-2-2.5-2-1.5703 0-2.5 1.0736-2.5 2 0 .5523-.4477 1-1 1s-1-.4477-1-1c0-1.4128.8083-2.6217 2.0074-3.33A2.9862 2.9862 0 0 1 60 14c0-1.6569 1.3431-3 3-3s3 1.3431 3 3Zm-4 0c0-.5523.4477-1 1-1s1 .4477 1 1-.4477 1-1 1-1-.4477-1-1Zm-35 5a2.9863 2.9863 0 0 1-.4957 1.6525C27.6929 21.3396 28.5 22.5257 28.5 24c0 .5523-.4477 1-1 1s-1-.4477-1-1c0-1.0015-.9083-2-2.5-2-1.5703 0-2.5 1.0736-2.5 2 0 .5523-.4477 1-1 1s-1-.4477-1-1c0-1.4128.8083-2.6217 2.0074-3.33A2.9862 2.9862 0 0 1 21 19c0-1.6569 1.3431-3 3-3s3 1.3431 3 3Zm-4 0c0-.5523.4477-1 1-1s1 .4477 1 1-.4477 1-1 1-1-.4477-1-1Zm14.5 17a3.9856 3.9856 0 0 0 1.0191 2.6674C36.4327 39.6632 35 41.6722 35 44c0 .5523.4477 1 1 1s1-.4477 1-1c0-2.0748 1.8764-4 4.5-4 2.6371 0 4.5 1.8376 4.5 4 0 .5523.4477 1 1 1s1-.4477 1-1c0-2.3997-1.4312-4.3729-3.5075-5.3457A3.985 3.985 0 0 0 45.5 36c0-2.2091-1.7909-4-4-4-2.2091 0-4 1.7909-4 4Zm4-2c-1.1046 0-2 .8954-2 2s.8954 2 2 2h.0035c1.103-.0019 1.9965-.8966 1.9965-2 0-1.1046-.8954-2-2-2ZM47 63a2.9863 2.9863 0 0 1-.4957 1.6525C47.693 65.3396 48.5 66.5257 48.5 68c0 .5523-.4477 1-1 1s-1-.4477-1-1c0-1.0008-.907-1.9985-2.4964-2h-.0071c-1.5681.0016-2.4965 1.0743-2.4965 2 0 .5523-.4477 1-1 1s-1-.4477-1-1c0-1.4128.8083-2.6217 2.0074-3.33A2.9862 2.9862 0 0 1 41 63c0-1.6569 1.3431-3 3-3s3 1.3431 3 3Zm-4 0c0-.5523.4477-1 1-1s1 .4477 1 1-.4477 1-1 1h-.0025c-.5512-.0014-.9975-.4486-.9975-1Zm24-22c-1.6569 0-3 1.3431-3 3 0 .6182.187 1.1927.5074 1.67C63.3083 46.3783 62.5 47.5872 62.5 49c0 .5523.4477 1 1 1s1-.4477 1-1c0-.9264.9298-2 2.5-2 1.5917 0 2.5.9985 2.5 2 0 .5523.4477 1 1 1s1-.4477 1-1c0-1.4743-.807-2.6604-1.9957-3.3475A2.9863 2.9863 0 0 0 70 44c0-1.6569-1.3431-3-3-3Zm-1 3c0-.5523.4477-1 1-1s1 .4477 1 1-.4477 1-1 1-1-.4477-1-1ZM17 58a2.9863 2.9863 0 0 1-.4957 1.6525C17.6929 60.3396 18.5 61.5257 18.5 63c0 .5523-.4477 1-1 1s-1-.4477-1-1c0-1.0015-.9083-2-2.5-2-1.5703 0-2.5 1.0736-2.5 2 0 .5523-.4477 1-1 1s-1-.4477-1-1c0-1.4128.8083-2.6217 2.0074-3.33A2.9862 2.9862 0 0 1 11 58c0-1.6569 1.3431-3 3-3s3 1.3431 3 3Zm-4 0c0-.5523.4477-1 1-1s1 .4477 1 1-.4477 1-1 1-1-.4477-1-1Z M12 26c.5523 0 1-.4477 1-1s-.4477-1-1-1-1 .4477-1 1 .4477 1 1 1Z"/>
  </symbol>
  <symbol id="artwork-major">
    <path d="M67 39c-3.866 0-7 3.134-7 7s3.134 7 7 7 7-3.134 7-7-3.134-7-7-7Zm-9 7c0-4.9706 4.0294-9 9-9s9 4.0294 9 9-4.0294 9-9 9-9-4.0294-9-9ZM13.4335 27.176c.4551-.3129 1.0777-.1976 1.3905.2575.9759 1.4193 2.4224 2.5217 4.1232 3.3721.494.247.6942.8476.4472 1.3416-.247.494-.8476.6942-1.3416.4472-1.8992-.9496-3.6527-2.2472-4.8768-4.0279-.3129-.4551-.1976-1.0777.2575-1.3905ZM24 14c-3.866 0-7 3.134-7 7s3.134 7 7 7 7-3.134 7-7-3.134-7-7-7Zm-9 7c0-4.9706 4.0294-9 9-9s9 4.0294 9 9-4.0294 9-9 9-9-4.0294-9-9Zm-1 32c-3.866 0-7 3.134-7 7s3.134 7 7 7 7-3.134 7-7-3.134-7-7-7Zm-9 7c0-4.9706 4.0294-9 9-9s9 4.0294 9 9-4.0294 9-9 9-9-4.0294-9-9Zm49-44c0-4.9523 4.0477-9 9-9 1.3592 0 2.7119.338 3.8472.9056.494.247.6942.8476.4472 1.3416-.247.494-.8476.6942-1.3416.4472C65.0881 9.2621 64.0408 9 63 9c-3.8477 0-7 3.1523-7 7s3.1523 7 7 7 7-3.1523 7-7c0-.5523.4477-1 1-1s1 .4477 1 1c0 4.9523-4.0477 9-9 9s-9-4.0477-9-9Z M68.2 10.2c.3314-.4418.9582-.5314 1.4-.2.101.0757.1838.1562.2429.2171.057.0588.1112.1197.1497.1631l.0048.0054c.0446.0502.0716.0803.0955.105.0086.0088.0142.0142.0171.017.4332.3332.5189.9539.19 1.3924-.3314.4418-.9582.5314-1.4.2a2.0885 2.0885 0 0 1-.2429-.2171 5.2686 5.2686 0 0 1-.1497-.1631l-.0048-.0055a3.499 3.499 0 0 0-.0955-.1049c-.0086-.0088-.0142-.0142-.0171-.017-.4332-.3332-.5189-.9539-.19-1.3924ZM35 65c0-4.9523 4.0477-9 9-9s9 4.0477 9 9-4.0477 9-9 9c-1.3592 0-2.7119-.3379-3.8472-.9056-.494-.247-.6942-.8476-.4472-1.3416.247-.494.8476-.6942 1.3416-.4472.8647.4323 1.912.6944 2.9528.6944 3.8477 0 7-3.1523 7-7s-3.1523-7-7-7-7 3.1523-7 7c0 .5523-.4477 1-1 1s-1-.4477-1-1Z M37.2 69.4c.3314-.4418.9582-.5314 1.4-.2.101.0758.1838.1562.2429.2171.057.0588.1112.1198.1497.1631l.0048.0054c.0446.0502.0716.0803.0955.105.0086.0088.0142.0142.0171.017.4332.3332.5189.9539.19 1.3924-.3314.4418-.9582.5314-1.4.2a2.0885 2.0885 0 0 1-.2429-.2171 5.2686 5.2686 0 0 1-.1545-.1685 3.5323 3.5323 0 0 0-.0955-.105c-.0086-.0088-.0142-.0142-.0171-.017-.4332-.3332-.5189-.9539-.19-1.3924ZM41.5 30c-5.2467 0-9.5 4.2533-9.5 9.5s4.2533 9.5 9.5 9.5 9.5-4.2533 9.5-9.5-4.2533-9.5-9.5-9.5ZM30 39.5C30 33.1487 35.1487 28 41.5 28S53 33.1487 53 39.5 47.8513 51 41.5 51 30 45.8513 30 39.5Z M57.7071 21.2929c.3905.3905.3905 1.0237 0 1.4142l-9 9c-.3905.3905-1.0237.3905-1.4142 0-.3905-.3905-.3905-1.0237 0-1.4142l9-9c.3905-.3905 1.0237-.3905 1.4142 0Zm-6.6815 21.4822c.1242-.5381.6611-.8737 1.1993-.7495l6.5 1.5c.5381.1242.8737.6611.7495 1.1993-.1242.5381-.6611.8737-1.1992.7495l-6.5-1.5c-.5382-.1242-.8738-.6611-.7496-1.1993Zm-8.1087 6.7283c.5504-.0458 1.0338.3632 1.0796.9135l.5001 6c.0458.5504-.3632 1.0338-.9135 1.0796-.5504.0459-1.0338-.3631-1.0796-.9135l-.5001-6c-.0458-.5503.3632-1.0337.9135-1.0796Zm-14.124-22.7105c.3905-.3905 1.0237-.3905 1.4142 0l4.5 4.5c.3905.3905.3905 1.0237 0 1.4142-.3905.3905-1.0237.3905-1.4142 0l-4.5-4.5c-.3905-.3905-.3905-1.0237 0-1.4142Zm4.5113 19.1127c.3282.4442.2343 1.0703-.2098 1.3986l-11.5 8.5c-.4441.3283-1.0703.2343-1.3986-.2098-.3282-.4441-.2343-1.0703.2098-1.3986l11.5-8.5c.4441-.3282 1.0703-.2343 1.3986.2098Z"/>
  </symbol>
  <use class="fr-artwork-decorative" href="#artwork-decorative"/>
  <use class="fr-artwork-minor" href="#artwork-minor"/>
  <use class="fr-artwork-major" href="#artwork-major"/>
</svg>
