<svg width="80px" height="80px" viewBox="0 0 80 80" xmlns="http://www.w3.org/2000/svg">
 	<style>
		.fr-artwork-decorative {
			fill: #ECECFF;
		}
		.fr-artwork-minor {
			fill: #E1000F;
		}
		.fr-artwork-major {
			fill: #000091;
		}
	</style>
	<g class="fr-artwork-decorative" id="artwork-decorative">
    <path d="M72 12a1.001 1.001 0 0 1 0-2 1.001 1.001 0 0 1 0 2Zm-7 12a1.001 1.001 0 0 1 0-2 1.001 1.001 0 0 1 0 2ZM13 71a1.001 1.001 0 0 1 0-2 1.001 1.001 0 0 1 0 2Zm54 4a1.001 1.001 0 0 1 0-2 1.001 1.001 0 0 1 0 2ZM57 8a1.001 1.001 0 0 1 0-2 1.001 1.001 0 0 1 0 2ZM7 14a1.001 1.001 0 0 1 0-2 1.001 1.001 0 0 1 0 2Z"/>
  </g>
  <g class="fr-artwork-minor" id="artwork-minor">
    <path fill-rule="evenodd" d="M50.371 51.072a1 1 0 0 1 .557 1.3l-4 10a1 1 0 0 1-1.856-.743l4-10a1 1 0 0 1 1.3-.557Zm8 5a1 1 0 0 1 .557 1.3l-2 5a1 1 0 0 1-1.856-.743l2-5a1 1 0 0 1 1.3-.557Zm-23-5a1 1 0 0 1 .557 1.3l-4 10a1 1 0 0 1-1.857-.743l4-10a1 1 0 0 1 1.3-.557Zm-15 0a1 1 0 0 1 .558 1.3l-4 10a1 1 0 0 1-1.857-.743l4-10a1 1 0 0 1 1.3-.557ZM32 38a3 3 0 1 0 0-6 3 3 0 0 0 0 6Zm0 2a5 5 0 1 0 0-10 5 5 0 0 0 0 10Zm-13-9a1 1 0 0 1 1-1h4a1 1 0 1 1 0 2h-4a1 1 0 0 1-1-1Zm0 4a1 1 0 0 1 1-1h4a1 1 0 1 1 0 2h-4a1 1 0 0 1-1-1Zm0 4a1 1 0 0 1 1-1h4a1 1 0 1 1 0 2h-4a1 1 0 0 1-1-1Z"/>
  </g>
  <g class="fr-artwork-major" id="artwork-major">
    <path d="M48.895 19.338a3.23 3.23 0 0 1 6.21 0l5.28 18.376 4.02 12.99.007.02.941 3.276H69a1 1 0 0 1 1 1v5a1 1 0 0 1-1 1h-7a1 1 0 1 1 0-2h6v-3h-3.4a1 1 0 0 1-.961-.724l-1.147-3.99-2.23-7.204H51a1 1 0 0 1 0-2h8.644l-1.172-3.786-.006-.02L57.525 35h-11.05l-.941 3.276-.006.02-2.785 9a1 1 0 1 1-1.91-.592l1.212-3.918 1.57-5.072 5.28-18.375ZM47.05 33h9.9l-2.012-7h-5.876l-2.012 7Zm2.586-9h4.728l-1.181-4.11a1.23 1.23 0 0 0-2.366 0L49.637 24Zm-4.265 27.072a1 1 0 0 1 .557 1.3l-4 10a1 1 0 0 1-1.856-.743l4-10a1 1 0 0 1 1.3-.557Zm10 0a1 1 0 0 1 .557 1.3l-4 10a1 1 0 0 1-1.856-.743l4-10a1 1 0 0 1 1.3-.557Zm-25 0a1 1 0 0 1 .558 1.3l-4 10a1 1 0 0 1-1.857-.743l4-10a1 1 0 0 1 1.3-.557Zm10 0a1 1 0 0 1 .557 1.3l-4 10a1 1 0 0 1-1.856-.743l4-10a1 1 0 0 1 1.3-.557Zm-15 0a1 1 0 0 1 .558 1.3l-4 10a1 1 0 0 1-1.857-.743l4-10a1 1 0 0 1 1.3-.557Zm-11 2.5a1 1 0 0 1 .557 1.3l-3 7.5a1 1 0 0 1-1.857-.743l3-7.5a1 1 0 0 1 1.3-.557ZM15 18a1 1 0 0 1 1-1h28a1 1 0 0 1 1 1v2a1 1 0 1 1-2 0v-1H17v6h24a1 1 0 1 1 0 2H17v21a1 1 0 1 1-2 0V18Zm6 4a1 1 0 1 1-2 0 1 1 0 0 1 2 0Zm4 0a1 1 0 1 1-2 0 1 1 0 0 1 2 0Zm4 0a1 1 0 1 1-2 0 1 1 0 0 1 2 0Zm19 21a1 1 0 1 1-2 0 1 1 0 0 1 2 0Z"/>
  </g>
</svg>
