<svg width="80px" height="80px" viewBox="0 0 80 80" xmlns="http://www.w3.org/2000/svg">
  <style>
		.fr-artwork-decorative {
			fill: #ECECFF;
		}
		.fr-artwork-minor {
			fill: #E1000F;
		}
		.fr-artwork-major {
			fill: #000091;
		}
	</style>
  <symbol id="artwork-decorative">
    <path d="M10 8a1.001 1.001 0 0 1 0-2 1.001 1.001 0 0 1 0 2Zm6 63a1.001 1.001 0 0 1 0-2 1.001 1.001 0 0 1 0 2Zm52-15a1.001 1.001 0 0 1 0-2 1.001 1.001 0 0 1 0 2Zm2-48a1.001 1.001 0 0 1 0-2 1.001 1.001 0 0 1 0 2Z"/>
  </symbol>
  <symbol id="artwork-minor">
    <path d="M40.5 34a3.5 3.5 0 1 0 0 7 3.5 3.5 0 0 0 0-7ZM35 37.5a5.5 5.5 0 1 1 11 0 5.5 5.5 0 0 1-11 0Zm.5 19.5a1 1 0 0 1 1-1h1a1 1 0 1 1 0 2h-1a1 1 0 0 1-1-1Z M38.06 25.661A1 1 0 0 1 39 25h3a1 1 0 0 1 .94.661l.758 2.103 1.382.628 1.973-.986a1 1 0 0 1 1.154.187l2.2 2.2a1 1 0 0 1 .187 1.154l-1 2.003.561 1.436 2.14.658A1 1 0 0 1 53 36v3.1a1 1 0 0 1-.673.945l-2.173.752-.557 1.362.997 1.994a1 1 0 0 1-.203 1.17l-2.2 2.1a1 1 0 0 1-1.108.186l-2.006-.92-1.387.568-.75 2.082A1 1 0 0 1 42 50h-3a1 1 0 0 1-.94-.661l-.75-2.082-1.387-.567-2.006.92a1 1 0 0 1-1.108-.187l-2.2-2.1a1 1 0 0 1-.203-1.17l.997-1.994-.557-1.362-2.173-.752A1 1 0 0 1 28 39.1V36a1 1 0 0 1 .706-.956l2.139-.658.562-1.436-1.001-2.003a1 1 0 0 1 .187-1.154l2.2-2.2a1 1 0 0 1 1.154-.187l1.973.986 1.382-.628.757-2.103ZM39.702 27l-.662 1.839a1 1 0 0 1-.527.571l-2.2 1a1 1 0 0 1-.861-.016l-1.756-.877-1.18 1.18.877 1.756a1 1 0 0 1 .037.811l-.9 2.3a1 1 0 0 1-.637.592L30 36.739v1.649l1.927.667a1 1 0 0 1 .599.566l.9 2.2a1 1 0 0 1-.032.826l-.87 1.74 1.176 1.121 1.783-.817a1 1 0 0 1 .796-.017l2.2.9a1 1 0 0 1 .562.587L39.703 48h1.594l.662-1.839a1 1 0 0 1 .562-.587l2.2-.9a1 1 0 0 1 .796.017l1.783.817 1.175-1.121-.87-1.74a1 1 0 0 1-.03-.826l.9-2.2a1 1 0 0 1 .598-.566L51 38.388v-1.65l-1.894-.582a1 1 0 0 1-.637-.592l-.9-2.3a1 1 0 0 1 .037-.811l.877-1.756-1.18-1.18-1.756.877a1 1 0 0 1-.86.016l-2.2-1a1 1 0 0 1-.528-.571L41.297 27h-1.594Z"/>
  </symbol>
  <symbol id="artwork-major">
    <path d="M39.5 57a1 1 0 0 1 1-1h7a1 1 0 1 1 0 2h-7a1 1 0 0 1-1-1Zm5.76 7.535a1 1 0 0 1 .705 1.226C45.31 68.19 43.551 70.5 40.7 70.5c-2.841 0-5.09-2.178-5.676-4.78a1 1 0 0 1 1.952-.44c.414 1.842 1.965 3.22 3.724 3.22 1.549 0 2.79-1.247 3.335-3.26a1 1 0 0 1 1.226-.705ZM40.5 10a1 1 0 0 1 1 1v5a1 1 0 1 1-2 0v-5a1 1 0 0 1 1-1ZM13 38a1 1 0 0 1 1-1h5a1 1 0 1 1 0 2h-5a1 1 0 0 1-1-1Zm4.175-9.38a1 1 0 0 1 1.306-.545l1.7.7a1 1 0 0 1-.762 1.85l-1.7-.7a1 1 0 0 1-.544-1.306Zm13.378-13.814a1 1 0 0 1 1.341.447l1 2a1 1 0 1 1-1.788.894l-1-2a1 1 0 0 1 .447-1.341Zm-10.26 2.687a1 1 0 0 1 1.414 0l4 4a1 1 0 0 1-1.414 1.414l-4-4a1 1 0 0 1 0-1.414ZM61 38a1 1 0 0 1 1-1h5a1 1 0 1 1 0 2h-5a1 1 0 0 1-1-1Zm2.825-9.38a1 1 0 0 1-.544 1.305l-1.7.7a1 1 0 0 1-.762-1.85l1.7-.7a1 1 0 0 1 1.306.544ZM50.447 14.806a1 1 0 0 1 .447 1.341l-1 2a1 1 0 1 1-1.788-.894l1-2a1 1 0 0 1 1.341-.447Zm10.26 2.687a1 1 0 0 1 0 1.414l-4 4a1 1 0 0 1-1.414-1.414l4-4a1 1 0 0 1 1.414 0Zm-6.9 31.3a1 1 0 0 1 0 1.414l-.36.363c-.966.978-2.096 2.123-3.5 2.824a1 1 0 1 1-.894-1.788c1.088-.544 1.974-1.437 2.974-2.445l.366-.368a1 1 0 0 1 1.414 0ZM40.5 21C31.352 21 24 28.352 24 37.5c0 5.93 3.2 11.119 7.927 14.05a1 1 0 0 1-1.054 1.7C25.601 49.98 22 44.17 22 37.5 22 27.248 30.248 19 40.5 19S59 27.248 59 37.5c0 3.065-.74 5.929-2.12 8.476a1 1 0 0 1-1.76-.952C56.34 42.77 57 40.235 57 37.5 57 28.352 49.648 21 40.5 21Z"/>
  </symbol>
  <use class="fr-artwork-decorative" href="#artwork-decorative"/>
  <use class="fr-artwork-minor" href="#artwork-minor"/>
  <use class="fr-artwork-major" href="#artwork-major"/>
</svg>
