<svg width="80px" height="80px" viewBox="0 0 80 80" xmlns="http://www.w3.org/2000/svg">
 	<style>
		.fr-artwork-decorative {
			fill: #ECECFF;
		}
		.fr-artwork-minor {
			fill: #E1000F;
		}
		.fr-artwork-major {
			fill: #000091;
		}
	</style>
	<g class="fr-artwork-decorative" id="artwork-decorative">
    <path d="M68,13c-0.5514,0-1-0.4486-1-1s0.4486-1,1-1s1,0.4486,1,1S68.5514,13,68,13z M30,80c-0.5514,0-1-0.4486-1-1
	s0.4486-1,1-1s1,0.4486,1,1S30.5514,80,30,80z M15,10c-0.5514,0-1-0.4486-1-1c0-0.55145,0.4486-1,1-1s1,0.44855,1,1
	C16,9.5514,15.5514,10,15,10z"/>
  </g>
  <g class="fr-artwork-minor" id="artwork-minor">
    <path d="M54,35c-9.38879,0-17,7.61121-17,17c0,0.06372,0.00043,0.12732,0.0011,0.1908
	c-0.03802,3.31323,0.93329,6.65228,2.95441,9.55078c3.07251,4.40649,7.99957,6.97473,13.16968,7.23633
	c0.2251,0.01141,0.45142,0.01837,0.67871,0.021c2.23633,0.02551,4.50458-0.38141,6.67603-1.25812
	c0.0636-0.0257,0.1236-0.0575,0.1795-0.0946c2.44586-1.04236,4.5976-2.6416,6.2959-4.63837
	c0.12067-0.06061,0.23419-0.1499,0.33319-0.27142c2.46698-3.0246,3.7525-6.76038,3.71051-10.55206
	C70.99969,52.12292,71,52.06152,71,52C71,42.61121,63.38892,35,54,35z M54,37c1.68689,0,3.30872,0.2785,4.82208,0.79187
	l-0.40259,0.27936l-0.44421,0.32068c-0.76917,0.56891-1.29315,1.0376-1.62396,1.48029
	c-0.03925,0.05249-0.09344,0.15198-0.15369,0.2738l-0.12604,0.26581l-0.33899,0.76038
	c-0.22833,0.44702-0.43219,0.64874-0.60107,0.66943l-0.12042,0.00977l-0.15039,0.00275l-0.31219-0.00952L53.466,41.78467
	c-0.05341-0.00195-0.1048-0.00366-0.15479-0.00488l-0.29083-0.00269c-0.04779,0.00031-0.0957,0.0011-0.14459,0.0022
	c-1.59229,0.0368-2.75391,0.56952-3.2713,1.94263l-0.07098,0.20685c-0.37592,1.20941-0.29443,3.02112,0.30182,4.40485
	l0.01068,0.0224l-0.1347-0.13135c-0.64337-0.61389-1.19849-0.95355-1.94922-1.15649l-0.42676-0.10651l-1.21814-0.26068
	l-0.53461-0.12592l-0.41718-0.11157l-0.2135-0.06451l-0.16211-0.0553l-0.11102-0.0448
	c-0.04285-0.01959-0.06659-0.03491-0.07159-0.04517c-0.03058-0.06372-0.05359-0.14392-0.07056-0.25781l-0.021-0.19824
	l-0.01282-0.2616l-0.0058-0.33777l-0.00061-0.20001c0-0.18237-0.0011-0.34949-0.00391-0.5047l-0.01398-0.43311
	c-0.02692-0.53851-0.08972-0.9386-0.22504-1.41089c-0.06818-0.23828-0.15277-0.4693-0.25537-0.69397
	c-0.11438-0.25702-0.26221-0.50134-0.43872-0.72565C46.2597,38.61169,49.94171,37,54,37z M65.60553,61.50403
	c-1.23523,1.50647-2.75793,2.76819-4.48431,3.70105c-0.08911-0.75946-0.29858-1.4848-0.57312-2.14087
	c-0.2226-0.52954-0.63177-1.18109-1.22797-1.9599l-0.34375-0.4375l-0.38086-0.46283l-0.41803-0.4884l-0.45508-0.5141
	L57.2301,58.6615l-0.52948-0.56622l-0.56671-0.59241l-0.29718-0.30609c-0.03156-0.03229-0.06012-0.06268-0.086-0.09259
	l-0.06903-0.08948c-0.07092-0.10583-0.10822-0.22162-0.11469-0.40509l0.00189-0.17529l0.0166-0.21661l0.03088-0.26581
	l0.07233-0.50903l0.06976-0.46057l0.02924-0.13672c0.10046-0.39136,0.33356-0.62079,1.12317-0.83575l0.28448-0.07141l0.3291-0.07141
	l0.58521-0.11023l0.70544-0.11725l0.42426-0.06512l0.28473-0.03351c0.65692-0.05817,0.92596,0.08551,1.36609,0.68298l0.1864,0.26379
	l0.34131,0.49701c0.64056,0.91589,1.10046,1.27582,2.07678,1.72534l0.21741,0.0979c0.37073,0.16455,0.64813,0.29559,0.9646,0.46277
	l0.24689,0.1333c0.52319,0.29242,0.70111,0.4884,0.75922,1.23383l0.01593,0.28699l0.00806,0.33899l0.00262,0.39709l0.00012,0.42413
	C65.70953,60.58728,65.67358,61.06018,65.60553,61.50403z M67.64398,58.24109c-0.14996-1.28741-0.59857-1.94238-1.75031-2.586
	c-0.3949-0.21747-0.70758-0.37378-1.07935-0.54419l-0.29224-0.13159c-0.8255-0.36481-1.01978-0.50403-1.46179-1.13593
	l-0.22852-0.33087c-1.12549-1.67334-1.99518-2.20984-4.05865-1.89093c-3.65961,0.56744-4.72162,1.2702-5.00482,3.1394
	l-0.09711,0.66864c-0.01038,0.07635-0.02002,0.1507-0.02881,0.2229l-0.04352,0.40948
	c-0.10699,1.22437,0.08594,1.79236,0.80591,2.53119l0.52631,0.54437l0.49402,0.521l0.46118,0.49725l0.42853,0.47296l0.39526,0.44849
	l0.36212,0.4234l0.32849,0.39813l0.2948,0.37207l0.26093,0.34601c0.04059,0.05542,0.07977,0.1098,0.11755,0.16302l0.20941,0.30579
	c0.19232,0.29218,0.3327,0.54352,0.42041,0.75201l0.0921,0.2334c0.20618,0.55457,0.34802,1.17621,0.3678,1.79626L59.164,66.0874
	c-1.46411,0.53687-3.03522,0.85199-4.67261,0.90472C54.32819,66.99738,54.16443,67,54,67
	c-8.21997,0-14.89569-6.612-14.99878-14.8075c0.04095-3.17462,1.13831-6.32111,3.24628-8.90961l0.07849-0.09589l0.00482,0.01318
	c0.07379,0.25781,0.11639,0.4978,0.13977,0.81079l0.01752,0.34082l0.00751,0.40961l0.00391,0.68878
	c0.01331,0.797,0.07629,1.19342,0.30542,1.67041c0.35785,0.7428,0.88464,1.05389,2.15869,1.37018l0.4278,0.10059l0.48151,0.104
	l0.85675,0.18005l0.27454,0.06317l0.23572,0.06018c0.53418,0.14441,0.98816,0.51483,1.76056,1.37714l0.5307,0.59259
	c0.30182,0.32562,0.50574,0.5188,0.73389,0.6488c0.33374,0.19019,0.7467,0.17236,1.06281-0.04553
	c0.38123-0.26288,0.7865-0.85107,0.97784-1.52161c0.1889-0.6626,0.14996-1.32275-0.19904-1.81708l-0.10291-0.13049
	c-0.68896-0.79468-0.8689-2.77393-0.5282-3.67419c0.16583-0.44012,0.5791-0.62958,1.44653-0.64972l0.23187-0.00128l0.3988,0.01331
	l0.81152,0.04749l0.31647,0.01361c0.04724,0.0014,0.09192,0.00238,0.13464,0.00287l0.23706-0.0025l0.21411-0.01379
	c0.0351-0.0033,0.07031-0.00708,0.10602-0.01135c0.92297-0.11292,1.55267-0.68256,2.03906-1.55396l0.14252-0.27295l0.0899-0.19244
	l0.2193-0.5061l0.08972-0.22638c0.00189-0.00598,0.00208-0.00818,0.00037-0.00598c0.13971-0.18689,0.39191-0.42444,0.74921-0.71094
	l0.33179-0.25751l0.3822-0.28137c0.06793-0.04883,0.13782-0.09857,0.20972-0.14948l0.45587-0.31653l0.32074-0.21741l0.20349,0.09448
	c3.95117,1.89014,6.86377,5.38605,7.94141,9.57013l0.08978,0.3689c0.22943,0.99933,0.34863,2.01013,0.36121,3.0166
	C68.9726,54.34479,68.49042,56.3938,67.64398,58.24109z"/>
  </g>
  <g class="fr-artwork-major" id="artwork-major">
    <path d="M67,18v16c0,0.55231-0.44769,1-1,1c-0.51282,0-0.93549-0.38599-0.99329-0.88342L65,34v-7h-9
	c-0.55231,0-1-0.44769-1-1c0-0.51282,0.38599-0.93549,0.88342-0.99329L56,25h9v-6H13v6h37c0.55231,0,1,0.44769,1,1
	c0,0.51282-0.38599,0.93549-0.88342,0.99329L50,27H13v36h23c0.51282,0,0.93549,0.38599,0.99329,0.88342L37,64
	c0,0.51282-0.38599,0.93549-0.88342,0.99329L36,65H12c-0.51282,0-0.93549-0.38599-0.99329-0.88342L11,64V18
	c0-0.51282,0.38599-0.93549,0.88342-0.99329L12,17h54c0.51282,0,0.93549,0.38599,0.99329,0.88342L67,18z M15,22
	c0,0.55139,0.44861,1,1,1s1-0.44861,1-1s-0.44861-1-1-1S15,21.44861,15,22z M19,22c0,0.55139,0.44861,1,1,1s1-0.44861,1-1
	s-0.44861-1-1-1S19,21.44861,19,22z M23,22c0,0.55139,0.44861,1,1,1s1-0.44861,1-1s-0.44861-1-1-1S23,21.44861,23,22z
	 M62.11658,22.99329C62.61401,22.93549,63,22.51282,63,22c0-0.55231-0.44769-1-1-1H32l-0.11658,0.00671
	C31.38599,21.06451,31,21.48718,31,22c0,0.55231,0.44769,1,1,1h30L62.11658,22.99329z M38,33H20l-0.11658,0.00671
	C19.38599,33.06451,19,33.48718,19,34c0,0.55231,0.44769,1,1,1h18l0.11658-0.00671C38.61401,34.93549,39,34.51282,39,34
	C39,33.44769,38.55231,33,38,33z M34.11658,40.99329C34.61401,40.93549,35,40.51282,35,40c0-0.55231-0.44769-1-1-1H20
	l-0.11658,0.00671C19.38599,39.06451,19,39.48718,19,40c0,0.55231,0.44769,1,1,1h14L34.11658,40.99329z M20,45l-0.11658,0.00671
	C19.38599,45.06451,19,45.48718,19,46c0,0.55231,0.44769,1,1,1h12l0.11658-0.00671C32.61401,46.93549,33,46.51282,33,46
	c0-0.55231-0.44769-1-1-1H20z"/>
  </g>
</svg>
