<svg width="80px" height="80px" viewBox="0 0 80 80" xmlns="http://www.w3.org/2000/svg">
 	<style>
		.fr-artwork-decorative {
			fill: #ECECFF;
		}
		.fr-artwork-minor {
			fill: #E1000F;
		}
		.fr-artwork-major {
			fill: #000091;
		}
	</style>
	<symbol id="artwork-decorative">
    <path d="M58,5c-0.5514,0-1-0.4486-1-1c0-0.55145,0.4486-1,1-1s1,0.44855,1,1C59,4.5514,58.5514,5,58,5z M22,77
	c-0.5514,0-1-0.4486-1-1s0.4486-1,1-1s1,0.4486,1,1S22.5514,77,22,77z M12,13c-0.5514,0-1-0.4486-1-1s0.4486-1,1-1s1,0.4486,1,1
	S12.5514,13,12,13z"/>
  </symbol>
  <symbol id="artwork-minor">
    <path d="M41,13c0.5523,0,1,0.4477,1,1s-0.4477,1-1,1c-6.6274,0-12,5.3726-12,12s5.3726,12,12,12s12-5.3726,12-12
	c0-2.0233-0.5005-3.9719-1.4429-5.7103c-0.2632-0.4855-0.083-1.0925,0.4025-1.3557s1.0925-0.083,1.3557,0.4025
	C54.4155,22.3657,55,24.6418,55,27c0,7.732-6.268,14-14,14s-14-6.268-14-14S33.268,13,41,13z M33.9167,27.6908l0.0853-0.0672
	l10.5992-7.527c0.7248-0.5147,1.7105,0.1013,1.5657,0.9783l-2.1188,12.8262c-0.1444,0.8742-1.2704,1.1426-1.7936,0.4276
	l-2.9442-4.023l-4.9064-0.8826C33.5682,29.2727,33.3016,28.229,33.9167,27.6908z M42.4626,31.2261l1.3398-8.1093l-6.7011,4.7591
	l2.2897,0.4122l0.7011-1.1219c0.2927-0.4684,0.9096-0.6108,1.378-0.3182c0.4349,0.2718,0.5888,0.8232,0.3742,1.2755l-0.0561,0.1025
	l-0.7008,1.1215L42.4626,31.2261z"/>
  </symbol>
  <symbol id="artwork-major">
    <path d="M68,67c0,0.51282-0.38599,0.93549-0.88342,0.99329L67,68h-8c-0.55231,0-1-0.44769-1-1
	c0-0.51282,0.38599-0.93549,0.88342-0.99329L59,66h8C67.55231,66,68,66.44769,68,67z M72,27v36c0,0.55231-0.44769,1-1,1
	c-0.51282,0-0.93549-0.38599-0.99329-0.88342L70,63V29.19006L49.98431,46.53699l17.68011,15.71564l0.08856,0.08917
	c0.32751,0.37372,0.33313,0.94153-0.00562,1.32257c-0.36688,0.41272-0.99896,0.44995-1.41174,0.08301l-17.87555-15.8894
	l-6.80505,5.89771c-0.33356,0.289-0.81183,0.32245-1.17902,0.09613l-0.10663-0.07568l-7.27808-5.91345L11.72253,66H47
	c0.51282,0,0.93549,0.38599,0.99329,0.88342L48,67c0,0.51282-0.38599,0.93549-0.88342,0.99329L47,68H9
	c-0.00854,0-0.01575-0.00433-0.02429-0.00458c-0.05426-0.00134-0.10498-0.01959-0.15845-0.02966
	c-0.07153-0.01367-0.14331-0.02295-0.20856-0.05096c-0.04242-0.01807-0.07794-0.04846-0.11792-0.07263
	c-0.06921-0.04199-0.13562-0.08441-0.19244-0.14142c-0.01154-0.01154-0.02716-0.01593-0.03827-0.02814
	c-0.02783-0.03058-0.03937-0.06848-0.06268-0.10138c-0.03741-0.05243-0.07355-0.10315-0.1004-0.16241
	c-0.02618-0.05792-0.04034-0.1167-0.05487-0.17755c-0.00958-0.03931-0.03064-0.07367-0.0354-0.11469l-0.0058-0.10071
	c0-0.00238-0.00037-0.00464-0.00043-0.00708L8,67V27c0-0.05237,0.02008-0.09827,0.02783-0.1485
	c0.00861-0.05719,0.01288-0.11285,0.03156-0.1684c0.02698-0.0799,0.06946-0.14911,0.11462-0.21857
	c0.01978-0.0307,0.02637-0.06616,0.04993-0.09515c0.00519-0.00641,0.01288-0.00922,0.01819-0.01544
	c0.04504-0.05292,0.10223-0.09119,0.15729-0.13367c0.04114-0.03162,0.07715-0.07056,0.12195-0.09503
	c0.04639-0.02545,0.09979-0.03516,0.15027-0.0531c0.06317-0.02222,0.1239-0.04944,0.18988-0.05865
	c0.00775-0.0011,0.01404-0.00586,0.02185-0.00677L9,26h14c0.55231,0,1,0.44769,1,1c0,0.51282-0.38599,0.93549-0.88342,0.99329L23,28
	H11.81665L40.979,51.69397L68.31921,28H59c-0.51282,0-0.93549-0.38599-0.99329-0.88342L58,27
	c0-0.51282,0.38599-0.93549,0.88342-0.99329L59,26h12c0.01282,0,0.02362,0.00635,0.03632,0.00684
	c0.05701,0.00208,0.11005,0.01935,0.16595,0.03107c0.06866,0.01453,0.13678,0.02594,0.19946,0.05377
	c0.04578,0.02014,0.08459,0.05121,0.12738,0.07843c0.06525,0.04169,0.12683,0.08417,0.18054,0.13947
	c0.01392,0.01428,0.03278,0.02026,0.04602,0.03552c0.02484,0.02869,0.0343,0.06396,0.05536,0.09454
	c0.03638,0.05237,0.06958,0.10394,0.09552,0.16296c0.02539,0.05786,0.04065,0.11578,0.05444,0.17639
	c0.00836,0.03595,0.02795,0.06708,0.03229,0.10443L72,27z M31.51312,46.58038L10,29.10095v35.73932L31.51312,46.58038z M71,66
	c-0.55231,0-1,0.44769-1,1s0.44769,1,1,1s1-0.44769,1-1S71.55231,66,71,66z"/>
  </symbol>
  <use class="fr-artwork-decorative" href="#artwork-decorative"/>
  <use class="fr-artwork-minor" href="#artwork-minor"/>
  <use class="fr-artwork-major" href="#artwork-major"/>
</svg>
