<svg width="80px" height="80px" viewBox="0 0 80 80" xmlns="http://www.w3.org/2000/svg">
 	<style>
		.fr-artwork-decorative {
			fill: #ECECFF;
		}
		.fr-artwork-minor {
			fill: #E1000F;
		}
		.fr-artwork-major {
			fill: #000091;
		}
	</style>
	<g class="fr-artwork-decorative" id="artwork-decorative">
    <path d="M73,18c-0.5514,0-1-0.4486-1-1s0.4486-1,1-1s1,0.4486,1,1S73.5514,18,73,18z M7,18c-0.5514,0-1-0.4486-1-1
	s0.4486-1,1-1s1,0.4486,1,1S7.5514,18,7,18z M11,68c-0.5514,0-1-0.4486-1-1s0.4486-1,1-1s1,0.4486,1,1S11.5514,68,11,68z M19,6
	c-0.5514,0-1-0.4486-1-1c0-0.55145,0.4486-1,1-1s1,0.44855,1,1C20,5.5514,19.5514,6,19,6z M55,78c-0.5514,0-1-0.4486-1-1
	s0.4486-1,1-1s1,0.4486,1,1S55.5514,78,55,78z"/>
  </g>
  <g class="fr-artwork-minor" id="artwork-minor">
    <path d="M54.0367,40.7318c0.1481-0.5321,0.6995-0.8433,1.2315-0.6951c2.3396,0.6514,4.1332,2.4863,4.608,4.7615
	c0.1128,0.5407-0.234,1.0704-0.7746,1.1832c-0.5406,0.1129-1.0704-0.2339-1.1832-0.7746c-0.3186-1.5264-1.552-2.7883-3.1866-3.2435
	C54.1997,41.8152,53.8885,41.2638,54.0367,40.7318z M44,46c0-5.5152,4.485-10,10-10s10,4.4848,10,10
	c0,2.5661-0.9711,4.9093-2.5651,6.6814l5.8952,10.2109c0.8285,1.4349,0.3368,3.2697-1.098,4.0981
	c-1.38371,0.7988-3.1392,0.3702-4.0056-0.94801L62.134,65.8923l-5.8616-10.1526C55.5421,55.91,54.7814,56,54,56
	C48.4851,56,44,51.5149,44,46z M58.1984,55.0757l5.6676,9.8166c0.2762,0.47829,0.8878,0.6422,1.3661,0.366
	c0.4441-0.2564,0.6171-0.802,0.4185-1.2616l-0.0525-0.1044l-5.679-9.8363C59.3836,54.4505,58.8076,54.7929,58.1984,55.0757z M62,46
	c0-4.4106-3.5895-8-8-8s-8,3.5894-8,8c0,4.4103,3.5897,8,8,8S62,50.4103,62,46z"/>
  </g>
  <g class="fr-artwork-major" id="artwork-major">
    <path d="M69,18v38c0,0.55231-0.44769,1-1,1c-0.51282,0-0.93549-0.38599-0.99329-0.88342L67,56V27h-9
	c-0.55231,0-1-0.44769-1-1c0-0.51282,0.38599-0.93549,0.88342-0.99329L58,25h9v-6H15v6h37c0.55231,0,1,0.44769,1,1
	c0,0.51282-0.38599,0.93549-0.88342,0.99329L52,27H15v36h41c0.51282,0,0.93549,0.38599,0.99329,0.88342L57,64
	c0,0.51282-0.38599,0.93549-0.88342,0.99329L56,65H14c-0.51282,0-0.93549-0.38599-0.99329-0.88342L13,64V18
	c0-0.51282,0.38599-0.93549,0.88342-0.99329L14,17h54c0.51282,0,0.93549,0.38599,0.99329,0.88342L69,18z M17,22
	c0,0.55139,0.44861,1,1,1s1-0.44861,1-1s-0.44861-1-1-1S17,21.44861,17,22z M21,22c0,0.55139,0.44861,1,1,1s1-0.44861,1-1
	s-0.44861-1-1-1S21,21.44861,21,22z M25,22c0,0.55139,0.44861,1,1,1s1-0.44861,1-1s-0.44861-1-1-1S25,21.44861,25,22z
	 M64.11658,22.99329C64.61401,22.93549,65,22.51282,65,22c0-0.55231-0.44769-1-1-1H34l-0.11658,0.00671
	C33.38599,21.06451,33,21.48718,33,22c0,0.55231,0.44769,1,1,1h30L64.11658,22.99329z M40.11658,34.99329
	C40.61401,34.93549,41,34.51282,41,34c0-0.55231-0.44769-1-1-1H22l-0.11658,0.00671C21.38599,33.06451,21,33.48718,21,34
	c0,0.55231,0.44769,1,1,1h18L40.11658,34.99329z M36.11658,40.99329C36.61401,40.93549,37,40.51282,37,40c0-0.55231-0.44769-1-1-1
	H22l-0.11658,0.00671C21.38599,39.06451,21,39.48718,21,40c0,0.55231,0.44769,1,1,1h14L36.11658,40.99329z M22,45l-0.11658,0.00671
	C21.38599,45.06451,21,45.48718,21,46c0,0.55231,0.44769,1,1,1h12l0.11658-0.00671C34.61401,46.93549,35,46.51282,35,46
	c0-0.55231-0.44769-1-1-1H22z"/>
  </g>
</svg>
