<svg width="80px" height="80px" viewBox="0 0 80 80" xmlns="http://www.w3.org/2000/svg">
  <style>
		.fr-artwork-decorative {
			fill: #ECECFF;
		}
		.fr-artwork-minor {
			fill: #E1000F;
		}
		.fr-artwork-major {
			fill: #000091;
		}
	</style>
  <symbol id="artwork-decorative">
    <path d="M6 34c.55 0 1-.45 1-1s-.45-1-1-1-1 .45-1 1 .45 1 1 1ZM46 6c.55 0 1-.45 1-1s-.45-1-1-1-1 .45-1 1 .45 1 1 1Zm20 56c.55 0 1-.45 1-1s-.45-1-1-1-1 .45-1 1 .45 1 1 1Zm8-32c.55 0 1-.45 1-1s-.45-1-1-1-1 .45-1 1 .45 1 1 1ZM36 73c.55 0 1-.45 1-1s-.45-1-1-1-1 .45-1 1 .45 1 1 1Z"/>
  </symbol>
  <symbol id="artwork-minor">
    <path fill-rule="evenodd" d="M40 26.2903c-5.8872 0-10.657 4.7698-10.657 10.657 0 .3877.0243.7891.0657 1.1785.0014.0132.0025.0263.0034.0393.6025 5.3068 5.113 9.4392 10.5879 9.4392 5.8872 0 10.657-4.7698 10.657-10.657S45.8872 26.2903 40 26.2903ZM27.4161 38.3016c.001.0161.0024.0323.0042.0485.6974 6.325 6.0615 11.2542 12.5797 11.2542 6.9917 0 12.657-5.6652 12.657-12.657 0-6.9917-5.6653-12.657-12.657-12.657-6.9918 0-12.657 5.6653-12.657 12.657 0 .4561.0276.9161.0731 1.3543Z"/>
    <path d="M40.0001 49.6044c-9.0984 0-16.4811 7.3745-16.4811 16.4811 0 .5522-.4477 1-1 1s-1-.4478-1-1c0-10.2119 8.2788-18.4811 18.4811-18.4811 10.2025 0 18.481 8.2785 18.481 18.4811 0 .5522-.4477 1-1 1-.5522 0-1-.4478-1-1 0-9.098-7.3831-16.4811-16.481-16.4811Z M57.3941 21.6824c1.1046 0 2-.8954 2-2s-.8954-2-2-2-2 .8954-2 2 .8954 2 2 2Z"/>
  </symbol>
  <symbol id="artwork-major">
    <path d="M64.0446 34.2884c.5523.0045.9963.4558.9919 1.0081l-.0714 8.7941c-.0045.5522-.4558.9963-1.0081.9918-.5522-.0045-.9963-.4558-.9918-1.0081l.0713-8.794c.0045-.5523.4558-.9964 1.0081-.9919ZM14.5775 12.2941A1.0001 1.0001 0 0 1 15.2916 12l48.9113.2854a1.0004 1.0004 0 0 1 .9942 1.0076l-.1338 17.597c-.0042.5523-.4553.9966-1.0076.9924-.5522-.0042-.9965-.4553-.9923-1.0076l.1261-16.5953-46.8945-.2736.2761 30.0673c.0051.5523-.4385 1.0041-.9907 1.0092-.5523.0051-1.0041-.4385-1.0092-.9908l-.2854-31.0824a.9997.9997 0 0 1 .2917-.7151Z M14.8546 43.3848a1.0004 1.0004 0 0 1 .7165-.3024h8.7941c.5522 0 1 .4477 1 1s-.4478 1-1 1h-8.372l-6.6238 6.803h9.7336c.5523 0 1 .4477 1 1s-.4477 1-1 1H7a1 1 0 0 1-.7165-1.6976l8.5711-8.803Z M22.5 52.8854c0-.5523.4477-1 1-1h1.097c.5523 0 1 .4477 1 1 0 .5522-.4477 1-1 1H23.5c-.5523 0-1-.4478-1-1Zm31.6711-8.803c0-.5523.4477-1 1-1h8.794a.9997.9997 0 0 1 .6979.2838l9.0349 8.8029A1 1 0 0 1 73 53.8854H55.403c-.5523 0-1-.4477-1-1s.4477-1 1-1h15.1377l-6.9822-6.803h-8.3874c-.5523 0-1-.4477-1-1Zm-34.971-26.4c0-.5523.4477-1 1-1h26.4c.5523 0 1 .4477 1 1s-.4477 1-1 1h-26.4c-.5523 0-1-.4477-1-1Zm0 4.406c0-.5523.4477-1 1-1h8.8029c.5523 0 1 .4477 1 1s-.4477 1-1 1h-8.8029c-.5523 0-1-.4477-1-1Zm0 4.397c0-.5523.4477-1 1-1h4.397c.5523 0 1 .4477 1 1s-.4477 1-1 1h-4.397c-.5523 0-1-.4477-1-1Z M19.9949 52.8854a.8919.8919 0 0 1-.8919.8919.892.892 0 1 1 .8919-.8919Z"/>
  </symbol>
  <use class="fr-artwork-decorative" href="#artwork-decorative"/>
  <use class="fr-artwork-minor" href="#artwork-minor"/>
  <use class="fr-artwork-major" href="#artwork-major"/>
</svg>
