<svg width="80" height="80" viewBox="0 0 80 80" fill="none" xmlns="http://www.w3.org/2000/svg">
  <style>
    .fr-artwork-decorative {
      fill: #ECECFF;
    }
    .fr-artwork-minor {
      fill: #E1000F;
    }
    .fr-artwork-major {
      fill: #000091;
    }
  </style>
  <symbol id="artwork-decorative">
    <path d="M65 18a1.001 1.001 0 0 1 0-2 1.001 1.001 0 0 1 0 2ZM72 8a1.001 1.001 0 0 1 0-2 1.001 1.001 0 0 1 0 2ZM2 12a1.001 1.001 0 0 1 0-2 1.001 1.001 0 0 1 0 2ZM8 72a1.001 1.001 0 0 1 0-2 1.001 1.001 0 0 1 0 2ZM68 72a1.001 1.001 0 0 1 0-2 1.001 1.001 0 0 1 0 2Z"/>
  </symbol>
  <symbol id="artwork-minor">
    <path fill-rule="evenodd" clip-rule="evenodd" d="m41 29.965.001-.01a7.035 7.035 0 0 1 .125-.74 7.17 7.17 0 0 1 .648-1.784c.66-1.24 1.84-2.431 4.133-2.431 1.907 0 2.934.596 3.475 1.092a2.821 2.821 0 0 1 .618.81v5.855a.933.933 0 0 1-.062.109c-.09.138-.243.323-.471.527-.454.406-1.139.833-2.01 1.09a7.09 7.09 0 0 1-1.862.312l-.023.002c-.189.01-.485.027-.763.123-.364.125-.64.354-.85.665-.206.303-.315.666-.381.947-.07.302-.114.618-.142.892a11.456 11.456 0 0 0-.056 1.002V38.452s0 .002 1 .002h-1v10.539c0 .538-.456 1.007-1.037 1.007h-.306C41.455 50 41 49.53 41 48.993V29.965Zm4.38 8.489v10.539C45.38 50.663 44 52 42.343 52h-.306C40.378 52 39 50.663 39 48.993V29.922c0-.023 0-.046.002-.069l.998.069-.998-.069v-.004l.001-.007.002-.02a4.87 4.87 0 0 1 .032-.288c.025-.187.068-.446.137-.756a9.162 9.162 0 0 1 .835-2.287C40.926 24.77 42.7 23 45.907 23c2.371 0 3.89.76 4.827 1.618.458.42.756.847.943 1.178a3.856 3.856 0 0 1 .256.55l.015.046.006.017.002.007v.003l.001.002-.957.289h1v6.123c0 .439-.2.838-.384 1.12a4.74 4.74 0 0 1-.815.93c-.666.597-1.611 1.174-2.777 1.518-1.084.321-1.8.362-2.257.388-.02 0-.038.002-.056.003a6.991 6.991 0 0 0-.134.009 2.046 2.046 0 0 0-.052.187 5.188 5.188 0 0 0-.1.638 9.48 9.48 0 0 0-.045.77v.058ZM51 26.71h1a1 1 0 0 0-.042-.288L51 26.71Z M56.266 24.618C57.202 23.76 58.722 23 61.093 23c3.207 0 4.98 1.77 5.898 3.49.45.843.698 1.674.835 2.288a9.016 9.016 0 0 1 .17 1.044v.02l.001.007v.003l-.997.07.998-.07.002.07v19.07C68 50.663 66.622 52 64.963 52h-.306C63 52 61.62 50.663 61.62 48.993V38.396a8.674 8.674 0 0 0-.045-.77 5.188 5.188 0 0 0-.1-.638 2.046 2.046 0 0 0-.052-.187 6.991 6.991 0 0 0-.134-.009l-.056-.003c-.458-.026-1.172-.067-2.257-.388-1.166-.344-2.11-.921-2.777-1.519a4.74 4.74 0 0 1-.815-.928C55.2 33.67 55 33.272 55 32.833V26.71l1-.001c-.958-.288-.957-.29-.957-.29l.001-.004.002-.007.006-.017a1.864 1.864 0 0 1 .067-.18c.045-.108.11-.25.204-.416.187-.331.485-.757.943-1.178ZM56 26.71l-.958-.288a1 1 0 0 0-.042.288h1Zm1 .193v5.854c.01.021.029.058.062.109.09.138.243.323.471.527.454.406 1.139.833 2.01 1.09a7.09 7.09 0 0 0 1.862.312l.023.002c.189.01.485.027.763.123.364.125.64.354.85.665.206.303.315.666.381.947.07.302.114.618.142.892a11.456 11.456 0 0 1 .056 1.002V38.452s0 .002-1 .002h1v10.539c0 .538.456 1.007 1.037 1.007h.306c.582 0 1.037-.47 1.037-1.007V29.965l-.001-.01a7.035 7.035 0 0 0-.124-.74 7.17 7.17 0 0 0-.649-1.784c-.66-1.24-1.84-2.431-4.133-2.431-1.907 0-2.934.596-3.475 1.092a2.821 2.821 0 0 0-.618.81Z"/>
    <path d="M39 46a1 1 0 0 1 1-1h4a1 1 0 1 1 0 2h-4a1 1 0 0 1-1-1ZM47 27a1 1 0 0 1 1 1v3a1 1 0 1 1-2 0v-3a1 1 0 0 1 1-1Z M62 46a1 1 0 0 1 1-1h4a1 1 0 1 1 0 2h-4a1 1 0 0 1-1-1ZM60 27a1 1 0 0 1 1 1v3a1 1 0 1 1-2 0v-3a1 1 0 0 1 1-1ZM7 20a1 1 0 0 1 1 1v2a1 1 0 1 1-2 0v-2a1 1 0 0 1 1-1Z"/>
  </symbol>
  <symbol id="artwork-major">
    <path d="M35 10a1 1 0 1 1 0 2h-8a1 1 0 1 1 0-2h8Z M45 6a7 7 0 0 1 6.996 6.76L52 13v6a1 1 0 0 1-1.993.117L50 19v-6a5 5 0 0 0-4.783-4.995L45 8H17a5 5 0 0 0-4.995 4.783L12 13v54a5 5 0 0 0 4.783 4.995L17 72h28a5 5 0 0 0 4.995-4.783L50 67V55a1 1 0 0 1 1.993-.117L52 55v12a7 7 0 0 1-6.76 6.996L45 74H17a7 7 0 0 1-6.996-6.76L10 67V13a7 7 0 0 1 6.76-6.996L17 6h28Z M41 66a1 1 0 0 1 .117 1.993L41 68H21a1 1 0 0 1-.117-1.993L21 66h20ZM7 26a1 1 0 0 1 1 1v11a1 1 0 1 1-2 0V27a1 1 0 0 1 1-1Z"/>
  </symbol>
  <use class="fr-artwork-decorative" href="#artwork-decorative"/>
  <use class="fr-artwork-minor" href="#artwork-minor"/>
  <use class="fr-artwork-major" href="#artwork-major"/>
</svg>
