<svg width="80px" height="80px" viewBox="0 0 80 80" xmlns="http://www.w3.org/2000/svg">
  <style>
    .fr-artwork-decorative {
      fill: #ECECFF;
    }
    .fr-artwork-minor {
      fill: #E1000F;
    }
    .fr-artwork-major {
      fill: #000091;
    }
  </style>
  <symbol id="artwork-decorative">
    <path d="M8 7a1 1 0 1 0 0-2 1 1 0 0 0 0 2ZM45 14a1 1 0 1 0 0-2 1 1 0 0 0 0 2ZM72 8a1 1 0 1 0 0-2 1 1 0 0 0 0 2ZM74 71a1 1 0 1 0 0-2 1 1 0 0 0 0 2ZM10 72a1 1 0 1 0 0-2 1 1 0 0 0 0 2Z"/>
  </symbol>
  <symbol id="artwork-minor">
    <path d="M59 30a1 1 0 0 1 1-1h4a1 1 0 1 1 0 2h-4a1 1 0 0 1-1-1ZM59 38a1 1 0 0 1 1-1h4a1 1 0 1 1 0 2h-4a1 1 0 0 1-1-1ZM61 34a1 1 0 0 1 1-1h2a1 1 0 1 1 0 2h-2a1 1 0 0 1-1-1ZM62 42a1 1 0 0 1 1-1h1a1 1 0 1 1 0 2h-1a1 1 0 0 1-1-1ZM53 46c-2.235 0-4 1.84-4 4 0 2.248 1.752 4 4 4 2.16 0 4-1.765 4-4 0-2.248-1.752-4-4-4Zm-6 4c0-3.24 2.635-6 6-6 3.352 0 6 2.648 6 6 0 3.365-2.76 6-6 6-3.352 0-6-2.648-6-6Z M53 49.5a.5.5 0 1 0 0 1 .5.5 0 0 0 0-1Zm-2.5.5a2.5 2.5 0 1 1 5 0 2.5 2.5 0 0 1-5 0Z"/>
  </symbol>
  <symbol id="artwork-major">
    <path d="M8 20.4c0-3.107 2.376-5.4 4.944-5.4H16v2h-3.056C11.568 17 10 18.308 10 20.4v10.8c0 .322.065 1.413.4 2.728.337 1.317.925 2.777 1.917 3.915a1 1 0 1 1-1.507 1.314c-1.275-1.462-1.97-3.252-2.348-4.735C8.083 32.937 8 31.678 8 31.2V20.4Zm9-4.4a1 1 0 0 1-1 1v-2a1 1 0 0 1 1 1Z"/>
    <path d="M15 14a1 1 0 0 1 1-1h2.359C19.984 13 21 14.46 21 15.94c0 .756-.247 1.49-.685 2.053-.44.565-1.12 1.007-1.956 1.007H16a1 1 0 0 1-1-1v-4Zm2 1v2h1.359c.087 0 .228-.043.378-.235.151-.195.263-.491.263-.826 0-.701-.42-.939-.641-.939H17ZM29 16a1 1 0 0 1 1-1v2a1 1 0 0 1-1-1Zm1 1h3.056C34.432 17 36 18.308 36 20.4v10.8c0 .322-.065 1.413-.4 2.728-.337 1.317-.925 2.777-1.917 3.915a1 1 0 1 0 1.507 1.314c1.275-1.462 1.97-3.252 2.348-4.735.379-1.485.462-2.744.462-3.222V20.4c0-3.107-2.376-5.4-4.944-5.4H30v2Z"/>
    <path d="M25 15.94c0-1.48 1.016-2.94 2.641-2.94H30a1 1 0 0 1 1 1v4a1 1 0 0 1-1 1h-2.359c-.835 0-1.516-.442-1.956-1.007A3.363 3.363 0 0 1 25 15.94Zm2.641-.94c-.22 0-.641.238-.641.94 0 .334.112.63.264.825.15.192.29.235.377.235H29v-2h-1.359Z"/>
    <path fill-rule="evenodd" clip-rule="evenodd" d="M32.404 38.993s.008 0 .03.007a.122.122 0 0 1-.03-.007Zm.176.067c.212.104.494.31.772.59.283.285.492.576.594.792-.883.833-4.461 3.965-9.097 4.63a1 1 0 0 0-.858.99v3.804c-.23.078-.587.134-.993.134s-.764-.056-.993-.134v-3.803a1 1 0 0 0-.84-.988c-4.628-.748-8.202-3.794-9.103-4.626.11-.218.325-.508.614-.793.297-.294.598-.51.813-.61a8.273 8.273 0 0 1 .234.184c.12.097.274.218.435.344a23.49 23.49 0 0 0 2.112 1.475c1.733 1.068 4.165 2.204 6.828 2.204 2.656 0 5.086-1.106 6.804-2.167a18.241 18.241 0 0 0 2.078-1.491 11.48 11.48 0 0 0 .6-.535Zm-20.587 1.568s0-.01.007-.032a.128.128 0 0 1-.007.032Zm22.013-.02s-.004-.011-.006-.03c.007.022.006.03.006.03Zm1.778-.955c.187.42.46 1.32-.217 2.002l-.002.002c-.226.228-4.108 4.133-9.574 5.246v3.27c0 .474-.224.842-.483 1.087-.243.23-.535.376-.793.471-.52.192-1.145.269-1.717.269-.572 0-1.197-.077-1.716-.269a2.305 2.305 0 0 1-.794-.47 1.49 1.49 0 0 1-.483-1.088V46.89c-5.472-1.191-9.36-5.017-9.576-5.235-.69-.694-.387-1.609-.196-2.018.237-.506.63-1.002 1.037-1.404.406-.401.903-.785 1.4-1.012.246-.113.557-.217.895-.22a1.46 1.46 0 0 1 .95.321l.072.049c.067.047.143.106.215.162l.188.15.397.313c.479.372 1.139.862 1.931 1.35 1.605.988 3.658 1.907 5.78 1.907 2.127 0 4.183-.9 5.753-1.869.777-.479 1.41-.96 1.847-1.325a9.524 9.524 0 0 0 .561-.505.992.992 0 0 1 .1-.116c.681-.686 1.586-.408 2.004-.22.508.23 1.005.617 1.407 1.022.403.405.787.904 1.014 1.413Z" />
    <path d="M50.65 36.55c-.693-.52-1.596-.55-2.65-.55-1.337 0-2.334.313-3.09.791-.762.48-1.339 1.165-1.774 1.997-.887 1.692-1.136 3.9-1.136 5.831v10.799c0 2.44-.172 5.785-1.492 8.543-.67 1.399-1.646 2.674-3.063 3.594C36.025 68.477 34.231 69 32 69c-2.26 0-4.068-.607-5.488-1.637-1.41-1.022-2.373-2.416-3.032-3.896C22.176 60.535 22 57.107 22 55v-4a1 1 0 1 1 2 0v4c0 2.053.183 5.126 1.308 7.654.556 1.25 1.325 2.326 2.379 3.09C28.73 66.502 30.118 67 32 67c1.91 0 3.311-.443 4.356-1.122 1.047-.68 1.803-1.64 2.348-2.78 1.11-2.32 1.296-5.266 1.296-7.68V44.619c0-2.032.25-4.633 1.364-6.76.565-1.078 1.363-2.055 2.477-2.759C44.959 34.394 46.337 34 48 34h.083c.954 0 2.497-.002 3.767.95C53.217 35.975 54 37.865 54 41a1 1 0 1 1-2 0c0-2.865-.717-3.975-1.35-4.45ZM61.5 9a1 1 0 0 1 1 1v12a1 1 0 1 1-2 0V10a1 1 0 0 1 1-1ZM60 62a1 1 0 0 1 1 1v7a1 1 0 1 1-2 0v-7a1 1 0 0 1 1-1ZM63 62a1 1 0 0 1 1 1v7a1 1 0 1 1-2 0v-7a1 1 0 0 1 1-1Z"/>
    <path d="M55 70a1 1 0 0 1 1-1v2a1 1 0 0 1-1-1Zm1 1h11a1 1 0 1 0 0-2H56v2ZM53.775 60c-.279 0-.775.378-.775 1s.496 1 .775 1h15.45c.279 0 .775-.378.775-1s-.496-1-.775-1h-15.45ZM51 61c0-1.495 1.174-3 2.775-3h15.45C70.826 58 72 59.505 72 61s-1.174 3-2.775 3h-15.45C52.174 64 51 62.495 51 61Z"/>
    <path d="M58.973 27C57.871 27 57 27.922 57 29v5.1a1 1 0 1 1-2 0V29c0-2.122 1.706-4 3.973-4h5.054A3.995 3.995 0 0 1 68 29v29a1 1 0 1 1-2 0V29c0-1.135-.927-2-1.973-2h-5.054Z"/>
    <path d="M60.5 24.018V26a1 1 0 1 1-2 0v-2.036c0-1.2 1.052-1.964 2.09-1.964h1.82c1.038 0 2.09.764 2.09 1.964V26a1 1 0 1 1-2 0v-1.982a.208.208 0 0 0-.09-.018h-1.82a.208.208 0 0 0-.09.018Z"/>
  </symbol>
  <use class="fr-artwork-decorative" href="#artwork-decorative"/>
  <use class="fr-artwork-minor" href="#artwork-minor"/>
  <use class="fr-artwork-major" href="#artwork-major"/>
</svg>

