<svg width="80px" height="80px" viewBox="0 0 80 80" xmlns="http://www.w3.org/2000/svg">
 	<style>
		.fr-artwork-decorative {
			fill: #ECECFF;
		}
		.fr-artwork-minor {
			fill: #E1000F;
		}
		.fr-artwork-major {
			fill: #000091;
		}
	</style>
	<symbol id="artwork-decorative">
    <path d="M67,11c-0.5514,0-1-0.4486-1-1c0-0.55145,0.4486-1,1-1s1,0.44855,1,1C68,10.5514,67.5514,11,67,11z M40,74
	c-0.5514,0-1-0.4486-1-1s0.4486-1,1-1s1,0.4486,1,1S40.5514,74,40,74z M14,8c-0.5514,0-1-0.4486-1-1c0-0.55145,0.4486-1,1-1
	s1,0.44855,1,1C15,7.5514,14.5514,8,14,8z"/>
  </symbol>
  <symbol id="artwork-minor">
    <path d="M54.99542,23.0415c0.0152,0.55212-0.42004,1.01202-0.97211,1.02722
	c-0.55212,0.0152-1.0119-0.4201-1.0271-0.97223c-0.05371-1.95032-0.66382-3.6449-1.76483-4.80933
	c-2.86981-3.03467-7.60291-3.06256-10.49957-0.00549c-0.00812,0.00873-0.0163,0.01721-0.02472,0.02563
	c-0.08221,0.08221-0.17529,0.14728-0.2749,0.19489c-0.27332,0.13098-0.59259,0.13019-0.86438,0
	c-0.09961-0.04761-0.19269-0.11267-0.2749-0.19489c-0.00848-0.00848-0.01672-0.01703-0.02478-0.0257
	c-2.89673-3.05701-7.6297-3.02911-10.49951,0.00555c-2.72394,2.88062-2.2016,8.94305,0.91986,12.24402
	c1.61755,1.71039,4.08124,3.5849,7.3858,5.61243l0.92224,0.5567c0.6391,0.37988,1.30701,0.76495,2.00348,1.15515
	c0.69647-0.3902,1.36438-0.77527,2.0036-1.15515l0.92212-0.5567c3.30457-2.02753,5.76831-3.90204,7.3858-5.61243
	c0.37946-0.40131,1.01239-0.41901,1.4137-0.03949c0.40131,0.37939,0.41888,1.01233,0.03949,1.41357
	c-1.74432,1.84454-4.32703,3.81384-7.75348,5.91882l-0.95544,0.57751c-0.48816,0.29041-0.99207,0.58337-1.51166,0.87891
	l-1.03894,0.5827c-0.03162,0.01837-0.06409,0.0351-0.09741,0.04987c-0.13177,0.05908-0.27069,0.08722-0.40796,0.0871
	c-0.13721,0.00012-0.276-0.02808-0.40759-0.0871c-0.03333-0.01477-0.06592-0.03149-0.09753-0.04999l-1.03882-0.58258
	c-0.51959-0.29553-1.0235-0.5885-1.51166-0.87891l-0.95538-0.57751c-3.42651-2.10498-6.00922-4.07428-7.75354-5.91882
	c-3.80426-4.02295-4.42957-11.2807-0.9198-14.99219C30.74152,13.2901,36.28088,13.0318,40,16.2207
	c3.71918-3.1889,9.25848-2.9306,12.68451,0.69238C54.14923,18.46191,54.92902,20.62799,54.99542,23.0415z M17,26h-6
	l-0.11658,0.00671C10.38599,26.06451,10,26.48718,10,27c0,0.55231,0.44769,1,1,1h6l0.11658-0.00671
	C17.61401,27.93549,18,27.51282,18,27C18,26.44769,17.55231,26,17,26z M21,26c-0.55231,0-1,0.44769-1,1s0.44769,1,1,1s1-0.44769,1-1
	S21.55231,26,21,26z"/>
  </symbol>
  <symbol id="artwork-major">
    <path d="M32,27c0-0.51282,0.38611-0.93549,0.88342-0.99329L33,26h3.58398l1.70892-1.70709
	c0.4165-0.4165,1.09137-0.38019,1.46417,0.05341l0.07501,0.099l2.94489,4.41766l3.29462-8.23438
	c0.28333-0.70819,1.20898-0.84039,1.68542-0.28271l0.07507,0.09943L51.53497,26H59c0.51288,0,0.93561,0.38599,0.99329,0.88342L60,27
	c0,0.51282-0.38599,0.93549-0.8833,0.99329L59,28h-8c-0.29248,0-0.56812-0.12793-0.75671-0.34631l-0.07526-0.099l-2.94604-4.4187
	l-3.29346,8.23541c-0.28333,0.70819-1.20905,0.84027-1.68542,0.28271l-0.07507-0.09943l-3.32404-4.98468l-1.13678,1.13708
	c-0.15631,0.15631-0.35901,0.25549-0.57568,0.28418L37,28h-4C32.44781,28,32,27.55231,32,27z M67.47809,44.1059
	c-1.25739-2.1778-4.19568-2.77368-6.5462-1.41669c-0.47827,0.27618-0.64209,0.88782-0.36597,1.36597
	c0.27606,0.47833,0.8877,0.64221,1.36597,0.36615c1.43842-0.83044,3.13849-0.48566,3.81415,0.68457
	c0.6507,1.12701,0.16339,2.69391-1.19885,3.57501l-0.16107,0.09857L48.37659,59.21271
	c-1.45557,0.76727-3.72137,0.9248-7.0036,0.59088l-0.70447-0.07727l-0.59259-0.07251l-0.9538-0.1283l-1.07733-0.15723
	l-2.68018-0.40277l-1.61224-0.22943l-1.11859-0.14606l-0.74841-0.0874l-0.67719-0.0683l-0.41492-0.03491l-0.38776-0.02625
	l-0.36224-0.0177l-0.33856-0.00885L29.388,58.34637c-0.05103,0.00073-0.1012,0.00183-0.15057,0.00323l-0.28705,0.01306
	l-0.26947,0.02185l-0.25372,0.03076c-0.08221,0.01172-0.16199,0.02502-0.23969,0.03973l-0.22742,0.04871l-0.21686,0.05768
	l-0.20813,0.06677l-0.20111,0.07593l-0.19586,0.08508l-0.19244,0.0943l-0.05627,0.03064l-3.98108-10.93805
	c0.21619,0.02002,0.44049-0.02985,0.63666-0.15735c5.21832-3.39191,12.44751-2.86176,16.20544-0.03894l0.19415,0.14252
	c2.71179,1.94238,5.138,1.67169,8.91821-0.495l0.54944-0.32239c0.0932-0.05585,0.18719-0.11279,0.28198-0.17084l0.57898-0.36066
	l0.29742-0.18982l0.01801-0.0119l0.01196-0.00641l1.88123-1.15808c0.91516-0.5719,2.12067-0.29352,2.69257,0.6217l0.19513,0.31708
	l0.1618,0.27539c0.43567,0.76788,0.43042,1.03021,0.06958,1.2973l-3.00079,1.99469l-2.75378,1.80914l-1.69873,1.09918
	l-1.38397,0.87817c-0.83563,0.52283-2.5968,0.43353-5.21533-0.33057l-0.61951-0.18829l-0.64966-0.21252
	c-0.22162-0.07477-0.44824-0.15381-0.67981-0.23669l-0.70972-0.26129c-0.12067-0.04559-0.24268-0.09222-0.36597-0.13983
	l-0.75409-0.29828c-0.12811-0.05182-0.25751-0.10461-0.38812-0.15839c-0.51062-0.21063-1.09521,0.03259-1.30573,0.54321
	c-0.21057,0.5105,0.03259,1.09509,0.54321,1.30566c0.40662,0.16772,0.80298,0.32642,1.18939,0.4762l0.75952,0.28741
	c0.24872,0.0918,0.49292,0.17963,0.73279,0.26331l0.7063,0.23889c3.69653,1.20941,6.26862,1.37592,7.81763,0.40662l1.14197-0.72314
	l2.27722-1.47339l2.06958-1.35956l2.80432-1.86072l0.43481-0.28992c1.84277-1.15149,1.6803-2.53961,0.31805-4.7196
	c-1.12097-1.79401-3.44537-2.3786-5.26807-1.3645l-0.1748,0.10309l-1.87543,1.15454l-0.0097,0.00598l-0.0144,0.00928
	c-0.01324,0.00775-0.02637,0.01575-0.03949,0.02411c-0.18951,0.12195-0.37451,0.23932-0.55518,0.35223l-0.52942,0.32507
	l-0.50519,0.2981l-0.4823,0.2713c-2.90582,1.58984-4.58063,1.64789-6.4649,0.23254l-0.22717-0.16602
	c-4.4541-3.1626-12.41992-3.67499-18.26935,0.12708c-0.06097,0.03961-0.11615,0.08484-0.16547,0.1344l-0.26892-0.73877
	c-0.54407-1.49493-2.13501-2.31244-3.62036-1.86945l-0.16461,0.0545l-5.45782,1.98645
	c-1.47601,0.53729-2.24139,2.15198-1.79761,3.62958l3.18188,9.69208c0.1723,0.52472,0.7373,0.81055,1.26202,0.63824
	c0.4873-0.15991,0.76849-0.65851,0.66833-1.14911L16.0625,58.4068l-3.13812-9.55859c-0.17767-0.48822,0.02533-1.0058,0.43854-1.2168
	l0.09906-0.04309l5.4577-1.98645c0.44464-0.16187,0.9519,0.0578,1.17529,0.51093l0.04633,0.10858l6.15643,16.91455
	c0.17767,0.4881-0.02533,1.00568-0.43854,1.21667l-0.09912,0.04309l-5.45764,1.98651
	c-0.51904,0.1889-0.78662,0.7627-0.59772,1.28168c0.17542,0.48193,0.68268,0.74701,1.1698,0.63123l0.11188-0.03351l5.45782-1.98651
	c1.47601-0.53717,2.24139-2.15198,1.78827-3.65662l-0.05536-0.16669l-0.59344-1.63019l0.02301-0.0141l0.13531-0.07568
	l0.14172-0.0686c0.02417-0.0108,0.04865-0.02142,0.07355-0.03162l0.15381-0.05768l0.1637-0.0506l0.17511-0.04321l0.18799-0.03601
	l0.20221-0.02869l0.21814-0.02142L29.2934,60.38c0.04083-0.00171,0.08228-0.00311,0.12463-0.00433l0.40356-0.00159l0.29572,0.00812
	l0.31891,0.0155L30.961,60.435l0.5849,0.0542l0.65009,0.07098l0.72009,0.08801l1.36932,0.18469l2.31042,0.33868l1.90405,0.2854
	l0.68719,0.09674l0.64081,0.08472l0.61005,0.07458l0.29828,0.034c3.73199,0.41528,6.3877,0.28687,8.41248-0.69031l0.23999-0.1214
	l16.04321-10.4519C67.78241,49.1264,68.73541,46.28369,67.47809,44.1059z M17,48c-0.55219,0-1,0.44769-1,1s0.44781,1,1,1
	c0.55231,0,1-0.44769,1-1S17.55231,48,17,48z M63,28c0.55231,0,1-0.44769,1-1s-0.44769-1-1-1c-0.55219,0-1,0.44769-1,1
	S62.44781,28,63,28z"/>
  </symbol>
  <use class="fr-artwork-decorative" href="#artwork-decorative"/>
  <use class="fr-artwork-minor" href="#artwork-minor"/>
  <use class="fr-artwork-major" href="#artwork-major"/>
</svg>
