<svg width="80px" height="80px" viewBox="0 0 80 80" xmlns="http://www.w3.org/2000/svg">
 	<style>
		.fr-artwork-decorative {
			fill: #ECECFF;
		}
		.fr-artwork-minor {
			fill: #E1000F;
		}
		.fr-artwork-major {
			fill: #000091;
		}
	</style>
	<symbol id="artwork-decorative">
    <path d="M13,12c-0.5514,0-1-0.4486-1-1s0.4486-1,1-1s1,0.4486,1,1S13.5514,12,13,12z M21,76c-0.5514,0-1-0.4486-1-1
	s0.4486-1,1-1s1,0.4486,1,1S21.5514,76,21,76z M77,56c-0.5514,0-1-0.4486-1-1s0.4486-1,1-1s1,0.4486,1,1S77.5514,56,77,56z M59,6
	c-0.5514,0-1-0.4486-1-1c0-0.55145,0.4486-1,1-1s1,0.44855,1,1C60,5.5514,59.5514,6,59,6z"/>
  </symbol>
  <symbol id="artwork-minor">
    <path d="M48,50H32c-0.55231,0-1,0.44769-1,1v4c0,0.55231,0.44769,1,1,1h1v11l0.00671,0.11658
	C33.06451,67.61401,33.48718,68,34,68l0.11658-0.00671C34.61401,67.93549,35,67.51282,35,67V56h10v11l0.00671,0.11658
	C45.06451,67.61401,45.48718,68,46,68c0.55231,0,1-0.44769,1-1V56h1c0.55231,0,1-0.44769,1-1v-4C49,50.44769,48.55231,50,48,50z
	 M47,54h-1H34h-1v-2h14V54z M40.99329,62.88342L41,63v4c0,0.55231-0.44769,1-1,1c-0.51282,0-0.93549-0.38599-0.99329-0.88342L39,67
	v-4c0-0.55231,0.44769-1,1-1C40.51282,62,40.93549,62.38599,40.99329,62.88342z"/>
  </symbol>
  <symbol id="artwork-major">
    <path d="M70,28H55V18h3c0.55231,0,1-0.44769,1-1v-4c0-0.55231-0.44769-1-1-1H22c-0.55231,0-1,0.44769-1,1v4
	c0,0.55231,0.44769,1,1,1h3v10H10c-0.55231,0-1,0.44769-1,1v4c0,0.55231,0.44769,1,1,1h1v19l0.00671,0.11658
	C11.06451,53.61401,11.48718,54,12,54l0.11658-0.00671C12.61401,53.93549,13,53.51282,13,53V34h12v32H13v-5l-0.00671-0.11658
	C12.93549,60.38599,12.51282,60,12,60c-0.55231,0-1,0.44769-1,1v6l0.00671,0.11658C11.06451,67.61401,11.48718,68,12,68h14h28h14
	l0.11658-0.00671C68.61401,67.93549,69,67.51282,69,67V55l-0.00671-0.11658C68.93549,54.38599,68.51282,54,68,54l-0.11658,0.00671
	C67.38599,54.06451,67,54.48718,67,55v11H55V34h12v11l0.00671,0.11658C67.06451,45.61401,67.48718,46,68,46c0.55231,0,1-0.44769,1-1
	V34h1c0.55231,0,1-0.44769,1-1v-4C71,28.44769,70.55231,28,70,28z M23,14h34v2h-3H26h-3V14z M12,32h-1v-2h14v2H12z M27,33v-4V18h26
	v11v4v33H27V33z M69,32h-1H55v-2h14V32z M23,37c0-0.55231-0.44769-1-1-1h-6c-0.55231,0-1,0.44769-1,1v8c0,0.55231,0.44769,1,1,1h6
	c0.55231,0,1-0.44769,1-1V37z M21,44h-4v-6h4V44z M23,55c0,0.51282-0.38599,0.93549-0.88342,0.99329L22,56h-5
	c-0.55231,0-1-0.44769-1-1c0-0.51282,0.38599-0.93549,0.88342-0.99329L17,54h5C22.55231,54,23,54.44769,23,55z M65,37
	c0-0.55231-0.44769-1-1-1h-6c-0.55231,0-1,0.44769-1,1v8c0,0.55231,0.44769,1,1,1h6c0.55231,0,1-0.44769,1-1V37z M63,44h-4v-6h4V44z
	 M65,55c0,0.51282-0.38599,0.93549-0.88342,0.99329L64,56h-5c-0.55231,0-1-0.44769-1-1c0-0.51282,0.38599-0.93549,0.88342-0.99329
	L59,54h5C64.55231,54,65,54.44769,65,55z M46,28h-3v-3c0-0.55231-0.44769-1-1-1h-4l-0.11658,0.00671
	C37.38599,24.06451,37,24.48718,37,25v3h-3c-0.55231,0-1,0.44769-1,1v4l0.00671,0.11658C33.06451,33.61401,33.48718,34,34,34h3v3
	c0,0.55231,0.44769,1,1,1h4l0.11658-0.00671C42.61401,37.93549,43,37.51282,43,37v-3h3c0.55231,0,1-0.44769,1-1v-4l-0.00671-0.11658
	C46.93549,28.38599,46.51282,28,46,28z M45,32h-3l-0.11658,0.00671C41.38599,32.06451,41,32.48718,41,33v3h-2v-3l-0.00671-0.11658
	C38.93549,32.38599,38.51282,32,38,32h-3v-2h3l0.11658-0.00671C38.61401,29.93549,39,29.51282,39,29v-3h2v3l0.00671,0.11658
	C41.06451,29.61401,41.48718,30,42,30h3V32z M47,45c0,0.51282-0.38599,0.93549-0.88342,0.99329L46,46H34c-0.55231,0-1-0.44769-1-1
	c0-0.51282,0.38599-0.93549,0.88342-0.99329L34,44h12C46.55231,44,47,44.44769,47,45z"/>
  </symbol>
  <use class="fr-artwork-decorative" href="#artwork-decorative"/>
  <use class="fr-artwork-minor" href="#artwork-minor"/>
  <use class="fr-artwork-major" href="#artwork-major"/>
</svg>
