<svg width="80px" height="80px" viewBox="0 0 80 80" xmlns="http://www.w3.org/2000/svg">
  <style>
    .fr-artwork-decorative {
      fill: #ECECFF;
    }
    .fr-artwork-minor {
      fill: #E1000F;
    }
    .fr-artwork-major {
      fill: #000091;
    }
  </style>
  <symbol id="artwork-decorative">
    <path d="M16 6a1 1 0 1 0 0-2 1 1 0 0 0 0 2ZM68 10a1 1 0 1 0 0-2 1 1 0 0 0 0 2ZM74 76a1 1 0 1 0 0-2 1 1 0 0 0 0 2ZM9 72a1 1 0 1 0 0-2 1 1 0 0 0 0 2Z"/>
  </symbol>
  <symbol id="artwork-minor">
    <path d="M17.5 18.5a1 1 0 0 1 1-1h24a1 1 0 1 1 0 2h-24a1 1 0 0 1-1-1ZM17.5 24.5a1 1 0 0 1 1-1h18a1 1 0 1 1 0 2h-18a1 1 0 0 1-1-1ZM17.5 36.5a1 1 0 0 1 1-1h14a1 1 0 1 1 0 2h-14a1 1 0 0 1-1-1ZM17.5 30.5a1 1 0 0 1 1-1h10a1 1 0 1 1 0 2h-10a1 1 0 0 1-1-1ZM31.5 30.5a1 1 0 0 1 1-1h1a1 1 0 1 1 0 2h-1a1 1 0 0 1-1-1ZM17.5 42.5a1 1 0 0 1 1-1h4a1 1 0 1 1 0 2h-4a1 1 0 0 1-1-1Z"/>
  </symbol>
  <symbol id="artwork-major">
    <path d="M16.5 65.5a1 1 0 0 1 1-1h20a1 1 0 1 1 0 2h-20a1 1 0 0 1-1-1ZM9.5 10.5a1 1 0 0 1 1-1h40a1 1 0 0 1 1 1v3a1 1 0 1 1-2 0v-2h-38v49h39a1 1 0 1 1 0 2h-40a1 1 0 0 1-1-1v-51Z M50.5 18.5a1 1 0 0 1 1 1v7a1 1 0 1 1-2 0v-7a1 1 0 0 1 1-1Z M59.21 18.295a1 1 0 0 1-.005 1.414L43.916 34.902l5.586 5.586 15.293-15.197a1 1 0 0 1 1.41 1.418l-16 15.9a1 1 0 0 1-1.412-.002l-7-7a1 1 0 0 1 .002-1.416l16-15.9a1 1 0 0 1 1.414.004Z M44.69 35.797a1 1 0 0 1-.008 1.414l-4.269 4.224 2.617 2.65 4.267-4.222a1 1 0 0 1 1.406 1.422l-4.978 4.926a1 1 0 0 1-1.415-.008l-4.022-4.074a1 1 0 0 1 .009-1.413l4.978-4.927a1 1 0 0 1 1.415.008Z"/>
    <path fill-rule="evenodd" clip-rule="evenodd" d="M60.635 15.856c-.403-.45-1.177-.513-1.736.043a1.082 1.082 0 0 1-.043.04c-.45.397-.514 1.154.043 1.707l7.503 7.455.04.043c.398.445 1.157.512 1.715-.022.484-.563.423-1.369.022-1.768l-7.504-7.455a1.016 1.016 0 0 1-.04-.043Zm1.469-1.357c-1.238-1.356-3.31-1.295-4.594-.04-1.378 1.24-1.308 3.327-.021 4.606l7.484 7.436c1.245 1.363 3.332 1.294 4.615.019.014-.014.028-.028.04-.043 1.141-1.274 1.198-3.312-.04-4.542L62.104 14.5Zm-3.91 3.856-.705.71.705-.71ZM45.5 50.5h-10a2 2 0 1 0 0 4h10a2 2 0 1 0 0-4Zm-10-2a4 4 0 0 0 0 8h10a4 4 0 0 0 0-8h-10Z" />
    <path d="M63.687 27.802a1 1 0 0 1 1.414-.018 17.772 17.772 0 0 1 0 25.515 21.45 21.45 0 0 1-2.373 1.998 1 1 0 0 1-1.18-1.615 19.446 19.446 0 0 0 2.157-1.815 15.772 15.772 0 0 0 0-22.65 1 1 0 0 1-.018-1.415Zm-3.597 3.304a1 1 0 0 1 1.414-.003c5.229 5.203 5.24 13.571-.007 18.684-.986.96-1.988 1.723-3.215 2.375a1 1 0 0 1-.938-1.767c1.038-.552 1.89-1.195 2.757-2.04 4.433-4.32 4.444-11.405-.007-15.835a1 1 0 0 1-.004-1.414ZM48.073 52.794a1 1 0 0 1 1.245-.67l.467.141c.398.122.619.19.86.236.29.056.62.082 1.355.082a1 1 0 1 1 0 2c-.764 0-1.25-.024-1.736-.119a11.3 11.3 0 0 1-1.138-.309l-.383-.116a1 1 0 0 1-.67-1.245Zm-7.45 2.32a1 1 0 0 1 1.357-.398c.853.467 2.267.857 3.831 1.163 1.534.3 3.1.5 4.19.628a1 1 0 0 1-.234 1.986c-1.102-.13-2.729-.337-4.34-.651-1.58-.31-3.261-.744-4.407-1.371a1 1 0 0 1-.397-1.358Z M49.5 57.5c0-3.863 3.137-7 7-7s7 3.137 7 7v6a1 1 0 1 1-2 0v-6c0-2.758-2.242-5-5-5s-5 2.242-5 5v6a1 1 0 1 1-2 0v-6Z M42.503 69.427c.244-3.33 3.05-5.927 6.444-5.927h15.21c3.5 0 6.22 2.61 6.342 5.963A1 1 0 0 1 69.5 70.5h-26a1 1 0 0 1-.997-1.073Zm2.212-.927h23.619c-.509-1.736-2.112-3-4.178-3h-15.21a4.457 4.457 0 0 0-4.23 3ZM57.5 57.5a1 1 0 1 1-2 0 1 1 0 0 1 2 0Z"/>
  </symbol>
  <use class="fr-artwork-decorative" href="#artwork-decorative"/>
  <use class="fr-artwork-minor" href="#artwork-minor"/>
  <use class="fr-artwork-major" href="#artwork-major"/>
</svg>


