<svg width="80px" height="80px" viewBox="0 0 80 80" xmlns="http://www.w3.org/2000/svg">
 	<style>
		.fr-artwork-decorative {
			fill: #ECECFF;
		}
		.fr-artwork-minor {
			fill: #E1000F;
		}
		.fr-artwork-major {
			fill: #000091;
		}
	</style>
	<symbol id="artwork-decorative">
    <path d="M1,52c-0.5514,0-1-0.4486-1-1s0.4486-1,1-1s1,0.4486,1,1S1.5514,52,1,52z M75,22c-0.5514,0-1-0.4486-1-1
	s0.4486-1,1-1s1,0.4486,1,1S75.5514,22,75,22z M13,12c-0.5514,0-1-0.4486-1-1s0.4486-1,1-1s1,0.4486,1,1S13.5514,12,13,12z M77,56
	c-0.5514,0-1-0.4486-1-1s0.4486-1,1-1s1,0.4486,1,1S77.5514,56,77,56z M59,6c-0.5514,0-1-0.4486-1-1c0-0.55145,0.4486-1,1-1
	s1,0.44855,1,1C60,5.5514,59.5514,6,59,6z"/>
  </symbol>
  <symbol id="artwork-minor">
    <path d="M28,59.00421l-0.05029,6.0083c-0.00659,1.59296-1.25391,2.89166-2.82422,2.98236L24.94983,68h-9.95691
	c-1.5976-0.01141-2.89471-1.26953-2.97479-2.83643l-0.00391-0.17529l-0.0094-3.96448C12.00464,61.01544,12,61.00842,12,61
	c0-0.00885,0.00446-0.01624,0.0047-0.02502L12,59.00238c-0.00128-0.55231,0.44531-1.0011,0.99762-1.00238
	c0.51288-0.00122,0.9364,0.38379,0.99536,0.88098L14,58.99762L14.00238,60H23c0.55231,0,1,0.44769,1,1
	c0,0.51282-0.38599,0.93549-0.88342,0.99329L23,62h-8.99286l0.00708,2.99292c-0.0036,0.51288,0.37939,0.93829,0.87067,0.99945
	L15.00012,66h9.94971c0.5506,0,0.99768-0.44519,1-0.99579L26,58.99579c0.00232-0.55231,0.4519-0.99811,1.00421-0.99579
	S28.00232,58.4519,28,59.00421z M27.99463,52.6853L28,53c0,0.55231-0.44769,1-1,1s-1-0.44769-1-1
	c0-2.4057-1.24359-5.20367-3.78088-8.37531c-0.1134-0.14191-0.18561-0.31122-0.2099-0.48962L22,44v-2h-7c-0.55231,0-1-0.44769-1-1
	v-4c0-0.55231,0.44769-1,1-1h10c0.55231,0,1,0.44769,1,1v4c0,0.55231-0.44769,1-1,1h-1v1.65302l0.0752,0.09558
	C26.58038,46.97461,27.90021,49.94849,27.99463,52.6853z M24,40v-2h-8v2H24z M16.67578,47.09473l0.35333-0.49255
	c0.23621-0.3219,0.48627-0.64758,0.75018-0.97705c0.34521-0.43115,0.27557-1.06042-0.15552-1.4057
	c-0.43109-0.34521-1.06036-0.27563-1.40558,0.15546c-0.1875,0.23413-0.36871,0.46674-0.5437,0.698l-0.34808,0.4696
	c-1.92834,2.65674-3.0498,5.08771-3.32043,7.32849l0.0799,0.39032c0.06042,0.2713,0.1026,0.3631,0.20874,0.45319l0.0929,0.07001
	c0.01788,0.01263,0.03711,0.02582,0.0578,0.0401l0.16119,0.08704L12.6651,53.935l0.14911,0.0401l0.13477,0.01672l0.40344,0.00745
	l4.40527-0.01538l1.16101,0.00214l0.08728,0.00555c0.46222-0.00281,0.86414-0.32507,0.96735-0.77557l0.01935-0.11511
	l-0.0838-0.38849l-0.04468-0.17163c-0.04358-0.14349-0.0874-0.21118-0.16638-0.27734l-0.09222-0.06854
	c-0.0177-0.01221-0.03668-0.02509-0.05731-0.039l-0.12317-0.0672l-0.06573-0.03107l-0.06458-0.02161l-0.11243-0.02832
	l-0.13416-0.01648l-0.40289-0.00751l-4.43561,0.01532l0.02448-0.09692C14.63507,50.44861,15.44891,48.84528,16.67578,47.09473z
	 M46.9278,28.37372c0.40179-0.29871,0.52478-0.85785,0.26843-1.30194c-0.27625-0.47827-0.88782-0.64215-1.36615-0.36597
	l-6.06207,3.5l-0.09772,0.06409c-0.40179,0.29871-0.52478,0.85779-0.26837,1.30188c0.27618,0.47833,0.88776,0.64221,1.36609,0.36603
	l6.06207-3.5L46.9278,28.37372z M45.1344,31.73401c-0.40179,0.29871-0.52478,0.85779-0.26837,1.30188
	c0.27618,0.47833,0.88776,0.64221,1.36609,0.36603l2.59796-1.5l0.09772-0.06415c0.40179-0.29865,0.52478-0.85779,0.26843-1.30188
	c-0.27625-0.47827-0.88782-0.64221-1.36615-0.36597l-2.59796,1.5L45.1344,31.73401z M50.9278,35.30188
	c0.40179-0.29871,0.52478-0.85779,0.26843-1.30188c-0.27625-0.47827-0.88782-0.64221-1.36615-0.36603l-6.06207,3.5l-0.09772,0.06415
	c-0.40179,0.29871-0.52478,0.85779-0.26837,1.30188c0.27618,0.47827,0.88776,0.64221,1.36597,0.36603l6.06219-3.5L50.9278,35.30188z
	 M53.19623,37.46411c-0.27625-0.47833-0.88782-0.64221-1.36615-0.36603l-2.59796,1.5l-0.09772,0.06409
	c-0.40179,0.29871-0.52478,0.85785-0.26837,1.30194c0.27618,0.47827,0.88776,0.64221,1.36609,0.36597l2.59796-1.5l0.09772-0.06409
	C53.32959,38.46729,53.45258,37.9082,53.19623,37.46411z"/>
  </symbol>
  <symbol id="artwork-major">
    <path d="M67.56213,60.3468c-0.55231-0.9566-1.77545-1.2843-2.73206-0.73212l-1.73206,1l-3-5.19611l0.86609-0.5
	l0.0976-0.06409c0.40179-0.29871,0.52478-0.85779,0.26837-1.30188c-0.27618-0.47833-0.88776-0.64221-1.36597-0.36609l-0.86609,0.5
	l0,0l-5.19623,3v0.00006l-4.33008,2.49994l-0.10431,0.05249c-0.45959,0.19867-1.00531,0.02557-1.26172-0.41852
	c-0.27606-0.47827-0.11218-1.0899,0.36603-1.36603l13.85651-8l0.10431-0.05249c0.45959-0.19861,1.00525-0.02557,1.26166,0.41852
	c0.27612,0.47833,0.11218,1.0899-0.36597,1.36603l-0.09772,0.06415c-0.40179,0.29871-0.52478,0.85773-0.26843,1.30194
	c0.27625,0.47827,0.88782,0.64209,1.36615,0.36597c1.43475-0.82837,1.92645-2.66321,1.09796-4.09808
	c-0.82837-1.43488-2.66321-1.92651-4.09796-1.09808l-0.86615,0.50006l-14.08789-24.401l-0.1026-0.16779
	c-1.09729-1.69751-3.33606-2.2627-5.09668-1.24622l-1.05121,0.60687l0.87433-0.50476l-1-1.73199
	c-0.55231-0.9566-1.77539-1.28436-2.73199-0.73212l-6.5-11.2583C30.58978,8.3089,29.97821,8.14502,29.5,8.42114
	c-0.47827,0.27618-0.64221,0.88776-0.36609,1.36603l6.5,11.2583c-0.9566,0.55231-1.2843,1.77551-0.73199,2.73212l1,1.73193
	l-0.17694,0.10217l-0.16687,0.10211c-1.68732,1.09259-2.23022,3.33759-1.20831,5.10767l0.92291,1.59845l0.06409,0.0976
	c0.29871,0.40179,0.85779,0.52478,1.30188,0.26837c0.47833-0.27606,0.64221-0.8877,0.36603-1.36597l-0.92279-1.59845
	l-0.06982-0.13287c-0.4046-0.85089-0.1012-1.87482,0.71289-2.34479l5.54993-3.20422l0.13019-0.0683
	c0.83569-0.39478,1.85742-0.08057,2.33704,0.75018l14.08789,24.401l-8.66022,4.99994l-3-5.19611l6.06219-3.5l0.0976-0.06421
	c0.40192-0.29858,0.52484-0.85773,0.26843-1.30182c-0.27612-0.47827-0.8877-0.64215-1.36603-0.36609l-6.06219,3.5l-2.21887-3.8432
	l-0.06421-0.09772c-0.29871-0.40179-0.85773-0.52478-1.30194-0.26837c-0.47815,0.27618-0.64209,0.88782-0.36597,1.36609
	l6.21887,10.77148l-0.86597,0.49994L47.42163,55.815c-1.31824,0.86639-1.74683,2.62189-0.94794,4.00549
	c0.82843,1.43488,2.66321,1.92651,4.09802,1.09808l4.33008-2.49994l3,5.19611l-1.73199,0.99994l-0.12653,0.07941
	c-0.85797,0.58362-1.13269,1.73962-0.60547,2.65271c0.55231,0.9566,1.77539,1.2843,2.73199,0.73199l8.66028-5l0.12653-0.07928
	C67.81458,62.41589,68.08929,61.25989,67.56213,60.3468z M58.36597,56.41858l2.99963,5.19562l-1.73199,1l-2.99963-5.19562
	L58.36597,56.41858z M41.99451,52.6853c-0.09442-2.73682-1.41418-5.71069-3.91943-8.93658l-0.0752-0.0957V42h0.97455
	c0.55219,0,1-0.44769,1-1v-4c0-0.55231-0.44781-1-1-1h-10c-0.55231,0-1,0.44769-1,1v4c0,0.55231,0.44769,1,1,1h1l0.00037,1.65302
	l-0.07556,0.0957c-2.50525,3.22589-3.82501,6.19977-3.91943,8.93658L25.97443,53c0,0.55231,0.44769,1,1,1c0.55225,0,1-0.44769,1-1
	c0-2.4057,1.24359-5.20367,3.78088-8.37531c0.1134-0.14191,0.18561-0.31122,0.2099-0.48962L31.97443,44v-2h4.02545v2
	l0.00922,0.13507c0.02429,0.17841,0.0965,0.34772,0.2099,0.48962l0.27661,0.35089c1.98938,2.56171,3.12109,4.87494,3.4223,6.9295
	L39.92889,52h-8.92902l-0.11658,0.00671c-0.49738,0.0578-0.88342,0.48047-0.88342,0.99329c0,0.55231,0.44769,1,1,1h8.99591
	l-0.04608,11.00421C39.94739,65.55463,39.49957,66,38.94769,66h-9.95978l-0.11542-0.00763
	c-0.49237-0.06128-0.87598-0.48676-0.87238-0.99945L28.00574,62H37l0.11658-0.00671C37.61389,61.93549,38,61.51282,38,61
	c0-0.55231-0.44781-1-1-1h-8.99048l0.00189-0.99811l-0.00653-0.11658c-0.05676-0.4975-0.4787-0.88434-0.99158-0.88531
	c-0.55219-0.00098-1.00079,0.4458-1.00183,0.99811l-0.00372,1.96045C26.00714,60.97302,26,60.98541,26,61
	c0,0.01337,0.00708,0.02448,0.00763,0.03772l-0.00751,3.94629l0.00391,0.17578c0.0802,1.57092,1.3783,2.8288,2.97675,2.84021
	h9.96692l0.17578-0.00513c1.57123-0.0907,2.81952-1.38916,2.82611-2.9823l0.05029-12.00836
	c0-0.00073-0.00043-0.00134-0.00043-0.00208S41.99988,53.00073,41.99988,53L41.99451,52.6853z M29.97388,40v-2h8v2H29.97388z"/>
  </symbol>
  <use class="fr-artwork-decorative" href="#artwork-decorative"/>
  <use class="fr-artwork-minor" href="#artwork-minor"/>
  <use class="fr-artwork-major" href="#artwork-major"/>
</svg>
