<svg width="80px" height="80px" viewBox="0 0 80 80" xmlns="http://www.w3.org/2000/svg">
 	<style>
		.fr-artwork-decorative {
			fill: #ECECFF;
		}
		.fr-artwork-minor {
			fill: #E1000F;
		}
		.fr-artwork-major {
			fill: #000091;
		}
	</style>
	<g class="fr-artwork-decorative" id="artwork-decorative">
    <path d="M5,60c-0.5514,0-1-0.4486-1-1s0.4486-1,1-1s1,0.4486,1,1S5.5514,60,5,60z M17,8c-0.5514,0-1-0.4486-1-1
	c0-0.55145,0.4486-1,1-1s1,0.44855,1,1C18,7.5514,17.5514,8,17,8z M3,26c-0.5514,0-1-0.4486-1-1s0.4486-1,1-1s1,0.4486,1,1
	S3.5514,26,3,26z M63,74c-0.5514,0-1-0.4486-1-1s0.4486-1,1-1s1,0.4486,1,1S63.5514,74,63,74z M77,56c-0.5514,0-1-0.4486-1-1
	s0.4486-1,1-1s1,0.4486,1,1S77.5514,56,77,56z M75,22c-0.5514,0-1-0.4486-1-1s0.4486-1,1-1s1,0.4486,1,1S75.5514,22,75,22z"/>
  </g>
  <g class="fr-artwork-minor" id="artwork-minor">
    <path d="M46,40c-3.3094,0-6,2.6906-6,6c0,3.3093,2.6907,6,6,6s6-2.6907,6-6C52,42.6906,49.3094,40,46,40z M46,42
	c2.2048,0,4,1.7951,4,4c0,2.2047-1.7953,4-4,4s-4-1.7953-4-4C42,43.7951,43.7952,42,46,42z"/>
  </g>
  <g class="fr-artwork-major" id="artwork-major">
    <path d="M36,32c0-2.2066,1.7935-4,4-4s4,1.7934,4,4c0,2.2065-1.7935,4-4,4S36,34.2065,36,32z M42,32
	c0-1.102-0.898-2-2-2s-2,0.898-2,2c0,1.1019,0.8981,2,2,2S42,33.1019,42,32z M28,42c0-1.1037,0.8963-2,2-2s2,0.8963,2,2
	s-0.8963,2-2,2S28,43.1037,28,42z M42.7247,8h-5.4494c-2.5552,0-4.6328,2.0774-4.6328,4.6328l0.0052,0.2186
	c0.0816,1.7398,1.1329,3.2607,2.6654,3.9785l0.0539,0.0231v0.577l-0.352,0.0736c-2.6324,0.5801-5.1144,1.6081-7.3904,3.0609
	L27.317,20.766l-0.407-0.408l0.0093-0.0213c0.1902-0.5123,0.2884-1.0578,0.2884-1.6146c0-1.2358-0.4831-2.4023-1.3567-3.2759
	c-1.8071-1.8071-4.745-1.8072-6.552,0.0001l-3.853,3.8528c-1.8071,1.807-1.8071,4.7451,0,6.5522
	c0.8739,0.8736,2.0403,1.3567,3.2761,1.3567l0.2774-0.0082c0.3683-0.0217,0.73-0.0866,1.0784-0.1929L20.358,26.91l0.407,0.407
	l-0.2004,0.3076c-1.4531,2.2762-2.4811,4.7582-3.0609,7.3902L17.43,35.367h-0.6l-0.0313-0.0688
	c-0.7401-1.536-2.2729-2.5949-4.0091-2.6527c-1.263-0.0426-2.4684,0.4209-3.37715,1.2996C8.5034,34.8241,8,36.0111,8,37.2756v5.3912
	c0,2.5332,1.96076,4.5986,4.466,4.6879c1.2695,0.0429,2.4738-0.4178,3.3839-1.2964l0.2007-0.2057
	c0.3227-0.3518,0.5868-0.747,0.7854-1.1735l0.019-0.0471h0.575l0.0736,0.3531c0.5801,2.6323,1.608,5.1142,3.0608,7.3903
	l0.2016,0.3066l-0.408,0.407l-0.021-0.0083c-0.5123-0.1902-1.0579-0.2884-1.6149-0.2884c-1.2358,0-2.4022,0.483-3.276,1.3565
	c-0.8738,0.8745-1.3569,2.0408-1.3569,3.2763c0,1.2357,0.4831,2.4022,1.3568,3.2758l3.8533,3.8532
	c0.9167,0.9163,2.1841,1.4084,3.4797,1.3526c1.297-0.0574,2.5169-0.6614,3.3525-1.6586l0.144-0.1813
	c0.9255-1.2283,1.1534-2.8437,0.6658-4.2841L26.895,59.656l0.422-0.422l0.3071,0.2014c2.2765,1.4531,4.7585,2.4811,7.3906,3.0611
	l0.3523,0.0725v0.577l-0.054,0.0245c-1.5963,0.7478-2.6705,2.3669-2.6705,4.1969C32.6425,69.9228,34.72,72,37.2753,72h5.4494
	c2.5554,0,4.6328-2.0772,4.6328-4.6326l-0.0052-0.2185c-0.0816-1.7396-1.1327-3.2605-2.6651-3.9784L44.632,63.146v-0.577
	l0.3531-0.0724c2.6323-0.58,5.1142-1.608,7.3903-3.0608l0.3066-0.2018l0.422,0.422l-0.0451,0.1264
	c-0.5122,1.5124-0.2353,3.2178,0.8097,4.4657c0.8358,0.9973,2.0557,1.6012,3.3515,1.6586c1.2969,0.057,2.5638-0.4353,3.4809-1.3528
	l3.853-3.853c0.8738-0.8734,1.357-2.0399,1.357-3.2758c0-1.2355-0.483-2.4018-1.35651-3.2759
	c-0.8745-0.8739-2.0409-1.3569-3.2763-1.3569l-0.2775,0.0081c-0.3683,0.0217-0.73,0.0867-1.0786,0.1929L59.641,53.089l-0.407-0.407
	l0.2017-0.3068c1.4529-2.2759,2.4809-4.7578,3.0606-7.39l0.0727-0.3532h0.596l0.0277,0.0618
	c0.6975,1.4638,2.1159,2.5004,3.7603,2.6452c1.29549,0.1143,2.5862-0.3213,3.5424-1.197C71.4521,45.2662,72,44.0217,72,42.7247
	v-5.4494c0-1.2968-0.548-2.5412-1.5047-3.4171c-0.957-0.8765-2.2472-1.3125-3.5432-1.1972l-0.2255,0.026l-0.2203,0.0376
	c-1.4566,0.2847-2.67,1.2517-3.3024,2.5592L63.165,35.367h-0.596l-0.0726-0.3518c-0.5799-2.6323-1.6079-5.1144-3.0608-7.3904
	L59.234,27.317l0.407-0.407l0.0223,0.0095c0.5123,0.1902,1.0579,0.2885,1.6149,0.2885c1.2354,0,2.4018-0.483,3.2758-1.3565
	c1.8071-1.8076,1.8071-4.7456,0.0003-6.5524l-3.8534-3.8529c-1.8069-1.8072-4.7452-1.8071-6.5518,0.0001l-0.1562,0.1639
	c-1.1611,1.2796-1.4943,3.0811-0.9332,4.6632l0.0313,0.0836l-0.409,0.409l-0.3066-0.2014c-2.2764-1.453-4.7581-2.481-7.3901-3.0609
	L44.632,17.43v-0.577l0.0551-0.0231c1.5963-0.7477,2.6704-2.3668,2.6704-4.1971C47.3575,10.0774,45.2801,8,42.7247,8z M37.2753,10
	h5.4494c1.4508,0,2.6328,1.1819,2.6328,2.6328c0,1.2053-0.8229,2.2524-1.9747,2.5499c-0.4414,0.114-0.7499,0.5123-0.7499,0.9682
	v1.5071c0,0.8269,0.593,1.5342,1.4049,1.6916c2.7684,0.5382,5.3592,1.6114,7.7044,3.1913c0.6866,0.463,1.6079,0.3852,2.1938-0.2002
	l1.0665-1.0663c0.3225-0.3224,0.386-0.8221,0.1545-1.2149c-0.6042-1.0252-0.4458-2.347,0.4064-3.199
	c1.0257-1.0261,2.6974-1.0262,3.7232-0.0001l3.8535,3.8529c1.0257,1.0258,1.0257,2.6976-0.0002,3.7239
	c-0.4987,0.4983-1.1565,0.7708-1.8617,0.7708c-0.4775,0-0.9351-0.125-1.3366-0.3627c-0.393-0.2328-0.8937-0.1697-1.2167,0.1533
	l-1.065,1.065c-0.5858,0.5853-0.6636,1.507-0.2009,2.194c1.5801,2.3451,2.6533,4.9364,3.1914,7.705
	c0.1573,0.8116,0.8649,1.4047,1.6918,1.4047h1.52c0.4518,0,0.8475-0.3029,0.9654-0.739c0.2777-1.0274,1.13651-1.8093,2.1594-1.9585
	l0.1698-0.0194c0.7096-0.0628,1.4451,0.1857,1.9879,0.6828C69.6877,35.8304,70,36.5396,70,37.2753v5.4494
	c0,0.7359-0.3123,1.4452-0.8552,1.9423c-0.5419,0.4962-1.27859,0.7448-2.0162,0.6798c-1.0825-0.0954-2.0098-0.8967-2.301-1.9747
	c-0.1178-0.4362-0.5135-0.7392-0.9654-0.7392h-1.52c-0.8267,0-1.5343,0.5931-1.6918,1.4048
	c-0.538,2.7686-1.6112,5.3596-3.1913,7.7047c-0.4628,0.6873-0.385,1.6087,0.2012,2.1943l1.0645,1.0649
	c0.2936,0.2936,0.7342,0.3725,1.1072,0.2095l0.1096-0.0561c0.4015-0.2378,0.8591-0.3627,1.3366-0.3627
	c0.7052,0,1.363,0.2724,1.8621,0.7711c0.4982,0.4986,0.7707,1.1565,0.7707,1.8617c0,0.7054-0.2724,1.363-0.7711,1.8615
	l-3.8532,3.8532c-0.5205,0.5207-1.2422,0.8012-1.9785,0.7688c-0.7346-0.0325-1.4306-0.3771-1.9065-0.9449
	c-0.6975-0.8329-0.7865-2.0554-0.2302-3.0232c0.2253-0.3919,0.1597-0.8861-0.1599-1.2056l-1.0753-1.0751
	c-0.5857-0.5856-1.5072-0.6635-2.1942-0.2003c-2.3447,1.5797-4.9358,2.6529-7.7046,3.1912
	c-0.8113,0.1573-1.4046,0.8649-1.4046,1.6918v1.5068c0,0.4559,0.3084,0.8541,0.7498,0.9682
	c1.1519,0.2977,1.9748,1.3448,1.9748,2.5499c0,1.4508-1.1819,2.6326-2.6328,2.6326h-5.4494c-1.4507,0-2.6328-1.1819-2.6328-2.6326
	c0-1.1447,0.7428-2.147,1.8048-2.4997l0.1703-0.0502c0.4414-0.1141,0.7497-0.5123,0.7497-0.9682v-1.5068
	c0-0.8271-0.5932-1.5345-1.4051-1.6919c-2.7684-0.5383-5.3597-1.6115-7.7047-3.1913c-0.6861-0.463-1.6075-0.3852-2.1935,0.2003
	l-1.0754,1.0754c-0.3195,0.3194-0.3851,0.8135-0.16,1.2052c0.5562,0.9682,0.4672,2.1908-0.2303,3.0235
	c-0.4757,0.5678-1.1717,0.9124-1.9065,0.9449c-0.7353,0.0317-1.4584-0.249-1.9784-0.7689l-3.8533-3.853
	c-0.4984-0.4985-0.7709-1.1563-0.7709-1.8616c0-0.7052,0.2725-1.3631,0.7712-1.8622c0.4985-0.4982,1.1563-0.7706,1.8617-0.7706
	c0.4092,0,0.8039,0.0918,1.1609,0.2677l0.1752,0.0949c0.393,0.2328,0.8939,0.1698,1.2169-0.1533l1.0652-1.0652
	c0.5858-0.5858,0.6636-1.5073,0.2004-2.1943c-1.5796-2.3447-2.6528-4.9358-3.1912-7.7046
	c-0.1573-0.8112-0.8647-1.4046-1.6915-1.4046h-1.5059c-0.4189,0-0.7889,0.2603-0.9348,0.6448l-0.0341,0.1078
	c-0.1192,0.4668-0.3659,0.8899-0.7222,1.2337c-0.5197,0.5018-1.1981,0.7613-1.9256,0.7367C11.1154,45.3053,10,44.1303,10,42.6668
	v-5.3912c0-0.7224,0.2833-1.3905,0.8026-1.8926c0.519-0.5018,1.1982-0.763,1.92-0.7386c1.1357,0.0378,2.1398,0.8589,2.4482,1.9867
	c0.1189,0.4347,0.5139,0.7362,0.9646,0.7362h1.5226c0.8268,0,1.5343-0.5932,1.6917-1.4052c0.538-2.7681,1.6112-5.3594,3.1912-7.7043
	c0.4631-0.6867,0.3849-1.6085-0.2008-2.1942l-1.065-1.065c-0.323-0.323-0.8237-0.3861-1.2167-0.1533
	c-0.4015,0.2378-0.859,0.3627-1.3363,0.3627c-0.7054,0-1.3632-0.2724-1.8621-0.7711c-1.0258-1.0258-1.0258-2.6976,0.0002-3.7236
	l3.8531-3.8529c1.0259-1.0261,2.6974-1.0261,3.7235,0c0.4985,0.4985,0.7709,1.1563,0.7709,1.8617
	c0,0.409-0.0918,0.8037-0.2677,1.1609l-0.095,0.1754c-0.2327,0.393-0.1696,0.8937,0.1534,1.2167l1.0652,1.0652
	c0.586,0.586,1.5077,0.6637,2.1946,0.2002c2.3442-1.5793,4.9355-2.6526,7.7043-3.191c0.8113-0.1572,1.4048-0.8646,1.4048-1.6915
	v-1.5071c0-0.4559-0.3084-0.8542-0.7499-0.9682c-1.1518-0.2976-1.9749-1.3447-1.9749-2.5499C34.6425,11.182,35.8246,10,37.2753,10z"
	/>
  </g>
</svg>
