<svg width="80px" height="80px" viewBox="0 0 80 80" xmlns="http://www.w3.org/2000/svg">
 	<style>
		.fr-artwork-decorative {
			fill: #ECECFF;
		}
		.fr-artwork-minor {
			fill: #E1000F;
		}
		.fr-artwork-major {
			fill: #000091;
		}
	</style>
	<symbol id="artwork-decorative">
    <path d="M68,13c-0.5514,0-1-0.4486-1-1s0.4486-1,1-1s1,0.4486,1,1S68.5514,13,68,13z M41,76c-0.5514,0-1-0.4486-1-1
	s0.4486-1,1-1s1,0.4486,1,1S41.5514,76,41,76z M15,10c-0.5514,0-1-0.4486-1-1c0-0.55145,0.4486-1,1-1s1,0.44855,1,1
	C16,9.5514,15.5514,10,15,10z"/>
  </symbol>
  <symbol id="artwork-minor">
    <path d="M67.11511,65.99359L67,66h-4c-0.55231,0-1-0.44769-1-1c0-0.51282,0.38599-0.93549,0.88342-0.99329L63,64
	h2.38098L55,43.23602L44.61798,64H59c0.51282,0,0.93549,0.38599,0.99329,0.88342L60,65c0,0.51282-0.38599,0.93549-0.88342,0.99329
	L59,66H43c-0.70422,0-1.17529-0.70209-0.94019-1.34143l0.04578-0.10577l12-24c0.34912-0.6983,1.31152-0.73499,1.72522-0.11029
	l0.0636,0.11029l12,24C68.20941,65.18268,67.79199,65.91797,67.11511,65.99359z M56,51c0-0.55231-0.44769-1-1-1s-1,0.44769-1,1v6
	c0,0.55231,0.44769,1,1,1s1-0.44769,1-1V51z M55,60c-0.55231,0-1,0.44769-1,1s0.44769,1,1,1s1-0.44769,1-1S55.55231,60,55,60z"/>
  </symbol>
  <symbol id="artwork-major">
    <path d="M68,19v34c0,0.55231-0.44769,1-1,1c-0.51282,0-0.93549-0.38599-0.99329-0.88342L66,53V28h-9
	c-0.55231,0-1-0.44769-1-1c0-0.51282,0.38599-0.93549,0.88342-0.99329L57,26h9v-6H14v6h37c0.55231,0,1,0.44769,1,1
	c0,0.51282-0.38599,0.93549-0.88342,0.99329L51,28H14v36h23c0.51282,0,0.93549,0.38599,0.99329,0.88342L38,65
	c0,0.51282-0.38599,0.93549-0.88342,0.99329L37,66H13c-0.51282,0-0.93549-0.38599-0.99329-0.88342L12,65V19
	c0-0.51282,0.38599-0.93549,0.88342-0.99329L13,18h54c0.51282,0,0.93549,0.38599,0.99329,0.88342L68,19z M16,23
	c0,0.55139,0.44861,1,1,1s1-0.44861,1-1s-0.44861-1-1-1S16,22.44861,16,23z M20,23c0,0.55139,0.44861,1,1,1s1-0.44861,1-1
	s-0.44861-1-1-1S20,22.44861,20,23z M24,23c0,0.55139,0.44861,1,1,1s1-0.44861,1-1s-0.44861-1-1-1S24,22.44861,24,23z
	 M63.11658,23.99329C63.61401,23.93549,64,23.51282,64,23c0-0.55231-0.44769-1-1-1H33l-0.11658,0.00671
	C32.38599,22.06451,32,22.48718,32,23c0,0.55231,0.44769,1,1,1h30L63.11658,23.99329z M45,34H21l-0.11658,0.00671
	C20.38599,34.06451,20,34.48718,20,35c0,0.55231,0.44769,1,1,1h24l0.11658-0.00671C45.61401,35.93549,46,35.51282,46,35
	C46,34.44769,45.55231,34,45,34z M41,40H21l-0.11658,0.00671C20.38599,40.06451,20,40.48718,20,41c0,0.55231,0.44769,1,1,1h20
	l0.11658-0.00671C41.61401,41.93549,42,41.51282,42,41C42,40.44769,41.55231,40,41,40z M21,46l-0.11658,0.00671
	C20.38599,46.06451,20,46.48718,20,47c0,0.55231,0.44769,1,1,1h14l0.11658-0.00671C35.61401,47.93549,36,47.51282,36,47
	c0-0.55231-0.44769-1-1-1H21z"/>
  </symbol>
  <use class="fr-artwork-decorative" href="#artwork-decorative"/>
  <use class="fr-artwork-minor" href="#artwork-minor"/>
  <use class="fr-artwork-major" href="#artwork-major"/>
</svg>
