<svg width="80px" height="80px" viewBox="0 0 80 80" xmlns="http://www.w3.org/2000/svg">
 	<style>
		.fr-artwork-decorative {
			fill: #ECECFF;
		}
		.fr-artwork-minor {
			fill: #E1000F;
		}
		.fr-artwork-major {
			fill: #000091;
		}
	</style>
	<symbol id="artwork-decorative">
    <path d="M8,17c-0.5514,0-1-0.4486-1-1c0-0.5514,0.4486-1,1-1s1,0.4486,1,1C9,16.5514,8.5514,17,8,17z M65,72
	c-0.5514,0-1-0.4486-1-1s0.4486-1,1-1s1,0.4486,1,1S65.5514,72,65,72z M66,11c-0.5514,0-1-0.4486-1-1c0-0.55145,0.4486-1,1-1
	s1,0.44855,1,1C67,10.5514,66.5514,11,66,11z M21,77c-0.5514,0-1-0.4486-1-1s0.4486-1,1-1s1,0.4486,1,1S21.5514,77,21,77z"/>
  </symbol>
  <symbol id="artwork-minor">
    <path d="M40,36.5502l8.4351-8.4351c0.8201-0.8201,2.1497-0.8201,2.9698,0c0.7725,0.7724,0.8221,2.0061,0.1082,2.8527
	l-0.1082,0.1171L42.9698,39.52l9.3951,9.3951l0.1082,0.1171c0.7139,0.8466,0.6643,2.0803-0.1082,2.8527
	c-0.8201,0.8201-2.1497,0.8201-2.9698,0L40,42.4898l-9.3951,9.3951c-0.8201,0.8201-2.1497,0.8201-2.9698,0
	c-0.7725-0.7724-0.8221-2.0061-0.1082-2.8527l0.1082-0.1171l9.395-9.3951l-8.435-8.4351l-0.1082-0.1171
	c-0.7139-0.8466-0.6643-2.0803,0.1082-2.8527c0.8201-0.8201,2.1497-0.8201,2.9698,0L40,36.5502z"/>
  </symbol>
  <symbol id="artwork-major">
    <path d="M57,12c5.9787,0,10.8434,4.7698,10.9963,10.7116L68,23v6c0,0.5523-0.4477,1-1,1
	c-0.5128,0-0.9355-0.386-0.9933-0.8834L66,29v-6c0-4.8818-3.8868-8.8558-8.7346-8.9962L57,14H23
	c-4.8818,0-8.8558,3.8868-8.9962,8.7346L14,23v34c0,4.8818,3.8868,8.8558,8.7346,8.9962L23,66h34
	c4.8818,0,8.8558-3.8868,8.9962-8.7346L66,57V43c0-0.5523,0.4477-1,1-1c0.5128,0,0.9355,0.386,0.9933,0.8834L68,43v14
	c0,5.9787-4.7698,10.8434-10.7116,10.9963L57,68H23c-5.9787,0-10.8434-4.7698-10.9963-10.7116L12,57V23
	c0-5.9787,4.7698-10.8434,10.7116-10.9963L23,12H57z M70,31c0-0.5523,0.4477-1,1-1s1,0.4477,1,1s-0.4477,1-1,1S70,31.5523,70,31z
	 M71.9933,34.8834C71.9355,34.386,71.5128,34,71,34c-0.5523,0-1,0.4477-1,1v16l0.0067,0.1166C70.0645,51.614,70.4872,52,71,52
	c0.5523,0,1-0.4477,1-1V35L71.9933,34.8834z"/>
  </symbol>
  <use class="fr-artwork-decorative" href="#artwork-decorative"/>
  <use class="fr-artwork-minor" href="#artwork-minor"/>
  <use class="fr-artwork-major" href="#artwork-major"/>
</svg>
