<svg width="80px" height="80px" viewBox="0 0 80 80" xmlns="http://www.w3.org/2000/svg">
  <style>
    .fr-artwork-decorative {
      fill: #ECECFF;
    }
    .fr-artwork-minor {
      fill: #E1000F;
    }
    .fr-artwork-major {
      fill: #000091;
    }
  </style>
  <symbol id="artwork-decorative">
    <path d="M5.1 46.7c-.6 0-1-.4-1-1s.4-1 1-1 1 .4 1 1-.4 1-1 1ZM41.1 6c-.6 0-1-.4-1-1s.4-1 1-1 1 .4 1 1-.4 1-1 1ZM70.9 28c-.6 0-1-.4-1-1s.4-1 1-1 1 .4 1 1-.4 1-1 1ZM29.7 73.5c-.6 0-1-.4-1-1s.4-1 1-1 1 .4 1 1c0 .5-.4 1-1 1Z"/>
  </symbol>
  <symbol id="artwork-minor">
    <path d="M17.608 40.033a7.434 7.434 0 0 0-1.092 3.213 4.225 4.225 0 0 0-.016.251v.007a1 1 0 0 1-2-.004v-17a1 1 0 1 1 2 0v13l1.108.533Z"/>
    <path d="M57.654 25.512a1 1 0 0 1 .834 1.142L57.5 26.5l.988.154v.002l-.001.006-.002.01-.005.032-.02.102a6.975 6.975 0 0 1-.082.351c-.077.296-.201.709-.396 1.207a14.483 14.483 0 0 1-2.201 3.761 1 1 0 0 1-1.561-1.25 12.488 12.488 0 0 0 1.9-3.238c.163-.419.263-.756.322-.982a5.051 5.051 0 0 0 .07-.305V26.34a1 1 0 0 1 1.142-.829ZM16.5 43.502v.002-.006a2.59 2.59 0 0 1 .016-.248 7.25 7.25 0 0 1 1.132-3.201C18.756 38.36 21.048 36.5 26 36.5c2.835 0 4.935.123 6.77.248l.666.045c1.562.108 2.992.207 4.564.207a1 1 0 1 0 0-2c-1.498 0-2.856-.094-4.424-.202l-.67-.046A96.03 96.03 0 0 0 26 34.5c-5.548 0-8.506 2.139-10.024 4.451a9.249 9.249 0 0 0-1.451 4.112 6.251 6.251 0 0 0-.024.393v.028l-.001.01v.005l1 .001h-1a1 1 0 0 0 2 .004V43.5ZM50.078 56.511a1 1 0 0 0 .62 1.271 4.003 4.003 0 0 0 5.084-2.48 4.004 4.004 0 0 0-2.48-5.084 4.004 4.004 0 0 0-5.084 2.48 1 1 0 0 0 1.891.65l.054-.138a2.004 2.004 0 0 1 2.488-1.101 2.003 2.003 0 0 1 1.24 2.542 2.003 2.003 0 0 1-2.542 1.24 1 1 0 0 0-1.271.62Z"/>
  </symbol>
  <symbol id="artwork-major">
    <path d="M15.5 48.5a5.5 5.5 0 1 0 0 11 5.5 5.5 0 0 0 0-11ZM8 54a7.5 7.5 0 1 1 15 0 7.5 7.5 0 0 1-15 0ZM15.5 10.5a5.5 5.5 0 1 0 0 11 5.5 5.5 0 0 0 0-11ZM8 16a7.5 7.5 0 1 1 15 0 7.5 7.5 0 0 1-15 0ZM57.5 10.5a5.5 5.5 0 1 0 0 11 5.5 5.5 0 0 0 0-11ZM50 16a7.5 7.5 0 1 1 15 0 7.5 7.5 0 0 1-15 0ZM52 36c-9.941 0-18 8.059-18 18 0 3.447.968 6.665 2.646 9.4a18.1 18.1 0 0 0 5.296 5.53 1 1 0 0 1-1.12 1.658 20.1 20.1 0 0 1-5.88-6.142A19.91 19.91 0 0 1 32 54c0-11.046 8.954-20 20-20s20 8.954 20 20a1 1 0 1 1-2 0c0-9.941-8.059-18-18-18Z M38.003 53v-.554l.016-.158a1.477 1.477 0 0 1 1.314-1.231l.144-.007h.78l.13-.003c.525-.033.992-.352 1.232-.862l.225-.54.092-.206c.233-.5.152-1.097-.202-1.529l-.104-.113-.632-.64-.11-.138a1.482 1.482 0 0 1 .074-1.77l.101-.114 2.147-2.14.066-.055a1 1 0 0 1 1.369 1.453l-.092.086.003-.008-1.71 1.712.196.197a3.454 3.454 0 0 1 .795 3.7l-.156.358-.14.33a3.463 3.463 0 0 1-2.854 2.258l-.208.019-.192.005H40v1.9h.282a3.463 3.463 0 0 1 3.085 1.883l.09.187.066.165c.045.12.094.238.142.352l.073.165a3.465 3.465 0 0 1-.415 3.59l-.14.17-.137.146-.206.206 1.71 1.709a1 1 0 0 1 .082 1.32l-.083.094a1 1 0 0 1-1.32.083l-.094-.083-2.14-2.146-.11-.138a1.483 1.483 0 0 1 .071-1.772l.102-.113.552-.552.093-.099a1.462 1.462 0 0 0 .218-1.58 11.154 11.154 0 0 1-.18-.417l-.126-.32a1.452 1.452 0 0 0-1.188-.843l-.143-.007-.888-.003-.158-.016a1.477 1.477 0 0 1-1.231-1.314L38 55.473V55l.003-2ZM54.834 62.633a3.463 3.463 0 0 0-1.884 3.085l.001.282h-1.9v-.287l-.006-.192-.02-.208a3.463 3.463 0 0 0-2.257-2.854l-.33-.14-.171-.076-.11-.041a1 1 0 0 0-.702 1.869l.19.085.54.225c.51.24.83.707.862 1.233l.004.129v.78l.006.144a1.477 1.477 0 0 0 1.232 1.314l.157.016 3.028.003.143-.007a1.477 1.477 0 0 0 1.314-1.231l.016-.158.003-.888.007-.143c.05-.521.375-.98.843-1.188l.32-.127c.14-.056.282-.117.42-.18a1.463 1.463 0 0 1 1.579.22l.098.093.553.552.112.102c.506.41 1.226.445 1.766.076l.139-.108 2.151-2.152.101-.113c.411-.507.444-1.228.073-1.77l-.11-.138-.632-.64-.104-.113a1.454 1.454 0 0 1-.202-1.53c.068-.148.13-.291.187-.432l.077-.194.058-.138c.236-.493.704-.811 1.223-.84l.127-.003h.788l.143-.007a1.477 1.477 0 0 0 1.314-1.231l.016-.158.003-3.027-.007-.144a1.477 1.477 0 0 0-1.231-1.314l-.158-.016-.888-.003-.143-.007a1.452 1.452 0 0 1-1.188-.843l-.126-.32a11.06 11.06 0 0 0-.18-.417 1.462 1.462 0 0 1 .218-1.58l.093-.099.554-.553.101-.113c.411-.507.445-1.228.074-1.769l-.109-.138-2.141-2.148-.113-.101a1.482 1.482 0 0 0-1.77-.074l-.139.11-.643.636-.113.102c-.43.35-1.025.431-1.529.2l-.203-.091-.532-.223c-.517-.24-.84-.707-.874-1.237l-.003-.13v-.778l-.007-.144a1.477 1.477 0 0 0-1.231-1.314l-.158-.016L50.527 40l-.144.007a1.477 1.477 0 0 0-1.314 1.231l-.016.158-.003.888-.006.143c-.05.521-.375.98-.844 1.188l-.32.127a11.12 11.12 0 0 0-.42.18 1 1 0 1 0 .828 1.821c.17-.077.348-.152.527-.22l.165-.067.187-.089a3.463 3.463 0 0 0 1.883-3.085l.001-.282h1.9v.287l.005.194.018.2a3.463 3.463 0 0 0 2.276 2.865l.315.134.172.077.187.08c1.26.491 2.72.19 3.694-.79l.204-.202 1.34 1.34-.208.207-.137.146-.14.17a3.465 3.465 0 0 0-.415 3.59l.145.339.137.343.09.187a3.463 3.463 0 0 0 3.084 1.883h.283v1.9h-.288l-.184.004-.198.017a3.462 3.462 0 0 0-2.872 2.248l-.064.16-.07.168-.078.175-.08.188a3.456 3.456 0 0 0 .791 3.707l.198.199-1.34 1.345-.208-.207-.147-.139-.17-.139a3.467 3.467 0 0 0-3.584-.416l-.255.11-.432.174-.186.089Z"/>
  </symbol>
  <use class="fr-artwork-decorative" href="#artwork-decorative"/>
  <use class="fr-artwork-minor" href="#artwork-minor"/>
  <use class="fr-artwork-major" href="#artwork-major"/>
</svg>
