<svg width="80px" height="80px" viewBox="0 0 80 80" xmlns="http://www.w3.org/2000/svg">
  <style>
    .fr-artwork-decorative {
      fill: #ECECFF;
    }
    .fr-artwork-minor {
      fill: #E1000F;
    }
    .fr-artwork-major {
      fill: #000091;
    }
  </style>
  <symbol id="artwork-decorative">
    <path d="M5.1 46.7c-.6 0-1-.4-1-1s.4-1 1-1 1 .4 1 1-.4 1-1 1ZM41.1 6c-.6 0-1-.4-1-1s.4-1 1-1 1 .4 1 1-.4 1-1 1ZM70.9 28c-.6 0-1-.4-1-1s.4-1 1-1 1 .4 1 1-.4 1-1 1ZM29.7 73.5c-.6 0-1-.4-1-1s.4-1 1-1 1 .4 1 1c0 .5-.4 1-1 1Z"/>
  </symbol>
  <symbol id="artwork-minor">
    <path d="M61.794 30.544a1 1 0 0 1 .662 1.25L61.5 31.5l.956.295-.001.002-.002.005-.005.018-.02.062a22.74 22.74 0 0 1-.37 1.032c-.26.674-.649 1.599-1.17 2.607-1.022 1.982-2.624 4.43-4.858 5.827-1.162.726-2.771 1.031-4.552 1.144-1.81.115-3.947.037-6.266-.11a309.92 309.92 0 0 1-4.073-.297c-3.647-.281-7.587-.585-11.539-.585-4.735 0-6.927 1.847-7.992 3.534a7.434 7.434 0 0 0-1.092 3.212 4.225 4.225 0 0 0-.016.251v.007a1 1 0 0 1-2-.004v-17a1 1 0 1 1 2 0v11.65c1.593-1.98 4.374-3.65 9.1-3.65 4.035 0 8.098.313 11.768.596 1.387.107 2.718.21 3.97.29 2.305.146 4.338.216 6.014.11 1.704-.108 2.895-.392 3.618-.844 1.766-1.104 3.164-3.155 4.141-5.048a24.664 24.664 0 0 0 1.35-3.144c.029-.085.05-.151.064-.195l.016-.047.003-.01v-.002m1.25-.662a1 1 0 0 0-1.25.662l1.25-.662Z"/>
  </symbol>
  <symbol id="artwork-major">
    <path d="M19.5 53.5a5.5 5.5 0 1 0 0 11 5.5 5.5 0 0 0 0-11ZM12 59a7.5 7.5 0 1 1 15 0 7.5 7.5 0 0 1-15 0ZM19.5 15.5a5.5 5.5 0 1 0 0 11 5.5 5.5 0 0 0 0-11ZM12 21a7.5 7.5 0 1 1 15 0 7.5 7.5 0 0 1-15 0ZM61.5 15.5a5.5 5.5 0 1 0 0 11 5.5 5.5 0 0 0 0-11ZM54 21a7.5 7.5 0 1 1 15 0 7.5 7.5 0 0 1-15 0Z"/>
  </symbol>
  <use class="fr-artwork-decorative" href="#artwork-decorative"/>
  <use class="fr-artwork-minor" href="#artwork-minor"/>
  <use class="fr-artwork-major" href="#artwork-major"/>
</svg>
