<svg width="80px" height="80px" viewBox="0 0 80 80" xmlns="http://www.w3.org/2000/svg">
 	<style>
		.fr-artwork-decorative {
			fill: #ECECFF;
		}
		.fr-artwork-minor {
			fill: #E1000F;
		}
		.fr-artwork-major {
			fill: #000091;
		}
	</style>
	<g class="fr-artwork-decorative" id="artwork-decorative">
    <path d="M8,17c-0.5514,0-1-0.4486-1-1c0-0.5514,0.4486-1,1-1s1,0.4486,1,1C9,16.5514,8.5514,17,8,17z M65,72
	c-0.5514,0-1-0.4486-1-1s0.4486-1,1-1s1,0.4486,1,1S65.5514,72,65,72z M66,11c-0.5514,0-1-0.4486-1-1c0-0.55145,0.4486-1,1-1
	s1,0.44855,1,1C67,10.5514,66.5514,11,66,11z M21,77c-0.5514,0-1-0.4486-1-1s0.4486-1,1-1s1,0.4486,1,1S21.5514,77,21,77z"/>
  </g>
  <g class="fr-artwork-minor" id="artwork-minor">
    <path d="M42,26c0-1.1046-0.8954-2-2-2s-2,0.8954-2,2s0.8954,2,2,2S42,27.1046,42,26z M42,34c0-1.1046-0.8954-2-2-2
	s-2,0.8954-2,2v16c0,1.1046,0.8954,2,2,2s2-0.8954,2-2V34z"/>
  </g>
  <g class="fr-artwork-major" id="artwork-major">
    <path d="M59,12c5.0554,0,8.871,4.8278,8.9968,10.7005L68,23v26c0,5.907-3.7313,10.8333-8.744,10.9959L59,60H47.227
	l-0.0771,0.0711c-0.0621,0.0586-0.1311,0.1282-0.2069,0.2085l-0.2471,0.2731l-0.3697,0.4372l-0.5225,0.6518l-0.822,1.0727
	l-1.5903,2.1078L42.7917,65.606l-0.5066,0.6457l-0.3273,0.4014l-0.1963,0.2312l-0.1807,0.2039l-0.1669,0.1783l-0.1549,0.1543
	l-0.1444,0.132l-0.1357,0.1111c-0.022,0.0169-0.0437,0.033-0.0652,0.04829l-0.1259,0.083
	c-0.0411,0.0248-0.0816,0.04691-0.1215,0.06641l-0.1189,0.0512c-0.0393,0.01469-0.0785,0.0272-0.1178,0.0378l-0.1186,0.0259
	l-0.1211,0.0156l-0.1252,0.0071h-0.1294l-0.1252-0.0069l-0.1209-0.0154c-0.0397-0.0067-0.0791-0.0152-0.1183-0.0256l-0.1175-0.0373
	l-0.1184-0.0507c-0.0598-0.0291-0.1205-0.0637-0.1832-0.105l-0.1283-0.0915l-0.1353-0.1107
	c-0.0233-0.0201-0.0469-0.0412-0.0708-0.0631l-0.1491-0.14249l-0.1603-0.1659l-0.1734-0.1909l-0.1881-0.2174l-0.4276-0.5212
	l-0.3723-0.47289l-0.9029-1.1809l-1.7646-2.3382l-0.5051-0.6544l-0.2538-0.3202l-0.3261-0.3991l-0.148-0.1759l-0.267-0.3047
	c-0.0824-0.091-0.1583-0.1714-0.2273-0.2408L32.774,60H21c-5.0554,0-8.871-4.8278-8.9968-10.7005L12,49V31c0-0.5523,0.4477-1,1-1
	c0.5128,0,0.9355,0.386,0.9933,0.8834L14,31v18c0,4.9062,2.979,8.8515,6.7838,8.9959L21,58l12.0612,0.0006l0.1177,0.0051
	l0.113,0.0118l0.1099,0.02l0.1083,0.03l0.1086,0.0415l0.1104,0.0546l0.1138,0.0693l0.119,0.0857l0.1259,0.1037l0.1342,0.1233
	l0.1444,0.1445l0.1562,0.1673l0.1695,0.1918l0.2831,0.337l0.44,0.55l0.9786,1.2755l1.8657,2.4714l0.6744,0.8681l0.371,0.4573
	l0.0895,0.1075c0.2031,0.24271,0.3814,0.4445,0.5331,0.6035L40,65.793l0.0725-0.0729c0.0758-0.0794,0.1582-0.1694,0.2471-0.2699
	l0.2856-0.33241l0.2718-0.3294l0.3943-0.495l0.7508-0.9771l2.0486-2.7105l0.642-0.8273l0.4211-0.5203l0.2707-0.3164l0.1621-0.1788
	l0.1494-0.1551c0.024-0.0239,0.0474-0.0469,0.0705-0.0691l0.1335-0.1225l0.1249-0.1028c0.0202-0.0156,0.0401-0.0305,0.0598-0.0446
	l0.1153-0.0765c0.0188-0.0114,0.0375-0.0221,0.056-0.0323l0.1094-0.0537l0.1076-0.0408c0.0179-0.0057,0.0358-0.0111,0.0537-0.0159
	l0.1081-0.0242c0.0181-0.0033,0.0364-0.0061,0.0548-0.0087l0.1123-0.0114l0.1171-0.0049L59,58c3.8352,0,6.8852-3.8544,6.9968-8.7233
	L66,49V23c0-4.9062-2.979-8.8515-6.7838-8.9959L59,14H21c-3.9075,0-7,4.0012-7,9c0,0.5523-0.4477,1-1,1s-1-0.4477-1-1
	c0-5.907,3.7313-10.8333,8.744-10.9959L21,12H59z M62,63c0-0.5523,0.4477-1,1-1s1,0.4477,1,1s-0.4477,1-1,1S62,63.5523,62,63z
	 M60,63c0-0.5523-0.4477-1-1-1H49l-0.1166,0.0067C48.386,62.0645,48,62.4872,48,63c0,0.5523,0.4477,1,1,1h10l0.1166-0.0067
	C59.614,63.9355,60,63.5128,60,63z"/>
  </g>
</svg>
