<svg width="80px" height="80px" viewBox="0 0 80 80" xmlns="http://www.w3.org/2000/svg">
  <style>
    .fr-artwork-decorative {
      fill: #ECECFF;
    }
    .fr-artwork-minor {
      fill: #E1000F;
    }
    .fr-artwork-major {
      fill: #000091;
    }
  </style>
  <symbol id="artwork-decorative">
    <path d="M64 13a1.001 1.001 0 0 1 0-2 1.001 1.001 0 0 1 0 2ZM23 68a1.001 1.001 0 0 1 0-2 1.001 1.001 0 0 1 0 2ZM71 59a1.001 1.001 0 0 1 0-2 1.001 1.001 0 0 1 0 2ZM10 56a1.001 1.001 0 0 1 0-2 1.001 1.001 0 0 1 0 2ZM22 9a1.001 1.001 0 0 1 0-2 1.001 1.001 0 0 1 0 2Z"/>
  </symbol>
  <symbol id="artwork-minor">
    <path d="M50.086 41a1 1 0 0 1 1 1l-.001 1h6a1 1 0 1 1 0 2h-1.669a25.008 25.008 0 0 1-4.822 7.806 27.687 27.687 0 0 0 5.557 4.332c.043.026.084.054.122.084l2.896-6.623.01-.02-.005.009.023-.046-.016.033.036-.07.014-.024a.975.975 0 0 1 .103-.141l.025-.028.026-.026a1.159 1.159 0 0 1 .123-.102 1.072 1.072 0 0 1 .099-.062l.036-.019.042-.02.02-.008.029-.011.014-.006.06-.019a.98.98 0 0 1 .19-.035l.025-.002.062-.002h.043l.019.002.03.002a1.068 1.068 0 0 1 .29.071l.02.009.041.02.028.013a1.032 1.032 0 0 1 .384.364l.014.024c.014.024.027.049.039.074l.009.02 7 16a1 1 0 0 1-1.833.802L63.806 62h-7.442l-2.362 5.4a1 1 0 0 1-1.833-.8l3.33-7.61a.995.995 0 0 1-.363-.128 29.76 29.76 0 0 1-5.947-4.63 24.988 24.988 0 0 1-6.775 4.541 1 1 0 0 1-.827-1.82 23.033 23.033 0 0 0 6.245-4.188c-1.135-1.321-2.106-2.712-2.849-4.123a1 1 0 0 1 1.77-.932c.646 1.227 1.491 2.448 2.48 3.616A22.97 22.97 0 0 0 53.258 45L42.086 45a1 1 0 1 1 0-2h6.999v-1a1 1 0 0 1 1-1Zm9.999 12.494L57.239 60h5.692l-2.846-6.506Zm3-10.494a1 1 0 1 1 0 2h-2a1 1 0 1 1 0-2h2Z"/>
  </symbol>
  <symbol id="artwork-major">
    <path d="m26.028 45.214.149.608C29.127 46.572 32.46 47 36 47a1 1 0 1 1 0 2c-3.244 0-6.345-.342-9.177-.967 1.663 5 4.292 8.5 7.198 9.597.651.246 1.312.37 1.979.37a1 1 0 0 1 .117 1.993L36 60a23.898 23.898 0 0 1-14.783-5.092A23.956 23.956 0 0 1 12 36c0-13.255 10.745-24 24-24 13.122 0 23.785 10.531 23.997 23.603L60 36a1 1 0 0 1-.883.993L59 37l-33.989.001c.066 2.872.414 5.648 1.017 8.213Zm-11.12-2.942.106.347a21.991 21.991 0 0 0 7.436 10.714 21.905 21.905 0 0 0 7.282 3.761c-2.195-2.203-3.994-5.546-5.183-9.64-4.063-1.18-7.423-2.976-9.64-5.182ZM23.011 37h-8.917c.632 3.352 4.397 6.356 9.876 8.176-.57-2.575-.897-5.334-.96-8.176Zm.956-10.178-.3.102c-5.315 1.83-8.954 4.784-9.573 8.075h8.917c.063-2.881.395-5.637.956-8.177ZM36 25c-3.538 0-6.872.427-9.822 1.178-.68 2.671-1.094 5.656-1.167 8.822H46.99c-.073-3.166-.487-6.151-1.167-8.822C42.872 25.428 39.538 25 36 25Zm12.032 1.824.012.048c.554 2.526.883 5.265.945 8.129L57.906 35c-.631-3.352-4.396-6.356-9.874-8.176ZM29.731 14.906l-.025.007a22.048 22.048 0 0 0-14.8 14.817c2.218-2.207 5.579-4.003 9.641-5.183 1.18-4.063 2.976-7.423 5.183-9.64Zm12.538 0 .123.125c2.151 2.218 3.903 5.529 5.061 9.516 4.063 1.18 7.423 2.976 9.64 5.183A22.048 22.048 0 0 0 42.27 14.906ZM36 14c-3.75 0-7.177 3.95-9.176 9.968C29.654 23.342 32.756 23 36 23c3.244 0 6.345.342 9.177.967-1.965-5.91-5.306-9.825-8.976-9.963L36 14Z"/>
  </symbol>
  <use class="fr-artwork-decorative" href="#artwork-decorative"/>
  <use class="fr-artwork-minor" href="#artwork-minor"/>
  <use class="fr-artwork-major" href="#artwork-major"/>
</svg>
