<svg width="80px" height="80px" viewBox="0 0 80 80" xmlns="http://www.w3.org/2000/svg">
 	<style>
		.fr-artwork-decorative {
			fill: #ECECFF;
		}
		.fr-artwork-minor {
			fill: #E1000F;
		}
		.fr-artwork-major {
			fill: #000091;
		}
	</style>
	<g class="fr-artwork-decorative" id="artwork-decorative">
    <path d="M75,62c-0.5514,0-1-0.4486-1-1s0.4486-1,1-1s1,0.4486,1,1S75.5514,62,75,62z M59,6c-0.5514,0-1-0.4486-1-1
	c0-0.55145,0.4486-1,1-1s1,0.44855,1,1C60,5.5514,59.5514,6,59,6z M10,68c-0.5514,0-1-0.4486-1-1s0.4486-1,1-1s1,0.4486,1,1
	S10.5514,68,10,68z"/>
  </g>
  <g class="fr-artwork-minor" id="artwork-minor">
    <path d="M12,26c0-0.55139,0.44861-1,1-1s1,0.44861,1,1s-0.44861,1-1,1S12,26.55139,12,26z M16,27
	c0.55139,0,1-0.44861,1-1s-0.44861-1-1-1s-1,0.44861-1,1S15.44861,27,16,27z M19,27c0.55139,0,1-0.44861,1-1s-0.44861-1-1-1
	s-1,0.44861-1,1S18.44861,27,19,27z M24,22v8c0,0.55231-0.44769,1-1,1h-3v1c0,0.70428-0.70209,1.17529-1.34137,0.94019
	l-0.10583-0.04578L14.76398,31H9c-0.51282,0-0.93549-0.38599-0.99329-0.88342L8,30v-8c0-0.55231,0.44769-1,1-1h14
	C23.55231,21,24,21.44769,24,22z M22,23H10v6h5c0.11639,0,0.23169,0.02032,0.34058,0.05981l0.10663,0.04578L18,30.38202V30
	c0-0.51282,0.38599-0.93549,0.88342-0.99329L19,29h3V23z M51,29c-0.55231,0-1,0.44769-1,1s0.44769,1,1,1s1-0.44769,1-1
	S51.55231,29,51,29z M56,30c0,2.76141-2.23859,5-5,5s-5-2.23859-5-5s2.23859-5,5-5S56,27.23859,56,30z M54,30
	c0-1.65692-1.34308-3-3-3s-3,1.34308-3,3s1.34308,3,3,3S54,31.65692,54,30z"/>
  </g>
  <g class="fr-artwork-major" id="artwork-major">
    <path d="M48.70709,63.29291c0.3905,0.3905,0.3905,1.02368,0,1.41418C46.5351,66.87909,43.51318,68,40,68
	c-0.55231,0-1-0.44769-1-1s0.44769-1,1-1c3.00702,0,5.51672-0.93091,7.29291-2.70709
	C47.68341,62.9024,48.31659,62.9024,48.70709,63.29291z M51,60c-0.55139,0-1,0.44861-1,1s0.44861,1,1,1s1-0.44861,1-1
	S51.55139,60,51,60z M63,37h4l0.11658-0.00671C67.61401,36.93549,68,36.51282,68,36c0-0.55231-0.44769-1-1-1h-4l-0.11658,0.00671
	C62.38599,35.06451,62,35.48718,62,36C62,36.55231,62.44769,37,63,37z M72,32v8l-0.00671,0.11658
	C71.93549,40.61401,71.51282,41,71,41h-3.76398l-3.78882,1.89441l-0.10577,0.04578C62.70209,43.17529,62,42.70428,62,42v-1h-3
	c-0.55231,0-1-0.44769-1-1v-8c0-0.55231,0.44769-1,1-1h12C71.55231,31,72,31.44769,72,32z M70,33H60v6h3l0.11658,0.00671
	C63.61401,39.06451,64,39.48718,64,40v0.38202l2.5528-1.27643l0.10663-0.04578C66.76831,39.02032,66.88361,39,67,39h3V33z
	 M59.71777,51.85309c0.63342,0.90491,0.41345,2.15192-0.49146,2.7854c-0.28821,0.20172-0.62354,0.32318-0.97192,0.35382L58.07928,55
	H48c0,5.21899-2.78101,8-8,8s-8-2.78101-8-8H21.92072c-1.10461,0-2-0.89539-2-2c0-0.35168,0.09271-0.69623,0.27179-1.00543
	l0.0968-0.15149l3.89142-5.4165c1.09906-1.5705,1.85339-4.09436,1.83087-6.065L25.99591,39.888l0.00427-0.86652l-0.00726-0.41998
	c-0.02374-1.80859,0.05481-3.46973,0.23798-4.98712l0.09198-0.69006c0.98291-6.71783,4.15192-10.45703,9.74231-11.56842
	C36.02313,21.2453,36,21.12543,36,21c0-3.81378,1.31171-6,4-6s4,2.18622,4,6c0,0.1394-0.0285,0.27222-0.08008,0.39282
	c1.11987,0.2453,2.14777,0.6062,3.08496,1.08527c0.4917,0.2514,0.68665,0.85382,0.43524,1.34558
	c-0.2514,0.4917-0.85382,0.68665-1.34564,0.43524C44.45569,23.42108,42.43347,23,40,23
	c-8.52283,0-12.15833,4.50739-12.00732,15.5755l0.00714,0.40289l-0.00323,0.91833l0.00189,0.0481
	c0.12982,2.34985-0.68927,5.336-2.00397,7.36768l-0.18243,0.271L21.92072,53l36.15826-0.00098l-3.8974-5.42432
	c-1.24921-1.77899-2.09088-4.2265-2.17596-6.36951l-0.00714-0.35419l0.00195-0.87921
	c0.01807-0.6402,0.02356-1.26123,0.01648-1.86322c-0.00641-0.55219,0.43597-1.00507,0.98828-1.0116
	c0.55219-0.00641,1.00519,0.43604,1.0116,0.98834c0.00494,0.41925,0.00403,0.84674-0.00269,1.28278l-0.01453,0.6601l-0.0011,0.823
	c-0.00006,1.69659,0.64923,3.76611,1.62665,5.2868l0.18695,0.2785L59.71777,51.85309z M37.99652,21.08423
	C38.63739,21.02789,39.30518,21,40,21c0.69391,0,1.362,0.03131,2.00439,0.0943C42.00153,21.06329,42,21.0318,42,21
	c0-2.85291-0.68829-4-2-4s-2,1.14709-2,4C38,21.02838,37.99878,21.05652,37.99652,21.08423z M46,55H34c0,4.11438,1.88562,6,6,6
	S46,59.11438,46,55z"/>
  </g>
</svg>
