<svg width="80px" height="80px" viewBox="0 0 80 80" xmlns="http://www.w3.org/2000/svg">
 	<style>
		.fr-artwork-decorative {
			fill: #ECECFF;
		}
		.fr-artwork-minor {
			fill: #E1000F;
		}
		.fr-artwork-major {
			fill: #000091;
		}
	</style>
	<symbol id="artwork-decorative">
    <path d="M17,8c-0.6,0-1-0.4-1-1c0-0.6,0.4-1,1-1s1,0.4,1,1C18,7.6,17.6,8,17,8z M7,64c-0.6,0-1-0.4-1-1s0.4-1,1-1
		s1,0.4,1,1S7.6,64,7,64z M77,58c-0.6,0-1-0.4-1-1s0.4-1,1-1s1,0.4,1,1S77.6,58,77,58z M61,6c-0.6,0-1-0.4-1-1c0-0.6,0.4-1,1-1
		s1,0.4,1,1C62,5.6,61.6,6,61,6z"/>
  </symbol>
  <symbol id="artwork-minor">
    <path d="M39,42c-3.3,0-6,2.7-6,6c0,2.2,1.2,4.2,3,5.2V57c0,1.7,1.3,3,3,3s3-1.3,3-3v-3.8c1.8-1,3-3,3-5.2
		C45,44.7,42.3,42,39,42z M40,57c0,0.6-0.4,1-1,1l-0.1,0c-0.5-0.1-0.9-0.5-0.9-1v-3h2V57z M39,52c-2.2,0-4-1.8-4-4s1.8-4,4-4
		s4,1.8,4,4S41.2,52,39,52z"/>
  </symbol>
  <symbol id="artwork-major">
    <path d="M61.5,59.7c0,1.5-1.2,2.5-2.8,2.8l-0.1,1h-1.2l-0.2-2.2c1.5-0.2,2.5-0.5,2.5-1.6c0-0.7-0.5-1.2-1.2-1.2
		c-0.7,0-1.1,0.4-1.6,1.1l-1.4-0.9c0.7-1.2,1.7-1.8,3.1-1.8C60.1,57,61.5,58.1,61.5,59.7z M58,64.3c-0.6,0-1.1,0.5-1.1,1.1
		s0.5,1.1,1.1,1.1c0.6,0,1.1-0.5,1.1-1.1S58.6,64.3,58,64.3z M61,48c-0.6,0-1,0.4-1,1s0.4,1,1,1s1-0.4,1-1S61.6,48,61,48z M26,49
		c0,0.6,0.4,1,1,1s1-0.4,1-1s-0.4-1-1-1S26,48.4,26,49z M68,62c0,5.5-4.5,10-10,10c-3.3,0-6.2-1.6-8-4H18c-2.2,0-3.9-1.9-4-4.3
		l0-0.2v-25c0-2.4,1.6-4.4,3.8-4.5l0.2,0h2.2c-0.1-0.3-0.2-0.6-0.2-1v-2c0-1.3,0.8-2.4,2-2.8c0,0,0,0,0,0l0-0.1v-3.8
		C22,15.7,29.2,10,39,10s17,5.7,17,14.2c0,0.6-0.4,1-1,1s-1-0.4-1-1C54,16.9,47.8,12,39,12c-8.6,0-14.8,4.7-15,11.9l0,0.3V28h4
		c1.7,0,3,1.3,3,3v2c0,0.4-0.1,0.7-0.2,1h16.3c-0.1-0.3-0.2-0.6-0.2-1v-2c0-1.7,1.3-3,3-3v-3.4c0-5.2-4.6-8.6-11.1-8.6
		c-5.7,0-10,2.7-10.9,6.8c-0.1,0.5-0.7,0.9-1.2,0.8c-0.5-0.1-0.9-0.7-0.8-1.2c1.1-5.2,6.3-8.4,12.9-8.4c7.4,0,12.9,4.1,13.1,10.3
		l0,0.3V28h3c1.7,0,3,1.3,3,3v2c0,0.4-0.1,0.7-0.2,1H58c2.2,0,3.9,1.9,4,4.3l0,0.2V45c0,0.6-0.4,1-1,1c-0.5,0-0.9-0.4-1-0.9l0-0.1
		v-6.5c0-1.3-0.8-2.4-1.8-2.5L58,36H18c-1,0-1.9,1-2,2.3l0,0.2V48h7c0.6,0,1,0.4,1,1c0,0.5-0.4,0.9-0.9,1L23,50h-7v6h6l0.2,0
		c1.6,0.1,2.8,1.4,2.8,3v7h23.8c-0.5-1.2-0.8-2.6-0.8-4c0-5.5,4.5-10,10-10C63.5,52,68,56.5,68,62z M49,33c0,0.6,0.4,1,1,1h5
		c0.6,0,1-0.4,1-1v-2c0-0.6-0.4-1-1-1h-5c-0.6,0-1,0.4-1,1V33z M22,33c0,0.6,0.4,1,1,1h5c0.6,0,1-0.4,1-1v-2c0-0.6-0.4-1-1-1h-5
		c-0.6,0-1,0.4-1,1V33z M23,59l0-0.1c-0.1-0.5-0.5-0.9-1-0.9h-6v5.5c0,1.3,0.8,2.4,1.8,2.5l0.1,0h5V59z M66,62c0-4.4-3.6-8-8-8
		s-8,3.6-8,8s3.6,8,8,8S66,66.4,66,62z"/>
  </symbol>
  <use class="fr-artwork-decorative" href="#artwork-decorative"/>
  <use class="fr-artwork-minor" href="#artwork-minor"/>
  <use class="fr-artwork-major" href="#artwork-major"/>
</svg>
