<svg width="80px" height="80px" viewBox="0 0 80 80" xmlns="http://www.w3.org/2000/svg">
 	<style>
		.fr-artwork-decorative {
			fill: #ECECFF;
		}
		.fr-artwork-minor {
			fill: #E1000F;
		}
		.fr-artwork-major {
			fill: #000091;
		}
	</style>
	<g class="fr-artwork-decorative" id="artwork-decorative">
    <path d="M68,13c-0.5514,0-1-0.4486-1-1s0.4486-1,1-1s1,0.4486,1,1S68.5514,13,68,13z M41,76c-0.5514,0-1-0.4486-1-1
	s0.4486-1,1-1s1,0.4486,1,1S41.5514,76,41,76z M15,10c-0.5514,0-1-0.4486-1-1c0-0.55145,0.4486-1,1-1s1,0.44855,1,1
	C16,9.5514,15.5514,10,15,10z"/>
  </g>
  <g class="fr-artwork-minor" id="artwork-minor">
    <path d="M37.339,46.579l-6.3821-7.5444l-0.1225-0.1318c-0.7627-0.7368-1.9196-0.7503-2.681-0.0392
	c-0.8036,0.7504-0.8754,2.032-0.1629,2.8741l8.1961,9.6873c0.0522,0.0617,0.1094,0.1191,0.1709,0.1716
	c0.6299,0.5381,1.5767,0.4637,2.1148-0.1662l17.531-20.5233l0.1107-0.1425c0.5983-0.8607,0.4847-2.0298-0.2604-2.7324
	c-0.8141-0.7676-2.0754-0.696-2.8043,0.1572L37.339,46.579z"/>
  </g>
  <g class="fr-artwork-major" id="artwork-major">
    <path d="M11.4406,45.0358c-2.78122-15.7729,7.7507-30.814,23.5236-33.5952c10.021-1.76699,20.065,1.8276,26.7095,9.2856
	c0.3673,0.4124,0.3309,1.0445-0.0815,1.4119c-0.4124,0.3674-1.0445,0.3309-1.4118-0.0815
	c-6.188-6.9455-15.5379-10.2917-24.8689-8.6464c-14.6852,2.5894-24.4907,16.5932-21.9013,31.2783s16.5932,24.4907,31.2783,21.9013
	s24.4907-16.5931,21.9013-31.2783c-0.0959-0.5439,0.2673-1.0625,0.8112-1.1585c0.5439-0.0959,1.0625,0.2673,1.1584,0.8112
	c2.7812,15.7729-7.7507,30.814-23.5236,33.5952C29.2629,71.3406,14.2218,60.8087,11.4406,45.0358z M70.224,46.9243
	c0.1228-0.5384,0.6589-0.8753,1.1973-0.7525c0.5385,0.1228,0.8754,0.6589,0.75259,1.1973
	c-1.3451,5.8963-4.2916,11.2812-8.4811,15.6016c-0.3844,0.3964-1.0175,0.4062-1.414,0.0217
	c-0.3965-0.3845-0.4062-1.0175-0.0218-1.414C66.1933,57.5191,68.9609,52.4613,70.224,46.9243z M72,42c-0.5523,0-1,0.4477-1,1
	s0.4477,1,1,1s1-0.4477,1-1S72.5523,42,72,42z"/>
  </g>
</svg>
