<svg width="80px" height="80px" viewBox="0 0 80 80" xmlns="http://www.w3.org/2000/svg">
 	<style>
		.fr-artwork-decorative {
			fill: #ECECFF;
		}
		.fr-artwork-minor {
			fill: #E1000F;
		}
		.fr-artwork-major {
			fill: #000091;
		}
	</style>
	<g class="fr-artwork-decorative" id="artwork-decorative">
    <path d="M69,12c0,0.55139-0.44861,1-1,1s-1-0.44861-1-1s0.44861-1,1-1S69,11.44861,69,12z M41,74
	c-0.55139,0-1,0.44861-1,1s0.44861,1,1,1s1-0.44861,1-1S41.55139,74,41,74z M15,8c-0.55139,0-1,0.44855-1,1c0,0.55139,0.44861,1,1,1
	s1-0.44861,1-1C16,8.44855,15.55139,8,15,8z"/>
  </g>
  <g class="fr-artwork-minor" id="artwork-minor">
    <path d="M17,21c0,0.55139-0.44861,1-1,1s-1-0.44861-1-1s0.44861-1,1-1S17,20.44861,17,21z M20,20
	c-0.55139,0-1,0.44861-1,1s0.44861,1,1,1s1-0.44861,1-1S20.55139,20,20,20z M24,20c-0.55139,0-1,0.44861-1,1s0.44861,1,1,1
	s1-0.44861,1-1S24.55139,20,24,20z M62,20H32l-0.11658,0.00671C31.38599,20.06451,31,20.48718,31,21c0,0.55231,0.44769,1,1,1h30
	l0.11658-0.00671C62.61401,21.93549,63,21.51282,63,21C63,20.44769,62.55231,20,62,20z M60.59998,42.20001
	c0.40784,0.30591,0.5155,0.86346,0.26904,1.29498l-0.06903,0.10498l-4.30267,5.737C56.81488,49.81299,57,50.38489,57,51
	c0,1.65692-1.34308,3-3,3s-3-1.34308-3-3c0-0.46307,0.10492-0.90179,0.29242-1.2934l-1.99951-1.99951
	c-0.3905-0.3905-0.3905-1.02368,0-1.41418c0.36047-0.36053,0.92767-0.38818,1.32001-0.08319l0.09418,0.08319l1.99951,1.99951
	C53.09821,48.10498,53.53693,48,54,48c0.31268,0,0.6142,0.04779,0.89758,0.1366l4.30243-5.73657
	C59.53137,41.95819,60.1582,41.86859,60.59998,42.20001z M55,51c0-0.55231-0.44769-1-1-1s-1,0.44769-1,1s0.44769,1,1,1
	S55,51.55231,55,51z"/>
  </g>
  <g class="fr-artwork-major" id="artwork-major">
    <path d="M36.99329,62.88342L37,63c0,0.51282-0.38599,0.93549-0.88342,0.99329L36,64H12
	c-0.51282,0-0.93549-0.38599-0.99329-0.88342L11,63V17c0-0.51282,0.38599-0.93549,0.88342-0.99329L12,16h54
	c0.51282,0,0.93549,0.38599,0.99329,0.88342L67,17v16c0,0.55231-0.44769,1-1,1c-0.51282,0-0.93549-0.38599-0.99329-0.88342L65,33V18
	H13v6h37c0.55231,0,1,0.44769,1,1c0,0.51282-0.38599,0.93549-0.88342,0.99329L50,26H13v36h23
	C36.51282,62,36.93549,62.38599,36.99329,62.88342z M54,34c-9.38879,0-17,7.61121-17,17
	c0,8.62091,6.41699,15.74298,14.73511,16.8504l-0.4422,0.4425l-0.08319,0.09418c-0.30499,0.39233-0.27734,0.95953,0.08319,1.32001
	c0.3905,0.3905,1.02368,0.3905,1.41418,0l2-2c0.02942-0.02942,0.05701-0.06061,0.08258-0.09351
	c0.05573-0.07172,0.10101-0.14996,0.13452-0.23102c0.0426-0.10284,0.0686-0.21436,0.07452-0.33105
	C54.99957,67.03442,55,67.01727,55,67c0-0.13483-0.02667-0.26331-0.07501-0.38062c-0.04877-0.11877-0.1214-0.22998-0.2179-0.32648
	l-2-2l-0.09418-0.08319c-0.39233-0.30499-0.95953-0.27734-1.32001,0.08319l-0.08319,0.09418
	c-0.30499,0.39233-0.27734,0.95953,0.08319,1.32001l0.06,0.06012C44.33112,64.51691,39,58.38098,39,51c0-8.2843,6.7157-15,15-15
	s15,6.7157,15,15c0,3.49902-1.2005,6.81122-3.3645,9.46729c-0.34882,0.42822-0.28448,1.05811,0.14368,1.40692
	c0.42822,0.34882,1.05804,0.28448,1.40692-0.14374C69.63812,58.72083,71,54.9635,71,51C71,41.61121,63.38879,34,54,34z
	 M63.37518,62.71002c-0.5899,0.4729-1.21448,0.90076-1.86847,1.2796c-0.47791,0.27679-0.64093,0.88855-0.36414,1.36646
	s0.88861,0.64093,1.36652,0.36414c0.74121-0.42932,1.44891-0.91412,2.11713-1.44983c0.43091-0.34546,0.50018-0.97479,0.15466-1.4057
	C64.43542,62.43378,63.80609,62.3645,63.37518,62.71002z M62.7901,46.12402c-0.50708,0.21875-0.74078,0.80719-0.52209,1.31427
	C62.74878,48.55267,63,49.75781,63,51c0,4.97058-4.02942,9-9,9s-9-4.02942-9-9s4.02942-9,9-9
	c0.61743,0,1.2262,0.06201,1.82031,0.18402c0.54102,0.11096,1.06958-0.23755,1.18066-0.7785
	c0.11115-0.54102-0.23749-1.06964-0.7785-1.18073C55.49622,40.07568,54.75269,40,54,40c-6.07507,0-11,4.92493-11,11
	s4.92493,11,11,11s11-4.92493,11-11c0-1.51593-0.30737-2.99048-0.89557-4.354C63.88562,46.13892,63.29718,45.90521,62.7901,46.12402
	z M38.11658,33.99329C38.61401,33.93549,39,33.51282,39,33c0-0.55231-0.44769-1-1-1H20l-0.11658,0.00671
	C19.38599,32.06451,19,32.48718,19,33c0,0.55231,0.44769,1,1,1h18L38.11658,33.99329z M34.11658,39.99329
	C34.61401,39.93549,35,39.51282,35,39c0-0.55231-0.44769-1-1-1H20l-0.11658,0.00671C19.38599,38.06451,19,38.48718,19,39
	c0,0.55231,0.44769,1,1,1h14L34.11658,39.99329z M20,44l-0.11658,0.00671C19.38599,44.06451,19,44.48718,19,45
	c0,0.55231,0.44769,1,1,1h12l0.11658-0.00671C32.61401,45.93549,33,45.51282,33,45c0-0.55231-0.44769-1-1-1H20z"/>
  </g>
</svg>
