<svg width="80px" height="80px" viewBox="0 0 80 80" xmlns="http://www.w3.org/2000/svg">
 	<style>
		.fr-artwork-decorative {
			fill: #ECECFF;
		}
		.fr-artwork-minor {
			fill: #E1000F;
		}
		.fr-artwork-major {
			fill: #000091;
		}
	</style>
	<symbol id="artwork-decorative">
    <path d="M68,13c-0.5514,0-1-0.4486-1-1s0.4486-1,1-1s1,0.4486,1,1S68.5514,13,68,13z M41,76c-0.5514,0-1-0.4486-1-1
	s0.4486-1,1-1s1,0.4486,1,1S41.5514,76,41,76z M15,10c-0.5514,0-1-0.4486-1-1c0-0.55145,0.4486-1,1-1s1,0.44855,1,1
	C16,9.5514,15.5514,10,15,10z"/>
  </symbol>
  <symbol id="artwork-minor">
    <path d="M42,34c0-1.1046-0.8954-2-2-2s-2,0.8954-2,2v16c0,1.1046,0.8954,2,2,2s2-0.8954,2-2V34z M42,58
	c0-1.1046-0.8954-2-2-2s-2,0.8954-2,2s0.8954,2,2,2S42,59.1046,42,58z"/>
  </symbol>
  <symbol id="artwork-major">
    <path d="M39.1056,12.5528c0.3491-0.6983,1.3115-0.735,1.7252-0.1103l0.0636,0.1103l27,54
	c0.31499,0.6299-0.1024,1.3652-0.7793,1.4408L67,68h-8c-0.5523,0-1-0.4477-1-1c0-0.5128,0.386-0.9355,0.8834-0.9933L59,66h6.381
	L40,15.236L14.618,66H53c0.5128,0,0.9355,0.386,0.9933,0.8834L54,67c0,0.5128-0.386,0.9355-0.8834,0.9933L53,68H13
	c-0.7043,0-1.1753-0.7021-0.9402-1.3414l0.0458-0.1058L39.1056,12.5528z M60,46c-0.5514,0-1-0.4486-1-1s0.4486-1,1-1s1,0.4486,1,1
	S60.5514,46,60,46z M62.8363,48.4515c-0.2741-0.419-0.8248-0.5753-1.2835-0.3459c-0.494,0.247-0.6942,0.8476-0.4472,1.3416l7,14
	l0.0581,0.1013c0.2741,0.419,0.82481,0.5753,1.2835,0.3459c0.494-0.247,0.69421-0.8476,0.4472-1.3416l-7-14L62.8363,48.4515z"/>
  </symbol>
  <use class="fr-artwork-decorative" href="#artwork-decorative"/>
  <use class="fr-artwork-minor" href="#artwork-minor"/>
  <use class="fr-artwork-major" href="#artwork-major"/>
</svg>
