<svg width="80px" height="80px" viewBox="0 0 80 80" xmlns="http://www.w3.org/2000/svg">
 	<style>
		.fr-artwork-decorative {
			fill: #ECECFF;
		}
		.fr-artwork-minor {
			fill: #E1000F;
		}
		.fr-artwork-major {
			fill: #000091;
		}
	</style>
	<g class="fr-artwork-decorative" id="artwork-decorative">
    <path d="M21,76c-0.5514,0-1-0.4486-1-1s0.4486-1,1-1s1,0.4486,1,1S21.5514,76,21,76z M67,12c-0.5514,0-1-0.4486-1-1
	s0.4486-1,1-1s1,0.4486,1,1S67.5514,12,67,12z M3,54c-0.5514,0-1-0.4486-1-1s0.4486-1,1-1s1,0.4486,1,1S3.5514,54,3,54z"/>
  </g>
  <g class="fr-artwork-minor" id="artwork-minor">
    <path d="M18,25c0,0.55231-0.44769,1-1,1s-1-0.44769-1-1s0.44769-1,1-1S18,24.44769,18,25z M23,24
	c-0.55231,0-1,0.44769-1,1s0.44769,1,1,1s1-0.44769,1-1S23.55231,24,23,24z M36.68378,42.05127l-6,2l-0.10846,0.04333
	c-0.45361,0.2121-0.68622,0.73511-0.52399,1.22162c0.17468,0.52399,0.74097,0.80707,1.26489,0.63245l6-2l0.10846-0.04327
	c0.45361-0.2121,0.68622-0.73511,0.52405-1.22162C37.77399,42.15979,37.2077,41.87671,36.68378,42.05127z M41.31622,45.94867l12-4
	l0.10846-0.04327c0.45361-0.2121,0.68622-0.73511,0.52405-1.22162c-0.17474-0.52399-0.74103-0.80707-1.26495-0.63251l-12,4
	l-0.10846,0.04333c-0.45361,0.2121-0.68622,0.73511-0.52399,1.22162C40.22601,45.84021,40.7923,46.12329,41.31622,45.94867z M67,64
	c-0.55231,0-1,0.44769-1,1s0.44769,1,1,1s1-0.44769,1-1S67.55231,64,67,64z M63,64c-0.55231,0-1,0.44769-1,1s0.44769,1,1,1
	s1-0.44769,1-1S63.55231,64,63,64z M49,60c-0.55231,0-1,0.44769-1,1s0.44769,1,1,1s1-0.44769,1-1S49.55231,60,49,60z M55,60h-2
	l-0.11658,0.00671C52.38599,60.06451,52,60.48718,52,61c0,0.55231,0.44769,1,1,1h2l0.11658-0.00671
	C55.61401,61.93549,56,61.51282,56,61C56,60.44769,55.55231,60,55,60z M45,60h-4l-0.11658,0.00671
	C40.38599,60.06451,40,60.48718,40,61c0,0.55231,0.44769,1,1,1h4l0.11658-0.00671C45.61401,61.93549,46,61.51282,46,61
	C46,60.44769,45.55231,60,45,60z M71.62799,29.84808l-0.22888,0.08643l-27.2511,9.91858
	c-0.07971,0.02899-0.1626,0.04773-0.2467,0.05579l-0.12683,0.00403l-5.38245-0.16931
	c-0.3678-0.01147-0.69592-0.22357-0.85992-0.54602l-0.04828-0.11145l-0.68414-1.87933
	c-0.08447-0.2323-0.07867-0.48267,0.00793-0.7052l-5.28479-6.17548c-0.45404-0.53052-0.2384-1.35114,0.41766-1.5899l3.75879-1.36798
	c0.3559-0.12964,0.75452-0.04694,1.0296,0.2135l4.87122,4.61206c0.01843,0.01752,0.03613,0.03552,0.05292,0.05402l2.57788-0.93829
	c0.51898-0.1889,1.09283,0.07867,1.28168,0.59772c0.17542,0.48187-0.04279,1.01105-0.49036,1.23547l-0.1073,0.0462l-3.53864,1.2879
	l-2.48645,2.62689l0.24066,0.6615l4.51501,0.1424l27.06952-9.85248c1.36121-0.49542,1.74939-0.90094,1.65308-1.29602
	l-0.01801-0.0592c-0.23151-0.63617-1.22522-1.146-2.73938-1.37531c-0.64899-0.09821-1.36853-0.13177-1.95819-0.12109
	l-0.37183,0.01343c-0.2901,0.0163-0.52649,0.0448-0.67468,0.08209l-0.07812,0.02338l-5.37207,1.95532l0.2771,0.05688
	c0.98767,0.20288,1.08838,1.5744,0.14081,1.91931l-8.45721,3.07819c-0.2301,0.08368-0.48303,0.08008-0.71069-0.01019
	L41.2124,27.88263c-0.85468-0.33905-0.8374-1.55481,0.02667-1.86932l4.69843-1.71008c0.17389-0.06329,0.362-0.07715,0.54327-0.03979
	l10.93695,2.24646l8.42609-3.06689c2.26227-0.82336,7.43457-0.04022,8.38568,2.57281
	C74.8396,27.69202,73.80219,28.99707,71.62799,29.84808z M57.56818,28.5827L46.35413,26.2793l-1.96112,0.71381l8.39502,3.32947
	L57.56818,28.5827z M39.76459,33.2713l-3.68671-3.48999l-1.82111,0.66278l3.88544,4.54083L39.76459,33.2713z"/>
  </g>
  <g class="fr-artwork-major" id="artwork-major">
    <path d="M38,67c0,0.51282-0.38599,0.93549-0.88342,0.99329L37,68H9c-0.55231,0-1-0.44769-1-1
	c0-0.51282,0.38605-0.93549,0.88336-0.99329L9,66h28C37.55231,66,38,66.44769,38,67z M10.02991,21.24249
	C9.87207,20.61139,10.34943,20,11,20h4.38159l-1.00061-2H13l-0.13318-0.00702c-1.1557-0.12396-1.1557-1.862,0-1.98596L13,16h5v-2h-1
	l-0.13318-0.00702c-1.1557-0.12396-1.1557-1.862,0-1.98596L17,12h6c1.28741,0,1.33173,1.86438,0.13318,1.99298L23,14h-1v2h5
	c1.28741,0,1.33173,1.86438,0.13318,1.99298L27,18h-1.38202l-1,2H29c0.65057,0,1.12793,0.61139,0.97009,1.24249l-2,8
	C27.85889,29.68768,27.45892,30,27,30h-2.99817l0.00348,1.89062l0.02167,3.43866l0.02094,1.97003l0.02692,1.8999l0.04498,2.42419
	l0.07086,2.85431l0.08722,2.65869l0.06,1.50098l0.08911,1.89142l0.07349,1.33582l0.07922,1.26489l0.08496,1.19366l0.09064,1.12262
	l0.0636,0.7088l0.0661,0.67712l0.10382,0.95605l0.1095,0.88464l0.07605,0.54987l0.07855,0.51813l0.07269,0.43829
	c0.12421,0.7171,0.25696,1.3244,0.39807,1.82129H27c0.55231,0,1,0.44769,1,1c0,0.51282-0.38599,0.93549-0.88342,0.99329L27,64
	h-1.97668c-0.01544,0.00037-0.03094,0.00037-0.0462,0h-9.95422c-0.01526,0.00037-0.03076,0.00037-0.0462,0H13
	c-0.55231,0-1-0.44769-1-1c0-0.51282,0.38599-0.93549,0.88342-0.99329L13,62h1.27631
	c0.14111-0.49689,0.27386-1.10419,0.39807-1.82129l0.07269-0.43829l0.07855-0.51813l0.07605-0.54987l0.07361-0.58185
	l0.10571-0.93219l0.1001-1.00378l0.09442-1.07501l0.08881-1.14636l0.08301-1.21753l0.10187-1.73383l0.11292-2.34448l0.06-1.50098
	l0.07111-2.11133l0.07416-2.81519l0.03674-1.78302l0.04797-3.12756l0.02094-1.97003l0.02167-3.43866L15.99823,30H13
	c-0.45892,0-0.85889-0.31232-0.97009-0.75751L10.02991,21.24249z M23.66241,62l-0.05463-0.23108l-0.12598-0.59863l-0.08112-0.43048
	l-0.07867-0.45569l-0.07642-0.48083l-0.0741-0.50598l-0.07172-0.53119l-0.10327-0.84424l-0.09821-0.901l-0.0625-0.63226
	l-0.11823-1.34064l-0.0556-0.70837l-0.07916-1.11011l-0.0741-1.1673l-0.09082-1.64557l-0.06219-1.30103l-0.07513-1.82422
	l-0.06598-1.92651l-0.0437-1.51208l-0.05048-2.1059l-0.04163-2.2088l-0.0459-3.50616l-0.02307-3.0993L22,30h-4.00098
	l-0.00891,2.96362l-0.03009,3.74146l-0.04053,2.93634l-0.03107,1.68256l-0.04944,2.15125l-0.04297,1.54449L17.73071,46.987
	l-0.07458,1.86249l-0.06201,1.32819l-0.0907,1.6795l-0.0741,1.1911l-0.10699,1.49695l-0.05701,0.70947l-0.0899,1.0155
	l-0.09521,0.95709l-0.10052,0.89868l-0.1059,0.84064l-0.07349,0.52795l-0.07587,0.50232l-0.07831,0.47644l-0.12189,0.66626
	L16.44,61.5517l-0.08673,0.38629L16.33801,62H23.66241z M16.61798,18l1,2h4.76379l0.99921-2H16.61798z M12.28101,22l1.5,6h12.43701
	l1.5-6h-4.69794c-0.01385,0.00031-0.02777,0.00031-0.04181,0h-5.95654c-0.01404,0.00031-0.02795,0.00031-0.04181,0H12.28101z M72,61
	v6c0,0.55231-0.44769,1-1,1c-0.51282,0-0.93549-0.38599-0.99329-0.88342L70,67v-5H60v5c0,0.51282-0.38599,0.93549-0.88342,0.99329
	L59,68H43.40002c-0.55231,0-1-0.44769-1-1c0-0.51282,0.38599-0.93549,0.88336-0.99329L43.40002,66H58v-8H34v3
	c0,0.51282-0.38599,0.93549-0.88342,0.99329L33,62c-0.51282,0-0.93549-0.38599-0.99329-0.88342L32,61v-4
	c0-0.51282,0.38599-0.93549,0.88342-0.99329L33,56h9v-2h-1l-0.13318-0.00702c-1.1557-0.12396-1.1557-1.862,0-1.98596L41,52h10
	l0.13318,0.00702c1.1557,0.12396,1.1557,1.862,0,1.98596L51,54h-1v2h9c0.51282,0,0.93549,0.38599,0.99329,0.88342L60,57v3h11
	c0.51282,0,0.93549,0.38599,0.99329,0.88342L72,61z M48,54h-4v2h4V54z"/>
  </g>
</svg>
