<svg width="80px" height="80px" viewBox="0 0 80 80" xmlns="http://www.w3.org/2000/svg">
  <style>
    .fr-artwork-decorative {
      fill: #ECECFF;
    }
    .fr-artwork-minor {
      fill: #E1000F;
    }
    .fr-artwork-major {
      fill: #000091;
    }
  </style>
  <symbol id="artwork-decorative">
    <path d="M16 6a1 1 0 1 0 0-2 1 1 0 0 0 0 2ZM69 10a1 1 0 1 0 0-2 1 1 0 0 0 0 2ZM74 76a1 1 0 1 0 0-2 1 1 0 0 0 0 2ZM10 72a1 1 0 1 0 0-2 1 1 0 0 0 0 2Z"/>
  </symbol>
  <symbol id="artwork-minor">
    <path d="M30 44c-2.174 0-4 1.778-4 3.9v13.2c0 2.148 1.752 3.9 3.9 3.9h20.2c2.148 0 3.9-1.752 3.9-3.9V47.9c0-2.122-1.826-3.9-4-3.9a1 1 0 1 1 0-2c3.226 0 6 2.622 6 5.9v13.2c0 3.252-2.648 5.9-5.9 5.9H29.9a5.908 5.908 0 0 1-5.9-5.9V47.9c0-3.278 2.774-5.9 6-5.9a1 1 0 1 1 0 2Zm-2 4a1 1 0 0 1 1-1h22a1 1 0 1 1 0 2h-1v3a1 1 0 1 1-2 0v-3H29a1 1 0 0 1-1-1Zm10 10a1 1 0 0 1 1-1h10a1 1 0 0 1 1 1v4a1 1 0 0 1-1 1H39a1 1 0 0 1-1-1v-4Zm2 1v2h8v-2h-8Zm-6-17a1 1 0 1 0 0 2h12a1 1 0 1 0 0-2H34Z"  />  </symbol>
  <symbol id="artwork-major">
    <path fill-rule="evenodd" d="M33.41 14.455A.997.997 0 0 1 33.3 14v-.9c0-.554.221-1.08.469-1.499.257-.436.6-.854.968-1.215a6.189 6.189 0 0 1 1.216-.937C36.358 9.216 36.87 9 37.4 9h5.1c.555 0 1.08.221 1.499.468.436.258.854.6 1.215.97.362.368.691.788.937 1.215.233.405.449.917.449 1.447v.9a.996.996 0 0 1-.076.382c1.474.483 2.841 1.385 4.074 2.49 1.867 1.677 3.523 3.907 4.895 6.172.545.9 1.049 1.812 1.507 2.706V15c0-.548-.452-1-1-1h-3c-.548 0-1 .452-1 1a1 1 0 1 1-2 0c0-1.652 1.348-3 3-3h3c1.652 0 3 1.348 3 3v14.9c0 .087-.011.172-.032.253.287.757.52 1.446.69 2.036.2.696.342 1.345.342 1.811v6.153c2.8.643 5 2.895 5 5.704V53a1 1 0 1 1-2 0v-2h-3v11.699l-1 .001h-1V34c0-.16-.067-.572-.265-1.257-.188-.652-.47-1.47-.838-2.397a43.372 43.372 0 0 0-3.115-6.265c-1.315-2.173-2.853-4.223-4.52-5.72C47.586 16.858 45.878 16 44.2 16h-8.3c-1.271 0-2.544.512-3.823 1.445-1.282.936-2.516 2.255-3.686 3.767a1 1 0 1 1-1.582-1.224c.384-.496.781-.98 1.191-1.447V15c0-.548-.452-1-1-1h-3c-.548 0-1 .452-1 1v11.111c.2-.404.409-.804.625-1.195a1 1 0 1 1 1.75.968c-1.014 1.835-1.869 3.931-2.473 5.584a55.6 55.6 0 0 0-.881 2.61l-.021.068V62.7c0 1.35.775 2.91 2.032 4.168C25.29 68.125 26.85 68.9 28.2 68.9h23.6c1.35 0 2.91-.775 4.168-2.032C57.225 65.61 58 64.05 58 62.7h2c0 .333-.03.665-.086.995.632-.304 1.253-.81 1.785-1.463C62.518 61.225 63 60.016 63 59a1 1 0 1 1 2 0c0 1.584-.718 3.225-1.75 4.493-1.028 1.265-2.494 2.311-4.135 2.5l-.016.002a9.956 9.956 0 0 1-1.717 2.287C55.89 69.775 53.85 70.9 51.8 70.9H28.2c-2.05 0-4.09-1.125-5.582-2.618a9.956 9.956 0 0 1-1.717-2.287l-.011-.001C17.603 65.63 15 62.945 15 59.678V46.322c0-2.966 2.145-5.452 5-6.158V34c0-.095.014-.189.04-.28l.001-.005.004-.012.013-.044a36.04 36.04 0 0 1 .242-.775c.163-.506.4-1.214.7-2.038V15c0-1.652 1.348-3 3-3h3c1.652 0 3 1.348 3 3v1.543c.294-.252.593-.491.898-.713.788-.575 1.627-1.052 2.511-1.375ZM35.3 13.1c0-.045.029-.208.191-.482.152-.258.378-.54.647-.804.268-.263.555-.484.812-.632.128-.073.237-.122.322-.151.085-.029.125-.03.128-.031h5.1c.045 0 .208.029.483.19.257.153.54.379.803.648.264.268.484.555.632.812.073.128.122.237.151.322.03.089.031.13.031.128v.911a6.997 6.997 0 0 0-.4-.011h-8.3c-.202 0-.402.009-.6.027V13.1ZM60 42.222V49h3v-3.143c0-1.554-1.176-3.051-3-3.635Zm-40 .028c-1.781.64-3 2.267-3 4.072V49h3v-6.75ZM20 51h-3v8.678c0 1.839 1.266 3.495 3.102 4.107A5.973 5.973 0 0 1 20 62.7V51Z M27 33.868C27 28.352 30.619 24 35.86 24h8.182C49.208 24 53 28.279 53 33.868v1.107a1 1 0 1 0 2 0v-1.107C55 27.382 50.51 22 44.042 22H35.86C29.27 22 25 27.51 25 33.868V39a1 1 0 1 0 2 0v-5.132Z"/>
  </symbol>
  <use class="fr-artwork-decorative" href="#artwork-decorative"/>
  <use class="fr-artwork-minor" href="#artwork-minor"/>
  <use class="fr-artwork-major" href="#artwork-major"/>
</svg>
