<svg width="80px" height="80px" viewBox="0 0 80 80" xmlns="http://www.w3.org/2000/svg">
  <style>
    .fr-artwork-decorative {
      fill: #ECECFF;
    }
    .fr-artwork-minor {
      fill: #E1000F;
    }
    .fr-artwork-major {
      fill: #000091;
    }
  </style>
  <symbol id="artwork-decorative">
    <path d="M16 7a1.001 1.001 0 0 1 0-2 1.001 1.001 0 0 1 0 2ZM20 75a1.001 1.001 0 0 1 0-2 1.001 1.001 0 0 1 0 2ZM62 73a1.001 1.001 0 0 1 0-2 1.001 1.001 0 0 1 0 2ZM64 9a1.001 1.001 0 0 1 0-2 1.001 1.001 0 0 1 0 2ZM40 79a1.001 1.001 0 0 1 0-2 1.001 1.001 0 0 1 0 2Z"/>
  </symbol>
  <symbol id="artwork-minor">
    <path d="M48.82 39.9c-.07 0-.14 0-.22-.01a1.99 1.99 0 0 1-1.74-1.53 7.025 7.025 0 0 0-5.22-5.22c-.54-.13-.87-.67-.74-1.21.13-.54.67-.87 1.21-.74 1.63.39 3.11 1.22 4.3 2.41a9.042 9.042 0 0 1 2.41 4.3l6.02-12.73-8.17 3.87c-.5.24-1.09.02-1.33-.48s-.02-1.1.48-1.33l10.7-5.07a.99.99 0 0 1 1.13.2c.3.3.38.75.2 1.14l-7.23 15.26c-.34.7-1.03 1.13-1.8 1.14ZM40.05 63c-1.2 0-2.4-.09-3.61-.28a.994.994 0 0 1-.83-1.14c.09-.55.6-.91 1.14-.83 5.54.87 11.09-.47 15.62-3.78a.996.996 0 0 1 1.4.22c.33.45.23 1.07-.22 1.4-3.98 2.9-8.67 4.41-13.5 4.41Z"/>
  </symbol>
  <symbol id="artwork-major">
    <path d="M40 69c-15.99 0-29-13.01-29-29s13.01-29 29-29 29 13.01 29 29c0 5.24-1.42 10.38-4.09 14.86-.28.47-.9.63-1.37.35-.47-.28-.63-.9-.35-1.37C65.68 49.67 67 44.88 67 40c0-14.89-12.11-27-27-27S13 25.11 13 40s12.11 27 27 27c7.21 0 13.99-2.81 19.09-7.91a.996.996 0 1 1 1.41 1.41C55.03 65.98 47.75 69 40 69Z M8 41c-.55 0-1-.45-1-1 0-5.63 1.44-11.19 4.18-16.08.27-.48.88-.65 1.36-.39.48.27.65.88.39 1.36C10.36 29.49 9 34.71 9 40c0 .55-.45 1-1 1ZM40 45.06c-2.79 0-5.06-2.27-5.06-5.06 0-2.79 2.27-5.06 5.06-5.06 2.79 0 5.06 2.27 5.06 5.06 0 2.79-2.27 5.06-5.06 5.06Zm0-8.12a3.06 3.06 0 1 0 0 6.12 3.06 3.06 0 0 0 0-6.12ZM23.06 57.94c-.26 0-.52-.1-.71-.29-.3-.3-.38-.75-.2-1.13l7.23-15.26a1.97 1.97 0 0 1 2.01-1.13c.85.09 1.54.69 1.74 1.53a7.025 7.025 0 0 0 5.22 5.22c.54.13.87.67.74 1.21-.13.54-.67.87-1.21.74a9.042 9.042 0 0 1-4.3-2.41 8.943 8.943 0 0 1-2.4-4.3l-6.02 12.73 8.64-4.09c.5-.23 1.1-.02 1.33.48.24.5.02 1.09-.48 1.33l-11.17 5.29c-.12.04-.27.08-.42.08Z"/>
  </symbol>
  <use class="fr-artwork-decorative" href="#artwork-decorative"/>
  <use class="fr-artwork-minor" href="#artwork-minor"/>
  <use class="fr-artwork-major" href="#artwork-major"/>
</svg>
