<svg width="80px" height="80px" viewBox="0 0 80 80" xmlns="http://www.w3.org/2000/svg">
  <style>
    .fr-artwork-decorative {
      fill: #ECECFF;
    }
    .fr-artwork-minor {
      fill: #E1000F;
    }
    .fr-artwork-major {
      fill: #000091;
    }
  </style>
  <symbol id="artwork-decorative">
    <path d="M73 31a1.001 1.001 0 0 1 0-2 1.001 1.001 0 0 1 0 2ZM56 65a1.001 1.001 0 0 1 0-2 1.001 1.001 0 0 1 0 2ZM33 68a1.001 1.001 0 0 1 0-2 1.001 1.001 0 0 1 0 2ZM24 47a1.001 1.001 0 0 1 0-2 1.001 1.001 0 0 1 0 2ZM21 17a1.001 1.001 0 0 1 0-2 1.001 1.001 0 0 1 0 2Z"/>
  </symbol>
  <symbol id="artwork-minor">
    <path d="M13 42.612a1 1 0 1 0 0 2 1 1 0 0 0 0-2Zm-3 1a3 3 0 1 1 6 0 3 3 0 0 1-6 0Z M13 44.712a1 1 0 0 1 1 1v2.6a1 1 0 1 1-2 0v-2.6a1 1 0 0 1 1-1ZM29.3 28.613a1 1 0 1 0 0 2 1 1 0 0 0 0-2Zm-3 1a3 3 0 1 1 6 0 3 3 0 0 1-6 0Z M29.3 30.712a1 1 0 0 1 1 1v2.6a1 1 0 1 1-2 0v-2.6a1 1 0 0 1 1-1ZM47 24.012a1 1 0 1 0 0 2 1 1 0 0 0 0-2Zm-3 1a3 3 0 1 1 6 0 3 3 0 0 1-6 0Z M47 26.212a1 1 0 0 1 1 1v2.6a1 1 0 1 1-2 0v-2.6a1 1 0 0 1 1-1ZM42.4 41.913a1 1 0 1 0 0 2 1 1 0 0 0 0-2Zm-3 1a3 3 0 1 1 6 0 3 3 0 0 1-6 0Z M42.4 44.013a1 1 0 0 1 1 1v2.6a1 1 0 1 1-2 0v-2.6a1 1 0 0 1 1-1ZM56.4 48.013a1 1 0 1 0 0 2 1 1 0 0 0 0-2Zm-3 1a3 3 0 1 1 6 0 3 3 0 0 1-6 0Z M56.4 50.212a1 1 0 0 1 1 1v2.6a1 1 0 1 1-2 0v-2.6a1 1 0 0 1 1-1ZM55.9 32.313a1 1 0 1 0 0 2 1 1 0 0 0 0-2Zm-3 1a3 3 0 1 1 6 0 3 3 0 0 1-6 0Z M55.9 34.513a1 1 0 0 1 1 1v2.6a1 1 0 1 1-2 0v-2.6a1 1 0 0 1 1-1ZM62 14.813a1 1 0 1 0 0 2 1 1 0 0 0 0-2Zm-3 1a3 3 0 1 1 6 0 3 3 0 0 1-6 0Z M62 16.913a1 1 0 0 1 1 1v2.6a1 1 0 1 1-2 0v-2.6a1 1 0 0 1 1-1Z"/>
  </symbol>
  <symbol id="artwork-major">
    <path d="M52 42.212h2-2ZM40 31.212h2-2ZM56 26.212h2-2ZM10.24 28.613c-.4 0-.8-.3-1-.7l-.6-2.7c-.1-.5.2-1.1.7-1.2.5-.1 1.1.2 1.2.7l.7 2.6c.1.5-.2 1.1-.7 1.2-.1.1-.2.1-.3.1Zm2.7-2.4c-.4 0-.9-.1-1.3-.5-.5-.5-.4-1.2-.3-1.7 0-.2.1-.5 0-.6-.3-.5-.2-1.1.3-1.4.5-.3 1.1-.2 1.4.3.4.7.4 1.4.3 1.9h.2c.3-.1.7-.1 1.1-.1.6 0 1 .4 1 1s-.4 1-1 1c-.2 0-.5 0-.7.1h-1ZM59.44 19.813c-.5-1.7-1.2-2.2-1.8-2.4 0-.1-.1-.2-.1-.3-.1-.4-.3-1-.8-1.4-.5-.4-1-.3-1.4-.3h-.1c-.4-.2-.8-.2-1.2-.1l-.1-.1c-.7-.7-1.3-1-1.8-1.2-.1-.3-.3-.6-.5-.9-.7-.8-1.4-.8-1.8-.8-.1-.1-.1-.2-.2-.3-.4-.6-.7-1-1.7-1-1.1-.1-3.8.4-4.8 1.5-.9.9-1.3 1.9-1.3 3 0 .2 0 .5.1.7 0 .1 0 .3.1.3-.4.2-.7.3-1.1.4-.5.1-1 .3-1.7.8-.1 0-.2.1-.3.1-.5.1-1.3.4-1.5 1.2v.1c-.1 0-.2-.1-.3-.2l-.4-.4c-.3-.4-.7-.8-1.1-1.1-.6-.4-1.1-.3-1.5-.1-1.2-.3-2 0-2.4.3-.5.3-1.1.9-1.3 2.2-.1.7.2 1.3.7 2-.2-.2-.6-.5-1.2-.5-.9 0-2.7 0-4.4.3-.1 0-.1 0-.2.1l-.5.2c-1.6.6-4.2 1.5-3.7 3.9.1.5.1 1 .1 1 0 .3.1.6.4.8l.5.3c0 .5 0 1.2.6 1.7.2.2.6.7 1 1.1.4.5.7.8.8.9.2.2.4.3.7.3.3 0 .5-.1.7-.3.4-.4.3-1-.1-1.4-.1-.1-.4-.4-.7-.8-.4-.4-.8-.9-1-1.1v-.8c0-.3-.2-.6-.4-.8l-.5-.4c0-.3-.1-.6-.1-1-.1-.6 1.1-1.1 2.4-1.6l.4-.2c1.4-.2 2.9-.2 3.7-.2.4 1.2 1.3 1.1 1.8 1 0 0 .2 0 .3.1.3.1 1.4.4 1.9-.5s-.1-1.9-.7-2.8c-.2-.3-.5-.8-.6-1 .1-.4.2-.7.4-.8.2-.1.6-.1.8 0 .5.1.9.1 1.1 0 .2.1.3.3.5.5s.4.5.7.7c.5.4 1.5.9 2.4.7.5-.1.8-.4 1-.8.1-.3.1-.5.1-.7h.1c.3-.1.6-.2.9-.4.4-.3.7-.4 1.1-.5.4-.1 1-.3 1.6-.7 1.1-.7.9-1.7.8-2.3v-.4c0-.4.1-1 .7-1.7.4-.4 2.2-.9 3.2-.9 0 0 0 .1.1.1.1.1.2.3.3.5.6.8 1.3.7 1.6.7h.2c.1.1.3.5.4.8.1.3.4.6.8.7 0 0 .6.1 1.3.8.5.5 1.2 1 2 .7.4.1.7.1 1 .1 0 .1 0 .2.1.3.1.2.1.5.2.7.3.6.7.8 1 .9.2.1.4.2.7 1.2.2.5.7.8 1.2.7.7-.2 1-.7.8-1.2ZM12.24 38.513c-.5 0-.9-.4-1-.9-.1-.5.3-1 .9-1.1l.7-.1c-.4-.2-.9-.5-1.5-.8-.8-.4-1.1-1-1.3-1.4-.1-.2-.2-.4-.4-.6-.4-.4-.3-1 .1-1.4.4-.4 1-.3 1.4.1.3.3.5.7.6 1 .2.4.3.5.4.6 3.6 1.8 4.2 2.5 4 3.3-.1.4-.4.9-1.1 1l-2.8.4v-.1ZM17.94 48.712l-.3-.5c-.3-.5-.9-.6-1.4-.3-.5.3-.6.9-.3 1.4l.1.2-.1.7c-.1.1-.1.2-.2.3-.2.3-.5.6-.7.8-.1.1-.2.2-.2.4-.1.2-.2.6-.3.9 0 .1-.1.2-.1.2h-.1c-.1 0-.2 0-.3-.1h-.1l-.1-.1-.3-.3c-.2-.1-.4-.2-.7-.2-.1 0-.3 0-.4.1 0 0-.1 0-.2-.1 0 0-.1 0-.2-.1l.2-.4c.2-.3.2-.7 0-1l-.7-1.2c-.3-.5-.9-.6-1.4-.3-.5.3-.6.9-.3 1.4l.4.7-.7 1.1c-.2.3-.2.7 0 1 .2.3.5.5.8.5l.8.1h.1c.1.1.2.1.3.2.1.1.3.1.6.2h.5c.2.2.5.3.7.4.2.1.5.1.7.2h.8c.2 0 .5-.1.8-.3.1 0 .1-.1.1-.1l.2-.2c.1-.1.1-.2.2-.3.1-.2.2-.4.3-.5.1-.3.2-.6.3-.8.2-.2.4-.5.6-.7.1-.2.3-.3.4-.4 0-.1.1-.1.2-.2 0 0 .1-.1.1-.2 0 0 .1-.2.1-.3l.1-1.3c-.1-.4-.2-.7-.3-.9ZM17.34 64.213l.3-.4-.3.4Zm.3-.4c.2-.3.2-.6.1-.9l-.4-1.2.1-.4v-.5l-.1-.4c-.1-.4-.4-.6-.8-.7h-.4l-.7-.7-.2-.7c-.1-.4-.5-.7-.9-.7l-1.3-.1-1.6.3c-.1 0-.3.1-.4.1l-2 1.2c-.3.2-.5.5-.5.8v.6l-.3.3c-.2.3-.3.6-.2.9l.4.5c0 .2.1.3.3.4l.8.8.4.6.2.2c.1.1.2.2.4.3.1.1.3.2.6.3.1 0 .3.1.3.1h.3c.2 0 .5.1.8.1.6.1 1.2.2 1.6.2h.4l2.4-.7c.2-.1.4-.2.5-.4m-3.3-3.5.1.1.7.6c.1.1.3.2.4.2v.5l.2.8-1.6.5c-.4 0-.9-.1-1.4-.2-.3 0-.5-.1-.7-.1h-.2s-.1 0-.1-.1c-.1 0-.1-.1-.2-.1l-.2-.5c0-.1-.1-.1-.1-.2l-.5-.5.1-.1c.1-.2.2-.4.2-.6v-.3l1.3-.8 1.3-.2h.3l.1.2c0 .1.1.2.2.3l.1.5ZM71.44 65.412c0-.1-.1-.1-.2-.2.2-.5.2-.9.1-1.4 0-.2 0-.4-.1-.6 0-.1.1-.1.1-.1.2-.3.6-.8.5-1.6-.1-.8-.6-1.3-1-1.6l-.4-.4v-.6c0-.5 0-1.2-.6-1.7-.2-.1-.6-.3-1.3-.1-1 .4-4.1 3-3.8 4.7 0 .2.1.4.2.5 0 .1-.1.1-.1.2-.5 1 .3 1.8.6 2.1.1.1.2.2.3.2 0 .1 0 .2-.1.3-.3.9-.1 1.6.6 2 .1 0 .2.1.3.1.1.3.3.6.6.8.5.4 1.4.6 2.2.6.6 0 1.1-.1 1.6-.3.2-.1 1-.5 1.2-1.3 0-.7-.4-1.2-.7-1.6Zm-1.5-3.5c-.2.2-.5.7-.5 1.4 0 .3 0 .6.1.8v.3c-.5 1 .1 1.8.4 2.2-.3.1-1 .1-1.4-.1 0-.2-.1-.5-.2-.7-.2-.2-.4-.3-.6-.4.1-.3.1-.6 0-1-.1-.6-.5-.9-.8-1.2.1-.1.2-.3.3-.6.1-.6-.1-1-.4-1.3.2-.5 1-1.4 1.7-1.9 0 .3.1.6.2.9.2.5.6.7.8 1l.4.4v.2ZM69.34 46.413c-.1-.8-.7-1.7-1.1-2.1-.4-.5-.9-.6-1.3-.6.1-.2.1-.5-.1-.8-.1-.3-.3-.5-.5-.6.2-.2.4-.5.5-.8.2-.7-.2-1.9-.4-2.4-.1-.2-.3-.4-.5-.6.3-.3.4-.7.3-1.1-.1-.6-.5-1.1-.9-1.5-.1-.1-.3-.4-.4-.4v-.3c0-.4 0-1.2-.5-1.7.3-.3.6-.7.8-1.1.1-.1.4-.2.5-.2.6-.3 2-.9 1.7-2.2-.2-1.2-.3-1.7 0-2.6.1-.4.2-.6.3-.9.1-.3.2-.7.3-1.2 0-.1.1-.1.2-.3.2-.3.6-.8.5-1.6v-.4c0-.5 0-1.3-.8-1.9-.8-.6-1.6-.5-2.2-.4h-.6c-.6 0-1 .4-1 1s.4 1 1 1c.3 0 .6 0 .8-.1.5-.1.6-.1.8 0v.8l-.1.1c-.2.2-.4.5-.5.9-.2.5-.3.9-.4 1.3-.1.2-.1.5-.2.9-.4 1.3-.3 2.2-.1 3.4-.1.1-.3.2-.5.2-.6.3-1.4.6-1.6 1.4-.1.2-.7.6-1 .8-.5.3-1.2.8-1.1 1.6 0 .3.3.8 1 1 .1 0 .3.1.4 0h.2c0 .3 0 .6.1.9.1.6.5 1 .8 1.3l.1.1c-.8.5-.9 1.1-.8 1.6.2.8.9 1.2 1.5 1.3.1.3.1.5.1.7 0 0-.1 0-.1.1-.4.2-1.1.7-1 1.6.1.6.4.9.7 1.1-.2.3-.3.8-.1 1.3.5 1 1.6.9 2.1.8h.3c.3.4.5.8.6 1-.1.2-.3.5-.4.9 0 .2-.1.4-.1.6v.1l-.1.2-.3.3c-.2.2-.3.3-.7.6-.1.1-.2.1-.4.2-.4.2-.8.4-1.1.8-.3.3-.4.7-.5.9-.1.2-.1.2-.1.3-.4.3-.9.6-1.5.8-.6.2-1.6 0-1.9 0-.6-.1-1.1.2-1.2.8-.1.5.2 1.1.8 1.2.1 0 .7.1 1.5.1.4 0 .9 0 1.3-.2.9-.2 1.7-.6 2.3-1.2.4-.4.6-.8.7-1.1.1-.2.1-.3.1-.3.1-.1.3-.2.5-.3.3-.1.6-.3.8-.5.4-.4.6-.5.8-.8l.3-.3c.6-.6.7-1 .7-1.5v-.4l.1-.1c.4-.4.7-.8.6-1.5ZM52.94 53.913c-.1-.1-.1-.1-.1-.2s-.1-.2.3-.6c.4-.4.4-1 0-1.4-.4-.4-1-.4-1.4 0-.3.3-1.2 1.3-.7 2.6.1.4.3.7.5.9v.1c0 .3-.1.4-.1.4-.1 0-.2 0-.3.1-.4.1-.9.1-1.4.5-.4.2-.7.2-1.3 0-.6-.1-1.3-.2-1.9-.1-.4.1-.6.1-1.2-.3-.3-.2-.4-.4-.6-.6-.1-.2-.3-.4-.6-.6-.4-.3-.9-.4-1.4-.3-.4.1-.7.3-.9.6h-.4c-.4 0-.6-.1-.7-.1-.2 0-.4-.1-.8-.1h-.5c-.3 0-.9-.1-1-.1-.6-.6-1.3-.6-1.7-.6h-.4c-.1 0-.1-.1-.2-.2-.2-.3-.5-.7-1.1-.9-.2-.1-.4-.1-.7-.2-.2 0-.5-.1-.7-.2 0-.1-.1-.2-.2-.3-.2-.3-.3-.7-.7-1-.4-.3-.7-.4-1-.4v-.6c0-.1.2-.2.3-.3.2-.2.6-.6.8-1.1.1-.3.2-.5.3-.6.2-.5.3-.8.4-1.6 0-.2.1-.4.2-.7.1-.4.2-.9.2-1.3 0-.5-.1-.8-.2-.9v-.1c0-.4.1-.6.2-.9l.1-.4c.1-.3.1-.7.2-1.1v-.5c.1-.5 0-1-.1-1.4 0-.2-.1-.4-.1-.5 0-.1 0-.2.1-.3.1-.4.5-1.7-.7-2.2-.1-.1-.6-.4-.9-.7-.4-.4-1-.4-1.4 0-.4.4-.4 1 0 1.4.2.2.6.6 1.1.9v.1c0 .1-.1.4-.1.7 0 .4.1.7.1.9.1.3.1.4.1.6 0 .2-.1.5-.1.8 0 .2 0 .5-.1.6l-.1.4c-.1.4-.2.8-.3 1.3-.1.6.1.9.2 1.1v.2c0 .2-.1.5-.2.8-.1.3-.2.7-.2 1-.1.6-.1.7-.2 1-.1.2-.2.4-.3.7-.1.1-.2.3-.4.5-.4.4-.9.9-.9 1.8v.2c0 .5 0 1.2.7 1.9.4.4.8.4 1.1.4 0 .1.1.2.1.2.2.4.5.9 1 1.2.4.2.8.3 1.2.4.2 0 .4.1.5.1 0 0 .1.1.1.2.2.2.4.5.8.7.6.4 1.2.3 1.5.3h.3c.6.6 1.5.6 2.2.7h.4c.4 0 .5.1.7.1.2 0 .4.1.9.1.4 0 1.3.1 1.9-.4.2.3.5.6 1 1 1.1.7 1.8.7 2.6.6.3 0 .6-.1 1.1.1.3.1.7.2 1.2.2s1-.1 1.6-.4c.2-.1.4-.2.7-.2.9-.1 1.8-.4 2-2.2.2-1 0-1.4-.4-1.8Z"/>
  </symbol>
  <use class="fr-artwork-decorative" href="#artwork-decorative"/>
  <use class="fr-artwork-minor" href="#artwork-minor"/>
  <use class="fr-artwork-major" href="#artwork-major"/>
</svg>

