<svg width="80px" height="80px" viewBox="0 0 80 80" xmlns="http://www.w3.org/2000/svg">
 	<style>
		.fr-artwork-decorative {
			fill: #ECECFF;
		}
		.fr-artwork-minor {
			fill: #E1000F;
		}
		.fr-artwork-major {
			fill: #000091;
		}
	</style>
	<g class="fr-artwork-decorative" id="artwork-decorative">
    <path d="M70,69c-0.5514,0-1-0.4486-1-1s0.4486-1,1-1s1,0.4486,1,1S70.5514,69,70,69z M68,13c-0.5514,0-1-0.4486-1-1
	s0.4486-1,1-1s1,0.4486,1,1S68.5514,13,68,13z M14,69c-0.5514,0-1-0.4486-1-1s0.4486-1,1-1s1,0.4486,1,1S14.5514,69,14,69z M10,17
	c-0.5514,0-1-0.4486-1-1c0-0.5514,0.4486-1,1-1s1,0.4486,1,1C11,16.5514,10.5514,17,10,17z"/>
  </g>
  <g class="fr-artwork-minor" id="artwork-minor">
    <path d="M19,30c-1.65692,0-3,1.34308-3,3c0,1.30438,0.8374,2.40308,2,2.81635V39l0.00671,0.11658
	C18.06451,39.61401,18.48718,40,19,40c0.55231,0,1-0.44769,1-1v-3.18365c1.1626-0.41327,2-1.51196,2-2.81635
	C22,31.34308,20.65692,30,19,30z M19,34c-0.55231,0-1-0.44769-1-1s0.44769-1,1-1s1,0.44769,1,1S19.55231,34,19,34z M41,26
	c-1.65692,0-3,1.34308-3,3c0,1.30438,0.8374,2.40308,2,2.81635V35l0.00671,0.11658C40.06451,35.61401,40.48718,36,41,36
	c0.55231,0,1-0.44769,1-1v-3.18365c1.1626-0.41327,2-1.51196,2-2.81635C44,27.34308,42.65692,26,41,26z M41,30
	c-0.55231,0-1-0.44769-1-1s0.44769-1,1-1s1,0.44769,1,1S41.55231,30,41,30z M62,17c0-1.65692-1.34308-3-3-3s-3,1.34308-3,3
	c0,1.30438,0.8374,2.40308,2,2.81635V23l0.00671,0.11658C58.06451,23.61401,58.48718,24,59,24c0.55231,0,1-0.44769,1-1v-3.18365
	C61.1626,19.40308,62,18.30438,62,17z M59,18c-0.55231,0-1-0.44769-1-1s0.44769-1,1-1s1,0.44769,1,1S59.55231,18,59,18z M50,45
	l0.00671,0.11658C50.06451,45.61401,50.48718,46,51,46c0.55231,0,1-0.44769,1-1v-3.18365c1.1626-0.41327,2-1.51196,2-2.81635
	c0-1.65692-1.34308-3-3-3s-3,1.34308-3,3c0,1.30438,0.8374,2.40308,2,2.81635V45z M51,38c0.55231,0,1,0.44769,1,1s-0.44769,1-1,1
	s-1-0.44769-1-1S50.44769,38,51,38z M37,46c-1.65692,0-3,1.34308-3,3c0,1.30438,0.8374,2.40308,2,2.81635V55l0.00671,0.11658
	C36.06451,55.61401,36.48718,56,37,56c0.55231,0,1-0.44769,1-1v-3.18365c1.1626-0.41327,2-1.51196,2-2.81635
	C40,47.34308,38.65692,46,37,46z M37,50c-0.55231,0-1-0.44769-1-1s0.44769-1,1-1s1,0.44769,1,1S37.55231,50,37,50z M53,56
	c-1.65692,0-3,1.34308-3,3c0,1.30438,0.8374,2.40308,2,2.81635V65l0.00671,0.11658C52.06451,65.61401,52.48718,66,53,66
	c0.55231,0,1-0.44769,1-1v-3.18365c1.1626-0.41327,2-1.51196,2-2.81635C56,57.34308,54.65692,56,53,56z M53,60
	c-0.55231,0-1-0.44769-1-1s0.44769-1,1-1s1,0.44769,1,1S53.55231,60,53,60z"/>
  </g>
  <g class="fr-artwork-major" id="artwork-major">
    <path d="M67.51508,57.55048l-0.01617,0.02155l-0.00092,0.12549C67.46472,58.4624,67.1264,59.19,66.54468,59.7251
	l-0.15039,0.12958l-2.0528,1.64154l-0.09827,0.0694L63.7829,61.849l-0.0097,0.0661c-0.03027,0.15118-0.07251,0.29993-0.1264,0.44427
	l-0.08948,0.21332c-0.3042,0.65912-0.85541,1.18732-1.53198,1.48132l-0.18762,0.07428l-1.81683,0.646
	c-0.16644,0.05542-0.31366,0.09491-0.45868,0.12201l-0.1449,0.02301l-1.34558,0.185
	c-0.38049,0.05261-0.7757,0.03357-1.14972-0.05664c-0.53687-0.12927-0.86731-0.66949-0.73792-1.20636
	c0.12012-0.4986,0.59442-0.81903,1.09143-0.75873l0.11499,0.02081c0.08667,0.02087,0.17932,0.03088,0.2713,0.02979l0.13678-0.01019
	l1.35199-0.18579c0.04303-0.00568,0.08685-0.01471,0.13751-0.02881l0.08203-0.02509l1.7948-0.63849
	c0.26031-0.09332,0.47211-0.28394,0.57867-0.51489c0.04669-0.09979,0.07471-0.20642,0.08331-0.31433l0.00201-0.10809
	c-0.01361-0.32098,0.12781-0.62622,0.37518-0.82367l0.09772-0.06885l0.8421-0.52197l1.9978-1.59741
	c0.2381-0.19232,0.36481-0.46362,0.35876-0.74237l-0.0108-0.11975c-0.03485-0.2193,0.00433-0.44257,0.10931-0.63538l0.07092-0.11182
	l0.13269-0.18066c0.18982-0.242,0.24457-0.54773,0.15649-0.82831L65.9126,55.5589l-0.33276-0.69568
	c-0.20593-0.42603-0.70044-0.65222-1.1853-0.54572l-0.12085,0.03369l-0.2572,0.08801
	c-0.25317,0.08667-0.5285,0.06781-0.76538-0.04883l-0.11487-0.06628l-0.24213-0.16211
	c-0.46338-0.3103-0.57788-0.93286-0.27643-1.3847l0.07104-0.09399c0.12561-0.14777,0.20007-0.32532,0.21649-0.51648
	c0.02118-0.24493-0.05499-0.48114-0.21564-0.66998l-0.08716-0.09045l-0.14429-0.13226
	c-0.43231-0.39648-0.42731-1.06903-0.0141-1.461l0.09479-0.07953c0.20117-0.14911,0.33716-0.3642,0.38196-0.59247l0.01471-0.11499
	l0.05499-1.0152c0.0094-0.19434-0.04449-0.38605-0.1546-0.5517l-0.07275-0.09601l-0.76984-0.88611
	c-0.28131-0.32379-0.32196-0.78644-0.11377-1.15112l0.06989-0.1062c0.2121-0.28168,0.24261-0.65167,0.08948-0.9585l-0.06598-0.11182
	l-0.60242-0.87109l-0.27747-0.33649c-0.05609-0.06799-0.10284-0.14301-0.1391-0.2229l-0.04651-0.12341l-0.2168-0.71539
	c-0.08813-0.28992-0.31873-0.5238-0.6214-0.63379l-0.11682-0.03528c-0.672-0.16382-0.96777-0.935-0.61182-1.50092l0.0697-0.0976
	l1.9939-2.4776c0.10034-0.12463,0.22852-0.22284,0.37366-0.28723l0.11176-0.04181c0.08923-0.02734,0.17322-0.06494,0.24939-0.11108
	l0.10803-0.07532l1.16058-0.93256c0.20288-0.16333,0.32489-0.38269,0.35193-0.62164l0.00549-0.12085l-0.04944-2.92511
	c-0.0014-0.08063,0.00702-0.16089,0.0249-0.2392l0.03381-0.11572l0.63049-1.75537l0.02954-0.10382l0.01678-0.10687l0.04541-0.48682
	c0.00836-0.09052,0.02917-0.1792,0.0614-0.26373l0.05688-0.12329l0.88672-1.62109c0.17755-0.3241,0.13257-0.71808-0.09363-1.0072
	l-0.09198-0.10132l-2.35693-0.09576c-0.51239-0.021-0.91888-0.42389-0.9563-0.92322l-0.00195-0.11676
	c0.02087-0.51245,0.42389-0.91901,0.92316-0.95642l0.11682-0.00201l2.66748,0.10913c0.1709,0.00696,0.33734,0.05768,0.48303,0.1474
	c1.28711,0.79156,1.77478,2.40375,1.14856,3.74115l-0.08411,0.16565l-0.78674,1.43689l-0.02704,0.28906
	c-0.01556,0.15692-0.04248,0.30811-0.08221,0.45911l-0.06946,0.22699l-0.57233,1.59082l0.04681,2.73999
	c0.01727,0.84149-0.33142,1.63934-0.9549,2.21069l-0.14868,0.12781l-1.16266,0.93414
	c-0.18079,0.14478-0.37817,0.26837-0.58765,0.36877l-0.1189,0.05157l-1.07501,1.336l0.07037,0.06122
	c0.32959,0.3056,0.58978,0.68433,0.75311,1.11469l0.06403,0.1875l0.15948,0.52661l0.19879,0.24469l0.65442,0.94
	c0.51605,0.7489,0.6449,1.67169,0.3916,2.50519l-0.0578,0.1651l0.32605,0.37524c0.44855,0.52277,0.69934,1.1731,0.71375,1.85266
	l-0.00293,0.20471l-0.05548,1.0257c-0.02783,0.46991-0.16998,0.92059-0.4054,1.31799l-0.06,0.09271l0.08008,0.13348
	c0.24512,0.4436,0.37158,0.94574,0.36108,1.4613l-0.00916,0.15924l0.14996,0.01569c0.92853,0.12518,1.77332,0.6665,2.2486,1.51422
	l0.08472,0.1626l0.33569,0.7016C68.16309,55.63483,68.07471,56.7218,67.51508,57.55048z M53.22192,21.67999l0.88348,1.76721
	l0.05817,0.10132c0.27411,0.41901,0.82483,0.57526,1.28351,0.34589c0.49402-0.24701,0.69421-0.8476,0.4472-1.34161l-1-2
	l-0.06439-0.11047c-0.07117-0.1059-0.16217-0.19763-0.26849-0.26971l-0.71948-0.48859l-0.05151-0.21771
	c-0.17133-0.61029-0.54059-1.15509-1.065-1.55353l-0.17279-0.12146c-0.7063-0.461-1.58459-0.61761-2.40228-0.4198l-0.06842,0.0155
	l-0.06042-0.05884c-0.20966-0.18787-0.44708-0.34778-0.7066-0.47498l-0.82397-0.3963l-0.18652-0.08362
	c-0.06329-0.02588-0.12756-0.04962-0.19287-0.07117l-0.05359-0.01611l-0.03723-0.0376
	c-0.25281-0.23584-0.5451-0.4267-0.8728-0.56842l-0.01208-0.0379c-0.39783-1.03906-1.349-1.76007-2.46393-1.89386l-0.17596-0.01624
	l-0.32263-0.45477l-0.11755-0.1557c-0.73401-0.90625-1.96271-1.31451-3.12891-1.0343l-3.29504,0.82739l-0.20099,0.0578
	c-0.79236,0.2569-1.44257,0.81897-1.79791,1.5683l-0.72278,1.52698l-0.08179,0.19403
	c-0.14923,0.39227-0.21271,0.80878-0.18701,1.22479l0.09863,1.50049l-0.40503,0.35797l-3.26202,1.07855l-0.18738,0.06805
	c-0.73682,0.29535-1.31732,0.85901-1.62817,1.55774l-0.03143,0.07666l-0.55499-0.10596l-1.18231-1.224l-0.15009-0.14435
	c-0.61938-0.5556-1.46039-0.85175-2.2547-0.77618l-1.59027,0.0769l-0.20801,0.01813
	c-0.82581,0.09918-1.57092,0.51807-2.06683,1.17249c-0.54041,0.70691-0.729,1.61438-0.51221,2.47906l0.54089,2.12305
	l0.05133,0.15027l0.07819,0.18359l-0.28821-0.28339l-0.14801-0.13568c-0.60864-0.521-1.4115-0.7793-2.24805-0.72803l-4.01703,0.3479
	l-0.2019,0.02313c-0.26819,0.0401-0.53259,0.11719-0.79822,0.23248l-2.91077,1.3092l-0.16693,0.0813
	c-1.30695,0.68512-1.9259,2.19928-1.42511,3.5918l0.44244,1.22717l0.07953,0.19666c0.14429,0.32208,0.34686,0.61584,0.59625,0.86896
	l0.008,0.00751l0.0127,0.23718c0.04102,0.43634,0.1803,0.86182,0.41339,1.24121C11.33722,35.3667,12.07147,36,12.99988,36
	c0.55231,0,1-0.44769,1-1s-0.44769-1-1-1c-0.00537,0-0.01575-0.00513-0.03088-0.01617l-0.05872-0.05176l-0.08417-0.09186
	l-0.1073-0.13684c-0.01971-0.02679-0.04022-0.05566-0.06152-0.08679l-0.13727-0.21295l-0.0752-0.1275
	c-0.13434-0.21954-0.17419-0.45691-0.12622-0.68402l0.01788-0.12048c0.03131-0.36163-0.13641-0.71613-0.44427-0.92004
	l-0.1076-0.08069c-0.1347-0.1145-0.23389-0.25488-0.28851-0.40558l-0.44171-1.22522l-0.03119-0.1062
	c-0.09821-0.42639,0.12213-0.86707,0.5625-1.06561l2.89819-1.30359l0.11981-0.04498
	c0.07922-0.02509,0.15741-0.04041,0.23792-0.04681l3.99866-0.34662l0.13892-0.00055
	c0.27472,0.01428,0.52863,0.12067,0.70929,0.29797l0.7395,0.72449l0.09741,0.08405c0.27179,0.2052,0.63293,0.25958,0.95691,0.13678
	l0.15527-0.0589l0.11426-0.03589c0.1543-0.03961,0.3158-0.04559,0.4715-0.01709l0.5437,0.09467l0.11066,0.01331
	c0.73004,0.04822,1.27942-0.70038,0.97852-1.39569l-0.69128-1.59644l-0.51941-2.04089l-0.02118-0.11597
	c-0.02722-0.23254,0.03699-0.4671,0.18579-0.6618c0.18115-0.23914,0.46539-0.38721,0.78625-0.40448l1.6311-0.08002l0.12561-0.0022
	c0.2536,0.01331,0.5163,0.13171,0.69873,0.31958l1.40161,1.45129l0.09094,0.08319c0.12762,0.10315,0.27905,0.17365,0.44141,0.20441
	l1.82172,0.34662l0.11591,0.0152c0.53741,0.03918,1.01978-0.3606,1.06732-0.91162l0.01917-0.22266l0.0191-0.12292
	c0.07312-0.32202,0.32153-0.59363,0.66913-0.70752l3.45978-1.14368l0.12451-0.05072c0.08051-0.03918,0.15552-0.08917,0.2229-0.14868
	l0.92749-0.81763l0.09302-0.09357c0.1723-0.198,0.26111-0.45752,0.24341-0.7229l-0.13202-1.98743l0.00018-0.11267
	c0.00732-0.11304,0.03571-0.22589,0.08392-0.3299l0.71912-1.51904l0.06128-0.11005c0.13647-0.21112,0.354-0.36621,0.61792-0.43274
	l3.28436-0.82477l0.1308-0.02319c0.39362-0.04572,0.79083,0.12097,1.00531,0.42517l0.6181,0.8725l0.07562,0.09399
	c0.18829,0.2074,0.4566,0.32782,0.74036,0.32782h0.32062l0.12683,0.0069c0.41528,0.04529,0.75079,0.31189,0.86768,0.6864
	l0.11328,0.35638l0.04279,0.11133c0.1308,0.28766,0.39172,0.49921,0.70575,0.56476l0.14038,0.03931
	c0.18201,0.06439,0.34137,0.17572,0.45898,0.3208l0.07971,0.08734c0.14081,0.1369,0.31952,0.22998,0.51428,0.2663l0.0929,0.02167
	c0.0611,0.01733,0.12103,0.04022,0.17993,0.06909l0.82428,0.39655l0.10309,0.0575c0.1319,0.08325,0.24084,0.19189,0.31903,0.31757
	l0.07379,0.10339c0.23853,0.29303,0.62598,0.4295,1.0011,0.34253l0.67261-0.15588l0.13458-0.02325
	c0.27161-0.02875,0.55383,0.04761,0.7713,0.21222c0.21069,0.16003,0.34033,0.38043,0.37299,0.62292l0.01581,0.24597
	c0.03522,0.28394,0.19092,0.5415,0.43091,0.70441L53.22192,21.67999z M47.84192,64.242l0.36456-0.71033l0.04712-0.10687
	c0.17511-0.46899-0.02533-1.00519-0.48187-1.23883c-0.49164-0.25159-1.09412-0.05695-1.3457,0.43475l-0.54584,1.06665
	l-0.05066,0.11682c-0.07166,0.19897-0.07861,0.41669-0.01825,0.62158l0.53064,1.79901l0.02606,0.12061
	c0.0293,0.20337-0.01166,0.41669-0.11829,0.5968c-0.12891,0.22101-0.35889,0.3927-0.62891,0.46381l-2.18396,0.55969l-0.08661,0.0188
	C43.2901,67.99457,43.22607,68,43.16193,68l-0.21674-0.0191l-1.73999-0.30353l-0.12073-0.01324
	c-0.08087-0.00391-0.16199,0.00195-0.2417,0.0177l-0.83197,0.1637l-0.13721,0.01715c-0.18469,0.0116-0.3739-0.02167-0.5365-0.09607
	l-0.97198-0.45508l-0.10614-0.05743c-0.20386-0.12598-0.35565-0.31787-0.4245-0.53558L37.78821,66.599
	c-0.10742-0.23138-0.29999-0.41467-0.54028-0.50952l-0.80365-0.31677L36.28162,65.724l-0.3363-0.07013l-0.11993-0.01746
	c-0.31958-0.0271-0.63605,0.1012-0.8468,0.34961l-0.05426,0.05878l-0.06183,0.05658
	c-0.22839,0.19354-0.53632,0.28229-0.8418,0.23981l-3.47382-0.4516l-0.14099-0.0274
	c-0.09155-0.02417-0.17871-0.06018-0.26208-0.10822l-0.5907-0.33588l-0.11639-0.05658
	c-0.11963-0.04883-0.24792-0.0741-0.37793-0.0741h-0.88025l-0.12402-0.00714c-0.24579-0.02808-0.4762-0.13849-0.64203-0.30859
	l-0.59479-0.60858l-0.1004-0.08978c-0.07068-0.05511-0.14868-0.10065-0.23199-0.13513l-1.98517-0.82269l-0.1189-0.05859
	c-0.15302-0.08801-0.28204-0.21393-0.36804-0.35992l-0.40558-0.68695l-0.0611-0.09161
	c-0.08789-0.11719-0.20081-0.21399-0.33093-0.28308L22.3667,61.3844l-0.1095-0.06738
	c-0.20801-0.146-0.34857-0.35693-0.39673-0.59381c-0.05334-0.27283,0.02014-0.55298,0.2066-0.77228l1.32104-1.54901l0.07758-0.104
	c0.07062-0.10864,0.11969-0.23029,0.14398-0.3584l0.73309-3.8623l0.0141-0.06219l0.01996-0.06622
	c0.0741-0.22168,0.06818-0.46246-0.01672-0.6803l-0.03363-0.10492c-0.02686-0.10657-0.03375-0.21759-0.02008-0.33069l0.60669-5.104
	l0.0105-0.06836l0.04163-0.19525c0.02948-0.21844-0.01404-0.44208-0.12579-0.63495l-0.0528-0.1059
	c-0.04584-0.10852-0.07043-0.22375-0.07202-0.33801c-0.00391-0.26691,0.112-0.52899,0.3255-0.724l0.08661-0.08954
	c0.26721-0.31305,0.31757-0.76367,0.11481-1.13165l-0.04431-0.0918c-0.02588-0.06244-0.04449-0.12683-0.0556-0.1922
	l-0.02692-0.11621c-0.07849-0.2655-0.2644-0.48865-0.51569-0.61292l-0.99707-0.49139c-0.02185-0.0097-0.0448-0.01941-0.06952-0.0293
	l-0.17322-0.06451l-1.0694-0.35651l-0.39801-0.14398l-0.19379-0.0799l0.0957,0.12939
	c-0.33582-0.43842-0.9635-0.52161-1.40192-0.18579c-0.43848,0.33588-0.52161,0.96356-0.18579,1.40198
	c0.20679,0.2699,0.43781,0.40308,0.9422,0.59332l0.48938,0.1756l1.14075,0.3819l0.32458,0.1601l-0.01312,0.02362
	c-0.25018,0.44666-0.38257,0.9527-0.375,1.4726l0.01093,0.21228c0.02496,0.28192,0.09167,0.55908,0.19678,0.82227l0.00739,0.01825
	l-0.60907,5.12585l-0.01758,0.2038c-0.01392,0.27191,0.0105,0.54346,0.07245,0.80756l0.01324,0.04974L22.3772,53.7077
	l-0.68433,3.59827l-1.1485,1.34821l-0.12799,0.1615c-0.4873,0.6604-0.67609,1.48853-0.51715,2.29883l0.04749,0.19867
	c0.21661,0.78473,0.7478,1.44354,1.47791,1.83545l0.60327,0.32037l0.26239,0.44373l0.11609,0.18146
	c0.3269,0.47192,0.79095,0.84619,1.32782,1.06891l1.79669,0.7439l0.45044,0.46179l0.14746,0.14124
	c0.55719,0.49786,1.29144,0.7774,2.04974,0.7774l0.61639-0.00043l0.35559,0.20282l0.21356,0.112
	c0.29034,0.13788,0.60223,0.22968,0.92651,0.2713l3.46332,0.4502l0.19849,0.021c0.72852,0.05298,1.45782-0.15759,2.0495-0.59631
	l0.12604,0.04999l0.04626,0.08801c0.30402,0.53448,0.77271,0.9704,1.34369,1.23712l0.979,0.45837l0.19952,0.08301
	c0.53882,0.20233,1.12811,0.25214,1.69409,0.14471l0.65839-0.13019l1.65222,0.28467l0.38599,0.03351l0.19751-0.00269
	c0.25281-0.0094,0.46527-0.04193,0.66077-0.0946l2.17841-0.55823l0.19342-0.05756c0.69983-0.2334,1.29382-0.70624,1.65692-1.32874
	l0.09515-0.1745c0.32635-0.65027,0.39813-1.41119,0.19183-2.11877L47.84192,64.242z M34.99988,38l0.11664-0.00671
	c0.49731-0.0578,0.88336-0.48047,0.88336-0.99329c0-0.55231-0.44769-1-1-1h-2l-0.1167,0.00671
	c-0.49725,0.0578-0.8833,0.48047-0.8833,0.99329c0,0.55231,0.44775,1,1,1H34.99988z M54.99988,30h-2l-0.1167,0.00671
	c-0.49725,0.0578-0.8833,0.48047-0.8833,0.99329c0,0.55231,0.44775,1,1,1h2l0.11664-0.00671
	c0.49731-0.0578,0.88336-0.48047,0.88336-0.99329C55.99988,30.44769,55.55219,30,54.99988,30z M48.99988,50h-2l-0.1167,0.00671
	c-0.49725,0.0578-0.8833,0.48047-0.8833,0.99329c0,0.55231,0.44775,1,1,1h2l0.11664-0.00671
	c0.49731-0.0578,0.88336-0.48047,0.88336-0.99329C49.99988,50.44769,49.55219,50,48.99988,50z"/>
  </g>
</svg>
