<svg width="80px" height="80px" viewBox="0 0 80 80" xmlns="http://www.w3.org/2000/svg">
 	<style>
		.fr-artwork-decorative {
			fill: #ECECFF;
		}
		.fr-artwork-minor {
			fill: #E1000F;
		}
		.fr-artwork-major {
			fill: #000091;
		}
	</style>
	<g class="fr-artwork-decorative" id="artwork-decorative">
    <path d="M21,76c-0.5514,0-1-0.4486-1-1s0.4486-1,1-1s1,0.4486,1,1S21.5514,76,21,76z M77,24c-0.5514,0-1-0.4486-1-1
	s0.4486-1,1-1s1,0.4486,1,1S77.5514,24,77,24z M47,2c-0.5514,0-1-0.4486-1-1c0-0.55145,0.4486-1,1-1s1,0.44855,1,1
	C48,1.5514,47.5514,2,47,2z"/>
  </g>
  <g class="fr-artwork-minor" id="artwork-minor">
    <path d="M17,28c0.5128,0,0.9355,0.386,0.9933,0.8834L18,29v4c0,0.5523-0.4477,1-1,1
	c-0.5128,0-0.9355-0.386-0.9933-0.8834L16,33v-4C16,28.4477,16.4477,28,17,28z M17,46c0.5128,0,0.9355,0.386,0.9933,0.8834L18,47v10
	c0,0.5523-0.4477,1-1,1c-0.5128,0-0.9355-0.386-0.9933-0.8834L16,57V47C16,46.4477,16.4477,46,17,46z M23.9933,28.8834
	C23.9355,28.386,23.5128,28,23,28c-0.5523,0-1,0.4477-1,1v28l0.0067,0.1166C22.0645,57.614,22.4872,58,23,58c0.5523,0,1-0.4477,1-1
	V29L23.9933,28.8834z M29,28c0.5128,0,0.9355,0.386,0.9933,0.8834L30,29v2c0,0.5523-0.4477,1-1,1
	c-0.5128,0-0.9355-0.386-0.9933-0.8834L28,31v-2C28,28.4477,28.4477,28,29,28z M35.9933,28.8834C35.9355,28.386,35.5128,28,35,28
	c-0.5523,0-1,0.4477-1,1v2l0.0067,0.1166C34.0645,31.614,34.4872,32,35,32c0.5523,0,1-0.4477,1-1v-2L35.9933,28.8834z"/>
  </g>
  <g class="fr-artwork-major" id="artwork-major">
    <path d="M50.4472,46.10559l-8-4c-0.5722-0.28607-1.26221,0.03119-1.4173,0.65192l-2,8
	c-0.19788,0.79138,0.58411,1.47388,1.34149,1.17102l10-4C51.17249,47.60797,51.21899,46.49152,50.4472,46.10559z M41.44403,49.34399
	l1.224-4.89197L47.56,46.89801L41.44403,49.34399z M56,48c-2.76141,0-5,2.23859-5,5s2.23859,5,5,5s5-2.23859,5-5S58.76141,48,56,48z
	 M56,56c-1.65692,0-3-1.34308-3-3s1.34308-3,3-3c1.6568,0,3,1.34308,3,3S57.6568,56,56,56z M67,34h-7v-5l-0.00513-0.17633
	C59.90369,27.2489,58.59772,26,57,26H45l-0.17627,0.00513C43.2489,26.09631,42,27.40228,42,29v5h-9c-2.76141,0-5,2.23859-5,5v20
	c0,2.76141,2.23859,5,5,5h1.17072C34.06018,64.31281,34,64.64941,34,65c0,1.65692,1.34308,3,3,3s3-1.34308,3-3
	c0-0.35059-0.06018-0.68719-0.17072-1h20.34143C60.06018,64.31281,60,64.64941,60,65c0,1.65692,1.34308,3,3,3
	c1.6568,0,3-1.34308,3-3c0-0.35059-0.06018-0.68719-0.17072-1H67c2.76141,0,5-2.23859,5-5V39C72,36.23859,69.76141,34,67,34z M44,29
	l0.00671-0.11658C44.06451,28.38599,44.48718,28,45,28h12l0.11658,0.00671C57.61401,28.06451,58,28.48718,58,29v5h-2v-3
	l-0.00671-0.11658C55.93549,30.38599,55.51282,30,55,30h-8l-0.11658,0.00671C46.38599,30.06451,46,30.48718,46,31v3h-2V29z M54,32v2
	h-6v-2H54z M30,39c0-1.65692,1.34308-3,3-3h1v4h-4V39z M34,62h-1c-1.65692,0-3-1.34308-3-3v-1h4V62z M37,66
	c-0.55231,0-1-0.44769-1-1s0.44769-1,1-1s1,0.44769,1,1S37.55231,66,37,66z M63,66c-0.55231,0-1-0.44769-1-1s0.44769-1,1-1
	s1,0.44769,1,1S63.55231,66,63,66z M70,59c0,1.65692-1.3432,3-3,3h-1v-4h4V59z M70,56h-5l-0.11658,0.00671
	C64.38599,56.06451,64,56.48718,64,57v5H36v-5l-0.00671-0.11658C35.93549,56.38599,35.51282,56,35,56h-5V42h5l0.11658-0.00671
	C35.61401,41.93549,36,41.51282,36,41v-5h28v5l0.00671,0.11658C64.06451,41.61401,64.48718,42,65,42h5V56z M70,40h-4v-4h1
	c1.6568,0,3,1.34308,3,3V40z M23,62h-8l-0.17627-0.00513C13.2489,61.90369,12,60.59772,12,59V44.69299l7.35107-2.75671
	l0.10712-0.0473c0.48022-0.24646,0.68402-0.84058,0.43622-1.33618l-2-4l-0.06152-0.10638
	c-0.2467-0.37183-0.71637-0.53931-1.14911-0.39514L12,37.61261V27l0.00513-0.17633C12.09631,25.2489,13.40228,24,15,24h24
	l0.11658-0.00671C39.61401,23.93549,40,23.51282,40,23c0-0.55231-0.44769-1-1-1h-9v-6h1c1.65692,0,3-1.34308,3-3s-1.34308-3-3-3H19
	c-1.65692,0-3,1.34308-3,3s1.34308,3,3,3h1v6h-5l-0.21692,0.00458C12.12231,22.11823,10,24.31122,10,27v11.97668
	c-0.00037,0.01544-0.00037,0.03088,0,0.04639v4.95392c-0.00037,0.01538-0.00037,0.03088,0,0.04633V59l0.00458,0.21692
	c0.10205,2.3894,1.88092,4.34448,4.18982,4.71851C14.06879,64.2663,14,64.62512,14,65c0,1.65692,1.34308,3,3,3s3-1.34308,3-3
	c0-0.35059-0.06018-0.68719-0.17072-1H23l0.11658-0.00671C23.61401,63.93549,24,63.51282,24,63C24,62.44769,23.55231,62,23,62z
	 M28,22h-6v-6h6V22z M19,14c-0.55231,0-1-0.44769-1-1s0.44769-1,1-1h12c0.55231,0,1,0.44769,1,1s-0.44769,1-1,1H19z M12,39.72058
	l4.49298-1.4986l1.11499,2.23102L12,42.55682V39.72058z M17,66c-0.55231,0-1-0.44769-1-1s0.44769-1,1-1s1,0.44769,1,1
	S17.55231,66,17,66z"/>
  </g>
</svg>
