<svg width="80px" height="80px" viewBox="0 0 80 80" xmlns="http://www.w3.org/2000/svg">
  <style>
    .fr-artwork-decorative {
      fill: #ECECFF;
    }
    .fr-artwork-minor {
      fill: #E1000F;
    }
    .fr-artwork-major {
      fill: #000091;
    }
  </style>
  <symbol id="artwork-decorative">
    <path d="M72 9a1.001 1.001 0 0 1 0-2 1.001 1.001 0 0 1 0 2ZM26 73a1.001 1.001 0 0 1 0-2 1.001 1.001 0 0 1 0 2ZM8 51a1.001 1.001 0 0 1 0-2 1.001 1.001 0 0 1 0 2Z"/>
  </symbol>
  <symbol id="artwork-minor">
    <path d="M43.949 30c0 2.21-1.837 4-4.102 4a4.12 4.12 0 0 1-3.553-2c-.549-1-2.6-1-2.255-.002l.005.002c.845 2.33 3.124 4 5.803 4C43.245 36 46 33.314 46 30s-2.755-6-6.153-6c-2.679 0-4.958 1.67-5.803 4 .023.98 1.701 1 2.25 0a4.12 4.12 0 0 1 3.553-2c2.265 0 4.102 1.79 4.102 4Z"/>
  </symbol>
  <symbol id="artwork-major">
    <path d="M49.188 47.943C53.338 41.783 56 36.084 56 30.728 56 22.042 48.837 15 40 15s-16 7.042-16 15.728c0 8.267 6.34 17.349 14.711 27.689.425.524.855 1.052 1.289 1.583.434-.531.864-1.059 1.289-1.583a214.705 214.705 0 0 0 4.399-5.598c.89-1.313-.602-2.497-1.594-1.209A207.95 207.95 0 0 1 40 56.83c-3.846-4.764-7.188-9.187-9.654-13.352C27.547 38.749 26 34.55 26 30.728 26 23.178 32.236 17 40 17s14 6.178 14 13.728c0 3.822-1.547 8.021-4.346 12.75a67.644 67.644 0 0 1-2.062 3.255c-.734 1.293.716 2.254 1.596 1.21Z M34 55c-5.298.849-9 2.787-9 5.042 0 3.038 6.716 5.5 15 5.5 8.284 0 15-2.462 15-5.5 0-2.255-3.702-4.193-9-5.042-1 0-1.5 1.542 0 2.027 1.487.255 2.812.598 3.918 1.004 1.229.45 2.083.94 2.593 1.382.249.215.377.386.438.496a.49.49 0 0 1 .046.105.104.104 0 0 1 .005.028v.01a.104.104 0 0 1-.005.019.492.492 0 0 1-.046.105c-.061.11-.189.28-.438.496-.51.442-1.364.931-2.593 1.382-2.442.895-5.948 1.488-9.918 1.488-3.97 0-7.476-.593-9.918-1.488-1.229-.45-2.083-.94-2.593-1.382-.249-.216-.377-.387-.438-.496a.492.492 0 0 1-.046-.105.105.105 0 0 1-.005-.029c0-.003 0-.011.005-.028a.49.49 0 0 1 .046-.105c.061-.11.189-.28.438-.496.51-.442 1.364-.931 2.593-1.382 1.106-.406 2.43-.75 3.918-1.004 1.487-.254 1.5-1.985 0-2.027Z"/>
  </symbol>
  <use class="fr-artwork-decorative" href="#artwork-decorative"/>
  <use class="fr-artwork-minor" href="#artwork-minor"/>
  <use class="fr-artwork-major" href="#artwork-major"/>
</svg>

