<svg width="80px" height="80px" viewBox="0 0 80 80" xmlns="http://www.w3.org/2000/svg">
 	<style>
		.fr-artwork-decorative {
			fill: #ECECFF;
		}
		.fr-artwork-minor {
			fill: #E1000F;
		}
		.fr-artwork-major {
			fill: #000091;
		}
	</style>
	<g class="fr-artwork-decorative" id="artwork-decorative">
    <path d="M17,8c-0.5514,0-1-0.4486-1-1c0-0.55145,0.4486-1,1-1s1,0.44855,1,1C18,7.5514,17.5514,8,17,8z M21,76
	c-0.5514,0-1-0.4486-1-1s0.4486-1,1-1s1,0.4486,1,1S21.5514,76,21,76z M63,74c-0.5514,0-1-0.4486-1-1s0.4486-1,1-1s1,0.4486,1,1
	S63.5514,74,63,74z M65,10c-0.5514,0-1-0.4486-1-1c0-0.55145,0.4486-1,1-1s1,0.44855,1,1C66,9.5514,65.5514,10,65,10z M41,80
	c-0.5514,0-1-0.4486-1-1s0.4486-1,1-1s1,0.4486,1,1S41.5514,80,41,80z"/>
  </g>
  <g class="fr-artwork-minor" id="artwork-minor">
    <path d="M33,17c-1.65692,0-3,1.34308-3,3c0,1.30438,0.8374,2.40308,2,2.81635V26l0.00671,0.11658
	C32.06451,26.61401,32.48718,27,33,27c0.55231,0,1-0.44769,1-1v-3.18365c1.1626-0.41327,2-1.51196,2-2.81635
	C36,18.34308,34.65692,17,33,17z M33,21c-0.55231,0-1-0.44769-1-1s0.44769-1,1-1s1,0.44769,1,1S33.55231,21,33,21z M58,44
	c0-1.65692-1.34308-3-3-3s-3,1.34308-3,3c0,1.30438,0.8374,2.40308,2,2.81635V50l0.00671,0.11658
	C54.06451,50.61401,54.48718,51,55,51c0.55231,0,1-0.44769,1-1v-3.18365C57.1626,46.40308,58,45.30438,58,44z M55,45
	c-0.55231,0-1-0.44769-1-1s0.44769-1,1-1s1,0.44769,1,1S55.55231,45,55,45z M26,47c-1.65692,0-3,1.34308-3,3
	c0,1.30438,0.8374,2.40308,2,2.81635V56l0.00671,0.11658C25.06451,56.61401,25.48718,57,26,57c0.55231,0,1-0.44769,1-1v-3.18365
	c1.1626-0.41327,2-1.51196,2-2.81635C29,48.34308,27.65692,47,26,47z M26,51c-0.55231,0-1-0.44769-1-1s0.44769-1,1-1s1,0.44769,1,1
	S26.55231,51,26,51z"/>
  </g>
  <g class="fr-artwork-major" id="artwork-major">
    <path d="M72,20v3v3v3v3v2v28c0,0.51282-0.38599,0.93549-0.88342,0.99329L71,63H31c-0.55231,0-1-0.44769-1-1
	c0-0.51282,0.38599-0.93549,0.88342-0.99329L31,61h12.07935l-0.61896-0.88422c-0.31671-0.45251-0.20667-1.07599,0.24579-1.3927
	s1.07593-0.20667,1.39264,0.24573L45.52063,61h5.55872l-0.61896-0.88422c-0.31671-0.45251-0.20667-1.07599,0.24579-1.3927
	s1.07593-0.20667,1.39264,0.24573L53.52063,61H70V43h-1c-0.55231,0-1-0.44769-1-1s0.44769-1,1-1h1v-6c-0.55231,0-1-0.44769-1-1
	s0.44769-1,1-1v-1v-3v-3v-3v-2h-3h-3h-3h-1v3c0,0.55231-0.44769,1-1,1s-1-0.44769-1-1v-3h-8v1c0,0.55231-0.44769,1-1,1
	s-1-0.44769-1-1v-1h-7c-0.51282,0-0.93549-0.38599-0.99329-0.88342L40,20c0-0.51282,0.38599-0.93549,0.88342-0.99329L41,19h20h3h3h3
	h1c0.13361,0,0.25964,0.02838,0.37616,0.07593c0.03918,0.01593,0.06927,0.04449,0.10577,0.06512
	c0.07208,0.04065,0.14368,0.08044,0.20325,0.13708c0.03528,0.03357,0.05853,0.07544,0.08868,0.11377
	c0.04645,0.05896,0.09235,0.11633,0.12469,0.18488c0.0224,0.0473,0.03143,0.09869,0.04626,0.14978
	c0.01538,0.05286,0.04193,0.10077,0.04846,0.15686L72,20z M24,62c0,0.51282-0.38599,0.93549-0.88342,0.99329L23,63l-9.4223-0.00403
	C9.95514,62.67261,8,60.57782,8,57c0-0.1712,0.0047-0.33893,0.01416-0.50317l0.01685-0.24982l-0.00458-0.0177
	c-0.00867-0.0368-0.01526-0.0744-0.01971-0.11273L8,56l0.00079-33.0979c0.05328-3.19379,2.62683-5.75427,5.79401-5.8183
	l0.22192-0.00031l3.03326,0.05048c1.23462,0.02057,2.2757,0.78931,2.71753,1.86603H25c0.55231,0,1,0.44769,1,1
	c0,0.51282-0.38599,0.93549-0.88342,0.99329L25,21h-5v12h2c0.55231,0,1,0.44769,1,1s-0.44769,1-1,1h-2v6.21185
	c0.24438,0.18231,0.41309,0.45978,0.41309,0.78815S20.24438,42.60583,20,42.78815V50c0,1.59772-1.2489,2.90369-2.82367,2.99487
	L17,53l-2.91699-0.00348C11.25092,53.2326,10,54.48352,10,57c0,2.4516,1.08258,3.69061,3.42792,3.97479L13.66669,61H23
	C23.55231,61,24,61.44769,24,62z M10,52.35999l0.16132-0.11938c0.91101-0.65021,2.10291-1.05963,3.56201-1.21448L14,51h3
	c0.51282,0,0.93549-0.38599,0.99329-0.88342L18,50V20.13361c0-0.50684-0.37732-0.9267-0.86823-0.99139l-0.11505-0.00848
	l-3.03345-0.05054c-2.09589-0.03491-3.8349,1.58252-3.9743,3.6507l-0.00848,0.20154L10,52.35999z M25.41309,41h-3
	c-0.55231,0-1,0.44769-1,1s0.44769,1,1,1h3c0.55231,0,1-0.44769,1-1S25.96539,41,25.41309,41z M32.38379,43.97687
	c-0.45239,0.31671-0.5625,0.94025-0.24567,1.3927l1.72028,2.4577c0.31683,0.45245,0.94031,0.5625,1.3927,0.24585
	c0.45251-0.31683,0.5625-0.94031,0.24579-1.3927l-1.7204-2.4577C33.45978,43.7702,32.8363,43.66022,32.38379,43.97687z
	 M31.81042,43.15771c0.45239-0.31683,0.5625-0.94031,0.24567-1.3927l-0.23688-0.3385C31.63208,41.15918,31.32629,41,31,41h-2.58691
	c-0.55231,0-1,0.44769-1,1s0.44769,1,1,1l2.00464-0.08807C30.73438,43.36432,31.35791,43.47443,31.81042,43.15771z
	 M39.01959,55.20038l1.7204,2.4577c0.31671,0.45239,0.94019,0.5625,1.3927,0.24573c0.45239-0.31671,0.5625-0.94019,0.24579-1.3927
	l-1.7204-2.4577c-0.31665-0.45239-0.94031-0.56238-1.3927-0.24573C38.81293,54.12439,38.70288,54.74792,39.01959,55.20038z
	 M35.5788,50.28497l1.7204,2.4577c0.31671,0.45239,0.94031,0.5625,1.3927,0.24573c0.45251-0.31671,0.5625-0.94019,0.24579-1.3927
	l-1.7204-2.45758c-0.31671-0.45251-0.94019-0.5625-1.3927-0.24585C35.37219,49.20898,35.26208,49.83252,35.5788,50.28497z
	 M44.58691,41c-0.55231,0-1,0.44769-1,1s0.44769,1,1,1h3c0.55231,0,1-0.44769,1-1s-0.44769-1-1-1H44.58691z M48.73999,57.65808
	c0.31671,0.45239,0.94019,0.5625,1.3927,0.24573c0.45239-0.31671,0.5625-0.94019,0.24579-1.3927l-1.7204-2.4577
	c-0.31665-0.45239-0.94031-0.56238-1.3927-0.24573c-0.45245,0.31671-0.5625,0.94025-0.24579,1.3927L48.73999,57.65808z
	 M45.29919,52.74268c0.31671,0.45239,0.94031,0.5625,1.3927,0.24573c0.45251-0.31671,0.5625-0.94019,0.24579-1.3927l-1.7204-2.45758
	c-0.31671-0.45251-0.94019-0.5625-1.3927-0.24585c-0.45239,0.31671-0.5625,0.94025-0.24579,1.3927L45.29919,52.74268z
	 M43.49689,46.68042l-1.7204-2.4577c-0.31671-0.45251-0.94019-0.5625-1.3927-0.24585
	c-0.45239,0.31671-0.5625,0.94025-0.24567,1.3927l1.72028,2.4577c0.31683,0.45245,0.94031,0.5625,1.3927,0.24585
	C43.70361,47.75629,43.8136,47.13281,43.49689,46.68042z M41.58691,43c0.55231,0,1-0.44769,1-1s-0.44769-1-1-1H39
	c-0.80902,0-1.2832,0.91071-0.81921,1.57349l0.23694,0.33844c0.31665,0.45239,0.94019,0.5625,1.3927,0.24579
	C40.26282,42.84088,41.58691,43,41.58691,43z M62,42c0,0.55231,0.44769,1,1,1h3c0.55231,0,1-0.44769,1-1s-0.44769-1-1-1h-3
	C62.44769,41,62,41.44769,62,42z M49,24c-0.55231,0-1,0.44769-1,1v3c0,0.55231,0.44769,1,1,1s1-0.44769,1-1v-3
	C50,24.44769,49.55231,24,49,24z M24,34c0,0.55231,0.44769,1,1,1h3c0.55231,0,1-0.44769,1-1s-0.44769-1-1-1h-3
	C24.44769,33,24,33.44769,24,34z M37,35h3c0.55231,0,1-0.44769,1-1s-0.44769-1-1-1h-3c-0.55231,0-1,0.44769-1,1S36.44769,35,37,35z
	 M48,34c0,0.55231,0.44769,1,1,1s1-0.44769,1-1v-3c0-0.55231-0.44769-1-1-1s-1,0.44769-1,1V34z M43,35h3c0.55231,0,1-0.44769,1-1
	s-0.44769-1-1-1h-3c-0.55231,0-1,0.44769-1,1S42.44769,35,43,35z M31,35h3c0.55231,0,1-0.44769,1-1s-0.44769-1-1-1h-3
	c-0.55231,0-1,0.44769-1,1S30.44769,35,31,35z M41,31c0.55231,0,1-0.44769,1-1v-3c0-0.55231-0.44769-1-1-1s-1,0.44769-1,1v3
	C40,30.55231,40.44769,31,41,31z M43,27h3c0.55231,0,1-0.44769,1-1s-0.44769-1-1-1h-3c-0.55231,0-1,0.44769-1,1S42.44769,27,43,27z
	 M59,31c0.55231,0,1-0.44769,1-1v-3c0-0.55231-0.44769-1-1-1s-1,0.44769-1,1v3C58,30.55231,58.44769,31,59,31z M67,35
	c0.55231,0,1-0.44769,1-1s-0.44769-1-1-1h-3c-0.55231,0-1,0.44769-1,1s0.44769,1,1,1H67z M58,34c0,0.55231,0.44769,1,1,1h2
	c0.55231,0,1-0.44769,1-1s-0.44769-1-1-1h-1c0-0.55231-0.44769-1-1-1s-1,0.44769-1,1V34z"/>
  </g>
</svg>
