<svg width="80px" height="80px" viewBox="0 0 80 80" xmlns="http://www.w3.org/2000/svg">
  <style>
    .fr-artwork-decorative {
      fill: #ECECFF;
    }
    .fr-artwork-minor {
      fill: #E1000F;
    }
    .fr-artwork-major {
      fill: #000091;
    }
  </style>
  <symbol id="artwork-decorative">
    <path d="M74 74a1.001 1.001 0 0 1 0-2 1.001 1.001 0 0 1 0 2ZM76 43a1.001 1.001 0 0 1 0-2 1.001 1.001 0 0 1 0 2ZM4 41a1.001 1.001 0 0 1 0-2 1.001 1.001 0 0 1 0 2ZM15 13a1.001 1.001 0 0 1 0-2 1.001 1.001 0 0 1 0 2Z"/>
  </symbol>
  <symbol id="artwork-minor">
    <path d="M25.224 20.213C26.139 18.995 27.589 18 29.606 18c3.097 0 4.642 1.949 5.353 3.134 1.055-.077 2.068.277 2.854.863.982.733 1.71 1.904 1.71 3.244 0 1.641-.634 2.77-1.521 3.484-.842.677-1.822.911-2.45.99a.99.99 0 0 1-.125.008H17a1 1 0 0 1 0-2h18.361c.428-.061.966-.218 1.387-.556.394-.318.775-.863.775-1.926 0-.598-.333-1.214-.905-1.64-.568-.424-1.273-.586-1.91-.401a1 1 0 0 1-1.162-.493C33.078 21.824 32.11 20 29.606 20c-1.277 0-2.174.603-2.783 1.414-.634.845-.911 1.866-.911 2.51a1 1 0 0 1-1.187.982c-.183-.034-.57.02-.922.251-.324.213-.485.483-.485.79a1 1 0 0 1-2 0c0-1.146.654-1.98 1.385-2.46.391-.258.846-.443 1.307-.532a6.793 6.793 0 0 1 1.214-2.742Z"/>
    <path fill-rule="evenodd"
          d="M70.711 30.56V16.825c-1.729.54-3.486.872-5.504.702v13.493c.94.282 2.012.297 3.063.153a11.74 11.74 0 0 0 2.441-.611Zm-7.504-13.356v14.505a1 1 0 0 0 .584.91c1.543.706 3.28.735 4.75.535 1.479-.202 2.8-.65 3.591-1.019a1 1 0 0 0 .58-.907V15.43a1 1 0 0 0-1.341-.94c-2.376.86-4.423 1.363-6.992.914-.923-.16-1.93-.448-3.055-.902a1 1 0 0 0-.747 1.856c.926.373 1.798.651 2.63.847ZM15.041 57.657a1.2 1.2 0 0 1 .849-1.47l7.664-2.053a1.2 1.2 0 0 1 1.47.848l1.053 3.934a1.2 1.2 0 0 1-.848 1.47l-7.664 2.053a1.2 1.2 0 0 1-1.47-.848l-1.054-3.934Zm2.14.255.64 2.388 6.117-1.64-.64-2.388-6.118 1.64Zm12.663 2.396a1.709 1.709 0 1 1 3.418 0 1.709 1.709 0 0 1-3.418 0Zm1.709-3.709a3.709 3.709 0 1 0 0 7.418 3.709 3.709 0 0 0 0-7.418Z"
          clip-rule="evenodd"/>
  </symbol>
  <symbol id="artwork-major">
    <path d="M46 70a1 1 0 1 1 0-2h2V11a1 1 0 0 1 2 0v1.92c.634-.193 1.681-.366 2.455-.472 1.47-.2 3.207-.171 4.75.536.355.162.795.517.795.908v14.5c.833.195 1.493.474 2.419.847a1 1 0 1 1-.747 1.854c-1.126-.453-2.132-.74-3.056-.901-2.316-.405-4.524-.036-6.616.672V68h6A1 1 0 1 1 56 70H46Zm4-54.971v13.733c1.719-.534 3.995-.861 6-.692V14.582c-.94-.281-2.223-.296-3.275-.153-.924.126-2.09.367-2.725.6ZM68 70a1 1 0 1 0 0-2 1 1 0 0 0 0 2Zm-8-2a1 1 0 1 0 0 2h4a1 1 0 1 0 0-2h-4Z"/>
    <path fill-rule="evenodd"
          d="M10 28.72a1 1 0 1 1-2 0 1 1 0 0 1 2 0Zm3 1a1 1 0 1 0 0-2 1 1 0 0 0 0 2Zm2.574 13.428a4 4 0 0 1 4-4h11a4 4 0 0 1 4 4v4.133h4.85a3 3 0 0 1 3 3v16.714a3 3 0 0 1-3 3H11a3 3 0 0 1-3-3V50.281a3 3 0 0 1 3-3h4.574v-4.133Zm3.582 4.133h-1.582v-4.133a2 2 0 0 1 2-2h11a2 2 0 0 1 2 2v4.133h-1.581v-3.47c0-.58-.47-1.05-1.05-1.05h-9.737c-.58 0-1.05.47-1.05 1.05v3.47Zm9.837 0h-7.837v-2.52h7.837v2.52Zm-15.856 2H11a1 1 0 0 0-1 1v1.375h3.137v-2.375ZM10 53.656h4.137a1 1 0 0 0 1-1v-3.375H35.15v3.375a1 1 0 0 0 1 1h4.274v9.782a.969.969 0 0 0-.068-.002h-4.274a1 1 0 0 0-1 1v3.56H15.069v-3.56a1 1 0 0 0-1-1H10v-9.78Zm0 11.78v1.56a1 1 0 0 0 1 1h2.069v-2.56H10Zm27.08 2.56h2.343a1 1 0 0 0 1-1v-1.563a1.032 1.032 0 0 1-.068.003h-3.274v2.56Zm3.343-16.34v-1.375a1 1 0 0 0-1-1H37.15v2.375h3.274Z"
          clip-rule="evenodd"/>
  </symbol>
  <use class="fr-artwork-decorative" href="#artwork-decorative"/>
  <use class="fr-artwork-minor" href="#artwork-minor"/>
  <use class="fr-artwork-major" href="#artwork-major"/>
</svg>
