<svg xmlns="http://www.w3.org/2000/svg" viewBox="0 0 24 24" width="24" height="24">
<path d="M12 12.9998L18 21.9998H6L12 12.9998ZM10.9393 10.5604C10.3536 9.97462 10.3536 9.02487 10.9393 8.43909C11.5251 7.8533 12.4749 7.8533 13.0607 8.43909C13.6464 9.02487 13.6464 9.97462 13.0607 10.5604C12.4749 11.1462 11.5251 11.1462 10.9393 10.5604ZM5.28249 2.78223L6.6967 4.19644C3.76777 7.12538 3.76777 11.8742 6.6967 14.8031L5.28249 16.2173C1.5725 12.5073 1.5725 6.49221 5.28249 2.78223ZM18.7175 2.78223C22.4275 6.49221 22.4275 12.5073 18.7175 16.2173L17.3033 14.8031C20.2322 11.8742 20.2322 7.12538 17.3033 4.19644L18.7175 2.78223ZM8.11091 5.61066L9.52513 7.02487C8.15829 8.39171 8.15829 10.6078 9.52513 11.9747L8.11091 13.3889C5.96303 11.241 5.96303 7.75854 8.11091 5.61066ZM15.8891 5.61066C18.037 7.75854 18.037 11.241 15.8891 13.3889L14.4749 11.9747C15.8417 10.6078 15.8417 8.39171 14.4749 7.02487L15.8891 5.61066Z"/>
</svg>
