<svg xmlns="http://www.w3.org/2000/svg" viewBox="0 0 24 24" width="24" height="24">
<path d="M18.364 18.3639C21.8787 14.8491 21.8787 9.15062 18.364 5.6359L19.7782 4.22168C24.0739 8.51745 24.0739 15.4823 19.7782 19.7781L18.364 18.3639ZM5.63604 5.6359C2.12132 9.15062 2.12132 14.8491 5.63604 18.3639L4.22183 19.7781C-0.0739429 15.4823 -0.0739429 8.51745 4.22183 4.22168L5.63604 5.6359ZM15.5355 15.5353C17.4882 13.5827 17.4882 10.4169 15.5355 8.46421L16.9497 7.05C19.6834 9.78367 19.6834 14.2159 16.9497 16.9495L15.5355 15.5353ZM8.46447 8.46421C6.51184 10.4169 6.51184 13.5827 8.46447 15.5353L7.05025 16.9495C4.31658 14.2159 4.31658 9.78367 7.05025 7.05L8.46447 8.46421ZM12 13.9999C13.1046 13.9999 14 13.1044 14 11.9999C14 10.8953 13.1046 9.99986 12 9.99986C10.8954 9.99986 10 10.8953 10 11.9999C10 13.1044 10.8954 13.9999 12 13.9999Z"/>
</svg>
