<svg xmlns="http://www.w3.org/2000/svg" viewBox="0 0 24 24" width="24" height="24">
<path d="M2.80815 1.39355L20.4858 19.0712L19.0716 20.4854L15.3889 16.8035L12.0005 21.0001L0.689941 6.99686C1.60407 6.25759 2.59204 5.60601 3.64107 5.05491L1.39394 2.80777L2.80815 1.39355ZM3.57997 7.39195L12.0005 17.8171L13.9669 15.3805L5.13163 6.54451C4.59981 6.79768 4.08187 7.08052 3.57997 7.39195ZM12.0005 3.00015C16.2849 3.00015 20.2196 4.49699 23.3104 6.99623L17.9039 13.6891L16.4819 12.2671L20.4204 7.39147C17.9226 5.84183 15.0278 5.00015 12.0005 5.00015C11.1277 5.00015 10.2659 5.07012 9.42141 5.20686L7.72504 3.511C9.09547 3.17714 10.5273 3.00015 12.0005 3.00015Z"/>
</svg>
