<svg xmlns="http://www.w3.org/2000/svg" viewBox="0 0 24 24" width="24" height="24">
<path d="M12.0001 17.9992C12.7144 17.9992 13.3704 18.2489 13.8856 18.6657L12.0001 20.9992L10.1145 18.6657C10.6297 18.2489 11.2857 17.9992 12.0001 17.9992ZM2.80766 1.39258L20.4853 19.0703L19.0711 20.4845L15.3895 16.8036L15.1425 17.1099C14.2838 16.4153 13.1905 15.9992 12.0001 15.9992C10.81 15.9992 9.71712 16.4149 8.85862 17.1091L6.97363 14.7751C8.24961 13.7434 9.84925 13.096 11.5964 13.0092L9.82328 11.2368C8.29284 11.5765 6.89439 12.267 5.71658 13.2194L3.83099 10.886C4.89946 10.0218 6.10763 9.32353 7.41633 8.83033L5.88489 7.29821C4.69082 7.83197 3.5793 8.51724 2.57479 9.32958L0.689453 6.99589C1.60358 6.25662 2.59156 5.60503 3.64058 5.05394L1.39345 2.80679L2.80766 1.39258ZM16.0844 11.8686L12.2165 8.00158L12.0001 7.99918C15.0948 7.99918 17.9369 9.08056 20.1693 10.8861L18.284 13.2198C17.6163 12.6798 16.8777 12.224 16.0844 11.8686ZM12.0001 2.99918C16.2849 2.99918 20.22 4.49634 23.3109 6.99606L21.4254 9.32962C18.8497 7.24669 15.5706 5.99918 12.0001 5.99918C11.4284 5.99918 10.8642 6.03116 10.3091 6.09343L7.72455 3.51003C9.09498 3.17616 10.5268 2.99918 12.0001 2.99918Z"/>
</svg>
