<svg xmlns="http://www.w3.org/2000/svg" viewBox="0 0 24 24" width="24" height="24">
<path d="M12.0001 18.0001C12.7144 18.0001 13.3704 18.2498 13.8856 18.6666L12.0001 21.0001L10.1145 18.6666C10.6297 18.2498 11.2857 18.0001 12.0001 18.0001ZM2.80766 1.39355L20.4853 19.0712L19.0711 20.4854L13.8913 15.3043C13.2967 15.107 12.6609 15.0001 12.0001 15.0001C10.5719 15.0001 9.26024 15.4991 8.22998 16.3323L6.97363 14.776C8.24961 13.7443 9.84925 13.097 11.5964 13.0101L9.00025 10.4141C7.55273 10.8235 6.22651 11.5218 5.0878 12.4427L3.83099 10.8869C4.89946 10.0227 6.10763 9.3245 7.41633 8.8313L5.13168 6.54523C3.98878 7.08926 2.92058 7.76485 1.94666 8.55241L0.689453 6.99686C1.60358 6.25759 2.59156 5.60601 3.64058 5.05491L1.39345 2.80777L2.80766 1.39355ZM14.5004 10.2855L12.2165 8.00255L12 8.00012C15.0947 8.00012 17.9369 9.08153 20.1693 10.887L18.9123 12.4427C17.6438 11.4168 16.1427 10.6673 14.5004 10.2855ZM12.0001 3.00015C16.2849 3.00015 20.22 4.49731 23.3109 6.99704L22.0534 8.55241C19.3061 6.33075 15.8085 5.00015 12.0001 5.00015C11.122 5.00015 10.2604 5.07089 9.42075 5.20697L7.72455 3.511C9.09498 3.17714 10.5268 3.00015 12.0001 3.00015Z"/>
</svg>
