<svg xmlns="http://www.w3.org/2000/svg" viewBox="0 0 24 24" width="24" height="24">
<path d="M3.92887 4.92969L5.34315 6.34396C3.89543 7.79167 3 9.79167 3 12.0008C3 14.2099 3.89543 16.2099 5.34315 17.6576L3.92887 19.0719C2.11925 17.2623 1 14.7623 1 12.0008C1 9.23931 2.11925 6.73931 3.92887 4.92969ZM20.0711 4.92969C21.8808 6.73931 23 9.23931 23 12.0008C23 14.7623 21.8808 17.2623 20.0711 19.0719L18.6569 17.6576C20.1046 16.2099 21 14.2099 21 12.0008C21 9.79218 20.105 7.79259 18.6579 6.34496L20.0711 4.92969ZM13 5.00081V11.0008H16L11 19.0008V13.0008H8L13 5.00081ZM6.75736 7.75817L8.17157 9.17238C7.44771 9.89624 7 10.8962 7 12.0008C7 13.1053 7.44771 14.1053 8.17157 14.8292L6.75736 16.2434C5.67157 15.1576 5 13.6576 5 12.0008C5 10.3439 5.67157 8.84396 6.75736 7.75817ZM17.2436 7.75915C18.3288 8.84486 19 10.3444 19 12.0008C19 13.6576 18.3284 15.1576 17.2426 16.2434L15.8284 14.8292C16.5523 14.1053 17 13.1053 17 12.0008C17 10.8967 16.5527 9.89716 15.8294 9.17338L17.2436 7.75915Z"/>
</svg>
