<svg width="80" height="80" viewBox="0 0 80 80" fill="none" xmlns="http://www.w3.org/2000/svg">
  <style>
    .fr-artwork-decorative {
      fill: #ECECFF;
    }
    .fr-artwork-minor {
      fill: #E1000F;
    }
    .fr-artwork-major {
      fill: #000091;
    }
  </style>
  <symbol id="artwork-decorative">
    <path d="M66 2a1.001 1.001 0 0 1 0-2 1.001 1.001 0 0 1 0 2ZM5 5a1.001 1.001 0 0 1 0-2 1.001 1.001 0 0 1 0 2ZM1 67a1.001 1.001 0 0 1 0-2 1.001 1.001 0 0 1 0 2Z"/>
  </symbol>
  <symbol id="artwork-minor">
    <path d="M25 50a1 1 0 0 1 1-1h28a1 1 0 0 1 1 1v12a1 1 0 0 1-1 1H26a1 1 0 0 1-1-1V50Zm2 1v10h26V51H27Z M38 54a1 1 0 0 1 1-1h10a1 1 0 1 1 0 2H39a1 1 0 0 1-1-1ZM30 54a1 1 0 0 1 1-1h2a1 1 0 1 1 0 2h-2a1 1 0 0 1-1-1ZM30 58a1 1 0 0 1 1-1h6a1 1 0 1 1 0 2h-6a1 1 0 0 1-1-1ZM41 58a1 1 0 1 1 2 0 1 1 0 0 1-2 0ZM46 58a1 1 0 0 1 1-1h2a1 1 0 1 1 0 2h-2a1 1 0 0 1-1-1Z"/>
  </symbol>
  <symbol id="artwork-major">
    <path d="M12 23a1 1 0 0 1 1-1h54a1 1 0 0 1 1 1v9a1 1 0 0 1-1 1H13a1 1 0 0 1-1-1v-9Zm2 1v7h52v-7H14Z M17.605 16.31a1 1 0 0 1 .725-.31h43.34a1 1 0 0 1 .725.31l5.33 5.6A1 1 0 0 1 67 23.6H13a1 1 0 0 1-.724-1.69l5.33-5.6ZM18.758 18l-3.426 3.6h49.336L61.242 18H18.758ZM15.197 31.994a1 1 0 0 1 1-.994H64a1 1 0 0 1 1 1.005l-.197 36a1 1 0 0 1-1 .995H16a1 1 0 0 1-1-1.005l.197-36ZM17.19 33l-.185 34h45.803l.186-34H17.19Z M30 38a1 1 0 0 1 1-1h18a1 1 0 0 1 1 1v7a1 1 0 0 1-1 1H31a1 1 0 0 1-1-1v-7Zm2 1v5h16v-5H32ZM21 13a1 1 0 0 1 1-1h24a1 1 0 1 1 0 2H22a1 1 0 0 1-1-1ZM51 13a1 1 0 0 1 1-1h5a1 1 0 1 1 0 2h-5a1 1 0 0 1-1-1Z"/>
  </symbol>
  <use class="fr-artwork-decorative" href="#artwork-decorative"/>
  <use class="fr-artwork-minor" href="#artwork-minor"/>
  <use class="fr-artwork-major" href="#artwork-major"/>
</svg>

