<svg width="80" height="80" viewBox="0 0 80 80" fill="none" xmlns="http://www.w3.org/2000/svg">
  <style>
    .fr-artwork-decorative {
      fill: #ECECFF;
    }
    .fr-artwork-minor {
      fill: #E1000F;
    }
    .fr-artwork-major {
      fill: #000091;
    }
  </style>
  <symbol id="artwork-decorative">
    <path d="M76 70a1.001 1.001 0 0 1 0-2 1.001 1.001 0 0 1 0 2ZM39 4a1.001 1.001 0 0 1 0-2 1.001 1.001 0 0 1 0 2ZM4 62a1.001 1.001 0 0 1 0-2 1.001 1.001 0 0 1 0 2Z"/>
  </symbol>
  <symbol id="artwork-minor">
    <path d="M68.2 67.852a1.8 1.8 0 1 0 0-3.6 1.8 1.8 0 0 0 0 3.6Z M19.529 13.994a1 1 0 0 1 .088 1.411l-6.867 7.776a1 1 0 0 1-1.5-1.324l6.867-7.776a1 1 0 0 1 1.412-.087Z"/>
  </symbol>
  <symbol id="artwork-major">
    <path d="M26.051 13.745a1 1 0 0 1 .728.25l30.843 27.324a1 1 0 0 1 .291.45l5.904 18.827a1 1 0 0 1-1.118 1.286l-19.26-3.195a1 1 0 0 1-.496-.235l-26.235-23.04a1 1 0 0 1 1.32-1.503l26.02 22.852 17.374 2.882-5.334-17.011-29.88-26.471-6.07 6.979a1 1 0 0 1-1.509-1.313l6.732-7.74a1 1 0 0 1 .69-.342Z              M57.62 41.318a1 1 0 0 1 .089 1.411l-6.867 7.776a1 1 0 0 1-1.5-1.324l6.867-7.776a1 1 0 0 1 1.412-.087ZM33.529 32.994a1 1 0 0 1 .088 1.411l-6.867 7.776a1 1 0 0 1-1.5-1.324l6.867-7.776a1 1 0 0 1 1.412-.087ZM59.257 49.74a1 1 0 0 1 .092 1.411l-7.425 8.46a1 1 0 0 1-1.504-1.32l7.425-8.46a1 1 0 0 1 1.412-.091ZM25.8 66.052a1 1 0 0 1 1-1h36a1 1 0 1 1 0 2h-36a1 1 0 0 1-1-1ZM15 66.052a1 1 0 0 1 1-1h7.425a1 1 0 1 1 0 2H16a1 1 0 0 1-1-1ZM30.926 13.331a1 1 0 0 1 1.412-.074l20 18A1 1 0 0 1 51 32.743l-20-18a1 1 0 0 1-.074-1.412Z"/>
  </symbol>
  <use class="fr-artwork-decorative" href="#artwork-decorative"/>
  <use class="fr-artwork-minor" href="#artwork-minor"/>
  <use class="fr-artwork-major" href="#artwork-major"/>
</svg>
