<svg width="80px" height="80px" viewBox="0 0 80 80" xmlns="http://www.w3.org/2000/svg">
 	<style>
		.fr-artwork-decorative {
			fill: #ECECFF;
		}
		.fr-artwork-minor {
			fill: #E1000F;
		}
		.fr-artwork-major {
			fill: #000091;
		}
	</style>
	<g class="fr-artwork-decorative" id="artwork-decorative">
    <path d="M76,70c-0.5514,0-1-0.4486-1-1s0.4486-1,1-1s1,0.4486,1,1S76.5514,70,76,70z M39,4c-0.5514,0-1-0.4486-1-1
	c0-0.55145,0.4486-1,1-1s1,0.44855,1,1C40,3.5514,39.5514,4,39,4z M4,62c-0.5514,0-1-0.4486-1-1s0.4486-1,1-1s1,0.4486,1,1
	S4.5514,62,4,62z"/>
  </g>
  <g class="fr-artwork-minor" id="artwork-minor">
    <path d="M65.94873,57.68378L64,51.83771v-3.66199c0.0639-0.08801,0.12122-0.18201,0.17078-0.28131l1.51855-3.03699
	c0.2605-0.52081,0.28088-1.12933,0.05615-1.6665L61.82739,33.828c-0.20361-0.48669-0.59131-0.87323-1.07861-1.07532
	c-1.0202-0.42328-2.19037,0.06073-2.61365,1.08093l-3.88373,9.36127c-0.22241,0.53589-0.20099,1.14191,0.05841,1.66089
	l1.51941,3.03864c0.04956,0.0993,0.10687,0.1933,0.17078,0.28131v3.66199l-1.94867,5.84607l-0.03052,0.11273
	c-0.10242,0.49011,0.17651,0.98999,0.66296,1.15216l0.11273,0.03052c0.49011,0.10254,0.98999-0.17639,1.15222-0.66296L57.72003,53
	h4.55896l1.70099,5.10303L62.69598,69h-5.39301l-0.3598-3.0545l-0.02039-0.11511c-0.11548-0.48706-0.58051-0.82098-1.08978-0.76099
	c-0.54852,0.06458-0.94073,0.56158-0.8761,1.11011l0.46399,3.9375l0.02002,0.11389C55.54633,70.6767,55.94598,71,56.414,71h7.172
	l0.11548-0.00659c0.45502-0.05249,0.82294-0.41162,0.87762-0.8764l1.414-12L66,58.00739
	C66.00079,57.89771,65.98352,57.78827,65.94873,57.68378z M62,51h-4v-2h4V51z M62.38202,47h-4.76404l-1.51929-3.0387L59,36.96802V42
	l0.00671,0.11658C59.06451,42.61401,59.48718,43,60,43c0.55231,0,1-0.44769,1-1v-4.96832l2.90051,6.93134L62.38202,47z M50,56
	c0,0.08179-0.01001,0.16321-0.02991,0.24249c-0.50531,2.02142-2.75232,3.33521-6.7619,4.05951l-0.64771,0.1095
	c-0.22076,0.03491-0.44647,0.06812-0.677,0.09979l-0.70636,0.09021c-0.12024,0.01428-0.24164,0.02808-0.3642,0.04163
	l-0.75043,0.07599l-0.77979,0.06671l-0.8092,0.05737l-0.83862,0.0484c-0.14227,0.00732-0.28571,0.01422-0.43036,0.02069
	l-0.88275,0.03491l-0.91217,0.026l-0.94171,0.01721L33,61c-0.55231,0-1-0.44769-1-1s0.44769-1,1-1l0.95001-0.00427
	c0.15576-0.00153,0.3103-0.00323,0.4635-0.00543l0.90387-0.01709l0.87323-0.02551l0.84241-0.03381l0.81171-0.04181l0.78076-0.04987
	l0.75-0.05768l0.71912-0.06555c0.11731-0.0116,0.23328-0.0235,0.34802-0.03558l0.67279-0.0769
	c0.32867-0.04028,0.64581-0.08337,0.95129-0.12921l0.59552-0.09515l0.56445-0.10229l0.53363-0.10944
	c2.41748-0.52618,3.82208-1.27667,4.20349-2.19391l0.0332-0.09149l-0.00671-0.11792
	c-0.04626-0.53815-0.26849-0.7226-0.85822-0.74475L47,55c-1.03882,0-2.13281,0.547-3.29291,1.70709
	c-0.6026,0.6026-1.61432,0.22058-1.70111-0.59351L42,56c0-0.78101-0.21899-1-1-1c-1.03882,0-2.13281,0.547-3.29291,1.70709
	c-0.3905,0.3905-1.02368,0.3905-1.41418,0s-0.3905-1.02368,0-1.41418C37.79938,53.78638,39.37213,53,41,53
	c1.14478,0,2.00543,0.41083,2.50482,1.15558l0.03918,0.06342l0.19562-0.1358c0.97717-0.6601,1.97937-1.02448,3.00378-1.07672L47,53
	C48.88562,53,50,54.11438,50,56z"/>
  </g>
  <g class="fr-artwork-major" id="artwork-major">
    <path d="M55.99329,11.88342L56,12v20c0,0.55231-0.44769,1-1,1c-0.51282,0-0.93549-0.38599-0.99329-0.88342L54,32V13H18
	v52h31c0.51282,0,0.93549,0.38599,0.99329,0.88342L50,66c0,0.51282-0.38599,0.93549-0.88342,0.99329L49,67H17
	c-0.51282,0-0.93549-0.38599-0.99329-0.88342L16,66V12c0-0.51282,0.38599-0.93549,0.88342-0.99329L17,11h38
	C55.51282,11,55.93549,11.38599,55.99329,11.88342z M23,19h16l0.11658-0.00671C39.61401,18.93549,40,18.51282,40,18
	c0-0.55231-0.44769-1-1-1H23l-0.11658,0.00671C22.38599,17.06451,22,17.48718,22,18C22,18.55231,22.44769,19,23,19z M23,25h26
	l0.11658-0.00671C49.61401,24.93549,50,24.51282,50,24c0-0.55231-0.44769-1-1-1H23l-0.11658,0.00671
	C22.38599,23.06451,22,23.48718,22,24C22,24.55231,22.44769,25,23,25z M23,31h20l0.11658-0.00671
	C43.61401,30.93549,44,30.51282,44,30c0-0.55231-0.44769-1-1-1H23l-0.11658,0.00671C22.38599,29.06451,22,29.48718,22,30
	C22,30.55231,22.44769,31,23,31z M49.11658,36.99329C49.61401,36.93549,50,36.51282,50,36c0-0.55231-0.44769-1-1-1H23
	l-0.11658,0.00671C22.38599,35.06451,22,35.48718,22,36c0,0.55231,0.44769,1,1,1h26L49.11658,36.99329z M59.99329,19.88342
	C59.93549,19.38599,59.51282,19,59,19c-0.55231,0-1,0.44769-1,1v8l0.00671,0.11658C58.06451,28.61401,58.48718,29,59,29
	c0.55231,0,1-0.44769,1-1v-8L59.99329,19.88342z M51,69H25l-0.11658,0.00671C24.38599,69.06451,24,69.48718,24,70
	c0,0.55231,0.44769,1,1,1h26l0.11658-0.00671C51.61401,70.93549,52,70.51282,52,70C52,69.44769,51.55231,69,51,69z M23,41
	l-0.11658,0.00671C22.38599,41.06451,22,41.48718,22,42c0,0.55231,0.44769,1,1,1h20l0.11658-0.00671
	C43.61401,42.93549,44,42.51282,44,42c0-0.55231-0.44769-1-1-1H23z"/>
  </g>
</svg>
