<svg width="80px" height="80px" viewBox="0 0 80 80" xmlns="http://www.w3.org/2000/svg">
 	<style>
		.fr-artwork-decorative {
			fill: #ECECFF;
		}
		.fr-artwork-minor {
			fill: #E1000F;
		}
		.fr-artwork-major {
			fill: #000091;
		}
	</style>
	<symbol id="artwork-decorative">
        <path d="M5 60c-.5514 0-1-.4486-1-1s.4486-1 1-1 1 .4486 1 1-.4486 1-1 1ZM17 8c-.5514 0-1-.4486-1-1s.4486-1 1-1 1 .4486 1 1-.4486 1-1 1ZM3 26c-.5514 0-1-.4486-1-1s.4486-1 1-1 1 .4486 1 1-.4486 1-1 1Zm74 30c-.5514 0-1-.4486-1-1s.4486-1 1-1 1 .4486 1 1-.4486 1-1 1Zm-2-34c-.5514 0-1-.4486-1-1s.4486-1 1-1 1 .4486 1 1-.4486 1-1 1Z"/>
    </symbol>
    <symbol id="artwork-minor">
        <path d="M55 48c7.1797 0 13 5.8203 13 13s-5.8203 13-13 13-13-5.8203-13-13 5.8203-13 13-13Zm0 2c-6.0751 0-11 4.9249-11 11s4.9249 11 11 11 11-4.9249 11-11-4.9249-11-11-11Zm0 4c.5128 0 .9355.386.9933.8834L56 55v5h5c.5523 0 1 .4477 1 1 0 .5128-.386.9355-.8834.9933L61 62h-5v5c0 .5523-.4477 1-1 1-.5128 0-.9355-.386-.9933-.8834L54 67v-5h-5c-.5523 0-1-.4477-1-1 0-.5128.386-.9355.8834-.9933L49 60h5v-5c0-.5523.4477-1 1-1ZM43 30c.5523 0 1 .4477 1 1 0 .5128-.386.9355-.8834.9933L43 32H23c-.5523 0-1-.4477-1-1 0-.5128.386-.9355.8834-.9933L23 30h20Zm6-6c.5523 0 1 .4477 1 1 0 .5128-.386.9355-.8834.9933L49 26H23c-.5523 0-1-.4477-1-1 0-.5128.386-.9355.8834-.9933L23 24h26Zm-10-6c.5523 0 1 .4477 1 1 0 .5128-.386.9355-.8834.9933L39 20H23c-.5523 0-1-.4477-1-1 0-.5128.386-.9355.8834-.9933L23 18h16Z" />
    </symbol>
    <symbol id="artwork-major">
        <path d="M55 12c.5128 0 .9355.386.9933.8834L56 13v32c0 .5523-.4477 1-1 1-.5128 0-.9355-.386-.9933-.8834L54 45V14H18v52h21c.5128 0 .9355.386.9933.8834L40 67c0 .5128-.386.9355-.8834.9933L39 68H17c-.5128 0-.9355-.386-.9933-.8834L16 67V13c0-.5128.386-.9355.8834-.9933L17 12h38ZM33 60c.5523 0 1 .4477 1 1 0 .5128-.386.9355-.8834.9933L33 62H23c-.5523 0-1-.4477-1-1 0-.5128.386-.9355.8834-.9933L23 60h10Zm4-6c.5523 0 1 .4477 1 1 0 .5128-.386.9355-.8834.9933L37 56H23c-.5523 0-1-.4477-1-1 0-.5128.386-.9355.8834-.9933L23 54h14Zm4-6c.5523 0 1 .4477 1 1 0 .5128-.386.9355-.8834.9933L41 50H23c-.5523 0-1-.4477-1-1 0-.5128.386-.9355.8834-.9933L23 48h18Zm4-6c.5523 0 1 .4477 1 1 0 .5128-.386.9355-.8834.9933L45 44H23c-.5523 0-1-.4477-1-1 0-.5128.386-.9355.8834-.9933L23 42h22Zm4-6c.5523 0 1 .4477 1 1 0 .5128-.386.9355-.8834.9933L49 38H23c-.5523 0-1-.4477-1-1 0-.5128.386-.9355.8834-.9933L23 36h26Zm10-24c.5128 0 .9355.386.9933.8834L60 13v32c0 .5523-.4477 1-1 1-.5128 0-.9355-.386-.9933-.8834L58 45V13c0-.5523.4477-1 1-1Z" />
    </symbol>
  <use class="fr-artwork-decorative" href="#artwork-decorative"/>
  <use class="fr-artwork-minor" href="#artwork-minor"/>
  <use class="fr-artwork-major" href="#artwork-major"/>
</svg>
