<svg width="80px" height="80px" viewBox="0 0 80 80" xmlns="http://www.w3.org/2000/svg">
 	<style>
		.fr-artwork-decorative {
			fill: #ECECFF;
		}
		.fr-artwork-minor {
			fill: #E1000F;
		}
		.fr-artwork-major {
			fill: #000091;
		}
	</style>
	<g class="fr-artwork-decorative" id="artwork-decorative">
    <path d="M5,60c-0.5514,0-1-0.4486-1-1s0.4486-1,1-1s1,0.4486,1,1S5.5514,60,5,60z M16,6c-0.5514,0-1-0.4486-1-1
	c0-0.55145,0.4486-1,1-1c0.5514,0,1,0.44855,1,1C17,5.5514,16.5514,6,16,6z M3,26c-0.5514,0-1-0.4486-1-1s0.4486-1,1-1s1,0.4486,1,1
	S3.5514,26,3,26z M77,56c-0.5514,0-1-0.4486-1-1s0.4486-1,1-1s1,0.4486,1,1S77.5514,56,77,56z M75,22c-0.5514,0-1-0.4486-1-1
	s0.4486-1,1-1s1,0.4486,1,1S75.5514,22,75,22z"/>
  </g>
  <g class="fr-artwork-minor" id="artwork-minor">
    <path d="M21,17c0-0.51282,0.38599-0.93549,0.88342-0.99329L22,16h16c0.55231,0,1,0.44769,1,1
	c0,0.51282-0.38599,0.93549-0.88342,0.99329L38,18H22C21.44769,18,21,17.55231,21,17z M58,64h-8l-0.11658,0.00671
	C49.38599,64.06451,49,64.48718,49,65c0,0.55231,0.44769,1,1,1h8l0.11658-0.00671C58.61401,65.93549,59,65.51282,59,65
	C59,64.44769,58.55231,64,58,64z M53.29291,61.70709c0.02997,0.03003,0.06152,0.0578,0.09418,0.08319
	c0.07159,0.05573,0.14899,0.10022,0.22992,0.13373c0.10321,0.04291,0.21521,0.06891,0.3324,0.07471
	C53.96619,61.99957,53.98303,62,54,62c0.0097,0,0.01929-0.00012,0.02899-0.00043l0.02252-0.00085
	c0.11597-0.00592,0.22681-0.03149,0.3291-0.07373c0.11877-0.04877,0.22998-0.1214,0.32648-0.2179l4-4l0.08319-0.09418
	c0.30499-0.39233,0.27734-0.95953-0.08319-1.32001c-0.3905-0.3905-1.02368-0.3905-1.41418,0L55,58.58582V53l-0.00671-0.11658
	C54.93549,52.38599,54.51282,52,54,52c-0.55231,0-1,0.44769-1,1v5.58582l-2.29291-2.29291l-0.09418-0.08319
	c-0.39233-0.30499-0.95953-0.27734-1.32001,0.08319c-0.3905,0.3905-0.3905,1.02368,0,1.41418L53.29291,61.70709z M67,59
	c0,7.17969-5.82031,13-13,13s-13-5.82031-13-13s5.82031-13,13-13S67,51.82031,67,59z M65,59c0-6.07507-4.92493-11-11-11
	s-11,4.92493-11,11s4.92493,11,11,11S65,65.07507,65,59z M22,24h26l0.11658-0.00671C48.61401,23.93549,49,23.51282,49,23
	c0-0.55231-0.44769-1-1-1H22l-0.11658,0.00671C21.38599,22.06451,21,22.48718,21,23C21,23.55231,21.44769,24,22,24z
	 M42.11658,29.99329C42.61401,29.93549,43,29.51282,43,29c0-0.55231-0.44769-1-1-1H22l-0.11658,0.00671
	C21.38599,28.06451,21,28.48718,21,29c0,0.55231,0.44769,1,1,1h20L42.11658,29.99329z"/>
  </g>
  <g class="fr-artwork-major" id="artwork-major">
    <path d="M54.99329,10.88342L55,11v32c0,0.55231-0.44769,1-1,1c-0.51282,0-0.93549-0.38599-0.99329-0.88342L53,43V12H17
	v52h21c0.51282,0,0.93549,0.38599,0.99329,0.88342L39,65c0,0.51282-0.38599,0.93549-0.88342,0.99329L38,66H16
	c-0.51282,0-0.93549-0.38599-0.99329-0.88342L15,65V11c0-0.51282,0.38599-0.93549,0.88342-0.99329L16,10h38
	C54.51282,10,54.93549,10.38599,54.99329,10.88342z M48,34H22l-0.11658,0.00671C21.38599,34.06451,21,34.48718,21,35
	c0,0.55231,0.44769,1,1,1h26l0.11658-0.00671C48.61401,35.93549,49,35.51282,49,35C49,34.44769,48.55231,34,48,34z M40,46H22
	l-0.11658,0.00671C21.38599,46.06451,21,46.48718,21,47c0,0.55231,0.44769,1,1,1h18l0.11658-0.00671
	C40.61401,47.93549,41,47.51282,41,47C41,46.44769,40.55231,46,40,46z M58.99329,10.88342C58.93549,10.38599,58.51282,10,58,10
	c-0.55231,0-1,0.44769-1,1v32l0.00671,0.11658C57.06451,43.61401,57.48718,44,58,44c0.55231,0,1-0.44769,1-1V11L58.99329,10.88342z
	 M44,40H22l-0.11658,0.00671C21.38599,40.06451,21,40.48718,21,41c0,0.55231,0.44769,1,1,1h22l0.11658-0.00671
	C44.61401,41.93549,45,41.51282,45,41C45,40.44769,44.55231,40,44,40z M22,58l-0.11658,0.00671C21.38599,58.06451,21,58.48718,21,59
	c0,0.55231,0.44769,1,1,1h10l0.11658-0.00671C32.61401,59.93549,33,59.51282,33,59c0-0.55231-0.44769-1-1-1H22z M36.11658,53.99329
	C36.61401,53.93549,37,53.51282,37,53c0-0.55231-0.44769-1-1-1H22l-0.11658,0.00671C21.38599,52.06451,21,52.48718,21,53
	c0,0.55231,0.44769,1,1,1h14L36.11658,53.99329z"/>
  </g>
</svg>
