<svg width="80px" height="80px" viewBox="0 0 80 80" xmlns="http://www.w3.org/2000/svg">
 	<style>
		.fr-artwork-decorative {
			fill: #ECECFF;
		}
		.fr-artwork-minor {
			fill: #E1000F;
		}
		.fr-artwork-major {
			fill: #000091;
		}
	</style>
	<symbol id="artwork-decorative">
    <path d="M75,62c-0.5514,0-1-0.4486-1-1s0.4486-1,1-1s1,0.4486,1,1S75.5514,62,75,62z M55,4c-0.5514,0-1-0.4486-1-1
	c0-0.55145,0.4486-1,1-1s1,0.44855,1,1C56,3.5514,55.5514,4,55,4z M3,54c-0.5514,0-1-0.4486-1-1s0.4486-1,1-1s1,0.4486,1,1
	S3.5514,54,3,54z"/>
  </symbol>
  <symbol id="artwork-minor">
    <path d="M50,53c1.8856,0,3,1.1144,3,3c0,0.0818-0.01,0.1632-0.0299,0.2425c-0.5053,2.0214-2.7523,3.3352-6.7619,4.0595
	l-0.6477,0.1095c-0.2208,0.0349-0.4465,0.0681-0.677,0.0998l-0.7064,0.0902c-0.1202,0.0143-0.2416,0.0281-0.3642,0.0416
	l-0.7504,0.076l-0.7798,0.0667l-0.8092,0.0574l-0.8386,0.0484c-0.1423,0.0073-0.2857,0.0142-0.4304,0.0207l-0.8827,0.0349
	l-0.9122,0.026l-0.9417,0.0172L36,61c-0.5523,0-1-0.4477-1-1s0.4477-1,1-1l0.95-0.0043c0.1558-0.0015,0.3103-0.0033,0.4635-0.0054
	l0.9039-0.0171l0.8732-0.0255l0.8424-0.0338l0.8117-0.0418l0.7808-0.0499l0.75-0.0578l0.7191-0.0654
	c0.1173-0.0116,0.2333-0.0235,0.348-0.0357l0.6728-0.0768c0.3287-0.0403,0.6458-0.0834,0.9513-0.1292l0.5955-0.0952l0.5645-0.1024
	l0.5336-0.1093c2.4175-0.5262,3.8221-1.2767,4.2035-2.1939l0.0332-0.0915l-0.0067-0.1179
	c-0.0463-0.5382-0.2685-0.7226-0.8582-0.7448L50,55c-1.0388,0-2.1328,0.547-3.2929,1.7071
	c-0.6026,0.6026-1.6143,0.2206-1.7011-0.5935L45,56c0-0.781-0.219-1-1-1c-1.0388,0-2.1328,0.547-3.2929,1.7071
	c-0.3905,0.3905-1.0237,0.3905-1.4142,0s-0.3905-1.0237,0-1.4142C40.7994,53.7863,42.3721,53,44,53
	c1.1448,0,2.0054,0.4108,2.5048,1.1556l0.0392,0.0634l0.1956-0.1358c0.9772-0.6601,1.9794-1.0245,3.0038-1.0767L50,53z"/>
  </symbol>
  <symbol id="artwork-major">
    <path d="M25,18c0-0.51282,0.38599-0.93549,0.88342-0.99329L26,17h16c0.55231,0,1,0.44769,1,1
	c0,0.51282-0.38599,0.93549-0.88342,0.99329L42,19H26C25.44769,19,25,18.55231,25,18z M26,25h26l0.11658-0.00671
	C52.61401,24.93549,53,24.51282,53,24c0-0.55231-0.44769-1-1-1H26l-0.11658,0.00671C25.38599,23.06451,25,23.48718,25,24
	C25,24.55231,25.44769,25,26,25z M26,31h20l0.11658-0.00671C46.61401,30.93549,47,30.51282,47,30c0-0.55231-0.44769-1-1-1H26
	l-0.11658,0.00671C25.38599,29.06451,25,29.48718,25,30C25,30.55231,25.44769,31,26,31z M26,37h26l0.11658-0.00671
	C52.61401,36.93549,53,36.51282,53,36c0-0.55231-0.44769-1-1-1H26l-0.11658,0.00671C25.38599,35.06451,25,35.48718,25,36
	C25,36.55231,25.44769,37,26,37z M26,43h20l0.11658-0.00671C46.61401,42.93549,47,42.51282,47,42c0-0.55231-0.44769-1-1-1H26
	l-0.11658,0.00671C25.38599,41.06451,25,41.48718,25,42C25,42.55231,25.44769,43,26,43z M58,67H20c-0.55231,0-1-0.44769-1-1V12
	c0-0.55231,0.44769-1,1-1h38c0.55231,0,1,0.44769,1,1v54C59,66.55231,58.55231,67,58,67z M57,13H21v52h36V13z M62.99329,19.88342
	C62.93549,19.38599,62.51282,19,62,19l-0.11658,0.00671C61.38599,19.06451,61,19.48718,61,20v49H28l-0.11658,0.00671
	C27.38599,69.06451,27,69.48718,27,70c0,0.55231,0.44769,1,1,1h34l0.11658-0.00671C62.61401,70.93549,63,70.51282,63,70V20
	L62.99329,19.88342z"/>
  </symbol>
  <use class="fr-artwork-decorative" href="#artwork-decorative"/>
  <use class="fr-artwork-minor" href="#artwork-minor"/>
  <use class="fr-artwork-major" href="#artwork-major"/>
</svg>
