<svg width="80px" height="80px" viewBox="0 0 80 80" xmlns="http://www.w3.org/2000/svg">
 	<style>
		.fr-artwork-decorative {
			fill: #ECECFF;
		}
		.fr-artwork-minor {
			fill: #E1000F;
		}
		.fr-artwork-major {
			fill: #000091;
		}
	</style>
	<g class="fr-artwork-decorative" id="artwork-decorative">
    <path d="M75,62c-0.5514,0-1-0.4486-1-1s0.4486-1,1-1s1,0.4486,1,1S75.5514,62,75,62z M55,4c-0.5514,0-1-0.4486-1-1
	c0-0.55145,0.4486-1,1-1s1,0.44855,1,1C56,3.5514,55.5514,4,55,4z M3,54c-0.5514,0-1-0.4486-1-1s0.4486-1,1-1s1,0.4486,1,1
	S3.5514,54,3,54z"/>
  </g>
  <g class="fr-artwork-minor" id="artwork-minor">
    <path d="M42,16c0.5523,0,1,0.4477,1,1c0,0.5128-0.386,0.9355-0.8834,0.9933L42,18H26c-0.5523,0-1-0.4477-1-1
	c0-0.5128,0.386-0.9355,0.8834-0.9933L26,16H42z M52,22c0.5523,0,1,0.4477,1,1c0,0.5128-0.386,0.9355-0.8834,0.9933L52,24H26
	c-0.5523,0-1-0.4477-1-1c0-0.5128,0.386-0.9355,0.8834-0.9933L26,22H52z M47,29c0-0.5523-0.4477-1-1-1H26l-0.1166,0.0067
	C25.386,28.0645,25,28.4872,25,29c0,0.5523,0.4477,1,1,1h20l0.1166-0.0067C46.614,29.9355,47,29.5128,47,29z"/>
  </g>
  <g class="fr-artwork-major" id="artwork-major">
    <path d="M25,35c0-0.51282,0.38599-0.93549,0.88342-0.99329L26,34h26c0.55231,0,1,0.44769,1,1
	c0,0.51282-0.38599,0.93549-0.88342,0.99329L52,36H26C25.44769,36,25,35.55231,25,35z M26,48h26l0.11658-0.00671
	C52.61401,47.93549,53,47.51282,53,47c0-0.55231-0.44769-1-1-1H26l-0.11658,0.00671C25.38599,46.06451,25,46.48718,25,47
	C25,47.55231,25.44769,48,26,48z M26,42h20l0.11658-0.00671C46.61401,41.93549,47,41.51282,47,41c0-0.55231-0.44769-1-1-1H26
	l-0.11658,0.00671C25.38599,40.06451,25,40.48718,25,41C25,41.55231,25.44769,42,26,42z M26,60h20l0.11658-0.00671
	C46.61401,59.93549,47,59.51282,47,59c0-0.55231-0.44769-1-1-1H26l-0.11658,0.00671C25.38599,58.06451,25,58.48718,25,59
	C25,59.55231,25.44769,60,26,60z M26,54h14l0.11658-0.00671C40.61401,53.93549,41,53.51282,41,53c0-0.55231-0.44769-1-1-1H26
	l-0.11658,0.00671C25.38599,52.06451,25,52.48718,25,53C25,53.55231,25.44769,54,26,54z M58,66H20c-0.55231,0-1-0.44769-1-1V11
	c0-0.55231,0.44769-1,1-1h38c0.55231,0,1,0.44769,1,1v54C59,65.55231,58.55231,66,58,66z M57,12H21v52h36V12z M62.99329,18.88342
	C62.93549,18.38599,62.51282,18,62,18l-0.11658,0.00671C61.38599,18.06451,61,18.48718,61,19v49H28l-0.11658,0.00671
	C27.38599,68.06451,27,68.48718,27,69c0,0.55231,0.44769,1,1,1h34l0.11658-0.00671C62.61401,69.93549,63,69.51282,63,69V19
	L62.99329,18.88342z"/>
  </g>
</svg>
