<svg width="80" height="80" viewBox="0 0 80 80" xmlns="http://www.w3.org/2000/svg">
  <style>
    .fr-artwork-decorative {
      fill: #ECECFF;
    }
    .fr-artwork-minor {
      fill: #E1000F;
    }
    .fr-artwork-major {
      fill: #000091;
    }
  </style>
  <symbol id="artwork-decorative">
    <path d="M75 62a1.001 1.001 0 0 1 0-2 1.001 1.001 0 0 1 0 2ZM3 54a1.001 1.001 0 0 1 0-2 1.001 1.001 0 0 1 0 2ZM55 4a1.001 1.001 0 0 1 0-2 1.001 1.001 0 0 1 0 2Z"/>
  </symbol>
  <symbol id="artwork-minor">
    <path d="M48.037 46.732a1.02 1.02 0 0 1 1.253-.695c2.38.651 4.205 2.486 4.688 4.761a1 1 0 0 1-.788 1.183 1.017 1.017 0 0 1-1.204-.774c-.324-1.527-1.578-2.788-3.241-3.244a.998.998 0 0 1-.708-1.231Z M38 52c0-5.515 4.485-10 10-10s10 4.485 10 10c0 2.566-.971 4.91-2.565 6.681l5.895 10.211a3 3 0 0 1-5.103 3.15l-.093-.15-5.862-10.152c-.73.17-1.49.26-2.272.26-5.515 0-10-4.485-10-10Zm14.198 9.076 5.668 9.816a1 1 0 0 0 1.785-.895l-.053-.105-5.679-9.836c-.535.395-1.111.737-1.72 1.02ZM56 52c0-4.41-3.59-8-8-8s-8 3.59-8 8 3.59 8 8 8 8-3.59 8-8ZM41 18a1 1 0 0 1 .117 1.993L41 20H25a1 1 0 0 1-.117-1.993L25 18h16ZM51 24a1 1 0 0 1 .117 1.993L51 26H25a1 1 0 0 1-.117-1.993L25 24h26ZM46 31a1 1 0 0 0-1-1H25l-.117.007A1 1 0 0 0 25 32h20l.117-.007A1 1 0 0 0 46 31Z"/>
  </symbol>
  <symbol id="artwork-major">
    <path d="M19 12h38a1 1 0 0 1 1 1l-.009 29.002c.03 1.356-1.973 1.371-2.005-.007L56 14H20v52h26.52c1.98 0-.02 0 3.47.003 1.356 0 1.352 1.99.006 1.99L19 68a1 1 0 0 1-1-1V13a1 1 0 0 1 1-1ZM51.984 69.996 26.999 70l-.116.007A1 1 0 0 0 26.999 72l24.978-.042c1.359.033 1.367-1.967.007-1.962ZM62 61.013V21l-.007-.117A1 1 0 0 0 61 20l-.117.007A1 1 0 0 0 60 21v39.213c0 .787-.011 0 0 .787.019 1.34 2.012 1.328 2 .013Z M37.955 60.025c1.412.01 1.368 1.984.022 1.977L24.997 62A.998.998 0 0 1 24 61a1 1 0 0 1 .88-.993l.117-.007 12.958.025ZM34.984 54.011c1.405-.027 1.303 1.975 0 1.99L25 56a1 1 0 0 1-.117-1.993L25 54l9.985.011ZM34.975 47.997c1.396.011 1.333 1.993.012 2l-9.99-.014A.994.994 0 0 1 24 48.99c0-.508.385-.927.88-.984l.117-.007 9.978-.003ZM38.012 42.022c1.352.014 1.297 2-.008 1.978L25 43.99c-.552 0-1-.446-1-.995 0-.51.386-.93.883-.988L25 42l13.012.022ZM51 36a1 1 0 0 1 .117 1.993L51 38H25a1 1 0 0 1-.117-1.993L25 36h26Z"/>
  </symbol>
  <use class="fr-artwork-decorative" href="#artwork-decorative"/>
  <use class="fr-artwork-minor" href="#artwork-minor"/>
  <use class="fr-artwork-major" href="#artwork-major"/>
</svg>
