<svg width="80px" height="80px" viewBox="0 0 80 80" xmlns="http://www.w3.org/2000/svg">
 	<style>
		.fr-artwork-decorative {
			fill: #ECECFF;
		}
		.fr-artwork-minor {
			fill: #E1000F;
		}
		.fr-artwork-major {
			fill: #000091;
		}
	</style>
	<g class="fr-artwork-decorative" id="artwork-decorative">
    <path d="M76,22c-0.5514,0-1-0.4486-1-1s0.4486-1,1-1s1,0.4486,1,1S76.5514,22,76,22z M31,80c-0.5514,0-1-0.4486-1-1
	s0.4486-1,1-1s1,0.4486,1,1S31.5514,80,31,80z M31,2c-0.5514,0-1-0.4486-1-1c0-0.55145,0.4486-1,1-1s1,0.44855,1,1
	C32,1.5514,31.5514,2,31,2z"/>
  </g>
  <g class="fr-artwork-minor" id="artwork-minor">
    <path d="M30,17c0-0.55231,0.44769-1,1-1s1,0.44769,1,1s-0.44769,1-1,1S30,17.55231,30,17z M37.70709,19.70709
	c0.3905-0.3905,0.3905-1.02368,0-1.41418s-1.02368-0.3905-1.41418,0s-0.3905,1.02368,0,1.41418S37.31659,20.0976,37.70709,19.70709z
	 M30,26h4v-2h-4v-2h4v-2h-6v10h2V26z M24.29291,30.29291c-0.3905,0.3905-0.3905,1.02368,0,1.41418s1.02368,0.3905,1.41418,0
	s0.3905-1.02368,0-1.41418S24.68341,29.9024,24.29291,30.29291z M30,33c0,0.55231,0.44769,1,1,1s1-0.44769,1-1s-0.44769-1-1-1
	S30,32.44769,30,33z M37.70709,31.70709c0.3905-0.3905,0.3905-1.02368,0-1.41418s-1.02368-0.3905-1.41418,0
	s-0.3905,1.02368,0,1.41418S37.31659,32.0976,37.70709,31.70709z M39,26c0.55231,0,1-0.44769,1-1s-0.44769-1-1-1s-1,0.44769-1,1
	S38.44769,26,39,26z M23,24c-0.55231,0-1,0.44769-1,1s0.44769,1,1,1s1-0.44769,1-1S23.55231,24,23,24z M24.29291,18.29291
	c-0.3905,0.3905-0.3905,1.02368,0,1.41418s1.02368,0.3905,1.41418,0s0.3905-1.02368,0-1.41418S24.68341,17.9024,24.29291,18.29291z
	 M60,66c-0.55231,0-1,0.44769-1,1s0.44769,1,1,1s1-0.44769,1-1S60.55231,66,60,66z M65,67c0,2.76141-2.23859,5-5,5s-5-2.23859-5-5
	s2.23859-5,5-5S65,64.23859,65,67z M63,67c0-1.65692-1.34308-3-3-3s-3,1.34308-3,3s1.34308,3,3,3S63,68.65692,63,67z M68,56
	h-2.53558l-1.03229-1.22229L61.7171,51.5849l-1.25-1.44562L59.91809,49.521l-0.18951-0.20587
	c-0.51135-0.54401-1.19647-0.89044-2.00568-1.09344C57.01318,48.0437,56.4104,48,55.59912,48H42l-0.27307,0.00519
	c-2.7926,0.1076-4.67682,1.87158-5.77142,4.62543c-0.3772,0.9491-0.63513,1.9549-0.79828,2.95911l-0.0343,0.22015L35.091,56.03101
	l-0.19861,0.0163c-4.07239,0.36157-6.14349,2.79071-5.89056,7.01251c0.03296,0.55127,0.50665,0.97137,1.05798,0.93835
	c0.55127-0.03296,0.97137-0.50665,0.93842-1.05798C30.79388,59.52911,32.32288,58,36,58c0.53479,0,0.97498-0.42078,0.99902-0.95508
	l0.01379-0.19244l0.03717-0.36359c0.02142-0.18121,0.04834-0.37488,0.08142-0.57861
	c0.14142-0.87079,0.36432-1.73999,0.68268-2.54089C38.67151,51.21198,40.00787,50,42,50h13.59912l0.27106,0.00232
	c0.52203,0.0094,0.93073,0.05005,1.36615,0.1593c0.46844,0.11749,0.82117,0.2959,1.0351,0.52325l0.36188,0.3985l0.46643,0.53021
	l1.23535,1.43231L62.84058,56H51v-3l-0.00671-0.11658C50.93549,52.38599,50.51282,52,50,52c-0.55231,0-1,0.44769-1,1v3h-7
	l-0.11658,0.00671C41.38599,56.06451,41,56.48718,41,57c0,0.55231,0.44769,1,1,1h26l0.17462,0.00287
	C70.0105,58.06549,71,59.1416,71,62c0,2.94769-1.05231,4-3,4c-0.55231,0-1,0.44769-1,1s0.44769,1,1,1c3.05231,0,5-1.94769,5-6
	S71.05231,56,68,56z M38,66c-0.55231,0-1,0.44769-1,1s0.44769,1,1,1s1-0.44769,1-1S38.55231,66,38,66z M53,67
	c0,0.51282-0.38599,0.93549-0.88342,0.99329L52,68h-9.09998C42.43671,70.28223,40.41901,72,38,72c-2.76141,0-5-2.23859-5-5
	s2.23859-5,5-5c2.41901,0,4.43671,1.71777,4.90002,4H52C52.55231,66,53,66.44769,53,67z M41,67c0-1.65692-1.34308-3-3-3
	s-3,1.34308-3,3s1.34308,3,3,3S41,68.65692,41,67z"/>
  </g>
  <g class="fr-artwork-major" id="artwork-major">
    <path d="M53,13v30c0,0.55231-0.44769,1-1,1c-0.51282,0-0.93549-0.38599-0.99329-0.88342L51,43V13
	c0-1.59772-1.2489-2.90369-2.82367-2.99487L48,10H14c-1.59772,0-2.90369,1.2489-2.99487,2.82367L11,13v50
	c0,1.59772,1.2489,2.90369,2.82373,2.99487L14,66h8c0.55231,0,1,0.44769,1,1c0,0.51282-0.38599,0.93549-0.88342,0.99329L22,68h-8
	c-2.68878,0-4.88184-2.12231-4.99536-4.78308L9,63V13c0-2.68878,2.12231-4.88184,4.78308-4.99536L14,8h34
	c2.68878,0,4.88177,2.12231,4.99542,4.78308L53,13z M42,40H16l-0.11658,0.00671C15.38599,40.06451,15,40.48718,15,41
	c0,0.55231,0.44769,1,1,1h26l0.11658-0.00671C42.61401,41.93549,43,41.51282,43,41C43,40.44769,42.55231,40,42,40z M36,46H16
	l-0.11658,0.00671C15.38599,46.06451,15,46.48718,15,47c0,0.55231,0.44769,1,1,1h20l0.11658-0.00671
	C36.61401,47.93549,37,47.51282,37,47C37,46.44769,36.55231,46,36,46z M28,52H16l-0.11658,0.00671
	C15.38599,52.06451,15,52.48718,15,53c0,0.55231,0.44769,1,1,1h12l0.11658-0.00671C28.61401,53.93549,29,53.51282,29,53
	C29,52.44769,28.55231,52,28,52z M24,58h-8l-0.11658,0.00671C15.38599,58.06451,15,58.48718,15,59c0,0.55231,0.44769,1,1,1h8
	l0.11658-0.00671C24.61401,59.93549,25,59.51282,25,59C25,58.44769,24.55231,58,24,58z"/>
  </g>
</svg>
