<svg width="80" height="80" viewBox="0 0 80 80" xmlns="http://www.w3.org/2000/svg">
  <style>
    .fr-artwork-decorative {
      fill: #ECECFF;
    }
    .fr-artwork-minor {
      fill: #E1000F;
    }
    .fr-artwork-major {
      fill: #000091;
    }
  </style>
  <symbol id="artwork-decorative">
    <path fill-rule="evenodd" d="M30 10a1.001 1.001 0 0 1 0-2 1.001 1.001 0 0 1 0 2ZM1 60a1.001 1.001 0 0 1 0-2 1.001 1.001 0 0 1 0 2ZM28 73a1.001 1.001 0 0 1 0-2 1.001 1.001 0 0 1 0 2ZM65 72a1.001 1.001 0 0 1 0-2 1.001 1.001 0 0 1 0 2ZM77 39a1.001 1.001 0 0 1 0-2 1.001 1.001 0 0 1 0 2Z" />
  </symbol>
  <symbol id="artwork-minor">
    <path fill-rule="evenodd" d="M62.02 63c0 .55-.45 1-1 1s-1-.45-1-1 .45-1 1-1 1 .45 1 1Zm-1-5c-2.76 0-5 2.24-5 5s2.24 5 5 5 5-2.24 5-5-2.24-5-5-5Zm0 8c-1.66 0-3-1.34-3-3s1.34-3 3-3 3 1.34 3 3-1.34 3-3 3Zm5.46-14h2.57c3.05-.01 5 1.94 5 5.99 0 4.05-1.95 6-5 6-.55 0-1-.45-1-1s.45-1 1-1c1.95 0 3-1.14 3-4 0-2.86-.99-3.93-2.83-4H43.05a1.003 1.003 0 0 1-.12-2h7.12v-3a1.003 1.003 0 0 1 2-.12v3.12h11.84l-2.51-2.95-1.24-1.43-.47-.53-.36-.4c-.22-.22-.57-.4-1.04-.52-.44-.11-.85-.15-1.37-.16H43.03c-2 0-3.33 1.21-4.19 3.37-.32.8-.54 1.67-.68 2.54 0 .05-.02.11-.02.16-.02.15-.04.29-.06.42l-.05.36v.19c-.03.54-.47.96-1 .96-3.68 0-5.2 1.53-5 4.94.03.55-.39 1.03-.94 1.06-.55.03-1.03-.39-1.06-.94-.25-4.22 1.82-6.65 5.89-7.01l.2-.02.06-.44c.16-1.01.42-2.01.8-2.96 1.09-2.75 2.98-4.52 5.77-4.63h13.87c.81 0 1.41.04 2.12.22.81.2 1.5.55 2.01 1.09l.19.21.55.62 1.25 1.45 2.71 3.19L66.48 52ZM39.02 64c.55 0 1-.45 1-1s-.45-1-1-1-1 .45-1 1 .45 1 1 1Zm4.9-2h9.1a1.003 1.003 0 0 1 .12 2h-9.22a5 5 0 1 1 0-2Zm-7.9 1c0 1.66 1.34 3 3 3s3-1.34 3-3-1.34-3-3-3-3 1.34-3 3ZM15 40a9 9 0 1 1 18.001.001A9 9 0 0 1 15 40Zm11.92 6.36a6.978 6.978 0 0 0 4-5.36h-2.95c-.09 2.08-.46 3.95-1.05 5.36ZM25.97 41c-.03.63-.09 1.24-.18 1.8l-.08.5c-.12.65-.27 1.25-.43 1.75l-.13.36c-.37.99-.79 1.58-1.16 1.58-.37 0-.79-.59-1.16-1.58l-.13-.36c-.16-.51-.31-1.1-.43-1.75l-.08-.5c-.08-.56-.15-1.17-.18-1.8h3.96Zm2-2h2.95a7 7 0 0 0-4-5.36c.6 1.41.97 3.28 1.05 5.36Zm-6.89-5.36a6.978 6.978 0 0 0-4 5.36h2.95c.09-2.08.46-3.95 1.05-5.36Zm.95 5.36c.03-.63.09-1.24.18-1.8l.08-.5c.12-.65.27-1.25.43-1.75l.13-.36c.37-.99.79-1.58 1.16-1.58.37 0 .79.59 1.16 1.58l.13.36c.16.51.31 1.1.43 1.75l.08.5c.08.56.15 1.17.18 1.8h-3.96Zm-2 2h-2.95a7 7 0 0 0 4 5.36c-.6-1.41-.97-3.28-1.05-5.36Z" clip-rule="evenodd"/>
  </symbol>
  <symbol id="artwork-major">
    <path fill-rule="evenodd" d="M22 60c.55 0 1-.45 1-1s-.45-1-1-1H11c-.85 0-1.6-.21-2.11-.64-.48-.4-.89-1.1-.89-2.36V16.5c0-.95 1.05-2.5 3-2.5h35c.55 0 1-.45 1-1s-.45-1-1-1H11c-3.05 0-5 2.45-5 4.5V55c0 1.74.59 3.04 1.61 3.89C8.6 59.71 9.85 60 11 60h11Zm33-47c0-.55.45-1 1-1h9c1.15 0 2.4.29 3.39 1.11C69.41 13.96 70 15.26 70 17v30c0 .55-.45 1-1 1s-1-.45-1-1V17c0-1.26-.41-1.96-.89-2.36-.51-.43-1.26-.64-2.11-.64h-9c-.55 0-1-.45-1-1Zm-36 7h-5v2h5v-2Zm-7-2v6h9v-6h-2m7 2c-.55 0-1 .45-1 1s.45 1 1 1h11c.55 0 1-.45 1-1s-.45-1-1-1H26Zm15 0c-.55 0-1 .45-1 1s.45 1 1 1h22c.55 0 1-.45 1-1s-.45-1-1-1H41Zm-1 9c0-.55.45-1 1-1h16c.55 0 1 .45 1 1s-.45 1-1 1H41c-.55 0-1-.45-1-1Zm0 4c0-.55.45-1 1-1h8c.55 0 1 .45 1 1s-.45 1-1 1h-8c-.55 0-1-.45-1-1Zm1 3c-.55 0-1 .45-1 1s.45 1 1 1h5c.55 0 1-.45 1-1s-.45-1-1-1h-5Zm8 1c0-.55.45-1 1-1h5c.55 0 1 .45 1 1s-.45 1-1 1h-5c-.55 0-1-.45-1-1Z" clip-rule="evenodd"/>
  </symbol>
  <use class="fr-artwork-decorative" href="#artwork-decorative"/>
  <use class="fr-artwork-minor" href="#artwork-minor"/>
  <use class="fr-artwork-major" href="#artwork-major"/>
</svg>
