<svg width="80px" height="80px" viewBox="0 0 80 80" xmlns="http://www.w3.org/2000/svg">
  <style>
    .fr-artwork-decorative {
      fill: #ECECFF;
    }
    .fr-artwork-minor {
      fill: #E1000F;
    }
    .fr-artwork-major {
      fill: #000091;
    }
  </style>
  <symbol id="artwork-decorative">
    <path d="M74 8a1.001 1.001 0 0 1 0-2 1.001 1.001 0 0 1 0 2ZM19 74a1.001 1.001 0 0 1 0-2 1.001 1.001 0 0 1 0 2ZM7 10a1.001 1.001 0 0 1 0-2 1.001 1.001 0 0 1 0 2Z"/>
  </symbol>
  <symbol id="artwork-minor">
    <path fill-rule="evenodd" clip-rule="evenodd" d="M50 26a9 9 0 1 0 .001 18.001A9 9 0 0 0 50 26Zm6.92 10a6.978 6.978 0 0 1-4 5.36c.59-1.41.96-3.28 1.05-5.36h2.95Zm-5.13 1.8c.09-.56.15-1.17.18-1.8h-3.96c.03.63.1 1.24.18 1.8l.08.5c.12.65.27 1.24.43 1.75l.13.36c.37.99.79 1.58 1.16 1.58.37 0 .79-.59 1.16-1.58l.13-.36c.16-.5.31-1.1.43-1.75l.08-.5Zm5.13-3.8h-2.95c-.08-2.08-.45-3.95-1.05-5.36a7 7 0 0 1 4 5.36Zm-13.85 0a6.978 6.978 0 0 1 4-5.36c-.59 1.41-.96 3.28-1.05 5.36h-2.95Zm5.13-1.8c-.09.56-.15 1.17-.18 1.8h3.96c-.03-.63-.1-1.24-.18-1.8l-.08-.5c-.12-.65-.27-1.24-.43-1.75l-.13-.36c-.37-.99-.79-1.58-1.16-1.58-.37 0-.79.59-1.16 1.58l-.13.36c-.16.5-.31 1.1-.43 1.75l-.08.5ZM43.07 36h2.95c.08 2.08.45 3.95 1.05 5.36a7 7 0 0 1-4-5.36Z"/>
    <path d="M60 53c0-.55-.45-1-1-1H40.88c-.49.05-.88.48-.88.99 0 .55.45 1 1 1h18.12c.49-.05.88-.48.88-.99ZM23 35c.55 0 1 .45 1 1v-.02c0 .55-.46 1-1.01 1h-7.95c-.2 0-.47.11-.7.34-.23.23-.34.51-.34.76v19.91c0 .18.1.44.33.67.24.23.5.33.67.33h8c.55 0 1 .45 1 1s-.45 1-1 1h-8c-.82 0-1.56-.4-2.08-.92-.52-.51-.92-1.25-.92-2.08V38.08c0-.85.39-1.61.92-2.15.53-.54 1.29-.93 2.13-.93H23Z M24 41v2a2.998 2.998 0 0 0-2.996 3c0 1.657 1.341 3 2.996 3v2c-3.336 0-5.873 2.17-6.003 4.81V56H16c0-2.82 1.888-5.22 4.594-6.34A5 5 0 0 1 18.996 46c0-2.76 2.247-5 5.004-5Z"/>
  </symbol>
  <symbol id="artwork-major">
    <path fill-rule="evenodd" clip-rule="evenodd" d="m29.9 14.12 30-6 .2-.02c2.69 0 4.79 2.24 4.9 4.9v1h4c2.69 0 4.88 2.12 5 4.78V47c0 .55-.45 1-1 1-.51 0-.94-.39-.99-.88V19c0-1.6-1.25-2.9-2.82-2.99H31.01c-1.6 0-2.9 1.25-2.99 2.82v48.18c0 1.6 1.25 2.9 2.82 2.99h38.18c1.6 0 2.9-1.25 2.99-2.82V57c0-.55.45-1 1-1 .51 0 .94.39.99.88V67c0 2.69-2.12 4.88-4.78 5H31c-2.69 0-4.88-2.12-5-4.78V67H11c-1.15 0-2.4-.29-3.39-1.11C6.59 65.04 6 63.74 6 62V23.5c0-2.05 1.95-4.5 5-4.5h15a5 5 0 0 1 3.9-4.88ZM26 21H11c-1.95 0-3 1.55-3 2.5V62c0 1.26.41 1.96.89 2.36.51.43 1.26.64 2.11.64h15V29c-.55 0-1-.45-1-1s.45-1 1-1v-6Zm37-7v-1c0-1.6-1.15-2.81-2.72-2.9h-.09L40.69 14h22.32H63Zm-8 34c.55 0 1 .45 1 1 0 .51-.39.94-.88.99H45c-.55 0-1-.45-1-1 0-.51.39-.94.88-.99H55Zm2 8c.55 0 1 .45 1 1 0 .51-.39.94-.88.99H43c-.55 0-1-.45-1-1 0-.51.39-.94.88-.99H57Zm-2 4c.55 0 1 .45 1 1 0 .51-.39.94-.88.99H45c-.55 0-1-.45-1-1 0-.51.39-.94.88-.99H55ZM14 27h5v2h-5v-2Zm-2-2h9v6h-9v-6Z"/>
  </symbol>
  <use class="fr-artwork-decorative" href="#artwork-decorative"/>
  <use class="fr-artwork-minor" href="#artwork-minor"/>
  <use class="fr-artwork-major" href="#artwork-major"/>
</svg>
