<svg width="80px" height="80px" viewBox="0 0 80 80" xmlns="http://www.w3.org/2000/svg">
 	<style>
		.fr-artwork-decorative {
			fill: #ECECFF;
		}
		.fr-artwork-minor {
			fill: #E1000F;
		}
		.fr-artwork-major {
			fill: #000091;
		}
	</style>
	<g class="fr-artwork-decorative" id="artwork-decorative">
    <path d="M17,8c-0.5514,0-1-0.4486-1-1c0-0.55145,0.4486-1,1-1s1,0.44855,1,1C18,7.5514,17.5514,8,17,8z M15,72
	c-0.5514,0-1-0.4486-1-1s0.4486-1,1-1s1,0.4486,1,1S15.5514,72,15,72z M65,72c-0.5514,0-1-0.4486-1-1s0.4486-1,1-1s1,0.4486,1,1
	S65.5514,72,65,72z M65,10c-0.5514,0-1-0.4486-1-1c0-0.55145,0.4486-1,1-1s1,0.44855,1,1C66,9.5514,65.5514,10,65,10z"/>
  </g>
  <g class="fr-artwork-minor" id="artwork-minor">
    <path d="M31.40363,38.66272C32.38562,37.74982,33,36.44659,33,35c0-2.76141-2.23859-5-5-5s-5,2.23859-5,5
	c0,1.44659,0.61438,2.74982,1.59637,3.66272C21.8902,39.77551,20,42.17682,20,45h2l0.00452-0.19379
	C22.12683,42.1687,24.73468,40,28,40c3.34497,0,6,2.2757,6,5h2l-0.00409-0.22858
	C35.89691,42.04761,34.03638,39.7453,31.40363,38.66272z M28,38c-1.65692,0-3-1.34308-3-3s1.34308-3,3-3s3,1.34308,3,3
	S29.65692,38,28,38z M37,24H19c-1.65692,0-3,1.34308-3,3v20c0,1.65692,1.34308,3,3,3h18c1.65692,0,3-1.34308,3-3V27
	C40,25.34308,38.65692,24,37,24z M38,47c0,0.55231-0.44769,1-1,1H19c-0.55231,0-1-0.44769-1-1V27c0-0.55231,0.44769-1,1-1h18
	c0.55231,0,1,0.44769,1,1V47z"/>
  </g>
  <g class="fr-artwork-major" id="artwork-major">
    <path d="M15.99329,62.88342L16,63c0,0.51282-0.38599,0.93549-0.88342,0.99329L15,64h-2.24237
	c-2.57062,0-4.64288-2.13202-4.75305-4.77832L8,59V21c0-2.67371,2.00281-4.87793,4.54449-4.99512L12.75763,16H57
	c0.55231,0,1,0.44769,1,1c0,0.51282-0.38599,0.93549-0.88342,0.99329L57,18H12.75763c-1.45471,0-2.66803,1.23639-2.75293,2.82239
	L10,21v38c0,1.61072,1.16138,2.9046,2.59698,2.995L12.75763,62H15C15.51282,62,15.93549,62.38599,15.99329,62.88342z
	 M71.99542,20.77832C71.88531,18.13202,69.81299,16,67.24243,16H63l-0.11658,0.00671C62.38599,16.06451,62,16.48718,62,17
	c0,0.55231,0.44769,1,1,1h4.24243l0.16058,0.005C68.83862,18.0954,70,19.38928,70,21v38l-0.0047,0.17761
	C69.9104,60.76361,68.69708,62,67.24243,62H39l-0.11658,0.00671C38.38599,62.06451,38,62.48718,38,63c0,0.55231,0.44769,1,1,1
	h28.24243l0.21307-0.00488C69.99719,63.87787,72,61.67371,72,59V21L71.99542,20.77832z M35,56H15l-0.11658,0.00671
	C14.38599,56.06451,14,56.48718,14,57c0,0.55231,0.44769,1,1,1h20l0.11658-0.00671C35.61401,57.93549,36,57.51282,36,57
	C36,56.44769,35.55231,56,35,56z M53,56l-0.11658,0.00671C52.38599,56.06451,52,56.48718,52,57c0,0.55231,0.44769,1,1,1h2
	l0.11658-0.00671C55.61401,57.93549,56,57.51282,56,57c0-0.55231-0.44769-1-1-1H53z M59,58h6l0.11658-0.00671
	C65.61401,57.93549,66,57.51282,66,57c0-0.55231-0.44769-1-1-1h-6l-0.11658,0.00671C58.38599,56.06451,58,56.48718,58,57
	C58,57.55231,58.44769,58,59,58z M38,57c0,0.55139,0.44861,1,1,1s1-0.44861,1-1s-0.44861-1-1-1S38,56.44861,38,57z M42,57
	c0,0.55139,0.44861,1,1,1s1-0.44861,1-1s-0.44861-1-1-1S42,56.44861,42,57z M63,24H45l-0.11658,0.00671
	C44.38599,24.06451,44,24.48718,44,25c0,0.55231,0.44769,1,1,1h18l0.11658-0.00671C63.61401,25.93549,64,25.51282,64,25
	C64,24.44769,63.55231,24,63,24z M45,30h8l0.11658-0.00671C53.61401,29.93549,54,29.51282,54,29c0-0.55231-0.44769-1-1-1h-8
	l-0.11658,0.00671C44.38599,28.06451,44,28.48718,44,29C44,29.55231,44.44769,30,45,30z M58,29c0-0.55139-0.44861-1-1-1
	s-1,0.44861-1,1s0.44861,1,1,1S58,29.55139,58,29z M45,34h12l0.11658-0.00671C57.61401,33.93549,58,33.51282,58,33
	c0-0.55231-0.44769-1-1-1H45l-0.11658,0.00671C44.38599,32.06451,44,32.48718,44,33C44,33.55231,44.44769,34,45,34z M44,41.5
	c0-1.93298,1.56702-3.5,3.5-3.5s3.5,1.56702,3.5,3.5S49.43298,45,47.5,45S44,43.43298,44,41.5z M46,41.5
	c0,0.82837,0.67163,1.5,1.5,1.5c0.82843,0,1.5-0.67163,1.5-1.5c0-0.82843-0.67157-1.5-1.5-1.5C46.67163,40,46,40.67157,46,41.5z
	 M63.11658,49.99329C63.61401,49.93549,64,49.51282,64,49c0-0.55231-0.44769-1-1-1H45l-0.11658,0.00671
	C44.38599,48.06451,44,48.48718,44,49c0,0.55231,0.44769,1,1,1h18L63.11658,49.99329z M47,56l-0.11658,0.00671
	C46.38599,56.06451,46,56.48718,46,57c0,0.55231,0.44769,1,1,1h2l0.11658-0.00671C49.61401,57.93549,50,57.51282,50,57
	c0-0.55231-0.44769-1-1-1H47z"/>
  </g>
</svg>
