<svg width="80px" height="80px" viewBox="0 0 80 80" xmlns="http://www.w3.org/2000/svg">
 	<style>
		.fr-artwork-decorative {
			fill: #ECECFF;
		}
		.fr-artwork-minor {
			fill: #E1000F;
		}
		.fr-artwork-major {
			fill: #000091;
		}
	</style>
	<symbol id="artwork-decorative">
    <path d="M17,8c-0.5514,0-1-0.4486-1-1c0-0.55145,0.4486-1,1-1s1,0.44855,1,1C18,7.5514,17.5514,8,17,8z M7,64
	c-0.5514,0-1-0.4486-1-1s0.4486-1,1-1s1,0.4486,1,1S7.5514,64,7,64z M77,58c-0.5514,0-1-0.4486-1-1s0.4486-1,1-1s1,0.4486,1,1
	S77.5514,58,77,58z M61,6c-0.5514,0-1-0.4486-1-1c0-0.55145,0.4486-1,1-1s1,0.44855,1,1C62,5.5514,61.5514,6,61,6z"/>
  </symbol>
  <symbol id="artwork-minor">
    <path d="M50,53c0-0.5523-0.4477-1-1-1H31l-0.1166,0.0067C30.386,52.0645,30,52.4872,30,53c0,0.5523,0.4477,1,1,1h18
	l0.1166-0.0067C49.614,53.9355,50,53.5128,50,53z M40,26c-4.97058,0-9,4.02942-9,9s4.02942,9,9,9s9-4.02942,9-9S44.97058,26,40,26z
	 M46.92908,34h-2.95026c-0.08899-2.07788-0.45581-3.95111-1.05432-5.36169C45.04071,29.61279,46.58752,31.612,46.92908,34z
	 M33.07092,36h2.95026c0.08905,2.07788,0.45581,3.95111,1.05432,5.36169C34.95929,40.38721,33.41248,38.388,33.07092,36z
	 M36.02118,34h-2.95026c0.34155-2.388,1.88837-4.38721,4.00458-5.36169C36.47699,30.04889,36.11023,31.92212,36.02118,34z
	 M41.79572,37.80292l-0.08264,0.50226c-0.11786,0.6543-0.26544,1.2453-0.42975,1.75305l-0.12634,0.36475
	C40.79163,41.41071,40.36493,42,40,42c-0.36487,0-0.79163-0.58929-1.15698-1.57703l-0.12634-0.36475
	c-0.16425-0.50775-0.31189-1.09875-0.42975-1.75305l-0.08264-0.50226C38.11987,37.23798,38.05792,36.6333,38.02551,36h3.94897
	C41.94208,36.6333,41.88013,37.23798,41.79572,37.80292z M38.02551,34c0.03241-0.6333,0.09436-1.23798,0.17877-1.80292
	l0.08264-0.50226c0.11786-0.6543,0.2655-1.2453,0.42975-1.75305l0.12634-0.36475C39.20837,28.58929,39.63513,28,40,28
	c0.36493,0,0.79163,0.58929,1.15698,1.57703l0.12634,0.36475c0.16431,0.50775,0.31189,1.09875,0.42975,1.75305l0.08264,0.50226
	C41.88013,32.76202,41.94208,33.3667,41.97449,34H38.02551z M42.9245,41.36169c0.59851-1.41058,0.96533-3.28381,1.05432-5.36169
	h2.95026C46.58752,38.388,45.04071,40.38721,42.9245,41.36169z"/>
  </symbol>
  <symbol id="artwork-major">
    <path d="M62.00671,47.11658C62.06451,47.61401,62.48718,48,63,48c0.55231,0,1-0.44769,1-1V19l-0.00458-0.21692
	C63.88177,16.12231,61.68878,14,59,14h-3.99738l0.00195-0.78308L55,13c-0.11359-2.66083-2.21179-4.90332-4.90057-4.90332
	l-0.19611,0.01941l-30,6l0.00085,0.00439C17.66992,14.62,16,16.61499,16,19v48l0.00458,0.21692C16.11823,69.87769,18.31122,72,21,72
	h38l0.21692-0.00458C61.87769,71.88177,64,69.68878,64,67V57l-0.00671-0.11658C63.93549,56.38599,63.51282,56,63,56
	c-0.55231,0-1,0.44769-1,1v10l-0.00513,0.17627C61.90369,68.7511,60.59772,70,59,70H21l-0.17627-0.00513
	C19.2489,69.90369,18,68.59772,18,67V19l0.00513-0.17633C18.09631,17.2489,19.40228,16,21,16h38l0.17633,0.00513
	C60.7511,16.09631,62,17.40228,62,19v28L62.00671,47.11658z M53,14H30.67999l19.5033-3.90143l0.09241,0.00323
	C51.85052,10.19299,53,11.40228,53,13V14z M35,50c-0.55231,0-1-0.44769-1-1c0-0.51282,0.38599-0.93549,0.88342-0.99329L35,48h10
	c0.55231,0,1,0.44769,1,1c0,0.51282-0.38599,0.93549-0.88342,0.99329L45,50H35z M47,58H33c-0.55231,0-1-0.44769-1-1
	c0-0.51282,0.38599-0.93549,0.88342-0.99329L33,56h14c0.55231,0,1,0.44769,1,1c0,0.51282-0.38599,0.93549-0.88342,0.99329L47,58z
	 M45,60c0.55231,0,1,0.44769,1,1c0,0.51282-0.38599,0.93549-0.88342,0.99329L45,62H35c-0.55231,0-1-0.44769-1-1
	c0-0.51282,0.38599-0.93549,0.88342-0.99329L35,60H45z"/>
  </symbol>
  <use class="fr-artwork-decorative" href="#artwork-decorative"/>
  <use class="fr-artwork-minor" href="#artwork-minor"/>
  <use class="fr-artwork-major" href="#artwork-major"/>
</svg>
