<svg width="80px" height="80px" viewBox="0 0 80 80" xmlns="http://www.w3.org/2000/svg">
  <style>
    .fr-artwork-decorative {
      fill: #ECECFF;
    }
    .fr-artwork-minor {
      fill: #E1000F;
    }
    .fr-artwork-major {
      fill: #000091;
    }
  </style>
  <symbol id="artwork-decorative">
    <path d="M16 6a1.001 1.001 0 0 1 0-2 1.001 1.001 0 0 1 0 2ZM10 72a1.001 1.001 0 0 1 0-2 1.001 1.001 0 0 1 0 2ZM75 77a1.001 1.001 0 0 1 0-2 1.001 1.001 0 0 1 0 2ZM69 10a1.001 1.001 0 0 1 0-2 1.001 1.001 0 0 1 0 2Z"/>
  </symbol>
  <symbol id="artwork-minor">
    <path d="M24 58a1 1 0 0 1 1-1h30a1 1 0 0 1 1 1v8a1 1 0 0 1-1 1H25a1 1 0 0 1-1-1v-8Zm2 1v6h28v-6H26Z M28 62a1 1 0 0 1 1-1h22a1 1 0 1 1 0 2H29a1 1 0 0 1-1-1ZM57 31a1 1 0 0 1 1 1v8a1 1 0 1 1-2 0v-8a1 1 0 0 1 1-1ZM58 28a1 1 0 1 1-2 0 1 1 0 0 1 2 0Z"/>
  </symbol>
  <symbol id="artwork-major">
    <path d="M23.175 16C20.348 16 18 18.205 18 21v27a1 1 0 1 1-2 0V21c0-3.985 3.331-7 7.175-7H36a1 1 0 1 1 0 2H23.175Z M31 19a1 1 0 0 1 1-1h16a1 1 0 0 1 1 1v5a1 1 0 0 1-1 1H32a1 1 0 0 1-1-1v-5Zm2 1v3h14v-3H33ZM27 32a5 5 0 0 1 5-5h16a5 5 0 0 1 5 5v16a5 5 0 0 1-5 5H32a5 5 0 0 1-5-5V32Zm5-3a3 3 0 0 0-3 3v16a3 3 0 0 0 3 3h16a3 3 0 0 0 3-3V32a3 3 0 0 0-3-3H32Z M35.5 12.5c0-2.452 2.048-4.5 4.5-4.5s4.5 2.048 4.5 4.5V19a1 1 0 0 1-1 1h-7a1 1 0 0 1-1-1v-6.5ZM40 10c-1.348 0-2.5 1.152-2.5 2.5V18h5v-5.5c0-1.348-1.152-2.5-2.5-2.5Z M43 15a1 1 0 0 1 1-1h13c3.963 0 7 3.159 7 7v45c0 1.999-.81 3.55-2.158 4.572C60.53 71.567 58.795 72 57 72H23c-1.852 0-3.59-.462-4.89-1.474C16.78 69.49 16 67.943 16 66V56a1 1 0 1 1 2 0v10c0 1.357.52 2.31 1.34 2.949C20.19 69.612 21.453 70 23 70h34c1.505 0 2.77-.367 3.633-1.022C61.461 68.351 62 67.401 62 66V21c0-2.759-2.163-5-5-5H44a1 1 0 0 1-1-1Z M40 34a3 3 0 1 0 0 6 3 3 0 0 0 0-6Zm-5 3a5 5 0 1 1 10 0 5 5 0 0 1-10 0Z M33 47c0-3.691 3.096-7 7-7 3.893 0 7 3.192 7 7a1 1 0 1 1-2 0c0-2.718-2.227-5-5-5-2.762 0-5 2.375-5 5a1 1 0 1 1-2 0Z"/>
  </symbol>
  <use class="fr-artwork-decorative" href="#artwork-decorative"/>
  <use class="fr-artwork-minor" href="#artwork-minor"/>
  <use class="fr-artwork-major" href="#artwork-major"/>
</svg>
