<svg width="80px" height="80px" viewBox="0 0 80 80" xmlns="http://www.w3.org/2000/svg">
  <style>
    .fr-artwork-decorative {
      fill: #ECECFF;
    }
    .fr-artwork-minor {
      fill: #E1000F;
    }
    .fr-artwork-major {
      fill: #000091;
    }
  </style>
  <symbol id="artwork-decorative">
    <path d="M75 62a1.001 1.001 0 0 1 0-2 1.001 1.001 0 0 1 0 2ZM55 4a1.001 1.001 0 0 1 0-2 1.001 1.001 0 0 1 0 2ZM3 54a1.001 1.001 0 0 1 0-2 1.001 1.001 0 0 1 0 2Z"/>
  </symbol>
  <symbol id="artwork-minor">
    <path d="M49 54c1.886 0 3 1.114 3 3 0 .082-.01.163-.03.242-.505 2.022-2.752 3.336-6.762 4.06l-.648.11c-.22.034-.446.068-.677.1l-.706.09-.364.041-.75.076-.78.067-.81.057-.838.049-.43.02-.883.035-.912.026-.942.017L35 62a1 1 0 1 1 0-2l.95-.004.463-.006.904-.017.874-.025.842-.034.812-.042.78-.05.75-.058.72-.065c.117-.012.233-.023.348-.036l.672-.076c.33-.04.646-.084.952-.13l.595-.095.565-.102.533-.11c2.418-.526 3.822-1.276 4.204-2.194l.033-.091-.007-.118c-.046-.538-.268-.722-.858-.745L49 56c-1.039 0-2.133.547-3.293 1.707-.602.603-1.614.22-1.701-.593L44 57c0-.781-.219-1-1-1-1.039 0-2.133.547-3.293 1.707a1 1 0 0 1-1.414-1.414C39.799 54.786 41.373 54 43 54c1.145 0 2.005.41 2.505 1.156l.039.063.196-.136c.977-.66 1.979-1.024 3.003-1.076L49 54Z"/>
  </symbol>
  <symbol id="artwork-major">
    <path d="M41 18a1 1 0 0 1 .117 1.993L41 20H25a1 1 0 0 1-.117-1.993L25 18h16ZM52 25a1 1 0 0 0-1-1H25l-.117.007A1 1 0 0 0 25 26h26l.117-.007A1 1 0 0 0 52 25ZM45 30a1 1 0 0 1 .117 1.993L45 32H25a1 1 0 0 1-.117-1.993L25 30h20ZM52 37a1 1 0 0 0-1-1H25l-.117.007A1 1 0 0 0 25 38h26l.117-.007A1 1 0 0 0 52 37ZM46 43a1 1 0 0 0-1-1H25l-.117.007A1 1 0 0 0 25 44h20l.117-.007A1 1 0 0 0 46 43Z M19 12h38a1 1 0 0 1 1 1v54a1 1 0 0 1-1 1H19a1 1 0 0 1-1-1V13a1 1 0 0 1 1-1Zm37 54V14H20v52h36Z M61 20a1 1 0 0 1 .993.883L62 21v50a1 1 0 0 1-.883.993L61 72H27a1 1 0 0 1-.117-1.993L27 70h33V21a1 1 0 0 1 .883-.993L61 20Z"/>
  </symbol>
  <use class="fr-artwork-decorative" href="#artwork-decorative"/>
  <use class="fr-artwork-minor" href="#artwork-minor"/>
  <use class="fr-artwork-major" href="#artwork-major"/>
</svg>
