<svg width="80px" height="80px" viewBox="0 0 80 80" xmlns="http://www.w3.org/2000/svg">
 	<style>
		.fr-artwork-decorative {
			fill: #ECECFF;
		}
		.fr-artwork-minor {
			fill: #E1000F;
		}
		.fr-artwork-major {
			fill: #000091;
		}
	</style>
	<symbol id="artwork-decorative">
    <path d="M77,58c-0.5514,0-1-0.4486-1-1s0.4486-1,1-1s1,0.4486,1,1S77.5514,58,77,58z M61,6c-0.5514,0-1-0.4486-1-1
	c0-0.55145,0.4486-1,1-1s1,0.44855,1,1C62,5.5514,61.5514,6,61,6z M17,8c-0.5514,0-1-0.4486-1-1c0-0.55145,0.4486-1,1-1
	s1,0.44855,1,1C18,7.5514,17.5514,8,17,8z M1,32c-0.5514,0-1-0.4486-1-1s0.4486-1,1-1s1,0.4486,1,1S1.5514,32,1,32z M22,77
	c-0.5514,0-1-0.4486-1-1s0.4486-1,1-1s1,0.4486,1,1S22.5514,77,22,77z M60,76c-0.5514,0-1-0.4486-1-1s0.4486-1,1-1s1,0.4486,1,1
	S60.5514,76,60,76z M61,6c-0.5514,0-1-0.4486-1-1c0-0.55145,0.4486-1,1-1s1,0.44855,1,1C62,5.5514,61.5514,6,61,6z"/>
  </symbol>
  <symbol id="artwork-minor">
    <path d="M29.0978,27c0.5523,0,1,0.4477,1,1c0,0.5128-0.3861,0.9355-0.8834,0.9933L29.0978,29H25
	c-0.5443,0-0.9358,0.2893-0.9928,0.5821L24,29.6552v20.6896c0,0.2913,0.3496,0.6031,0.8672,0.6493L25,51h28c0.5523,0,1,0.4477,1,1
	c0,0.5128-0.386,0.9355-0.8834,0.9933L53,53H25c-1.5595,0-2.8974-1.0595-2.9944-2.4887L22,50.3448V29.6552
	c0-1.4567,1.2802-2.5701,2.8211-2.6505L25,27H29.0978z M59,27c1.5595,0,2.8974,1.0595,2.9944,2.4887L62,29.6552v20.6896
	c0,1.4567-1.2802,2.5701-2.8211,2.6505L59,53h-2.0882c-0.5523,0-1-0.4477-1-1c0-0.5128,0.386-0.9355,0.8833-0.9933L56.9118,51H59
	c0.5443,0,0.9358-0.2893,0.9928-0.5821L60,50.3448V29.6552c0-0.2913-0.3496-0.6031-0.8672-0.6493L59,29H33c-0.5523,0-1-0.4477-1-1
	c0-0.5128,0.386-0.9355,0.8834-0.9933L33,27H59z M54.279,35.7941C53.1589,34.6545,51.6302,34,50,34
	c-2.4215,0-4.5079,1.4345-5.456,3.5H43.5l-0.1166,0.0067C42.886,37.5645,42.5,37.9872,42.5,38.5c0,0.5523,0.4477,1,1,1h0.5205
	C44.0069,39.6649,44,39.8316,44,40s0.0069,0.3351,0.0205,0.5H43.5l-0.1166,0.0067C42.886,40.5645,42.5,40.9872,42.5,41.5
	c0,0.5523,0.4477,1,1,1h1.044C45.4921,44.5655,47.5785,46,50,46c1.487,0,2.8921-0.5443,3.9819-1.5117
	c0.413-0.3666,0.4506-0.9986,0.084-1.4117c-0.3667-0.413-0.9987-0.4506-1.4117-0.084C51.9269,43.6382,50.9929,44,50,44
	c-1.2632,0-2.3896-0.5855-3.1227-1.5H48.5l0.1166-0.0067C49.114,42.4355,49.5,42.0128,49.5,41.5c0-0.5523-0.4477-1-1-1h-2.4691
	C46.0105,40.3362,46,40.1693,46,40s0.0105-0.3362,0.0309-0.5H48.5l0.1166-0.0067C49.114,39.4355,49.5,39.0128,49.5,38.5
	c0-0.5523-0.4477-1-1-1h-1.6227C47.6104,36.5855,48.7368,36,50,36c1.0882,0,2.1049,0.4353,2.8527,1.1961
	c0.3872,0.3939,1.0204,0.3993,1.4142,0.0121C54.6608,36.8211,54.6662,36.1879,54.279,35.7941z"/>
  </symbol>
  <symbol id="artwork-major">
    <path d="M10,18c0-0.51282,0.38599-0.93549,0.88342-0.99329L11,17h5c0.48322,0,0.88641,0.34277,0.97968,0.79852
	c0.00574,0.02789,0.01025,0.05615,0.01361,0.0849C16.99768,17.92157,17,17.96057,17,18c0,0.55231,0.44769,1,1,1
	c0.51282,0,0.93549-0.38599,0.99329-0.88342L19,18c0-0.51282,0.38599-0.93549,0.88342-0.99329L20,17h5
	c0.48322,0,0.88641,0.34277,0.97968,0.79852c0.00574,0.02789,0.01025,0.05615,0.01361,0.0849C25.99768,17.92157,26,17.96057,26,18
	c0,0.55231,0.44769,1,1,1c0.51282,0,0.93549-0.38599,0.99329-0.88342L28,18c0-0.51282,0.38599-0.93549,0.88342-0.99329L29,17h5
	c0.48322,0,0.88641,0.34277,0.97968,0.79852c0.00574,0.02789,0.01025,0.05615,0.01361,0.0849C34.99768,17.92157,35,17.96057,35,18
	c0,0.55231,0.44769,1,1,1c0.51282,0,0.93549-0.38599,0.99329-0.88342L37,18c0-0.51282,0.38599-0.93549,0.88342-0.99329L38,17h5
	c0.48322,0,0.88641,0.34277,0.97968,0.79852C43.99298,17.86359,44,17.93097,44,18c0,0.55231,0.44769,1,1,1
	c0.51282,0,0.93549-0.38599,0.99329-0.88342L46,18c0-0.49188,0.3551-0.90082,0.82288-0.98438
	c0.02002-0.00354,0.0401-0.00653,0.06055-0.00891C46.92163,17.00232,46.96063,17,47,17h5c0.48322,0,0.88641,0.34277,0.97968,0.79852
	C52.99298,17.86359,53,17.93097,53,18c0,0.55231,0.44769,1,1,1c0.51282,0,0.93549-0.38599,0.99329-0.88342L55,18
	c0-0.49188,0.3551-0.90082,0.82288-0.98438c0.02002-0.00354,0.0401-0.00653,0.06055-0.00891C55.92163,17.00232,55.96063,17,56,17h5
	c0.48322,0,0.88641,0.34277,0.97968,0.79852C61.99298,17.86359,62,17.93097,62,18c0,0.55231,0.44769,1,1,1
	c0.51282,0,0.93549-0.38599,0.99329-0.88342L64,18c0-0.49188,0.3551-0.90082,0.82288-0.98438
	c0.02002-0.00354,0.0401-0.00653,0.06055-0.00891C64.92163,17.00232,64.96063,17,65,17h6c0.55231,0,1,0.44769,1,1
	c0,0.51282-0.38599,0.93549-0.88342,0.99329L71,19h-5.17072c-0.4118,1.16522-1.52307,2-2.82928,2s-2.41748-0.83478-2.82928-2
	h-3.34143c-0.4118,1.16522-1.52307,2-2.82928,2s-2.41748-0.83478-2.82928-2h-3.34143c-0.4118,1.16522-1.52307,2-2.82928,2
	s-2.41748-0.83478-2.82928-2h-3.34143c-0.4118,1.16522-1.52307,2-2.82928,2s-2.41748-0.83478-2.82928-2h-3.34143
	c-0.4118,1.16522-1.52307,2-2.82928,2s-2.41748-0.83478-2.82928-2h-3.34143c-0.4118,1.16522-1.52307,2-2.82928,2
	s-2.41748-0.83478-2.82928-2H11C10.44769,19,10,18.55231,10,18z M18,32l-0.00671-0.11658C17.93549,31.38599,17.51282,31,17,31
	c-0.55231,0-1,0.44769-1,1v14l0.00671,0.11658C16.06451,46.61401,16.48718,47,17,47c0.55231,0,1-0.44769,1-1V32z M37,35h-8
	l-0.11658,0.00671C28.38599,35.06451,28,35.48718,28,36c0,0.55231,0.44769,1,1,1h8l0.11658-0.00671
	C37.61401,36.93549,38,36.51282,38,36C38,35.44769,37.55231,35,37,35z M17,49c-0.55231,0-1,0.44769-1,1s0.44769,1,1,1s1-0.44769,1-1
	S17.55231,49,17,49z M37,39h-8l-0.11658,0.00671C28.38599,39.06451,28,39.48718,28,40c0,0.55231,0.44769,1,1,1h8l0.11658-0.00671
	C37.61401,40.93549,38,40.51282,38,40C38,39.44769,37.55231,39,37,39z M37,43h-8l-0.11658,0.00671
	C28.38599,43.06451,28,43.48718,28,44c0,0.55231,0.44769,1,1,1h8l0.11658-0.00671C37.61401,44.93549,38,44.51282,38,44
	C38,43.44769,37.55231,43,37,43z M10,57.82928c1.16522-0.4118,2-1.52307,2-2.82928s-0.83478-2.41748-2-2.82928v-3.34143
	c1.16522-0.4118,2-1.52307,2-2.82928s-0.83478-2.41748-2-2.82928v-3.34143c1.16522-0.4118,2-1.52307,2-2.82928
	s-0.83478-2.41748-2-2.82928v-3.34143c1.16522-0.4118,2-1.52307,2-2.82928s-0.83478-2.41748-2-2.82928V20l-0.00671-0.11658
	C9.93549,19.38599,9.51282,19,9,19c-0.55231,0-1,0.44769-1,1v6c0,0.03943,0.00226,0.07837,0.00671,0.11658
	C8.06451,26.61401,8.48718,27,9,27l0.11664,0.00671C9.61395,27.06451,10,27.48718,10,28c0,0.55231-0.44769,1-1,1
	c-0.03943,0-0.07837,0.00232-0.11664,0.00671C8.38605,29.06451,8,29.48718,8,30v5c0,0.03937,0.00226,0.07837,0.00671,0.11658
	C8.06451,35.61401,8.48718,36,9,36l0.11664,0.00671C9.61395,36.06451,10,36.48718,10,37c0,0.55231-0.44769,1-1,1
	c-0.03943,0-0.07837,0.00232-0.11664,0.00671C8.38605,38.06451,8,38.48718,8,39v5c0,0.03937,0.00226,0.07837,0.00671,0.11658
	C8.06451,44.61401,8.48718,45,9,45l0.11664,0.00671C9.61395,45.06451,10,45.48718,10,46c0,0.55231-0.44769,1-1,1
	c-0.03943,0-0.07837,0.00232-0.11664,0.00671C8.38605,47.06451,8,47.48718,8,48v5c0,0.03937,0.00226,0.07837,0.00671,0.11658
	c0.00238,0.02045,0.00537,0.04053,0.00891,0.06055C8.09918,53.6449,8.50812,54,9,54l0.11664,0.00671
	C9.61395,54.06451,10,54.48718,10,55c0,0.55231-0.44769,1-1,1c-0.03943,0-0.07837,0.00232-0.11664,0.00671
	C8.38605,56.06451,8,56.48718,8,57v3l0.00671,0.11658C8.06451,60.61401,8.48718,61,9,61c0.55231,0,1-0.44769,1-1V57.82928z M71,21
	c-0.51282,0-0.93549,0.38599-0.99329,0.88342L70,22v3.17072c-1.16522,0.4118-2,1.52307-2,2.82928s0.83478,2.41748,2,2.82928v3.34143
	c-1.16522,0.4118-2,1.52307-2,2.82928s0.83478,2.41748,2,2.82928v3.34143c-1.16522,0.4118-2,1.52307-2,2.82928
	s0.83478,2.41748,2,2.82928v3.34143c-1.16522,0.4118-2,1.52307-2,2.82928s0.83478,2.41748,2,2.82928V60c0,0.55231,0.44769,1,1,1
	c0.51282,0,0.93549-0.38599,0.99329-0.88342L72,60v-3c0-0.51282-0.38599-0.93549-0.88342-0.99329
	C71.07843,56.00232,71.03943,56,71,56c-0.55231,0-1-0.44769-1-1c0-0.51282,0.38599-0.93549,0.88342-0.99329L71,54
	c0.51282,0,0.93549-0.38599,0.99329-0.88342C71.99768,53.07837,72,53.03937,72,53v-5c0-0.51282-0.38599-0.93549-0.88342-0.99329
	C71.07843,47.00232,71.03943,47,71,47c-0.55231,0-1-0.44769-1-1c0-0.51282,0.38599-0.93549,0.88342-0.99329L71,45
	c0.51282,0,0.93549-0.38599,0.99329-0.88342C71.99768,44.07837,72,44.03937,72,44v-5c0-0.51282-0.38599-0.93549-0.88342-0.99329
	C71.07843,38.00232,71.03943,38,71,38c-0.55231,0-1-0.44769-1-1c0-0.51282,0.38599-0.93549,0.88342-0.99329L71,36
	c0.51282,0,0.93549-0.38599,0.99329-0.88342C71.99768,35.07837,72,35.03937,72,35v-5c0-0.51282-0.38599-0.93549-0.88342-0.99329
	C71.07843,29.00232,71.03943,29,71,29c-0.55231,0-1-0.44769-1-1c0-0.51282,0.38599-0.93549,0.88342-0.99329L71,27
	c0.51282,0,0.93549-0.38599,0.99329-0.88342C71.99768,26.07837,72,26.03943,72,26v-4C72,21.44769,71.55231,21,71,21z M69,61
	h-3.17072c-0.4118-1.16522-1.52307-2-2.82928-2s-2.41748,0.83478-2.82928,2h-3.34143c-0.4118-1.16522-1.52307-2-2.82928-2
	s-2.41748,0.83478-2.82928,2h-3.34143c-0.4118-1.16522-1.52307-2-2.82928-2s-2.41748,0.83478-2.82928,2h-3.34143
	c-0.4118-1.16522-1.52307-2-2.82928-2s-2.41748,0.83478-2.82928,2h-3.34143c-0.4118-1.16522-1.52307-2-2.82928-2
	s-2.41748,0.83478-2.82928,2h-3.34143c-0.4118-1.16522-1.52307-2-2.82928-2s-2.41748,0.83478-2.82928,2H11l-0.11658,0.00671
	C10.38599,61.06451,10,61.48718,10,62c0,0.55231,0.44769,1,1,1h5c0.03943,0,0.07843-0.00232,0.11658-0.00671
	c0.43524-0.0506,0.78522-0.38049,0.86584-0.80579c0.00446-0.02332,0.00806-0.047,0.01086-0.07092
	C16.99768,62.07837,17,62.03937,17,62c0-0.55231,0.44769-1,1-1c0.51282,0,0.93549,0.38599,0.99329,0.88342L19,62
	c0,0.55231,0.44769,1,1,1h5c0.03943,0,0.07843-0.00232,0.11658-0.00671c0.43524-0.0506,0.78522-0.38049,0.86584-0.80579
	c0.00446-0.02332,0.00806-0.047,0.01086-0.07092C25.99768,62.07837,26,62.03937,26,62c0-0.55231,0.44769-1,1-1
	c0.51282,0,0.93549,0.38599,0.99329,0.88342L28,62c0,0.55231,0.44769,1,1,1h5c0.03943,0,0.07843-0.00232,0.11658-0.00671
	c0.43524-0.0506,0.78522-0.38049,0.86584-0.80579c0.00446-0.02332,0.00806-0.047,0.01086-0.07092
	C34.99768,62.07837,35,62.03937,35,62c0-0.55231,0.44769-1,1-1c0.51282,0,0.93549,0.38599,0.99329,0.88342L37,62
	c0,0.55231,0.44769,1,1,1h5c0.03943,0,0.07843-0.00232,0.11658-0.00671c0.43524-0.0506,0.78522-0.38049,0.86584-0.80579
	C43.99402,62.12677,44,62.06409,44,62c0-0.55231,0.44769-1,1-1c0.51282,0,0.93549,0.38599,0.99329,0.88342L46,62
	c0,0.55231,0.44769,1,1,1h5c0.03943,0,0.07843-0.00232,0.11658-0.00671c0.43524-0.0506,0.78522-0.38049,0.86584-0.80579
	C52.99402,62.12677,53,62.06409,53,62c0-0.55231,0.44769-1,1-1c0.51282,0,0.93549,0.38599,0.99329,0.88342L55,62
	c0,0.55231,0.44769,1,1,1h5c0.03943,0,0.07843-0.00232,0.11658-0.00671c0.43524-0.0506,0.78522-0.38049,0.86584-0.80579
	C61.99402,62.12677,62,62.06409,62,62c0-0.55231,0.44769-1,1-1c0.51282,0,0.93549,0.38599,0.99329,0.88342L64,62
	c0,0.55231,0.44769,1,1,1h4l0.11658-0.00671C69.61401,62.93549,70,62.51282,70,62C70,61.44769,69.55231,61,69,61z"/>
  </symbol>
  <use class="fr-artwork-decorative" href="#artwork-decorative"/>
  <use class="fr-artwork-minor" href="#artwork-minor"/>
  <use class="fr-artwork-major" href="#artwork-major"/>
</svg>
