<svg width="80px" height="80px" viewBox="0 0 80 80" xmlns="http://www.w3.org/2000/svg">
 	<style>
		.fr-artwork-decorative {
			fill: #ECECFF;
		}
		.fr-artwork-minor {
			fill: #E1000F;
		}
		.fr-artwork-major {
			fill: #000091;
		}
	</style>
	<symbol id="artwork-decorative">
    <path d="M70,69c-0.5514,0-1-0.4486-1-1s0.4486-1,1-1s1,0.4486,1,1S70.5514,69,70,69z M68,13c-0.5514,0-1-0.4486-1-1
	s0.4486-1,1-1s1,0.4486,1,1S68.5514,13,68,13z M1,40c-0.5514,0-1-0.4486-1-1s0.4486-1,1-1s1,0.4486,1,1S1.5514,40,1,40z"/>
  </symbol>
  <symbol id="artwork-minor">
    <path d="M56,18c0-2.20911-1.79089-4-4-4s-4,1.79089-4,4s1.79089,4,4,4S56,20.20911,56,18z M50,18
	c0-1.10461,0.89539-2,2-2s2,0.89539,2,2s-0.89539,2-2,2S50,19.10461,50,18z M28,31c0,0.55231-0.44769,1-1,1s-1-0.44769-1-1
	s0.44769-1,1-1S28,30.44769,28,31z M40,31c0,0.55231-0.44769,1-1,1s-1-0.44769-1-1s0.44769-1,1-1S40,30.44769,40,31z M64,51
	c0,0.55231-0.44769,1-1,1s-1-0.44769-1-1s0.44769-1,1-1S64,50.44769,64,51z M65,34H55c-1.65692,0-3,1.34308-3,3v16
	c0,1.65692,1.34308,3,3,3h2v12l0.0097,0.13922c0.02582,0.18347,0.10229,0.35718,0.22211,0.50098l2.5,3l0.08417,0.08948
	c0.41229,0.38812,1.0791,0.35834,1.45221-0.08948l2.5-3l0.0816-0.1131C63.94751,68.36957,64,68.18707,64,68v-1l-0.00629-0.11182
	c-0.0166-0.14807-0.06622-0.29108-0.14569-0.41821L62.92798,65l0.92004-1.47003l0.05396-0.09814C63.96631,63.29749,64,63.1499,64,63
	v-1l-0.00629-0.11182c-0.0166-0.14807-0.06622-0.29108-0.14569-0.41821L62.92798,60l0.92004-1.47003l0.05396-0.09814
	C63.96631,58.29749,64,58.1499,64,58v-2h1c1.65692,0,3-1.34308,3-3V37C68,35.34308,66.65692,34,65,34z M62,57.71301
	l-1.09802,1.75696l-0.06,0.11115c-0.1402,0.30347-0.12006,0.66071,0.06,0.94885L62,62.28601v0.427l-1.09802,1.75696l-0.06,0.11115
	c-0.1402,0.30347-0.12006,0.66071,0.06,0.94885L62,67.28601v0.34998l-1.5,1.80103L59,67.63702V56h3V57.71301z M66,53
	c0,0.55231-0.44769,1-1,1H55c-0.55231,0-1-0.44769-1-1V37c0-0.55231,0.44769-1,1-1h10c0.55231,0,1,0.44769,1,1V53z M60,38
	c-2.20911,0-4,1.79089-4,4v2c0,2.20911,1.79089,4,4,4s4-1.79089,4-4v-2C64,39.79089,62.20911,38,60,38z M60,46
	c-1.10461,0-2-0.89539-2-2h4C62,45.10461,61.10461,46,60,46z M58,42c0-1.10461,0.89539-2,2-2s2,0.89539,2,2H58z"/>
  </symbol>
  <symbol id="artwork-major">
    <path d="M57,8c2.6888,0,4.8818,2.1223,4.9954,4.7831L62,13v16c0,0.5523-0.4477,1-1,1
	c-0.5128,0-0.9355-0.386-0.9933-0.8834L60,29V13c0-1.5977-1.2489-2.9037-2.8237-2.9949L57,10H17
	c-1.5977,0-2.9037,1.2489-2.9949,2.8237L14,13v54c0,1.5977,1.2489,2.9037,2.8237,2.9949L17,70h18c0.5523,0,1,0.4477,1,1
	c0,0.5128-0.386,0.9355-0.8834,0.9933L35,72H17c-2.6888,0-4.8818-2.1223-4.9954-4.7831L12,67V13
	c0-2.6888,2.1223-4.88182,4.7831-4.99538L17,8H57z M47,70c0.5523,0,1,0.4477,1,1c0,0.5128-0.386,0.9355-0.8834,0.9933L47,72h-8
	c-0.5523,0-1-0.4477-1-1c0-0.5128,0.386-0.9355,0.8834-0.9933L39,70H47z M51,70c0.5523,0,1,0.4477,1,1s-0.4477,1-1,1s-1-0.4477-1-1
	S50.4477,70,51,70z M33,60c0.5523,0,1,0.4477,1,1c0,0.5128-0.386,0.9355-0.8834,0.9933L33,62H19c-0.5523,0-1-0.4477-1-1
	c0-0.5128,0.386-0.9355,0.8834-0.9933L19,60H33z M37,54c0.5523,0,1,0.4477,1,1c0,0.5128-0.386,0.9355-0.8834,0.9933L37,56H19
	c-0.5523,0-1-0.4477-1-1c0-0.5128,0.386-0.9355,0.8834-0.9933L19,54H37z M41,48c0.5523,0,1,0.4477,1,1
	c0,0.5128-0.386,0.9355-0.8834,0.9933L41,50H19c-0.5523,0-1-0.4477-1-1c0-0.5128,0.386-0.9355,0.8834-0.9933L19,48H41z M37,42
	c0.5523,0,1,0.4477,1,1c0,0.5128-0.386,0.9355-0.8834,0.9933L37,44H19c-0.5523,0-1-0.4477-1-1c0-0.5128,0.386-0.9355,0.8834-0.9933
	L19,42H37z M19.6129,28.2097l0.0942,0.0832L21,29.585l1.2929-1.2921l0.0942-0.0832c0.3923-0.305,0.9595-0.2773,1.32,0.0832
	s0.3882,0.9277,0.0832,1.32l-0.0832,0.0942L22.415,31l1.2921,1.2929c0.3905,0.3905,0.3905,1.0237,0,1.4142
	c-0.3605,0.3605-0.9277,0.3882-1.32,0.0832l-0.0942-0.0832L21,32.415l-1.2929,1.2921l-0.0942,0.0832
	c-0.3923,0.305-0.9595,0.2773-1.32-0.0832s-0.3882-0.9277-0.0832-1.32l0.0832-0.0942L19.585,31l-1.2921-1.2929
	c-0.3905-0.3905-0.3905-1.0237,0-1.4142C18.6534,27.9324,19.2206,27.9047,19.6129,28.2097z M31.6129,28.2097l0.0942,0.0832
	L33,29.585l1.2929-1.2921l0.0942-0.0832c0.3923-0.305,0.9595-0.2773,1.32,0.0832s0.3882,0.9277,0.0832,1.32l-0.0832,0.0942
	L34.414,31l1.2931,1.2929c0.3905,0.3905,0.3905,1.0237,0,1.4142c-0.3605,0.3605-0.9277,0.3882-1.32,0.0832l-0.0942-0.0832L33,32.414
	l-1.2929,1.2931l-0.0942,0.0832c-0.3923,0.305-0.9595,0.2773-1.32-0.0832s-0.3882-0.9277-0.0832-1.32l0.0832-0.0942L31.585,31
	l-1.2921-1.2929c-0.3905-0.3905-0.3905-1.0237,0-1.4142C30.6534,27.9324,31.2206,27.9047,31.6129,28.2097z M43.6129,28.2097
	l0.0942,0.0832L45,29.585l1.2929-1.2921l0.0942-0.0832c0.3923-0.305,0.9595-0.2773,1.32,0.0832s0.3882,0.9277,0.0832,1.32
	l-0.0832,0.0942L46.414,31l1.2931,1.2929c0.3905,0.3905,0.3905,1.0237,0,1.4142c-0.3605,0.3605-0.9277,0.3882-1.32,0.0832
	l-0.0942-0.0832L45,32.414l-1.2929,1.2931l-0.0942,0.0832c-0.3923,0.305-0.9595,0.2773-1.32-0.0832s-0.3882-0.9277-0.0832-1.32
	l0.0832-0.0942L43.585,31l-1.2921-1.2929c-0.3905-0.3905-0.3905-1.0237,0-1.4142C42.6534,27.9324,43.2206,27.9047,43.6129,28.2097z
	 M27,16c0.5523,0,1,0.4477,1,1c0,0.5128-0.386,0.9355-0.8834,0.9933L27,18h-8c-0.5523,0-1-0.4477-1-1
	c0-0.5128,0.386-0.9355,0.8834-0.9933L19,16H27z M41,16c0.5523,0,1,0.4477,1,1c0,0.5128-0.386,0.9355-0.8834,0.9933L41,18H31
	c-0.5523,0-1-0.4477-1-1c0-0.5128,0.386-0.9355,0.8834-0.9933L31,16H41z"/>
  </symbol>
  <use class="fr-artwork-decorative" href="#artwork-decorative"/>
  <use class="fr-artwork-minor" href="#artwork-minor"/>
  <use class="fr-artwork-major" href="#artwork-major"/>
</svg>
