<svg width="80px" height="80px" viewBox="0 0 80 80" xmlns="http://www.w3.org/2000/svg">
  <style>
    .fr-artwork-decorative {
      fill: #ECECFF;
    }
    .fr-artwork-minor {
      fill: #E1000F;
    }
    .fr-artwork-major {
      fill: #000091;
    }
  </style>
  <symbol id="artwork-decorative">
    <path d="M10 7a1.001 1.001 0 0 1 0-2 1.001 1.001 0 0 1 0 2ZM24 75a1.001 1.001 0 0 1 0-2 1.001 1.001 0 0 1 0 2ZM6 65a1.001 1.001 0 0 1 0-2 1.001 1.001 0 0 1 0 2ZM74 70a1.001 1.001 0 0 1 0-2 1.001 1.001 0 0 1 0 2ZM71 13a1.001 1.001 0 0 1 0-2 1.001 1.001 0 0 1 0 2Z"/>
  </symbol>
  <symbol id="artwork-minor">
    <path d="M28.89 46.577a1 1 0 0 1-.846 1.134l-2.89.419a1 1 0 1 1-.288-1.98l2.89-.419a1 1 0 0 1 1.134.846Z M24.013 48.944c-.31.516-.49 1.247-.403 2.067.087.82.414 1.497.826 1.937.41.439.858.6 1.248.559.39-.041.793-.292 1.104-.807.31-.516.489-1.247.402-2.067-.086-.82-.413-1.498-.825-1.937-.411-.44-.858-.6-1.248-.56-.39.042-.793.293-1.104.808Zm-1.712-1.033c.556-.923 1.458-1.642 2.606-1.763 1.149-.122 2.18.394 2.918 1.18.736.786 1.227 1.883 1.355 3.095.127 1.213-.124 2.387-.68 3.31-.556.922-1.458 1.642-2.607 1.763-1.148.121-2.18-.394-2.917-1.18-.736-.787-1.227-1.883-1.355-3.096-.128-1.212.123-2.387.68-3.309Z M32.059 50.688a1 1 0 0 1 .574 1.292c-.3.779-.74 1.42-1.092 1.856a7.644 7.644 0 0 1-.65.708l-.014.013-.005.004-.002.002s-.001.001-.67-.742l.67.743a1.004 1.004 0 0 1-.522.246l-4 .6a1 1 0 0 1-.296-1.978l3.673-.551c.073-.08.162-.18.26-.3.272-.339.581-.798.782-1.32a1 1 0 0 1 1.292-.573ZM20.198 32.505a1 1 0 0 1 1.318.514l.9 2.049a1 1 0 0 1-1.832.804l-.9-2.049a1 1 0 0 1 .514-1.318Z M21.078 36.987c-.177.356-.264.864-.16 1.432.104.569.365 1.014.657 1.283.291.27.558.325.75.29.19-.035.42-.181.597-.536.177-.356.264-.864.16-1.432-.104-.569-.365-1.014-.656-1.283-.291-.27-.558-.325-.75-.29-.19.035-.42.181-.598.536Zm-1.79-.892c.389-.779 1.08-1.438 2.029-1.611.95-.174 1.828.198 2.467.789.639.59 1.092 1.438 1.266 2.39.174.954.05 1.907-.338 2.685-.388.779-1.078 1.438-2.028 1.612-.95.173-1.828-.199-2.467-.79-.639-.59-1.092-1.438-1.266-2.39-.174-.954-.05-1.907.338-2.685Z M27.39 40.279a1 1 0 0 1-.848 1.132l-3.9.559a1 1 0 0 1-.284-1.98l3.9-.559a1 1 0 0 1 1.132.848ZM50.251 24.722a1 1 0 0 1 .93.526l2.2 4.1a1 1 0 0 1-.702 1.457h-.002l-.008.002-.034.006a28.072 28.072 0 0 0-.655.132 42.16 42.16 0 0 0-1.744.407c-1.4.36-3.031.862-4.175 1.456A1 1 0 0 1 45 32.721a26.31 26.31 0 0 0-2.913-1.887l-.045-.024-.01-.006h-.003a1 1 0 0 1-.263-1.562l.734.679-.734-.68.002-.001.003-.004.011-.012.038-.04.138-.14a19.035 19.035 0 0 1 2.324-1.962c1.494-1.066 3.635-2.246 5.97-2.36Zm-6.097 5.007c.443.275.981.624 1.551 1.03 1.27-.574 2.8-1.027 4.034-1.344.456-.117.88-.218 1.247-.3l-1.251-2.333c-1.555.238-3.072 1.058-4.292 1.928-.502.358-.939.714-1.29 1.02Z"/>
  </symbol>
  <symbol id="artwork-major">
    <path d="M58.2 18.994c-3.227-2.863-8.946-5.767-18.87-5.473-11.393.336-17.742 6.814-21.29 13.293-1.78 3.25-2.844 6.487-3.463 8.918a37.235 37.235 0 0 0-.624 2.92 24.926 24.926 0 0 0-.151 1.013l-.006.05v.005c-.008.102.033.324.39.689.353.36.892.729 1.543 1.084 1.246.68 2.683 1.192 3.424 1.456l.084.03a1.057 1.057 0 0 1 .473.346c.061.08.101.155.126.205.05.1.08.197.1.265.04.142.071.303.096.456.05.315.09.71.116 1.103.026.395.04.813.033 1.174-.003.18-.012.358-.03.52-.015.139-.044.35-.122.544-.149.371-.455.64-.6.767l-.012.011c-.065.058-.126.11-.184.16-.128.109-.247.21-.386.345-.36.352-.75.836-.989 1.633 0 0-.022.09.043.31.063.218.192.5.401.84.419.681 1.084 1.478 1.903 2.29 1.646 1.635 3.747 3.173 5.299 3.858l.01.005.547.249c3.817 1.741 13.534 6.173 20.523 7.478 7.457 1.392 9.442.627 10.312.12a.804.804 0 0 0 .156-.165 3.54 3.54 0 0 0 .316-.504c.229-.428.447-.966.639-1.512a23.348 23.348 0 0 0 .61-2.048l.008-.031.002-.009a.999.999 0 0 1 .266-.475c.129-.129.281-.253.396-.346l.04-.033c.135-.11.252-.209.364-.321a1 1 0 0 1 1.414 1.414c-.187.188-.37.34-.511.454l-.025.021-.077.063a25.193 25.193 0 0 1-.6 1.974 13.256 13.256 0 0 1-.761 1.79c-.271.508-.668 1.128-1.229 1.455-1.53.892-4.144 1.527-11.687.119-7.247-1.353-17.17-5.882-20.96-7.612l-.566-.259c-1.846-.816-4.143-2.525-5.895-4.265-.882-.875-1.666-1.797-2.198-2.663-.266-.433-.487-.881-.617-1.325-.128-.439-.189-.946-.039-1.446a5.625 5.625 0 0 1 1.511-2.493c.187-.182.384-.35.525-.47l.118-.102.07-.064c.008-.08.013-.185.016-.316.005-.289-.006-.647-.03-1.002-.02-.298-.047-.578-.078-.8-.819-.297-2.125-.796-3.303-1.438-.724-.395-1.46-.876-2.013-1.44-.543-.555-1.044-1.332-.953-2.283v-.01l-.01.149.011-.15v-.008l.003-.018.007-.063.03-.236c.028-.204.072-.5.135-.872.127-.746.334-1.807.658-3.08.647-2.541 1.764-5.947 3.647-9.385 3.776-6.896 10.677-13.968 22.985-14.332 10.375-.306 16.607 2.74 20.255 5.977 1.814 1.61 2.965 3.244 3.666 4.488.35.622.588 1.147.74 1.523a8.824 8.824 0 0 1 .178.475l.001.001c.051.08.125.194.216.343.184.298.44.731.74 1.287a34.89 34.89 0 0 1 2.087 4.692c1.424 3.953 2.619 9.455 1.633 15.573l-.002.013c-.714 4.084-1.842 7.379-3.09 9.875a1 1 0 1 1-1.79-.894c1.152-2.302 2.224-5.406 2.91-9.319.912-5.68-.193-10.825-1.543-14.57a32.88 32.88 0 0 0-1.966-4.42 24.25 24.25 0 0 0-.871-1.49 8.132 8.132 0 0 0-.048-.071l-.01-.016-.002-.002a1.002 1.002 0 0 1-.135-.285v-.003l-.005-.013a6.742 6.742 0 0 0-.156-.424 11.358 11.358 0 0 0-.63-1.293c-.609-1.081-1.626-2.534-3.25-3.974ZM22.813 13.038a1 1 0 0 1-.23 1.396c-5.067 3.633-7.976 9.118-9.645 13.634a1 1 0 0 1-1.876-.694c1.732-4.684 4.823-10.599 10.356-14.566a1 1 0 0 1 1.395.23Z M38.241 54.17a1 1 0 0 1 1.41-.108c2.072 1.776 4.346 3.665 6.407 4.814l.235.05a64.906 64.906 0 0 0 4.638.79c2.903.385 6.464.644 9.32.215a1 1 0 0 1 .298 1.978c-3.144.471-6.932.18-9.88-.21a66.873 66.873 0 0 1-4.79-.816 31.961 31.961 0 0 1-.296-.064l-.078-.017-.02-.005-.008-.001.223-.975-.223.975a1.006 1.006 0 0 1-.256-.097c-2.307-1.259-4.784-3.33-6.871-5.119a1 1 0 0 1-.109-1.41ZM54.218 17.528c1.14.117 2.982.61 4.83 1.598 1.863.998 3.813 2.546 5.033 4.821a1 1 0 1 1-1.762.946c-.979-1.825-2.58-3.127-4.216-4.003-1.643-.88-3.242-1.288-4.102-1.374a1.013 1.013 0 0 1-.035-.004c-1.8-.244-3.834-.427-6.447.194-2.624.624-5.901 2.076-10.122 5.217l-.004.004c-6.692 4.92-7.7 8.483-7.41 10.306.049.217.143.468.252.76.382 1.023.952 2.548.441 4.845a.915.915 0 0 1-.011.046c-.231.848-.658 1.719-1.04 2.39l.043.031c.964.737 2.527 1.93 3.32 2.507a1.1 1.1 0 0 1 .037.028c.986.788 1.418 1.85 1.61 2.647.095.395.137.746.154 1.004a69.58 69.58 0 0 0 1.687 1.593 1 1 0 1 1-1.352 1.474 81.352 81.352 0 0 1-1.881-1.782l-.11-.109-.03-.028-.009-.01a1 1 0 0 1-.293-.75v-.047c0-.042 0-.108-.006-.193a4.095 4.095 0 0 0-.105-.684c-.131-.547-.395-1.13-.898-1.54-.822-.599-2.45-1.842-3.4-2.567-.34-.26-.594-.454-.692-.527a1 1 0 0 1-.232-1.355c.377-.565 1-1.646 1.261-2.586.364-1.654.077-2.418-.264-3.327-.155-.412-.32-.854-.442-1.423a.854.854 0 0 1-.01-.045c-.496-2.983 1.315-7.21 8.193-12.268 4.378-3.258 7.9-4.855 10.85-5.556 2.954-.703 5.266-.489 7.162-.233Z M28.88 43.22a1 1 0 0 1-.778 1.18c-1.705.351-3.503.687-5.14.83-1.605.139-3.204.11-4.433-.381a1 1 0 0 1 .743-1.857c.77.308 1.971.38 3.516.245 1.514-.132 3.216-.447 4.91-.796a1 1 0 0 1 1.182.778ZM36.437 51.049a1 1 0 0 1 .134 1.408l-3.718 4.502-1.946 4.184a1 1 0 0 1-1.814-.844l2-4.3c.036-.077.082-.15.136-.215l3.8-4.6a1 1 0 0 1 1.408-.135Z"/>
    <path d="m32.3 57.12.537-.843.005.003.02.013.092.056c.083.05.208.126.375.222.332.193.828.47 1.47.8a47.474 47.474 0 0 0 5.465 2.372c4.632 1.682 11.015 3.217 18.08 2.68a1 1 0 0 1 .152 1.995c-7.434.564-14.111-1.051-18.915-2.795a49.484 49.484 0 0 1-5.696-2.474 36.1 36.1 0 0 1-1.558-.847 21.96 21.96 0 0 1-.522-.311l-.03-.019-.008-.005-.003-.002.536-.844Z"/>
  </symbol>
  <use class="fr-artwork-decorative" href="#artwork-decorative"/>
  <use class="fr-artwork-minor" href="#artwork-minor"/>
  <use class="fr-artwork-major" href="#artwork-major"/>
</svg>
