<svg width="80px" height="80px" viewBox="0 0 80 80" xmlns="http://www.w3.org/2000/svg">
 	<style>
		.fr-artwork-decorative {
			fill: #ECECFF;
		}
		.fr-artwork-minor {
			fill: #E1000F;
		}
		.fr-artwork-major {
			fill: #000091;
		}
	</style>
	<symbol id="artwork-decorative">
    <path d="M15,14c-0.5514,0-1-0.4486-1-1s0.4486-1,1-1s1,0.4486,1,1S15.5514,14,15,14z M5,70c-0.5514,0-1-0.4486-1-1
	s0.4486-1,1-1s1,0.4486,1,1S5.5514,70,5,70z M75,64c-0.5514,0-1-0.4486-1-1s0.4486-1,1-1s1,0.4486,1,1S75.5514,64,75,64z M59,12
	c-0.5514,0-1-0.4486-1-1s0.4486-1,1-1s1,0.4486,1,1S59.5514,12,59,12z"/>
  </symbol>
  <symbol id="artwork-minor">
    <path d="M64.98639,32.16437c-0.08429,0.50592-0.53461,0.85931-1.03467,0.83453l-0.11609-0.01251l-6-1
	c-0.54486-0.09082-0.91284-0.60602-0.82202-1.15082c0.08429-0.50586,0.53461-0.85925,1.03467-0.83447l0.11615,0.01251l6,1
	C64.70923,31.10437,65.07721,31.61963,64.98639,32.16437z M46,30c-2.82007,0-5.63239,0.70148-8.4278,2.09589
	c-0.04468,0.02124-0.08832,0.0459-0.13043,0.07434l-0.40936,0.26648C33.29401,34.81158,28.95752,36,24,36c-0.55231,0-1,0.44769-1,1
	s0.44769,1,1,1l0.56921-0.005c3.57611-0.06238,6.86829-0.71637,9.86957-1.96228c-0.88928,1.75311-1.64758,3.95697-2.38739,6.70038
	l-0.08368,0.31268l-0.25879,0.99463l-0.67902,2.7171c-0.13403,0.53577,0.19177,1.07867,0.7276,1.21259
	c0.53571,0.13403,1.07867-0.19177,1.21259-0.7276l0.84753-3.36841l0.28925-1.07568c1.26874-4.57941,2.59235-7.42419,4.43494-8.95007
	l0.35199-0.17065C41.2746,32.55682,43.64081,32,46,32c0.55231,0,1-0.44769,1-1S46.55231,30,46,30z M30.4472,52.10559
	c-0.49402-0.24701-1.0946-0.04681-1.34161,0.4472L28.724,53.31317l-0.4118,0.8092l-0.3302,0.6283l-0.21301,0.38745L27.63611,55.37
	l-0.2619,0.43329C26.35291,57.43738,25.50897,58,24,58c-0.55231,0-1,0.44769-1,1s0.44769,1,1,1
	c2.2688,0,3.71057-0.96118,5.07019-3.13672c0.0246-0.03931,0.04889-0.07849,0.073-0.11768l0.21362-0.35559l0.21637-0.37982
	l0.15289-0.27948l0.34601-0.65723l0.82233-1.62628C31.14142,52.95319,30.94122,52.3526,30.4472,52.10559z M59.29291,48.29291l-2,2
	l-0.08319,0.09418c-0.30499,0.39233-0.27734,0.95953,0.08319,1.32001c0.3905,0.3905,1.02368,0.3905,1.41418,0l2-2l0.08319-0.09418
	c0.30499-0.39233,0.27734-0.95953-0.08319-1.32001C60.31659,47.9024,59.68341,47.9024,59.29291,48.29291z M58.79028,47.61292
	c0.30499-0.39233,0.27734-0.95953-0.08319-1.32001c-0.3905-0.3905-1.02368-0.3905-1.41418,0l-2,2l-0.08319,0.09418
	c-0.30499,0.39233-0.27734,0.95953,0.08319,1.32001c0.3905,0.3905,1.02368,0.3905,1.41418,0l2-2L58.79028,47.61292z"/>
  </symbol>
  <symbol id="artwork-major">
    <path d="M14.00012,46.8764c0.0332-17.36273,7.06567-27.91168,21.00946-31.3642C35.15179,11.97522,36.86713,10,40,10
	c3.21899,0,5,1.78101,5,5c0,0.55231-0.44769,1-1,1s-1-0.44769-1-1c0-2.11438-0.88562-3-3-3c-2.05688,0-2.99792,1.1734-3,3.9906
	c0.00897,0.02808,0.01678,0.05688,0.02338,0.08643c0.12042,0.53888-0.21875,1.07349-0.75775,1.19397
	c-13.12573,2.93408-19.84613,12.23999-20.24664,28.1922L16.008,46H20c0.51282,0,0.93549,0.38599,0.99329,0.88342L21,47
	c0,0.51282-0.38599,0.93549-0.88342,0.99329L20,48h-4.21918l-0.81073,3.24249c-0.13391,0.53583-0.67682,0.86163-1.21259,0.7276
	c-0.49762-0.12427-0.81403-0.60138-0.74939-1.0979l0.02179-0.11469L14.00012,46.8764z M73,37
	c0,4.21271-2.40381,6.01788-6.60681,5.12268c0.89532,5.71552-0.19397,11.3623-3.26147,16.90601L63.3299,59.435
	c0.18451,0.38788,0.35449,0.76569,0.51001,1.13281l0.22241,0.54291C66.0351,66.1026,65.13989,69,61,69
	c-0.34949,0-0.73047-0.04163-1.14301-0.12488l-0.36139-0.08173l-0.37701-0.10199c-0.44879-0.13098-0.9295-0.30371-1.44226-0.51831
	L57.229,67.979l-0.4632-0.2146l-0.479-0.23511c-0.08112-0.04089-0.1629-0.08258-0.24542-0.12518l-0.50269-0.26593l-0.51868-0.28638
	c-0.08783-0.04944-0.17621-0.09973-0.26532-0.15082l-0.5426-0.3172l-0.55859-0.33771l-0.57458-0.35828L52.4881,65.3089
	l-0.60681-0.39941c-0.10248-0.06818-0.20569-0.13739-0.30951-0.2074l-0.6311-0.4303l-0.6474-0.45087l-0.66357-0.4715
	l-0.67987-0.49213l-0.69635-0.5127l-0.71271-0.53339l-0.72906-0.55402l-1.12451-0.86981l-1.16168-0.91632l-1.19904-0.96277
	l-1.23645-1.0094l-0.84521-0.69879l-0.862-0.7196l-1.3244-1.11823l-1.3623-1.16486l-1.40039-1.21161l-0.6225-0.54364
	c-0.52289,1.53351-1.13269,3.00482-1.8067,4.35883l-0.31934,0.62347c-0.72101,1.36853-1.50739,2.60101-2.33368,3.63562L38.33398,66
	h2.047l-1.27539-2.5528c-0.22937-0.45868-0.07306-1.0094,0.34589-1.28351l0.10132-0.05811
	c0.45868-0.22937,1.0094-0.07312,1.28351,0.34589l0.05811,0.10132l2,4c0.315,0.62988-0.10242,1.36517-0.7793,1.4408L42,68h-4
	c-0.21637,0-0.42688-0.07019-0.59998-0.20001l-7.5437-5.65778C28.59961,63.31677,27.28748,64,26,64
	c-1.55371,0-3.44427-0.19489-5.67572-0.58368l-0.91077-0.16589c-0.92902-0.17621-1.9126-0.38354-2.95111-0.6217l-1.05682-0.2486
	c-0.1792-0.04315-0.35986-0.08716-0.54218-0.13202l-1.11182-0.27942c-0.53497-0.13721-0.85736-0.68207-0.72028-1.2171
	c0.13721-0.53497,0.68207-0.85736,1.2171-0.72028l0.54462,0.13831l1.06158,0.26147l1.02478,0.24121l0.98798,0.22107
	c0.6463,0.14075,1.26801,0.26794,1.86505,0.38171l0.87695,0.16071c0.28625,0.05023,0.5661,0.09698,0.8399,0.1405l0.80273,0.12042
	C23.68951,61.89899,24.93939,62,26,62c1.73529,0,3.85718-2.34491,5.66119-5.73218l0.30603-0.59064l0.29889-0.60956
	c0.29529-0.61865,0.5788-1.26355,0.84698-1.92804l0.263-0.6709l0.25208-0.68262l0.24036-0.69269l0.22778-0.7016
	c0.33179-1.05811,0.61871-2.14087,0.84857-3.22607l0.45911-2.31982l0.16479-0.78699c0.10883-0.50098,0.21692-0.95959,0.33282-1.4068
	c0.77258-2.98108,1.81848-5.10883,3.47369-6.43298c2.58118-2.06494,6.75677-2.69562,12.61548-2.28644l0.93903,0.07324
	c0.15887,0.01355,0.31891,0.02795,0.4801,0.04297l0.9812,0.09851c0.16577,0.01782,0.33289,0.03619,0.5011,0.05542l1.0235,0.12299
	l0.97418,0.12817l0.91492,0.12921l0.93811,0.14062l1.47217,0.23511l1.58032,0.26794l4.38348,0.78925
	c0.5434,0.09875,0.90381,0.61938,0.80499,1.16278c-0.09875,0.5434-0.61938,0.90381-1.16278,0.80499l-0.44562-0.08087
	c0.22772,0.70001,0.42603,1.39911,0.59479,2.09717c0.0946-0.00281,0.19122,0.00793,0.28741,0.03363
	C69.65289,40.93909,71,40.04108,71,37c0-2.2334-2.54437-6.82892-6.32788-10.56799
	c-4.93671-4.8786-11.33484-7.99872-18.73083-8.43372c-0.55139-0.03247-0.97198-0.50568-0.93958-1.05701
	c0.03247-0.55139,0.50568-0.97198,1.05701-0.93958c7.90759,0.46521,14.75269,3.80316,20.01917,9.00781
	C70.20538,29.08838,73,34.13593,73,37z M63.22443,37.79077l-0.10883-0.29779l-0.54132-0.09808l-1.65186-0.289l-1.52112-0.2533
	l-0.95752-0.15131l-0.92377-0.13849l-0.8999-0.12714l-0.94293-0.12408l-0.97681-0.11731
	c-0.64191-0.07288-1.26508-0.1355-1.86938-0.18738l-0.89227-0.06982c-0.58551-0.04108-1.1521-0.07135-1.69965-0.09058
	l-0.80719-0.02051c-4.09625-0.06268-7.04871,0.5481-8.80719,1.9549c-1.2359,0.98871-2.11346,2.77399-2.78711,5.37299
	c-0.08191,0.31586-0.15997,0.63953-0.23779,0.98364l-0.15607,0.71899l-0.46313,2.3396
	c-0.1911,0.95538-0.42139,1.90857-0.68597,2.84802c0.13062,0.04016,0.255,0.10785,0.3645,0.2038l0.93268,0.81439l1.36859,1.18378
	l0.89209,0.76398l1.30731,1.10815l0.85101,0.7135l1.24573,1.03229l1.20837,0.98688l1.17108,0.94122l0.75989,0.60217l1.10864,0.8653
	l0.71796,0.55151l0.70135,0.53131l0.68445,0.51086l0.66754,0.4906l0.65057,0.47021l0.63373,0.45001l0.61658,0.42963l0.59961,0.40918
	l0.58252,0.38892l0.56525,0.36847l0.54822,0.34808l0.53101,0.3277l0.51373,0.30731l0.49628,0.28693l0.47913,0.26648
	c0.07837,0.04272,0.15594,0.08453,0.23297,0.12549l0.45288,0.2359l0.43555,0.21533l0.41797,0.19489
	c0.0683,0.03082,0.13568,0.06073,0.20251,0.08978l0.39166,0.16425l0.37415,0.14368c0.18256,0.06671,0.35858,0.12567,0.52795,0.17712
	l0.33002,0.09235C60.28619,66.94519,60.66699,67,61,67c2.03229,0,2.64862-1.22253,1.58618-4.22668l-0.16321-0.44135
	l-0.18616-0.46594c-0.03302-0.07971-0.06689-0.16052-0.10181-0.24231L61.914,61.12018
	c-0.03882-0.086-0.07861-0.1731-0.11932-0.26129l-0.25629-0.54187L61.2926,59.8183l-11.60883-3.86963
	c-0.52399-0.17468-0.80707-0.74097-0.63245-1.26489c0.16217-0.48645,0.66205-0.76538,1.15216-0.66296l0.11273,0.03046
	L61.52899,57.789l0.0752-0.13757C65.09009,51.1261,65.62592,44.52899,63.22443,37.79077z M22,54l0.11658-0.00671
	C22.61401,53.93549,23,53.51282,23,53c0-0.55231-0.44769-1-1-1h-6l-0.13141,0.00873
	c-0.21667,0.02869-0.41937,0.12787-0.57568,0.28418l-6,6l-0.08319,0.09418c-0.30505,0.39233-0.27728,0.95953,0.08319,1.32001
	l0.09418,0.08319c0.39233,0.30499,0.95953,0.27734,1.32001-0.08319L16.414,54H22z M11.87598,35.99231
	c0.54803,0.06848,1.04785-0.32019,1.11633-0.86829c0.63977-5.1189,3.21698-10.27313,7.76031-15.46552
	c0.36365-0.41559,0.32147-1.04742-0.09412-1.41113c-0.41559-0.36365-1.04742-0.32147-1.41113,0.09412
	c-4.78998,5.4743-7.5462,10.98669-8.23969,16.53448C10.93921,35.42401,11.32788,35.92383,11.87598,35.99231z"/>
  </symbol>
  <use class="fr-artwork-decorative" href="#artwork-decorative"/>
  <use class="fr-artwork-minor" href="#artwork-minor"/>
  <use class="fr-artwork-major" href="#artwork-major"/>
</svg>
