<svg width="80px" height="80px" viewBox="0 0 80 80" xmlns="http://www.w3.org/2000/svg">
 	<style>
		.fr-artwork-decorative {
			fill: #ECECFF;
		}
		.fr-artwork-minor {
			fill: #E1000F;
		}
		.fr-artwork-major {
			fill: #000091;
		}
	</style>
	<symbol id="artwork-decorative">
    <path d="M67,11c-0.5514,0-1-0.4486-1-1c0-0.55145,0.4486-1,1-1s1,0.44855,1,1C68,10.5514,67.5514,11,67,11z M40,74
	c-0.5514,0-1-0.4486-1-1s0.4486-1,1-1s1,0.4486,1,1S40.5514,74,40,74z M14,8c-0.5514,0-1-0.4486-1-1c0-0.55145,0.4486-1,1-1
	s1,0.44855,1,1C15,7.5514,14.5514,8,14,8z"/>
  </symbol>
  <symbol id="artwork-minor">
    <path d="M54.4871,24.1416c0.4741-0.2833,1.088-0.1286,1.3713,0.3455c0.2833,0.474,0.1286,1.088-0.3454,1.3713
	C51.1524,28.464,44.0845,30,36,30c-4.4629,0-8.1388-0.6363-13.2633-2.0353c-0.5328-0.1454-0.8468-0.6953-0.7014-1.2281
	c0.1455-0.5327,0.6953-0.8467,1.2281-0.7013l1.2644,0.3369C28.8481,27.4927,32.1163,28,36,28
	C43.7519,28,50.475,26.539,54.4871,24.1416z M52.60608,36.08087c-2.11835,0.9079-6.0686,1.63342-9.60608,1.63342
	c-0.55231,0-1,0.44769-1,1v5.2674c0,0.15979,0.00677,0.31952,0.02051,0.47882c0.2644,3.08508,2.9798,5.3717,6.06488,5.1073
	C51.4306,49.28101,54,46.48199,54,43.12451V37C54,36.2821,53.26599,35.7981,52.60608,36.08087z M52,43.12451
	c0,2.31909-1.77472,4.2525-4.08539,4.45056c-1.98462,0.1701-3.73132-1.30078-3.90143-3.2854l-0.01239-0.2309L44,39.69598
	l0.32733-0.01178c2.67426-0.1189,5.42548-0.57971,7.50507-1.20734L52,38.42401V43.12451z"/>
  </symbol>
  <symbol id="artwork-major">
    <path d="M36,18c5.0357,0,10.6021,0.7959,15.257,2.0336c0.5337,0.1419,0.8514,0.6896,0.7094,1.2234
	c-0.1419,0.5337-0.6896,0.8513-1.2233,0.7094C46.2488,20.7714,40.8534,20,36,20c-0.2917,0-0.5819,0.0018-0.8704,0.0055
	l-0.8607,0.0162c-0.1425,0.0036-0.2847,0.0076-0.4264,0.012l-0.8449,0.0319l-0.8338,0.0421l-0.822,0.052l-0.8099,0.0617
	c-0.1339,0.0111-0.2673,0.0225-0.4001,0.0344l-0.7906,0.0758c-0.1306,0.0134-0.2607,0.0272-0.3902,0.0413l-0.77,0.0894
	l-0.7556,0.098l-0.7408,0.1066l-0.7254,0.1149l-0.7095,0.1229l-0.6929,0.1307l-0.676,0.1383l-0.6584,0.1456
	c-0.3248,0.0745-0.6427,0.1518-0.9536,0.2315l-0.6123,0.1629c-0.1005,0.0277-0.2001,0.0557-0.2989,0.0839l-0.583,0.1725
	c-0.191,0.0586-0.3786,0.1181-0.5628,0.1787l-0.542,0.1845c-3.1365,1.1061-5.1627,2.5082-5.5867,3.9875l0.1285,0.0938l0.7298,0.5674
	c0.2799,0.2117,0.5578,0.4095,0.8617,0.6096c0.7933,0.5224,1.6941,1.0136,2.7627,1.4793C22.7741,30.9051,28.7343,32,37,32
	c8.2658,0,14.2259-1.0949,18.4343-2.9291c1.0685-0.4657,1.9693-0.9569,2.7626-1.4793c0.2026-0.1334,0.3937-0.2657,0.5815-0.4019
	l0.407-0.3051l0.6031-0.47c0.1785-0.1359,0.2999-0.2176,0.4363-0.2876c0.4426-0.2274,0.9495-0.2545,1.3773,0.1736l0.1211,0.128
	c0.1601,0.1832,0.2277,0.3404,0.2562,0.6599l0.0138,0.2392l0.058,7.2511l0.0378,7.6745l-0.0009,3.2376l-0.017,1.7039l-0.0281,1.0399
	l-0.0073,0.1383c0.0277,0.0133,0.056,0.0269,0.0849,0.0409c0.552,0.267,1.126,0.5747,1.6952,0.9206
	c1.6795,1.0204,2.9803,2.1539,3.6851,3.4352c1.7245,3.1355-0.3282,5.9805-6.5642,8.405l-0.66,0.2493l-0.69,0.2463
	c-0.1175,0.0408-0.2363,0.0815-0.3563,0.122l-0.735,0.2417c-0.2501,0.08-0.5052,0.1595-0.7653,0.2385l-0.7956,0.2354
	c-0.1351,0.039-0.2715,0.0779-0.4092,0.1166l-0.8412,0.2306c-0.1427,0.0382-0.2867,0.0762-0.432,0.1141
	c-11.0593,2.885-22.0087,0.9188-32.234-4.2432c-2.8938-1.4608-5.5102-3.0766-7.8061-4.7276
	c-0.6713-0.4828-1.2754-0.9403-1.8091-1.3642l-0.4669-0.3767l-0.2789-0.2317l-0.3243-0.279
	c-0.2282-0.2042-0.3407-0.4897-0.3328-0.7737l0.0011-23.3457l0.0057-0.2997l0.0132-0.228C12.0069,27.0352,12,26.9684,12,26.9
	c0-2.461,2.2913-4.5633,6.1052-6.1057l0.5551-0.2165l0.5753-0.2088c0.0976-0.0341,0.1959-0.068,0.2951-0.1014l0.6047-0.1969
	l0.6237-0.1889c0.211-0.0616,0.4251-0.1218,0.6422-0.1806l0.6601-0.1723c0.1115-0.028,0.2238-0.0557,0.3367-0.083l0.6862-0.1595
	c0.1158-0.0259,0.2322-0.0514,0.3494-0.0766l0.7111-0.1465l0.727-0.1376l0.7426-0.1287l0.7576-0.1195l0.772-0.1103
	c0.1298-0.0176,0.2603-0.0349,0.3913-0.0517l0.7928-0.0962c0.2666-0.0304,0.5353-0.0593,0.8061-0.0866l0.8189-0.0769l0.831-0.0671
	c0.1396-0.0103,0.2796-0.0203,0.42-0.0298l0.8486-0.0521l0.8595-0.0419c0.1441-0.0062,0.2887-0.0119,0.4337-0.0171l0.8751-0.0265
	l0.8849-0.0159C35.4024,18.0018,35.7005,18,36,18z M14,50.5418l0.351,0.289c0.5771,0.4681,1.2552,0.9877,2.0286,1.5438
	c2.2153,1.593,4.7439,3.1546,7.5398,4.566c9.8254,4.9601,20.297,6.8405,30.8278,4.0934l0.4217-0.1112l0.8165-0.2226l0.7809-0.2226
	l0.7459-0.2227l0.7112-0.2227l0.677-0.2227c0.11-0.0371,0.2186-0.0742,0.3258-0.1113l0.6264-0.2226
	c0.305-0.1113,0.5975-0.2226,0.8778-0.3338l0.5445-0.2223l0.5125-0.222c0.745-0.333,1.3833-0.6651,1.9218-0.9959l0.3443-0.2203
	c1.9226-1.2837,2.3568-2.5444,1.6949-3.7478c-0.4984-0.9062-1.5647-1.8352-2.9711-2.6898
	c-0.4651-0.2826-0.9367-0.5384-1.3931-0.7637c-1.1878,1.5156-3.689,2.8705-7.1442,3.8961l-0.6986,0.1993
	c-1.4217,0.3898-2.9902,0.7258-4.6828,0.9977l-0.8566,0.1305l-0.8766,0.1195l-0.8961,0.1083
	c-0.3019,0.0341-0.6069,0.0664-0.915,0.0966l-0.9331,0.0848c-1.099,0.0919-2.2339,0.1589-3.4003,0.199
	c-0.5519,0.019-1.0148-0.4131-1.0337-0.965c-0.019-0.552,0.4131-1.0148,0.965-1.0338c0.3212-0.0111,0.6398-0.0243,0.9557-0.0395
	l0.9392-0.0521l0.922-0.0641l0.9042-0.0758c0.2984-0.0271,0.5936-0.0561,0.8857-0.087l0.8666-0.0978l0.8468-0.1083l0.8263-0.1183
	l0.8052-0.1278l0.7834-0.137c0.7722-0.1414,1.5108-0.2959,2.2127-0.4617l0.6896-0.1694l0.6645-0.1765l0.6386-0.1831
	c0.9384-0.2795,1.7876-0.5799,2.5375-0.8951l0.4851-0.2121c1.5673-0.714,2.6333-1.4934,3.0875-2.2684l0.0662-0.124l0.0151-0.2988
	l0.021-0.867l0.0199-2.3079l0.0012-3.4197l-0.0168-4.2635L60.006,28.768l-0.0547,0.0417c-0.1055,0.0764-0.212,0.1519-0.3207,0.2271
	l-0.3338,0.2252c-0.8873,0.5843-1.8885,1.1302-3.0634,1.6423C51.7565,32.8556,45.5266,34,37,34s-14.7565-1.1444-19.2333-3.0957
	c-1.1749-0.5121-2.1761-1.058-3.0635-1.6423l-0.3337-0.2252L13.999,28.773L14,50.5418z"/>
  </symbol>
  <use class="fr-artwork-decorative" href="#artwork-decorative"/>
  <use class="fr-artwork-minor" href="#artwork-minor"/>
  <use class="fr-artwork-major" href="#artwork-major"/>
</svg>
