<svg width="80px" height="80px" viewBox="0 0 80 80" xmlns="http://www.w3.org/2000/svg">
 	<style>
		.fr-artwork-decorative {
			fill: #ECECFF;
		}
		.fr-artwork-minor {
			fill: #E1000F;
		}
		.fr-artwork-major {
			fill: #000091;
		}
	</style>
	<g class="fr-artwork-decorative" id="artwork-decorative">
    <path d="M6,14c-0.5514,0-1-0.4486-1-1s0.4486-1,1-1s1,0.4486,1,1S6.5514,14,6,14z M59,73c-0.5514,0-1-0.4486-1-1
	s0.4486-1,1-1s1,0.4486,1,1S59.5514,73,59,73z M63,9c-0.5514,0-1-0.4486-1-1c0-0.55145,0.4486-1,1-1s1,0.44855,1,1
	C64,8.5514,63.5514,9,63,9z M75,51c-0.5514,0-1-0.4486-1-1s0.4486-1,1-1s1,0.4486,1,1S75.5514,51,75,51z"/>
  </g>
  <g class="fr-artwork-minor" id="artwork-minor">
    <path d="M28.0303,46.7556c0.135-0.5355,0.6785-0.8602,1.2141-0.7253c0.5355,0.135,0.8603,0.6785,0.7253,1.2141
	C28.9694,51.2141,25.3203,54,21,54c-4.2086,0-7.7843-2.773-8.9584-6.7145c-0.1576-0.5293,0.1436-1.0862,0.6729-1.2439
	c0.5293-0.1576,1.0862,0.1436,1.2439,0.6729C14.8842,49.8226,17.6919,52,21,52C24.412,52,27.2559,49.8288,28.0303,46.7556z
	 M66.0303,46.7556c0.135-0.5355,0.6785-0.8602,1.2141-0.7253c0.5355,0.135,0.8603,0.6785,0.7253,1.2141
	C66.9694,51.2141,63.3203,54,59,54c-4.2086,0-7.7843-2.773-8.9584-6.7145c-0.1576-0.5293,0.1436-1.0862,0.6729-1.2439
	c0.5293-0.1576,1.0862,0.1436,1.2439,0.6729C52.8842,49.8226,55.6919,52,59,52C62.412,52,65.2559,49.8288,66.0303,46.7556z M59,32
	c0.5129,0,0.9355,0.386,0.9933,0.8834L60,33v3.585l5.7071,5.7079c0.3905,0.3905,0.3905,1.0237,0,1.4142
	c-0.3605,0.3605-0.9277,0.3882-1.32,0.0832l-0.0942-0.0832L59,38.415l-5.2929,5.2921c-0.3905,0.3905-1.0237,0.3905-1.4142,0
	c-0.3605-0.3605-0.3882-0.9277-0.0832-1.32l0.0832-0.0942L58,36.584V33C58,32.4477,58.4477,32,59,32z M21,32
	c0.5129,0,0.9355,0.386,0.9933,0.8834L22,33v3.585l3.7465,3.7472c0.3905,0.3906,0.3905,1.0237,0,1.4143
	c-0.3605,0.3604-0.9277,0.3882-1.32,0.0831l-0.0942-0.0831L21,38.414l-5.2929,5.2931c-0.3905,0.3905-1.0237,0.3905-1.4142,0
	c-0.3605-0.3605-0.3882-0.9277-0.0832-1.32l0.0832-0.0942L20,36.584V33C20,32.4477,20.4477,32,21,32z M27.7071,42.2929
	c0.3905,0.3905,0.3905,1.0237,0,1.4142c-0.3905,0.3905-1.0237,0.3905-1.4142,0c-0.3905-0.3905-0.3905-1.0237,0-1.4142
	C26.6834,41.9024,27.3166,41.9024,27.7071,42.2929z"/>
  </g>
  <g class="fr-artwork-major" id="artwork-major">
    <path d="M68,67c0,0.51282-0.38599,0.93549-0.88342,0.99329L67,68H49c-0.55231,0-1-0.44769-1-1
	c0-0.51282,0.38599-0.93549,0.88342-0.99329L49,66h13v-1c0-0.51282-0.38599-0.93549-0.88342-0.99329L61,64H19
	c-0.51282,0-0.93549,0.38599-0.99329,0.88342L18,65v1h7c0.55231,0,1,0.44769,1,1c0,0.51282-0.38599,0.93549-0.88342,0.99329L25,68
	H13c-0.55231,0-1-0.44769-1-1c0-0.51282,0.38599-0.93549,0.88342-0.99329L13,66h3v-1c0-1.59772,1.2489-2.90369,2.82373-2.99487
	L19,62h9v-1c0-1.58789,1.20117-2.90302,2.73712-2.99487L30.90912,58H39v-5c0-0.55231,0.44769-1,1-1
	c0.51282,0,0.93549,0.38599,0.99329,0.88342L41,53v5h10c0.55231,0,1,0.44769,1,1c0,0.51282-0.38599,0.93549-0.88342,0.99329L51,60
	H30.90912c-0.4563,0-0.849,0.37732-0.90283,0.88147L30,61v1h31c1.59772,0,2.90369,1.2489,2.99487,2.82367L64,65v1h3
	C67.55231,66,68,66.44769,68,67z M40,48c-0.55231,0-1,0.44769-1,1s0.44769,1,1,1s1-0.44769,1-1S40.55231,48,40,48z M12,29
	c0-0.51282,0.38599-0.93549,0.88342-0.99329l0.16229-0.00684l0.63818-0.00861l0.44983-0.0105
	c0.30389-0.008,0.61938-0.01819,0.94556-0.0307l1.00983-0.04468c0.34662-0.0174,0.703-0.03717,1.06799-0.05981
	c3.12671-0.19299,6.25201-0.54016,9.16077-1.07886c0.84064-0.15564,1.64471-0.32385,2.41071-0.50452l0.7533-0.18481l0.72754-0.19299
	c5.06177-1.39709,8.15759-3.41687,8.70361-6.03387C37.23212,19.37701,36,17.8324,36,16c0-2.20911,1.79089-4,4-4s4,1.79089,4,4
	c0,1.8324-1.23212,3.37701-2.91302,3.85052c0.54602,2.617,3.64185,4.63678,8.70361,6.03387l0.72754,0.19299l0.7533,0.18481
	c0.76599,0.18066,1.57007,0.34888,2.41071,0.50452c2.90875,0.5387,6.03406,0.88586,9.16077,1.07886
	c0.36499,0.02264,0.72144,0.04242,1.06799,0.05981l1.00983,0.04468c0.32617,0.01251,0.64166,0.02271,0.94562,0.0307l0.44977,0.0105
	l0.63818,0.00861l0.16229,0.00684C67.61401,28.06451,68,28.48718,68,29c0,0.55231-0.44769,1-1,1l-0.94757-0.01392l-0.71484-0.01996
	l-1.00146-0.03851l-1.06342-0.05322l-0.5531-0.03247c-3.20148-0.19769-6.4043-0.55353-9.40167-1.10864
	c-0.57355-0.1062-1.13263-0.21808-1.67682-0.33588l-0.80499-0.18121c-4.4693-1.04498-7.854-2.51636-9.83612-4.52527V41
	c0,0.55231-0.44769,1-1,1c-0.51282,0-0.93549-0.38599-0.99329-0.88342L39,41V23.69092
	c-1.98212,2.00891-5.36682,3.48029-9.83612,4.52527l-0.80499,0.18121c-0.54419,0.1178-1.10327,0.22968-1.67676,0.33588
	c-2.99744,0.55511-6.20026,0.91095-9.40173,1.10864l-0.5531,0.03247l-1.06342,0.05322l-1.00146,0.03851l-0.71484,0.01996L13,30
	C12.44769,30,12,29.55231,12,29z M40,18c1.10461,0,2-0.89539,2-2s-0.89539-2-2-2s-2,0.89539-2,2S38.89539,18,40,18z"/>
  </g>
</svg>
