<svg width="80px" height="80px" viewBox="0 0 80 80" xmlns="http://www.w3.org/2000/svg">
 	<style>
		.fr-artwork-decorative {
			fill: #ECECFF;
		}
		.fr-artwork-minor {
			fill: #E1000F;
		}
		.fr-artwork-major {
			fill: #000091;
		}
	</style>
	<g class="fr-artwork-decorative" id="artwork-decorative">
    <path d="M70,69c-0.5514,0-1-0.4486-1-1s0.4486-1,1-1s1,0.4486,1,1S70.5514,69,70,69z M68,13c-0.5514,0-1-0.4486-1-1
	s0.4486-1,1-1s1,0.4486,1,1S68.5514,13,68,13z M14,69c-0.5514,0-1-0.4486-1-1s0.4486-1,1-1s1,0.4486,1,1S14.5514,69,14,69z"/>
  </g>
  <g class="fr-artwork-minor" id="artwork-minor">
    <path d="M23.1355,12.18872l-0.5329-0.06232c-0.27118-0.02808-0.54919-0.05151-0.83319-0.07019l-0.57568-0.03119
	l-0.59033-0.01874c-0.09949-0.00208-0.19958-0.00366-0.30017-0.0047L20,12c-0.20319,0-0.40442,0.00208-0.60339,0.00629
	l-0.59033,0.01874l-0.57568,0.03119c-0.284,0.01868-0.56201,0.04211-0.83319,0.07019l-0.5329,0.06232
	C13.98602,12.5658,12,13.50659,12,15s1.98602,2.4342,4.8645,2.81128l0.5329,0.06232
	c0.27118,0.02808,0.54919,0.05151,0.83319,0.07019l0.57568,0.03119l0.59033,0.0188C19.59558,17.99792,19.79681,18,20,18
	s0.40442-0.00208,0.60339-0.00623l0.59033-0.0188l0.57568-0.03119c0.284-0.01868,0.56201-0.04211,0.83319-0.07019l0.5329-0.06232
	C24.24329,17.6662,25.21887,17.43762,26,17.1261V21l0.00671,0.11658C26.06451,21.61401,26.48718,22,27,22c0.55231,0,1-0.44769,1-1
	v-6C28,13.50659,26.01398,12.5658,23.1355,12.18872z M25.85687,15.07837c-0.25769,0.12891-0.60596,0.25751-1.02808,0.37433
	C23.58112,15.79791,21.85358,16,20.00049,16s-3.58057-0.20209-4.82831-0.5473l-0.20477-0.05933
	c-0.31769-0.09625-0.5863-0.19897-0.79718-0.30206L14,15l0.1441-0.07843c0.25769-0.12885,0.60602-0.25745,1.02808-0.37427
	C16.41992,14.20209,18.1474,14,20.00049,14s3.58063,0.20209,4.82831,0.5473l0.2049,0.05933
	c0.39703,0.12036,0.71741,0.25067,0.94452,0.37939L26,15L25.85687,15.07837z M63.1355,28.18872l-0.5329-0.06232
	c-0.27118-0.02808-0.54919-0.05151-0.83319-0.07019l-0.57568-0.03119l-0.59033-0.01874
	c-0.09949-0.00208-0.19958-0.00366-0.30017-0.0047L60,28c-0.20319,0-0.40442,0.00208-0.60339,0.00629l-0.59033,0.01874
	l-0.57568,0.03119c-0.284,0.01868-0.56201,0.04211-0.83319,0.07019l-0.5329,0.06232C53.98602,28.5658,52,29.50659,52,31
	s1.98602,2.4342,4.8645,2.81128l0.5329,0.06232c0.27118,0.02808,0.54919,0.05151,0.83319,0.07019l0.57568,0.03119l0.59033,0.01874
	C59.59558,33.99792,59.79681,34,60,34s0.40442-0.00208,0.60339-0.00629l0.59033-0.01874l0.57568-0.03119
	c0.284-0.01868,0.56201-0.04211,0.83319-0.07019l0.5329-0.06232C64.24329,33.6662,65.21893,33.43762,66,33.1261V37l0.00671,0.11658
	C66.06451,37.61401,66.48718,38,67,38c0.55231,0,1-0.44769,1-1v-6C68,29.50659,66.01398,28.5658,63.1355,28.18872z
	 M65.85693,31.07837c-0.25775,0.12891-0.60602,0.25751-1.02814,0.37433C63.58112,31.79791,61.85358,32,60.00049,32
	s-3.58057-0.20209-4.82831-0.5473l-0.20477-0.05933c-0.31769-0.09625-0.5863-0.19897-0.79718-0.30206L54,31l0.1441-0.07843
	c0.25769-0.12885,0.60602-0.25745,1.02808-0.37427C56.41992,30.20209,58.1474,30,60.00049,30s3.58063,0.20209,4.82831,0.5473
	l0.2049,0.05933c0.39703,0.12036,0.71741,0.25067,0.94452,0.37939L66,31L65.85693,31.07837z M52.43561,52H55
	c0.55231,0,1,0.44769,1,1c0,0.51282-0.38599,0.93549-0.88342,0.99329L55,54h-3.06451c0,0.34552,0.04089,0.6806,0.11774,1H55
	c0.55231,0,1,0.44769,1,1c0,0.51282-0.38599,0.93549-0.88342,0.99329L55,57h-1.79828c0.6601,0.6228,1.52667,1,2.47339,1
	c0.92279,0,1.79218-0.35773,2.4715-0.99823c0.39478-0.37225,1.0069-0.34326,1.36719,0.06476
	c0.36023,0.4079,0.33221,1.04034-0.06262,1.41266C58.41992,59.4516,57.08698,60,55.67511,60c-2.10364,0-3.93549-1.20813-4.91571-3
	H49c-0.55231,0-1-0.44769-1-1c0-0.51282,0.38599-0.93549,0.88342-0.99329L49,55h1.07849C50.02692,54.67468,50,54.34058,50,54h-1
	c-0.55231,0-1-0.44769-1-1c0-0.51282,0.38599-0.93549,0.88342-0.99329L49,52h1.32312c0.77826-2.32782,2.87708-4,5.35199-4
	c1.54761,0,2.99719,0.65918,4.05658,1.80389c0.36938,0.39923,0.35571,1.03223-0.03058,1.41388
	c-0.38629,0.38171-0.99878,0.36761-1.36823-0.03156C57.63348,50.4306,56.68671,50,55.67511,50
	C54.29388,50,53.08319,50.80292,52.43561,52z M13.99329,20.8031L14,20.90912v18.18176C14,39.59302,13.55231,40,13,40
	c-0.51282,0-0.93549-0.35089-0.99329-0.8031L12,39.09088V20.90912C12,20.40698,12.44769,20,13,20
	C13.51282,20,13.93549,20.35089,13.99329,20.8031z M14,43c0,0.55231-0.44769,1-1,1s-1-0.44769-1-1s0.44769-1,1-1S14,42.44769,14,43z
	 M52.00671,39.11658L52,39v-4c0-0.55231,0.44769-1,1-1c0.51282,0,0.93549,0.38599,0.99329,0.88342L54,35v4c0,0.55231-0.44769,1-1,1
	C52.48718,40,52.06451,39.61401,52.00671,39.11658z"/>
  </g>
  <g class="fr-artwork-major" id="artwork-major">
    <path d="M70.00018,53.00067c0,0.55231-0.44769,1-1,1c-0.55219,0-1-0.44769-1-1
	c0-4.64569-2.93671-9.0108-7.42108-11.09338c-0.50098-0.2326-0.71851-0.82727-0.48578-1.32819
	c0.2326-0.50098,0.82721-0.71851,1.32806-0.48578C66.5954,42.49609,70.00018,47.55688,70.00018,53.00067z M67,53.99957
	C67,60.6272,61.62738,66,55,66c-4.76288,0-8.87769-2.7749-10.81598-6.79633C42.49072,59.6817,39.44012,60,36.94989,60
	c-1.01556,0-2.0116-0.05603-2.96552-0.16479c-0.2262,1.90179-2.89777,3.26227-6.63556,3.8465l-0.58014,0.08331
	c-0.19598,0.0257-0.39459,0.04938-0.59558,0.07098l-0.61011,0.05847C24.7403,63.96411,23.88208,63.99988,23,63.99988
	s-1.7403-0.03577-2.56299-0.10541L19.8269,63.836c-0.20099-0.02161-0.3996-0.04529-0.59558-0.07098l-0.58014-0.08331
	c-3.81317-0.59601-6.51666-1.99988-6.6463-3.96228L12,59.57123v-4.57166c0-0.05859,0.005-0.11597,0.01471-0.17188
	c-0.00409-0.03589-0.00739-0.07208-0.00983-0.1084L12,54.57098v-4.57178c0-1.78223,2.42279-3.03729,5.98682-3.62463l0.57196-0.0871
	c0.09692-0.01355,0.19452-0.02667,0.29285-0.03937l0.59839-0.07031c0.30328-0.03229,0.61267-0.0603,0.92749-0.08398l0.63672-0.0415
	l0.65009-0.02979c0.10938-0.00403,0.2193-0.00751,0.32971-0.0105L22.66199,46h0.67603l0.66797,0.01202
	c0.11041,0.00299,0.22034,0.00647,0.32971,0.0105l0.65009,0.02979l0.63672,0.0415c0.15088,0.01141,0.3006,0.02368,0.44897,0.03711
	c-0.03497-0.1344-0.05737-0.27185-0.06659-0.41193L26,45.57068v-4.57159c0-0.05841,0.005-0.11566,0.01459-0.17139
	c-0.00409-0.03583-0.00726-0.07172-0.0097-0.10791L26,40.57159V36c0-0.05847,0.005-0.11603,0.01471-0.17181
	c-0.00409-0.03589-0.00739-0.07196-0.00983-0.1084L26,35.57159V31c0-0.05847,0.005-0.11603,0.01471-0.17181
	c-0.00409-0.03589-0.00739-0.07196-0.00983-0.1084L26,30.57159v-4.57239c0-1.78223,2.42279-3.03729,5.98682-3.62463l0.57196-0.0871
	c0.09692-0.01355,0.19452-0.02667,0.29285-0.03937l0.59839-0.07031c0.30328-0.03229,0.61267-0.0603,0.92749-0.08398l0.63672-0.0415
	l0.65009-0.02979c0.10938-0.00403,0.2193-0.00751,0.32971-0.0105L36.66199,22h0.67603l0.66797,0.01202
	c0.11041,0.00299,0.22034,0.00647,0.32971,0.0105l0.65009,0.02979l0.63672,0.0415c0.31482,0.02368,0.62421,0.0517,0.92749,0.08398
	l0.59839,0.07031c0.19666,0.02527,0.39044,0.05249,0.58112,0.0816l0.56268,0.09271C45.703,23.02832,48,24.26471,48,26v4.57159
	c0,0.08661-0.00488,0.17212-0.01471,0.25659c0.00323,0.01819,0.0058,0.03674,0.008,0.05524L48,31v4.57159
	c0,0.08661-0.00488,0.17212-0.01471,0.25659c0.00323,0.01819,0.0058,0.03668,0.008,0.05524L48,36v4.57159
	c0,0.08643-0.00488,0.17181-0.01459,0.2561c0.00146,0.00897,0.00287,0.01801,0.00421,0.02698
	c0.0014,0.00922,0.00256,0.01849,0.00366,0.02783L48,40.99908v3.2522c1.97021-1.4173,4.38757-2.25208,7-2.25208
	C61.62738,41.99921,67,47.37189,67,53.99957z M28,26.00043c0,0.20386,0.27643,0.4375,0.77271,0.67145l0.26617,0.11694
	c0.14203,0.05841,0.29712,0.11639,0.4646,0.17371l0.35095,0.11346c0.0611,0.01874,0.1236,0.03723,0.18726,0.05573l0.39703,0.10901
	c0.13727,0.03558,0.2793,0.07068,0.4259,0.10486l0.45306,0.1001c0.0777,0.01624,0.15643,0.03223,0.23621,0.04803l0.49103,0.09131
	c0.0838,0.01459,0.16858,0.02899,0.25427,0.04309l0.52533,0.08069l0.54626,0.07251l0.56561,0.06366l0.58337,0.05396
	c0.19733,0.01617,0.39722,0.0307,0.59961,0.04327l0.61432,0.03198l0.62738,0.01984C36.5722,27.99841,36.78528,28.00079,37,28.00079
	s0.4278-0.00238,0.63892-0.00677l0.62738-0.01984l0.61432-0.03198c0.20239-0.01257,0.40228-0.0271,0.59961-0.04327l0.58337-0.05396
	l0.56561-0.06366l0.54626-0.07251c0.08936-0.01282,0.1778-0.026,0.26544-0.03943l0.51416-0.08435l0.49103-0.09131
	c0.15961-0.03149,0.315-0.06403,0.46613-0.09741l0.4397-0.1026c0.07086-0.01752,0.14075-0.03522,0.20935-0.05298l0.39703-0.10901
	c0.12738-0.03693,0.24982-0.07434,0.36676-0.11224l0.33472-0.11444c0.10614-0.03851,0.2066-0.07733,0.30133-0.11621l0.26617-0.11694
	C45.72357,26.43793,46,26.20428,46,26.00043c0-0.20392-0.27643-0.43762-0.77271-0.67163l-0.26617-0.11688
	c-0.14203-0.05829-0.29712-0.11633-0.4646-0.17365l-0.35089-0.11346c-0.06116-0.01868-0.12366-0.03729-0.18732-0.05573
	l-0.39703-0.10901c-0.13727-0.03564-0.2793-0.07068-0.4259-0.10486l-0.45306-0.1001c-0.0777-0.0163-0.15643-0.03229-0.23621-0.04803
	l-0.49103-0.09131c-0.0838-0.01465-0.16858-0.02905-0.25427-0.04309l-0.52533-0.08069l-0.54626-0.07257l-0.56561-0.0636
	l-0.58337-0.05389c-0.19733-0.01636-0.39722-0.03082-0.59961-0.04346l-0.61432-0.03186l-0.62738-0.01984
	C37.4278,24.00232,37.21472,24,37,24l-0.3208,0.00171c-0.10651,0.0011-0.21252,0.00281-0.31812,0.00507l-0.62738,0.01984
	l-0.61432,0.03186c-0.20239,0.01263-0.40228,0.0271-0.59961,0.04346l-0.58337,0.05389l-0.56561,0.0636l-0.54626,0.07257
	c-0.08929,0.01282-0.1778,0.02588-0.26544,0.03943l-0.51416,0.08435l-0.49103,0.09131
	c-0.15961,0.03149-0.315,0.06403-0.46606,0.09741l-0.43976,0.1026c-0.07086,0.01752-0.14075,0.03522-0.20935,0.05298
	l-0.39703,0.10901c-0.12738,0.03693-0.24976,0.07434-0.36676,0.11212l-0.33472,0.11462
	c-0.10608,0.03845-0.2066,0.07715-0.30133,0.11609l-0.26617,0.11688C28.27643,25.56281,28,25.79651,28,26.00043z M28,30.57159
	c0,0.35248,0.75549,0.9649,2.2533,1.47852c1.75128,0.60046,4.16272,0.9502,6.7467,0.9502s4.99542-0.34973,6.7467-0.9502
	c1.41461-0.48499,2.16711-1.05823,2.24628-1.41742L46,30.57159v-2.1261c-1.02332,0.51831-2.39062,0.91528-3.98682,1.17828
	L41.44122,29.711c-0.09692,0.01361-0.19452,0.02667-0.29285,0.03943l-0.59839,0.07025
	c-0.30328,0.03235-0.61267,0.0603-0.92749,0.08405l-0.63672,0.0415l-0.65009,0.02979
	c-0.10938,0.00397-0.2193,0.00751-0.32971,0.0105l-0.66797,0.01196L37,30c-0.1131,0-0.22577-0.00049-0.33801-0.00153
	l-0.66797-0.01196c-0.11041-0.00299-0.22034-0.00653-0.32971-0.0105l-0.65009-0.02979l-0.63672-0.0415
	c-0.31482-0.02374-0.62421-0.0517-0.92749-0.08405l-0.59839-0.07025c-0.19659-0.02533-0.39044-0.05255-0.58112-0.0816
	l-0.56268-0.09271C30.23108,29.31378,28.96307,28.93341,28,28.4455V30.57159z M28,35.57159c0,0.35248,0.75549,0.9649,2.2533,1.47852
	c1.75128,0.60046,4.16272,0.9502,6.7467,0.9502s4.99542-0.34973,6.7467-0.9502c1.41461-0.48499,2.16711-1.05823,2.24628-1.41742
	L46,35.57159v-2.32788c-1.16467,0.65546-2.77338,1.1449-4.65118,1.43835l-0.58014,0.08331
	c-0.19598,0.0257-0.39459,0.04944-0.59558,0.07104l-0.61011,0.05847C38.7403,34.96448,37.88208,35.00031,37,35.00031
	s-1.7403-0.03583-2.56299-0.10541l-0.61011-0.05847c-0.20099-0.02161-0.3996-0.04535-0.59558-0.07104l-0.58014-0.08331
	c-1.87781-0.29346-3.48651-0.7829-4.65118-1.43835V35.57159z M28,40.57159c0,0.35248,0.75549,0.9649,2.2533,1.47852
	c1.75128,0.60046,4.16272,0.9502,6.7467,0.9502s4.99542-0.34973,6.7467-0.9502c1.41461-0.48499,2.16711-1.05823,2.24628-1.41742
	L46,40.57159v-2.32788c-1.16467,0.65546-2.77338,1.1449-4.65118,1.43835l-0.58014,0.08331
	c-0.19598,0.0257-0.39459,0.04944-0.59558,0.07104l-0.61011,0.05847C38.7403,39.96448,37.88208,40.00031,37,40.00031
	s-1.7403-0.03583-2.56299-0.10541l-0.61011-0.05847c-0.20099-0.02161-0.3996-0.04535-0.59558-0.07104l-0.58014-0.08331
	c-1.87781-0.29346-3.48651-0.7829-4.65118-1.43835V40.57159z M32,57.2431c-1.16467,0.65552-2.77338,1.1449-4.65118,1.43842
	l-0.58014,0.08325c-0.19598,0.02582-0.39459,0.04944-0.59558,0.07104l-0.61011,0.05847
	C24.7403,58.96399,23.88208,58.99982,23,58.99982s-1.7403-0.03583-2.56299-0.10553l-0.61011-0.05847
	c-0.20099-0.02161-0.3996-0.04523-0.59558-0.07104l-0.58014-0.08325C16.77338,58.388,15.16467,57.89862,14,57.2431v2.32812
	c0,0.35248,0.75549,0.96484,2.2533,1.47845c1.75128,0.60052,4.16272,0.9502,6.7467,0.9502s4.99542-0.34967,6.7467-0.9502
	c1.41461-0.48499,2.16711-1.05817,2.24628-1.41736L32,59.57123V57.2431z M32,52.4455
	c-1.02332,0.51831-2.39062,0.91528-3.98682,1.17828L27.44122,53.711c-0.09692,0.01361-0.19452,0.02667-0.29285,0.03943
	l-0.59839,0.07025c-0.30328,0.03235-0.61267,0.0603-0.92749,0.08392l-0.63672,0.04163l-0.65009,0.02979
	c-0.10938,0.00397-0.2193,0.00751-0.32971,0.0105l-0.66797,0.01196L23,54c-0.1131,0-0.22577-0.00049-0.33801-0.00153
	l-0.66797-0.01196c-0.11041-0.00299-0.22034-0.00653-0.32971-0.0105l-0.65009-0.02979L20.3775,53.9046
	c-0.31482-0.02362-0.62421-0.05157-0.92749-0.08392l-0.59839-0.07025c-0.19659-0.02533-0.39044-0.05255-0.58112-0.0816
	l-0.56268-0.09271C16.23108,53.31378,14.96307,52.93341,14,52.4455v2.12549c0,0.3526,0.75549,0.96503,2.2533,1.47852
	c1.75128,0.60052,4.16272,0.9502,6.7467,0.9502s4.99542-0.34967,6.7467-0.9502c1.41461-0.48499,2.16711-1.05823,2.24628-1.41742
	L32,54.57098V52.4455z M32,50.00043c0-0.16315-0.1767-0.34515-0.50122-0.53125c-1.11816-0.23871-2.11237-0.55426-2.93726-0.93896
	c-0.03821-0.00781-0.07672-0.0155-0.11542-0.02313l-0.49103-0.09131c-0.0838-0.01465-0.16858-0.02905-0.25427-0.04309
	l-0.52533-0.08069l-0.54626-0.07257l-0.56561-0.0636l-0.58337-0.05396c-0.19733-0.0163-0.39722-0.03076-0.59961-0.0434
	l-0.61432-0.03186l-0.62738-0.01984C23.4278,48.00232,23.21472,48,23,48l-0.3208,0.00171
	c-0.10651,0.0011-0.21252,0.00281-0.31812,0.00507l-0.62738,0.01984l-0.61432,0.03186
	c-0.20239,0.01263-0.40228,0.0271-0.59961,0.0434l-0.58337,0.05396l-0.56561,0.0636l-0.54626,0.07257
	c-0.08929,0.01282-0.1778,0.02588-0.26544,0.03943l-0.51416,0.08435l-0.49103,0.09131
	c-0.15961,0.03149-0.315,0.06403-0.46606,0.09741l-0.43976,0.1026c-0.07086,0.01752-0.14075,0.03522-0.20935,0.05298
	l-0.39703,0.10901c-0.12738,0.03693-0.24982,0.07434-0.36676,0.11212l-0.33472,0.11462
	c-0.10608,0.03845-0.2066,0.07715-0.30133,0.11609l-0.26617,0.11688C14.27643,49.56281,14,49.79651,14,50.00043
	c0,0.20386,0.27643,0.4375,0.77271,0.67145l0.26617,0.11694c0.14203,0.05835,0.29712,0.11639,0.4646,0.17371l0.35089,0.11346
	c0.06116,0.01874,0.12366,0.03723,0.18732,0.05573l0.39703,0.10901c0.13727,0.03558,0.2793,0.07068,0.4259,0.10486l0.45306,0.1001
	c0.0777,0.01624,0.15643,0.03223,0.23621,0.04803l0.49103,0.09131c0.0838,0.01459,0.16858,0.02899,0.25427,0.04309l0.52533,0.08069
	l0.54626,0.07251l0.56561,0.06366l0.58337,0.05396c0.19733,0.01617,0.39722,0.0307,0.59961,0.04327l0.61432,0.03198l0.62738,0.01984
	C22.5722,51.99841,22.78528,52.00079,23,52.00079s0.4278-0.00238,0.63892-0.00677l0.62738-0.01984l0.61432-0.03198
	c0.20239-0.01257,0.40228-0.0271,0.59961-0.04327l0.58337-0.05396l0.56561-0.06366l0.54626-0.07251
	c0.08929-0.01282,0.1778-0.026,0.26544-0.03943l0.51416-0.08435l0.49103-0.09131c0.15961-0.03149,0.315-0.06403,0.46613-0.09741
	l0.4397-0.1026c0.07086-0.01752,0.14075-0.03522,0.20935-0.05298l0.39703-0.10901c0.12738-0.03693,0.24982-0.07434,0.36676-0.11224
	l0.33472-0.1145c0.10614-0.03845,0.2066-0.07727,0.30133-0.11615l0.26617-0.11694C31.72357,50.43793,32,50.20428,32,50.00043z
	 M43.4115,57.12689c-0.22949-0.85272-0.36737-1.7428-0.40253-2.6593C41.23499,54.79791,38.9505,55,36.98999,55
	c-1.02917,0-2.03839-0.0575-3.00421-0.16913l0.00311,0.01923l0.00269,0.01941l0.00171,0.01349L34,54.99957v2.60565
	c0.94177,0.1156,1.9342,0.17548,2.94989,0.17548C39.15112,57.7807,41.8479,57.51251,43.4115,57.12689z M44.06012,49.06067
	c-0.81262,0.25812-1.72479,0.46631-2.7113,0.62054l-0.58014,0.08331c-0.19598,0.0257-0.39459,0.04938-0.59558,0.07098
	l-0.61011,0.05847C38.7403,49.96362,37.88208,49.99951,37,49.99951s-1.7403-0.03589-2.56299-0.10553l-0.44263-0.04236
	C33.99811,49.90039,34,49.94958,34,49.99921v2.59381c0.9538,0.11865,1.96002,0.1803,2.98999,0.1803
	c2.0354,0,4.46112-0.2337,6.14703-0.5929C43.30359,51.08478,43.61829,50.0379,44.06012,49.06067z M45.99298,45.63177L46,45.57068
	v-2.32697c-1.16467,0.65546-2.77338,1.1449-4.65118,1.43835l-0.58014,0.08331c-0.19598,0.0257-0.39459,0.04944-0.59558,0.07104
	l-0.61011,0.05847C38.7403,44.96448,37.88208,45.00031,37,45.00031s-1.7403-0.03583-2.56299-0.10541l-0.61011-0.05847
	c-0.20099-0.02161-0.3996-0.04535-0.59558-0.07104l-0.58014-0.08331c-1.87781-0.29346-3.48651-0.7829-4.65118-1.43835v2.32697
	c0,0.25201,0.38599,0.63684,1.15338,1.02344c1.05652,0.23511,1.98114,0.53729,2.73169,0.90179
	C33.38123,47.8194,35.14618,47.99939,37,47.99939c2.58398,0,4.99542-0.34967,6.7467-0.9502
	C45.16132,46.56421,45.91382,45.99103,45.99298,45.63177z M65,53.99957c0-5.52295-4.47711-10.00037-10-10.00037
	c-5.52283,0-10,4.47742-10,10.00037c0,5.52301,4.47717,10.00031,10,10.00031C60.52289,63.99988,65,59.52258,65,53.99957z"/>
  </g>
</svg>
