<svg width="80px" height="80px" viewBox="0 0 80 80" xmlns="http://www.w3.org/2000/svg">
  <style>
    .fr-artwork-decorative {
      fill: #ECECFF;
    }
    .fr-artwork-minor {
      fill: #E1000F;
    }
    .fr-artwork-major {
      fill: #000091;
    }
  </style>
  <symbol id="artwork-decorative">
    <path d="M6 66a1.001 1.001 0 0 1 0-2 1.001 1.001 0 0 1 0 2ZM10 7a1.001 1.001 0 0 1 0-2 1.001 1.001 0 0 1 0 2ZM74 70a1.001 1.001 0 0 1 0-2 1.001 1.001 0 0 1 0 2ZM71 13a1.001 1.001 0 0 1 0-2 1.001 1.001 0 0 1 0 2Z"/>
  </symbol>
  <symbol id="artwork-minor">
    <path d="M40.3 16.4a1 1 0 0 1 1-1c4.28 0 8.64 2.344 10.033 5.939a1 1 0 1 1-1.865.722C48.459 19.456 45.019 17.4 41.3 17.4a1 1 0 0 1-1-1ZM48.232 33.545a1 1 0 0 1-.277 1.387c-1.618 1.078-3.728 1.913-6.328 2.813l-.015.005c-1.072.352-2.097.674-3.063.977-1.838.578-3.463 1.088-4.785 1.605-1.005.391-1.746.755-2.228 1.103-.499.361-.535.57-.537.615l-.002.027c-.005.062.009.271.56.606.515.313 1.23.559 1.918.755a1 1 0 0 1-.55 1.923c-.712-.203-1.647-.507-2.407-.969-.721-.439-1.604-1.225-1.516-2.456.053-.947.689-1.635 1.362-2.121.693-.502 1.627-.938 2.672-1.347 1.384-.54 3.12-1.086 5.007-1.679.95-.298 1.937-.609 2.938-.937 2.596-.899 4.483-1.663 5.864-2.584a1 1 0 0 1 1.387.277ZM45.827 47.271a1 1 0 0 1 1.202-.744c.898.21 1.786.52 2.447.972.66.45 1.32 1.223 1.105 2.297l-.005.02c-.166.748-.6 1.276-1.184 1.666-.536.357-1.228.617-1.976.867l-.02.006c-1.528.474-4.272.984-6.974 1.42-2.726.44-5.488.816-7.098 1.017l-.014.002a9.962 9.962 0 0 0-2.359.542 1 1 0 0 1-.702-1.872 11.951 11.951 0 0 1 2.834-.657 215.81 215.81 0 0 0 7.02-1.007c2.717-.438 5.316-.927 6.69-1.352.747-.249 1.202-.438 1.49-.63.229-.153.3-.27.336-.414l-.003-.005c-.021-.037-.09-.127-.267-.248-.364-.249-.976-.489-1.778-.678a1 1 0 0 1-.744-1.202ZM27.951 66.764a1 1 0 0 1 .585 1.287 24.365 24.365 0 0 1-.718 1.711c-.289.616-.662 1.326-1.059 1.789a1 1 0 0 1-1.518-1.302c.203-.237.48-.727.766-1.336.273-.582.513-1.181.657-1.564a1 1 0 0 1 1.287-.585Z"/>
  </symbol>
  <symbol id="artwork-major">
    <path d="M33.1 16.3c0-3.452 2.848-6.3 6.3-6.3 1.906 0 3.568.838 4.74 2.127a1 1 0 0 1-1.48 1.346C41.833 12.563 40.694 12 39.4 12c-2.348 0-4.3 1.952-4.3 4.3s1.952 4.3 4.3 4.3c1.223 0 2.25-.485 2.957-1.269a1 1 0 1 1 1.486 1.338C42.75 21.884 41.177 22.6 39.4 22.6c-3.452 0-6.3-2.848-6.3-6.3Z M39.62 14.106a1 1 0 0 1-.526 1.313.976.976 0 0 0-.594.881c0 .377.24.73.594.88a1 1 0 1 1-.788 1.84A2.975 2.975 0 0 1 36.5 16.3c0-1.223.76-2.27 1.806-2.72a1 1 0 0 1 1.313.526ZM37.346 20.201a1 1 0 0 1 .953 1.045l-.2 4.3a1 1 0 0 1-.999.954h-5.8a1 1 0 0 1-.53-.152c-.685-.428-1.503-.748-2.47-.748-1.013 0-1.873.297-2.454.728-.577.428-.846.953-.846 1.472 0 .52.269 1.044.846 1.472.581.431 1.44.728 2.454.728 1.028 0 1.806-.254 2.4-.7a1 1 0 0 1 .6-.2H37a1 1 0 0 1 .999 1.047l-.2 4.2a1 1 0 0 1-1.998-.095l.15-3.152h-4.337c-.948.615-2.07.9-3.314.9-1.387 0-2.677-.403-3.646-1.122C23.681 30.156 23 29.081 23 27.8c0-1.28.681-2.356 1.654-3.078.969-.719 2.26-1.122 3.646-1.122 1.304 0 2.4.397 3.276.9h4.57l.155-3.346a1 1 0 0 1 1.045-.953ZM36.54 41.4a1 1 0 0 1 .96 1.04l-.3 7.4a1 1 0 0 1-2-.08l.3-7.4a1 1 0 0 1 1.04-.96ZM64.05 41.232a1 1 0 0 1 .748 1.027c-.1 1.705-.3 4.71-.475 7.284l-.228 3.329-.097 1.396v.001a1 1 0 0 1-1.484.805l-.048-.026-.03.048a32.04 32.04 0 0 1-1.535 2.24c-1.335 1.785-3.304 4.043-5.812 5.872a1 1 0 0 1-1.178-1.616c2.291-1.671 4.123-3.763 5.388-5.454a30.028 30.028 0 0 0 1.44-2.1 21.228 21.228 0 0 0 .455-.765l.02-.038.005-.008v-.001a1 1 0 0 1 .883-.526 2840.092 2840.092 0 0 0 .417-6.137c-.972 1.501-1.889 2.62-2.67 3.44-.48.502-.907.892-1.263 1.187l.187.17a1 1 0 0 1 .106 1.367c-2.824 3.504-5.785 5.21-8.293 6.07-1.882.643-3.603.816-4.575.913-.279.028-.496.05-.637.075-.747.132-1.391-.097-1.847-.572-.401-.418-.59-.956-.688-1.37a5.928 5.928 0 0 1-.143-1.165 6.726 6.726 0 0 1 .003-.495l.002-.034v-.011l.001-.004v-.002l-.003.05.003-.05a1 1 0 0 1 1.996.135l-.001.015-.003.07a4.688 4.688 0 0 0 0 .267c.008.23.032.51.092.764.061.26.137.391.178.439a.38.38 0 0 0 .062-.007c.296-.052.633-.086 1.013-.125.99-.1 2.273-.23 3.9-.786 1.997-.684 4.396-2.006 6.776-4.711l-.388-.353a1 1 0 0 1 .199-1.62l.011-.007a5.598 5.598 0 0 0 .446-.304c.329-.247.819-.658 1.418-1.286 1.198-1.257 2.84-3.394 4.497-6.855a1 1 0 0 1 1.152-.536ZM43.064 39.1a1 1 0 0 1 1.035.964l.3 8.4a1 1 0 0 1-1.998.072l-.3-8.4a1 1 0 0 1 .963-1.035ZM42.453 20.301a1 1 0 0 1 1.046.953l.156 3.346h4.531c.948-.616 2.07-.9 3.314-.9 1.387 0 2.677.403 3.646 1.122.973.722 1.654 1.797 1.654 3.078 0 1.28-.681 2.356-1.654 3.078-.969.719-2.26 1.122-3.646 1.122-1.304 0-2.4-.397-3.276-.9h-4.38l.055 1.257a1 1 0 1 1-1.998.086l-.1-2.3A1 1 0 0 1 42.8 29.2h5.7a1 1 0 0 1 .53.152c.685.428 1.503.748 2.47.748 1.013 0 1.873-.297 2.454-.728.577-.428.846-.953.846-1.472 0-.52-.269-1.044-.846-1.472-.581-.431-1.44-.728-2.454-.728-1.028 0-1.806.254-2.4.7a1 1 0 0 1-.6.2h-5.8a1 1 0 0 1-.999-.954l-.2-4.3a1 1 0 0 1 .953-1.045ZM39.9 70.3c-.4 0-.7-.2-.9-.6-.2-.2-1.4-.6-2.4-.9-2.1-.7-5.3-1.7-9.4-3.9-5.3-2.8-8.7-7.8-9.9-9.8-.3.2-.7.2-1 0-.3-.2-.5-.5-.5-.8 0 0-.6-8.6-.8-12 0-.5.3-.9.7-1 .5-.1.9.1 1.2.5 3.2 6.6 6.3 8.4 6.4 8.5.3.2.5.4.5.8 0 .3-.1.6-.3.9l-.4.3c4.3 4.8 8.7 5.3 10.8 5.5.4 0 .7.1.9.1 0 0 .2-.2.3-1 .1-.5.6-.9 1.1-.9.5.1.9.6.9 1.1-.1 1.2-.5 2-1.1 2.4-.4.3-1 .5-1.6.3-.2 0-.4-.1-.7-.1-2.3-.2-7.7-.8-12.8-7-.3-.4-.3-1 .1-1.4l.2-.2c-.9-.8-2.4-2.2-3.9-4.6.2 2.3.3 4.7.4 6.1h.3c.3.1.5.3.6.5 0 .1 3.5 6.7 9.6 9.9 3.9 2.1 7 3.1 9 3.8 1.2.4 2.1.7 2.7 1 .6-.4 1.5-.7 2.7-1.1 1.4-.5 3.4-1.1 5.8-2.2.5-.2 1.1 0 1.3.5.2.5 0 1.1-.5 1.3-2.5 1.1-4.5 1.8-6 2.3-1 .3-2.2.7-2.4 1-.2.5-.5.7-.9.7Z"/>
  </symbol>
  <use class="fr-artwork-decorative" href="#artwork-decorative"/>
  <use class="fr-artwork-minor" href="#artwork-minor"/>
  <use class="fr-artwork-major" href="#artwork-major"/>
</svg>
