<svg width="80px" height="80px" viewBox="0 0 80 80" xmlns="http://www.w3.org/2000/svg">
  <style>
    .fr-artwork-decorative {
      fill: #ECECFF;
    }
    .fr-artwork-minor {
      fill: #E1000F;
    }
    .fr-artwork-major {
      fill: #000091;
    }
  </style>
  <symbol id="artwork-decorative">
    <path d="M10 7a1.001 1.001 0 0 1 0-2 1.001 1.001 0 0 1 0 2ZM24 75a1.001 1.001 0 0 1 0-2 1.001 1.001 0 0 1 0 2ZM6 65a1.001 1.001 0 0 1 0-2 1.001 1.001 0 0 1 0 2ZM71 13a1.001 1.001 0 0 1 0-2 1.001 1.001 0 0 1 0 2ZM74 70a1.001 1.001 0 0 1 0-2 1.001 1.001 0 0 1 0 2Z"/>
  </symbol>
  <symbol id="artwork-minor">
    <path d="M39.327 21.092c1.253-.1 2.886-.232 4.348.291 1.583.566 3.329 1.964 3.734 3.816.134.55.155 1.303-.18 1.973-.018.037-.04.073-.062.108-.618.928-1.638 1.313-2.488 1.435-.42.06-.83.06-1.164.06h-.026c-.349 0-.621.002-.88.036-.41.085-.835.232-1.317.405l-.105.038c-.44.159-.94.34-1.427.447l-.01.003c-1.039.218-2.09.245-3.038.27h-.04c-.982.026-1.858.051-2.698.226-.18.045-.385.102-.605.163-.616.17-1.352.374-1.992.454l-.013.002c-1.056.117-2.403-.084-3.209-1.196-1.041-1.356-.688-2.912 0-4.033.68-1.112 1.815-2.055 2.917-2.49 3.116-1.35 5.22-1.664 7.753-1.968a.85.85 0 0 1 .048-.004c.145-.01.297-.023.454-.036Zm-.287 2.029c-2.445.294-4.33.581-7.19 1.822l-.035.014c-.69.268-1.494.921-1.958 1.678-.459.75-.454 1.336-.113 1.776.009.01.017.022.025.033.194.272.635.468 1.367.388.486-.062.983-.2 1.535-.353a33.107 33.107 0 0 1 .874-.232c1.038-.22 2.089-.246 3.037-.27l.04-.002c.987-.025 1.867-.05 2.71-.227.356-.08.74-.218 1.216-.39l.07-.024c.48-.173 1.045-.373 1.626-.49a.915.915 0 0 1 .055-.009c.42-.06.83-.06 1.164-.06h.026c.361 0 .64-.002.908-.04.51-.073.872-.263 1.066-.508a1.049 1.049 0 0 0-.004-.592c-.201-.94-1.246-1.936-2.456-2.368-1.03-.369-2.207-.28-3.522-.18l-.441.034ZM57.457 49.16a1 1 0 0 1-.665 1.247c-3.392 1.031-9.069 2.142-17.424 2.243h-.012c-5.314 0-9.898-.4-13.108-1.231a1 1 0 0 1 .498-1.937c2.969.769 7.355 1.168 12.604 1.168 8.19-.1 13.676-1.188 16.864-2.157a.996.996 0 0 1 1.243.667Z"/>
  </symbol>
  <symbol id="artwork-major">
    <path d="m70.772 25.277.009.016a.966.966 0 0 1 .036.072c.441.972.097 1.981-.166 2.547a5.893 5.893 0 0 1-.626 1.043l-5.775 9.061a1.002 1.002 0 0 1-.255.272l-.588-.809.588.809-.003.002-.004.002-.01.008-.03.02a9.637 9.637 0 0 1-.477.3c-.331.197-.831.473-1.53.81-1.4.673-3.595 1.59-6.836 2.603-3.305 1.033-8.294 1.74-12.745 2.203-4.473.465-8.495.692-9.918.742-2.802.1-12.307.4-16.914.5-2.43.054-4.128-.467-5.206-1.446-1.1-.999-1.375-2.307-1.314-3.408.073-1.31.98-2.367 1.65-2.998a9.524 9.524 0 0 1 1.392-1.078l.014-.01c1.215-.82 3.811-1.954 6.354-2.986 2.246-.911 4.558-1.785 6.077-2.36l.657-.248a1 1 0 1 1 .71 1.87l-.663.25c-1.52.575-3.807 1.44-6.029 2.342-2.618 1.062-5.007 2.122-6 2.8a.978.978 0 0 1-.048.03l-.015.009a6.79 6.79 0 0 0-.311.21c-.21.15-.489.366-.767.627-.604.57-.997 1.161-1.024 1.652-.039.699.136 1.34.661 1.817.547.496 1.65.975 3.819.928 4.593-.1 14.088-.4 16.886-.5 1.377-.049 5.355-.272 9.782-.732 4.45-.463 9.26-1.155 12.355-2.123 3.16-.987 5.263-1.87 6.565-2.496.65-.313 1.1-.562 1.38-.728.093-.055.167-.1.224-.137l5.686-8.921a.986.986 0 0 1 .06-.085l.001-.001.001-.001.002-.003.025-.033c.023-.032.059-.081.1-.144.086-.13.193-.306.285-.504.2-.433.216-.716.168-.855-.246-.44-.448-.757-.736-.965-.241-.175-.65-.347-1.475-.19-.985.188-1.983.495-2.936.797l-.191.06c-.843.267-1.697.537-2.387.646-.585.113-2.522.34-4.64.572-2.179.238-4.634.488-6.24.639a1 1 0 0 1-.187-1.992c1.594-.15 4.039-.399 6.21-.636 2.203-.24 4.043-.46 4.487-.549l.044-.007c.535-.083 1.26-.312 2.197-.608l.104-.033c.947-.298 2.049-.64 3.164-.853 1.275-.243 2.266-.015 3.025.535.693.503 1.085 1.208 1.328 1.645Z M26.556 31.552a1 1 0 0 1-.322 1.377c-.662.41-1.468.898-2.32 1.415l-.27.162c-.954.578-1.959 1.188-2.897 1.772a65.277 65.277 0 0 0-2.474 1.602 15.75 15.75 0 0 0-.83.606 2.778 2.778 0 0 0-.377.344c-.515.6-1.233 1.81-1.422 3.016-.091.588-.05 1.12.146 1.576.19.44.56.89 1.281 1.272 1.02.531 2.277.859 3.649 1.158l.792.169c1.096.23 2.239.471 3.223.813a1 1 0 1 1-.657 1.89c-.852-.297-1.83-.503-2.912-.732-.284-.06-.575-.121-.873-.186-1.377-.3-2.87-.673-4.15-1.34l-.003-.003c-1.078-.569-1.795-1.342-2.186-2.249-.385-.892-.419-1.827-.286-2.677.26-1.66 1.185-3.195 1.87-3.998.173-.212.419-.426.66-.618.263-.209.583-.441.939-.687a67.173 67.173 0 0 1 2.553-1.654 285.118 285.118 0 0 1 3.185-1.946c.857-.518 1.652-1 2.304-1.405a1 1 0 0 1 1.377.323Z M64.727 28.087a1 1 0 0 1-.529 1.312c-4.755 2.024-16.711 6.142-27.167 8.554l-.022.005c-5.823 1.205-12.448 2.31-17.176 2.913a1 1 0 0 1-.253-1.984c4.67-.596 11.238-1.69 17.013-2.885 10.342-2.388 22.18-6.468 26.822-8.443a1 1 0 0 1 1.312.528ZM63.031 36.78a1 1 0 0 1 .975 1.023l-.3 12.2a1 1 0 0 1-2-.049l.3-12.2a1 1 0 0 1 1.025-.975ZM18.902 46.2a1 1 0 0 1 1.183.774v.002l.002.007.007.033.029.13a26.842 26.842 0 0 0 .526 1.988c.176.568.376 1.132.588 1.59.106.229.207.413.299.55a1.43 1.43 0 0 0 .15.188c1.02.648 2.216 1.332 4.634 1.893 2.488.577 6.283 1.024 12.498 1.124 7.041.05 11.741-.521 14.893-1.19 2.843-.605 4.444-1.29 5.423-1.71l.284-.122a1 1 0 0 1 .776 1.844l-.281.12c-1.01.432-2.752 1.18-5.786 1.824-3.323.705-8.172 1.284-15.328 1.234h-.008c-6.282-.1-10.237-.553-12.923-1.176-2.724-.632-4.13-1.436-5.298-2.18a.944.944 0 0 1-.052-.035c-.501-.365-.852-.999-1.095-1.523a15.063 15.063 0 0 1-.685-1.841 28.785 28.785 0 0 1-.598-2.285l-.009-.04-.002-.01-.001-.005.978-.205-.978.205a1 1 0 0 1 .774-1.184Z"/>
  </symbol>
  <use class="fr-artwork-decorative" href="#artwork-decorative"/>
  <use class="fr-artwork-minor" href="#artwork-minor"/>
  <use class="fr-artwork-major" href="#artwork-major"/>
</svg>

