<svg width="80px" height="80px" viewBox="0 0 80 80" xmlns="http://www.w3.org/2000/svg">
 	<style>
		.fr-artwork-decorative {
			fill: #ECECFF;
		}
		.fr-artwork-minor {
			fill: #E1000F;
		}
		.fr-artwork-major {
			fill: #000091;
		}
	</style>
	<symbol id="artwork-decorative">
    <path d="M6,14c-0.5514,0-1-0.4486-1-1s0.4486-1,1-1s1,0.4486,1,1S6.5514,14,6,14z M59,73c-0.5514,0-1-0.4486-1-1
	s0.4486-1,1-1s1,0.4486,1,1S59.5514,73,59,73z M63,9c-0.5514,0-1-0.4486-1-1c0-0.55145,0.4486-1,1-1s1,0.44855,1,1
	C64,8.5514,63.5514,9,63,9z M75,51c-0.5514,0-1-0.4486-1-1s0.4486-1,1-1s1,0.4486,1,1S75.5514,51,75,51z"/>
  </symbol>
  <symbol id="artwork-minor">
    <path d="M29.5999,20.2c-0.4418-0.3314-1.0686-0.2418-1.4,0.2c-0.644,0.8588-1.6002,1.8045-2.8667,2.8341L24.81,23.6504
	c-0.0899,0.0701-0.1812,0.1406-0.274,0.2115l-0.5727,0.4296c-0.0982,0.0724-0.1978,0.1451-0.2988,0.2181l-0.6222,0.4429
	l-0.6553,0.4516c-0.112,0.076-0.2253,0.1523-0.34,0.229l-0.7048,0.4647l-0.7376,0.4733c-0.1257,0.0796-0.2528,0.1595-0.3812,0.2398
	l-0.787,0.4862c-0.1339,0.0817-0.2692,0.1638-0.4058,0.2463l-0.8363,0.4989l-0.8691,0.5074l-0.902,0.5158l-0.9347,0.5241
	l-0.9674,0.5325c-0.4849,0.2645-0.6635,0.8719-0.3991,1.3568c0.2645,0.4848,0.8719,0.6635,1.3568,0.399
	c0.1694-0.0924,0.3373-0.1844,0.5039-0.2761l0.9828-0.5461l0.9495-0.5378l0.9161-0.5298c0.1499-0.0876,0.2985-0.1749,0.4456-0.2618
	l0.8662-0.5176l0.8329-0.5096l0.7997-0.5016l0.7665-0.4936l0.7332-0.4858c0.4778-0.3212,0.9335-0.6372,1.3672-0.9481l0.6339-0.4624
	c0.3086-0.2292,0.6049-0.4556,0.8888-0.6791l0.5512-0.4432c1.3368-1.0985,2.3641-2.1259,3.0836-3.0853
	C30.1313,21.1582,30.0418,20.5314,29.5999,20.2z M54.9999,32h-8c-0.5522,0-1,0.4477-1,1v4.3902c0,3.1622,2.1963,5.9,5.2831,6.586
	c0.4404,0.0978,0.8932,0.1269,1.3425,0.086c2.4015-0.2183,4.1713-2.3421,3.953-4.7436l-0.5827-6.4091
	C55.949,32.3944,55.5172,32,54.9999,32z M47.9999,34h6.087l0.4998,5.4997c0.1183,1.3015-0.8408,2.4524-2.1423,2.5707
	c-0.2434,0.0222-0.4889,0.0064-0.7275-0.0466l-0.2151-0.053c-2.058-0.5583-3.5019-2.43-3.5019-4.5806V34z"/>
  </symbol>
  <symbol id="artwork-major">
    <path d="M36.1352,20.0092L36.0026,20c-0.2643-0.0007-0.5202,0.1035-0.7096,0.2929
	c-0.0615,0.0615-0.1247,0.1239-0.1896,0.1872l-0.4098,0.3911l-0.4503,0.4124c-0.1567,0.141-0.3202,0.2854-0.4902,0.433
	l-0.5297,0.4528l-0.5687,0.4716c-0.098,0.0801-0.1977,0.161-0.2989,0.2426l-0.6264,0.4985l-0.6641,0.5152
	c-0.2277,0.1745-0.4616,0.3516-0.7016,0.5313l-0.7384,0.5465c-0.1261,0.0922-0.2537,0.1851-0.3829,0.2786l-0.7928,0.5677
	l-0.8284,0.5807c-0.141,0.0979-0.2835,0.1962-0.4275,0.2951l-0.881,0.5988l-0.9156,0.6099l-0.9495,0.6201
	c-0.3221,0.2083-0.6499,0.4182-0.9831,0.6295l-0.1932,0.1219l-1.0962,0.675l-0.7617,0.4571l-1.4425,0.8485l-2.0163,1.1613
	l-2.3274,1.317l-3.108,1.7331l-3.00022,1.6539c-0.47114,0.2586-0.65369,0.8432-0.41335,1.3239l2.99997,6l0.0825,0.155
	c0.7008,1.244,2.3968,2.5862,5.1248,4.112l0.7035,0.3854c0.2416,0.1297,0.4905,0.2608,0.7466,0.3933l0.5741,0.2919l0.571,2.8552
	L19.75,52.8018c-1.8858,2.0015-1.1698,4.0435,1.8492,5.3644c0.5146,0.2251,1.1069,0.4404,1.7772,0.646l0.5936,0.1739
	c0.3065,0.0858,0.6272,0.1698,0.9624,0.2521l0.6895,0.1622l0.7279,0.1576l0.7664,0.1531c0.131,0.0251,0.2635,0.05,0.3977,0.0748
	l0.8242,0.1462l0.8629,0.1417l0.9016,0.1372l0.9403,0.1328l0.9791,0.1283l1.0179,0.124l1.0569,0.1196l1.0958,0.1153l1.1349,0.111
	l1.1832,0.1075L38.7,61.1497l1.1717,0.0907l1.154,0.0812l1.1359,0.072l1.1175,0.0627l1.0988,0.0535l1.0799,0.0444l1.0607,0.0353
	l1.0412,0.0264l1.0214,0.0175l1.0014,0.0086c0.1652,0.0007,0.3296,0.0011,0.4931,0.001l1.4484-0.0099
	c0.1583-0.0022,0.3158-0.0047,0.4723-0.0076l0.929-0.0217l0.9076-0.0302l0.8861-0.0386l0.8641-0.047
	c0.1422-0.0085,0.2835-0.0173,0.4238-0.0266l0.8308-0.0593l0.8082-0.0676l0.7853-0.0757l0.7622-0.0837l0.7388-0.0916
	c0.1211-0.016,0.2413-0.0322,0.3605-0.0488l0.7031-0.1035c0.0746-0.0116,0.1489-0.0234,0.2227-0.0352l0.1198-0.0195l0.6668-0.1151
	l0.6422-0.1229c0.5249-0.1055,1.024-0.2189,1.4964-0.3401l0.5541-0.1491c3.4278-0.9679,5.3023-2.3783,5.3023-4.1493
	c0-2.5614-2.3189-4.4937-6.6838-5.9487c-0.524-0.1746-1.0903,0.1085-1.2649,0.6325c-0.1747,0.5239,0.1085,1.0902,0.6324,1.2649
	c3.6351,1.2117,5.3163,2.6127,5.3163,4.0513c0,0.3116-0.4062,0.7805-1.3707,1.2863c-1.2217,0.6406-3.0998,1.195-5.5437,1.6023
	c-1.6987,0.2831-3.6237,0.4898-5.7605,0.6156l-1.086,0.0561c-2.0232,0.0905-4.2223,0.1122-6.5863,0.0618l-1.3057-0.0347
	l-1.3381-0.0491c-0.2256-0.0094-0.4527-0.0194-0.681-0.03l-1.3857-0.0711c-0.4671-0.0261-0.9395-0.0547-1.417-0.0858l-1.4479-0.1007
	c-0.2439-0.018-0.489-0.0367-0.7354-0.056l-1.4935-0.1233l-0.758-0.0673l-1.1226-0.1058l-1.0842-0.1099L33.33,58.6161
	l-0.9876-0.1198l-0.9489-0.1237l-0.9101-0.1276l-0.8713-0.1315l-0.8324-0.1353l-0.7935-0.1391l-0.7545-0.1428l-0.7154-0.1467
	L25.84,57.3993l-0.6372-0.154l-0.5979-0.1576c-0.8675-0.2393-1.6025-0.4907-2.204-0.7539c-0.0634-0.0277-0.1248-0.055-0.1845-0.082
	l-0.3357-0.1585c-1.3594-0.672-1.4862-1.1649-0.5909-2.0155l0.1288-0.1163l37.6693-3.9652c0.0434-0.0039,0.087-0.0107,0.1306-0.0204
	l0.0015-0.0003c0.0986-0.0221,0.191-0.0584,0.2754-0.1066c0.129-0.0735,0.2379-0.1738,0.3212-0.2917
	c0.0858-0.1212,0.1449-0.2617,0.17-0.4124c0.0183-0.1087,0.0186-0.222-0.0012-0.3358c-0.0051-0.0298-0.0116-0.059-0.0192-0.0878
	c-0.6229-2.502-0.6215-4.9967,0.004-7.4988c0.1339-0.5358-0.1918-1.0787-0.7276-1.2126c-0.5358-0.134-1.0787,0.1918-1.2127,0.7276
	c-0.6131,2.4525-0.6941,4.9106-0.243,7.3647l-35.985,3.7879l-0.4216-2.1081c8.2608-1.2363,16.8245-2.1712,25.691-2.8045
	c0.5509-0.0394,0.9656-0.5179,0.9262-1.0687c-0.0393-0.5509-0.5178-0.9656-1.0687-0.9263
	c-8.9517,0.6395-17.5988,1.5847-25.9412,2.836l-0.0026-0.0126c-0.0124-0.0705-0.0325-0.1403-0.0606-0.208
	c-0.0278-0.0675-0.0626-0.1308-0.1033-0.1892c-0.9692-1.4724-0.5265-3.3033,1.3966-5.4665l0.3172-0.3456
	c0.1099-0.1161,0.2239-0.2332,0.3421-0.3511l0.3669-0.3567l0.392-0.3621l0.4169-0.3677l0.4421-0.373l0.4672-0.3785l0.4924-0.3839
	c0.0842-0.0644,0.1694-0.1291,0.2557-0.194l0.5304-0.3919c0.0905-0.0658,0.1821-0.1318,0.2747-0.198l0.5684-0.3999l0.5939-0.4053
	l0.6194-0.4105c0.1054-0.0689,0.2118-0.138,0.3193-0.2073l0.6578-0.4184l0.6835-0.4236l0.7092-0.4289l0.735-0.434l0.7609-0.4391
	l0.7867-0.4443l0.8128-0.4494l0.8387-0.4545l0.8649-0.4596c9.5652-5.0343,17.9854-4.7677,22.8513-0.9095
	c0.4327,0.3432,1.0617,0.2705,1.4048-0.1622c0.3432-0.4328,0.2705-1.0618-0.1622-1.4049
	c-5.5275-4.3829-14.7974-4.6764-25.0254,0.7068l-0.8772,0.4661l-0.8535,0.4624l-0.8297,0.4588l-0.8058,0.4551l-0.782,0.4515
	l-0.7579,0.4479l-0.734,0.4443l-0.7099,0.4408l-0.6858,0.4372l-0.6616,0.4336c-0.1083,0.072-0.2155,0.1439-0.3218,0.2156
	l-0.6253,0.4284l-0.601,0.4249c-0.0982,0.0705-0.1953,0.1409-0.2914,0.2112l-0.5646,0.4197l-0.5401,0.4163
	c-4.3914,3.4488-6.2452,6.5432-5.4339,9.3322l-0.0421-0.023c-0.1028-0.0571-0.2039-0.1139-0.3033-0.1702l-0.5763-0.3337
	l-0.5359-0.3241l-0.4954-0.3145c-0.1583-0.1031-0.3099-0.2046-0.4546-0.3044l-0.4138-0.2941
	c-0.9179-0.6739-1.5012-1.261-1.7429-1.7443l-2.5704-5.1398l3.6521-2.0207l1.344-0.7514l2.8169-1.5938l1.7389-1.0018l1.5115-0.8881
	l1.0455-0.6288l0.9002-0.5562l0.7085-0.4502c0.1673-0.1071,0.3332-0.2139,0.4977-0.3203l0.9703-0.6338l0.9362-0.6239
	c0.3063-0.2062,0.6069-0.4106,0.9016-0.6132l0.8666-0.6016c0.1415-0.0993,0.2815-0.198,0.4201-0.2963l0.8132-0.5828
	c0.1325-0.096,0.2635-0.1915,0.393-0.2864l0.7587-0.5621l0.7217-0.5474l0.6843-0.5317c0.1109-0.0873,0.2203-0.1738,0.328-0.2597
	l0.6273-0.5068c0.1013-0.083,0.2011-0.1652,0.2992-0.2467l0.5691-0.4799l0.5299-0.461c0.34-0.3009,0.6534-0.5885,0.9397-0.862
	l0.0518-0.0514l1.3546,0.1761l1.8875,0.235c0.7068,0.0862,1.4277,0.172,2.1593,0.2569l2.2232,0.2512l1.1293,0.1222
	c2.2035,0.2349,4.3404,0.4411,6.3687,0.6105l1.1252,0.0911l1.6223,0.1203l1.0368,0.069l1.0002,0.0599l0.9629,0.0505l0.9249,0.0411
	l0.8861,0.0314l0.8467,0.0215l0.8066,0.0116c0.131,0.0011,0.2604,0.0017,0.388,0.002l0.745-0.0038l0.7031-0.0142
	c0.1136-0.0032,0.2255-0.0069,0.3356-0.011l0.6389-0.0302l0.3031-0.0191l-1.732,10.391l-1.7731,1.7749l-0.0832,0.0942
	c-0.3051,0.3923-0.2773,0.9595,0.0832,1.32c0.3905,0.3905,1.0236,0.3905,1.4142,0l2-2l0.0823-0.0933
	c0.1016-0.1306,0.1695-0.2849,0.197-0.4494l2-12c0.1112-0.6672-0.45831-1.25-1.12791-1.1543
	c-0.4323,0.0617-0.9328,0.1084-1.4976,0.1406l-0.5862,0.0274c-0.1012,0.0038-0.2041,0.0071-0.3088,0.0101l-0.6489,0.0131
	l-0.6896,0.0039l-0.7296-0.0055l-0.7686-0.0144l-0.8068-0.0235l-0.8442-0.0322l-0.8807-0.041L55.71,22.0112l-0.9682-0.0621
	L53.74,21.8787l-1.5637-0.1206l-1.5521-0.1313c-1.0238-0.09-2.0732-0.1889-3.143-0.2956l-2.1652-0.2235
	c-1.5035-0.1603-2.9849-0.3282-4.4172-0.4987l-2.1084-0.2569l-0.833-0.1049L36.1352,20.0092z"/>
  </symbol>
  <use class="fr-artwork-decorative" href="#artwork-decorative"/>
  <use class="fr-artwork-minor" href="#artwork-minor"/>
  <use class="fr-artwork-major" href="#artwork-major"/>
</svg>
