<svg width="80px" height="80px" viewBox="0 0 80 80" xmlns="http://www.w3.org/2000/svg">
  <style>
		.fr-artwork-decorative {
			fill: #ECECFF;
		}
		.fr-artwork-minor {
			fill: #E1000F;
		}
		.fr-artwork-major {
			fill: #000091;
		}
	</style>
  <symbol id="artwork-decorative">
    <path d="M74 36c-.5514 0-1-.4486-1-1s.4486-1 1-1 1 .4486 1 1-.4486 1-1 1Zm-6 38c-.5514 0-1-.4486-1-1s.4486-1 1-1 1 .4486 1 1-.4486 1-1 1ZM9 72c-.5514 0-1-.4486-1-1s.4486-1 1-1 1 .4486 1 1-.4486 1-1 1ZM55 9c-.5514 0-1-.4486-1-1 0-.55145.4486-1 1-1s1 .44855 1 1c0 .5514-.4486 1-1 1ZM16 6c-.5514 0-1-.4486-1-1 0-.55145.4486-1 1-1s1 .44855 1 1c0 .5514-.4486 1-1 1Z"/>
  </symbol>
  <symbol id="artwork-minor">
    <path d="M23 37.2c-1.1046 0-2 .8954-2 2s.8954 2 2 2 2-.8954 2-2-.8954-2-2-2Zm-4 2c0-2.2091 1.7909-4 4-4 2.2091 0 4 1.7909 4 4 0 2.2091-1.7909 4-4 4-2.2091 0-4-1.7909-4-4Zm39.3545-14.734c.2675-.4234.8069-.5837 1.2622-.3751l2.4 1.1c.4339.1989.6668.6768.556 1.1411L61.6 26.1c.9727.232.9727.2319.9727.232l-.0082.0342-.0233.0958c-.0205.084-.0509.2076-.0911.3679-.0802.3207-.1992.7881-.3551 1.3785-.3117 1.1806-.7709 2.8537-1.362 4.8284-1.1809 3.9448-2.8942 9.1123-5.0168 13.964-.2214.506-.811.7367-1.317.5154-.506-.2214-.7367-.811-.5154-1.317 2.0774-4.7483 3.7641-9.8308 4.9332-13.736.5839-1.9503 1.0372-3.6022 1.3443-4.7653.1076-.4077.1972-.7552.2682-1.0344l-.8444-.3869c-.1467.2391-.3256.5324-.5321.8745-.6242 1.0341-1.5007 2.5136-2.5079 4.2918-2.0143 3.5562-4.5429 8.2921-6.6226 13.0433l-.594 1.4852c-.2051.5128-.7871.7622-1.2999.5571-.5128-.2051-.7622-.7871-.5571-1.2999l.6-1.5c.004-.0099.0081-.0197.0123-.0294 2.1192-4.8439 4.6875-9.6519 6.7211-13.2421 1.0178-1.7968 1.9038-3.2923 2.5358-4.3395.3161-.5236.5688-.9353.7428-1.2167.087-.1407.1544-.2488.2002-.322l.0523-.0835.0185-.0294c.0001-.0001 0 0 .8455.534l-.8455-.534ZM47.3893 61.5279c.4816.2702.653.8797.3828 1.3614-1.1535 2.0562-2.2305 3.8304-3.1481 5.0496-.4536.6025-.9081 1.124-1.3493 1.4741-.3648.2895-1.0746.7411-1.8534.4127-.6637-.2632-.9033-.884-.9886-1.3193-.09-.4593-.0742-.9998-.0144-1.5517.1214-1.1197.4646-2.609.915-4.3106.1413-.5339.6887-.8521 1.2226-.7108.5339.1413.8521.6887.7108 1.2226-.4496 1.6984-.7564 3.0591-.86 4.0144-.0141.1295-.0237.246-.0296.3503.1853-.1969.4019-.4563.6489-.7845.8324-1.1058 1.8554-2.7816 3.0019-4.8253.2702-.4817.8797-.6531 1.3614-.3829ZM41.86 67.9595c.0003-.0009.0081-.0051.0226-.0097-.0156.0084-.0229.0107-.0226.0097Z M52.3853 35.7958c.2232-.5051.8137-.7337 1.3189-.5105l4.3 1.9c.5051.2232.7337.8137.5105 1.3189-.2232.5051-.8137.7337-1.3189.5105l-4.3-1.9c-.5051-.2232-.7337-.8137-.5105-1.3189Zm15.4056-24.9304L66.8 11l-.5743-.8187c.2857-.20033.6551-.23733.9748-.0976.3197.1397.5434.436.5904.7817Zm-.1679 11.3199c.3711-.8479.531-2.0044.5972-3.1543.0686-1.1901.0419-2.4961-.0216-3.6963-.0637-1.2035-.1654-2.3185-.251-3.1316-.0428-.407-.0817-.7396-.1101-.9712-.0141-.1158-.0257-.2065-.0337-.2686l-.0094-.0715-.0025-.019-.001-.0074c0-.0001 0 0-.9909.1346-.5743-.8187-.5742-.8187-.5743-.8187l-.0062.0044-.0157.0111-.0591.0419c-.0512.0364-.1258.0898-.2206.1583-.1896.137-.4604.3351-.7885.5814-.6552.4918-1.5425 1.1786-2.4669 1.9564-.9219.7756-1.8951 1.6538-2.7152 2.5279-.7989.8515-1.5361 1.7854-1.8843 2.6717-.6193 1.5765-.7269 3.192-.5889 4.5307.1335 1.2949.5147 2.4859 1.0303 3.1488.3391.436.9674.5145 1.4033.1755.436-.3391.5145-.9674.1754-1.4033-.1843-.2371-.5031-.9961-.6196-2.1261-.112-1.0863-.0196-2.3709.461-3.5943.2019-.5138.7147-1.2174 1.4814-2.0346.7455-.7946 1.6535-1.6165 2.5442-2.3659.7402-.6228 1.4584-1.1872 2.045-1.634.0723.7336.149 1.6435.2001 2.6091.0615 1.1623.0848 2.3876.0221 3.4756-.0644 1.1187-.215 1.9777-.4373 2.478-.006.0133-.0116.0268-.017.0405-.4696 1.1954-1.3138 2.1575-2.1789 2.823-.4305.3311-.8506.5766-1.207.7356-.3782.1687-.6105.207-.6833.207-.5523 0-1 .4477-1 1s.4477 1 1 1c.4772 0 1.0074-.1617 1.498-.3805.5123-.2285 1.0671-.558 1.6117-.9769 1.0805-.8311 2.1816-2.0623 2.8133-3.6573Z"/>
  </symbol>
  <symbol id="artwork-major">
    <path d="M61.0882 39.1088c.3265-.4455.9523-.5418 1.3977-.2153 1.7962 1.3168 3.2158 3.3674 2.9907 6.3067-.3367 7.4763-6.3954 11.6593-14.4632 13.7293l-.0057.0014c-4.2538 1.0649-9.3237.9529-14.1191.0995-4.7967-.8536-9.4147-2.466-12.7724-4.4853-4.154-2.4761-9.136-6.5019-11.5405-12.3266-.2108-.5105.0322-1.0952.5427-1.3059.5105-.2108 1.0952.0322 1.3059.5427 2.1663 5.2476 6.7232 8.9921 10.7175 11.3727l.0034.0021c3.1014 1.8655 7.4759 3.4094 12.0938 4.2312 4.6192.822 9.3861.9044 13.2804-.0698 7.824-2.0082 12.692-5.7851 12.9599-11.8959.0003-.006.0006-.012.001-.018.0003-.0055.0007-.0111.0011-.0167.1655-2.1021-.7979-3.5427-2.178-4.5544-.4454-.3265-.5418-.9523-.2152-1.3977ZM13.3394 50.4493c.4146-.3649 1.0465-.3245 1.4113.0901 2.1236 2.4131 4.744 4.5531 7.8793 6.5126.0083.0052.0166.0105.0247.0159 1.126.7507 2.661 1.5218 4.3261 2.2074.5106.2103.7542.7948.5439 1.3054-.2103.5107-.7948.7543-1.3054.544-1.7293-.7121-3.3892-1.5379-4.6616-2.3844-3.2594-2.0385-6.0348-4.296-8.3084-6.8797-.3649-.4146-.3245-1.0465.0901-1.4113ZM12 35.2c.5523 0 1 .4477 1 1l.0001 1c0 .5523-.4477 1-1 1s-1-.4477-1-1L11 36.2c0-.5523.4477-1 1-1Zm-.995-3.3537c1.2216-12.2159 11.142-20.3033 23.3526-19.5989 5.3457.3114 10.077 2.2295 13.3627 4.5857 1.6411 1.1769 2.9567 2.4883 3.8032 3.8024.8327 1.2926 1.2955 2.7274.9436 4.0648l-.0035.0132c-.3631 1.3073-1.3728 2.0372-2.3128 2.4484-.9305.4071-1.9465.5719-2.5927.6713-.0517.0086-.108.0177-.1684.0274-.701.1127-1.953.3141-3.0229.9184-.5661.3198-1.031.7271-1.3303 1.2497-.2907.5077-.4683 1.1984-.3466 2.1743.1505.9136.6526 1.589 1.4619 2.1422.8431.5763 1.9838.9916 3.2992 1.3326.5346.1386.8556.6843.717 1.2189-.1386.5347-.6843.8557-1.2189.7171-1.3847-.359-2.794-.8437-3.9259-1.6175-1.1612-.7937-2.058-1.9139-2.3106-3.4925-.0017-.0105-.0032-.0209-.0045-.0314-.1744-1.3655.0602-2.5075.5929-3.4376.5257-.9181 1.2984-1.5545 2.0822-1.9972 1.4048-.7935 3.0055-1.0448 3.688-1.1519.0629-.0099.118-.0186.1644-.0263l.0123-.0021c.6542-.1006 1.4347-.236 2.1013-.5277.6571-.2874 1.0469-.6554 1.1854-1.1448.1452-.5625-.0059-1.4004-.6924-2.4662-.6754-1.0484-1.7911-2.1871-3.2875-3.2602-2.9892-2.1437-7.3581-3.9256-12.3123-4.2143m0 0c-11.187-.6451-20.137 6.698-21.2473 17.8012-.055.5495-.545.9505-1.0946.8955-.5495-.0549-.9505-.545-.8955-1.0945 M34 20.2c-1.1046 0-2 .8954-2 2s.8954 2 2 2 2-.8954 2-2-.8954-2-2-2Zm-4 2c0-2.2091 1.7909-4 4-4 2.2092 0 4 1.7909 4 4 0 2.2091-1.7908 4-4 4-2.2091 0-4-1.7909-4-4Zm-7 3c-1.1046 0-2 .8954-2 2s.8954 2 2 2 2-.8954 2-2-.8954-2-2-2Zm-4 2c0-2.2091 1.7909-4 4-4 2.2092 0 4 1.7909 4 4 0 2.2091-1.7908 4-4 4-2.2091 0-4-1.7909-4-4Zm13.5 18c-1.1046 0-2 .8954-2 2s.8954 2 2 2 2-.8954 2-2-.8954-2-2-2Zm-4 2c0-2.2091 1.7909-4 4-4 2.2092 0 4 1.7909 4 4 0 2.2091-1.7908 4-4 4-2.2091 0-4-1.7909-4-4Zm16.8133-1.9701c.5358.1339.8616.6768.7276 1.2126-.1356.5425.0606 1.278.8216 2.0601.7487.7695 1.9469 1.4626 3.4439 1.8255 1.4987.3634 2.9094.3055 3.9596-.0305 1.073-.3434 1.6013-.9066 1.7346-1.4401.134-.5358.6769-.8616 1.2127-.7276.5358.1339.8616.6768.7276 1.2126-.3666 1.4665-1.6383 2.4033-3.0653 2.8599-1.4498.464-3.2391.5061-5.0404.0694-1.8031-.4371-3.3548-1.294-4.4061-2.3745-1.039-1.0678-1.6928-2.4823-1.3285-3.9398.134-.5358.6769-.8616 1.2127-.7276Z"/>
  </symbol>
  <use class="fr-artwork-decorative" href="#artwork-decorative"/>
  <use class="fr-artwork-minor" href="#artwork-minor"/>
  <use class="fr-artwork-major" href="#artwork-major"/>
</svg>
