<svg width="80px" height="80px" viewBox="0 0 80 80" xmlns="http://www.w3.org/2000/svg">
  <style>
    .fr-artwork-decorative {
      fill: #ECECFF;
    }
    .fr-artwork-minor {
      fill: #E1000F;
    }
    .fr-artwork-major {
      fill: #000091;
    }
  </style>
  <symbol id="artwork-decorative">
    <path d="M7 74a1 1 0 1 0 0-2 1 1 0 0 0 0 2ZM70 8a1 1 0 1 0 0-2 1 1 0 0 0 0 2ZM13 12a1 1 0 1 0 0-2 1 1 0 0 0 0 2ZM73 67a1 1 0 1 0 0-2 1 1 0 0 0 0 2Z"/>
  </symbol>
  <symbol id="artwork-minor">
    <path d="M40 37.5a1 1 0 0 1 1 1v27a1 1 0 1 1-2 0v-27a1 1 0 0 1 1-1ZM36 45a1 1 0 0 1 1 1v12a1 1 0 1 1-2 0V46a1 1 0 0 1 1-1ZM32 41a1 1 0 0 1 1 1v20a1 1 0 1 1-2 0V42a1 1 0 0 1 1-1ZM28 45a1 1 0 0 1 1 1v12a1 1 0 1 1-2 0V46a1 1 0 0 1 1-1ZM44 45a1 1 0 0 1 1 1v12a1 1 0 1 1-2 0V46a1 1 0 0 1 1-1ZM48 41a1 1 0 0 1 1 1v20a1 1 0 1 1-2 0V42a1 1 0 0 1 1-1ZM52 45a1 1 0 0 1 1 1v12a1 1 0 1 1-2 0V46a1 1 0 0 1 1-1Z"/>
  </symbol>
  <symbol id="artwork-major">
    <path d="M40.12 15c-10.534 0-19.996 6.172-24.005 15.592l-.011.027-.014.026a.91.91 0 0 0 .471 1.227l.04.016.037.019c.442.222 1.01.006 1.202-.476l.005-.011.005-.012C21.587 22.627 30.3 17 40.02 17c9.722 0 18.434 5.627 22.172 14.408.151.356.5.592.867.592.19 0 .212-.013.237-.03l.087-.058.097-.04c.388-.156.666-.709.443-1.29C59.807 21.152 50.635 15 40.12 15ZM14.286 29.784C18.624 19.618 28.817 13 40.121 13c11.326 0 21.216 6.64 25.643 16.8l.007.016.006.015c.551 1.387.066 3.183-1.458 3.858-.521.312-1.029.311-1.239.311h-.02c-1.22 0-2.263-.764-2.707-1.808C56.94 24.173 48.969 19 40.02 19c-8.944 0-16.912 5.169-20.327 13.182-.603 1.497-2.387 2.274-3.919 1.53-1.48-.622-2.225-2.408-1.49-3.928Z M16.217 32.024a1 1 0 0 1 .76 1.193C16.176 36.807 16 39.184 16 43a1 1 0 1 1-2 0c0-3.92.186-6.449 1.024-10.217a1 1 0 0 1 1.193-.76ZM63.783 32.024a1 1 0 0 1 1.193.759C65.814 36.55 66 39.08 66 43a1 1 0 1 1-2 0c0-3.816-.178-6.193-.976-9.783a1 1 0 0 1 .759-1.193Z M18.946 42.175a1 1 0 0 1-.62 1.27l-.651-1.89a1 1 0 0 1 1.27.62Zm-2.342 1.87c-.923.324-1.887.67-2.215.808-.724.305-1.389.688-1.389 1.636v9.92c0 .982.724 1.458 1.389 1.738.328.138 1.292.484 2.215.809a275.34 275.34 0 0 0 1.58.55l.14.048-.65 1.892-.142-.05-.382-.132c-.32-.11-.753-.261-1.209-.422-.895-.314-1.93-.684-2.33-.852-.79-.334-2.611-1.29-2.611-3.58v-9.921c0-2.325 1.88-3.17 2.611-3.478.4-.169 1.435-.54 2.33-.854.456-.16.89-.31 1.209-.421l.382-.132.143-.05.65 1.892-.14.048a275.003 275.003 0 0 0-1.58.55Zm2.342 16.78a1 1 0 0 1-1.271.62l.65-1.89a1 1 0 0 1 .62 1.27Z M19.452 41c-.204 0-.452.225-.452.48v4.242a1 1 0 1 1-2 0V41.48c0-1.323 1.107-2.48 2.452-2.48h.096C20.893 39 22 40.157 22 41.48v19.04c0 1.323-1.107 2.48-2.452 2.48h-.096C18.107 63 17 61.843 17 60.52V49.668a1 1 0 1 1 2 0V60.52c0 .255.248.48.452.48h.096c.204 0 .452-.225.452-.48V41.48c0-.255-.248-.48-.452-.48h-.096ZM61.055 42.173a1 1 0 0 1 1.272-.618l-.654 1.89a1 1 0 0 1-.618-1.272ZM67 56.46V46.51c0-.96-.67-1.345-1.39-1.65-.329-.14-1.292-.487-2.216-.814a285.678 285.678 0 0 0-1.58-.553l-.14-.049.653-1.89.143.05a221.48 221.48 0 0 1 1.59.556c.895.317 1.931.69 2.33.858.735.312 2.61 1.161 2.61 3.492v10.005l-.001.028c-.125 2.258-1.812 3.099-2.608 3.437-.4.169-1.436.541-2.33.858a285.218 285.218 0 0 1-1.591.556l-.143.05a1 1 0 0 1-.654-1.89l.141-.049a255.73 255.73 0 0 0 1.58-.553c.924-.327 1.887-.674 2.215-.814.653-.276 1.324-.666 1.391-1.68Z M58 41.48c0-1.323 1.107-2.48 2.452-2.48h.096C61.893 39 63 40.157 63 41.48v4.242a1 1 0 1 1-2 0V41.48c0-.255-.248-.48-.452-.48h-.096c-.204 0-.452.225-.452.48v19.04c0 .255.248.48.452.48h.096c.204 0 .452-.225.452-.48V49.668a1 1 0 1 1 2 0V60.52c0 1.323-1.107 2.48-2.452 2.48h-.096C59.107 63 58 61.843 58 60.52V41.48Z"/>
  </symbol>
  <use class="fr-artwork-decorative" href="#artwork-decorative"/>
  <use class="fr-artwork-minor" href="#artwork-minor"/>
  <use class="fr-artwork-major" href="#artwork-major"/>
</svg>
