<svg width="80px" height="80px" viewBox="0 0 80 80" xmlns="http://www.w3.org/2000/svg">
 	<style>
		.fr-artwork-decorative {
			fill: #ECECFF;
		}
		.fr-artwork-minor {
			fill: #E1000F;
		}
		.fr-artwork-major {
			fill: #000091;
		}
	</style>
	<symbol id="artwork-decorative">
    <path d="M59,76c-0.5514,0-1-0.4486-1-1s0.4486-1,1-1s1,0.4486,1,1S59.5514,76,59,76z M67,8c-0.5514,0-1-0.4486-1-1
	c0-0.55145,0.4486-1,1-1s1,0.44855,1,1C68,7.5514,67.5514,8,67,8z M8,14c-0.5514,0-1-0.4486-1-1s0.4486-1,1-1s1,0.4486,1,1
	S8.5514,14,8,14z"/>
  </symbol>
  <symbol id="artwork-minor">
    <path d="M31,32c0-0.5523-0.4477-1-1-1s-1,0.4477-1,1s0.4477,1,1,1S31,32.5523,31,32z M25.684,33.2703
	c-0.4123-0.3881-1.0791-0.3583-1.4522,0.0895l-5,6l-0.0679,0.0908C18.7319,40.099,19.1907,41,20,41h6l0.1166-0.0067
	C26.614,40.9355,27,40.5128,27,40l-0.0067-0.1166C26.9355,39.386,26.5128,39,26,39h-3.865L25,35.562l1.7596,2.1115l0.0863,0.0914
	c0.363,0.3393,0.9304,0.363,1.3221,0.0367c0.4243-0.3536,0.4816-0.9842,0.128-1.4084l-2.5278-3.0334L25.684,33.2703z
	 M34.5547,63.1679C34.3904,63.0584,34.1974,63,34,63H14l-0.1166,0.0067C13.386,63.0645,13,63.4872,13,64l0.0067,0.1166
	C13.0645,64.614,13.4872,65,14,65h19.705l0.1001,0.0652C35.8457,66.3489,37.9148,67,40,67l0.3678-0.0068
	c1.9608-0.072,3.9065-0.7198,5.8271-1.928L46.294,65H66l0.1166-0.0067C66.614,64.9355,67,64.5128,67,64c0-0.5523-0.4477-1-1-1H46
	l-0.1177,0.007c-0.1558,0.0184-0.3056,0.0733-0.437,0.1609C43.6023,64.3966,41.7921,65,40,65S36.3977,64.3966,34.5547,63.1679z
	 M31.2929,37.2929c0.3605-0.3605,0.9277-0.3882,1.32-0.0832l0.0942,0.0832l2,2c0.3905,0.3905,0.3905,1.0237,0,1.4142
	c-0.3605,0.3605-0.9277,0.3882-1.32,0.0832l-0.0942-0.0832L32,39.415l-1.2929,1.2921c-0.3605,0.3605-0.9277,0.3882-1.32,0.0832
	l-0.0942-0.0832c-0.3605-0.3605-0.3882-0.9277-0.0832-1.32l0.0832-0.0942L31.2929,37.2929z"/>
  </symbol>
  <symbol id="artwork-major">
    <path d="M59,24c0,0.55231-0.44769,1-1,1c-0.70807,0-1.5199,0.04993-2.43481,0.14972l-0.70551,0.08417
	c-0.24158,0.03119-0.48956,0.06549-0.74408,0.10291l-0.78259,0.1217c-0.13361,0.02191-0.2688,0.04449-0.4057,0.06793
	l-0.84021,0.14984l-0.8786,0.16864l-0.91687,0.1875l-0.95502,0.20618c-0.16241,0.03589-0.32642,0.07263-0.49188,0.11011
	l-1.01233,0.2345l-1.05042,0.2533c-0.17828,0.0437-0.35809,0.08832-0.53949,0.13361
	c-0.53577,0.13403-1.07867-0.19177-1.21259-0.7276c-0.13403-0.53577,0.19177-1.07867,0.7276-1.21259l1.09937-0.27008l1.0614-0.25085
	c0.17371-0.04016,0.34595-0.07947,0.51642-0.1181l1.00452-0.22198l0.96649-0.2027l0.92859-0.18341l0.89093-0.16418
	c0.43597-0.07727,0.85791-0.14728,1.26556-0.21008l0.79681-0.11603C55.71381,23.0976,56.95068,23,58,23
	C58.55231,23,59,23.44769,59,24z M58,29c-1.04932,0-2.28619,0.0976-3.7124,0.29248l-0.79681,0.11603
	c-0.40765,0.06281-0.82959,0.13281-1.26556,0.21008l-0.89093,0.16418l-0.92859,0.18341l-0.96649,0.2027l-1.00452,0.22198
	c-0.17047,0.03864-0.34271,0.07794-0.51642,0.1181l-1.0614,0.25085l-1.09937,0.27008
	c-0.53583,0.13391-0.86163,0.67682-0.7276,1.21259c0.13391,0.53583,0.67682,0.86163,1.21259,0.7276
	c0.1814-0.04529,0.36121-0.0899,0.53949-0.13361l1.05042-0.2533l1.01233-0.2345c0.16547-0.03748,0.32947-0.07422,0.49188-0.11011
	l0.95502-0.20618l0.91687-0.1875l0.8786-0.16864l0.84021-0.14984c0.1369-0.02344,0.27209-0.04602,0.4057-0.06793l0.78259-0.1217
	c0.25452-0.03741,0.5025-0.07172,0.74408-0.10291l0.70551-0.08417C56.4801,31.04993,57.29193,31,58,31c0.55231,0,1-0.44769,1-1
	S58.55231,29,58,29z M58,35c-1.04932,0-2.28619,0.0976-3.7124,0.29248l-0.79681,0.11603
	c-0.40765,0.06281-0.82959,0.13281-1.26556,0.21008l-0.89093,0.16418l-0.92859,0.18341l-0.96649,0.2027l-1.00452,0.22198
	c-0.17047,0.03864-0.34271,0.07794-0.51642,0.1181l-1.0614,0.25085l-1.09937,0.27008
	c-0.53583,0.13391-0.86163,0.67682-0.7276,1.21259c0.13391,0.53583,0.67682,0.86163,1.21259,0.7276
	c0.1814-0.04529,0.36121-0.0899,0.53949-0.13361l1.05042-0.2533l1.01233-0.2345c0.16547-0.03748,0.32947-0.07422,0.49188-0.11011
	l0.95502-0.20618l0.91687-0.1875l0.8786-0.16864l0.84021-0.14984c0.1369-0.02344,0.27209-0.04602,0.4057-0.06793l0.78259-0.1217
	c0.25452-0.03741,0.5025-0.07172,0.74408-0.10291l0.70551-0.08429C56.4801,37.04993,57.29193,37,58,37c0.55231,0,1-0.44769,1-1
	S58.55231,35,58,35z M70,45l-0.11658,0.00671C69.38599,45.06451,69,45.48718,69,46v13h-7l-0.11658,0.00671
	C61.38599,59.06451,61,59.48718,61,60c0,0.55231,0.44769,1,1,1h8l0.11658-0.00671C70.61401,60.93549,71,60.51282,71,60V46
	l-0.00671-0.11658C70.93549,45.38599,70.51282,45,70,45z M10,51c0.55231,0,1-0.44769,1-1V32l-0.00671-0.11658
	C10.93549,31.38599,10.51282,31,10,31c-0.55231,0-1,0.44769-1,1v18l0.00671,0.11658C9.06451,50.61401,9.48718,51,10,51z M71,21v19
	l-0.00671,0.11658C70.93549,40.61401,70.51288,41,70,41l-0.11658-0.00671C69.38611,40.93549,69,40.51282,69,40l0.00098-18.65002
	L67,18.84979V56c0,0.55231-0.44769,1-1,1c-0.22632,0-0.45142,0.00018-0.67511,0.00061l-1.97748,0.00922l-1.90582,0.02008
	l-1.83411,0.03101l-1.76239,0.04199l-1.13489,0.034l-1.10303,0.03882l-1.07098,0.0437l-1.54651,0.07446l-1.47437,0.08539
	l-0.94281,0.06293l-0.91071,0.06763l-0.8786,0.07245l-0.8465,0.07721l-0.81433,0.08203l-0.78204,0.08667l-0.74994,0.09149
	l-0.71771,0.09631L44.18719,58.117l-0.65308,0.10571l-0.05963,0.01007c0.2533,0.18298,0.50494,0.38593,0.7547,0.6084L44.40198,59H54
	c0.51282,0,0.93549,0.38599,0.99329,0.88342L55,60c0,0.51282-0.38599,0.93549-0.88342,0.99329L54,61H44
	c-0.2652,0-0.51959-0.10541-0.70709-0.29291c-1.14789-1.14789-2.23102-1.6955-3.26001-1.70691
	c-0.0097,0.00031-0.01941,0.00049-0.02911,0.00049h-0.0036c-0.0047,0-0.00928,0-0.01398-0.00006
	c-0.00641-0.00012-0.01282-0.00018-0.01923-0.00043c-1.02899,0.01154-2.11206,0.55914-3.25989,1.70691
	c-0.15631,0.15631-0.35901,0.25549-0.57568,0.28418L36,61H10c-0.51282,0-0.93549-0.38599-0.99329-0.88342L9,60v-4
	c0-0.55231,0.44769-1,1-1c0.51282,0,0.93549,0.38599,0.99329,0.88342L11,56v3h24.59698l0.17383-0.15881
	c0.24982-0.22247,0.5014-0.42542,0.7547-0.6084l-0.05963-0.01007L35.81281,58.117l-0.68549-0.10101l-0.71771-0.09631
	l-0.74988-0.09149l-0.7821-0.08667l-0.81433-0.08203l-0.8465-0.07721l-0.8786-0.07245l-0.91071-0.06763l-0.94281-0.06293
	l-1.47437-0.08539l-1.54651-0.07446l-1.07098-0.0437l-1.10303-0.03882l-1.13489-0.034l-1.76239-0.04199l-1.83411-0.03101
	l-1.90582-0.02008l-1.97748-0.00922C14.45142,57.00018,14.22638,57,14,57c-0.55231,0-1-0.44769-1-1V18.84979l-2.00098,2.50018L11,26
	c0,0.51282-0.38599,0.93549-0.88342,0.99329L10,27c-0.51282,0-0.93549-0.38599-0.99329-0.88342L9,26v-5
	c0-0.1817,0.04944-0.35901,0.14185-0.51343l0.07727-0.11127l3.98181-4.97723c0.17035-0.2262,0.435-0.3783,0.73785-0.39685
	C24.6889,14.34229,33.37683,15.62158,40,18.86542c6.62323-3.24384,15.3111-4.52313,26.06122-3.8642
	c0.30249,0.01855,0.56689,0.17029,0.7373,0.39606l3.98236,4.97803l0.07733,0.11127C70.95062,20.64099,71,20.8183,71,21z
	 M39,20.60303l-0.31061-0.14801c-5.93561-2.78589-13.67438-3.97064-23.21857-3.53314L15,16.94501v38.05597l1.04572,0.0047
	l1.99896,0.01733l1.92365,0.02899l1.2406,0.02588l1.20709,0.03113l1.74799,0.0564l1.1236,0.04407l1.09033,0.04944l1.05688,0.05457
	l1.0235,0.05994l0.9903,0.06519l0.95697,0.07037l0.92383,0.07581l0.8905,0.08099l0.85742,0.0863l0.8241,0.09161l0.79095,0.09692
	l0.75793,0.10217c0.1236,0.01752,0.24567,0.03522,0.36646,0.05322l0.70831,0.11017l0.67511,0.1156l0.64209,0.12091l0.60913,0.12628
	L39,56.69397V20.60303z M65,16.94501l-0.47083-0.02313c-9.54419-0.4375-17.28296,0.74725-23.21857,3.53314L41,20.60303v36.09094
	l0.54858-0.125l0.60913-0.12628l0.64209-0.12091l0.67511-0.1156l0.70831-0.11017c0.12079-0.01801,0.24286-0.03571,0.36646-0.05322
	l0.75793-0.10217l0.79095-0.09692l0.82416-0.09161l0.85736-0.0863l0.8905-0.08099l0.92383-0.07581l0.95697-0.07037l0.9903-0.06519
	l1.0235-0.05994l1.05695-0.05457l1.09027-0.04944l1.1236-0.04407l1.74799-0.0564l1.20709-0.03113l1.2406-0.02588l1.92365-0.02899
	l1.99896-0.01733L65,55.00098V16.94501z"/>
  </symbol>
  <use class="fr-artwork-decorative" href="#artwork-decorative"/>
  <use class="fr-artwork-minor" href="#artwork-minor"/>
  <use class="fr-artwork-major" href="#artwork-major"/>
</svg>
