<svg width="80px" height="80px" viewBox="0 0 80 80" xmlns="http://www.w3.org/2000/svg">
  <style>
    .fr-artwork-decorative {
      fill: #ECECFF;
    }
    .fr-artwork-minor {
      fill: #E1000F;
    }
    .fr-artwork-major {
      fill: #000091;
    }
  </style>
  <symbol id="artwork-decorative">
    <path d="M59 76a1.001 1.001 0 0 1 0-2 1.001 1.001 0 0 1 0 2ZM67 8a1.001 1.001 0 0 1 0-2 1.001 1.001 0 0 1 0 2ZM8 14a1.001 1.001 0 0 1 0-2 1.001 1.001 0 0 1 0 2Z"/>
  </symbol>
  <symbol id="artwork-minor">
    <path d="M34.555 63.168A1 1 0 0 0 34 63H14l-.117.007A1 1 0 0 0 13 64l.007.117A1 1 0 0 0 14 65h19.705l.1.065C35.845 66.35 37.915 67 40 67l.368-.007c1.96-.072 3.906-.72 5.827-1.928l.099-.065H66l.117-.007A1 1 0 0 0 66 63H46l-.118.007a.999.999 0 0 0-.437.16C43.602 64.398 41.792 65 40 65c-1.792 0-3.602-.603-5.445-1.832ZM46 27a1 1 0 1 0-2 0 1 1 0 0 0 2 0ZM46 33a1 1 0 1 0-2 0 1 1 0 0 0 2 0ZM46 39a1 1 0 1 0-2 0 1 1 0 0 0 2 0ZM46 45a1 1 0 1 0-2 0 1 1 0 0 0 2 0ZM46 51a1 1 0 1 0-2 0 1 1 0 0 0 2 0ZM20 24a1 1 0 1 0-2 0 1 1 0 0 0 2 0ZM20 30a1 1 0 1 0-2 0 1 1 0 0 0 2 0ZM20 36a1 1 0 1 0-2 0 1 1 0 0 0 2 0ZM20 42a1 1 0 1 0-2 0 1 1 0 0 0 2 0ZM20 48a1 1 0 1 0-2 0 1 1 0 0 0 2 0Z"/>
  </symbol>
  <symbol id="artwork-major">
    <path fill-rule="evenodd" clip-rule="evenodd" d="M36.707 60.707c1.148-1.148 2.231-1.695 3.26-1.707A1.23 1.23 0 0 0 40 59h.033c1.029.012 2.112.56 3.26 1.707A1 1 0 0 0 44 61h10l.117-.007A1 1 0 0 0 55 60l-.007-.117A1 1 0 0 0 54 59h-9.598l-.173-.159a9.51 9.51 0 0 0-.755-.608l.06-.01.653-.106.686-.101.717-.096.75-.092.782-.087.815-.081.846-.078.879-.072.91-.068.943-.063 1.475-.085 1.546-.075 1.071-.043 1.103-.04 1.135-.033 1.763-.042 1.834-.031 1.905-.02 1.978-.01H66a1 1 0 0 0 1-1V18.85l2.001 2.5L69 40a1 1 0 0 0 .883.993L70 41a1 1 0 0 0 .993-.883L71 40V21a1 1 0 0 0-.142-.513l-.077-.112-3.983-4.978a.999.999 0 0 0-.737-.396c-10.75-.659-19.438.62-26.061 3.864-6.623-3.243-15.311-4.523-26.061-3.864a.999.999 0 0 0-.738.397l-3.982 4.977-.077.112A1 1 0 0 0 9 21v5l.007.117A1 1 0 0 0 10 27l.117-.007A1 1 0 0 0 11 26l-.001-4.65L13 18.85V56a1 1 0 0 0 1 1h.675l1.978.01 1.905.02 1.834.03 1.763.043 1.135.034 1.103.039 1.07.043 1.547.075 1.475.085.942.063.911.068.879.072.846.078.815.082.782.086.75.092.717.096.686.101.653.106.06.01a9.51 9.51 0 0 0-.755.608l-.174.159H11v-3l-.007-.117A1 1 0 0 0 9 56v4l.007.117A1 1 0 0 0 10 61h26l.131-.009a1 1 0 0 0 .576-.284ZM39 56.694V20.603l-.31-.148c-5.936-2.786-13.675-3.97-23.22-3.533l-.47.023v38.056l1.046.005 1.999.017 1.923.029 1.24.026 1.208.031 1.748.056 1.124.044 1.09.05 1.057.054 1.023.06.99.066.958.07.923.076.89.08.858.087.824.092.791.097.758.102.367.053.708.11.675.116.642.12.61.127.548.125Zm2.549-.125-.549.125V20.603l.31-.148c5.936-2.786 13.675-3.97 23.22-3.533l.47.023v38.056l-1.046.005-1.999.017-1.923.029-1.24.026-1.208.031-1.748.056-1.124.044-1.09.05-1.057.054-1.023.06-.99.066-.958.07-.923.076-.89.08-.858.087-.824.092-.791.097-.758.102-.367.053-.708.11-.675.116-.642.12-.61.127Z"/>
    <path d="M70.993 45.883A1 1 0 0 0 70 45l-.117.007A1 1 0 0 0 69 46v13h-7l-.117.007A1 1 0 0 0 62 61h8l.117-.007A1 1 0 0 0 71 60V46l-.007-.117ZM10 31a1 1 0 0 1 .993.883L11 32v18a1 1 0 0 1-1.993.117L9 50V32a1 1 0 0 1 1-1ZM62 24a1 1 0 0 0-1-1c-1.05 0-2.286.098-3.712.293l-.797.116c-.408.062-.83.132-1.266.21l-.89.164-.93.183-.966.203-1.004.222-.517.118-1.061.25-1.1.27a1 1 0 1 0 .486 1.941l.539-.134 1.05-.253 1.013-.234c.165-.038.33-.075.492-.11l.955-.207.916-.187.88-.169.84-.15c.136-.023.271-.046.405-.067l.783-.122c.254-.038.502-.072.744-.103l.705-.084c.915-.1 1.727-.15 2.435-.15a1 1 0 0 0 1-1ZM61 29a1 1 0 1 1 0 2c-.708 0-1.52.05-2.435.15l-.705.084c-.242.031-.49.065-.744.103l-.783.122a60.34 60.34 0 0 0-.406.067l-.84.15-.879.169-.916.187-.955.207a95.78 95.78 0 0 0-.492.11l-1.013.234-1.05.253-.54.134a1 1 0 1 1-.484-1.94l1.099-.27 1.061-.251c.174-.04.346-.08.517-.118l1.004-.222.967-.203.928-.183.891-.164c.436-.078.858-.148 1.266-.21l.797-.116C58.714 29.098 59.95 29 61 29ZM62 36a1 1 0 0 0-1-1c-1.05 0-2.286.098-3.712.292l-.797.116c-.408.063-.83.133-1.266.21l-.89.165-.93.183-.966.203-1.004.222-.517.118-1.061.25-1.1.27a1 1 0 1 0 .486 1.941l.539-.134 1.05-.253 1.013-.234c.165-.038.33-.074.492-.11l.955-.207.916-.187.88-.169.84-.15.405-.068.783-.121c.254-.038.502-.072.744-.103l.705-.084c.915-.1 1.727-.15 2.435-.15a1 1 0 0 0 1-1ZM61 41a1 1 0 1 1 0 2c-.708 0-1.52.05-2.435.15l-.705.084c-.242.031-.49.065-.744.103l-.783.121a60.34 60.34 0 0 0-.406.068l-.84.15-.879.169-.916.187-.955.207a95.78 95.78 0 0 0-.492.11l-1.013.234-1.05.253-.54.134a1 1 0 1 1-.484-1.94l1.099-.27 1.061-.251c.174-.04.346-.08.517-.118l1.004-.222.967-.203.928-.183.891-.164c.436-.078.858-.148 1.266-.21l.797-.117C58.714 41.098 59.95 41 61 41ZM62 48a1 1 0 0 0-1-1c-1.05 0-2.286.098-3.712.292l-.797.116c-.408.063-.83.133-1.266.21l-.89.165-.93.183-.966.203-1.004.222-.517.118-1.061.25-1.1.27a1 1 0 1 0 .486 1.941l.539-.134 1.05-.253 1.013-.234c.165-.038.33-.074.492-.11l.955-.207.916-.187.88-.169.84-.15.405-.068.783-.121c.254-.038.502-.072.744-.103l.705-.084c.915-.1 1.727-.15 2.435-.15a1 1 0 0 0 1-1ZM22 24a1 1 0 0 1 1-1c1.05 0 2.286.098 3.712.293l.797.116c.408.062.83.132 1.266.21l.89.164.93.183.966.203 1.004.222.517.118 1.06.25 1.1.27a1 1 0 1 1-.485 1.941l-.54-.134-1.05-.253-1.012-.234c-.166-.038-.33-.075-.492-.11l-.955-.207-.917-.187-.878-.169-.84-.15a58.281 58.281 0 0 0-.406-.067l-.783-.122a42.847 42.847 0 0 0-.744-.103l-.705-.084C24.52 25.05 23.708 25 23 25a1 1 0 0 1-1-1ZM23 29a1 1 0 1 0 0 2c.708 0 1.52.05 2.435.15l.705.084c.242.031.49.065.744.103l.783.122.405.067.84.15.88.169.916.187.955.207.492.11 1.012.234 1.05.253.54.134a1 1 0 1 0 .485-1.94l-1.1-.27-1.06-.251c-.174-.04-.346-.08-.517-.118l-1.004-.222-.967-.203-.929-.183-.89-.164a56.632 56.632 0 0 0-1.266-.21l-.797-.116C25.286 29.098 24.05 29 23 29ZM22 36a1 1 0 0 1 1-1c1.05 0 2.286.098 3.712.292l.797.116c.408.063.83.133 1.266.21l.89.165.93.183.966.203 1.004.222.517.118 1.06.25 1.1.27a1 1 0 1 1-.485 1.941l-.54-.134-1.05-.253-1.012-.234-.492-.11-.955-.207-.917-.187-.878-.169-.84-.15a58.281 58.281 0 0 0-.406-.068l-.783-.121a42.847 42.847 0 0 0-.744-.103l-.705-.084C24.52 37.05 23.708 37 23 37a1 1 0 0 1-1-1ZM23 41a1 1 0 1 0 0 2c.708 0 1.52.05 2.435.15l.705.084c.242.031.49.065.744.103l.783.121.405.068.84.15.88.169.916.187.955.207.492.11 1.012.234 1.05.253.54.134a1 1 0 1 0 .485-1.94l-1.1-.27-1.06-.251c-.174-.04-.346-.08-.517-.118l-1.004-.222-.967-.203-.929-.183-.89-.164a56.632 56.632 0 0 0-1.266-.21l-.797-.117C25.286 41.098 24.05 41 23 41ZM22 48a1 1 0 0 1 1-1c1.05 0 2.286.098 3.712.292l.797.116c.408.063.83.133 1.266.21l.89.165.93.183.966.203 1.004.222.517.118 1.06.25 1.1.27a1 1 0 1 1-.485 1.941l-.54-.134-1.05-.253-1.012-.234-.492-.11-.955-.207-.917-.187-.878-.169-.84-.15a58.281 58.281 0 0 0-.406-.068l-.783-.121a42.847 42.847 0 0 0-.744-.103l-.705-.084C24.52 49.05 23.708 49 23 49a1 1 0 0 1-1-1Z"/>
  </symbol>
  <use class="fr-artwork-decorative" href="#artwork-decorative"/>
  <use class="fr-artwork-minor" href="#artwork-minor"/>
  <use class="fr-artwork-major" href="#artwork-major"/>
</svg>
