<svg width="80px" height="80px" viewBox="0 0 80 80" xmlns="http://www.w3.org/2000/svg">
 	<style>
		.fr-artwork-decorative {
			fill: #ECECFF;
		}
		.fr-artwork-minor {
			fill: #E1000F;
		}
		.fr-artwork-major {
			fill: #000091;
		}
	</style>
	<g class="fr-artwork-decorative" id="artwork-decorative">
    <path d="M59,76c-0.5514,0-1-0.4486-1-1s0.4486-1,1-1s1,0.4486,1,1S59.5514,76,59,76z M67,12c-0.5514,0-1-0.4486-1-1
	s0.4486-1,1-1s1,0.4486,1,1S67.5514,12,67,12z M9,16c-0.5514,0-1-0.4486-1-1s0.4486-1,1-1s1,0.4486,1,1S9.5514,16,9,16z"/>
  </g>
  <g class="fr-artwork-minor" id="artwork-minor">
    <path d="M37,23c0,0.51282-0.38599,0.93549-0.88342,0.99329L36,24H24c-0.55231,0-1-0.44769-1-1
	c0-0.51282,0.38599-0.93549,0.88342-0.99329L24,22h12C36.55231,22,37,22.44769,37,23z M40,46c0.55231,0,1-0.44769,1-1
	s-0.44769-1-1-1l-0.09412-0.00342c-0.11938-0.00879-0.22668-0.0354-0.32196-0.08319C40.40363,43.66357,41,42.90149,41,42
	c0-1.10461-0.89539-2-2-2s-2,0.89539-2,2C37,44.487,38.00861,46,40,46z M46,46c0.55231,0,1-0.44769,1-1s-0.44769-1-1-1
	l-0.09412-0.00342c-0.11938-0.00879-0.22668-0.0354-0.32196-0.08319C46.40363,43.66357,47,42.90149,47,42c0-1.10461-0.89539-2-2-2
	s-2,0.89539-2,2C43,44.487,44.00861,46,46,46z M34,26H24l-0.11658,0.00671C23.38599,26.06451,23,26.48718,23,27
	c0,0.55231,0.44769,1,1,1h10l0.11658-0.00671C34.61401,27.93549,35,27.51282,35,27C35,26.44769,34.55231,26,34,26z M30,30h-6
	l-0.11658,0.00671C23.38599,30.06451,23,30.48718,23,31c0,0.55231,0.44769,1,1,1h6l0.11658-0.00671
	C30.61401,31.93549,31,31.51282,31,31C31,30.44769,30.55231,30,30,30z M56,50H38l-0.11658,0.00671
	C37.38599,50.06451,37,50.48718,37,51c0,0.55231,0.44769,1,1,1h18l0.11658-0.00671C56.61401,51.93549,57,51.51282,57,51
	C57,50.44769,56.55231,50,56,50z M52,54H38l-0.11658,0.00671C37.38599,54.06451,37,54.48718,37,55c0,0.55231,0.44769,1,1,1h14
	l0.11658-0.00671C52.61401,55.93549,53,55.51282,53,55C53,54.44769,52.55231,54,52,54z"/>
  </g>
  <g class="fr-artwork-major" id="artwork-major">
    <path d="M23,45c0,0.51282-0.38599,0.93549-0.88342,0.99329L22,46h-8c-0.79138,0-1.2547-0.86652-0.8562-1.51727
	l0.06281-0.09143l4.6134-6.01331l-0.05652-0.08362c-1.71271-2.61768-2.67731-5.66528-2.758-8.85809L15,29
	c0-9.38879,7.61121-17,17-17c6.85413,0,12.2879,4.05713,14.92792,10.6272c0.20587,0.51239-0.0426,1.09479-0.55511,1.30072
	c-0.51239,0.20587-1.09479-0.0426-1.30072-0.55511C42.72382,17.52869,37.99768,14,32,14c-8.2843,0-15,6.7157-15,15
	c0,3.21582,1.01331,6.27618,2.86572,8.82007c0.23486,0.32251,0.25336,0.74951,0.05811,1.08813l-0.07312,0.10931L16.02698,44H22
	c0.51282,0,0.93549,0.38599,0.99329,0.88342L23,45z M62.83209,60.44531l-0.07031-0.09332
	c-0.32397-0.38177-0.88977-0.46851-1.31647-0.18408l-0.09332,0.07031c-0.38177,0.32397-0.46851,0.88977-0.18408,1.31647L64.13098,66
	H47l-0.33069-0.00299C36.8808,65.82068,29,57.83069,29,48c0-9.9411,8.0589-18,18-18s18,8.0589,18,18
	c0,2.81952-0.64807,5.54437-1.87659,8.01172c-0.24622,0.49438-0.04498,1.09467,0.4494,1.34088s1.09479,0.04492,1.34088-0.4494
	C66.27942,54.1604,67,51.13062,67,48c0-11.04572-8.95428-20-20-20s-20,8.95428-20,20s8.95428,20,20,20h19l0.11182-0.00592
	c0.73016-0.07837,1.14221-0.91589,0.72028-1.54877L62.83209,60.44531z M56,20c0.55139,0,1-0.44861,1-1s-0.44861-1-1-1
	s-1,0.44861-1,1S55.44861,20,56,20z M60,20c0.55139,0,1-0.44861,1-1s-0.44861-1-1-1s-1,0.44861-1,1S59.44861,20,60,20z M64,20
	c0.55139,0,1-0.44861,1-1s-0.44861-1-1-1s-1,0.44861-1,1S63.44861,20,64,20z M69,15v8c0,0.55231-0.44769,1-1,1h-3v3
	c0,0.85217-0.98547,1.29742-1.6225,0.7832l-0.08459-0.07611L59.58502,24H52c-0.51282,0-0.93549-0.38599-0.99329-0.88342L51,23v-8
	c0-0.55231,0.44769-1,1-1h16C68.55231,14,69,14.44769,69,15z M67,16H53v6h7c0.22101,0,0.43451,0.07318,0.60803,0.20612
	l0.09906,0.08679L63,24.58502V23c0-0.51282,0.38599-0.93549,0.88342-0.99329L64,22h3V16z M16,58h-4l-0.11658,0.00671
	C11.38599,58.06451,11,58.48718,11,59c0,0.55231,0.44769,1,1,1h4l0.11658-0.00671C16.61401,59.93549,17,59.51282,17,59
	C17,58.44769,16.55231,58,16,58z M20,58c-0.55139,0-1,0.44861-1,1s0.44861,1,1,1s1-0.44861,1-1S20.55139,58,20,58z M24,58
	c-0.55139,0-1,0.44861-1,1s0.44861,1,1,1s1-0.44861,1-1S24.55139,58,24,58z"/>
  </g>
</svg>
