<svg width="80px" height="80px" viewBox="0 0 80 80" xmlns="http://www.w3.org/2000/svg">
 	<style>
		.fr-artwork-decorative {
			fill: #ECECFF;
		}
		.fr-artwork-minor {
			fill: #E1000F;
		}
		.fr-artwork-major {
			fill: #000091;
		}
	</style>
	<g class="fr-artwork-decorative" id="artwork-decorative">
    <path d="M16,73c-0.5514,0-1-0.4486-1-1s0.4486-1,1-1c0.5514,0,1,0.4486,1,1S16.5514,73,16,73z M9,15
	c-0.5514,0-1-0.4486-1-1s0.4486-1,1-1s1,0.4486,1,1S9.5514,15,9,15z M62,74c-0.5514,0-1-0.4486-1-1s0.4486-1,1-1s1,0.4486,1,1
	S62.5514,74,62,74z M66,10c-0.5514,0-1-0.4486-1-1c0-0.55145,0.4486-1,1-1s1,0.44855,1,1C67,9.5514,66.5514,10,66,10z M78,52
	c-0.5514,0-1-0.4486-1-1s0.4486-1,1-1s1,0.4486,1,1S78.5514,52,78,52z"/>
  </g>
  <g class="fr-artwork-minor" id="artwork-minor">
    <path d="M34.50659,68.7121c-5.53851,2.01581-11.54437-1.53088-17.73309-8.83771l-0.60931-0.73071
	c-0.20331-0.24756-0.40668-0.49921-0.61041-0.7547c-2.25946-2.83459-4.38556-5.97028-6.31787-9.17535l-0.56158-0.94305
	c-0.09058-0.15399-0.17963-0.3064-0.26715-0.45709L7.9007,46.9303l-0.60187-1.08142l-0.51752-0.96838
	c-0.18579-0.36169-0.13403-0.79987,0.13092-1.1084c5.72687-6.66821,12.43524-10.74591,20.10217-12.20209
	c0.5426-0.10309,1.06598,0.25317,1.16901,0.79578c0.10309,0.5426-0.25323,1.06604-0.79584,1.16913
	c-6.86249,1.30341-12.91406,4.84528-18.17493,10.65216L8.8761,44.56262l0.30774,0.5639l0.22418,0.40387l0.47681,0.84222
	l0.51385,0.88489c0.17743,0.30157,0.36084,0.60968,0.55005,0.9234c1.89056,3.13586,3.96948,6.20209,6.16895,8.96149
	c0.19751,0.24768,0.39465,0.49139,0.59143,0.7309l0.58917,0.70599c5.68445,6.70422,11.0437,9.88422,15.52435,8.25342
	c5.20929-1.896,7.78149-7.70331,7.59277-17.66913c-0.0105-0.55219,0.42871-1.0083,0.9809-1.0188
	c0.55212-0.01038,1.0083,0.42871,1.01868,0.9809C43.6181,59.85028,40.68982,66.46161,34.50659,68.7121z M46.13171,54.328
	c-0.55109-0.03522-1.02649,0.383-1.06171,0.9342c-0.25323,3.95911-1.13672,7.0426-2.6264,9.25909
	c-0.30811,0.45837-0.18628,1.07971,0.27209,1.38782c0.45831,0.30811,1.07971,0.18616,1.38782-0.27209
	c1.70886-2.54254,2.68829-5.961,2.9624-10.24725C47.10107,54.83868,46.68292,54.36328,46.13171,54.328z M26.39923,50.09717
	c0.35498-0.4231,0.29974-1.05377-0.12335-1.40875c-2.96149-2.48505-7.37677-2.09869-9.86176,0.86279
	c-0.35504,0.4231-0.2998,1.05377,0.12329,1.40881c0.42297,0.35498,1.05377,0.2998,1.40881-0.12323
	c1.77496-2.11542,4.92877-2.3913,7.04407-0.61627C25.41339,50.5755,26.04419,50.52032,26.39923,50.09717z M31.56073,32.81952
	c0.51886-0.1889,0.7865-0.7627,0.5976-1.28174c-0.1889-0.51898-0.7627-0.78656-1.28174-0.59766
	c-0.51898,0.1889-0.7865,0.7627-0.59766,1.28168S31.04169,33.00842,31.56073,32.81952z M29.97357,48.7962
	c0.54395,0.09589,1.06262-0.26721,1.15851-0.8111c0.47949-2.71948,3.07281-4.53534,5.7923-4.05579
	c0.54395,0.09589,1.0625-0.26733,1.15845-0.81122c0.09589-0.54388-0.26733-1.0625-0.8111-1.15839
	c-3.80731-0.67145-7.43793,1.87079-8.10925,5.6781C29.06659,48.1817,29.42969,48.70032,29.97357,48.7962z M25.86688,59.13312
	c3.34814,1.93298,7.62921,0.78589,9.56219-2.56219c0.27612-0.47833,0.1123-1.0899-0.36597-1.36603
	c-0.47833-0.27612-1.0899-0.1123-1.36609,0.36603c-1.38074,2.39148-4.4386,3.21088-6.83014,1.8302
	c-0.47827-0.27625-1.0899-0.1123-1.36597,0.36597C25.22473,58.24542,25.38861,58.85699,25.86688,59.13312z"/>
  </g>
  <g class="fr-artwork-major" id="artwork-major">
    <path d="M72.6358,26.70007l-0.57971,1.0451l-0.57556,1.01685l-0.57166,0.98877l-0.56769,0.96082l-0.56421,0.93298
	l-0.56055,0.90521l-0.55725,0.87769l-0.55408,0.85022c-0.0921,0.13947-0.18402,0.27771-0.27582,0.41492l-0.5495,0.80927
	c-0.18268,0.2652-0.36487,0.52588-0.54669,0.7821l-0.54401,0.755c-0.90448,1.23608-1.79828,2.35999-2.68481,3.37439
	l-0.53094,0.59552c-5.74335,6.30969-11.19794,8.01398-17.2207,5.8219c-5.56372-2.02502-7.96021-8.49341-8.10193-17.87042
	l-0.00671-0.9317c0.00024-0.3136,0.00281-0.63031,0.00769-0.95007c0.05463-3.54901,0.40485-7.23669,0.94922-10.85254
	c0.0545-0.36139,0.1098-0.71466,0.16559-1.05927l0.16925-1.00732l0.17078-0.95135l0.13708-0.7196l0.21613-1.05103
	c0.08997-0.40308,0.41858-0.70941,0.82697-0.771c9.7179-1.46417,18.31622,0.2666,25.74524,5.19672
	c0.46021,0.30536,0.58569,0.92596,0.28027,1.38617c-0.30542,0.46008-0.92596,0.58563-1.38617,0.28021
	c-6.71185-4.4541-14.42792-6.1366-23.1922-5.0437l-0.46362,0.06018l-0.19739,1.02771l-0.16693,0.92932l-0.16528,0.98456
	c-0.05463,0.33704-0.1087,0.68262-0.16199,1.03625c-0.5321,3.53369-0.87408,7.13525-0.92719,10.58545
	c-0.14783,9.60675,1.94879,16.08173,6.78528,17.84204c5.07428,1.84686,9.77509,0.44507,14.87897-5.06891l0.4873-0.5376
	l0.49005-0.56262l0.49255-0.58777l0.49554-0.61322l0.4986-0.63879l0.50177-0.66443c0.08392-0.11285,0.16791-0.22681,0.25214-0.34186
	l0.50677-0.70331l0.51038-0.72931c0.08533-0.12378,0.1709-0.2486,0.25653-0.37457l0.51599-0.76886l0.5199-0.79535l0.52399-0.82214
	c0.08771-0.13916,0.17554-0.2796,0.26361-0.42108l0.5304-0.86237l0.53479-0.88953l0.53943-0.91681
	c0.09027-0.15509,0.18079-0.31128,0.27148-0.46869l0.54663-0.95801l0.55157-0.98572
	c0.09229-0.16656,0.18488-0.33429,0.27771-0.50317c0.26587-0.48413,0.87378-0.66101,1.35791-0.39508
	C72.72479,25.60809,72.90173,26.216,72.6358,26.70007z M35.86963,13.64929c-0.54285-0.1015-1.06525,0.25641-1.16663,0.79932
	l-0.04651,0.25897l-0.22211,1.37292l-0.13129,0.90009l-0.06592,0.47913c-0.31348,2.3241-0.55969,4.80548-0.6955,7.34418
	c-0.02948,0.55151,0.39374,1.02252,0.94519,1.052c0.55151,0.02948,1.02252-0.39368,1.052-0.94519
	c0.13275-2.4812,0.37372-4.90991,0.6803-7.18359l0.1286-0.91663c0.0213-0.1463,0.0426-0.28937,0.06384-0.42908l0.12537-0.79694
	l0.1319-0.76849C36.77039,14.27307,36.41248,13.75067,35.86963,13.64929z M50.70178,25.98511
	c0.09595,0.54388,0.6145,0.90698,1.15845,0.8111c0.54388-0.09589,0.90704-0.6145,0.81116-1.15839
	c-0.67126-3.80731-4.30188-6.34955-8.10919-5.67822c-0.54388,0.09601-0.9071,0.61462-0.81122,1.15851
	c0.09595,0.54388,0.61462,0.9071,1.15851,0.81122C47.62903,21.44971,50.22229,23.26562,50.70178,25.98511z M68.3587,20.0752
	c0.51898,0.1889,1.09277-0.07867,1.28168-0.59772c0.1889-0.51886-0.07867-1.09277-0.5976-1.28168
	c-0.51898-0.1889-1.0929,0.07867-1.28168,0.59772C67.5722,19.3125,67.83972,19.88629,68.3587,20.0752z M56.84351,28.22052
	c2.11542-1.77502,5.26923-1.49915,7.04419,0.61627c0.35498,0.42303,0.98572,0.47821,1.40881,0.12323
	c0.4231-0.35504,0.47827-0.98572,0.12329-1.40881c-2.48511-2.96149-6.90027-3.34784-9.86188-0.86279
	c-0.42303,0.35498-0.47821,0.98566-0.12323,1.40881C55.78967,28.52032,56.42041,28.5755,56.84351,28.22052z M54.61627,37.55969
	c0.51904-0.1889,0.78662-0.7627,0.59772-1.28168c-0.1889-0.51904-0.7627-0.78662-1.28168-0.59772
	c-2.59491,0.94452-5.46411-0.39349-6.40863-2.9884c-0.1889-0.51892-0.7627-0.7865-1.28168-0.5976s-0.78662,0.7627-0.59772,1.28168
	C46.96661,37.00879,50.98352,38.8819,54.61627,37.55969z"/>
  </g>
</svg>
