<svg width="80px" height="80px" viewBox="0 0 80 80" xmlns="http://www.w3.org/2000/svg">
 	<style>
		.fr-artwork-decorative {
			fill: #ECECFF;
		}
		.fr-artwork-minor {
			fill: #E1000F;
		}
		.fr-artwork-major {
			fill: #000091;
		}
	</style>
	<g class="fr-artwork-decorative" id="artwork-decorative">
    <path d="M61,74c-0.5514,0-1-0.4486-1-1s0.4486-1,1-1s1,0.4486,1,1S61.5514,74,61,74z M69,10c-0.5514,0-1-0.4486-1-1
	c0-0.55145,0.4486-1,1-1s1,0.44855,1,1C70,9.5514,69.5514,10,69,10z M11,14c-0.5514,0-1-0.4486-1-1s0.4486-1,1-1s1,0.4486,1,1
	S11.5514,14,11,14z"/>
  </g>
  <g class="fr-artwork-minor" id="artwork-minor">
    <path d="M37.83032,25.4425l-5.97424-9.95703c-0.3656-0.60925-1.21808-0.64508-1.64099-0.10748l-0.07397,0.10748l-6,10
	C24.03418,25.6637,23.98932,25.86169,24,26.05463V46l0.00671,0.11658C24.06451,46.61401,24.48718,47,25,47c0.55231,0,1-0.44769,1-1
	V26.2746l1.96503-3.27521C27.97662,22.99982,27.98828,23,28,23h6l0.03229-0.00189L35.23358,25H30.9986
	c-0.51282,0-0.93549,0.38599-0.99329,0.88342L29.9986,26c0,0.51282,0.38611,0.93549,0.88342,0.99329L30.9986,27H36v19
	l0.00671,0.11658C36.06451,46.61401,36.48718,47,37,47c0.55231,0,1-0.44769,1-1V26.01538
	c0.00098-0.05817-0.00311-0.11688-0.01282-0.1756C37.96381,25.69452,37.90912,25.55969,37.83032,25.4425z M29.16449,21
	l1.83411-3.05701L32.83319,21H29.16449z M31.99329,29.88342L32,30v16c0,0.55231-0.44769,1-1,1
	c-0.51282,0-0.93549-0.38599-0.99329-0.88342L30,46V30c0-0.55231,0.44769-1,1-1C31.51282,29,31.93549,29.38599,31.99329,29.88342z
	 M56.00018,46c0,0.55231-0.44769,1-1,1s-1-0.44769-1-1l-0.00409-0.2782l-0.01227-0.31183l-0.02063-0.34546l-0.02869-0.37903
	l-0.03693-0.41248l-0.04517-0.44611l-0.08301-0.73169l-0.06573-0.52954l-0.15576-1.15875l-0.1886-1.29175l-0.28192-1.8006
	l-0.33289-2.00677l-0.30322-1.75317L52.16321,33h-6.32623l-0.27808,1.55463l-0.30322,1.75317l-0.33295,2.00677L44.81549,39H49
	c0.55231,0,1,0.44769,1,1c0,0.51282-0.38599,0.93549-0.88342,0.99329L49,41h-4.48828l-0.05939,0.40692l-0.15582,1.15875
	l-0.06573,0.52954l-0.08307,0.73169l-0.0451,0.44611l-0.03693,0.41248l-0.02875,0.37903l-0.02051,0.34546l-0.01233,0.31183L44,46
	c0,0.55231-0.44769,1-1,1s-1-0.44769-1-1l0.00421-0.30042l0.01239-0.3327l0.03442-0.56018l0.07489-0.86078l0.078-0.73145
	l0.0968-0.80499l0.1582-1.18829l0.19147-1.31989l0.16559-1.0766l0.24994-1.55133l0.35938-2.12598l0.24072-1.37543l0.34668-1.93146
	c0.039-0.24353,0.16589-0.45764,0.34723-0.60883c0.1123-0.09357,0.24536-0.16309,0.3913-0.2005
	c0.08557-0.02209,0.17511-0.0329,0.2663-0.03119h7.72571C53.5766,30.48907,54,29.53711,54,28
	c0-1.07562-0.82123-2.8479-2.49451-5.21649l-0.30841-0.42932l-0.21509-0.28851l-0.38678-0.50385l-0.63519-0.80371l-0.56561-0.70142
	l-0.45844-0.56073l-0.19696,0.20831c-3.07532,3.26923-4.6366,5.98724-4.73413,8.08771L44,28c0,0.55231-0.44769,1-1,1s-1-0.44769-1-1
	c0-2.99951,2.12213-6.53632,6.29291-10.70709c0.41669-0.41669,1.10162-0.38452,1.47742,0.0694l0.75885,0.92139l0.67102,0.82501
	l0.5835,0.72882l0.64233,0.823l0.38025,0.5061l0.10754,0.14758C54.95959,24.15009,56,26.34088,56,28
	c0,2.0257-0.62817,3.56158-1.8952,4.49371l0.22943,1.27826l0.24066,1.37543l0.35944,2.12598l0.24988,1.55133l0.16559,1.0766
	l0.19153,1.31989l0.1582,1.18829l0.0968,0.80499l0.078,0.73145l0.07489,0.86078l0.0343,0.56018l0.01245,0.3327L56.00018,46z"/>
  </g>
  <g class="fr-artwork-major" id="artwork-major">
    <path d="M26,58c0,0.51282-0.38599,0.93549-0.88342,0.99329L25,59h-6c-2.68878,0-4.88177-2.12231-4.99542-4.78308L14,54
	V24c0-2.68878,2.12231-4.88177,4.78308-4.99542L19,19h4c0.55231,0,1,0.44769,1,1c0,0.51282-0.38599,0.93549-0.88342,0.99329L23,21
	h-4c-1.59772,0-2.90369,1.2489-2.99487,2.82367L16,24v30c0,1.59772,1.2489,2.90369,2.82373,2.99487L19,57h6
	C25.55231,57,26,57.44769,26,58z M66,24v30c0,2.68878-2.12231,4.88177-4.78308,4.99542L61,59H44.01642
	c0.1416,4.14832,1.19537,6,2.98358,6h2c0.55231,0,1,0.44769,1,1c0,0.51282-0.38599,0.93549-0.88342,0.99329L49,67H31
	c-0.55231,0-1-0.44769-1-1c0-0.51282,0.38599-0.93549,0.88342-0.99329L31,65h2c1.78821,0,2.84198-1.85168,2.98358-6H31
	c-0.55231,0-1-0.44769-1-1c0-0.51282,0.38599-0.93549,0.88342-0.99329L31,57h30c1.59772,0,2.90369-1.2489,2.99487-2.82373L64,54V24
	c0-1.59772-1.2489-2.90369-2.82367-2.99487L61,21h-4c-0.55231,0-1-0.44769-1-1c0-0.51282,0.38599-0.93549,0.88342-0.99329L57,19h4
	c2.68878,0,4.88177,2.12231,4.99542,4.78308L66,24z M43.40802,65c-0.8457-1.35321-1.30151-3.37329-1.39142-6h-4.0332
	c-0.0899,2.62671-0.54572,4.64679-1.39142,6H43.40802z M59.11658,50.99329C59.61401,50.93549,60,50.51282,60,50
	c0-0.55231-0.44769-1-1-1H21l-0.11658,0.00671C20.38599,49.06451,20,49.48718,20,50c0,0.55231,0.44769,1,1,1h38L59.11658,50.99329z
	 M39,53l-0.11658,0.00671C38.38599,53.06451,38,53.48718,38,54c0,0.55231,0.44769,1,1,1h2l0.11658-0.00671
	C41.61401,54.93549,42,54.51282,42,54c0-0.55231-0.44769-1-1-1H39z M39,21h2l0.11658-0.00671C41.61401,20.93549,42,20.51282,42,20
	c0-0.55231-0.44769-1-1-1h-2l-0.11658,0.00671C38.38599,19.06451,38,19.48718,38,20C38,20.55231,38.44769,21,39,21z"/>
  </g>
</svg>
