<svg width="80px" height="80px" viewBox="0 0 80 80" xmlns="http://www.w3.org/2000/svg">
 	<style>
		.fr-artwork-decorative {
			fill: #ECECFF;
		}
		.fr-artwork-minor {
			fill: #E1000F;
		}
		.fr-artwork-major {
			fill: #000091;
		}
	</style>
	<g class="fr-artwork-decorative" id="artwork-decorative">
    <path d="M59,76c-0.5514,0-1-0.4486-1-1s0.4486-1,1-1s1,0.4486,1,1S59.5514,76,59,76z M67,12c-0.5514,0-1-0.4486-1-1
	s0.4486-1,1-1s1,0.4486,1,1S67.5514,12,67,12z M9,16c-0.5514,0-1-0.4486-1-1s0.4486-1,1-1s1,0.4486,1,1S9.5514,16,9,16z"/>
  </g>
  <g class="fr-artwork-minor" id="artwork-minor">
    <path d="M38,15c0,0.55231-0.44769,1-1,1s-1-0.44769-1-1c0-2.34998,0.8454-4.04071,2.5528-4.89441
	c0.49402-0.24701,1.0946-0.04681,1.34161,0.4472s0.04681,1.0946-0.4472,1.34161C38.48792,12.37408,38,13.34991,38,15z M65,52
	h-2.58582l-0.1911-0.00763c-0.57037-0.04529-1.10846-0.29199-1.51599-0.69946c-0.2948-0.2948-0.37622-0.74133-0.20447-1.12122
	C63.39673,43.77002,62.28149,40,57,40s-6.39673,3.77002-3.50262,10.17169c0.17175,0.37988,0.09033,0.82642-0.20447,1.12122
	C52.84009,51.74561,52.22607,52,51.58582,52H49l-0.21692,0.00458C46.12329,52.1181,44.00159,54.30957,44,56.99701V66h-5
	l-0.11658,0.00671C38.38599,66.06451,38,66.48718,38,67c0,0.55231,0.44769,1,1,1h6l0.11658-0.00671
	C45.61401,67.93549,46,67.51282,46,67v-9h19l0.11658-0.00671C65.61401,57.93549,66,57.51282,66,57c0-0.55231-0.44769-1-1-1H46.17072
	c0.4118-1.16522,1.52307-2,2.82928-2h2.58582l0.2334-0.00623c1.08569-0.05737,2.1153-0.5141,2.88788-1.28668
	c0.88324-0.88318,1.12732-2.22107,0.61273-3.35931c-0.08673-0.19189-0.16949-0.37958-0.24841-0.56311l-0.22473-0.53796
	C53.03778,43.77972,53.7973,42,57,42c3.2655,0,3.99103,1.85022,2.04388,6.51257l-0.23651,0.55054l-0.1272,0.28467
	c-0.51459,1.13824-0.27045,2.47614,0.61273,3.35931C60.12073,53.53491,61.24353,54,62.41418,54H65l0.17633,0.00513
	C66.7511,54.09631,68,55.40228,68,57v8l-0.00671,0.11658C67.93549,65.61401,67.51282,66,67,66h-1v-3l-0.00671-0.11658
	C65.93549,62.38599,65.51282,62,65,62c-0.55231,0-1,0.44769-1,1v3h-8v-3l-0.00671-0.11658C55.93549,62.38599,55.51282,62,55,62
	c-0.55231,0-1,0.44769-1,1v4l0.00671,0.11658C54.06451,67.61401,54.48718,68,55,68h12l0.17633-0.00513
	C68.7511,67.90369,70,66.59772,70,65v-8l-0.00458-0.21692C69.88177,54.12231,67.68878,52,65,52z M29.4472,16.10559
	c-0.49402-0.24701-1.0946-0.04681-1.34161,0.4472s-0.04681,1.0946,0.4472,1.34161C29.51208,18.37408,30,19.34991,30,21
	c0,0.55231,0.44769,1,1,1s1-0.44769,1-1C32,18.65002,31.1546,16.95929,29.4472,16.10559z M33,66c-0.55139,0-1,0.44849-1,1
	c0,0.55139,0.44861,1,1,1s1-0.44861,1-1C34,66.44849,33.55139,66,33,66z M71.00018,36c-2.51678,0-4.20197,1.68518-4.97009,4.75751
	c-0.13397,0.53577,0.19183,1.07867,0.7276,1.21259c0.53583,0.13403,1.07874-0.19177,1.21271-0.7276
	C68.53571,38.98138,69.51709,38,71.00018,38c0.55231,0,1-0.44769,1-1S71.55249,36,71.00018,36z M51,62c-0.55231,0-1,0.44769-1,1v4
	l0.00671,0.11658C50.06451,67.61401,50.48718,68,51,68c0.55231,0,1-0.44769,1-1v-4l-0.00671-0.11658
	C51.93549,62.38599,51.51282,62,51,62z"/>
  </g>
  <g class="fr-artwork-major" id="artwork-major">
    <path d="M62,27v4c0,0.51282-0.38599,0.93549-0.88342,0.99329L61,32h-3v3c0,0.55231-0.44769,1-1,1
	c-0.51282,0-0.93549-0.38599-0.99329-0.88342L56,35v-3H16v13c0,0.55231-0.44769,1-1,1c-0.51282,0-0.93549-0.38599-0.99329-0.88342
	L14,45V34.646l-0.07172,0.08392c-1.02496,1.21667-1.90289,2.36267-2.63647,3.4386l-0.38593,0.5799
	c-2.84875,4.3927-3.18243,7.56079-1.19879,9.54449c1.54333,1.54327,4.54663,1.47632,8.974-0.29004l0.62701-0.25745
	c0.10602-0.0448,0.21277-0.09045,0.32037-0.13702l0.65472-0.29071c0.11072-0.05029,0.22211-0.1015,0.33429-0.15369l0.68231-0.32397
	l0.70081-0.34625c0.23657-0.1192,0.47632-0.242,0.71912-0.36859l0.73749-0.39099c0.12439-0.06702,0.24957-0.13501,0.37561-0.20392
	l0.76489-0.42456l0.78326-0.44714l0.80164-0.46979c0.13507-0.08008,0.271-0.16119,0.40759-0.24329l0.82892-0.50372l0.84717-0.52625
	l0.86542-0.54926c0.14569-0.09338,0.29218-0.18768,0.43951-0.28308l0.75665-0.49451C30.11688,41.10168,30,40.56451,30,40
	c0-0.55231,0.44769-1,1-1s1,0.44769,1,1c0,1.10461,0.89539,2,2,2s2-0.89539,2-2s-0.89539-2-2-2c-0.55231,0-1-0.44769-1-1
	s0.44769-1,1-1c2.20911,0,4,1.79089,4,4s-1.79089,4-4,4c-0.9176,0-1.76312-0.30902-2.43799-0.82861l-0.88312,0.57733
	l-0.87018,0.55859l-0.85449,0.53766l-0.83875,0.51685c-0.13837,0.08441-0.27618,0.16791-0.41339,0.25061l-0.815,0.48535
	l-0.79926,0.46454c-0.13196,0.07556-0.26324,0.15039-0.3938,0.2243l-0.77576,0.43286
	c-0.12787,0.07043-0.25525,0.13989-0.3819,0.20862l-0.7522,0.40118c-0.12396,0.06519-0.24738,0.12939-0.37018,0.19269
	l-0.72858,0.36963c-0.12024,0.05981-0.23975,0.11871-0.35852,0.17682l-0.7052,0.33771l-0.68951,0.31635
	c-0.34088,0.15295-0.6759,0.29773-1.00507,0.43463l-0.65063,0.263c-5.14227,2.01862-8.79041,1.98016-10.98358-0.21301
	c-2.9386-2.9386-2.38348-7.20862,1.41986-12.76019l0.43591-0.62213c0.07489-0.10449,0.15094-0.20947,0.22803-0.31494
	l0.47589-0.63794c0.16302-0.21442,0.33051-0.43048,0.50238-0.64838l0.52893-0.65894l0.55536-0.66937
	c0.28424-0.33728,0.57831-0.67859,0.88232-1.02368L13.6532,32H11c-0.51282,0-0.93549-0.38599-0.99329-0.88342L10,31v-4
	c0-0.51282,0.38599-0.93549,0.88342-0.99329L11,26h12c0.55231,0,1,0.44769,1,1c0,0.51282-0.38599,0.93549-0.88342,0.99329L23,28H12
	v2h48v-2H29c-0.51282,0-0.93549-0.38599-0.99329-0.88342L28,27c0-0.51282,0.38599-0.93549,0.88342-0.99329L29,26h13.5462
	l6.7005-7.65771c0.36371-0.41559,0.99542-0.4577,1.41107-0.09399c0.38593,0.33771,0.44983,0.90649,0.16583,1.31891l-0.07178,0.09222
	L45.2038,26h5.32788l9.11603-10.9397l-2.59882-2.59833l-2.85101,3.25903c-0.33765,0.38599-0.90649,0.44989-1.31879,0.16577
	l-0.09216-0.07166c-0.38605-0.33771-0.44995-0.90662-0.16583-1.31891l0.07172-0.09222l3.55469-4.0625
	c0.35559-0.40637,0.96271-0.45288,1.37463-0.12469l0.08508,0.07611l4,4c0.33759,0.33746,0.38617,0.86127,0.13116,1.25238
	l-0.07007,0.09479L53.13513,26H61c0.51282,0,0.93549,0.38599,0.99329,0.88342L62,27z M23,66h-2l-0.21692-0.00458
	C18.12231,65.88177,16,63.68878,16,61v-6l-0.00671-0.11658C15.93549,54.38599,15.51282,54,15,54c-0.55231,0-1,0.44769-1,1v6
	l0.00409,0.24072C14.13092,64.99518,17.2146,68,21,68h2l0.11658-0.00671C23.61401,67.93549,24,67.51282,24,67
	C24,66.44769,23.55231,66,23,66z M21,62c0.55231,0,1-0.44769,1-1v-4l-0.00671-0.11658C21.93549,56.38599,21.51282,56,21,56
	c-0.55231,0-1,0.44769-1,1v4l0.00671,0.11658C20.06451,61.61401,20.48718,62,21,62z M27,56c-0.55231,0-1,0.44769-1,1v4
	l0.00671,0.11658C26.06451,61.61401,26.48718,62,27,62c0.55231,0,1-0.44769,1-1v-4l-0.00671-0.11658
	C27.93549,56.38599,27.51282,56,27,56z M33,56c-0.55231,0-1,0.44769-1,1v4l0.00671,0.11658C32.06451,61.61401,32.48718,62,33,62
	c0.55231,0,1-0.44769,1-1v-4l-0.00671-0.11658C33.93549,56.38599,33.51282,56,33,56z M39,56c-0.55231,0-1,0.44769-1,1v4
	l0.00671,0.11658C38.06451,61.61401,38.48718,62,39,62c0.55231,0,1-0.44769,1-1v-4l-0.00671-0.11658
	C39.93549,56.38599,39.51282,56,39,56z"/>
  </g>
</svg>
