<svg width="80px" height="80px" viewBox="0 0 80 80" xmlns="http://www.w3.org/2000/svg">
  <style>
    .fr-artwork-decorative {
      fill: #ECECFF;
    }
    .fr-artwork-minor {
      fill: #E1000F;
    }
    .fr-artwork-major {
      fill: #000091;
    }
  </style>
  <symbol id="artwork-decorative">
    <path d="M11 6c0 .6-.4 1-1 1s-1-.4-1-1 .4-1 1-1 1 .4 1 1ZM41 10c0 .6-.4 1-1 1s-1-.4-1-1 .4-1 1-1 1 .4 1 1ZM77 16c0 .6-.4 1-1 1s-1-.4-1-1 .4-1 1-1 1 .4 1 1ZM70 71a1 1 0 1 0 0-2 1 1 0 0 0 0 2ZM22 75a1 1 0 1 0 0-2 1 1 0 0 0 0 2ZM4 63a1 1 0 1 0 0-2 1 1 0 0 0 0 2Z"/>
  </symbol>
  <symbol id="artwork-minor">
    <path fill-rule="evenodd" clip-rule="evenodd" d="M53 38a3 3 0 1 1-6 0 3 3 0 0 1 6 0Zm2 0a5 5 0 1 1-10 0 5 5 0 0 1 10 0Zm-1.793 16.707a1 1 0 0 1-1.414 0L34.647 37.561a1 1 0 0 0-1.383-.03l-4.588 4.206a1 1 0 0 1-1.352-1.474l4.589-4.206a3 3 0 0 1 4.148.09l12.952 12.952 5.812-5.038a3 3 0 0 1 4.243.315l1.691 1.973a1 1 0 0 1-1.518 1.302l-1.691-1.973a1 1 0 0 0-1.415-.105l-5.704 4.944 2.776 2.776a1 1 0 0 1 0 1.414Z"/>
  </symbol>
  <symbol id="artwork-major">
    <path d="M24 27a3 3 0 0 0-3 3v28a3 3 0 0 0 3 3h3a1 1 0 1 1 0 2h-3a5 5 0 0 1-5-5V30a5 5 0 0 1 5-5h30a1 1 0 1 1 0 2H24Z M26 31a1 1 0 0 0-1 1v24a1 1 0 0 0 1 1h22.5v2H26a3 3 0 0 1-3-3V32a3 3 0 0 1 3-3h32a1 1 0 1 1 0 2H26Z M48 30a1 1 0 0 1 1-1h14a3 3 0 0 1 3 3v24a3 3 0 0 1-3 3H47.5v-2H63a1 1 0 0 0 1-1V32a1 1 0 0 0-1-1H49a1 1 0 0 1-1-1ZM18.5 19a5.5 5.5 0 0 0-5.5 5.5V50a1 1 0 1 1-2 0V24.5a7.5 7.5 0 0 1 7.5-7.5H28a1 1 0 1 1 0 2h-9.5Z M21.5 23a4.5 4.5 0 0 0-4.5 4.5V54a1 1 0 1 1-2 0V27.5a6.5 6.5 0 0 1 6.5-6.5H57a1 1 0 1 1 0 2H21.5Z M32 18a1 1 0 0 1 1-1h22a5 5 0 0 1 5 5h-2a3 3 0 0 0-3-3H33a1 1 0 0 1-1-1Z M37 22a1 1 0 0 1 1-1h22a5 5 0 0 1 5 5h-2a3 3 0 0 0-3-3H38a1 1 0 0 1-1-1Z M58 26a1 1 0 0 1 1-1h6a5 5 0 0 1 5 5v28a5 5 0 0 1-5 5H45a1 1 0 1 1 0-2h20a3 3 0 0 0 3-3V30a3 3 0 0 0-3-3h-6a1 1 0 0 1-1-1Z"/>
  </symbol>
  <use class="fr-artwork-decorative" href="#artwork-decorative"/>
  <use class="fr-artwork-minor" href="#artwork-minor"/>
  <use class="fr-artwork-major" href="#artwork-major"/>
</svg>
