<svg width="80px" height="80px" viewBox="0 0 80 80" xmlns="http://www.w3.org/2000/svg">
  <style>
    .fr-artwork-decorative {
      fill: #ECECFF;
    }
    .fr-artwork-minor {
      fill: #E1000F;
    }
    .fr-artwork-major {
      fill: #000091;
    }
  </style>
  <symbol id="artwork-decorative">
    <path d="M52.7 71.1c-.6 0-1-.4-1-1s.4-1 1-1 1 .4 1 1c0 .5-.4 1-1 1Zm-49-43c-.6 0-1-.4-1-1s.4-1 1-1 1 .4 1 1c0 .5-.4 1-1 1Zm72 15c-.6 0-1-.4-1-1s.4-1 1-1 1 .4 1 1c0 .5-.4 1-1 1Zm-30 14c-.6 0-1-.4-1-1s.4-1 1-1 1 .4 1 1c0 .5-.4 1-1 1Zm-17-50c-.6 0-1-.4-1-1s.4-1 1-1 1 .4 1 1c0 .5-.4 1-1 1Zm-21 68c-.6 0-1-.4-1-1s.4-1 1-1 1 .4 1 1c0 .5-.4 1-1 1Z"/>
  </symbol>
  <symbol id="artwork-minor">
    <path d="M62.9 16c.7 0 1.3.4 1.3 1 0 .5-.5.9-1.1 1H47.5c-.7 0-1.3-.4-1.3-1 0-.5.5-.9 1.1-1h15.6ZM60 20c.7 0 1.2.4 1.2 1 0 .5-.5.9-1.1 1H47.5c-.7 0-1.2-.4-1.2-1 0-.5.5-.9 1.1-1H60ZM55 24c.7 0 1.2.4 1.2 1 0 .5-.5.9-1.1 1h-7.6c-.7 0-1.2-.4-1.2-1 0-.5.5-.9 1.1-1H55Z"/>
  </symbol>
  <symbol id="artwork-major">
    <path d="M26.1 58.9h-.5c-8.6 0-15.6-7-15.6-15.6v-5.2c0-.6.4-1 1-1s1 .4 1 1v5.2c0 7.5 6.1 13.6 13.6 13.6h.5c7.5 0 13.6-6.1 13.6-13.6v-5.2c0-.6.4-1 1-1s1 .4 1 1v5.2c0 8.6-7 15.6-15.6 15.6Z M26.1 54.1h-.5c-2.4 0-4.7-.8-6.6-2.2-.4-.3-.5-1-.2-1.4.3-.4 1-.5 1.4-.2 1.5 1.2 3.4 1.8 5.3 1.8h.5c4.8 0 8.8-3.9 8.8-8.8V28.5c0-4.8-3.9-8.8-8.8-8.8h-.5c-4.8 0-8.8 3.9-8.8 8.8v14.8c0 1.1.2 2.2.6 3.3.2.5 0 1.1-.6 1.3-.5.2-1.1 0-1.3-.5-.5-1.3-.8-2.6-.8-4V28.5c0-5.9 4.8-10.8 10.8-10.8h.5c5.9 0 10.8 4.8 10.8 10.8v14.8c.2 5.9-4.6 10.8-10.6 10.8Z M35.4 42H15.9c-.6 0-1-.4-1-1s.4-1 1-1h19.6c.6 0 1 .4 1 1s-.5 1-1.1 1ZM22.2 36.9h-6.3c-.6 0-1-.4-1-1s.4-1 1-1h6.3c.6 0 1 .4 1 1s-.5 1-1 1ZM35.4 36.9h-6.3c-.6 0-1-.4-1-1s.4-1 1-1h6.3c.6 0 1 .4 1 1s-.4 1-1 1ZM22.2 32.9h-6.3c-.6 0-1-.4-1-1s.4-1 1-1h6.3c.6 0 1 .4 1 1s-.5 1-1 1ZM35.4 32.9h-6.3c-.6 0-1-.4-1-1s.4-1 1-1h6.3c.6 0 1 .4 1 1s-.4 1-1 1ZM22.2 28.9h-6.3c-.6 0-1-.4-1-1s.4-1 1-1h6.3c.6 0 1 .4 1 1s-.5 1-1 1ZM35.4 28.9h-6.3c-.6 0-1-.4-1-1s.4-1 1-1h6.3c.6 0 1 .4 1 1s-.4 1-1 1ZM22.9 64h-.1c-.5-.1-.9-.6-.9-1.1l.7-5.2c.1-.5.6-.9 1.1-.9.5.1.9.6.9 1.1l-.7 5.2c-.1.5-.5.9-1 .9ZM28.9 64c-.5 0-.9-.4-1-.9l-.7-5.2c-.1-.5.3-1.1.9-1.1.5-.1 1.1.3 1.1.9l.7 5.2c.1.5-.3 1.1-.9 1.1h-.1ZM62.2 33c.6 0 1 .4 1 1 0 .5-.4.9-.9 1h-4.1c-.6 0-1-.4-1-1 0-.5.4-.9.9-1h4.1ZM66.2 35a1 1 0 1 0 0-2 1 1 0 0 0 0 2Z M48.2 36.8c-.4-.1-.6-.5-.6-.9l-.2-4.9h-3.5c-2.3 0-4.2-1.9-4.2-4.2v-6.6c0-.6.4-1 1-1s1 .4 1 1v6.6c0 1.2 1 2.2 2.2 2.2h4.4c.5 0 1 .4 1 1l.1 3.8 5.2-4.5c.2-.2.4-.2.7-.2h11.2c1.2 0 2.2-1 2.2-2.2V15.2c0-1.2-1-2.2-2.2-2.2H44c-1.2 0-2.2 1-2.2 2.2 0 .6-.4 1-1 1s-1-.4-1-1c0-2.3 1.9-4.2 4.2-4.2h22.5c2.3 0 4.2 1.9 4.2 4.2v11.5c0 2.3-1.9 4.2-4.2 4.2H55.8l-6.5 5.6c-.2.2-.7.5-1.1.3ZM35.1 69.2H16.7c-1.4 0-2.5-1.1-2.5-2.5v-.3c0-2.2 1.8-3.9 3.9-3.9h15.6c2.2 0 3.9 1.8 3.9 3.9v.3c0 1.4-1.1 2.5-2.5 2.5Zm-17-4.7c-1.1 0-1.9.9-1.9 1.9v.3c0 .3.2.5.5.5h18.4c.3 0 .5-.2.5-.5v-.3c0-1.1-.9-1.9-1.9-1.9H18.1Z"/>
  </symbol>
  <use class="fr-artwork-decorative" href="#artwork-decorative"/>
  <use class="fr-artwork-minor" href="#artwork-minor"/>
  <use class="fr-artwork-major" href="#artwork-major"/>
</svg>
