<svg width="80px" height="80px" viewBox="0 0 80 80" xmlns="http://www.w3.org/2000/svg">
  <style>
    .fr-artwork-decorative {
      fill: #ECECFF;
    }
    .fr-artwork-minor {
      fill: #E1000F;
    }
    .fr-artwork-major {
      fill: #000091;
    }
  </style>
  <symbol id="artwork-decorative">
    <path d="M8.7 11.1c0 .6-.4 1-1 1s-1-.4-1-1 .4-1 1-1 1 .4 1 1ZM49.7 6.1c0 .6-.4 1-1 1s-1-.4-1-1 .4-1 1-1 1 .4 1 1ZM76.7 31.1c0 .6-.4 1-1 1s-1-.4-1-1 .4-1 1-1 1 .4 1 1ZM59.7 74.1c0 .6-.4 1-1 1s-1-.4-1-1 .4-1 1-1 1 .4 1 1ZM4.7 61.1c0 .6-.4 1-1 1s-1-.4-1-1 .4-1 1-1 1 .4 1 1Z"/>
  </symbol>
  <symbol id="artwork-minor">
    <path d="M37.2 46.2c-.3 0-.7-.1-1-.2-.7-.4-1.1-1.1-1.1-2v-9c0-.9.5-1.7 1.1-2 .7-.4 1.5-.3 2.3.2.7.4 3 1.8 5 3 1 .6 1.9 1.2 2.4 1.4.8.5 1.2 1.2 1.2 1.9 0 .8-.4 1.5-1.2 2l-.4.3c-1.7 1.1-5.8 3.6-6.9 4.2-.5.1-1 .2-1.4.2Zm0-11.5s-.1.1-.1.3v8.9c0 .2.1.3.1.3s.1 0 .3-.1c1-.5 5.2-3.1 6.8-4.1l.4-.3c.2-.1.3-.2.3-.2l-.2-.2c-.5-.3-1.4-.8-2.4-1.5-1.9-1.1-4.2-2.6-4.9-2.9-.2-.2-.3-.2-.3-.2ZM18 21c0 .6-.4 1-1 1s-1-.4-1-1 .4-1 1-1 1 .4 1 1ZM22 21c0 .6-.4 1-1 1s-1-.4-1-1 .4-1 1-1 1 .4 1 1ZM23.5 57c-1.4 0-2.5-1.1-2.5-2.5s1.1-2.5 2.5-2.5 2.5 1.1 2.5 2.5-1.1 2.5-2.5 2.5Zm0-3c-.3 0-.5.2-.5.5s.2.5.5.5.5-.2.5-.5-.2-.5-.5-.5Z M21 55.5h-4c-.6 0-1-.4-1-1s.4-1 1-1h4c.6 0 1 .4 1 1 0 .5-.4 1-1 1ZM51 22H29c-.6 0-1-.4-1-1s.4-1 1-1h22c.6 0 1 .4 1 1 0 .5-.4 1-1 1ZM63 22h-8c-.6 0-1-.4-1-1s.4-1 1-1h8c.6 0 1 .4 1 1 0 .5-.4 1-1 1ZM26 21c0 .6-.4 1-1 1s-1-.4-1-1 .4-1 1-1 1 .4 1 1Z"/>
  </symbol>
  <symbol id="artwork-major">
    <path d="M54 60H13c-.6 0-1-.4-1-1s.4-1 1-1h41c.6 0 1 .4 1 1 0 .5-.4 1-1 1ZM67 60h-6c-.6 0-1-.4-1-1s.4-1 1-1h6c.6 0 1 .4 1 1 0 .5-.4 1-1 1Z M13 64c-.6 0-1-.4-1-1V17c0-.6.4-1 1-1h54c.6 0 1 .4 1 1v46c0 .6-.4 1-1 1H13Zm1-2h52V18H14v44Z M67 26H13c-.6 0-1-.4-1-1s.4-1 1-1h54c.6 0 1 .4 1 1 0 .5-.4 1-1 1ZM29 54h34c.6 0 1 .4 1 1s-.4 1-1 1H29c-.6 0-1-.4-1-1s.5-1 1-1ZM63 51H17c-.6 0-1-.4-1-1V29c0-.6.4-1 1-1h46c.6 0 1 .4 1 1v21c0 .5-.4 1-1 1Zm-45-2h44V30H18v19Z"/>
  </symbol>
  <use class="fr-artwork-decorative" href="#artwork-decorative"/>
  <use class="fr-artwork-minor" href="#artwork-minor"/>
  <use class="fr-artwork-major" href="#artwork-major"/>
</svg>
