<svg width="80px" height="80px" viewBox="0 0 80 80" xmlns="http://www.w3.org/2000/svg">
  <style>
    .fr-artwork-decorative {
      fill: #ECECFF;
    }
    .fr-artwork-minor {
      fill: #E1000F;
    }
    .fr-artwork-major {
      fill: #000091;
    }
  </style>
  <symbol id="artwork-decorative">
    <path d="M8.7 8.1c0 .6-.4 1-1 1s-1-.4-1-1 .4-1 1-1 1 .4 1 1ZM72.7 7.1c0 .6-.4 1-1 1s-1-.4-1-1 .4-1 1-1 1 .4 1 1ZM62.7 21.1c0 .6-.4 1-1 1s-1-.4-1-1 .4-1 1-1 1 .4 1 1ZM72.7 73.1c0 .6-.4 1-1 1s-1-.4-1-1 .4-1 1-1 1 .4 1 1ZM9.7 72.1c0 .6-.4 1-1 1s-1-.4-1-1 .4-1 1-1 1 .4 1 1Z"/>
  </symbol>
  <symbol id="artwork-minor">
    <path d="M45 44a1 1 0 1 0 0 2 1 1 0 0 0 0-2Zm-3 1a3 3 0 1 1 6 0 3 3 0 0 1-6 0ZM36 60.5a1 1 0 0 1 1-1h9a1 1 0 1 1 0 2h-9a1 1 0 0 1-1-1ZM57 44a1 1 0 1 0 0 2 1 1 0 0 0 0-2Zm-3 1a3 3 0 1 1 6 0 3 3 0 0 1-6 0ZM51 38a1 1 0 1 0 0 2 1 1 0 0 0 0-2Zm-3 1a3 3 0 1 1 6 0 3 3 0 0 1-6 0ZM51 50a1 1 0 1 0 0 2 1 1 0 0 0 0-2Zm-3 1a3 3 0 1 1 6 0 3 3 0 0 1-6 0ZM27.07 41.569A2.964 2.964 0 0 1 30 39a2.964 2.964 0 0 1 2.931 2.569 2.964 2.964 0 0 1 2.57 2.931 2.964 2.964 0 0 1-2.57 2.931A2.964 2.964 0 0 1 30.001 50a2.964 2.964 0 0 1-2.932-2.569A2.964 2.964 0 0 1 24.5 44.5a2.964 2.964 0 0 1 2.57-2.931ZM30 41a.962.962 0 0 0-.956.956v.587a1 1 0 0 1-1 1h-.587a.962.962 0 0 0-.957.957c0 .524.433.956.957.956h.587a1 1 0 0 1 1 1v.587c0 .524.432.957.956.957a.962.962 0 0 0 .957-.956v-.587a1 1 0 0 1 1-1h.587a.962.962 0 0 0 .956-.957.962.962 0 0 0-.956-.956h-.587a1 1 0 0 1-1-1v-.587A.962.962 0 0 0 30 41ZM15.3 39a1 1 0 1 1-2 0 1 1 0 0 1 2 0Z"/>
  </symbol>
  <symbol id="artwork-major">
    <path d="M53.5 58a2.5 2.5 0 1 0 0 5 2.5 2.5 0 0 0 0-5ZM49 60.5a4.5 4.5 0 1 1 9 0 4.5 4.5 0 0 1-9 0Z"/>
    <path d="M67.669 48.056a1 1 0 0 1 1.275.613c1.296 3.688 2.7 7.699 3.406 9.919.889 2.62.61 5.622-.855 8.064-1.483 2.472-4.149 4.316-7.904 4.644-5.75.55-9.712-3.328-11.03-6.954a1 1 0 1 1 1.88-.684c1.08 2.973 4.316 6.093 8.964 5.647l.009-.001c3.143-.274 5.225-1.779 6.366-3.681 1.158-1.93 1.381-4.323.674-6.4l-.007-.02c-.694-2.182-2.088-6.165-3.39-9.872a1 1 0 0 1 .612-1.275ZM66.735 43.59a1 1 0 0 0-1.978.21 1.227 1.227 0 0 0 .104.492 1 1 0 0 0 1.996-.092 1.604 1.604 0 0 0-.122-.61ZM18.785 41.172c.443-1.082 1.24-2.895 2.607-4.433 1.35-1.52 3.22-2.739 5.865-2.739h28c2.65 0 4.52 1.2 5.867 2.704 1.366 1.527 2.164 3.342 2.601 4.46a1 1 0 1 0 1.863-.728c-.462-1.182-1.364-3.267-2.973-5.065C60.984 33.55 58.605 32 55.257 32h-28c-3.356 0-5.736 1.581-7.36 3.411-1.606 1.808-2.508 3.891-2.966 5.01l-.006.015c-.83 2.12-4.245 11.917-5.97 16.864l-.443 1.27-.002.008c-.893 2.622-.616 5.605.853 8.039 1.484 2.458 4.147 4.298 7.893 4.678h.007c5.692.538 9.807-2.271 11.18-6.162a1 1 0 0 0-1.886-.666c-1.026 2.909-4.197 5.3-9.103 4.838-3.152-.321-5.238-1.83-6.379-3.722-1.155-1.914-1.379-4.28-.673-6.357l.438-1.256c1.727-4.953 5.126-14.702 5.945-16.798ZM13.738 40.659a1 1 0 0 1 .604 1.279c-1.4 3.898-3.297 9.29-4.393 12.578a1 1 0 1 1-1.897-.632c1.103-3.311 3.006-8.72 4.407-12.622a1 1 0 0 1 1.28-.603Z"/>
    <path d="M33.566 28.294C34.33 27.189 35.54 26 37.2 26h4.3v2h-4.3c-.64 0-1.33.478-1.99 1.432a9.186 9.186 0 0 0-1.24 2.717l-.248.969-1.938-.494.247-.97c.224-.877.743-2.216 1.535-3.36ZM45.8 26c1.675 0 2.911 1.26 3.677 2.386.798 1.174 1.326 2.546 1.503 3.414l.2.98-1.96.4-.2-.98c-.123-.603-.545-1.73-1.197-2.69C47.14 28.506 46.425 28 45.8 28h-4.3v-2h4.3Z"/>
    <path d="M18.923 9.863C20.172 8.675 21.93 8 24 8h36.5v2H24c-1.63 0-2.871.525-3.698 1.312C19.476 12.098 19 13.205 19 14.5c0 2.47 2.07 4.5 5 4.5h13c2.03 0 3.45 1.108 4.313 2.582.841 1.436 1.187 3.251 1.187 4.918a1 1 0 1 1-2 0c0-1.433-.304-2.868-.913-3.907C39.001 21.593 38.171 21 37 21H24c-3.87 0-7-2.77-7-6.5 0-1.805.674-3.448 1.923-4.637ZM61.5 9a1 1 0 0 1-1 1V8a1 1 0 0 1 1 1ZM29.5 58a2.5 2.5 0 1 0 0 5 2.5 2.5 0 0 0 0-5ZM25 60.5a4.5 4.5 0 1 1 9 0 4.5 4.5 0 0 1-9 0Z"/>
  </symbol>
  <use class="fr-artwork-decorative" href="#artwork-decorative"/>
  <use class="fr-artwork-minor" href="#artwork-minor"/>
  <use class="fr-artwork-major" href="#artwork-major"/>
</svg>
