<svg width="80px" height="80px" viewBox="0 0 80 80" xmlns="http://www.w3.org/2000/svg">
  <style>
		.fr-artwork-decorative {
			fill: #ECECFF;
		}
		.fr-artwork-minor {
			fill: #E1000F;
		}
		.fr-artwork-major {
			fill: #000091;
		}
	</style>
  <symbol id="artwork-decorative">
    <path d="M61 73a1.001 1.001 0 0 1 0-2 1.001 1.001 0 0 1 0 2Zm8-63a1.001 1.001 0 0 1 0-2 1.001 1.001 0 0 1 0 2Zm-55 2a1.001 1.001 0 0 1 0-2 1.001 1.001 0 0 1 0 2Z"/>
  </symbol>
  <symbol id="artwork-minor">
    <path d="M40 19a4 4 0 1 0 0 8 4 4 0 0 0 0-8Zm-6 4a6 6 0 1 1 12 0 6 6 0 0 1-12 0Zm-19.276-7.69a1 1 0 0 1-.034 1.414C9.335 21.825 6 29.022 6 37a1 1 0 1 1-2 0c0-8.547 3.576-16.261 9.31-21.724a1 1 0 0 1 1.414.034Z"/>
  </symbol>
  <symbol id="artwork-major">
    <path d="M57.042 29.032a2.559 2.559 0 0 1 1.102 4.988l-11.419 3.262a1 1 0 0 0-.725.962v6.347l4.216 14.335a2.97 2.97 0 0 1-5.632 1.881L40 48.583l-4.584 12.224a2.97 2.97 0 0 1-5.632-1.881L34 44.59v-6.347a1 1 0 0 0-.725-.962l-11.42-3.262a2.559 2.559 0 0 1 1.103-4.988l16.886 2.666c.103.016.209.016.312 0l16.886-2.666ZM58 31.559a.559.559 0 0 0-.646-.552l-16.886 2.667c-.31.049-.626.049-.936 0l-16.886-2.667a.559.559 0 0 0-.24 1.09l11.418 3.262A3 3 0 0 1 36 38.244v6.491c0 .096-.014.19-.04.282L31.702 59.49a.97.97 0 0 0 1.84.615l5.52-14.721a1 1 0 0 1 1.873 0l5.52 14.721a.971.971 0 0 0 1.841-.615L44.04 45.017a1.001 1.001 0 0 1-.041-.282v-6.491a3 3 0 0 1 2.176-2.885l11.419-3.262a.559.559 0 0 0 .405-.538Z M40 12c-15.464 0-28 12.536-28 28s12.536 28 28 28c5.92 0 11.409-1.836 15.93-4.97a1 1 0 1 1 1.14 1.644A29.866 29.866 0 0 1 40 70c-16.569 0-30-13.431-30-30 0-16.569 13.431-30 30-30 16.569 0 30 13.431 30 30a1 1 0 1 1-2 0c0-15.464-12.536-28-28-28Zm27.22 38.075a1 1 0 0 1 .546 1.305 30.058 30.058 0 0 1-5.101 8.276 1 1 0 0 1-1.51-1.312 28.059 28.059 0 0 0 4.76-7.724 1 1 0 0 1 1.306-.545Z"/>
  </symbol>
  <use class="fr-artwork-decorative" href="#artwork-decorative"/>
  <use class="fr-artwork-minor" href="#artwork-minor"/>
  <use class="fr-artwork-major" href="#artwork-major"/>
</svg>
