<svg width="80px" height="80px" viewBox="0 0 80 80" xmlns="http://www.w3.org/2000/svg">
  <style>
    .fr-artwork-decorative {
      fill: #ECECFF;
    }
    .fr-artwork-minor {
      fill: #E1000F;
    }
    .fr-artwork-major {
      fill: #000091;
    }
  </style>
  <symbol id="artwork-decorative">
    <path d="M61 74a1.001 1.001 0 0 1 0-2 1.001 1.001 0 0 1 0 2ZM69 10a1.001 1.001 0 0 1 0-2 1.001 1.001 0 0 1 0 2ZM11 14a1.001 1.001 0 0 1 0-2 1.001 1.001 0 0 1 0 2Z"/>
  </symbol>
  <symbol id="artwork-minor">
    <path d="M29.833 17.07a1 1 0 0 1-.28 1.387c-2.253 1.497-4.409 3.738-5.997 6.208C21.961 27.147 21 29.763 21 32.007a1 1 0 1 1-2 0c0-2.763 1.16-5.757 2.874-8.424 1.722-2.678 4.066-5.126 6.573-6.792a1 1 0 0 1 1.386.28ZM38.707 39.293a1 1 0 0 1 0 1.414l-20 20a1 1 0 0 1-1.414-1.414l20-20a1 1 0 0 1 1.414 0ZM42 37a1 1 0 1 1-2 0 1 1 0 0 1 2 0Z"/>
  </symbol>
  <symbol id="artwork-major">
    <path d="M41.007 20C32.167 20 25 27.166 25 36.007a1 1 0 1 1-2 0C23 26.062 31.062 18 41.007 18c9.59 0 17.427 7.496 17.976 16.948v.002c.017.301.373 6.422-3.222 11.562-1.565 2.238-2.944 4.434-3.28 6.867-.162 1.161-.345 2.337-.509 2.91-1.103 3.862-3.864 6.046-6.266 7.248a16.352 16.352 0 0 1-3.166 1.183 14.396 14.396 0 0 1-1.292.273l-.081.012-.024.003-.008.001h-.003s-.001.001-.125-.991l.125.992a1 1 0 0 1-.25-1.984m0 0 .01-.002.054-.008a12.417 12.417 0 0 0 1.09-.232c.733-.19 1.727-.512 2.775-1.036 2.1-1.05 4.34-2.867 5.238-6.008.117-.409.283-1.428.45-2.635.41-2.962 2.067-5.515 3.623-7.74 3.189-4.558 2.876-10.09 2.864-10.3C56.5 26.662 49.531 20 41.006 20 M41 28c-4.31 0-8 4.118-8 9a1 1 0 1 1-2 0c0-5.755 4.368-11 10-11 5.586 0 10 4.824 10 10.63 0 2.597-.638 5.078-2.229 7.006a1 1 0 1 1-1.542-1.272C48.439 40.897 49 38.918 49 36.63 49 31.8 45.356 28 41 28ZM62.707 15.293a1 1 0 0 1 0 1.414l-5 5a1 1 0 0 1-1.414-1.414l5-5a1 1 0 0 1 1.414 0ZM39 64.5a1 1 0 1 1-2 0 1 1 0 0 1 2 0Z"/>
  </symbol>
  <use class="fr-artwork-decorative" href="#artwork-decorative"/>
  <use class="fr-artwork-minor" href="#artwork-minor"/>
  <use class="fr-artwork-major" href="#artwork-major"/>
</svg>

