<svg width="80px" height="80px" viewBox="0 0 80 80" xmlns="http://www.w3.org/2000/svg">
  <style>
    .fr-artwork-decorative {
      fill: #ECECFF;
    }
    .fr-artwork-minor {
      fill: #E1000F;
    }
    .fr-artwork-major {
      fill: #000091;
    }
  </style>
  <symbol id="artwork-decorative">
    <path d="M61 74a1.001 1.001 0 0 1 0-2 1.001 1.001 0 0 1 0 2ZM69 10a1.001 1.001 0 0 1 0-2 1.001 1.001 0 0 1 0 2ZM6 16a1.001 1.001 0 0 1 0-2 1.001 1.001 0 0 1 0 2Z"/>
  </symbol>
  <symbol id="artwork-minor">
    <path d="M10.207 34.207a1 1 0 0 1-1.414 0l-2.5-2.5a1 1 0 1 1 1.414-1.414l2.5 2.5a1 1 0 0 1 0 1.414Zm4.575 4.096a1 1 0 0 1 1.415-.02l17 16.5a1 1 0 0 1-1.393 1.435l-17-16.5a1 1 0 0 1-.021-1.415ZM10.275 44.811a1 1 0 0 1 1.414-.036l10 9.5a1 1 0 0 1-1.378 1.45l-10-9.5a1 1 0 0 1-.036-1.414ZM25.767 59.82a1 1 0 0 1 1.413-.052l7 6.5a1 1 0 0 1-1.36 1.466l-7-6.5a1 1 0 0 1-.053-1.413ZM39.293 32.707a1 1 0 0 1 0-1.414c3.905-3.905 10.237-3.905 14.142 0 3.905 3.905 3.905 10.237 0 14.142a1 1 0 1 1-1.414-1.414 8 8 0 1 0-11.314-11.314 1 1 0 0 1-1.414 0Z"/>
  </symbol>
  <symbol id="artwork-major">
    <path d="M19.707 17.707a1 1 0 0 1-1.414 0l-4-4a1 1 0 1 1 1.414-1.414l4 4a1 1 0 0 1 0 1.414ZM42 23c-5.259 0-10.229 1.278-14.602 3.176l-.796-1.835C31.177 22.356 36.418 21 42 21c9.136 0 17.096 4.13 22.736 8.456 2.826 2.168 5.095 4.404 6.665 6.237.784.916 1.405 1.744 1.836 2.424.215.339.393.657.521.942.114.253.242.594.242.941 0 .458-.162.963-.365 1.434a12.18 12.18 0 0 1-.909 1.671c-.776 1.22-1.908 2.67-3.36 4.183-2.904 3.025-7.139 6.351-12.48 8.59l-.773-1.845c5.046-2.114 9.06-5.266 11.81-8.13 1.375-1.432 2.42-2.78 3.116-3.871.348-.547.599-1.016.76-1.39.08-.186.133-.337.165-.455a1.309 1.309 0 0 0 .032-.15 1.5 1.5 0 0 0-.062-.16 5.75 5.75 0 0 0-.386-.689c-.366-.578-.924-1.328-1.666-2.194-1.48-1.729-3.648-3.868-6.363-5.95C58.077 26.869 50.537 23 42 23 M65.707 63.707a1 1 0 0 1-1.414 0l-42-42a1 1 0 0 1 1.414-1.414l42 42a1 1 0 0 1 0 1.414ZM55.707 67.707a1 1 0 0 1-1.414 0l-2-2a1 1 0 0 1 1.414-1.414l2 2a1 1 0 0 1 0 1.414Zm-10.5-10.5a1 1 0 0 1-1.414 0l-24.5-24.5a1 1 0 0 1 1.414-1.414l24.5 24.5a1 1 0 0 1 0 1.414Z"/>
  </symbol>
  <use class="fr-artwork-decorative" href="#artwork-decorative"/>
  <use class="fr-artwork-minor" href="#artwork-minor"/>
  <use class="fr-artwork-major" href="#artwork-major"/>
</svg>
