<svg width="80px" height="80px" viewBox="0 0 80 80" xmlns="http://www.w3.org/2000/svg">
  <style>
    .fr-artwork-decorative {
      fill: #ECECFF;
    }
    .fr-artwork-minor {
      fill: #E1000F;
    }
    .fr-artwork-major {
      fill: #000091;
    }
  </style>
  <symbol id="artwork-decorative">
    <path d="M66 75a1.001 1.001 0 0 1 0-2 1.001 1.001 0 0 1 0 2ZM75 7a1.001 1.001 0 0 1 0-2 1.001 1.001 0 0 1 0 2ZM11 14a1.001 1.001 0 0 1 0-2 1.001 1.001 0 0 1 0 2ZM9 72a1.001 1.001 0 0 1 0-2 1.001 1.001 0 0 1 0 2Z"/>
  </symbol>
  <symbol id="artwork-minor">
    <path d="M68.113 59.085a1 1 0 0 1 .514 1.317c-2.348 5.35-6.404 10.726-13.373 12.757a1 1 0 0 1-.56-1.92c6.184-1.802 9.882-6.585 12.102-11.64a1 1 0 0 1 1.317-.514ZM37.89 8.047a1 1 0 0 1 1.256.65 39.335 39.335 0 0 1 1.501 6.668 1 1 0 0 1-1.981.27 37.339 37.339 0 0 0-1.425-6.331 1 1 0 0 1 .649-1.257Zm2.056 11.954a1 1 0 0 1 1.028.971c.13 4.65.904 8.926 1.647 12.045a59.393 59.393 0 0 0 1.002 3.694 39.703 39.703 0 0 0 .41 1.257l.021.059c1.973 4.68 1.579 7.528.19 9.209a4.878 4.878 0 0 1-2.13 1.468 5.43 5.43 0 0 1-1.213.28c-.094.012-.17.025-.23.038.04.375.159.818.306 1.351.083.303.176.64.238.956.06.307.11.685.057 1.057a.99.99 0 0 1-.006.038c-.096.528-.292.979-.593 1.338-.303.36-.667.577-1.019.703-.56.2-1.172.176-1.394.167a1.975 1.975 0 0 0-.067-.002c-.821 0-1.757-.082-2.73-.214l.084.032c.293.112.528.2.689.258l.184.067.047.017.01.004.004.001a1 1 0 0 1-.671 1.884l.335-.942-.335.942-.006-.001-.013-.005-.051-.019-.194-.07a77.249 77.249 0 0 1-3.099-1.224c-1.88-.791-4.237-1.875-6.012-3.01a1 1 0 0 1 .822-1.802l.004.001.014.005.059.017.23.066c.201.056.494.138.86.237.729.196 1.743.459 2.88.72 2.301.53 5.008 1.036 6.89 1.036.092 0 .154.002.21.004.077.003.139.005.246 0 .141-.006.25-.024.332-.053a.338.338 0 0 0 .157-.104c.038-.045.108-.151.154-.385.004-.048 0-.164-.041-.38-.045-.229-.116-.49-.203-.807l-.022-.078c-.151-.548-.352-1.276-.37-1.966a1.44 1.44 0 0 1 .235-.979c.357-.531.995-.792 1.78-.884l.012-.002c.16-.017 1.278-.14 2.018-1.035.69-.834 1.366-2.767-.5-7.18a.95.95 0 0 1-.02-.048l.94-.342-.94.342v-.003l-.003-.006-.007-.02-.026-.073a41.522 41.522 0 0 1-.434-1.33 61.382 61.382 0 0 1-1.036-3.82c-.765-3.208-1.566-7.626-1.702-12.453a1 1 0 0 1 .972-1.027Z M35.24 55.314a1 1 0 0 1 1.329-.482c1.398.653 2.193 1.745 2.025 3.01-.152 1.146-1.06 2.021-2.084 2.404a2.29 2.29 0 0 0-.33.148l-.069.043c.409 1.418.613 2.33.715 2.904.052.296.079.507.091.656.006.07.01.129.01.175.16 1.31-.091 2.563-.775 3.62-.266.41-.58.782-.93 1.102-.448.41-.96.745-1.499.963h-.002c-4.085 1.638-9.082 1.097-13.766-.411-4.708-1.516-9.265-4.062-12.573-6.66a1 1 0 0 1 1.236-1.572c3.13 2.458 7.479 4.888 11.95 6.328 4.497 1.448 8.954 1.843 12.408.46a3.04 3.04 0 0 0 .895-.582c.222-.204.428-.446.602-.715.408-.631.585-1.42.464-2.334a.995.995 0 0 1-.009-.149c0-.008 0-.025-.003-.055a5.54 5.54 0 0 0-.068-.476c-.089-.5-.282-1.373-.7-2.814a1.798 1.798 0 0 1 .435-1.76c.355-.377.832-.6 1.219-.745.53-.198.77-.568.8-.793.014-.105.025-.508-.89-.936a1 1 0 0 1-.481-1.33ZM23.812 27.563c-.398.341-.693.824-.906 1.371a1 1 0 1 1-1.864-.725c.287-.738.742-1.541 1.469-2.164.746-.64 1.728-1.045 2.963-1.045 1.602 0 2.629.715 3.29 1.565.313.402.536.823.703 1.168.076.155.133.279.182.383.075.162.128.275.189.38a1 1 0 1 1-1.728 1.008 8.971 8.971 0 0 1-.329-.658l-.112-.239a4.569 4.569 0 0 0-.484-.814c-.34-.436-.813-.793-1.71-.793-.766 0-1.284.238-1.663.563Z"/>
  </symbol>
  <symbol id="artwork-major">
    <path d="M70.171 38.507a1 1 0 0 1 .783 1.178c-.154.765-.556 2.507-2.004 3.588-.011.191-.027.432-.05.718-.062.768-.175 1.86-.378 3.17-.404 2.612-1.173 6.112-2.63 9.622-1.457 3.508-3.622 7.073-6.847 9.76-3.243 2.704-7.511 4.48-13.075 4.457a1 1 0 1 1 .008-2c5.095.02 8.906-1.591 11.786-3.992 2.899-2.417 4.902-5.673 6.28-8.992 1.378-3.317 2.113-6.65 2.502-9.162.194-1.254.302-2.297.36-3.024a28.603 28.603 0 0 0 .066-1.054l.002-.052V42.715a1 1 0 0 1 .518-.876c.983-.54 1.331-1.703 1.502-2.549a1 1 0 0 1 1.177-.783ZM65.159 7.05a1 1 0 0 1 1.262.638c.057.171.112.343.165.513 1.101 3.513 1.559 6.754 1.66 8.354a1 1 0 0 1-1.997.125c-.09-1.447-.52-4.528-1.571-7.88-.05-.162-.103-.325-.156-.487a1 1 0 0 1 .637-1.263Zm2.815 13.45a1 1 0 0 1 1-1H69c.354 0 .684 0 .959.017.264.015.599.05.904.186.374.165.673.465.807.896.109.348.082.704.046.97-.048.363-.163.858-.302 1.451-.062.268-.13.556-.197.861a48.823 48.823 0 0 0-.75 4.251c-.207 1.546.072 2.814.423 4.046.048.17.1.343.152.52.309 1.04.652 2.196.579 3.365a1 1 0 1 1-1.996-.125c.05-.787-.175-1.553-.484-2.61a82.23 82.23 0 0 1-.175-.603c-.376-1.319-.743-2.903-.482-4.857.254-1.91.541-3.344.78-4.42.09-.406.17-.743.236-1.027.09-.39.159-.68.202-.914-.187-.007-.42-.007-.727-.007a1 1 0 0 1-1-1Z M43.717 55.03c3.813.953 8.002.938 12.202-1.862a1 1 0 0 1 1.11 1.664c-4.8 3.2-9.611 3.185-13.798 2.138a1 1 0 0 1 .486-1.94ZM50.126 28.574c-.132.25-.152.398-.152.426a1 1 0 1 1-2 0c0-.472.167-.949.38-1.354.221-.423.533-.848.913-1.228.752-.751 1.866-1.418 3.207-1.418 1.174 0 2.138.297 2.898.846.754.544 1.23 1.28 1.53 2.033a1 1 0 0 1-1.856.743c-.2-.498-.474-.887-.845-1.155-.365-.263-.9-.467-1.727-.467-.66 0-1.294.334-1.793.832a3.14 3.14 0 0 0-.555.742ZM44 70a1 1 0 1 1-2 0 1 1 0 0 1 2 0Z"/>
  </symbol>
  <use class="fr-artwork-decorative" href="#artwork-decorative"/>
  <use class="fr-artwork-minor" href="#artwork-minor"/>
  <use class="fr-artwork-major" href="#artwork-major"/>
</svg>

