<svg width="80px" height="80px" viewBox="0 0 80 80" xmlns="http://www.w3.org/2000/svg">
  <style>
    .fr-artwork-decorative {
      fill: #ECECFF;
    }
    .fr-artwork-minor {
      fill: #E1000F;
    }
    .fr-artwork-major {
      fill: #000091;
    }
  </style>
  <symbol id="artwork-decorative">
    <path d="M57 75a1.001 1.001 0 0 1 0-2 1.001 1.001 0 0 1 0 2ZM69 10a1.001 1.001 0 0 1 0-2 1.001 1.001 0 0 1 0 2ZM7 24a1.001 1.001 0 0 1 0-2 1.001 1.001 0 0 1 0 2Z"/>
  </symbol>
  <symbol id="artwork-minor">
    <path d="M35 15a5 5 0 1 0 0 10 5 5 0 0 0 0-10Zm-7 5a7 7 0 1 1 14 0 7 7 0 0 1-14 0ZM67 64a1 1 0 1 1-2 0 1 1 0 0 1 2 0ZM25.635 42.769a1 1 0 0 1 .05 1.413A9.961 9.961 0 0 0 23 51c0 5.523 4.477 10 10 10 2.411 0 4.62-.852 6.347-2.272a1 1 0 1 1 1.27 1.544A11.954 11.954 0 0 1 33 63c-6.627 0-12-5.373-12-12 0-3.161 1.224-6.04 3.222-8.182a1 1 0 0 1 1.413-.05ZM16.927 61.185a1 1 0 0 1 1.394.235c.436.613.909 1.197 1.416 1.75a1 1 0 0 1-1.474 1.352 20.096 20.096 0 0 1-1.572-1.942 1 1 0 0 1 .236-1.395Z"/>
  </symbol>
  <symbol id="artwork-major">
    <path d="M31 33a4 4 0 0 1 8 0v9a1 1 0 0 0 1 1h8.494a5 5 0 0 1 4.5 2.819l5.675 11.707a3.855 3.855 0 0 1-6.863 3.51l-4.554-8.458A3 3 0 0 0 44.611 51H36a5 5 0 0 1-5-5V33Zm4-2a2 2 0 0 0-2 2v13a3 3 0 0 0 3 3h8.61a5 5 0 0 1 4.403 2.63l4.554 8.457a1.855 1.855 0 0 0 3.303-1.689l-5.676-11.707a3 3 0 0 0-2.7-1.691H40a3 3 0 0 1-3-3v-9a2 2 0 0 0-2-2ZM58.564 49.1a1 1 0 0 1 1.336.464l5.576 11.5a1 1 0 0 1-1.8.872l-5.576-11.5a1 1 0 0 1 .464-1.336Z M24.798 38.4a1 1 0 0 1-.199 1.4A13.977 13.977 0 0 0 19 51c0 7.732 6.268 14 14 14 3.917 0 7.456-1.607 9.998-4.2a1 1 0 0 1 1.428 1.4A15.955 15.955 0 0 1 33 67c-8.837 0-16-7.163-16-16 0-5.235 2.515-9.882 6.398-12.8a1 1 0 0 1 1.4.2ZM14 50a1 1 0 0 1 1 1c0 2.165.382 4.238 1.08 6.158a1 1 0 0 1-1.879.684A19.963 19.963 0 0 1 13 51a1 1 0 0 1 1-1Z"/>
  </symbol>
  <use class="fr-artwork-decorative" href="#artwork-decorative"/>
  <use class="fr-artwork-minor" href="#artwork-minor"/>
  <use class="fr-artwork-major" href="#artwork-major"/>
</svg>
