<svg xmlns="http://www.w3.org/2000/svg" viewBox="0 0 24 24" width="24" height="24">
<path d="M16.9337 8.96494C16.426 5.03562 13.0675 2 9 2C4.58172 2 1 5.58172 1 10C1 11.8924 1.65707 13.6313 2.7555 15.0011C3.56351 16.0087 4.00033 17.1252 4.00025 18.3061L4 22H13L13.001 19H15C16.1046 19 17 18.1046 17 17V14.071L18.9593 13.2317C19.3025 13.0847 19.3324 12.7367 19.1842 12.5037L16.9337 8.96494ZM3 10C3 6.68629 5.68629 4 9 4C12.0243 4 14.5665 6.25141 14.9501 9.22118L15.0072 9.66262L16.5497 12.0881L15 12.7519V17H11.0017L11.0007 20H6.00013L6.00025 18.3063C6.00036 16.6672 5.40965 15.114 4.31578 13.7499C3.46818 12.6929 3 11.3849 3 10ZM21.1535 18.1024L19.4893 16.9929C20.4436 15.5642 21 13.8471 21 12.0001C21 10.153 20.4436 8.4359 19.4893 7.00722L21.1535 5.89771C22.32 7.64386 23 9.74254 23 12.0001C23 14.2576 22.32 16.3562 21.1535 18.1024Z"/>
</svg>
