<svg xmlns="http://www.w3.org/2000/svg" viewBox="0 0 24 24" width="24" height="24">
<path d="M7.2 2.6C6.5 2.6 5.9 3.2 5.9 3.9C5.9 4.6 6.5 5.2 7.2 5.2C7.9 5.2 8.5 4.6 8.5 3.9C8.5 3.2 7.9 2.6 7.2 2.6Z M15.9 8C15.4 8 15 8.4 15 8.9C15 9.4 15.4 9.8 15.9 9.8C16.4 9.8 16.8 9.4 16.8 8.9C16.8 8.4 16.4 8 15.9 8Z M18.2 13.8C17.5 13.8 16.9 14.4 16.9 15.1C16.9 15.8 17.5 16.4 18.2 16.4C18.9 16.4 19.5 15.8 19.5 15.1C19.5 14.4 18.9 13.8 18.2 13.8Z M14.3 13C14 13 13.8 13.2 13.8 13.5C13.8 13.8 14 14 14.3 14C14.6 14 14.8 13.8 14.8 13.5C14.8 13.2 14.6 13 14.3 13Z M3.5 8.4C3.5 8.4 3.5 8.6 3.6 8.7C3.9 9.3 4.2 9.8 4.8 10.3C5.3 10.8 5.9 11 6.3 11.2C7.8 11.9 8.9 13 9.6 14.6C9.6 14.8 9.8 15 9.8 15.3C10 15.9 10.3 16.4 10.8 16.8C11.1 17.1 11.5 17.4 11.9 17.7C12.2 17.9 12.5 18.2 12.9 18.4C13.1 18.6 13.4 18.7 13.6 18.9C13.8 19.1 13.9 19.1 13.9 19.2C13.9 19.3 14 19.4 14.1 19.6H3.5V8.5M2.5 2.5C1.9 2.5 1.5 2.9 1.5 3.5V20.5C1.5 21.1 1.9 21.5 2.5 21.5H22.5V19.5H17.7C17.2 19.3 16.6 19 16.1 18.7C15.9 18.6 15.7 18.4 15.5 18.1C15.3 17.7 15 17.4 14.6 17.2C14.1 16.8 13.5 16.5 13 16.1C12.7 15.8 12.3 15.6 12 15.3C11.8 15.2 11.7 15 11.7 14.7C11.7 14.4 11.5 14.1 11.4 13.8C10.5 11.8 9.1 10.3 7.1 9.4C6.7 9.2 6.4 9 6.1 8.8C5.8 8.6 5.6 8.3 5.5 7.9C5.3 7.5 5.3 7 5.3 6.5C5.3 5.8 5.1 5.2 4.7 4.7C4.2 4.1 3.6 2.8 3 2.6C2.9 2.6 2.7 2.5 2.6 2.5H2.5Z M11.2 7.6C10.5 7.6 9.9 8.2 9.9 8.9C9.9 9.6 10.5 10.2 11.2 10.2C11.9 10.2 12.5 9.6 12.5 8.9C12.5 8.2 11.9 7.6 11.2 7.6Z"/>
</svg>
