<svg xmlns="http://www.w3.org/2000/svg" viewBox="0 0 24 24" width="24" height="24">
<path d="M10.215 8.63506C10.536 7.84606 10.843 7.14906 11.154 6.50206C11.761 5.23806 12.685 4.46106 13.977 4.12606C15.188 3.81406 16.173 4.09206 16.989 4.97906C17.178 5.18606 17.313 5.42406 17.394 5.70006C16.679 5.34006 15.815 5.35606 15.111 5.79106C14.068 6.43706 13.606 7.59406 13.933 8.73906C14.095 9.30606 14.405 9.81706 14.91 10.3461C16.757 12.2851 20.029 12.3111 21.985 12.3271L22.001 10.3271C20.362 10.3141 17.62 10.2911 16.357 8.96606C16.082 8.67606 15.927 8.43706 15.856 8.18906C15.825 8.08306 15.732 7.75806 16.163 7.49206C16.255 7.43406 16.457 7.40706 16.609 7.57306C17.081 8.08806 17.784 8.24306 18.447 7.97706C19.099 7.71406 19.489 7.12806 19.489 6.41006C19.489 5.30706 19.144 4.37106 18.463 3.62706C17.136 2.18506 15.413 1.68806 13.475 2.19006C11.631 2.66806 10.205 3.86006 9.35198 5.63606C9.02398 6.32006 8.69998 7.05406 8.36498 7.87906C7.69198 9.52206 6.55398 10.4461 4.88398 10.7021C4.22498 10.8041 2.76798 10.8861 2.00098 10.8861V12.8861C2.77198 12.8861 4.35798 12.8071 5.18898 12.6791C7.57698 12.3121 9.26698 10.9521 10.215 8.63506Z M19.098 16.0151C18.336 16.0151 17.575 15.7531 16.939 15.2271C16.494 14.8581 16.021 14.6741 15.546 14.6741C15.08 14.6741 14.613 14.8511 14.173 15.2071C13.508 15.7441 12.746 16.0131 11.985 16.0131C11.224 16.0131 10.47 15.7461 9.81098 15.2121C9.36698 14.8521 8.90098 14.6721 8.43498 14.6721C7.96398 14.6721 7.49298 14.8571 7.04698 15.2251C6.41898 15.7441 5.69798 16.0101 4.88698 16.0101C4.87198 16.0101 4.85698 16.0101 4.84198 16.0101C4.07298 16.0011 3.39298 15.7481 2.78398 15.2781C2.54698 15.0951 2.28798 14.9421 2.00598 14.7541V22.0001H21.984V14.7571C21.71 14.9361 21.456 15.0741 21.233 15.2531C20.599 15.7611 19.848 16.0151 19.098 16.0151ZM19.986 20.0001H4.00598V17.9401C4.27198 17.9831 4.54298 18.0061 4.81898 18.0101C4.82698 18.0101 4.87998 18.0101 4.88798 18.0101C6.14998 18.0101 7.33798 17.5801 8.32198 16.7671C8.37298 16.7251 8.41198 16.7001 8.43698 16.6861C8.46298 16.7001 8.50198 16.7251 8.55298 16.7661C9.55898 17.5821 10.746 18.0131 11.985 18.0131C13.224 18.0131 14.416 17.5811 15.428 16.7641C15.481 16.7211 15.521 16.6971 15.545 16.6851C15.565 16.6951 15.594 16.7131 15.632 16.7411C15.643 16.7501 15.654 16.7601 15.665 16.7691C16.637 17.5731 17.857 18.0161 19.098 18.0161C19.396 18.0161 19.693 17.9901 19.986 17.9401V20.0001Z"/>
</svg>
