<svg width="80px" height="80px" viewBox="0 0 80 80" xmlns="http://www.w3.org/2000/svg">
	<symbol id="artwork-decorative">
		<path d="M19,70 C19.5514001,70 20,70.4485529 20,71 C20,71.5514001 19.5514001,72 19,72 C18.4485999,72 18,71.5514001 18,71 C18,70.4485529 18.4485999,70 19,70 Z M67,64 C67.5514001,64 68,64.4485529 68,65 C68,65.5514001 67.5514001,66 67,66 C66.4485999,66 66,65.5514001 66,65 C66,64.4485529 66.4485999,64 67,64 Z M9,30 C9.55140011,30 10,30.4485529 10,31 C10,31.5514001 9.55140011,32 9,32 C8.44859989,32 8,31.5514001 8,31 C8,30.4485529 8.44859989,30 9,30 Z M67,14 C67.5514001,14 68,14.4485529 68,15 C68,15.5514001 67.5514001,16 67,16 C66.4485999,16 66,15.5514001 66,15 C66,14.4485529 66.4485999,14 67,14 Z M31,8 C31.5514001,8 32,8.4485529 32,9 C32,9.55140011 31.5514001,10 31,10 C30.4485999,10 30,9.55140011 30,9 C30,8.4485529 30.4485999,8 31,8 Z"/>
	</symbol>
	<symbol id="artwork-minor">
		<path d="M53.3022726,46.2179257 C55.3885453,46.936287 56.5004356,49.216 55.7820743,51.3022726 C55.0636806,53.3886394 52.7840392,54.5004491 50.6977274,53.7820743 C50.1755319,53.602268 49.8979706,53.0331831 50.077777,52.5109876 C50.2575833,51.9887921 50.8266682,51.7112308 51.3488637,51.8910372 C52.3907982,52.249804 53.5322608,51.6930984 53.8910372,50.6511363 C54.2497858,49.6092547 53.693018,48.4677115 52.6511363,48.1089628 C51.6566129,47.766521 50.5712822,48.2582583 50.1626523,49.2098362 L50.1089628,49.3488637 C49.9291565,49.8710592 49.3600716,50.1486204 48.8378761,49.9688141 C48.3156806,49.7890078 48.0381194,49.2199229 48.2179257,48.6977274 C48.936287,46.6114547 51.216,45.4995644 53.3022726,46.2179257 Z M38.5,28.669873 C38.9782926,28.9460154 39.1421678,29.5576058 38.8660254,30.0358984 C38.589883,30.514191 37.9782926,30.6780662 37.5,30.4019238 C36.0681241,29.5752299 34.2286395,30.0680863 33.4019238,31.5 C32.5752659,32.9318134 33.0681866,34.7714184 34.5,35.5980762 C35.8806772,36.3952106 37.6405381,35.9653389 38.5056944,34.6497985 L38.5980762,34.5 C38.8742186,34.0217074 39.485809,33.8578322 39.9641016,34.1339746 C40.4423942,34.410117 40.6062694,35.0217074 40.330127,35.5 C38.9511844,37.8883986 35.8883986,38.7090696 33.5,37.330127 C31.1116014,35.9511844 30.2909304,32.8883986 31.669873,30.5 C33.0488807,28.1114885 36.1115515,27.2909016 38.5,28.669873 Z"/>
	</symbol>
	<symbol id="artwork-major">
		<path d="M50.5269163,36 L53.5540023,36.0032389 L53.7118701,36.0192783 C54.3753311,36.1274837 54.8790978,36.6703501 54.9433179,37.3329606 L54.9502497,37.4766667 L54.9497575,38.2556283 L54.9532792,38.3854402 C54.9875177,38.9145788 55.3096144,39.382001 55.8267415,39.6222821 L56.3589595,39.844704 L56.5621006,39.9350857 C57.0656241,40.1674193 57.6606238,40.0869 58.0907067,39.7364583 L58.2037206,39.6342233 L58.8471015,38.997722 L58.9852821,38.8885185 C59.5267013,38.5169979 60.2481195,38.5499976 60.7557927,38.9616 L60.8689745,39.0632942 L63.0104308,41.2110039 L63.1194248,41.3491972 C63.4896568,41.8900627 63.4559877,42.6107511 63.0451874,43.1176458 L62.9437048,43.2306472 L62.3901112,43.7843068 L62.2968996,43.8824937 C61.9210294,44.3112114 61.83203,44.9307116 62.0794292,45.4630067 C62.1416541,45.5999195 62.2025296,45.7417574 62.2585933,45.8800043 L62.3850421,46.1999382 C62.592844,46.6683149 63.0518718,46.9931671 63.5729012,47.0432494 L63.7163952,47.0499972 L64.6040023,47.0532389 L64.7618701,47.0692783 C65.4253311,47.1774837 65.9290978,47.7203501 65.9933179,48.3829606 L66.0002497,48.5266667 L65.9970108,51.5537526 L65.9809713,51.7116204 C65.872766,52.3750815 65.3298996,52.8788481 64.667289,52.9430683 L64.523583,52.95 L63.7365451,52.9497286 L63.6094235,52.9521258 C63.0904558,52.9816915 62.6219675,53.3001544 62.3862368,53.7926193 L62.3278544,53.9311556 L62.2508328,54.1252243 C62.1934649,54.2657259 62.131514,54.4093807 62.0639497,54.5578426 C61.8311982,55.0584646 61.9124725,55.6552321 62.2664354,56.0870197 L62.3697005,56.2004934 L63.0025276,56.8402218 L63.1117312,56.9784024 C63.4832518,57.5198216 63.4502521,58.2412399 63.0395501,58.7480111 L62.9380802,58.8609684 L60.7865874,61.0127194 L60.648353,61.121455 C60.1082614,61.489879 59.3884174,61.4549792 58.8824007,61.0447687 L58.7696025,60.9434552 L58.2173234,60.3911577 L58.1186946,60.2978947 C57.6881955,59.9217242 57.0705235,59.8326208 56.5405632,60.0776413 C56.4018439,60.1407088 56.2593996,60.2018853 56.1207711,60.2581239 L55.8003115,60.3847924 C55.3319348,60.5925943 55.0070825,61.0516221 54.9570002,61.5726515 L54.9502525,61.7161455 L54.9470108,62.6037526 L54.9309713,62.7616204 C54.822766,63.4250815 54.2798996,63.9288481 53.617289,63.9930683 L53.473583,64 L50.446497,63.9967611 L50.2886292,63.9807217 C49.6251682,63.8725163 49.1214016,63.3296499 49.0571814,62.6670394 L49.0502497,62.5233333 L49.0506864,61.7425515 L49.0474287,61.6136831 C49.0143929,61.0881812 48.6948222,60.6214355 48.1850394,60.3812533 L47.6456538,60.1554598 L47.4550671,60.0707939 C46.9503443,59.8465767 46.7229496,59.2556541 46.9471668,58.7509313 C47.1553685,58.2822601 47.67976,58.0527137 48.1577202,58.2018334 L48.2670294,58.243031 L48.4380512,58.3192539 L48.7675653,58.4586647 C49.9988471,58.9035022 50.8670988,60.0026782 51.025895,61.3128347 L51.0450218,61.5213902 L51.0502497,61.713 L51.0510482,62 L52.9510482,62 L52.9502542,61.7179547 C52.947898,60.4181183 53.6746528,59.2298089 54.8335881,58.6328238 L55.0201261,58.543547 L55.4518576,58.3706599 L55.7070001,58.2596392 C56.8828827,57.7159348 58.256889,57.8766006 59.2913304,58.6760659 L59.4605009,58.8152136 L59.6077976,58.9539483 L59.8160482,59.161 L61.1560482,57.816 L60.9581805,57.6173861 C59.9734634,56.6414238 59.6690044,55.1748408 60.1662772,53.9103085 L60.2468962,53.7222306 L60.3247381,53.5466329 L60.3954684,53.3785509 L60.4592624,53.2186543 C60.9107173,51.9857289 62.019827,51.1188074 63.3310999,50.9707838 L63.5292501,50.9540161 L63.7132497,50.95 L64.0010482,50.95 L64.0010482,49.05 L63.7182043,49.0499955 C62.418368,49.0523517 61.2300585,48.3255968 60.6330735,47.1666616 L60.5437967,46.9801236 L60.4072555,46.6368285 L60.2622302,46.2982998 C59.7148042,45.1206701 59.8751609,43.7419394 60.6770336,42.7072309 L60.8166076,42.5380583 L60.954198,42.392452 L61.1620482,42.185 L59.8220482,40.845 L59.6185319,41.0478372 C58.6430973,42.0261823 57.1834106,42.3280047 55.9243169,41.8365952 L55.7370429,41.7569199 L55.565375,41.680409 L55.2502523,41.5462205 C54.0092431,41.1052888 53.1330729,40.0008246 52.9742566,38.6809273 L52.9558583,38.4813829 L52.9502497,38.287 L52.9510482,38 L51.0510482,38 L51.0502452,38.2820453 C51.0526014,39.5818817 50.3258465,40.7701911 49.1669112,41.3671762 L48.9803732,41.456453 L48.8147473,41.5231668 C48.6358223,41.591382 48.4578067,41.6656823 48.2876871,41.7430257 C47.7849237,41.9716028 47.1920552,41.749331 46.9634781,41.2465677 C46.734901,40.7438043 46.9571729,40.1509358 47.4599362,39.9223587 C47.5986554,39.8592912 47.7410997,39.7981147 47.8797282,39.7418761 L48.2001879,39.6152076 C48.6685646,39.4074057 48.9934168,38.9483779 49.0434991,38.4273485 L49.0502468,38.2838545 L49.0534885,37.3962474 L49.069528,37.2383796 C49.1777334,36.5749185 49.7205998,36.0711519 50.3832103,36.0069317 L50.5269163,36 Z M33.8581608,16 L37.7371625,16.0032584 L37.9176113,16.0211833 C38.6463562,16.1403961 39.1981521,16.7397383 39.26428,17.46885 L39.2709385,17.6162988 L39.2704493,18.6327298 L39.2754594,18.8103929 C39.3274609,19.6164841 39.8237342,20.3256808 40.5968816,20.6700753 L40.7667329,20.7381928 L41.2594907,20.9461661 L41.5176435,21.0613421 C42.2806266,21.4144609 43.1828145,21.2837852 43.8237609,20.7375933 L43.9569621,20.6142171 L44.7664431,19.8093926 L44.923613,19.6840677 C45.5190799,19.2742218 46.3147462,19.3130205 46.870756,19.7712979 L46.9860725,19.8759102 L49.728071,22.6324778 L49.8525671,22.7898567 C50.2581512,23.3841625 50.2189677,24.1774175 49.7641453,24.7325824 L49.6603322,24.8477428 L48.9406848,25.5698476 L48.8136739,25.7043714 C48.252714,26.3461408 48.1200453,27.2724083 48.4870326,28.0643545 C48.5655546,28.2376489 48.6424175,28.4172825 48.7137876,28.5938545 L48.8798937,29.0147398 C49.1963649,29.7302133 49.8981601,30.2197092 50.6890543,30.2805263 L50.8597874,30.2869233 L51.9809387,30.2901854 L52.0806084,30.2982512 C52.6310936,30.3427992 53.0412367,30.825169 52.9966887,31.3756541 C52.9553226,31.8868189 52.5364471,32.2769745 52.0360695,32.2944353 L51.9192857,32.2917343 L51.9002738,32.286927 L50.8616021,32.2869217 C49.2832256,32.2897914 47.8416367,31.3988119 47.1302302,29.9884359 L47.0378019,29.7929277 L46.9539291,29.5842089 C46.8940128,29.4265752 46.8304323,29.2691851 46.7659444,29.1182791 L46.6688769,28.8975632 C46.0047812,27.4646243 46.2057961,25.785289 47.1860352,24.5374225 L47.331361,24.3621643 L47.5026703,24.180164 L47.9779471,23.704 L45.8399471,21.56 L45.3739098,22.0256896 C44.1904786,23.2162477 42.4149967,23.5785501 40.8881838,22.9674739 L40.6905136,22.8822362 L40.4638827,22.7809945 L40.0425463,22.6016159 C38.5401476,22.0661952 37.4819362,20.7223234 37.29769,19.1253346 L37.278023,18.9060467 L37.2709385,18.6640068 L37.2709471,18 L34.2439471,18 L34.243718,18.6581372 C34.2465746,20.2387516 33.3590502,21.6834123 31.9523231,22.3971641 L31.7573133,22.4899076 L31.5491027,22.5740826 C31.391621,22.6343043 31.2346867,22.6981017 31.0826953,22.7635157 L30.8589647,22.8626042 C29.4299128,23.5253707 27.7580036,23.3229805 26.5123648,22.3413977 L26.3373884,22.1958802 L26.154146,22.0229364 L25.6859471,21.554 L23.5459471,23.7 L24.0079068,24.1646821 C25.2013888,25.3511366 25.5650836,27.1368813 24.9534569,28.6637684 L24.8681364,28.8613891 L24.7674036,29.0882717 L24.5823568,29.528057 C24.0428198,31.0259851 22.7033494,32.0798703 21.1154822,32.2610379 L20.897467,32.280293 L20.6589281,32.286927 L19.9999471,32.287 L19.9999471,35.33 L20.6530598,35.3293772 C22.2314362,35.3265074 23.6730252,36.2174869 24.3844316,37.6278629 L24.47686,37.8233711 L24.5607327,38.0320899 C24.620649,38.1897236 24.6842296,38.3471137 24.7487174,38.4980197 L24.845785,38.7187356 C25.5098806,40.1516745 25.3088658,41.8310098 24.3286266,43.0788763 L24.1833009,43.2541346 L24.011986,43.4361404 L23.5399471,43.912 L25.6799471,46.058 L26.1455,45.5906092 C27.3289312,44.4000511 29.1044131,44.0377487 30.6311287,44.6487816 L31.0548613,44.8349986 L31.4930074,45.0204846 C32.9873547,45.5619979 34.0375152,46.9047609 34.2179407,48.4949704 L34.2371133,48.7132988 L34.2439471,49 L38.0019471,49 L38.0032128,48.4462735 L38.0192522,48.2884057 C38.1274576,47.6249446 38.670324,47.121178 39.3329345,47.0569578 L39.4766405,47.0500261 L40.2574224,47.0504629 L40.3862908,47.0472052 C40.9117927,47.0141693 41.3785384,46.6945987 41.6187206,46.1848159 L41.844514,45.6454303 L41.9362738,45.4392369 C42.1690253,44.9386148 42.0877511,44.3418474 41.7337882,43.9100598 L41.630523,43.7965861 L40.9976959,43.1568576 L40.8884924,43.0186771 C40.5169718,42.4772578 40.5499714,41.7558396 40.9615739,41.2481664 L41.0632681,41.1349846 L43.2098989,38.9944226 L43.2756708,38.939828 C43.7006311,38.5870856 44.3310837,38.6456297 44.6838261,39.0705899 C45.0094345,39.4628609 44.9845976,40.030226 44.6446071,40.3926333 L44.5530642,40.4787452 L44.5557006,40.4709898 L42.8453675,42.1828874 L43.042043,42.3796934 C44.0267602,43.3556557 44.3312191,44.8222387 43.8370696,46.0798231 L43.68072,46.4378276 L43.5413091,46.7673417 C43.0964717,47.9986235 41.9972957,48.8668753 40.6871392,49.0256714 L40.4785837,49.0447982 L40.2869739,49.0500261 L40.0003675,49.0508874 L40.0003675,50.9508874 L40.2820192,50.9500306 C41.5818555,50.9476744 42.770165,51.6744293 43.3671501,52.8333645 L43.4564269,53.0199026 L43.5231407,53.1855285 C43.5685005,53.304505 43.6166404,53.4233123 43.6651805,53.5366009 L43.7379933,53.7017263 C44.2854193,54.879356 44.1250627,56.2580867 43.32319,57.2927952 L43.1836159,57.4619678 L43.0460199,57.6075797 L42.8403675,57.8138874 L44.5491495,59.522522 C44.9096326,59.8830068 44.9373607,60.450238 44.6323348,60.8425284 L44.5491459,60.9367355 C44.188661,61.2972186 43.6214299,61.3249467 43.2291395,61.0199208 L43.1349324,60.9367319 L40.9946969,58.7904943 L40.8853386,58.6524627 C40.5130639,58.111439 40.5449796,57.3900921 40.9563133,56.8813703 L41.0579605,56.7679262 L41.6101124,56.2157194 L41.7033239,56.1175324 C42.0791941,55.6888147 42.1681935,55.0693145 41.9207943,54.5370194 C41.8585694,54.4001066 41.797694,54.2582688 41.7416302,54.1200219 L41.6151815,53.8000879 C41.4073795,53.3317112 40.9483518,53.006859 40.4273224,52.9567767 L40.2838284,52.950029 L39.3962212,52.9467872 L39.2383534,52.9307478 C38.5748924,52.8225424 38.0711258,52.279676 38.0069056,51.6170655 L37.9999739,51.4733595 L37.9999471,51 L33.2437234,51 C32.7308875,51 32.3082162,50.6139598 32.2504511,50.1166211 L32.2437234,50 L32.2441575,48.9817543 L32.2395058,48.8053138 C32.189302,48.0043017 31.6969049,47.2960375 30.9327468,46.9508731 L30.7649011,46.8825654 L30.2604424,46.6703304 L30.0017663,46.5549567 C29.2387832,46.201838 28.3365953,46.3325136 27.6956489,46.8787056 L27.5624477,47.0020817 L26.7529667,47.8069062 L26.5957968,47.9322311 C26.0003298,48.342077 25.2046636,48.3032783 24.6486537,47.8450009 L24.5333373,47.7403887 L21.7925568,44.9852941 L21.6675448,44.827967 C21.2596077,44.2333195 21.2968586,43.4393854 21.7522194,42.8822761 L21.8561865,42.7666794 L22.573977,42.0464512 L22.700988,41.9119274 C23.2619479,41.270158 23.3946166,40.3438905 23.0276292,39.5519444 C22.9491073,39.3786499 22.8722444,39.1990163 22.8008742,39.0224443 L22.6347682,38.601559 C22.318297,37.8860855 21.6165017,37.3965896 20.8256076,37.3357725 L20.6548744,37.3293755 L19.5337231,37.3261134 L19.3532743,37.3081885 C18.6245294,37.1889758 18.0727334,36.5896335 18.0066056,35.8605218 L17.9999471,35.713073 L18.0031665,31.8230478 L18.0209514,31.6427622 C18.1394895,30.9137443 18.7374837,30.3599829 19.4668605,30.2936105 L19.6143845,30.286927 L20.6292872,30.2873664 L20.8048954,30.2827145 C21.6012148,30.2325019 22.3064478,29.7391791 22.6506521,28.9722301 L22.7187859,28.8037575 L22.9303275,28.2978926 L23.0465264,28.0358928 C23.4024847,27.2679474 23.2677458,26.3517786 22.7111657,25.7050647 L22.5942455,25.5794384 L21.7966351,24.7722817 L21.6718233,24.6148161 C21.2647426,24.0197778 21.3031857,23.2257628 21.7588758,22.6697752 L21.8628998,22.5544376 L24.6101235,19.8049758 L24.7672181,19.6795421 C25.3622468,19.2693965 26.1576935,19.3072445 26.7150191,19.7651446 L26.8306415,19.8696852 L27.5467976,20.5878371 L27.6814234,20.7152194 C28.3219344,21.276594 29.2390001,21.4092877 30.0233168,21.0455595 C30.1984928,20.9656759 30.3784403,20.8881594 30.5550079,20.8163318 L30.9751272,20.6495126 C31.6878991,20.3323232 32.1766082,19.6272899 32.2373325,18.8317018 L32.2437197,18.6599409 L32.2469428,17.5361208 L32.2647276,17.3558352 C32.3832657,16.6268173 32.98126,16.0730559 33.7106368,16.0066835 L33.8581608,16 Z M65,30 C65.5522847,30 66,30.4477153 66,31 C66,31.5128358 65.6139598,31.9355072 65.1166211,31.9932723 L65,32 L61,32 C60.4477153,32 60,31.5522847 60,31 C60,30.4871642 60.3860402,30.0644928 60.8833789,30.0067277 L61,30 L65,30 Z M57,30 C57.5514001,30 58,30.4485999 58,31 C58,31.5514471 57.5514001,32 57,32 C56.4485999,32 56,31.5514471 56,31 C56,30.4485999 56.4485999,30 57,30 Z"/>
	</symbol>
  <use class="fr-artwork-major" href="#artwork-major"/>
  <use class="fr-artwork-minor" href="#artwork-minor"/>
  <use class="fr-artwork-major" href="#artwork-major"/>
</svg>
