<svg xmlns="http://www.w3.org/2000/svg" viewBox="0 0 24 24" width="24" height="24">
<path d="M18.1537 19.5647C14.6255 22.8743 9.08161 22.8063 5.6362 19.3609C2.19078 15.9155 2.12284 10.3716 5.43239 6.84342L1.39355 2.80457L2.80777 1.39036L22.6068 21.1893L21.1925 22.6035L18.1537 19.5647ZM6.84756 8.25858C4.3185 11.0047 4.38612 15.2824 7.05041 17.9467C9.7147 20.611 13.9924 20.6786 16.7385 18.1495L6.84756 8.25858ZM20.4144 16.197L18.8156 14.5981C19.3488 12.3188 18.7269 9.82419 16.9499 8.04722L12.0002 3.09747L9.65751 5.44011L8.24331 4.0259L12.0002 0.269043L18.3641 6.633C20.9499 9.21876 21.6333 12.9864 20.4144 16.197Z"/>
</svg>
