<svg xmlns="http://www.w3.org/2000/svg" viewBox="0 0 24 24" width="24" height="24">
<path d="M16.3303 13.4969C17.9562 12.215 19 10.2277 19 7.99658H21C21 10.9686 19.5595 13.6042 17.3385 15.2431L19.8661 19.621C20.4183 20.5775 20.0906 21.8007 19.134 22.353L15.6073 16.2446C14.5029 16.7282 13.2828 16.9966 12 16.9966C10.7172 16.9966 9.49712 16.7282 8.39278 16.2446L4.86606 22.353C3.90947 21.8007 3.58172 20.5775 4.13401 19.621L9.19751 10.8507C8.45844 10.1249 8.00003 9.11427 8.00003 7.99658C8.00003 6.13274 9.2748 4.56664 11 4.1226V1.99658H13V4.1226C14.7253 4.56664 16 6.13274 16 7.99658C16 9.11427 15.5416 10.1249 14.8025 10.8507L16.3303 13.4969ZM14.599 14.4982L13.071 11.8516C12.7302 11.9461 12.371 11.9966 12 11.9966C11.6291 11.9966 11.2699 11.9461 10.929 11.8516L9.40101 14.4982C10.2046 14.8197 11.0817 14.9966 12 14.9966C12.9184 14.9966 13.7955 14.8197 14.599 14.4982ZM12 9.99658C13.1046 9.99658 14 9.10115 14 7.99658C14 6.89201 13.1046 5.99658 12 5.99658C10.8955 5.99658 10 6.89201 10 7.99658C10 9.10115 10.8955 9.99658 12 9.99658Z"/>
</svg>
