<svg width='80px' height='80px' fill='none' viewBox='0 0 80 80' xmlns='http://www.w3.org/2000/svg' focusable='false' aria-hidden='true'>
	<path fill-rule="evenodd" clip-rule="evenodd" d="M28.8896 46.5774C28.9689 47.124 28.5901 47.6313 28.0435 47.7106L25.1535 48.1296C24.6069 48.2089 24.0996 47.8301 24.0203 47.2835C23.9411 46.7369 24.3199 46.2296 24.8665 46.1503L27.7565 45.7313C28.303 45.652 28.8104 46.0308 28.8896 46.5774Z" fill="#E1000F"/>
	<path fill-rule="evenodd" clip-rule="evenodd" d="M24.0133 48.944C23.7021 49.4599 23.5238 50.1909 23.6103 51.0106C23.6967 51.8302 24.0237 52.508 24.4355 52.9476C24.8469 53.3866 25.294 53.548 25.6836 53.5069C26.0732 53.4658 26.4768 53.2147 26.7875 52.6995C27.0986 52.1837 27.2769 51.4526 27.1905 50.6329C27.104 49.8133 26.7771 49.1355 26.3652 48.6959C25.9539 48.2569 25.5067 48.0955 25.1172 48.1366C24.7276 48.1777 24.324 48.4289 24.0133 48.944ZM22.3006 47.9111C22.8572 46.9882 23.759 46.2687 24.9074 46.1476C26.0557 46.0265 27.0877 46.542 27.8247 47.3284C28.5611 48.1143 29.0516 49.2106 29.1795 50.4231C29.3074 51.6357 29.0564 52.8102 28.5002 53.7325C27.9435 54.6554 27.0417 55.3748 25.8934 55.4959C24.7451 55.617 23.713 55.1016 22.9761 54.3151C22.2397 53.5292 21.7492 52.433 21.6213 51.2204C21.4934 50.0078 21.7444 48.8333 22.3006 47.9111Z" fill="#E1000F"/>
	<path fill-rule="evenodd" clip-rule="evenodd" d="M32.059 50.6876C32.5744 50.8858 32.8316 51.4644 32.6333 51.9799C32.3337 52.7589 31.8931 53.3994 31.5409 53.8362C31.3626 54.0573 31.2011 54.2333 31.0818 54.3563C31.022 54.4179 30.9724 54.4667 30.936 54.5016C30.9177 54.519 30.9028 54.5331 30.8915 54.5435L30.8774 54.5566L30.8724 54.5611L30.8705 54.5628L30.8697 54.5636C30.8697 54.5636 30.869 54.5642 30.2 53.8209L30.8697 54.5636C30.724 54.6947 30.5422 54.7808 30.3483 54.8099L26.3483 55.4099C25.8022 55.4918 25.293 55.1154 25.2111 54.5693C25.1291 54.0231 25.5055 53.5139 26.0517 53.432L29.7246 52.881C29.7983 52.8016 29.8875 52.7005 29.9841 52.5807C30.2569 52.2424 30.5663 51.783 30.7666 51.2619C30.9649 50.7465 31.5435 50.4893 32.059 50.6876Z" fill="#E1000F"/>
	<path fill-rule="evenodd" clip-rule="evenodd" d="M20.1978 32.5053C20.7035 32.2832 21.2935 32.5131 21.5156 33.0188L22.4156 35.0678C22.6377 35.5735 22.4078 36.1635 21.9021 36.3856C21.3965 36.6077 20.8065 36.3778 20.5844 35.8721L19.6844 33.8231C19.4623 33.3174 19.6922 32.7274 20.1978 32.5053Z" fill="#E1000F"/>
	<path fill-rule="evenodd" clip-rule="evenodd" d="M21.0784 36.9873C20.9012 37.3426 20.8144 37.8511 20.9183 38.4194C21.0222 38.9878 21.2834 39.4326 21.5748 39.7022C21.866 39.9714 22.1328 40.0272 22.3242 39.9922C22.5156 39.9572 22.7454 39.8106 22.9224 39.4557C23.0995 39.1005 23.1864 38.592 23.0824 38.0236C22.9785 37.4553 22.7173 37.0105 22.4259 36.7409C22.1347 36.4716 21.8679 36.4159 21.6765 36.4509C21.4851 36.4859 21.2554 36.6324 21.0784 36.9873ZM19.2886 36.0947C19.6769 35.316 20.3673 34.6571 21.3167 34.4835C22.2662 34.3098 23.1451 34.6818 23.7839 35.2726C24.4225 35.8632 24.8756 36.711 25.0498 37.6638C25.2241 38.6167 25.1003 39.57 24.7122 40.3483C24.3238 41.127 23.6335 41.7859 22.684 41.9596C21.7345 42.1332 20.8556 41.7613 20.2168 41.1704C19.5783 40.5798 19.1252 39.7321 18.9509 38.7792C18.7766 37.8264 18.9004 36.8731 19.2886 36.0947Z" fill="#E1000F"/>
	<path fill-rule="evenodd" clip-rule="evenodd" d="M27.3899 40.279C27.4682 40.8257 27.0886 41.3324 26.5419 41.4108L22.6419 41.9699C22.0952 42.0482 21.5885 41.6686 21.5101 41.1219C21.4317 40.5752 21.8114 40.0685 22.3581 39.9901L26.2581 39.431C26.8048 39.3527 27.3115 39.7323 27.3899 40.279Z" fill="#E1000F"/>
	<path fill-rule="evenodd" clip-rule="evenodd" d="M50.2513 24.7221C50.6368 24.7033 50.9987 24.908 51.1812 25.2481L53.3812 29.3481C53.5324 29.6299 53.5397 29.9671 53.4008 30.2552C53.2619 30.5433 52.9936 30.7475 52.679 30.8048L52.6771 30.8051L52.6691 30.8066L52.6348 30.813C52.6041 30.8188 52.5578 30.8276 52.4975 30.8393C52.3768 30.8629 52.2002 30.8982 51.98 30.9447C51.539 31.0378 50.9253 31.1752 50.2361 31.352C48.8364 31.7112 47.2045 32.2137 46.0614 32.8081C45.7202 32.9855 45.3076 32.9516 45 32.7209C44.2329 32.1456 43.4863 31.6637 42.9301 31.3251C42.6527 31.1563 42.4244 31.0241 42.2668 30.9349C42.188 30.8904 42.127 30.8566 42.0866 30.8343L42.0416 30.8098L42.0312 30.8043L42.0294 30.8033C41.756 30.6574 41.5655 30.3929 41.5139 30.0873C41.4624 29.7817 41.5554 29.4694 41.7659 29.2419L42.5 29.9209C41.7659 29.2419 41.7659 29.2419 41.7659 29.2419L41.768 29.2396L41.7714 29.2359L41.7824 29.2242L41.8203 29.1843C41.8526 29.1506 41.8987 29.103 41.958 29.0434C42.0765 28.9243 42.2477 28.757 42.4651 28.5569C42.8989 28.1577 43.5219 27.6236 44.2819 27.0817C45.7762 26.0163 47.9167 24.836 50.2513 24.7221ZM44.1535 29.7294C44.5974 30.0041 45.1353 30.3531 45.7053 30.7594C46.9744 30.185 48.5041 29.7317 49.7389 29.4148C50.1951 29.2977 50.6192 29.1973 50.9861 29.1146L49.7346 26.7822C48.1798 27.0203 46.6635 27.8399 45.4431 28.7101C44.9407 29.0683 44.504 29.4239 44.1535 29.7294Z" fill="#E1000F"/>
	<path fill-rule="evenodd" clip-rule="evenodd" d="M58.1991 18.9939C54.9728 16.1314 49.2541 13.2271 39.3298 13.5205C27.9374 13.857 21.588 20.335 18.0398 26.8138C16.2601 30.0634 15.1959 33.3011 14.5772 35.7317C14.2683 36.9451 14.0717 37.9523 13.9527 38.6526C13.8933 39.0027 13.8533 39.2756 13.8284 39.4589C13.8159 39.5505 13.8073 39.6197 13.8018 39.6648L13.796 39.7142L13.7954 39.7203C13.7875 39.8215 13.8288 40.0436 14.1864 40.4086C14.5392 40.7687 15.0782 41.138 15.7291 41.493C16.9752 42.1727 18.4117 42.685 19.1529 42.9493C19.1819 42.9596 19.2098 42.9696 19.2366 42.9792C19.2745 42.9927 19.3115 43.0085 19.3475 43.0265C19.538 43.1218 19.6534 43.2529 19.7097 43.3256C19.7711 43.4049 19.8115 43.4796 19.8362 43.5301C19.8851 43.6302 19.9162 43.7272 19.9357 43.795C19.9763 43.9365 20.0072 44.0981 20.0316 44.2513C20.0816 44.5659 20.1218 44.9607 20.148 45.3544C20.1744 45.7494 20.1883 46.1666 20.1813 46.5276C20.1779 46.7074 20.169 46.8863 20.1514 47.048C20.1363 47.187 20.1068 47.3971 20.0287 47.5923C19.8803 47.9633 19.5744 48.2319 19.4293 48.3594L19.417 48.3702C19.3518 48.4275 19.2913 48.4793 19.2327 48.5294C19.1048 48.639 18.9859 48.7407 18.8473 48.8754C18.4862 49.2265 18.0974 49.7106 17.8581 50.5083C17.8581 50.5083 17.836 50.5971 17.9006 50.818C17.9644 51.0359 18.0932 51.3179 18.3024 51.6585C18.7206 52.3395 19.3861 53.1361 20.2048 53.9487C21.8507 55.5825 23.9516 57.1212 25.5039 57.806L25.5141 57.8105C25.6796 57.8857 25.8623 57.9691 26.061 58.0598C29.8782 59.801 39.5951 64.2333 46.5838 65.5379C54.0407 66.9299 56.0265 66.1646 56.8964 65.6571C56.8999 65.6548 56.9552 65.6167 57.0516 65.4934C57.1469 65.3715 57.2538 65.2033 57.3679 64.9894C57.5966 64.5606 57.8147 64.0231 58.0069 63.4767C58.1972 62.9354 58.3531 62.4111 58.4618 62.0203C58.5159 61.8256 58.5579 61.6656 58.5861 61.5552C58.6002 61.5001 58.6108 61.4575 58.6177 61.4291L58.6254 61.3977L58.6275 61.3893C58.6703 61.2093 58.7623 61.0446 58.8932 60.9138C59.0216 60.7853 59.174 60.6612 59.2887 60.5678C59.3029 60.5562 59.3166 60.5451 59.3295 60.5345C59.4636 60.4248 59.5807 60.3262 59.6932 60.2138C60.0837 59.8233 60.7168 59.8233 61.1074 60.2138C61.4979 60.6043 61.4979 61.2375 61.1074 61.628C60.9198 61.8156 60.7369 61.9671 60.596 62.0824L60.5707 62.1031C60.5424 62.1262 60.517 62.147 60.4939 62.1659C60.4658 62.2735 60.4306 62.4054 60.3887 62.5559C60.2724 62.9745 60.1033 63.544 59.8936 64.1402C59.6858 64.7312 59.4289 65.375 59.1326 65.9306C58.8618 66.4383 58.4648 67.0576 57.9041 67.3847C56.3741 68.2772 53.7598 68.912 46.2168 67.5039C38.9701 66.1512 29.0474 61.6217 25.2576 59.8917C25.0499 59.7969 24.8607 59.7105 24.6913 59.6335C22.8445 58.8174 20.5482 57.1076 18.7958 55.3681C17.9144 54.4933 17.1299 53.5711 16.5981 52.7052C16.3323 52.2724 16.1111 51.8239 15.9811 51.3797C15.8529 50.9415 15.7923 50.434 15.9424 49.9336C16.3031 48.7312 16.9143 47.9653 17.4532 47.4414C17.6404 47.2594 17.8371 47.091 17.9783 46.9701C18.0241 46.9308 18.0641 46.8966 18.096 46.8685C18.1246 46.8434 18.1476 46.8224 18.1658 46.8052C18.1735 46.7256 18.1792 46.6196 18.1817 46.4892C18.1873 46.2002 18.1761 45.8424 18.1525 45.4874C18.1326 45.189 18.1049 44.9088 18.0744 44.6873C17.255 44.3903 15.9495 43.8914 14.7714 43.2488C14.0473 42.8539 13.3113 42.3731 12.7578 41.8082C12.2147 41.2538 11.7142 40.4771 11.8048 39.5261L11.8058 39.5154L11.7956 39.6648L11.806 39.5143L11.8061 39.5125L11.8067 39.5072L11.8087 39.4893L11.8162 39.4255C11.8228 39.3707 11.8327 39.2915 11.8466 39.1896C11.8743 38.9858 11.9176 38.6909 11.981 38.3177C12.1077 37.5715 12.315 36.5108 12.639 35.2383C13.2859 32.697 14.4029 29.2909 16.2857 25.8531C20.0625 18.9568 26.9631 11.8849 39.2707 11.5214C49.6464 11.2147 55.8777 14.2605 59.5265 17.4979C61.3404 19.1074 62.4914 20.7425 63.1919 21.9865C63.5421 22.6084 63.7802 23.1331 63.9327 23.5093C64.0089 23.6974 64.0639 23.8486 64.1009 23.9565C64.1041 23.966 64.1072 23.9751 64.1102 23.9839L64.111 23.9851C64.1625 24.0644 64.2359 24.1793 64.3275 24.3281C64.5107 24.6257 64.7668 25.0594 65.0664 25.615C65.6652 26.7256 66.4401 28.3273 67.1535 30.3069C68.5782 34.26 69.7726 39.7622 68.7875 45.8799L68.7854 45.8933C68.0707 49.9773 66.943 53.2715 65.6947 55.7681C65.4477 56.2621 64.847 56.4623 64.3531 56.2153C63.8591 55.9684 63.6588 55.3677 63.9058 54.8737C65.0569 52.5716 66.1287 49.4681 66.8141 45.5551C67.727 39.8756 66.6218 34.7303 65.272 30.985C64.5979 29.1145 63.8665 27.6037 63.306 26.5643C63.0259 26.0449 62.7891 25.6442 62.6242 25.3762C62.5417 25.2423 62.4773 25.1415 62.4346 25.0758C62.4132 25.043 62.3973 25.0189 62.3872 25.0038L62.3765 24.9879L62.375 24.9856C62.3155 24.8986 62.2698 24.8022 62.2403 24.701L62.2393 24.6977L62.2354 24.685C62.2304 24.6693 62.2217 24.6423 62.2089 24.6049C62.1832 24.5299 62.141 24.4131 62.0792 24.2607C61.9555 23.9556 61.7537 23.5085 61.4492 22.9679C60.8404 21.8868 59.8226 20.4345 58.1991 18.9939Z" fill="#000091"/>
	<path fill-rule="evenodd" clip-rule="evenodd" d="M22.813 13.0382C23.1348 13.4871 23.0318 14.1118 22.583 14.4336C17.5158 18.0666 14.6069 23.5523 12.9383 28.0676C12.7468 28.5856 12.1717 28.8504 11.6536 28.6589C11.1356 28.4675 10.8708 27.8923 11.0623 27.3743C12.7936 22.6895 15.8847 16.7752 21.4176 12.8082C21.8664 12.4864 22.4912 12.5894 22.813 13.0382Z" fill="#000091"/>
	<path fill-rule="evenodd" clip-rule="evenodd" d="M38.241 54.1701C38.6004 53.7508 39.2317 53.7022 39.6511 54.0617C41.7229 55.8375 43.9967 57.7271 46.0577 58.8761C46.1174 58.8892 46.1963 58.9063 46.2932 58.9268C46.5368 58.9784 46.8933 59.0516 47.3406 59.1369C48.2359 59.3076 49.4918 59.526 50.9315 59.7166C53.8338 60.1009 57.3952 60.3596 60.2519 59.931C60.7981 59.8491 61.3073 60.2255 61.3892 60.7716C61.4711 61.3178 61.0948 61.827 60.5486 61.9089C57.4054 62.3804 53.6167 62.0896 50.669 61.6993C49.1838 61.5027 47.8897 61.2776 46.9661 61.1015C46.5041 61.0135 46.1341 60.9375 45.8785 60.8833C45.7506 60.8562 45.6514 60.8346 45.5834 60.8195L45.5053 60.8021L45.4846 60.7974L45.4772 60.7957C45.4772 60.7957 45.4763 60.7955 45.7003 59.8209L45.4772 60.7957C45.3882 60.7753 45.3016 60.7425 45.2214 60.6988C42.9143 59.4404 40.4369 57.3694 38.3495 55.5802C37.9302 55.2208 37.8816 54.5895 38.241 54.1701Z" fill="#000091"/>
	<path fill-rule="evenodd" clip-rule="evenodd" d="M54.2177 17.5277C55.3589 17.645 57.2002 18.1371 59.0474 19.1264C60.9108 20.1244 62.8606 21.6719 64.0814 23.9472C64.3426 24.4338 64.1597 25.04 63.6731 25.3011C63.1864 25.5623 62.5802 25.3795 62.3191 24.8928C61.34 23.0681 59.7397 21.766 58.1031 20.8895C56.46 20.0095 54.8609 19.602 54.0008 19.516C53.9893 19.5148 53.9778 19.5135 53.9663 19.5119C52.1651 19.2685 50.1317 19.0854 47.519 19.7063C44.8952 20.3299 41.6175 21.7825 37.3973 24.9231L37.3927 24.9266C30.7005 29.8473 29.6926 33.4097 29.9828 35.233C30.0318 35.4496 30.1257 35.7009 30.2349 35.9932C30.617 37.0159 31.1869 38.5409 30.6764 40.8378C30.673 40.8533 30.6692 40.8687 30.665 40.884C30.4338 41.7319 30.0074 42.6028 29.6255 43.2731C29.6394 43.2837 29.6534 43.2944 29.6676 43.3052C30.6324 44.0419 32.1954 45.2354 32.9884 45.8122C33.0008 45.8212 33.013 45.8305 33.025 45.84C34.0106 46.6285 34.4429 47.6892 34.635 48.4869C34.7301 48.8821 34.7715 49.2332 34.7891 49.4911C34.8616 49.5617 34.947 49.6447 35.0444 49.7386C35.3895 50.0713 35.8832 50.5404 36.476 51.0838C36.8831 51.457 36.9106 52.0895 36.5374 52.4966C36.1642 52.9038 35.5317 52.9313 35.1245 52.5581C34.5173 52.0014 34.0111 51.5205 33.6561 51.1783C33.4786 51.0071 33.3388 50.8704 33.2429 50.7761C33.1949 50.729 33.158 50.6924 33.1327 50.6674L33.1038 50.6387L33.0941 50.629L33.0933 50.6281C32.8953 50.4301 32.7893 50.1581 32.8012 49.8785L32.8012 49.8765L32.8013 49.8737C32.8015 49.8664 32.8017 49.8522 32.8016 49.8316C32.8015 49.7903 32.8001 49.7243 32.7946 49.6391C32.7834 49.4673 32.7557 49.2255 32.6905 48.955C32.559 48.4084 32.2955 47.8256 31.7917 47.4148C30.9701 46.8163 29.3419 45.573 28.3919 44.8477C28.0515 44.5877 27.7981 44.3943 27.7003 44.3209C27.2757 44.0025 27.1738 43.4078 27.4682 42.9662C27.8452 42.4008 28.468 41.3197 28.7293 40.3802C29.0927 38.7257 28.8062 37.9623 28.4648 37.0529C28.3102 36.6409 28.1443 36.1989 28.0225 35.6304C28.0192 35.6155 28.0164 35.6004 28.0139 35.5853C27.5166 32.6018 29.3285 28.3743 36.2056 23.3169C40.5843 20.0588 44.1059 18.4618 47.0565 17.7605C50.0103 17.0585 52.322 17.2721 54.2177 17.5277Z" fill="#000091"/>
	<path fill-rule="evenodd" clip-rule="evenodd" d="M28.8797 43.2193C28.9911 43.7602 28.6429 44.289 28.1019 44.4004C26.3969 44.7514 24.5988 45.0865 22.9621 45.2292C21.3574 45.369 19.7582 45.3402 18.5289 44.8485C18.0161 44.6434 17.7667 44.0614 17.9718 43.5486C18.1769 43.0358 18.7589 42.7864 19.2717 42.9915C20.0423 43.2998 21.2432 43.3714 22.7884 43.2367C24.3018 43.1048 26.0036 42.7904 27.6986 42.4415C28.2395 42.3301 28.7683 42.6783 28.8797 43.2193Z" fill="#000091"/>
	<path fill-rule="evenodd" clip-rule="evenodd" d="M36.4371 51.049C36.8629 51.4007 36.923 52.031 36.5713 52.4568L32.8529 56.9589L30.907 61.1427C30.6741 61.6434 30.0793 61.8606 29.5785 61.6277C29.0778 61.3947 28.8606 60.8 29.0935 60.2992L31.0935 55.9992C31.1294 55.922 31.175 55.8498 31.2292 55.7841L35.0292 51.1832C35.3809 50.7574 36.0113 50.6973 36.4371 51.049Z" fill="#000091"/>
	<path fill-rule="evenodd" clip-rule="evenodd" d="M32.3003 57.1209C32.8374 56.2774 32.837 56.2772 32.837 56.2772L32.8417 56.2801L32.8627 56.2933C32.8822 56.3054 32.9127 56.3243 32.954 56.3494C33.0366 56.3997 33.1622 56.4749 33.3286 56.5711C33.6615 56.7637 34.1575 57.0405 34.7997 57.3706C36.0845 58.0312 37.9512 58.9039 40.264 59.7434C44.8958 61.4248 51.2791 62.9598 58.3446 62.4238C58.8953 62.382 59.3756 62.7946 59.4174 63.3453C59.4592 63.896 59.0466 64.3763 58.4959 64.418C51.0615 64.982 44.3848 63.367 39.5815 61.6234C37.1768 60.7505 35.2323 59.8419 33.8852 59.1493C33.2114 58.8029 32.6864 58.5101 32.3271 58.3023C32.1475 58.1984 32.0093 58.1157 31.9146 58.0581C31.8672 58.0293 31.8307 58.0067 31.8054 57.991L31.7758 57.9724L31.7673 57.9671L31.7638 57.9648C31.7638 57.9648 31.7631 57.9644 32.3003 57.1209Z" fill="#000091"/>
</svg>
