<svg width='80px' height='80px' fill='none' viewBox='0 0 80 80' xmlns='http://www.w3.org/2000/svg' focusable='false' aria-hidden='true'><path fill-rule="evenodd" clip-rule="evenodd" d="M59 76C58.4486 76 58 75.5514 58 75C58 74.4486 58.4486 74 59 74C59.5514 74 60 74.4486 60 75C60 75.5514 59.5514 76 59 76Z" fill="#ECECFE"/> <path fill-rule="evenodd" clip-rule="evenodd" d="M67 8C66.4486 8 66 7.5514 66 7C66 6.44855 66.4486 6 67 6C67.5514 6 68 6.44855 68 7C68 7.5514 67.5514 8 67 8Z" fill="#ECECFE"/> <path fill-rule="evenodd" clip-rule="evenodd" d="M8 14C7.4486 14 7 13.5514 7 13C7 12.4486 7.4486 12 8 12C8.5514 12 9 12.4486 9 13C9 13.5514 8.5514 14 8 14Z" fill="#ECECFE"/> <path d="M34.5547 63.1679C34.3904 63.0584 34.1974 63 34 63H14L13.8834 63.0067C13.386 63.0645 13 63.4872 13 64L13.0067 64.1166C13.0645 64.614 13.4872 65 14 65H33.705L33.8051 65.0652C35.8457 66.3489 37.9148 67 40 67L40.3678 66.9932C42.3286 66.9212 44.2743 66.2734 46.1949 65.0652L46.294 65H66L66.1166 64.9933C66.614 64.9355 67 64.5128 67 64C67 63.4477 66.5523 63 66 63H46L45.8823 63.007C45.7265 63.0254 45.5767 63.0803 45.4453 63.1679C43.6023 64.3966 41.7921 65 40 65C38.2079 65 36.3977 64.3966 34.5547 63.1679Z" fill="#E1000F"/> <path d="M46 27C46 26.4477 45.5523 26 45 26C44.4477 26 44 26.4477 44 27C44 27.5523 44.4477 28 45 28C45.5523 28 46 27.5523 46 27Z" fill="#E1000F"/> <path d="M46 33C46 32.4477 45.5523 32 45 32C44.4477 32 44 32.4477 44 33C44 33.5523 44.4477 34 45 34C45.5523 34 46 33.5523 46 33Z" fill="#E1000F"/> <path d="M46 39C46 38.4477 45.5523 38 45 38C44.4477 38 44 38.4477 44 39C44 39.5523 44.4477 40 45 40C45.5523 40 46 39.5523 46 39Z" fill="#E1000F"/> <path d="M46 45C46 44.4477 45.5523 44 45 44C44.4477 44 44 44.4477 44 45C44 45.5523 44.4477 46 45 46C45.5523 46 46 45.5523 46 45Z" fill="#E1000F"/> <path d="M46 51C46 50.4477 45.5523 50 45 50C44.4477 50 44 50.4477 44 51C44 51.5523 44.4477 52 45 52C45.5523 52 46 51.5523 46 51Z" fill="#E1000F"/> <path d="M20 24C20 23.4477 19.5523 23 19 23C18.4477 23 18 23.4477 18 24C18 24.5523 18.4477 25 19 25C19.5523 25 20 24.5523 20 24Z" fill="#E1000F"/> <path d="M20 30C20 29.4477 19.5523 29 19 29C18.4477 29 18 29.4477 18 30C18 30.5523 18.4477 31 19 31C19.5523 31 20 30.5523 20 30Z" fill="#E1000F"/> <path d="M20 36C20 35.4477 19.5523 35 19 35C18.4477 35 18 35.4477 18 36C18 36.5523 18.4477 37 19 37C19.5523 37 20 36.5523 20 36Z" fill="#E1000F"/> <path d="M20 42C20 41.4477 19.5523 41 19 41C18.4477 41 18 41.4477 18 42C18 42.5523 18.4477 43 19 43C19.5523 43 20 42.5523 20 42Z" fill="#E1000F"/> <path d="M20 48C20 47.4477 19.5523 47 19 47C18.4477 47 18 47.4477 18 48C18 48.5523 18.4477 49 19 49C19.5523 49 20 48.5523 20 48Z" fill="#E1000F"/> <path fill-rule="evenodd" clip-rule="evenodd" d="M36.7071 60.7071C37.8549 59.5593 38.938 59.0117 39.967 59.0002C39.9734 59.0004 39.9798 59.0005 39.9862 59.0006C39.9909 59.0007 39.9955 59.0007 40.0002 59.0007H40.0038C40.0135 59.0007 40.0232 59.0005 40.0329 59.0002C41.0619 59.0116 42.145 59.5592 43.2929 60.7071C43.4804 60.8946 43.7348 61 44 61H54L54.1166 60.9933C54.614 60.9355 55 60.5128 55 60L54.9933 59.8834C54.9355 59.386 54.5128 59 54 59H44.402L44.2292 58.8412C43.9794 58.6187 43.7278 58.4158 43.4745 58.2328L43.5341 58.2227L44.1872 58.117L44.8727 58.016L45.5904 57.9197L46.3403 57.8282L47.1224 57.7415L47.9367 57.6595L48.7832 57.5823L49.6618 57.5098L50.5725 57.4422L51.5153 57.3793L52.9897 57.2939L54.5362 57.2194L55.6072 57.1757L56.7102 57.1369L57.8451 57.1029L59.6075 57.0609L61.4416 57.0299L63.3474 57.0098L65.3249 57.0006C65.5486 57.0002 65.7737 57 66 57C66.5523 57 67 56.5523 67 56V18.8498L69.001 21.35L69 40C69 40.5128 69.3861 40.9355 69.8834 40.9933L70 41C70.5129 41 70.9355 40.614 70.9933 40.1166L71 40V21C71 20.8183 70.9506 20.641 70.8582 20.4866L70.7809 20.3753L66.7985 15.3973C66.6281 15.1715 66.3637 15.0198 66.0612 15.0012C55.3111 14.3423 46.6232 15.6216 40 18.8654C33.3768 15.6216 24.6889 14.3423 13.9388 15.0012C13.6359 15.0198 13.3713 15.1719 13.2009 15.3981L9.21913 20.3753L9.14187 20.4866C9.04946 20.641 9 20.8183 9 21V26L9.00673 26.1166C9.06449 26.614 9.48716 27 10 27L10.1166 26.9933C10.614 26.9355 11 26.5128 11 26L10.999 21.35L13 18.8498V56C13 56.5523 13.4477 57 14 57C14.2264 57 14.4514 57.0002 14.6751 57.0006L16.6526 57.0098L18.5584 57.0299L20.3925 57.0609L22.1549 57.1029L23.2898 57.1369L24.3928 57.1757L25.4638 57.2194L27.0103 57.2939L28.4847 57.3793L29.4275 57.4422L30.3382 57.5098L31.2168 57.5823L32.0633 57.6595L32.8776 57.7415L33.6597 57.8282L34.4096 57.9197L35.1273 58.016L35.8128 58.117L36.4659 58.2227L36.5255 58.2328C36.2722 58.4158 36.0206 58.6187 35.7708 58.8412L35.597 59H11V56L10.9933 55.8834C10.9355 55.386 10.5128 55 10 55C9.44772 55 9 55.4477 9 56V60L9.00673 60.1166C9.06449 60.614 9.48716 61 10 61H36L36.1314 60.9913C36.3481 60.9626 36.5508 60.8634 36.7071 60.7071ZM39 56.694V20.603L38.6894 20.455C32.7538 17.6691 25.015 16.4844 15.4708 16.9219L15 16.945V55.001L16.0457 55.0057L18.0447 55.023L19.9683 55.052L21.2089 55.0779L22.416 55.109L24.164 55.1654L25.2876 55.2095L26.3779 55.2589L27.4348 55.3135L28.4583 55.3734L29.4486 55.4386L30.4056 55.509L31.3294 55.5848L32.2199 55.6658L33.0773 55.7521L33.9014 55.8437L34.6924 55.9406L35.4503 56.0428C35.5739 56.0603 35.696 56.078 35.8168 56.096L36.5251 56.2062L37.2002 56.3218L37.8423 56.4427L38.4514 56.569L39 56.694ZM41.5486 56.569L41 56.694V20.603L41.3106 20.455C47.2462 17.6691 54.985 16.4844 64.5292 16.9219L65 16.945V55.001L63.9543 55.0057L61.9553 55.023L60.0317 55.052L58.7911 55.0779L57.584 55.109L55.836 55.1654L54.7124 55.2095L53.6221 55.2589L52.5652 55.3135L51.5417 55.3734L50.5514 55.4386L49.5944 55.509L48.6706 55.5848L47.7801 55.6658L46.9227 55.7521L46.0986 55.8437L45.3076 55.9406L44.5497 56.0428C44.4261 56.0603 44.304 56.078 44.1832 56.096L43.4749 56.2062L42.7998 56.3218L42.1577 56.4427L41.5486 56.569Z" fill="#000091"/> <path d="M70.9933 45.8834C70.9355 45.386 70.5128 45 70 45L69.8834 45.0067C69.386 45.0645 69 45.4872 69 46V59H62L61.8834 59.0067C61.386 59.0645 61 59.4872 61 60C61 60.5523 61.4477 61 62 61H70L70.1166 60.9933C70.614 60.9355 71 60.5128 71 60V46L70.9933 45.8834Z" fill="#000091"/> <path d="M10 31C10.5128 31 10.9355 31.386 10.9933 31.8834L11 32V50C11 50.5523 10.5523 51 10 51C9.48716 51 9.06449 50.614 9.00673 50.1166L9 50V32C9 31.4477 9.44772 31 10 31Z" fill="#000091"/> <path d="M62 24C62 23.4477 61.5523 23 61 23C59.9507 23 58.7138 23.0976 57.2876 23.2925L56.4908 23.4085C56.0831 23.4713 55.6612 23.5413 55.2252 23.6186L54.3343 23.7828L53.4057 23.9662L52.4392 24.1689L51.4347 24.3909C51.2642 24.4294 51.092 24.4688 50.9183 24.509L49.8569 24.7598L48.7575 25.0299C48.2217 25.1638 47.8959 25.7067 48.0299 26.2425C48.1638 26.7783 48.7067 27.1041 49.2425 26.9701C49.4239 26.9248 49.6037 26.8802 49.782 26.8364L50.8324 26.5832L51.8447 26.3487C52.0102 26.3112 52.1742 26.2745 52.3366 26.2386L53.2916 26.0324L54.2085 25.8449L55.0871 25.6763L55.9273 25.5264C56.0642 25.503 56.1994 25.4804 56.333 25.4585L57.1156 25.3368C57.3701 25.2994 57.6181 25.2651 57.8597 25.2339L58.5652 25.1496C59.4801 25.0498 60.2919 25 61 25C61.5523 25 62 24.5523 62 24Z" fill="#000091"/> <path d="M61 29C61.5523 29 62 29.4477 62 30C62 30.5523 61.5523 31 61 31C60.2919 31 59.4801 31.0498 58.5652 31.1496L57.8597 31.2339C57.6181 31.2651 57.3701 31.2994 57.1156 31.3368L56.333 31.4585C56.1994 31.4804 56.0642 31.503 55.9273 31.5264L55.0871 31.6763L54.2085 31.8449L53.2916 32.0324L52.3366 32.2386C52.1742 32.2745 52.0102 32.3112 51.8447 32.3487L50.8324 32.5832L49.782 32.8364C49.6037 32.8802 49.4239 32.9248 49.2425 32.9701C48.7067 33.1041 48.1638 32.7783 48.0299 32.2425C47.8959 31.7067 48.2217 31.1638 48.7575 31.0299L49.8569 30.7598L50.9183 30.509C51.092 30.4688 51.2642 30.4294 51.4347 30.3909L52.4392 30.1689L53.4057 29.9662L54.3343 29.7828L55.2252 29.6186C55.6612 29.5413 56.0831 29.4713 56.4908 29.4085L57.2876 29.2925C58.7138 29.0976 59.9507 29 61 29Z" fill="#000091"/> <path d="M62 36C62 35.4477 61.5523 35 61 35C59.9507 35 58.7138 35.0976 57.2876 35.2925L56.4908 35.4085C56.0831 35.4713 55.6612 35.5413 55.2252 35.6186L54.3343 35.7828L53.4057 35.9662L52.4392 36.1689L51.4347 36.3909C51.2642 36.4294 51.092 36.4688 50.9183 36.509L49.8569 36.7598L48.7575 37.0299C48.2217 37.1638 47.8959 37.7067 48.0299 38.2425C48.1638 38.7783 48.7067 39.1041 49.2425 38.9701C49.4239 38.9248 49.6037 38.8802 49.782 38.8364L50.8324 38.5832L51.8447 38.3487C52.0102 38.3112 52.1742 38.2745 52.3366 38.2386L53.2916 38.0324L54.2085 37.8449L55.0871 37.6763L55.9273 37.5264C56.0642 37.503 56.1994 37.4804 56.333 37.4585L57.1156 37.3368C57.3701 37.2994 57.6181 37.2651 57.8597 37.2339L58.5652 37.1496C59.4801 37.0498 60.2919 37 61 37C61.5523 37 62 36.5523 62 36Z" fill="#000091"/> <path d="M61 41C61.5523 41 62 41.4477 62 42C62 42.5523 61.5523 43 61 43C60.2919 43 59.4801 43.0498 58.5652 43.1496L57.8597 43.2339C57.6181 43.2651 57.3701 43.2994 57.1156 43.3368L56.333 43.4585C56.1994 43.4804 56.0642 43.503 55.9273 43.5264L55.0871 43.6763L54.2085 43.8449L53.2916 44.0323L52.3366 44.2386C52.1742 44.2745 52.0102 44.3112 51.8447 44.3487L50.8324 44.5832L49.782 44.8364C49.6037 44.8802 49.4239 44.9248 49.2425 44.9701C48.7067 45.1041 48.1638 44.7783 48.0299 44.2425C47.8959 43.7067 48.2217 43.1638 48.7575 43.0299L49.8569 42.7598L50.9183 42.509C51.092 42.4688 51.2642 42.4294 51.4347 42.3908L52.4392 42.1689L53.4057 41.9662L54.3343 41.7828L55.2252 41.6186C55.6612 41.5413 56.0831 41.4713 56.4908 41.4085L57.2876 41.2925C58.7138 41.0976 59.9507 41 61 41Z" fill="#000091"/> <path d="M62 48C62 47.4477 61.5523 47 61 47C59.9507 47 58.7138 47.0976 57.2876 47.2925L56.4908 47.4085C56.0831 47.4713 55.6612 47.5413 55.2252 47.6186L54.3343 47.7828L53.4057 47.9662L52.4392 48.1689L51.4347 48.3908C51.2642 48.4294 51.092 48.4688 50.9183 48.509L49.8569 48.7598L48.7575 49.0299C48.2217 49.1638 47.8959 49.7067 48.0299 50.2425C48.1638 50.7783 48.7067 51.1041 49.2425 50.9701C49.4239 50.9248 49.6037 50.8802 49.782 50.8364L50.8324 50.5832L51.8447 50.3487C52.0102 50.3112 52.1742 50.2745 52.3366 50.2386L53.2916 50.0323L54.2085 49.8449L55.0871 49.6763L55.9273 49.5264C56.0642 49.503 56.1994 49.4804 56.333 49.4585L57.1156 49.3368C57.3701 49.2994 57.6181 49.2651 57.8597 49.2339L58.5652 49.1496C59.4801 49.0498 60.2919 49 61 49C61.5523 49 62 48.5523 62 48Z" fill="#000091"/> <path d="M21.9998 24C21.9998 23.4477 22.4475 23 22.9998 23C24.0491 23 25.286 23.0976 26.7122 23.2925L27.5089 23.4085C27.9167 23.4713 28.3386 23.5413 28.7746 23.6186L29.6654 23.7828L30.5941 23.9662L31.5606 24.1689L32.565 24.3909C32.7356 24.4294 32.9077 24.4688 33.0815 24.509L34.1428 24.7598L35.2423 25.0299C35.7781 25.1638 36.1039 25.7067 35.9699 26.2425C35.836 26.7783 35.293 27.1041 34.7572 26.9701C34.5758 26.9248 34.396 26.8802 34.2178 26.8364L33.1674 26.5832L32.1551 26.3487C31.9895 26.3112 31.8256 26.2745 31.6632 26.2386L30.7081 26.0324L29.7912 25.8449L28.9127 25.6763L28.0724 25.5264C27.9356 25.503 27.8004 25.4804 27.6667 25.4585L26.8841 25.3368C26.6297 25.2994 26.3817 25.2651 26.1401 25.2339L25.4346 25.1496C24.5197 25.0498 23.7079 25 22.9998 25C22.4475 25 21.9998 24.5523 21.9998 24Z" fill="#000091"/> <path d="M22.9998 29C22.4475 29 21.9998 29.4477 21.9998 30C21.9998 30.5523 22.4475 31 22.9998 31C23.7079 31 24.5197 31.0498 25.4346 31.1496L26.1401 31.2339C26.3817 31.2651 26.6297 31.2994 26.8841 31.3368L27.6667 31.4585C27.8004 31.4804 27.9356 31.503 28.0724 31.5264L28.9127 31.6763L29.7912 31.8449L30.7081 32.0324L31.6632 32.2386C31.8256 32.2745 31.9895 32.3112 32.1551 32.3487L33.1674 32.5832L34.2178 32.8364C34.396 32.8802 34.5758 32.9248 34.7572 32.9701C35.293 33.1041 35.836 32.7783 35.9699 32.2425C36.1039 31.7067 35.7781 31.1638 35.2423 31.0299L34.1428 30.7598L33.0815 30.509C32.9077 30.4688 32.7356 30.4294 32.565 30.3909L31.5606 30.1689L30.5941 29.9662L29.6654 29.7828L28.7746 29.6186C28.3386 29.5413 27.9167 29.4713 27.5089 29.4085L26.7122 29.2925C25.286 29.0976 24.0491 29 22.9998 29Z" fill="#000091"/> <path d="M21.9998 36C21.9998 35.4477 22.4475 35 22.9998 35C24.0491 35 25.286 35.0976 26.7122 35.2925L27.5089 35.4085C27.9167 35.4713 28.3386 35.5413 28.7746 35.6186L29.6654 35.7828L30.5941 35.9662L31.5606 36.1689L32.565 36.3909C32.7356 36.4294 32.9077 36.4688 33.0815 36.509L34.1428 36.7598L35.2423 37.0299C35.7781 37.1638 36.1039 37.7067 35.9699 38.2425C35.836 38.7783 35.293 39.1041 34.7572 38.9701C34.5758 38.9248 34.396 38.8802 34.2178 38.8364L33.1674 38.5832L32.1551 38.3487C31.9895 38.3112 31.8256 38.2745 31.6632 38.2386L30.7081 38.0324L29.7912 37.8449L28.9127 37.6763L28.0724 37.5264C27.9356 37.503 27.8004 37.4804 27.6667 37.4585L26.8841 37.3368C26.6297 37.2994 26.3817 37.2651 26.1401 37.2339L25.4346 37.1496C24.5197 37.0498 23.7079 37 22.9998 37C22.4475 37 21.9998 36.5523 21.9998 36Z" fill="#000091"/> <path d="M22.9998 41C22.4475 41 21.9998 41.4477 21.9998 42C21.9998 42.5523 22.4475 43 22.9998 43C23.7079 43 24.5197 43.0498 25.4346 43.1496L26.1401 43.2339C26.3817 43.2651 26.6297 43.2994 26.8841 43.3368L27.6667 43.4585C27.8004 43.4804 27.9356 43.503 28.0724 43.5264L28.9127 43.6763L29.7912 43.8449L30.7081 44.0323L31.6632 44.2386C31.8256 44.2745 31.9895 44.3112 32.1551 44.3487L33.1674 44.5832L34.2178 44.8364C34.396 44.8802 34.5758 44.9248 34.7572 44.9701C35.293 45.1041 35.836 44.7783 35.9699 44.2425C36.1039 43.7067 35.7781 43.1638 35.2423 43.0299L34.1428 42.7598L33.0815 42.509C32.9077 42.4688 32.7356 42.4294 32.565 42.3908L31.5606 42.1689L30.5941 41.9662L29.6654 41.7828L28.7746 41.6186C28.3386 41.5413 27.9167 41.4713 27.5089 41.4085L26.7122 41.2925C25.286 41.0976 24.0491 41 22.9998 41Z" fill="#000091"/> <path d="M21.9998 48C21.9998 47.4477 22.4475 47 22.9998 47C24.0491 47 25.286 47.0976 26.7122 47.2925L27.5089 47.4085C27.9167 47.4713 28.3386 47.5413 28.7746 47.6186L29.6654 47.7828L30.5941 47.9662L31.5606 48.1689L32.565 48.3908C32.7356 48.4294 32.9077 48.4688 33.0815 48.509L34.1428 48.7598L35.2423 49.0299C35.7781 49.1638 36.1039 49.7067 35.9699 50.2425C35.836 50.7783 35.293 51.1041 34.7572 50.9701C34.5758 50.9248 34.396 50.8802 34.2178 50.8364L33.1674 50.5832L32.1551 50.3487C31.9895 50.3112 31.8256 50.2745 31.6632 50.2386L30.7081 50.0323L29.7912 49.8449L28.9127 49.6763L28.0724 49.5264C27.9356 49.503 27.8004 49.4804 27.6667 49.4585L26.8841 49.3368C26.6297 49.2994 26.3817 49.2651 26.1401 49.2339L25.4346 49.1496C24.5197 49.0498 23.7079 49 22.9998 49C22.4475 49 21.9998 48.5523 21.9998 48Z" fill="#000091"/></svg>
