<svg width='80px' height='80px' fill='none' viewBox='0 0 80 80' xmlns='http://www.w3.org/2000/svg' focusable='false' aria-hidden='true'><path d="M16.3 10.7C16.8523 10.7 17.3 10.2523 17.3 9.70001C17.3 9.14773 16.8523 8.70001 16.3 8.70001C15.7477 8.70001 15.3 9.14773 15.3 9.70001C15.3 10.2523 15.7477 10.7 16.3 10.7Z" fill="#ECECFE"/> <path d="M67 13.7C67.5523 13.7 68 13.2523 68 12.7C68 12.1477 67.5523 11.7 67 11.7C66.4477 11.7 66 12.1477 66 12.7C66 13.2523 66.4477 13.7 67 13.7Z" fill="#ECECFE"/> <path d="M65 74.4C65.5523 74.4 66 73.9523 66 73.4C66 72.8477 65.5523 72.4 65 72.4C64.4477 72.4 64 72.8477 64 73.4C64 73.9523 64.4477 74.4 65 74.4Z" fill="#ECECFE"/> <path d="M23.2 76.9C23.7523 76.9 24.2 76.4523 24.2 75.9C24.2 75.3477 23.7523 74.9 23.2 74.9C22.6477 74.9 22.2 75.3477 22.2 75.9C22.2 76.4523 22.6477 76.9 23.2 76.9Z" fill="#ECECFE"/> <path fill-rule="evenodd" clip-rule="evenodd" d="M61 41C61 40.4477 61.4477 40 62 40H66C66.5523 40 67 40.4477 67 41C67 41.5523 66.5523 42 66 42H62C61.4477 42 61 41.5523 61 41Z" fill="#E1000F"/> <path fill-rule="evenodd" clip-rule="evenodd" d="M51 41C51 40.4477 51.4477 40 52 40H56C56.5523 40 57 40.4477 57 41C57 41.5523 56.5523 42 56 42H52C51.4477 42 51 41.5523 51 41Z" fill="#E1000F"/> <path fill-rule="evenodd" clip-rule="evenodd" d="M61 46C61 45.4477 61.4477 45 62 45H66C66.5523 45 67 45.4477 67 46C67 46.5523 66.5523 47 66 47H62C61.4477 47 61 46.5523 61 46Z" fill="#E1000F"/> <path fill-rule="evenodd" clip-rule="evenodd" d="M51 46C51 45.4477 51.4477 45 52 45H56C56.5523 45 57 45.4477 57 46C57 46.5523 56.5523 47 56 47H52C51.4477 47 51 46.5523 51 46Z" fill="#E1000F"/> <path fill-rule="evenodd" clip-rule="evenodd" d="M25 34C25 33.4477 25.4477 33 26 33H30C30.5523 33 31 33.4477 31 34C31 34.5523 30.5523 35 30 35H26C25.4477 35 25 34.5523 25 34Z" fill="#E1000F"/> <path fill-rule="evenodd" clip-rule="evenodd" d="M14 34C14 33.4477 14.4477 33 15 33H19C19.5523 33 20 33.4477 20 34C20 34.5523 19.5523 35 19 35H15C14.4477 35 14 34.5523 14 34Z" fill="#E1000F"/> <path fill-rule="evenodd" clip-rule="evenodd" d="M25 39C25 38.4477 25.4477 38 26 38H30C30.5523 38 31 38.4477 31 39C31 39.5523 30.5523 40 30 40H26C25.4477 40 25 39.5523 25 39Z" fill="#E1000F"/> <path fill-rule="evenodd" clip-rule="evenodd" d="M14 39C14 38.4477 14.4477 38 15 38H19C19.5523 38 20 38.4477 20 39C20 39.5523 19.5523 40 19 40H15C14.4477 40 14 39.5523 14 39Z" fill="#E1000F"/> <path fill-rule="evenodd" clip-rule="evenodd" d="M36 34C36 33.4477 36.4477 33 37 33H41C41.5523 33 42 33.4477 42 34C42 34.5523 41.5523 35 41 35H37C36.4477 35 36 34.5523 36 34Z" fill="#E1000F"/> <path fill-rule="evenodd" clip-rule="evenodd" d="M36 39C36 38.4477 36.4477 38 37 38H41C41.5523 38 42 38.4477 42 39C42 39.5523 41.5523 40 41 40H37C36.4477 40 36 39.5523 36 39Z" fill="#E1000F"/> <path fill-rule="evenodd" clip-rule="evenodd" d="M52 53.0149V58.9808C52 58.9808 52 58.9809 52 58.9808C52.0017 58.985 52.0048 58.9899 52.0082 58.9935C52.0111 58.9965 52.0128 58.9973 52.0131 58.9974C52.0134 58.9976 52.0146 58.998 52.0171 58.9986C52.0196 58.9991 52.0252 59 52.0345 59H55.9365C55.9402 58.998 55.9447 58.9952 55.9499 58.9916C55.9588 58.9854 55.9682 58.9778 55.9772 58.969C55.9862 58.9601 55.9936 58.9514 55.9992 58.9437C55.9995 58.9433 55.9997 58.9429 56 58.9426V53.0192C56 53.0192 56 53.0193 56 53.0192C55.9983 53.015 55.9952 53.0102 55.9918 53.0065C55.9889 53.0035 55.9872 53.0028 55.9869 53.0026C55.9866 53.0025 55.9854 53.002 55.9829 53.0015C55.9804 53.0009 55.9748 53 55.9655 53H52.0345C52.0345 53 52.0346 53 52.0345 53C52.0338 53.0001 52.0281 53.0005 52.0192 53.004C52.011 53.0072 52.0044 53.0114 52 53.0149ZM56.0007 53.0214C56.0007 53.0214 56.0008 53.0216 56.0007 53.0214V53.0214ZM55.9266 59.0048C55.9262 59.0049 55.9266 59.0048 55.9266 59.0048V59.0048ZM50 53.0127C50 51.7697 51.0519 51 52.0345 51H55.9655C57.1829 51 58 51.9995 58 53.0127V58.9874C58 59.5734 57.7113 60.0702 57.3763 60.3982C57.0399 60.7275 56.5419 61 55.9655 61H52.0345C50.8171 61 50 60.0005 50 58.9874V53.0127Z" fill="#E1000F"/> <path fill-rule="evenodd" clip-rule="evenodd" d="M62 53.0142V58.9812C61.9999 58.9811 62.0001 58.9814 62 58.9812C62.0018 58.9856 62.005 58.9908 62.0084 58.9943C62.0098 58.9959 62.011 58.9967 62.0116 58.9972L62.0126 58.9978C62.0126 58.9978 62.0135 58.9982 62.0158 58.9987C62.018 58.9991 62.0232 59 62.0322 59H65.9546C65.9653 59 65.9762 58.9987 65.9868 58.9962C65.9868 58.9933 65.9868 58.9903 65.9868 58.9874V53.0189C65.9867 53.0187 65.9868 53.019 65.9868 53.0189C65.985 53.0145 65.9818 53.0093 65.9784 53.0057C65.977 53.0042 65.9758 53.0033 65.9752 53.0029L65.9742 53.0023C65.9742 53.0023 65.9733 53.0019 65.971 53.0014C65.9688 53.0009 65.9636 53 65.9546 53H62.0322C62.0322 53 62.0323 53 62.0322 53C62.0322 53.0001 62.0271 53.0003 62.0185 53.0037C62.0106 53.0068 62.0042 53.0108 62 53.0142ZM65.9875 53.0209C65.9874 53.0209 65.9875 53.021 65.9875 53.0209V53.0209ZM60 53.0127C60 51.7717 61.0486 51 62.0322 51H65.9546C67.1726 51 67.9868 52.0017 67.9868 53.0127V58.9084C68.0663 59.5207 67.7924 60.0536 67.442 60.3974C67.0659 60.7663 66.5324 61 65.9546 61H62.0322C60.8142 61 60 59.9984 60 58.9874V53.0127Z" fill="#E1000F"/> <path d="M42.6247 12.7809C43.0559 12.4359 43.1259 11.8066 42.7808 11.3753C42.4358 10.9441 41.8065 10.8742 41.3753 11.2192L26.3753 23.2192C25.944 23.5642 25.8741 24.1935 26.2191 24.6247C26.5641 25.056 27.1934 25.1259 27.6247 24.7809L42.6247 12.7809Z" fill="#000091"/> <path d="M47.9866 13.8361C47.9548 13.6429 47.8676 13.4684 47.7418 13.3294C47.5663 13.1353 47.3156 13.0105 47.0356 13.0007C46.959 12.9979 46.882 13.0039 46.8062 13.0188C46.7383 13.0321 46.6729 13.0523 46.6108 13.0786C46.5235 13.1155 46.4425 13.1645 46.37 13.2234L36.3753 21.2192C35.944 21.5642 35.8741 22.1935 36.2191 22.6247C36.5641 23.056 37.1934 23.1259 37.6247 22.7809L46 16.0806V67H13C12.4477 67 12 67.4477 12 68C12 68.5523 12.4477 69 13 69H47C47.5523 69 48 68.5523 48 68" fill="#000091"/> <path d="M58 29C57.4477 29 57 29.4477 57 30C57 30.5523 57.4477 31 58 31H66C66.5523 31 67 30.5523 67 30C67 29.4477 66.5523 29 66 29H58Z" fill="#000091"/> <path d="M50 34C50 33.4477 50.4477 33 51 33H71C71.5523 33 72 33.4477 72 34V68C72 68.5523 71.5523 69 71 69H51C50.4477 69 50 68.5523 50 68C50 67.4477 50.4477 67 51 67H70V35H51C50.4477 35 50 34.5523 50 34Z" fill="#000091"/> <path d="M10 68.1C10 68.6523 9.55228 69.1 9 69.1C8.44772 69.1 8 68.6523 8 68.1C8 67.5478 8.44772 67.1 9 67.1C9.55228 67.1 10 67.5478 10 68.1Z" fill="#000091"/> <path fill-rule="evenodd" clip-rule="evenodd" d="M16 64C16 63.4477 16.4477 63 17 63H20V48C20 47.4477 20.4477 47 21 47H35C35.5523 47 36 47.4477 36 48V63H39C39.5523 63 40 63.4477 40 64C40 64.5523 39.5523 65 39 65H17C16.4477 65 16 64.5523 16 64ZM29 63V54C29 53.4477 28.5523 53 28 53C27.4477 53 27 53.4477 27 54V63H22V49H34V63H29Z" fill="#000091"/> <path d="M22 44C22 43.4477 22.4477 43 23 43H33C33.5523 43 34 43.4477 34 44C34 44.5523 33.5523 45 33 45H23C22.4477 45 22 44.5523 22 44Z" fill="#000091"/> <path d="M33.7682 24.8598C34.1218 25.2841 34.0645 25.9147 33.6402 26.2682L30.6402 28.7682C30.4605 28.918 30.2339 29 30 29H10V64C10 64.5523 9.55228 65 9 65C8.44772 65 8 64.5523 8 64V28C8 27.4477 8.44772 27 9 27H29.638L32.3598 24.7318C32.7841 24.3782 33.4147 24.4356 33.7682 24.8598Z" fill="#000091"/></svg>
