<svg width='80px' height='80px' fill='none' viewBox='0 0 80 80' xmlns='http://www.w3.org/2000/svg' focusable='false' aria-hidden='true'><path fill-rule="evenodd" clip-rule="evenodd" d="M68 13C67.4486 13 67 12.5514 67 12C67 11.4486 67.4486 11 68 11C68.5514 11 69 11.4486 69 12C69 12.5514 68.5514 13 68 13Z" fill="#ECECFE"/> <path fill-rule="evenodd" clip-rule="evenodd" d="M41 76C40.4486 76 40 75.5514 40 75C40 74.4486 40.4486 74 41 74C41.5514 74 42 74.4486 42 75C42 75.5514 41.5514 76 41 76Z" fill="#ECECFE"/> <path fill-rule="evenodd" clip-rule="evenodd" d="M15 10C14.4486 10 14 9.5514 14 9C14 8.44855 14.4486 8 15 8C15.5514 8 16 8.44855 16 9C16 9.5514 15.5514 10 15 10Z" fill="#ECECFE"/> <path d="M54.1056 40.5528C54.4547 39.8545 55.4171 39.8178 55.8308 40.4425L55.8944 40.5528L67.8944 64.5528C68.2094 65.1827 67.792 65.918 67.1151 65.9936L67 66H63C62.4477 66 62 65.5523 62 65C62 64.4872 62.386 64.0645 62.8834 64.0067L63 64H65.381L55 43.236L44.618 64H59C59.5128 64 59.9355 64.386 59.9933 64.8834L60 65C60 65.5128 59.614 65.9355 59.1166 65.9933L59 66H43C42.2958 66 41.8247 65.2979 42.0598 64.6586L42.1056 64.5528L54.1056 40.5528Z" fill="#E1000F"/> <path d="M55 50C55.5523 50 56 50.4477 56 51V57C56 57.5523 55.5523 58 55 58C54.4477 58 54 57.5523 54 57V51C54 50.4477 54.4477 50 55 50Z" fill="#E1000F"/> <path d="M56 61C56 60.4477 55.5523 60 55 60C54.4477 60 54 60.4477 54 61C54 61.5523 54.4477 62 55 62C55.5523 62 56 61.5523 56 61Z" fill="#E1000F"/> <path d="M67.9933 18.8834C67.9355 18.386 67.5128 18 67 18H13L12.8834 18.0067C12.386 18.0645 12 18.4872 12 19V65L12.0067 65.1166C12.0645 65.614 12.4872 66 13 66H37L37.1166 65.9933C37.614 65.9355 38 65.5128 38 65L37.9933 64.8834C37.9355 64.386 37.5128 64 37 64H14V28H51L51.1166 27.9933C51.614 27.9355 52 27.5128 52 27C52 26.4477 51.5523 26 51 26H14V20H66V26H57L56.8834 26.0067C56.386 26.0645 56 26.4872 56 27C56 27.5523 56.4477 28 57 28H66V53L66.0067 53.1166C66.0645 53.614 66.4872 54 67 54C67.5523 54 68 53.5523 68 53V19L67.9933 18.8834Z" fill="#000091"/> <path d="M17 24C16.4486 24 16 23.5514 16 23C16 22.4486 16.4486 22 17 22C17.5514 22 18 22.4486 18 23C18 23.5514 17.5514 24 17 24Z" fill="#000091"/> <path d="M20 23C20 23.5514 20.4486 24 21 24C21.5514 24 22 23.5514 22 23C22 22.4486 21.5514 22 21 22C20.4486 22 20 22.4486 20 23Z" fill="#000091"/> <path d="M25 24C24.4486 24 24 23.5514 24 23C24 22.4486 24.4486 22 25 22C25.5514 22 26 22.4486 26 23C26 23.5514 25.5514 24 25 24Z" fill="#000091"/> <path d="M63 22C63.5523 22 64 22.4477 64 23C64 23.5128 63.614 23.9355 63.1166 23.9933L63 24H33C32.4477 24 32 23.5523 32 23C32 22.4872 32.386 22.0645 32.8834 22.0067L33 22H63Z" fill="#000091"/> <path d="M46 35C46 34.4477 45.5523 34 45 34H21L20.8834 34.0067C20.386 34.0645 20 34.4872 20 35C20 35.5523 20.4477 36 21 36H45L45.1166 35.9933C45.614 35.9355 46 35.5128 46 35Z" fill="#000091"/> <path d="M41 40C41.5523 40 42 40.4477 42 41C42 41.5128 41.614 41.9355 41.1166 41.9933L41 42H21C20.4477 42 20 41.5523 20 41C20 40.4872 20.386 40.0645 20.8834 40.0067L21 40H41Z" fill="#000091"/> <path d="M36 47C36 46.4477 35.5523 46 35 46H21L20.8834 46.0067C20.386 46.0645 20 46.4872 20 47C20 47.5523 20.4477 48 21 48H35L35.1166 47.9933C35.614 47.9355 36 47.5128 36 47Z" fill="#000091"/></svg>
