<svg width="80" height="80" viewBox="0 0 80 80" fill="none" xmlns="http://www.w3.org/2000/svg">
	<path d="M40 19C40 18.4477 39.5523 18 39 18H23L22.8834 18.0067C22.386 18.0645 22 18.4872 22 19C22 19.5523 22.4477 20 23 20H39L39.1166 19.9933C39.614 19.9355 40 19.5128 40 19Z" fill="#E1000F"/>
	<path d="M51 66L50.8834 66.0067C50.386 66.0645 50 66.4872 50 67C50 67.5523 50.4477 68 51 68H59L59.1166 67.9933C59.614 67.9355 60 67.5128 60 67C60 66.4477 59.5523 66 59 66H51Z" fill="#E1000F"/>
	<path d="M55 54C55.5128 54 55.9355 54.386 55.9933 54.8834L56 55V60.5858L58.2929 58.2929C58.6834 57.9024 59.3166 57.9024 59.7071 58.2929C60.0676 58.6534 60.0953 59.2206 59.7903 59.6129L59.7071 59.7071L55.7071 63.7071C55.6106 63.8036 55.4994 63.8762 55.3806 63.925C55.2783 63.9672 55.1675 63.9928 55.0515 63.9987L55.029 63.9996C55.0193 63.9999 55.0097 64 55 64C54.983 64 54.9662 63.9996 54.9494 63.9987C54.8322 63.9929 54.7202 63.9669 54.617 63.924C54.5361 63.8905 54.4587 63.846 54.3871 63.7903C54.3544 63.7649 54.3229 63.7371 54.2929 63.7071L50.2929 59.7071C49.9024 59.3166 49.9024 58.6834 50.2929 58.2929C50.6534 57.9324 51.2206 57.9047 51.6129 58.2097L51.7071 58.2929L54 60.5858V55C54 54.4477 54.4477 54 55 54Z" fill="#E1000F"/>
	<path fill-rule="evenodd" clip-rule="evenodd" d="M55 48C47.8203 48 42 53.8203 42 61C42 68.1797 47.8203 74 55 74C62.1797 74 68 68.1797 68 61C68 53.8203 62.1797 48 55 48ZM55 50C61.0751 50 66 54.9249 66 61C66 67.0751 61.0751 72 55 72C48.9249 72 44 67.0751 44 61C44 54.9249 48.9249 50 55 50Z" fill="#E1000F"/>
	<path d="M49 24C49.5523 24 50 24.4477 50 25C50 25.5128 49.614 25.9355 49.1166 25.9933L49 26H23C22.4477 26 22 25.5523 22 25C22 24.4872 22.386 24.0645 22.8834 24.0067L23 24H49Z" fill="#E1000F"/>
	<path d="M44 31C44 30.4477 43.5523 30 43 30H23L22.8834 30.0067C22.386 30.0645 22 30.4872 22 31C22 31.5523 22.4477 32 23 32H43L43.1166 31.9933C43.614 31.9355 44 31.5128 44 31Z" fill="#E1000F"/>
	<path d="M55 12C55.5128 12 55.9355 12.386 55.9933 12.8834L56 13V45C56 45.5523 55.5523 46 55 46C54.4872 46 54.0645 45.614 54.0067 45.1166L54 45V14H18V66H39C39.5128 66 39.9355 66.386 39.9933 66.8834L40 67C40 67.5128 39.614 67.9355 39.1166 67.9933L39 68H17C16.4872 68 16.0645 67.614 16.0067 67.1166L16 67V13C16 12.4872 16.386 12.0645 16.8834 12.0067L17 12H55Z" fill="#000091"/>
	<path d="M49 36C49.5523 36 50 36.4477 50 37C50 37.5128 49.614 37.9355 49.1166 37.9933L49 38H23C22.4477 38 22 37.5523 22 37C22 36.4872 22.386 36.0645 22.8834 36.0067L23 36H49Z" fill="#000091"/>
	<path d="M42 49C42 48.4477 41.5523 48 41 48H23L22.8834 48.0067C22.386 48.0645 22 48.4872 22 49C22 49.5523 22.4477 50 23 50H41L41.1166 49.9933C41.614 49.9355 42 49.5128 42 49Z" fill="#000091"/>
	<path d="M59 12C59.5128 12 59.9355 12.386 59.9933 12.8834L60 13V45C60 45.5523 59.5523 46 59 46C58.4872 46 58.0645 45.614 58.0067 45.1166L58 45V13C58 12.4477 58.4477 12 59 12Z" fill="#000091"/>
	<path d="M46 43C46 42.4477 45.5523 42 45 42H23L22.8834 42.0067C22.386 42.0645 22 42.4872 22 43C22 43.5523 22.4477 44 23 44H45L45.1166 43.9933C45.614 43.9355 46 43.5128 46 43Z" fill="#000091"/>
	<path d="M33 60C33.5523 60 34 60.4477 34 61C34 61.5128 33.614 61.9355 33.1166 61.9933L33 62H23C22.4477 62 22 61.5523 22 61C22 60.4872 22.386 60.0645 22.8834 60.0067L23 60H33Z" fill="#000091"/>
	<path d="M38 55C38 54.4477 37.5523 54 37 54H23L22.8834 54.0067C22.386 54.0645 22 54.4872 22 55C22 55.5523 22.4477 56 23 56H37L37.1166 55.9933C37.614 55.9355 38 55.5128 38 55Z" fill="#000091"/>
</svg>
