<svg width="80" height="80" viewBox="0 0 80 80" fill="none" xmlns="http://www.w3.org/2000/svg">
	<path fill-rule="evenodd" clip-rule="evenodd" d="M26 52H15.05C14.54 52 14 51.44 14 50.91V31C14 30.55 14.55 30 15 30H33C33.45 30 34 30.55 34 31V43C34 43.55 34.45 44 35 44C35.55 44 36 43.55 36 43V31C36 29.46 34.54 28 33 28H15C13.46 28 12 29.46 12 31V50.91C12 52.53 13.45 54 15.05 54H26C26.55 54 27 53.55 27 53C27 52.45 26.55 52 26 52ZM32 48.77C31.9 46.05 30.04 43.74 27.41 42.66C28.39 41.75 29.01 40.44 29.01 39C29.01 36.24 26.77 34 24.01 34C21.25 34 19.01 36.24 19.01 39C19.01 40.45 19.62 41.75 20.61 42.66C17.9 43.77 16.01 46.17 16.01 49H18.01V48.81C18.14 46.17 20.74 44 24.01 44C27.28 44 30.01 46.28 30.01 49H32.01V48.77H32ZM24 42C22.34 42 21 40.66 21 39C21 37.34 22.34 36 24 36C25.66 36 27 37.34 27 39C27 40.66 25.66 42 24 42ZM62.02 63C62.02 63.55 61.57 64 61.02 64C60.47 64 60.02 63.55 60.02 63C60.02 62.45 60.47 62 61.02 62C61.57 62 62.02 62.45 62.02 63ZM61.02 58C58.26 58 56.02 60.24 56.02 63C56.02 65.76 58.26 68 61.02 68C63.78 68 66.02 65.76 66.02 63C66.02 60.24 63.78 58 61.02 58ZM61.02 66C59.36 66 58.02 64.66 58.02 63C58.02 61.34 59.36 60 61.02 60C62.68 60 64.02 61.34 64.02 63C64.02 64.66 62.68 66 61.02 66ZM66.48 52H69.05C72.1 51.99 74.05 53.94 74.05 57.99C74.05 62.04 72.1 63.99 69.05 63.99C68.5 63.99 68.05 63.54 68.05 62.99C68.05 62.44 68.5 61.99 69.05 61.99C71 61.99 72.05 60.85 72.05 57.99C72.05 55.13 71.06 54.06 69.22 53.99H43.05C42.5 53.99 42.05 53.54 42.05 52.99C42.05 52.48 42.43 52.05 42.93 51.99H50.05V48.99C50.05 48.44 50.5 47.99 51.05 47.99C51.56 47.99 51.99 48.37 52.05 48.87V51.99H63.89L61.38 49.04L60.14 47.61L59.67 47.08L59.31 46.68C59.09 46.46 58.74 46.28 58.27 46.16C57.83 46.05 57.42 46.01 56.9 46H43.03C41.03 46 39.7 47.21 38.84 49.37C38.52 50.17 38.3 51.04 38.16 51.91C38.16 51.96 38.14 52.02 38.14 52.07C38.12 52.22 38.1 52.36 38.08 52.49L38.03 52.85V53.04C38 53.58 37.56 54 37.03 54C33.35 54 31.83 55.53 32.03 58.94C32.06 59.49 31.64 59.97 31.09 60C30.54 60.03 30.06 59.61 30.03 59.06C29.78 54.84 31.85 52.41 35.92 52.05L36.12 52.03L36.15 51.81L36.18 51.59C36.34 50.58 36.6 49.58 36.98 48.63C38.07 45.88 39.96 44.11 42.75 44H56.62C57.43 44 58.03 44.04 58.74 44.22C59.55 44.42 60.24 44.77 60.75 45.31L60.94 45.52L61.49 46.14L62.74 47.59L65.45 50.78L66.48 52ZM39.02 64C39.57 64 40.02 63.55 40.02 63C40.02 62.45 39.57 62 39.02 62C38.47 62 38.02 62.45 38.02 63C38.02 63.55 38.47 64 39.02 64ZM43.92 62H53.02C53.57 62 54.02 62.45 54.02 63C54.02 63.51 53.64 63.94 53.14 64H43.92C43.46 66.28 41.44 68 39.02 68C36.26 68 34.02 65.76 34.02 63C34.02 60.24 36.26 58 39.02 58C41.44 58 43.46 59.72 43.92 62ZM36.02 63C36.02 64.66 37.36 66 39.02 66C40.68 66 42.02 64.66 42.02 63C42.02 61.34 40.68 60 39.02 60C37.36 60 36.02 61.34 36.02 63Z" fill="#E1000F"/>
	<path fill-rule="evenodd" clip-rule="evenodd" d="M22 60C22.55 60 23 59.55 23 59C23 58.45 22.55 58 22 58H11C10.15 58 9.4 57.79 8.89 57.36C8.41 56.96 8 56.26 8 55V16.5C8 15.55 9.05 14 11 14H46C46.55 14 47 13.55 47 13C47 12.45 46.55 12 46 12H11C7.95 12 6 14.45 6 16.5V55C6 56.74 6.59 58.04 7.61 58.89C8.6 59.71 9.85 60 11 60H22ZM55 13C55 12.45 55.45 12 56 12H65C66.15 12 67.4 12.29 68.39 13.11C69.41 13.96 70 15.26 70 17V47C70 47.55 69.55 48 69 48C68.45 48 68 47.55 68 47V17C68 15.74 67.59 15.04 67.11 14.64C66.6 14.21 65.85 14 65 14H56C55.45 14 55 13.55 55 13ZM19 20H14V22H19V20ZM12 18V24H21V18H19M26 20C25.45 20 25 20.45 25 21C25 21.55 25.45 22 26 22H37C37.55 22 38 21.55 38 21C38 20.45 37.55 20 37 20H26ZM41 20C40.45 20 40 20.45 40 21C40 21.55 40.45 22 41 22H63C63.55 22 64 21.55 64 21C64 20.45 63.55 20 63 20H41ZM40 29C40 28.45 40.45 28 41 28H57C57.55 28 58 28.45 58 29C58 29.55 57.55 30 57 30H41C40.45 30 40 29.55 40 29ZM40 33C40 32.45 40.45 32 41 32H49C49.55 32 50 32.45 50 33C50 33.55 49.55 34 49 34H41C40.45 34 40 33.55 40 33ZM41 36C40.45 36 40 36.45 40 37C40 37.55 40.45 38 41 38H46C46.55 38 47 37.55 47 37C47 36.45 46.55 36 46 36H41ZM49 37C49 36.45 49.45 36 50 36H55C55.55 36 56 36.45 56 37C56 37.55 55.55 38 55 38H50C49.45 38 49 37.55 49 37Z" fill="#000091"/>
</svg>
