<svg width='80px' height='80px' fill='none' viewBox='0 0 80 80' xmlns='http://www.w3.org/2000/svg' focusable='false' aria-hidden='true'>
	<path d="M17.6081 40.0335C17.056 40.9082 16.7766 41.7892 16.6364 42.4556C16.5666 42.7872 16.5324 43.0605 16.5157 43.2458C16.5073 43.3382 16.5034 43.4082 16.5016 43.4519C16.5007 43.4738 16.5003 43.489 16.5001 43.4971L16.5 43.5018L16.5 43.5037C16.4978 44.0542 16.051 44.4997 15.5 44.4997C14.9477 44.4997 14.5 44.052 14.5 43.4997V26.4997C14.5 25.9474 14.9477 25.4997 15.5 25.4997C16.0523 25.4997 16.5 25.9474 16.5 26.4997V38.1496V39.5L17.6081 40.0335Z" fill="#E1000F"/>
	<path fill-rule="evenodd" clip-rule="evenodd" d="M57.6543 25.512C58.1999 25.5972 58.5732 26.1086 58.488 26.6543L57.5 26.5C58.488 26.6543 58.4881 26.6539 58.488 26.6543L58.4878 26.6557L58.4869 26.6615L58.4851 26.6723L58.4796 26.7038C58.475 26.7293 58.4686 26.7635 58.4598 26.8061C58.4424 26.8912 58.416 27.0096 58.3777 27.1573C58.3011 27.4526 58.177 27.8656 57.9823 28.3641C57.5929 29.3611 56.9203 30.7023 55.7805 32.1252C55.4352 32.5562 54.8058 32.6257 54.3748 32.2804C53.9438 31.9351 53.8743 31.3058 54.2196 30.8748C55.2152 29.6319 55.7926 28.4731 56.1194 27.6365C56.2827 27.2182 56.3832 26.8811 56.4417 26.6554C56.4709 26.5426 56.4897 26.4578 56.5005 26.4049C56.5059 26.3784 56.5094 26.3599 56.5112 26.3499L56.5121 26.3451C56.5123 26.3438 56.5125 26.3426 56.5127 26.3414C56.5999 25.7981 57.11 25.427 57.6543 25.512ZM16.5 43.5012L16.5 43.5022L16.5 43.5037L16.5001 43.4982C16.5003 43.4903 16.5007 43.4754 16.5016 43.4539C16.5035 43.4107 16.5075 43.3414 16.5161 43.2496C16.5334 43.0656 16.5688 42.7938 16.641 42.4637C16.786 41.8007 17.0753 40.9221 17.6485 40.0486C18.7559 38.3613 21.0481 36.5 26 36.5C28.835 36.5 30.935 36.6234 32.7702 36.7477C32.9951 36.7629 33.2167 36.7782 33.4357 36.7934C34.998 36.9012 36.4281 37 38 37C38.5523 37 39 36.5523 39 36C39 35.4477 38.5523 35 38 35C36.5016 35 35.1438 34.9064 33.5758 34.7982C33.3567 34.7831 33.1336 34.7677 32.9053 34.7523C31.049 34.6266 28.899 34.5 26 34.5C20.4519 34.5 17.4941 36.6387 15.9765 38.9513C15.2372 40.0778 14.8703 41.1993 14.6872 42.0363C14.5953 42.4562 14.5486 42.8093 14.5249 43.0629C14.513 43.1899 14.5068 43.2924 14.5035 43.3664C14.5019 43.4035 14.501 43.4335 14.5005 43.4559L14.5001 43.4838L14.5 43.4934L14.5 43.4971L14.5 43.4986C14.5 43.4993 14.5 43.5 15.5 43.5H14.5C14.5 44.0523 14.9477 44.5 15.5 44.5C16.0508 44.5 16.4977 44.054 16.5 43.5037C16.5 43.5027 16.5 43.5022 16.5 43.5012Z" fill="#E1000F"/>
	<path d="M50.0778 56.511C49.898 57.0332 50.1755 57.6023 50.6977 57.7821C52.784 58.5005 55.0637 57.3886 55.7821 55.3023C56.5004 53.216 55.3885 50.9363 53.3023 50.2179C51.216 49.4996 48.9363 50.6115 48.2179 52.6977C48.0381 53.2199 48.3157 53.789 48.8379 53.9688C49.3601 54.1486 49.9291 53.8711 50.109 53.3489L50.1626 53.2098C50.5713 52.2583 51.6566 51.7665 52.6511 52.109C53.693 52.4677 54.2498 53.6093 53.891 54.6511C53.5323 55.6931 52.3908 56.2498 51.3489 55.891C50.8267 55.7112 50.2576 55.9888 50.0778 56.511Z" fill="#E1000F"/>
	<path fill-rule="evenodd" clip-rule="evenodd" d="M15.5 48.5C12.4624 48.5 10 50.9624 10 54C10 57.0376 12.4624 59.5 15.5 59.5C18.5376 59.5 21 57.0376 21 54C21 50.9624 18.5376 48.5 15.5 48.5ZM8 54C8 49.8579 11.3579 46.5 15.5 46.5C19.6421 46.5 23 49.8579 23 54C23 58.1421 19.6421 61.5 15.5 61.5C11.3579 61.5 8 58.1421 8 54Z" fill="#000091"/>
	<path fill-rule="evenodd" clip-rule="evenodd" d="M15.5 10.5C12.4624 10.5 10 12.9624 10 16C10 19.0376 12.4624 21.5 15.5 21.5C18.5376 21.5 21 19.0376 21 16C21 12.9624 18.5376 10.5 15.5 10.5ZM8 16C8 11.8579 11.3579 8.5 15.5 8.5C19.6421 8.5 23 11.8579 23 16C23 20.1421 19.6421 23.5 15.5 23.5C11.3579 23.5 8 20.1421 8 16Z" fill="#000091"/>
	<path fill-rule="evenodd" clip-rule="evenodd" d="M57.5 10.5C54.4624 10.5 52 12.9624 52 16C52 19.0376 54.4624 21.5 57.5 21.5C60.5376 21.5 63 19.0376 63 16C63 12.9624 60.5376 10.5 57.5 10.5ZM50 16C50 11.8579 53.3579 8.5 57.5 8.5C61.6421 8.5 65 11.8579 65 16C65 20.1421 61.6421 23.5 57.5 23.5C53.3579 23.5 50 20.1421 50 16Z" fill="#000091"/>
	<path fill-rule="evenodd" clip-rule="evenodd" d="M52 36C42.0589 36 34 44.0589 34 54C34 57.4471 34.968 60.665 36.6464 63.4003C37.9964 65.6002 39.8062 67.4882 41.9419 68.9299C42.3996 69.239 42.5202 69.8605 42.2112 70.3183C41.9022 70.776 41.2806 70.8966 40.8228 70.5876C38.451 68.9864 36.4414 66.8901 34.9418 64.4463C33.0757 61.4053 32 57.8268 32 54C32 42.9543 40.9543 34 52 34C63.0457 34 72 42.9543 72 54C72 54.5523 71.5523 55 71 55C70.4477 55 70 54.5523 70 54C70 44.0589 61.9411 36 52 36Z" fill="#000091"/>
	<path d="M38.0026 53L38.0032 52.4463L38.0192 52.2884C38.1275 51.6249 38.6703 51.1212 39.3329 51.057L39.4766 51.05L40.2574 51.0505L40.3863 51.0472C40.9118 51.0142 41.3785 50.6946 41.6187 50.1848L41.8445 49.6454L41.9363 49.4392C42.169 48.9386 42.0878 48.3418 41.7338 47.9101L41.6305 47.7966L40.9977 47.1569L40.8885 47.0187C40.517 46.4773 40.55 45.7558 40.9616 45.2482L41.0633 45.135L43.2099 42.9944L43.2757 42.9398C43.7006 42.5871 44.3311 42.6456 44.6838 43.0706C45.0094 43.4629 44.9846 44.0302 44.6446 44.3926L44.5531 44.4787L44.5557 44.471L42.8454 46.1829L43.042 46.3797C44.0268 47.3557 44.3312 48.8222 43.8371 50.0798L43.6807 50.4378L43.5413 50.7673C43.0965 51.9986 41.9973 52.8669 40.6871 53.0257L40.4786 53.0448L40.287 53.05L40.0004 53.0509V54.9509L40.282 54.95C41.5818 54.9477 42.7702 55.6744 43.3671 56.8334L43.4564 57.0199L43.5231 57.1855C43.5685 57.3045 43.6166 57.4233 43.6652 57.5366L43.738 57.7017C44.2854 58.8794 44.1251 60.2581 43.3232 61.2928L43.1836 61.462L43.046 61.6076L42.8404 61.8139L44.5491 63.5225C44.9096 63.883 44.9374 64.4502 44.6323 64.8425L44.5491 64.9367C44.1887 65.2972 43.6214 65.3249 43.2291 65.0199L43.1349 64.9367L40.9947 62.7905L40.8853 62.6525C40.5131 62.1114 40.545 61.3901 40.9563 60.8814L41.058 60.7679L41.6101 60.2157L41.7033 60.1175C42.0792 59.6888 42.1682 59.0693 41.9208 58.537C41.8586 58.4001 41.7977 58.2583 41.7416 58.12L41.6152 57.8001C41.4074 57.3317 40.9483 57.0069 40.4273 56.9568L40.2838 56.95L39.3962 56.9468L39.2383 56.9307C38.5749 56.8225 38.0711 56.2797 38.0069 55.6171L38 55.4734L38.0005 55L38.0026 53Z" fill="#000091"/>
	<path d="M54.8336 62.6328C53.6747 63.2298 52.9479 64.4181 52.9503 65.718L52.951 66H51.051L51.0502 65.713L51.045 65.5214L51.0259 65.3128C50.8671 64.0027 49.9988 62.9035 48.7676 62.4587L48.438 62.3193L48.267 62.243L48.1577 62.2018C47.6798 62.0527 47.1554 62.2823 46.9472 62.7509C46.7229 63.2557 46.9503 63.8466 47.4551 64.0708L47.6457 64.1555L48.185 64.3813C48.6948 64.6214 49.0144 65.0882 49.0474 65.6137L49.0507 65.7425L49.0502 66.5233L49.0572 66.667C49.1214 67.3297 49.6252 67.8725 50.2886 67.9807L50.4465 67.9968L53.4736 68L53.6173 67.9931C54.2799 67.9288 54.8228 67.4251 54.931 66.7616L54.947 66.6038L54.9502 65.7161L54.957 65.5727C55.0071 65.0516 55.3319 64.5926 55.8003 64.3848L56.1208 64.2581C56.2594 64.2019 56.4018 64.1407 56.5406 64.0776C57.0705 63.8326 57.6882 63.9217 58.1187 64.2979L58.2173 64.3912L58.7696 64.9435L58.8824 65.0448C59.3884 65.455 60.1083 65.4899 60.6483 65.1215L60.7866 65.0127L62.9381 62.861L63.0395 62.748C63.4502 62.2412 63.4832 61.5198 63.1117 60.9784L63.0025 60.8402L62.3697 60.2005L62.2664 60.087C61.9125 59.6552 61.8312 59.0585 62.0639 58.5578C62.1315 58.4094 62.1935 58.2657 62.2508 58.1252L62.3279 57.9312L62.3862 57.7926C62.622 57.3002 63.0905 56.9817 63.6094 56.9521L63.7365 56.9497L64.5236 56.95L64.6673 56.9431C65.3299 56.8788 65.8728 56.3751 65.981 55.7116L65.997 55.5538L66.0002 52.5267L65.9933 52.383C65.9291 51.7204 65.4253 51.1775 64.7619 51.0693L64.604 51.0532L63.7164 51.05L63.5729 51.0432C63.0519 50.9932 62.5928 50.6683 62.385 50.1999L62.2586 49.88C62.2025 49.7418 62.1417 49.5999 62.0794 49.463C61.832 48.9307 61.921 48.3112 62.2969 47.8825L62.3901 47.7843L62.9437 47.2306L63.0452 47.1176C63.456 46.6108 63.4897 45.8901 63.1194 45.3492L63.0104 45.211L60.869 43.0633L60.7558 42.9616C60.2481 42.55 59.5267 42.517 58.9853 42.8885L58.8471 42.9977L58.2037 43.6342L58.0907 43.7365C57.6606 44.0869 57.0656 44.1674 56.5621 43.9351L56.359 43.8447L55.8267 43.6223C55.3096 43.382 54.9875 42.9146 54.9533 42.3854L54.9498 42.2556L54.9502 41.4767L54.9433 41.333C54.8791 40.6703 54.3753 40.1275 53.7119 40.0193L53.554 40.0032L50.5269 40L50.3832 40.0069C49.7206 40.0712 49.1777 40.5749 49.0695 41.2384L49.0535 41.3962L49.0502 42.2839L49.0435 42.4273C48.9934 42.9484 48.6686 43.4074 48.2002 43.6152L47.8797 43.7419C47.7411 43.7981 47.5987 43.8593 47.4599 43.9224C46.9572 44.1509 46.7349 44.7438 46.9635 45.2466C47.1921 45.7493 47.7849 45.9716 48.2877 45.743C48.4578 45.6657 48.6358 45.5914 48.8147 45.5232L48.9804 45.4565L49.1669 45.3672C50.3258 44.7702 51.0526 43.5819 51.0502 42.282L51.051 42H52.951L52.9502 42.287L52.9559 42.4814L52.9743 42.6809C53.1331 44.0008 54.0092 45.1053 55.2503 45.5462L55.5654 45.6804L55.737 45.7569L55.9243 45.8366C57.1834 46.328 58.6431 46.0262 59.6185 45.0478L59.822 44.845L61.162 46.185L60.9542 46.3925L60.8166 46.5381L60.677 46.7072C59.8752 47.7419 59.7148 49.1207 60.2622 50.2983L60.4073 50.6368L60.5438 50.9801L60.6331 51.1667C61.2301 52.3256 62.4184 53.0524 63.7182 53.05L64.001 53.05V54.95H63.7133L63.5292 54.954L63.3311 54.9708C62.0198 55.1188 60.9107 55.9857 60.4593 57.2187L60.3955 57.3786L60.3247 57.5466L60.2469 57.7222L60.1663 57.9103C59.669 59.1748 59.9735 60.6414 60.9582 61.6174L61.156 61.816L59.816 63.161L59.6078 62.9539L59.4605 62.8152L59.2913 62.6761C58.2569 61.8766 56.8829 61.7159 55.707 62.2596L55.4519 62.3707L55.0201 62.5435L54.8336 62.6328Z" fill="#000091"/>
</svg>
