<svg width='80px' height='80px' fill='none' viewBox='0 0 80 80' xmlns='http://www.w3.org/2000/svg' focusable='false' aria-hidden='true'>
	<path fill-rule="evenodd" clip-rule="evenodd" d="M19.5042 22.8912L36.5843 35.1884C37.0325 35.5111 37.1342 36.1361 36.8115 36.5843C36.4889 37.0325 35.8639 37.1342 35.4157 36.8115L19.1439 25.0957L16.7975 28.3253L36.5877 42.3553C36.6838 42.4235 36.7669 42.5079 36.8333 42.6045L36.8941 42.705C37.6846 44.2052 38.6355 44.9262 39.8123 44.9946L40 45C41.1046 45 42 44.1046 42 43C42 41.8954 41.1046 41 40 41C39.5898 41 39.2006 41.1229 38.872 41.3481L38.7349 41.4508C38.3075 41.8005 37.6775 41.7375 37.3278 41.31C36.9781 40.8825 37.0411 40.2525 37.4686 39.9028C38.1775 39.3228 39.0653 39 40 39C41.8639 39 43.43 40.2748 43.874 42.0001L51 42C51.5523 42 52 42.4477 52 43C52 43.5523 51.5523 44 51 44L43.8738 44.0008C43.4459 45.6617 41.978 46.905 40.2058 46.9948L40 47C38.0962 47 36.5468 46.0097 35.4115 44.1438L35.2428 43.8539L14.8149 29.3727C14.3909 29.0721 14.2723 28.5023 14.5244 28.0614L14.5842 27.9691L18.1109 23.115C18.4345 22.6695 19.0574 22.5695 19.5042 22.8912ZM29 42C29.5523 42 30 42.4477 30 43C30 43.5523 29.5523 44 29 44H21C20.4477 44 20 43.5523 20 43C20 42.4477 20.4477 42 21 42H29Z" fill="#E1000F"/>
	<path fill-rule="evenodd" clip-rule="evenodd" d="M65.6966 12.2742C68.9025 13.4411 69.4859 15.9997 67.613 19.3642C69.8421 20.2515 70.6552 22.0411 69.7795 24.447C69.237 25.9375 68.2279 26.7514 66.8304 26.934C67.5095 28.1591 67.6005 29.725 67.0896 31.8198L67.042 31.9997L69 32C69.5523 32 70 32.4477 70 33V39C70 39.5523 69.5523 40 69 40L65.882 39.9997L63.6098 58.12C63.0452 62.6222 59.2173 66 54.6798 66H25.3202C20.7827 66 16.9548 62.6222 16.3902 58.12L14.117 39.9997L9 40C8.44772 40 8 39.5523 8 39V33C8 32.4477 8.44772 32 9 32H15C15.5523 32 16 32.4477 16 33C16 33.5523 15.5523 34 15 34H10V38H23C23.5128 38 23.9355 38.386 23.9933 38.8834L24 39C24 39.5523 23.5523 40 23 40L16.133 39.9997L18.3746 57.8711C18.8138 61.3728 21.791 64 25.3202 64H54.6798C58.209 64 61.1862 61.3728 61.6254 57.8711L63.866 39.9997L47 40C46.4477 40 46 39.5523 46 39C46 38.4477 46.4477 38 47 38H68V34L65.8796 34.0016C65.7256 34.0392 65.5614 34.0406 65.4001 34L57 34C56.4872 34 56.0645 33.614 56.0067 33.1166L56 33C56 32.4477 56.4477 32 57 32L58.517 31.9997L58.5604 31.9005C58.7848 31.4529 59.314 31.2347 59.7959 31.4101L61.417 31.9997L64.9531 31.9995C65.0361 31.7519 65.101 31.5329 65.1466 31.3459C65.7996 28.6684 65.3067 27.4044 63.3052 26.3879C62.8109 26.21 62.2947 25.9916 61.7575 25.7339L61.751 25.7307L61.7407 25.7257C61.6841 25.6974 61.6311 25.6641 61.5822 25.6267C61.5737 25.6201 61.5653 25.6134 61.5569 25.6066C61.5326 25.5868 61.5096 25.5661 61.4876 25.5443C61.4836 25.5405 61.4792 25.536 61.4748 25.5316C61.4594 25.5158 61.4443 25.4992 61.4297 25.4821C61.3933 25.4395 61.3609 25.3943 61.3325 25.3469C61.3217 25.3287 61.3115 25.3104 61.3019 25.2918L61.3325 25.3469C61.316 25.3194 61.3009 25.2912 61.2872 25.2623C61.2749 25.2364 61.2637 25.2102 61.2537 25.1835C61.2508 25.1756 61.248 25.1678 61.2453 25.16C61.2386 25.1409 61.2324 25.1214 61.2269 25.1016C61.2033 25.017 61.1906 24.9291 61.1898 24.8402L61.1898 24.8271C61.1903 24.7238 61.2069 24.619 61.2413 24.5161C61.2428 24.5114 61.2443 24.5071 61.2458 24.5027C61.2472 24.4989 61.2488 24.4945 61.2503 24.4902L61.2779 24.4223C61.2813 24.4147 61.2848 24.4072 61.2884 24.3997L61.295 24.3857C61.3051 24.3659 61.3141 24.3492 61.3235 24.3328L61.2884 24.3997C61.3236 24.3264 61.3665 24.2594 61.4157 24.1991C61.4302 24.1814 61.4451 24.1643 61.4606 24.1478C61.4962 24.1099 61.5345 24.075 61.5751 24.0434C61.6528 23.9831 61.7382 23.9349 61.8287 23.8998C61.8399 23.8955 61.8511 23.8914 61.8623 23.8875C61.8846 23.8797 61.9075 23.8726 61.9307 23.8664C61.942 23.8634 61.9528 23.8607 61.9637 23.8582L61.975 23.8555C62.002 23.8496 62.0293 23.8447 62.0568 23.841C62.0628 23.8403 62.0678 23.8396 62.0729 23.839C62.0977 23.836 62.1238 23.8339 62.1499 23.8328C62.1608 23.8324 62.1715 23.8322 62.1821 23.8321L62.1952 23.832C62.2065 23.8321 62.2179 23.8323 62.2292 23.8328C62.2542 23.8337 62.2793 23.8357 62.3043 23.8385C62.3115 23.8394 62.3185 23.8403 62.3255 23.8413C62.3555 23.8453 62.3856 23.8508 62.4155 23.8578C62.4302 23.8613 62.4453 23.8652 62.4602 23.8694C62.4807 23.8751 62.5007 23.8814 62.5206 23.8884C62.5241 23.8897 62.5281 23.8911 62.532 23.8926C63.1101 24.103 63.6376 24.3253 64.114 24.5645C66.2937 25.3508 67.4432 25.0182 67.9001 23.763C68.4875 22.1491 67.9665 21.3626 65.8918 20.9372C65.3507 20.8262 65.0021 20.2977 65.113 19.7567C65.1261 19.6928 65.1451 19.6315 65.1692 19.5734C65.1969 19.4855 65.2382 19.3994 65.2928 19.3184C67.2798 16.3766 67.1119 14.9177 65.0126 14.1536C62.9132 13.3895 61.8468 14.3992 61.478 17.9299C61.4206 18.4792 60.9288 18.878 60.3795 18.8206L60.2902 18.8077C60.0242 18.8921 59.7246 18.8653 59.4675 18.7088C58.6928 18.2372 57.8673 18.3331 57.1028 18.9746C55.7871 20.0786 55.8451 21.0202 57.4292 22.426C57.7097 22.675 57.8171 23.0464 57.7423 23.3885C58.1683 23.3107 58.6207 23.2821 59.0988 23.2993C59.6507 23.3192 60.082 23.7828 60.0621 24.3347C60.0422 24.8866 59.5787 25.3179 59.0267 25.298C57.2274 25.2331 56.1225 26.0341 55.2623 28.4915L55.248 28.5347C55.2256 28.6048 55.1902 28.7243 55.1451 28.8805L54.4414 31.4259C54.3549 31.7466 54.273 32.0531 54.2024 32.3209L53.9816 33.1919C53.9742 33.23 53.9646 33.2674 53.953 33.3038L53.9476 33.3196C53.9392 33.3448 53.9323 33.3629 53.925 33.3808C53.9172 33.3993 53.9092 33.4174 53.9007 33.4351C53.8983 33.44 53.8958 33.4451 53.8932 33.4501C53.8791 33.4782 53.8639 33.5051 53.8476 33.5311C53.836 33.5493 53.8241 33.5669 53.8117 33.5842C53.8032 33.5963 53.794 33.6084 53.7846 33.6203C53.7732 33.6345 53.7618 33.648 53.7501 33.6613C53.7375 33.6759 53.7241 33.6902 53.7103 33.704C53.7002 33.7141 53.6893 33.7246 53.6782 33.7349C53.6619 33.75 53.6453 33.7643 53.6283 33.778C53.6154 33.7885 53.6019 33.7988 53.5882 33.8088C53.5742 33.8189 53.56 33.8287 53.5455 33.8381L53.5361 33.8443L53.524 33.8517C53.4973 33.8681 53.4699 33.8833 53.4417 33.8972C53.3942 33.9208 53.3444 33.9407 53.2929 33.9564C53.2725 33.9626 53.2516 33.9683 53.2305 33.9733C53.1893 33.9828 53.1555 33.9887 53.1213 33.9929C53.1118 33.9939 53.1018 33.9949 53.0918 33.9958C53.0689 33.9981 53.046 33.9994 53.0229 34L39 34C38.4477 34 38 33.5523 38 33C38 32.4477 38.4477 32 39 32L52.221 31.9997L52.2931 31.7188C52.6426 30.3951 53.2082 28.3457 53.3569 27.8837L53.3746 27.8307L53.4805 27.5392C53.5482 27.3596 53.6184 27.1862 53.6909 27.0188C53.2343 27.0272 52.8169 26.7194 52.7038 26.2572C52.3158 24.6713 51.497 23.5186 49.9123 22.3675C49.3719 21.975 48.5214 21.9156 46.9792 22.1322L45.1702 22.4145C44.737 22.478 44.4078 22.517 44.104 22.5381C44.1787 23.1575 44.2893 23.8438 44.4392 24.5984C44.7297 24.383 44.9265 24.0827 45.0455 23.7017C45.2103 23.1746 45.7711 22.8808 46.2983 23.0455C46.8254 23.2102 47.1192 23.7711 46.9545 24.2983C46.2159 26.6617 44.0163 27.4438 40.7914 26.7558C40.2512 26.6405 39.9068 26.1093 40.022 25.5691C40.1372 25.029 40.6685 24.6846 41.2086 24.7998C41.5856 24.8802 41.9313 24.9371 42.2475 24.9709L42.478 24.9917L42.4524 24.8603C42.2847 23.9979 42.1625 23.194 42.0879 22.4504C41.8245 22.4144 41.5213 22.3675 41.1556 22.3081L40.6409 22.2237C38.6404 21.8975 37.7052 21.915 37.0911 22.365C36.6522 22.6866 36.2689 23.0099 35.9357 23.3462L35.9487 23.3162C35.8614 23.5782 35.6761 23.78 35.4472 23.8944C34.3867 25.2286 34 26.8248 34 29.2877C34 29.84 33.5523 30.2877 33 30.2877C32.4477 30.2877 32 29.84 32 29.2877C32 26.8736 32.3638 25.0619 33.2591 23.5478C30.5292 22.9393 28.8209 23.5943 27.8944 25.4472C27.6474 25.9412 27.0468 26.1414 26.5528 25.8944C26.0588 25.6474 25.8586 25.0468 26.1056 24.5528C27.6095 21.5449 30.5548 20.6682 34.619 21.8348C34.9997 21.4628 35.4286 21.1038 35.9089 20.7518C37.0254 19.9336 38.2045 19.8451 40.3523 20.1555L42.0081 20.417C42.095 17.9254 42.9763 16.4253 44.7831 16.0238C45.3222 15.904 45.8564 16.2439 45.9762 16.7831C46.0874 17.2837 45.8023 17.78 45.3293 17.9443L45.2169 17.9762C44.4814 18.1396 44.0412 18.9669 43.9954 20.5389C44.3287 20.515 44.7213 20.4626 45.3188 20.3686L46.3969 20.1964C48.6226 19.8554 49.9402 19.9158 51.0877 20.7494C52.9376 22.093 54.0219 23.5526 54.5608 25.4568C55.025 24.8087 55.5565 24.315 56.1562 23.9641C56.1373 23.9525 56.1193 23.9376 56.1016 23.9219C53.6533 21.7492 53.5077 19.3805 55.8172 17.4426C56.9605 16.4832 58.3422 16.1719 59.6478 16.6012C60.3523 12.7284 62.4547 11.0943 65.6966 12.2742ZM27 48C27.5523 48 28 48.4477 28 49V53C28 53.5523 27.5523 54 27 54C26.4477 54 26 53.5523 26 53V50H24V57C24 58.5977 25.2489 59.9037 26.8237 59.9949L27 60C27.5523 60 28 60.4477 28 61C28 61.5523 27.5523 62 27 62C24.2386 62 22 59.7614 22 57V49C22 48.4477 22.4477 48 23 48H27ZM37 48C37.5523 48 38 48.4477 38 49V51C38 51.5523 37.5523 52 37 52C36.4477 52 36 51.5523 36 51V50H34V60H37C37.5128 60 37.9355 60.386 37.9933 60.8834L38 61C38 61.5523 37.5523 62 37 62H33C32.4477 62 32 61.5523 32 61V49C32 48.4477 32.4477 48 33 48H37ZM47 48C47.5523 48 48 48.4477 48 49V61C48 61.5523 47.5523 62 47 62H43C42.4477 62 42 61.5523 42 61V57C42 56.4477 42.4477 56 43 56C43.5523 56 44 56.4477 44 57V60H46V49C46 48.4872 46.386 48.0645 46.8834 48.0067L47 48ZM57 48C57.5523 48 58 48.4477 58 49V57C58 59.7614 55.7614 62 53 62C52.4477 62 52 61.5523 52 61V57C52 56.4477 52.4477 56 53 56C53.5523 56 54 56.4477 54 57V59.829L54.0118 59.8251C55.1181 59.4288 55.9239 58.4011 55.9949 57.1763L56 57V49C56 48.4477 56.4477 48 57 48Z" fill="#000091"/>
</svg>
