<svg width='80px' height='80px' fill='none' viewBox='0 0 80 80' xmlns='http://www.w3.org/2000/svg' focusable='false' aria-hidden='true'><path fill-rule="evenodd" clip-rule="evenodd" d="M64 13C63.4486 13 63 12.5514 63 12C63 11.4486 63.4486 11 64 11C64.5514 11 65 11.4486 65 12C65 12.5514 64.5514 13 64 13Z" fill="#ECECFE"/> <path fill-rule="evenodd" clip-rule="evenodd" d="M23 68C22.4486 68 22 67.5514 22 67C22 66.4486 22.4486 66 23 66C23.5514 66 24 66.4486 24 67C24 67.5514 23.5514 68 23 68Z" fill="#ECECFE"/> <path fill-rule="evenodd" clip-rule="evenodd" d="M71 59C70.4486 59 70 58.5514 70 58C70 57.4486 70.4486 57 71 57C71.5514 57 72 57.4486 72 58C72 58.5514 71.5514 59 71 59Z" fill="#ECECFE"/> <path fill-rule="evenodd" clip-rule="evenodd" d="M10 56C9.4486 56 9 55.5514 9 55C9 54.4486 9.4486 54 10 54C10.5514 54 11 54.4486 11 55C11 55.5514 10.5514 56 10 56Z" fill="#ECECFE"/> <path fill-rule="evenodd" clip-rule="evenodd" d="M22 9C21.4486 9 21 8.5514 21 8C21 7.44855 21.4486 7 22 7C22.5514 7 23 7.44855 23 8C23 8.5514 22.5514 9 22 9Z" fill="#ECECFE"/> <path d="M50.0855 41C50.6378 41 51.0855 41.4477 51.0855 42L51.085 43H57.0855C57.6378 43 58.0855 43.4477 58.0855 44C58.0855 44.5523 57.6378 45 57.0855 45L55.4161 45.0004C54.2973 47.8987 52.6521 50.5405 50.5943 52.8058C52.2359 54.4641 54.1483 55.9595 56.1508 57.1382C56.1941 57.1637 56.2347 57.1919 56.2727 57.2225L59.1694 50.5992L59.179 50.579L59.174 50.588L59.1967 50.5417L59.181 50.575L59.2166 50.505L59.2309 50.4806C59.2438 50.4593 59.2577 50.4382 59.2724 50.4177C59.2832 50.4024 59.2947 50.3873 59.3065 50.3727C59.3155 50.3615 59.3247 50.3505 59.3342 50.3397L59.3592 50.3123L59.385 50.286C59.3947 50.2765 59.4054 50.2664 59.4163 50.2565C59.4311 50.2433 59.4455 50.2312 59.4601 50.2194C59.4749 50.2076 59.491 50.1954 59.5075 50.1838C59.5224 50.1733 59.5367 50.1638 59.5512 50.1546C59.5688 50.1435 59.5876 50.1324 59.6068 50.122L59.6429 50.1033L59.6847 50.0838L59.7048 50.0753L59.7336 50.064L59.748 50.058L59.8082 50.0391C59.8308 50.0326 59.8539 50.0268 59.8772 50.0219C59.8896 50.0191 59.902 50.0167 59.9143 50.0145C59.942 50.0098 59.9697 50.0062 59.9975 50.0037L60.0231 50.0017L60.0853 49.9997L60.1284 50.0007L60.147 50.0016L60.1771 50.0039C60.2041 50.0065 60.2304 50.0101 60.2565 50.0146C60.2691 50.0167 60.2814 50.0191 60.2938 50.0217C60.3172 50.0268 60.3402 50.0326 60.3631 50.0393C60.3779 50.0435 60.3929 50.0482 60.4079 50.0533C60.4279 50.0602 60.4472 50.0674 60.4662 50.0753L60.4864 50.0838L60.5282 50.1033L60.556 50.117C60.5784 50.1289 60.5994 50.1417 60.6206 50.155C60.6344 50.1638 60.6487 50.1733 60.6628 50.1832C60.6801 50.1954 60.6962 50.2076 60.7118 50.2201C60.7256 50.2312 60.74 50.2433 60.754 50.2559C60.7657 50.2664 60.7764 50.2765 60.7869 50.2868C60.8036 50.3032 60.8205 50.321 60.8368 50.3396C60.8464 50.3505 60.8556 50.3615 60.8645 50.3727C60.8764 50.3873 60.8878 50.4024 60.8989 50.4179C60.9134 50.4382 60.9272 50.4593 60.9403 50.4808L60.9543 50.5047C60.9683 50.5292 60.981 50.5539 60.9927 50.5791C60.9955 50.5853 60.9987 50.5922 61.0017 50.5992L68.0017 66.5992C68.2231 67.1052 67.9923 67.6948 67.4864 67.9162C66.9804 68.1375 66.3907 67.9068 66.1694 67.4008L63.806 62H56.364L54.0017 67.4008C53.7803 67.9068 53.1907 68.1375 52.6847 67.9162C52.1787 67.6948 51.948 67.1052 52.1694 66.5992L55.4996 58.9898C55.3749 58.9718 55.2516 58.9297 55.1363 58.8618C52.9956 57.6018 50.9532 56.0085 49.1889 54.2319C47.2107 56.0908 44.9253 57.6325 42.4138 58.7733C41.911 59.0017 41.3182 58.7792 41.0898 58.2763C40.8614 57.7735 41.0838 57.1807 41.5867 56.9523C43.9013 55.901 46.0076 54.4791 47.8319 52.7648C46.6969 51.444 45.7263 50.0525 44.983 48.6424C44.7255 48.1539 44.9128 47.549 45.4013 47.2915C45.8899 47.0339 46.4947 47.2212 46.7522 47.7098C47.3994 48.9374 48.2444 50.1582 49.2333 51.3258C50.9018 49.4627 52.267 47.3284 53.2578 45.0009L42.0855 45C41.5332 45 41.0855 44.5523 41.0855 44C41.0855 43.4477 41.5332 43 42.0855 43H49.085L49.0855 42C49.0855 41.4477 49.5332 41 50.0855 41ZM60.085 53.494L57.239 60H62.931L60.085 53.494ZM63.0855 43C63.6378 43 64.0855 43.4477 64.0855 44C64.0855 44.5523 63.6378 45 63.0855 45H61.0855C60.5332 45 60.0855 44.5523 60.0855 44C60.0855 43.4477 60.5332 43 61.0855 43H63.0855Z" fill="#E1000F"/> <path d="M26.0281 45.2135L26.1769 45.8217C29.1277 46.5724 32.4613 47 36 47C36.5523 47 37 47.4477 37 48C37 48.5523 36.5523 49 36 49C32.7558 49 29.6548 48.6581 26.823 48.0331C28.4863 53.0331 31.1153 56.5332 34.0207 57.6302C34.672 57.8762 35.3325 58 36 58C36.5523 58 37 58.4477 37 59C37 59.5128 36.614 59.9355 36.1166 59.9933L36 60C30.5667 60 25.407 58.1881 21.2174 54.9083C15.4423 50.3871 12 43.4766 12 36C12 22.7452 22.7452 12 36 12C49.1223 12 59.7848 22.5313 59.9968 35.6031L60 36C60 36.5128 59.614 36.9355 59.1166 36.9933L59 37L25.0114 37.0011C25.0771 39.8725 25.4248 42.649 26.0281 45.2135ZM14.9081 42.2715L15.0139 42.6192C16.3408 46.8337 18.9196 50.5695 22.4502 53.3334C24.6304 55.0402 27.096 56.313 29.7318 57.0945C27.5371 54.8914 25.7383 51.5484 24.5488 47.454C20.4863 46.274 17.1258 44.4781 14.9081 42.2715ZM23.0109 37.001L14.0941 37.001C14.7258 40.3535 18.4911 43.3568 23.9696 45.177C23.3994 42.6017 23.0731 39.8429 23.0109 37.001ZM23.9669 26.823L23.6677 26.9251C18.3525 28.7545 14.7134 31.709 14.0939 35L23.0109 35.0005C23.0736 32.1187 23.4063 29.3626 23.9669 26.823ZM36 25C32.4617 25 29.1284 25.4275 26.1779 26.178C25.4985 28.849 25.0839 31.8338 25.0114 35.0004H46.9886C46.9161 31.8338 46.5015 28.849 45.822 26.1779C42.8716 25.4275 39.5383 25 36 25ZM48.0324 26.8237L48.0439 26.8722C48.5979 29.3982 48.9268 32.1373 48.9891 35.0005L57.9061 35C57.275 31.6475 53.5104 28.6441 48.0324 26.8237ZM29.7305 14.9061L29.7065 14.9134C22.6089 17.0286 17.0136 22.6295 14.9062 29.7305C17.1236 27.5231 20.4845 25.7266 24.547 24.5467C25.7266 20.4845 27.5231 17.1236 29.7305 14.9061ZM42.2695 14.9062L42.392 15.0308C44.5434 17.2487 46.2953 20.56 47.4533 24.547C51.5155 25.7266 54.8764 27.5231 57.0939 29.7305C54.984 22.6215 49.3785 17.016 42.2695 14.9062ZM36 14C32.2506 14 28.8234 17.9501 26.8237 23.9676C29.6548 23.3418 32.7558 23 36 23C39.2442 23 42.3452 23.3418 45.177 23.9669C43.2123 18.0577 39.8715 14.1419 36.2008 14.0038L36 14Z" fill="#000091"/></svg>
