<svg width='80px' height='80px' fill='none' viewBox='0 0 80 80' xmlns='http://www.w3.org/2000/svg' focusable='false' aria-hidden='true'><path fill-rule="evenodd" clip-rule="evenodd" d="M69 68C68.4486 68 68 67.5514 68 67C68 66.4486 68.4486 66 69 66C69.5514 66 70 66.4486 70 67C70 67.5514 69.5514 68 69 68Z" fill="#ECECFE"/> <path fill-rule="evenodd" clip-rule="evenodd" d="M67 12C66.4486 12 66 11.5514 66 11C66 10.4486 66.4486 10 67 10C67.5514 10 68 10.4486 68 11C68 11.5514 67.5514 12 67 12Z" fill="#ECECFE"/> <path fill-rule="evenodd" clip-rule="evenodd" d="M9 16C8.4486 16 8 15.5514 8 15C8 14.4486 8.4486 14 9 14C9.5514 14 10 14.4486 10 15C10 15.5514 9.5514 16 9 16Z" fill="#ECECFE"/> <path d="M47.5528 17.1056C48.0468 16.8586 48.6474 17.0588 48.8944 17.5528C49.1414 18.0468 48.9412 18.6474 48.4472 18.8944C47.4879 19.3741 47 20.35 47 22C47 22.5523 46.5523 23 46 23C45.4477 23 45 22.5523 45 22C45 19.6501 45.8454 17.9593 47.5528 17.1056Z" fill="#E1000F"/> <path d="M35.1056 7.55279C35.3526 7.05881 35.9532 6.85859 36.4472 7.10558C38.1546 7.95928 39 9.65006 39 12C39 12.5523 38.5523 13 38 13C37.4477 13 37 12.5523 37 12C37 10.35 36.5121 9.37407 35.5528 8.89443C35.0588 8.64744 34.8586 8.04677 35.1056 7.55279Z" fill="#E1000F"/> <path d="M18 59C20.5168 59 22.2021 60.6853 22.9701 63.7575C23.1041 64.2933 22.7783 64.8362 22.2425 64.9701C21.7067 65.1041 21.1638 64.7783 21.0299 64.2425C20.4646 61.9814 19.4832 61 18 61C17.4477 61 17 60.5523 17 60C17 59.4477 17.4477 59 18 59Z" fill="#E1000F"/> <path d="M27.2106 37.3861C27.5497 36.9501 28.178 36.8716 28.6139 37.2107C29.0164 37.5236 29.1142 38.0831 28.8602 38.5101L28.7894 38.6139C28.5752 38.8893 28.3178 39.5143 28.0656 40.3276L27.9154 40.837L27.7687 41.3838L27.6279 41.9602L27.4954 42.5587C27.1763 44.0758 26.9564 45.7263 26.9994 46.9653C27.107 50.0652 28.4037 54.2794 30.9042 59.5729C31.1401 60.0723 30.9265 60.6683 30.4271 60.9042C29.9277 61.1401 29.3317 60.9265 29.0958 60.4271C26.4894 54.9094 25.1194 50.457 25.0006 47.0347C24.891 43.8777 26.1818 38.7088 27.2106 37.3861Z" fill="#000091"/> <path d="M64.7056 22.7771L64.9859 24.1383L65.2487 25.4741C65.3334 25.9152 65.4152 26.3521 65.4941 26.7847L65.7221 28.07L65.9325 29.3301C65.9662 29.538 65.999 29.7449 66.0312 29.9507L66.2154 31.1729C66.3032 31.7777 66.3843 32.373 66.4589 32.959L66.5993 34.1182C66.7089 35.0737 66.8003 36.003 66.8733 36.906L66.9521 37.9772C67.4538 45.5635 66.5974 51.2132 64.3532 54.9481C60.5832 61.2224 54.4246 65.1694 48.0769 65.2103C47.5247 65.2138 47.0741 64.769 47.0705 64.2167C47.067 63.6645 47.5118 63.2139 48.0641 63.2103C53.6715 63.1742 59.2099 59.6247 62.6389 53.918C64.2692 51.2047 65.0916 47.2232 65.0908 41.9846L65.0822 41.0471C65.042 38.8291 64.862 36.3982 64.5413 33.755L64.3953 32.6092C64.3437 32.2229 64.2893 31.8323 64.232 31.4374L64.0514 30.2397C63.9252 29.4326 63.7875 28.6081 63.6383 27.7664L63.4057 26.4909C63.3655 26.2762 63.3246 26.0603 63.283 25.8434L63.0244 24.5291L62.959 24.2087L62.6753 24.2822C62.2492 24.3928 61.8283 24.5042 61.4124 24.6164L60.1804 24.9557C48.2172 28.3174 40.7245 32.4226 37.7073 37.1699L37.5578 37.4119C32.3215 46.1264 33.4114 56.7276 40.788 61.1599C41.0296 61.305 41.2729 61.4425 41.5178 61.5722C42.0059 61.8307 42.192 62.4359 41.9335 62.924C41.6749 63.412 41.0697 63.5981 40.5817 63.3396C40.3049 63.193 40.0303 63.0379 39.7579 62.8742C31.3099 57.7981 30.0922 45.9535 35.8434 36.3818C38.5503 31.8769 44.5341 28.0532 53.7978 24.8483L54.9027 24.4741C55.0894 24.4122 55.2774 24.3506 55.4666 24.2892L56.617 23.9235C56.8112 23.863 57.0067 23.8028 57.2035 23.7428L58.3993 23.3855C58.6011 23.3265 58.8042 23.2677 59.0085 23.2091L60.2497 22.8603C60.8779 22.6873 61.5174 22.5164 62.1682 22.3475L63.4851 22.0127C64.0351 21.8755 64.5889 22.2225 64.7056 22.7771Z" fill="#000091"/> <path d="M26.3026 13.2833C26.7143 12.8828 27.3779 12.9105 27.7547 13.344L28.8902 14.6572L30.3127 16.3251L31.3113 17.5137L32.2512 18.6492L32.8454 19.3766L33.4135 20.0805L34.2171 21.0922L34.7203 21.7373L35.1977 22.359L35.6491 22.9572L36.2777 23.8108L36.6645 24.3507C36.7268 24.4387 36.788 24.5258 36.8482 24.6119L37.1961 25.1168L37.5183 25.5985L37.8147 26.057L38.0852 26.4923L38.33 26.9044L38.5491 27.2935C38.5835 27.3564 38.6168 27.4183 38.649 27.4793C38.9069 27.9677 38.7202 28.5727 38.2318 28.8306C37.7435 29.0886 37.1385 28.9018 36.8805 28.4135L36.6869 28.0595C36.618 27.9374 36.5447 27.8113 36.4671 27.6812L36.2213 27.2789L35.9495 26.8524L35.6516 26.4018L35.156 25.681L34.7932 25.1704L34.4044 24.6358L33.9897 24.0774L33.3189 23.1949L32.8394 22.5768L32.334 21.9349L31.5274 20.9275L30.6627 19.8667L29.7399 18.7526L28.7591 17.5855L28.073 16.7779L26.94 15.459L26.8489 15.5509C26.4321 15.9652 26.0263 16.3752 25.6315 16.7809L24.8568 17.5866L24.1115 18.3809C23.7462 18.7752 23.3919 19.1652 23.0486 19.5509L22.3769 20.3165C17.5582 25.8885 15.1101 30.5296 15.0036 34.1847L15 34.4324C15 41.5663 19.2358 47.8393 25.1915 48.8498C25.4926 48.9009 25.7978 48.9391 26.107 48.9641C26.6575 49.0088 27.0676 49.4912 27.0229 50.0417C26.9783 50.5922 26.4958 51.0023 25.9454 50.9576C25.5783 50.9278 25.2153 50.8825 24.857 50.8216C17.8388 49.6309 13 42.4647 13 34.4324C13 28.8952 17.4573 21.8896 26.3026 13.2833Z" fill="#000091"/> <path d="M21.0513 40.6838C21.226 40.1598 21.7923 39.8767 22.3162 40.0513C24.6148 40.8175 26.1825 42.3852 26.9487 44.6838C27.1233 45.2077 26.8402 45.774 26.3162 45.9487C25.7923 46.1233 25.226 45.8402 25.0513 45.3162C24.4842 43.6148 23.3852 42.5158 21.6838 41.9487C21.1598 41.774 20.8767 41.2077 21.0513 40.6838Z" fill="#000091"/> <path d="M49.2601 45.3273C49.6316 44.9187 50.264 44.8886 50.6727 45.2601C51.0813 45.6316 51.1114 46.264 50.7399 46.6727C44.241 53.8215 41 62.2482 41 72C41 72.5523 40.5523 73 40 73C39.4477 73 39 72.5523 39 72C39 61.7519 42.4256 52.8452 49.2601 45.3273Z" fill="#000091"/> <path d="M41.5528 43.1056C42.0468 42.8586 42.6474 43.0588 42.8944 43.5528C45.0383 47.8405 44.6912 54.0888 41.9487 62.3162C41.774 62.8402 41.2077 63.1233 40.6838 62.9487C40.1598 62.774 39.8767 62.2077 40.0513 61.6838C42.6422 53.9112 42.9617 48.1595 41.1056 44.4472C40.8586 43.9532 41.0588 43.3526 41.5528 43.1056Z" fill="#000091"/> <path d="M48 55C48.5523 55 49 55.4477 49 56C49 56.5523 48.5523 57 48 57C45.785 57 43.7428 58.7504 41.8944 62.4472C41.6474 62.9412 41.0468 63.1414 40.5528 62.8944C40.0588 62.6474 39.8586 62.0468 40.1056 61.5528C42.2572 57.2496 44.8817 55 48 55Z" fill="#000091"/></svg>
