<svg width='80px' height='80px' fill='none' viewBox='0 0 80 80' xmlns='http://www.w3.org/2000/svg' focusable='false' aria-hidden='true'><path fill-rule="evenodd" clip-rule="evenodd" d="M73 31C72.4486 31 72 30.5514 72 30C72 29.4486 72.4486 29 73 29C73.5514 29 74 29.4486 74 30C74 30.5514 73.5514 31 73 31Z" fill="#ECECFE"/> <path fill-rule="evenodd" clip-rule="evenodd" d="M56 65C55.4486 65 55 64.5514 55 64C55 63.4486 55.4486 63 56 63C56.5514 63 57 63.4486 57 64C57 64.5514 56.5514 65 56 65Z" fill="#ECECFE"/> <path fill-rule="evenodd" clip-rule="evenodd" d="M33 68C32.4486 68 32 67.5514 32 67C32 66.4486 32.4486 66 33 66C33.5514 66 34 66.4486 34 67C34 67.5514 33.5514 68 33 68Z" fill="#ECECFE"/> <path fill-rule="evenodd" clip-rule="evenodd" d="M24 47C23.4486 47 23 46.5514 23 46C23 45.4486 23.4486 45 24 45C24.5514 45 25 45.4486 25 46C25 46.5514 24.5514 47 24 47Z" fill="#ECECFE"/> <path fill-rule="evenodd" clip-rule="evenodd" d="M21 17C20.4486 17 20 16.5514 20 16C20 15.4486 20.4486 15 21 15C21.5514 15 22 15.4486 22 16C22 16.5514 21.5514 17 21 17Z" fill="#ECECFE"/> <path fill-rule="evenodd" clip-rule="evenodd" d="M13 42.6125C12.4477 42.6125 12 43.0602 12 43.6125C12 44.1648 12.4477 44.6125 13 44.6125C13.5523 44.6125 14 44.1648 14 43.6125C14 43.0602 13.5523 42.6125 13 42.6125ZM10 43.6125C10 41.9556 11.3431 40.6125 13 40.6125C14.6569 40.6125 16 41.9556 16 43.6125C16 45.2693 14.6569 46.6125 13 46.6125C11.3431 46.6125 10 45.2693 10 43.6125Z" fill="#E1000F"/> <path fill-rule="evenodd" clip-rule="evenodd" d="M13 44.7125C13.5523 44.7125 14 45.1602 14 45.7125V48.3125C14 48.8648 13.5523 49.3125 13 49.3125C12.4477 49.3125 12 48.8648 12 48.3125V45.7125C12 45.1602 12.4477 44.7125 13 44.7125Z" fill="#E1000F"/> <path fill-rule="evenodd" clip-rule="evenodd" d="M29.3 28.6125C28.7478 28.6125 28.3 29.0602 28.3 29.6125C28.3 30.1648 28.7478 30.6125 29.3 30.6125C29.8523 30.6125 30.3 30.1648 30.3 29.6125C30.3 29.0602 29.8523 28.6125 29.3 28.6125ZM26.3 29.6125C26.3 27.9556 27.6432 26.6125 29.3 26.6125C30.9569 26.6125 32.3 27.9556 32.3 29.6125C32.3 31.2693 30.9569 32.6125 29.3 32.6125C27.6432 32.6125 26.3 31.2693 26.3 29.6125Z" fill="#E1000F"/> <path fill-rule="evenodd" clip-rule="evenodd" d="M29.3 30.7125C29.8523 30.7125 30.3 31.1602 30.3 31.7125V34.3125C30.3 34.8648 29.8523 35.3125 29.3 35.3125C28.7478 35.3125 28.3 34.8648 28.3 34.3125V31.7125C28.3 31.1602 28.7478 30.7125 29.3 30.7125Z" fill="#E1000F"/> <path fill-rule="evenodd" clip-rule="evenodd" d="M47 24.0125C46.4477 24.0125 46 24.4602 46 25.0125C46 25.5648 46.4477 26.0125 47 26.0125C47.5523 26.0125 48 25.5648 48 25.0125C48 24.4602 47.5523 24.0125 47 24.0125ZM44 25.0125C44 23.3556 45.3431 22.0125 47 22.0125C48.6569 22.0125 50 23.3556 50 25.0125C50 26.6693 48.6569 28.0125 47 28.0125C45.3431 28.0125 44 26.6693 44 25.0125Z" fill="#E1000F"/> <path fill-rule="evenodd" clip-rule="evenodd" d="M47 26.2125C47.5523 26.2125 48 26.6602 48 27.2125V29.8125C48 30.3648 47.5523 30.8125 47 30.8125C46.4477 30.8125 46 30.3648 46 29.8125V27.2125C46 26.6602 46.4477 26.2125 47 26.2125Z" fill="#E1000F"/> <path fill-rule="evenodd" clip-rule="evenodd" d="M42.4 41.9125C41.8477 41.9125 41.4 42.3602 41.4 42.9125C41.4 43.4648 41.8477 43.9125 42.4 43.9125C42.9523 43.9125 43.4 43.4648 43.4 42.9125C43.4 42.3602 42.9523 41.9125 42.4 41.9125ZM39.4 42.9125C39.4 41.2557 40.7432 39.9125 42.4 39.9125C44.0569 39.9125 45.4 41.2557 45.4 42.9125C45.4 44.5694 44.0569 45.9125 42.4 45.9125C40.7432 45.9125 39.4 44.5694 39.4 42.9125Z" fill="#E1000F"/> <path fill-rule="evenodd" clip-rule="evenodd" d="M42.4 44.0125C42.9523 44.0125 43.4 44.4602 43.4 45.0125V47.6125C43.4 48.1648 42.9523 48.6125 42.4 48.6125C41.8477 48.6125 41.4 48.1648 41.4 47.6125V45.0125C41.4 44.4602 41.8477 44.0125 42.4 44.0125Z" fill="#E1000F"/> <path fill-rule="evenodd" clip-rule="evenodd" d="M56.4 48.0125C55.8477 48.0125 55.4 48.4602 55.4 49.0125C55.4 49.5648 55.8477 50.0125 56.4 50.0125C56.9523 50.0125 57.4 49.5648 57.4 49.0125C57.4 48.4602 56.9523 48.0125 56.4 48.0125ZM53.4 49.0125C53.4 47.3556 54.7432 46.0125 56.4 46.0125C58.0569 46.0125 59.4 47.3556 59.4 49.0125C59.4 50.6693 58.0569 52.0125 56.4 52.0125C54.7432 52.0125 53.4 50.6693 53.4 49.0125Z" fill="#E1000F"/> <path fill-rule="evenodd" clip-rule="evenodd" d="M56.4 50.2125C56.9523 50.2125 57.4 50.6602 57.4 51.2125V53.8125C57.4 54.3648 56.9523 54.8125 56.4 54.8125C55.8477 54.8125 55.4 54.3648 55.4 53.8125V51.2125C55.4 50.6602 55.8477 50.2125 56.4 50.2125Z" fill="#E1000F"/> <path fill-rule="evenodd" clip-rule="evenodd" d="M55.9 32.3125C55.3477 32.3125 54.9 32.7602 54.9 33.3125C54.9 33.8648 55.3477 34.3125 55.9 34.3125C56.4523 34.3125 56.9 33.8648 56.9 33.3125C56.9 32.7602 56.4523 32.3125 55.9 32.3125ZM52.9 33.3125C52.9 31.6556 54.2432 30.3125 55.9 30.3125C57.5569 30.3125 58.9 31.6556 58.9 33.3125C58.9 34.9694 57.5569 36.3125 55.9 36.3125C54.2432 36.3125 52.9 34.9694 52.9 33.3125Z" fill="#E1000F"/> <path fill-rule="evenodd" clip-rule="evenodd" d="M55.9 34.5125C56.4523 34.5125 56.9 34.9602 56.9 35.5125V38.1125C56.9 38.6648 56.4523 39.1125 55.9 39.1125C55.3477 39.1125 54.9 38.6648 54.9 38.1125V35.5125C54.9 34.9602 55.3477 34.5125 55.9 34.5125Z" fill="#E1000F"/> <path fill-rule="evenodd" clip-rule="evenodd" d="M62 14.8125C61.4477 14.8125 61 15.2602 61 15.8125C61 16.3648 61.4477 16.8125 62 16.8125C62.5523 16.8125 63 16.3648 63 15.8125C63 15.2602 62.5523 14.8125 62 14.8125ZM59 15.8125C59 14.1556 60.3431 12.8125 62 12.8125C63.6569 12.8125 65 14.1556 65 15.8125C65 17.4694 63.6569 18.8125 62 18.8125C60.3431 18.8125 59 17.4694 59 15.8125Z" fill="#E1000F"/> <path fill-rule="evenodd" clip-rule="evenodd" d="M62 16.9125C62.5523 16.9125 63 17.3602 63 17.9125V20.5125C63 21.0648 62.5523 21.5125 62 21.5125C61.4477 21.5125 61 21.0648 61 20.5125V17.9125C61 17.3602 61.4477 16.9125 62 16.9125Z" fill="#E1000F"/> <path d="M52 42.2125H54H52Z" fill="#000091"/> <path d="M40 31.2125H42H40Z" fill="#000091"/> <path d="M56 26.2125H58H56Z" fill="#000091"/> <path d="M10.2392 28.6125C9.83922 28.6125 9.43922 28.3125 9.23922 27.9125L8.63922 25.2125C8.53922 24.7125 8.83922 24.1125 9.33922 24.0125C9.83922 23.9125 10.4392 24.2125 10.5392 24.7125L11.2392 27.3125C11.3392 27.8125 11.0392 28.4125 10.5392 28.5125C10.4392 28.6125 10.3392 28.6125 10.2392 28.6125ZM12.9392 26.2125C12.5392 26.2125 12.0392 26.1125 11.6392 25.7125C11.1392 25.2125 11.2392 24.5125 11.3392 24.0125C11.3392 23.8125 11.4392 23.5125 11.3392 23.4125C11.0392 22.9125 11.1392 22.3125 11.6392 22.0125C12.1392 21.7125 12.7392 21.8125 13.0392 22.3125C13.4392 23.0125 13.4392 23.7125 13.3392 24.2125C13.4392 24.2125 13.4392 24.2125 13.5392 24.2125C13.8392 24.1125 14.2392 24.1125 14.6392 24.1125C15.2392 24.1125 15.6392 24.5125 15.6392 25.1125C15.6392 25.7125 15.2392 26.1125 14.6392 26.1125C14.4392 26.1125 14.1392 26.1125 13.9392 26.2125C13.5392 26.2125 13.2392 26.2125 12.9392 26.2125Z" fill="#000091"/> <path d="M59.4392 19.8125C58.9392 18.1125 58.2392 17.6125 57.6392 17.4125C57.6392 17.3125 57.5392 17.2125 57.5392 17.1125C57.4392 16.7125 57.2392 16.1125 56.7392 15.7125C56.2392 15.3125 55.7392 15.4125 55.3392 15.4125H55.2392C54.8392 15.2125 54.4392 15.2125 54.0392 15.3125L53.9392 15.2125C53.2392 14.5125 52.6392 14.2125 52.1392 14.0125C52.0392 13.7125 51.8392 13.4125 51.6392 13.1125C50.9392 12.3125 50.2392 12.3125 49.8392 12.3125C49.7392 12.2125 49.7392 12.1125 49.6392 12.0125C49.2392 11.4125 48.9392 11.0125 47.9392 11.0125C46.8392 10.9125 44.1392 11.4125 43.1392 12.5125C42.2392 13.4125 41.8392 14.4125 41.8392 15.5125C41.8392 15.7125 41.8392 16.0125 41.9392 16.2125C41.9392 16.3125 41.9392 16.5125 42.0392 16.5125C41.6392 16.7125 41.3392 16.8125 40.9392 16.9125C40.4392 17.0125 39.9392 17.2125 39.2392 17.7125C39.1392 17.7125 39.0392 17.8125 38.9392 17.8125C38.4392 17.9125 37.6392 18.2125 37.4392 19.0125V19.1125C37.3392 19.1125 37.2392 19.0125 37.1392 18.9125C37.0392 18.8125 36.8392 18.6125 36.7392 18.5125C36.4392 18.1125 36.0392 17.7125 35.6392 17.4125C35.0392 17.0125 34.5392 17.1125 34.1392 17.3125C32.9392 17.0125 32.1392 17.3125 31.7392 17.6125C31.2392 17.9125 30.6392 18.5125 30.4392 19.8125C30.3392 20.5125 30.6392 21.1125 31.1392 21.8125C30.9392 21.6125 30.5392 21.3125 29.9392 21.3125C29.0392 21.3125 27.2392 21.3125 25.5392 21.6125C25.4392 21.6125 25.4392 21.6125 25.3392 21.7125L24.8392 21.9125C23.2392 22.5125 20.6392 23.4125 21.1392 25.8125C21.2392 26.3125 21.2392 26.8125 21.2392 26.8125C21.2392 27.1125 21.3392 27.4125 21.6392 27.6125L22.1392 27.9125C22.1392 28.4125 22.1392 29.1125 22.7392 29.6125C22.9392 29.8125 23.3392 30.3125 23.7392 30.7125C24.1392 31.2125 24.4392 31.5125 24.5392 31.6125C24.7392 31.8125 24.9392 31.9125 25.2392 31.9125C25.5392 31.9125 25.7392 31.8125 25.9392 31.6125C26.3392 31.2125 26.2392 30.6125 25.8392 30.2125C25.7392 30.1125 25.4392 29.8125 25.1392 29.4125C24.7392 29.0125 24.3392 28.5125 24.1392 28.3125C24.1392 28.2125 24.1392 28.0125 24.1392 27.9125C24.1392 27.8125 24.1392 27.6125 24.1392 27.5125C24.1392 27.2125 23.9392 26.9125 23.7392 26.7125L23.2392 26.3125C23.2392 26.0125 23.1392 25.7125 23.1392 25.3125C23.0392 24.7125 24.2392 24.2125 25.5392 23.7125L25.9392 23.5125C27.3392 23.3125 28.8392 23.3125 29.6392 23.3125C30.0392 24.5125 30.9392 24.4125 31.4392 24.3125C31.4392 24.3125 31.6392 24.3125 31.7392 24.4125C32.0392 24.5125 33.1392 24.8125 33.6392 23.9125C34.1392 23.0125 33.5392 22.0125 32.9392 21.1125C32.7392 20.8125 32.4392 20.3125 32.3392 20.1125C32.4392 19.7125 32.5392 19.4125 32.7392 19.3125C32.9392 19.2125 33.3392 19.2125 33.5392 19.3125C34.0392 19.4125 34.4392 19.4125 34.6392 19.3125C34.8392 19.4125 34.9392 19.6125 35.1392 19.8125C35.3392 20.0125 35.5392 20.3125 35.8392 20.5125C36.3392 20.9125 37.3392 21.4125 38.2392 21.2125C38.7392 21.1125 39.0392 20.8125 39.2392 20.4125C39.3392 20.1125 39.3392 19.9125 39.3392 19.7125H39.4392C39.7392 19.6125 40.0392 19.5125 40.3392 19.3125C40.7392 19.0125 41.0392 18.9125 41.4392 18.8125C41.8392 18.7125 42.4392 18.5125 43.0392 18.1125C44.1392 17.4125 43.9392 16.4125 43.8392 15.8125C43.8392 15.7125 43.8392 15.5125 43.8392 15.4125C43.8392 15.0125 43.9392 14.4125 44.5392 13.7125C44.9392 13.3125 46.7392 12.8125 47.7392 12.8125C47.7392 12.8125 47.7392 12.9125 47.8392 12.9125C47.9392 13.0125 48.0392 13.2125 48.1392 13.4125C48.7392 14.2125 49.4392 14.1125 49.7392 14.1125C49.8392 14.1125 49.8392 14.1125 49.9392 14.1125C50.0392 14.2125 50.2392 14.6125 50.3392 14.9125C50.4392 15.2125 50.7392 15.5125 51.1392 15.6125C51.1392 15.6125 51.7392 15.7125 52.4392 16.4125C52.9392 16.9125 53.6392 17.4125 54.4392 17.1125C54.8392 17.2125 55.1392 17.2125 55.4392 17.2125C55.4392 17.3125 55.4392 17.4125 55.5392 17.5125C55.6392 17.7125 55.6392 18.0125 55.7392 18.2125C56.0392 18.8125 56.4392 19.0125 56.7392 19.1125C56.9392 19.2125 57.1392 19.3125 57.4392 20.3125C57.6392 20.8125 58.1392 21.1125 58.6392 21.0125C59.3392 20.8125 59.6392 20.3125 59.4392 19.8125Z" fill="#000091"/> <path d="M12.2392 38.5125C11.7392 38.5125 11.3392 38.1125 11.2392 37.6125C11.1392 37.1125 11.5392 36.6125 12.1392 36.5125L12.8392 36.4125C12.4392 36.2125 11.9392 35.9125 11.3392 35.6125C10.5392 35.2125 10.2392 34.6125 10.0392 34.2125C9.93922 34.0125 9.83922 33.8125 9.63922 33.6125C9.23922 33.2125 9.33922 32.6125 9.73922 32.2125C10.1392 31.8125 10.7392 31.9125 11.1392 32.3125C11.4392 32.6125 11.6392 33.0125 11.7392 33.3125C11.9392 33.7125 12.0392 33.8125 12.1392 33.9125C15.7392 35.7125 16.3392 36.4125 16.1392 37.2125C16.0392 37.6125 15.7392 38.1125 15.0392 38.2125L12.2392 38.6125C12.2392 38.5125 12.2392 38.5125 12.2392 38.5125Z" fill="#000091"/> <path d="M17.9392 48.7125L17.6392 48.2125C17.3392 47.7125 16.7392 47.6125 16.2392 47.9125C15.7392 48.2125 15.6392 48.8125 15.9392 49.3125L16.0392 49.5125L15.9392 50.2125C15.8392 50.3125 15.8392 50.4125 15.7392 50.5125C15.5392 50.8125 15.2392 51.1125 15.0392 51.3125C14.9392 51.4125 14.8392 51.5125 14.8392 51.7125C14.7392 51.9125 14.6392 52.3125 14.5392 52.6125C14.5392 52.7125 14.4392 52.8125 14.4392 52.8125H14.3392C14.2392 52.8125 14.1392 52.8125 14.0392 52.7125C14.0392 52.7125 14.0392 52.7125 13.9392 52.7125L13.8392 52.6125C13.7392 52.5125 13.6392 52.4125 13.5392 52.3125C13.3392 52.2125 13.1392 52.1125 12.8392 52.1125C12.7392 52.1125 12.5392 52.1125 12.4392 52.2125C12.4392 52.2125 12.3392 52.2125 12.2392 52.1125C12.2392 52.1125 12.1392 52.1125 12.0392 52.0125L12.2392 51.6125C12.4392 51.3125 12.4392 50.9125 12.2392 50.6125L11.5392 49.4125C11.2392 48.9125 10.6392 48.8125 10.1392 49.1125C9.63922 49.4125 9.53922 50.0125 9.83922 50.5125L10.2392 51.2125L9.53922 52.3125C9.33922 52.6125 9.33922 53.0125 9.53922 53.3125C9.73922 53.6125 10.0392 53.8125 10.3392 53.8125L11.1392 53.9125C11.1392 53.9125 11.1392 53.9125 11.2392 53.9125C11.3392 54.0125 11.4392 54.0125 11.5392 54.1125C11.6392 54.2125 11.8392 54.2125 12.1392 54.3125C12.2392 54.3125 12.4392 54.3125 12.6392 54.3125C12.8392 54.5125 13.1392 54.6125 13.3392 54.7125C13.5392 54.8125 13.8392 54.8125 14.0392 54.9125C14.2392 54.9125 14.5392 54.9125 14.8392 54.9125C15.0392 54.9125 15.3392 54.8125 15.6392 54.6125C15.7392 54.6125 15.7392 54.5125 15.7392 54.5125C15.8392 54.4125 15.8392 54.4125 15.9392 54.3125C16.0392 54.2125 16.0392 54.1125 16.1392 54.0125C16.2392 53.8125 16.3392 53.6125 16.4392 53.5125C16.5392 53.2125 16.6392 52.9125 16.7392 52.7125C16.9392 52.5125 17.1392 52.2125 17.3392 52.0125C17.4392 51.8125 17.6392 51.7125 17.7392 51.6125C17.7392 51.5125 17.8392 51.5125 17.9392 51.4125C17.9392 51.4125 18.0392 51.3125 18.0392 51.2125C18.0392 51.2125 18.1392 51.0125 18.1392 50.9125L18.2392 49.6125C18.1392 49.2125 18.0392 48.9125 17.9392 48.7125Z" fill="#000091"/> <path d="M17.3392 64.2125L17.6392 63.8125L17.3392 64.2125ZM17.6392 63.8125C17.8392 63.5125 17.8392 63.2125 17.7392 62.9125L17.3392 61.7125L17.4392 61.3125C17.4392 61.1125 17.4392 61.0125 17.4392 60.8125L17.3392 60.4125C17.2392 60.0125 16.9392 59.8125 16.5392 59.7125H16.1392L15.4392 59.0125L15.2392 58.3125C15.1392 57.9125 14.7392 57.6125 14.3392 57.6125L13.0392 57.5125L11.4392 57.8125C11.3392 57.8125 11.1392 57.9125 11.0392 57.9125L9.03923 59.1125C8.73923 59.3125 8.53923 59.6125 8.53923 59.9125V60.5125L8.23923 60.8125C8.03923 61.1125 7.93923 61.4125 8.03923 61.7125L8.43923 62.2125C8.43923 62.4125 8.53923 62.5125 8.73923 62.6125L9.53923 63.4125L9.93923 64.0125L10.1392 64.2125C10.2392 64.3125 10.3392 64.4125 10.5392 64.5125C10.6392 64.6125 10.8392 64.7125 11.1392 64.8125C11.2392 64.8125 11.4392 64.9125 11.4392 64.9125C11.5392 64.9125 11.6392 64.9125 11.7392 64.9125C11.9392 64.9125 12.2392 65.0125 12.5392 65.0125C13.1392 65.1125 13.7392 65.2125 14.1392 65.2125C14.2392 65.2125 14.4392 65.2125 14.5392 65.2125L16.9392 64.5125C17.1392 64.4125 17.3392 64.3125 17.4392 64.1125M14.1392 60.6125L14.2392 60.7125L14.9392 61.3125C15.0392 61.4125 15.2392 61.5125 15.3392 61.5125C15.3392 61.7125 15.3392 61.8125 15.3392 62.0125L15.5392 62.8125L13.9392 63.3125C13.5392 63.3125 13.0392 63.2125 12.5392 63.1125C12.2392 63.1125 12.0392 63.0125 11.8392 63.0125C11.7392 63.0125 11.7392 63.0125 11.6392 63.0125C11.6392 63.0125 11.5392 63.0125 11.5392 62.9125C11.4392 62.9125 11.4392 62.8125 11.3392 62.8125L11.1392 62.3125C11.1392 62.2125 11.0392 62.2125 11.0392 62.1125L10.5392 61.6125L10.6392 61.5125C10.7392 61.3125 10.8392 61.1125 10.8392 60.9125V60.6125L12.1392 59.8125L13.4392 59.6125H13.7392L13.8392 59.8125C13.8392 59.9125 13.9392 60.0125 14.0392 60.1125L14.1392 60.6125Z" fill="#000091"/> <path d="M71.4393 65.4125C71.4393 65.3125 71.3392 65.3125 71.2392 65.2125C71.4392 64.7125 71.4392 64.3125 71.3392 63.8125C71.3392 63.6125 71.3392 63.4125 71.2392 63.2125C71.2392 63.1125 71.3392 63.1125 71.3392 63.1125C71.5392 62.8125 71.9392 62.3125 71.8392 61.5125C71.7392 60.7125 71.2392 60.2125 70.8392 59.9125C70.6392 59.7125 70.5392 59.6125 70.4393 59.5125C70.4393 59.4125 70.4393 59.1125 70.4393 58.9125C70.4393 58.4125 70.4392 57.7125 69.8392 57.2125C69.6392 57.1125 69.2393 56.9125 68.5392 57.1125C67.5392 57.5125 64.4392 60.1125 64.7392 61.8125C64.7392 62.0125 64.8393 62.2125 64.9393 62.3125C64.9393 62.4125 64.8392 62.4125 64.8392 62.5125C64.3392 63.5125 65.1393 64.3125 65.4393 64.6125C65.5392 64.7125 65.6392 64.8125 65.7392 64.8125C65.7392 64.9125 65.7392 65.0125 65.6392 65.1125C65.3392 66.0125 65.5392 66.7125 66.2392 67.1125C66.3392 67.1125 66.4393 67.2125 66.5392 67.2125C66.6392 67.5125 66.8392 67.8125 67.1392 68.0125C67.6392 68.4125 68.5392 68.6125 69.3392 68.6125C69.9392 68.6125 70.4393 68.5125 70.9393 68.3125C71.1393 68.2125 71.9393 67.8125 72.1393 67.0125C72.1393 66.3125 71.7393 65.8125 71.4393 65.4125ZM69.9393 61.9125C69.7393 62.1125 69.4393 62.6125 69.4393 63.3125C69.4393 63.6125 69.4393 63.9125 69.5392 64.1125C69.5392 64.2125 69.5392 64.4125 69.5392 64.4125C69.0392 65.4125 69.6393 66.2125 69.9393 66.6125C69.6393 66.7125 68.9393 66.7125 68.5392 66.5125C68.5392 66.3125 68.4392 66.0125 68.3392 65.8125C68.1392 65.6125 67.9392 65.5125 67.7392 65.4125C67.8392 65.1125 67.8392 64.8125 67.7392 64.4125C67.6392 63.8125 67.2393 63.5125 66.9393 63.2125C67.0392 63.1125 67.1392 62.9125 67.2392 62.6125C67.3392 62.0125 67.1392 61.6125 66.8392 61.3125C67.0392 60.8125 67.8392 59.9125 68.5392 59.4125C68.5392 59.7125 68.6392 60.0125 68.7392 60.3125C68.9392 60.8125 69.3392 61.0125 69.5392 61.3125C69.8392 61.6125 69.8393 61.6125 69.9393 61.7125C69.9393 61.8125 69.9393 61.8125 69.9393 61.9125Z" fill="#000091"/> <path d="M69.3392 46.4125C69.2392 45.6125 68.6392 44.7125 68.2392 44.3125C67.8392 43.8125 67.3392 43.7125 66.9392 43.7125C67.0392 43.5125 67.0392 43.2125 66.8392 42.9125C66.7392 42.6125 66.5392 42.4125 66.3392 42.3125C66.5392 42.1125 66.7392 41.8125 66.8392 41.5125C67.0392 40.8125 66.6392 39.6125 66.4392 39.1125C66.3392 38.9125 66.1392 38.7125 65.9392 38.5125C66.2392 38.2125 66.3392 37.8125 66.2392 37.4125C66.1392 36.8125 65.7392 36.3125 65.3392 35.9125C65.2392 35.8125 65.0392 35.5125 64.9392 35.5125C64.9392 35.4125 64.9392 35.3125 64.9392 35.2125C64.9392 34.8125 64.9392 34.0125 64.4392 33.5125C64.7392 33.2125 65.0392 32.8125 65.2392 32.4125C65.3392 32.3125 65.6392 32.2125 65.7392 32.2125C66.3392 31.9125 67.7392 31.3125 67.4392 30.0125C67.2392 28.8125 67.1392 28.3125 67.4392 27.4125C67.5392 27.0125 67.6392 26.8125 67.7392 26.5125C67.8392 26.2125 67.9392 25.8125 68.0392 25.3125C68.0392 25.2125 68.1392 25.2125 68.2392 25.0125C68.4392 24.7125 68.8392 24.2125 68.7392 23.4125C68.7392 23.3125 68.7392 23.1125 68.7392 23.0125C68.7392 22.5125 68.7392 21.7125 67.9392 21.1125C67.1392 20.5125 66.3392 20.6125 65.7392 20.7125C65.5392 20.7125 65.3392 20.7125 65.1392 20.7125C64.5392 20.7125 64.1392 21.1125 64.1392 21.7125C64.1392 22.3125 64.5392 22.7125 65.1392 22.7125C65.4392 22.7125 65.7392 22.7125 65.9392 22.6125C66.4392 22.5125 66.5392 22.5125 66.7392 22.6125C66.7392 22.6125 66.7392 22.8125 66.7392 22.9125C66.7392 23.1125 66.7392 23.3125 66.7392 23.4125L66.6392 23.5125C66.4392 23.7125 66.2392 24.0125 66.1392 24.4125C65.9392 24.9125 65.8392 25.3125 65.7392 25.7125C65.6392 25.9125 65.6392 26.2125 65.5392 26.6125C65.1392 27.9125 65.2392 28.8125 65.4392 30.0125C65.3392 30.1125 65.1392 30.2125 64.9392 30.2125C64.3392 30.5125 63.5392 30.8125 63.3392 31.6125C63.2392 31.8125 62.6392 32.2125 62.3392 32.4125C61.8392 32.7125 61.1392 33.2125 61.2392 34.0125C61.2392 34.3125 61.5392 34.8125 62.2392 35.0125C62.3392 35.0125 62.5392 35.1125 62.6392 35.0125C62.7392 35.0125 62.7392 35.0125 62.8392 35.0125C62.8392 35.3125 62.8392 35.6125 62.9392 35.9125C63.0392 36.5125 63.4392 36.9125 63.7392 37.2125C63.7392 37.2125 63.7392 37.2125 63.8392 37.3125C63.0392 37.8125 62.9392 38.4125 63.0392 38.9125C63.2392 39.7125 63.9392 40.1125 64.5392 40.2125C64.6392 40.5125 64.6392 40.7125 64.6392 40.9125C64.6392 40.9125 64.5392 40.9125 64.5392 41.0125C64.1392 41.2125 63.4392 41.7125 63.5392 42.6125C63.6392 43.2125 63.9392 43.5125 64.2392 43.7125C64.0392 44.0125 63.9392 44.5125 64.1392 45.0125C64.6392 46.0125 65.7392 45.9125 66.2392 45.8125C66.3392 45.8125 66.4392 45.8125 66.5392 45.8125C66.8392 46.2125 67.0392 46.6125 67.1392 46.8125C67.0392 47.0125 66.8392 47.3125 66.7392 47.7125C66.7392 47.9125 66.6392 48.1125 66.6392 48.3125C66.6392 48.4125 66.6392 48.4125 66.6392 48.4125C66.6392 48.4125 66.6392 48.4125 66.5392 48.6125L66.2392 48.9125C66.0392 49.1125 65.9392 49.2125 65.5392 49.5125C65.4392 49.6125 65.3392 49.6125 65.1392 49.7125C64.7392 49.9125 64.3392 50.1125 64.0392 50.5125C63.7392 50.8125 63.6392 51.2125 63.5392 51.4125C63.4392 51.6125 63.4392 51.6125 63.4392 51.7125C63.0392 52.0125 62.5392 52.3125 61.9392 52.5125C61.3392 52.7125 60.3392 52.5125 60.0392 52.5125C59.4392 52.4125 58.9392 52.7125 58.8392 53.3125C58.7392 53.8125 59.0392 54.4125 59.6392 54.5125C59.7392 54.5125 60.3392 54.6125 61.1392 54.6125C61.5392 54.6125 62.0392 54.6125 62.4392 54.4125C63.3392 54.2125 64.1392 53.8125 64.7392 53.2125C65.1392 52.8125 65.3392 52.4125 65.4392 52.1125C65.5392 51.9125 65.5392 51.8125 65.5392 51.8125C65.6392 51.7125 65.8392 51.6125 66.0392 51.5125C66.3392 51.4125 66.6392 51.2125 66.8392 51.0125C67.2392 50.6125 67.4392 50.5125 67.6392 50.2125L67.9392 49.9125C68.5392 49.3125 68.6392 48.9125 68.6392 48.4125C68.6392 48.3125 68.6392 48.2125 68.6392 48.0125C68.6392 48.0125 68.6392 48.0125 68.7392 47.9125C69.1392 47.5125 69.4392 47.1125 69.3392 46.4125Z" fill="#000091"/> <path d="M52.9392 53.9125C52.8392 53.8125 52.8392 53.8125 52.8392 53.7125C52.8392 53.6125 52.7392 53.5125 53.1392 53.1125C53.5392 52.7125 53.5392 52.1125 53.1392 51.7125C52.7392 51.3125 52.1392 51.3125 51.7392 51.7125C51.4392 52.0125 50.5392 53.0125 51.0392 54.3125C51.1392 54.7125 51.3392 55.0125 51.5392 55.2125V55.3125C51.5392 55.6125 51.4392 55.7125 51.4392 55.7125C51.3392 55.7125 51.2392 55.7125 51.1392 55.8125C50.7392 55.9125 50.2392 55.9125 49.7392 56.3125C49.3392 56.5125 49.0392 56.5125 48.4392 56.3125C47.8392 56.2125 47.1392 56.1125 46.5392 56.2125C46.1392 56.3125 45.9392 56.3125 45.3392 55.9125C45.0392 55.7125 44.9392 55.5125 44.7392 55.3125C44.6392 55.1125 44.4392 54.9125 44.1392 54.7125C43.7392 54.4125 43.2392 54.3125 42.7392 54.4125C42.3392 54.5125 42.0392 54.7125 41.8392 55.0125C41.7392 55.0125 41.6392 55.0125 41.4392 55.0125C41.0392 55.0125 40.8392 54.9125 40.7392 54.9125C40.5392 54.9125 40.3392 54.8125 39.9392 54.8125C39.8392 54.8125 39.6392 54.8125 39.4392 54.8125C39.1392 54.8125 38.5392 54.7125 38.4392 54.7125C37.8392 54.1125 37.1392 54.1125 36.7392 54.1125C36.4392 54.1125 36.4392 54.1125 36.3392 54.1125C36.2392 54.1125 36.2392 54.0125 36.1392 53.9125C35.9392 53.6125 35.6392 53.2125 35.0392 53.0125C34.8392 52.9125 34.6392 52.9125 34.3392 52.8125C34.1392 52.8125 33.8392 52.7125 33.6392 52.6125C33.6392 52.5125 33.5392 52.4125 33.4392 52.3125C33.2392 52.0125 33.1392 51.6125 32.7392 51.3125C32.3392 51.0125 32.0392 50.9125 31.7392 50.9125C31.7392 50.8125 31.7392 50.7125 31.7392 50.6125V50.3125C31.7392 50.2125 31.9392 50.1125 32.0392 50.0125C32.2392 49.8125 32.6392 49.4125 32.8392 48.9125C32.9392 48.6125 33.0392 48.4125 33.1392 48.3125C33.3392 47.8125 33.4392 47.5125 33.5392 46.7125C33.5392 46.5125 33.6392 46.3125 33.7392 46.0125C33.8392 45.6125 33.9392 45.1125 33.9392 44.7125C33.9392 44.2125 33.8392 43.9125 33.7392 43.8125V43.7125C33.7392 43.3125 33.8392 43.1125 33.9392 42.8125L34.0392 42.4125C34.1392 42.1125 34.1392 41.7125 34.2392 41.3125C34.2392 41.1125 34.2392 40.9125 34.2392 40.8125C34.3392 40.3125 34.2392 39.8125 34.1392 39.4125C34.1392 39.2125 34.0392 39.0125 34.0392 38.9125C34.0392 38.8125 34.0392 38.7125 34.1392 38.6125C34.2392 38.2125 34.6392 36.9125 33.4392 36.4125C33.3392 36.3125 32.8392 36.0125 32.5392 35.7125C32.1392 35.3125 31.5392 35.3125 31.1392 35.7125C30.7392 36.1125 30.7392 36.7125 31.1392 37.1125C31.3392 37.3125 31.7392 37.7125 32.2392 38.0125C32.2392 38.0125 32.2392 38.0125 32.2392 38.1125C32.2392 38.2125 32.1392 38.5125 32.1392 38.8125C32.1392 39.2125 32.2392 39.5125 32.2392 39.7125C32.3392 40.0125 32.3392 40.1125 32.3392 40.3125C32.3392 40.5125 32.2392 40.8125 32.2392 41.1125C32.2392 41.3125 32.2392 41.6125 32.1392 41.7125L32.0392 42.1125C31.9392 42.5125 31.8392 42.9125 31.7392 43.4125C31.6392 44.0125 31.8392 44.3125 31.9392 44.5125C31.9392 44.6125 31.9392 44.6125 31.9392 44.7125C31.9392 44.9125 31.8392 45.2125 31.7392 45.5125C31.6392 45.8125 31.5392 46.2125 31.5392 46.5125C31.4392 47.1125 31.4392 47.2125 31.3392 47.5125C31.2392 47.7125 31.1392 47.9125 31.0392 48.2125C30.9392 48.3125 30.8392 48.5125 30.6392 48.7125C30.2392 49.1125 29.7392 49.6125 29.7392 50.5125V50.7125C29.7392 51.2125 29.7392 51.9125 30.4392 52.6125C30.8392 53.0125 31.2392 53.0125 31.5392 53.0125C31.5392 53.1125 31.6392 53.2125 31.6392 53.2125C31.8392 53.6125 32.1392 54.1125 32.6392 54.4125C33.0392 54.6125 33.4392 54.7125 33.8392 54.8125C34.0392 54.8125 34.2392 54.9125 34.3392 54.9125C34.3392 54.9125 34.4392 55.0125 34.4392 55.1125C34.6392 55.3125 34.8392 55.6125 35.2392 55.8125C35.8392 56.2125 36.4392 56.1125 36.7392 56.1125C36.8392 56.1125 36.9392 56.1125 37.0392 56.1125C37.6392 56.7125 38.5392 56.7125 39.2392 56.8125C39.3392 56.8125 39.5392 56.8125 39.6392 56.8125C40.0392 56.8125 40.1392 56.9125 40.3392 56.9125C40.5392 56.9125 40.7392 57.0125 41.2392 57.0125C41.6392 57.0125 42.5392 57.1125 43.1392 56.6125C43.3392 56.9125 43.6392 57.2125 44.1392 57.6125C45.2392 58.3125 45.9392 58.3125 46.7392 58.2125C47.0392 58.2125 47.3392 58.1125 47.8392 58.3125C48.1392 58.4125 48.5392 58.5125 49.0392 58.5125C49.5392 58.5125 50.0392 58.4125 50.6392 58.1125C50.8392 58.0125 51.0392 57.9125 51.3392 57.9125C52.2392 57.8125 53.1392 57.5125 53.3392 55.7125C53.5392 54.7125 53.3392 54.3125 52.9392 53.9125Z" fill="#000091"/></svg>
