<svg width='80px' height='80px' fill='none' viewBox='0 0 80 80' xmlns='http://www.w3.org/2000/svg' focusable='false' aria-hidden='true'>
	<path d="M41 30C40.4477 30 40 30.4477 40 31C40 31.5523 40.4477 32 41 32C41.5523 32 42 31.5523 42 31C42 30.4477 41.5523 30 41 30Z" fill="#E1000F"/>
	<path d="M59 38C58.4477 38 58 38.4477 58 39C58 39.5523 58.4477 40 59 40C59.5523 40 60 39.5523 60 39C60 38.4477 59.5523 38 59 38Z" fill="#E1000F"/>
	<path d="M55 38C55.5523 38 56 38.4477 56 39C56 39.5128 55.614 39.9355 55.1166 39.9933L55 40H53C52.4477 40 52 39.5523 52 39C52 38.4872 52.386 38.0645 52.8834 38.0067L53 38H55Z" fill="#E1000F"/>
	<path d="M48 31C48 30.4477 47.5523 30 47 30H45L44.8834 30.0067C44.386 30.0645 44 30.4872 44 31C44 31.5523 44.4477 32 45 32H47L47.1166 31.9933C47.614 31.9355 48 31.5128 48 31Z" fill="#E1000F"/>
	<path d="M38.2372 27.2197C39.5994 25.797 38.1551 23.4478 36.2759 24.1124C28.94 26.7067 24.0021 33.6813 24.0021 41.5359C24.0021 51.735 32.229 60.0023 42.3772 60.0023C50.4148 60.0023 57.5043 54.7552 59.9067 47.089C60.4975 45.2038 58.1779 43.7538 56.7868 45.1891C54.9171 47.1181 52.5173 48.408 49.894 48.8931C49.3509 48.9936 48.992 49.5152 49.0925 50.0583C49.1929 50.6014 49.7146 50.9602 50.2576 50.8598L50.6517 50.7814C53.2688 50.2237 55.6787 48.9688 57.6462 47.1451L57.843 46.957L57.7742 47.1561C55.4411 53.6273 49.303 58.0023 42.3772 58.0023C33.3358 58.0023 26.0021 50.6326 26.0021 41.5359L26.0058 41.1803C26.1469 34.5562 30.2202 28.6889 36.2854 26.2464L36.485 26.168L36.2583 26.4248C33.9309 29.1273 32.6451 32.5647 32.6451 36.1755C32.6451 43.9891 38.6544 50.4689 46.3843 51.0639C46.9349 51.1063 47.4157 50.6943 47.4581 50.1436C47.5005 49.593 47.0884 49.1122 46.5378 49.0698C39.8492 48.5549 34.6451 42.9434 34.6451 36.1755C34.6451 32.8137 35.9288 29.6307 38.2372 27.2197Z" fill="#000091"/>
	<path d="M15 58C14.4477 58 14 58.4477 14 59C14 59.5523 14.4477 60 15 60C15.5523 60 16 59.5523 16 59C16 58.4477 15.5523 58 15 58Z" fill="#000091"/>
	<path d="M57 26C57.5523 26 58 26.4477 58 27C58 27.5128 57.614 27.9355 57.1166 27.9933L57 28H55C54.4477 28 54 27.5523 54 27C54 26.4872 54.386 26.0645 54.8834 26.0067L55 26H57Z" fill="#000091"/>
	<path d="M24 59C24 58.4477 23.5523 58 23 58H19L18.8834 58.0067C18.386 58.0645 18 58.4872 18 59C18 59.5523 18.4477 60 19 60H23L23.1166 59.9933C23.614 59.9355 24 59.5128 24 59Z" fill="#000091"/>
</svg>
