<svg width='80px' height='80px' fill='none' viewBox='0 0 80 80' xmlns='http://www.w3.org/2000/svg' focusable='false' aria-hidden='true'>
	<path fill-rule="evenodd" clip-rule="evenodd" d="M40.3 16.4C40.3 15.8477 40.7477 15.4 41.3 15.4C45.5809 15.4 49.9409 17.7438 51.3326 21.339C51.532 21.854 51.2761 22.4332 50.761 22.6326C50.246 22.8319 49.6668 22.576 49.4675 22.061C48.4591 19.4562 45.0192 17.4 41.3 17.4C40.7477 17.4 40.3 16.9523 40.3 16.4Z" fill="#E1000F"/>
	<path fill-rule="evenodd" clip-rule="evenodd" d="M48.2321 33.5453C48.5384 34.0048 48.4142 34.6257 47.9547 34.932C46.3371 36.0104 44.2267 36.8451 41.6271 37.745L41.6116 37.7502C40.5401 38.1015 39.5149 38.4237 38.5488 38.7273C36.7105 39.305 35.0861 39.8154 33.7636 40.3316C32.7595 40.7234 32.0181 41.0866 31.5361 41.4352C31.0372 41.7961 31.001 42.0043 30.9988 42.0499C30.9983 42.0588 30.9977 42.0678 30.9971 42.0767C30.9923 42.1388 31.006 42.3481 31.5569 42.683C32.0724 42.9963 32.7868 43.2419 33.4747 43.4384C34.0058 43.5902 34.3133 44.1437 34.1615 44.6747C34.0098 45.2057 33.4563 45.5132 32.9253 45.3615C32.2132 45.158 31.2777 44.8537 30.5181 44.392C29.7966 43.9534 28.914 43.1668 29.002 41.9365C29.055 40.9891 29.691 40.3015 30.3639 39.8148C31.0569 39.3134 31.9905 38.8766 33.0365 38.4684C34.4204 37.9283 36.1564 37.3825 38.0429 36.7894C38.9926 36.4908 39.9804 36.1802 40.9807 35.8523C43.5771 34.9533 45.4643 34.1886 46.8453 33.2679C47.3048 32.9616 47.9257 33.0857 48.2321 33.5453Z" fill="#E1000F"/>
	<path fill-rule="evenodd" clip-rule="evenodd" d="M45.8266 47.271C45.9531 46.7334 46.4914 46.4001 47.029 46.5266C47.9269 46.7378 48.8153 47.0477 49.4765 47.4992C50.1353 47.9491 50.7954 48.7219 50.5806 49.7961L50.5762 49.8169C50.4101 50.5643 49.9769 51.0922 49.3922 51.482C48.8563 51.8393 48.1644 52.0993 47.4162 52.3487L47.3964 52.3551C45.8682 52.8293 43.124 53.3389 40.4217 53.7747C37.6955 54.2145 34.9335 54.5911 33.324 54.7923L33.3105 54.794C32.4789 54.8864 31.6615 55.0699 30.9511 55.3363C30.434 55.5302 29.8576 55.2682 29.6637 54.7511C29.4698 54.234 29.7318 53.6576 30.2489 53.4637C31.1364 53.1309 32.1164 52.9148 33.0826 52.8069C34.6741 52.6079 37.4083 52.2349 40.1033 51.8003C42.8196 51.3621 45.4195 50.873 46.7938 50.448C47.5397 50.199 47.995 50.0098 48.2828 49.8179C48.5119 49.6652 48.5833 49.5472 48.6188 49.4043C48.6188 49.4043 48.617 49.4012 48.6157 49.3989C48.5948 49.3619 48.5263 49.2722 48.3485 49.1508C47.9847 48.9023 47.3731 48.6622 46.571 48.4734C46.0334 48.3469 45.7001 47.8086 45.8266 47.271Z" fill="#E1000F"/>
	<path fill-rule="evenodd" clip-rule="evenodd" d="M27.9511 66.7636C28.4683 66.9576 28.7303 67.534 28.5363 68.0511C28.38 68.4681 28.1197 69.119 27.8178 69.7624C27.529 70.3776 27.1557 71.0882 26.7593 71.5508C26.3999 71.9701 25.7686 72.0187 25.3492 71.6592C24.9299 71.2998 24.8813 70.6685 25.2408 70.2492C25.4443 70.0117 25.7211 69.5223 26.0073 68.9126C26.2803 68.3309 26.52 67.7319 26.6637 67.3489C26.8576 66.8317 27.434 66.5697 27.9511 66.7636Z" fill="#E1000F"/>
	<path fill-rule="evenodd" clip-rule="evenodd" d="M33.1 16.3C33.1 12.8477 35.9477 10 39.4 10C41.3062 10 42.9675 10.8376 44.14 12.1273C44.5115 12.536 44.4813 13.1684 44.0727 13.5399C43.664 13.9114 43.0316 13.8813 42.6601 13.4727C41.8325 12.5624 40.6938 12 39.4 12C37.0523 12 35.1 13.9523 35.1 16.3C35.1 18.6477 37.0523 20.6 39.4 20.6C40.6231 20.6 41.6507 20.1155 42.3567 19.331C42.7262 18.9205 43.3585 18.8872 43.769 19.2567C44.1795 19.6262 44.2128 20.2585 43.8433 20.669C42.7493 21.8845 41.1769 22.6 39.4 22.6C35.9477 22.6 33.1 19.7523 33.1 16.3Z" fill="#000091"/>
	<path fill-rule="evenodd" clip-rule="evenodd" d="M39.6192 14.1061C39.8367 14.6137 39.6016 15.2016 39.0939 15.4191C38.7405 15.5706 38.5 15.9225 38.5 16.3C38.5 16.6775 38.7405 17.0294 39.0939 17.1809C39.6016 17.3984 39.8367 17.9863 39.6192 18.4939C39.4016 19.0015 38.8137 19.2367 38.3061 19.0191C37.2595 18.5706 36.5 17.5225 36.5 16.3C36.5 15.0775 37.2595 14.0294 38.3061 13.5809C38.8137 13.3633 39.4016 13.5985 39.6192 14.1061Z" fill="#000091"/>
	<path fill-rule="evenodd" clip-rule="evenodd" d="M37.3465 20.2011C37.8982 20.2267 38.3246 20.6948 38.2989 21.2464L38.0989 25.5464C38.0741 26.0801 37.6342 26.5 37.1 26.5H31.3C31.1126 26.5 30.9289 26.4473 30.77 26.348C30.0854 25.9201 29.2671 25.6 28.3 25.6C27.2866 25.6 26.4273 25.8967 25.8459 26.3281C25.2688 26.7562 25 27.2807 25 27.8C25 28.3193 25.2688 28.8437 25.8459 29.2719C26.4273 29.7033 27.2866 30 28.3 30C29.3281 30 30.1056 29.7458 30.7 29.3C30.8731 29.1702 31.0836 29.1 31.3 29.1H37C37.2735 29.1 37.535 29.212 37.7237 29.4099C37.9125 29.6078 38.0119 29.8744 37.9989 30.1475L37.7989 34.3475C37.7726 34.8992 37.3041 35.3251 36.7524 35.2989C36.2008 35.2726 35.7749 34.8041 35.8011 34.2524L35.9513 31.1H31.6137C30.6656 31.7155 29.5442 32 28.3 32C26.9134 32 25.6227 31.5967 24.6542 30.8781C23.6812 30.1562 23 29.0807 23 27.8C23 26.5193 23.6812 25.4437 24.6542 24.7219C25.6227 24.0033 26.9134 23.6 28.3 23.6C29.6039 23.6 30.6998 23.9974 31.5763 24.5H36.1454L36.3011 21.1535C36.3267 20.6018 36.7948 20.1754 37.3465 20.2011Z" fill="#000091"/>
	<path fill-rule="evenodd" clip-rule="evenodd" d="M36.5405 41.4008C37.0924 41.4232 37.5216 41.8887 37.4992 42.4405L37.1992 49.8405C37.1768 50.3923 36.7113 50.8215 36.1595 50.7992C35.6077 50.7768 35.1785 50.3113 35.2008 49.7595L35.5008 42.3595C35.5232 41.8077 35.9887 41.3784 36.5405 41.4008Z" fill="#000091"/>
	<path fill-rule="evenodd" clip-rule="evenodd" d="M64.05 41.2317C64.5128 41.3512 64.8264 41.7815 64.7983 42.2587C64.698 43.964 64.4977 46.9686 64.3227 49.5428C64.2352 50.8308 64.1539 52.0124 64.0945 52.872L63.9977 54.268L63.9976 54.2692C63.9738 54.6103 63.7774 54.916 63.4768 55.079C63.1763 55.242 62.8133 55.2402 62.5144 55.0741L62.4664 55.0475C62.4565 55.0633 62.4466 55.0794 62.4365 55.0956C62.0865 55.6579 61.5705 56.4414 60.9007 57.3366C59.5659 59.1206 57.5975 61.379 55.0892 63.208C54.6429 63.5334 54.0174 63.4354 53.692 62.9892C53.3666 62.5429 53.4646 61.9174 53.9108 61.592C56.2025 59.921 58.0342 57.8294 59.2993 56.1384C59.9296 55.2961 60.4136 54.5608 60.7386 54.0387C60.9009 53.7779 61.0233 53.5707 61.104 53.4307C61.1444 53.3607 61.1744 53.3075 61.1937 53.2728L61.2147 53.2348L61.2191 53.2267L61.2197 53.2256C61.3466 52.9902 61.5624 52.8154 61.819 52.7403C61.9116 52.7132 62.0068 52.6998 62.1016 52.7C62.1608 51.8439 62.241 50.6772 62.3273 49.4072C62.3899 48.4867 62.4556 47.5126 62.5187 46.5634C61.5474 48.0641 60.6303 49.1827 59.8488 50.0025C59.3694 50.5054 58.942 50.8948 58.5858 51.1902L58.7727 51.36C59.1643 51.716 59.2107 52.3155 58.8786 52.7275C56.0546 56.2314 53.0939 57.9379 50.5863 58.7961C48.7037 59.4404 46.983 59.6128 46.0115 59.7101C45.7325 59.738 45.5153 59.7598 45.3738 59.7848C44.6269 59.9166 43.9828 59.6879 43.5268 59.2125C43.126 58.7947 42.9374 58.2574 42.8393 57.8425C42.7368 57.4085 42.7047 56.9818 42.6958 56.6776C42.6912 56.5223 42.6925 56.3911 42.6951 56.2967C42.6964 56.2494 42.698 56.211 42.6994 56.1829L42.7013 56.1488L42.7019 56.1379L42.7022 56.134L42.7023 56.1324L42.6994 56.1829L42.7024 56.1312C42.7404 55.5802 43.2178 55.1644 43.7688 55.2024C44.319 55.2403 44.7345 55.7165 44.6978 56.2665L44.6977 56.2677L44.697 56.282C44.6962 56.2963 44.6952 56.3199 44.6944 56.3513C44.6926 56.4144 44.6916 56.5074 44.6949 56.6192C44.7016 56.8494 44.7258 57.1289 44.7857 57.3825C44.8472 57.6426 44.9229 57.7741 44.9644 57.8218C44.9772 57.8217 44.9973 57.8203 45.0262 57.8152C45.3222 57.763 45.6591 57.7289 46.0394 57.6904C47.0287 57.5903 48.3124 57.4605 49.9387 56.9039C51.9364 56.2202 54.3349 54.8979 56.7152 52.1926L56.3273 51.8399C56.0863 51.6208 55.9671 51.298 56.0079 50.9749C56.0483 50.6542 56.2412 50.373 56.5255 50.2197L56.5375 50.2129C56.552 50.2045 56.579 50.1884 56.6177 50.1639C56.695 50.115 56.8191 50.0321 56.9833 49.9086C57.3117 49.6616 57.8018 49.2512 58.4012 48.6225C59.599 47.3659 61.2406 45.2294 62.8981 41.7681C63.1045 41.337 63.5872 41.1122 64.05 41.2317Z" fill="#000091"/>
	<path fill-rule="evenodd" clip-rule="evenodd" d="M43.0643 39.1006C43.6163 39.0809 44.0797 39.5124 44.0994 40.0643L44.3994 48.4643C44.4191 49.0162 43.9876 49.4796 43.4357 49.4993C42.8838 49.5191 42.4204 49.0876 42.4007 48.5357L42.1007 40.1357C42.0809 39.5837 42.5124 39.1203 43.0643 39.1006Z" fill="#000091"/>
	<path fill-rule="evenodd" clip-rule="evenodd" d="M42.4535 20.3011C43.0052 20.2754 43.4733 20.7018 43.4989 21.2535L43.6546 24.6H48.1863C49.1344 23.9844 50.2558 23.7 51.5 23.7C52.8866 23.7 54.1773 24.1033 55.1459 24.8219C56.1188 25.5437 56.8 26.6193 56.8 27.9C56.8 29.1807 56.1188 30.2562 55.1459 30.9781C54.1773 31.6967 52.8866 32.1 51.5 32.1C50.1961 32.1 49.1002 31.7026 48.2237 31.2H43.8444L43.8991 32.4566C43.9231 33.0083 43.4952 33.4751 42.9434 33.499C42.3917 33.523 41.9249 33.0952 41.901 32.5434L41.801 30.2434C41.7891 29.9709 41.8891 29.7054 42.0777 29.5084C42.2663 29.3114 42.5273 29.2 42.8 29.2H48.5C48.6874 29.2 48.8711 29.2527 49.03 29.352C49.7147 29.7799 50.5329 30.1 51.5 30.1C52.5134 30.1 53.3727 29.8033 53.9542 29.3719C54.5312 28.9437 54.8 28.4193 54.8 27.9C54.8 27.3807 54.5312 26.8562 53.9542 26.4281C53.3727 25.9967 52.5134 25.7 51.5 25.7C50.4719 25.7 49.6944 25.9542 49.1 26.4C48.9269 26.5298 48.7164 26.6 48.5 26.6H42.7C42.1658 26.6 41.7259 26.1801 41.7011 25.6464L41.5011 21.3464C41.4754 20.7948 41.9019 20.3267 42.4535 20.3011Z" fill="#000091"/>
	<path d="M39.9 70.3C39.5 70.3 39.2 70.1 39 69.7C38.8 69.5 37.6 69.1 36.6 68.8C34.5 68.1 31.3 67.1 27.2 64.9C21.9 62.1 18.5 57.1 17.3 55.1C17 55.3 16.6 55.3 16.3 55.1C16 54.9 15.8 54.6 15.8 54.3C15.8 54.3 15.2 45.7 15 42.3C15 41.8 15.3 41.4 15.7 41.3C16.2 41.2 16.6 41.4 16.9 41.8C20.1 48.4 23.2 50.2 23.3 50.3C23.6 50.5 23.8 50.7 23.8 51.1C23.8 51.4 23.7 51.7 23.5 52L23.1 52.3C27.4 57.1 31.8 57.6 33.9 57.8C34.3 57.8 34.6 57.9 34.8 57.9C34.8 57.9 35 57.7 35.1 56.9C35.2 56.4 35.7 56 36.2 56C36.7 56.1 37.1 56.6 37.1 57.1C37 58.3 36.6 59.1 36 59.5C35.6 59.8 35 60 34.4 59.8C34.2 59.8 34 59.7 33.7 59.7C31.4 59.5 26 58.9 20.9 52.7C20.6 52.3 20.6 51.7 21 51.3L21.2 51.1C20.3 50.3 18.8 48.9 17.3 46.5C17.5 48.8 17.6 51.2 17.7 52.6C17.8 52.6 17.9 52.6 18 52.6C18.3 52.7 18.5 52.9 18.6 53.1C18.6 53.2 22.1 59.8 28.2 63C32.1 65.1 35.2 66.1 37.2 66.8C38.4 67.2 39.3 67.5 39.9 67.8C40.5 67.4 41.4 67.1 42.6 66.7C44 66.2 46 65.6 48.4 64.5C48.9 64.3 49.5 64.5 49.7 65C49.9 65.5 49.7 66.1 49.2 66.3C46.7 67.4 44.7 68.1 43.2 68.6C42.2 68.9 41 69.3 40.8 69.6C40.6 70.1 40.3 70.3 39.9 70.3Z" fill="#000091"/>
</svg>
