<svg width='80px' height='80px' fill='none' viewBox='0 0 80 80' xmlns='http://www.w3.org/2000/svg' focusable='false' aria-hidden='true'><path fill-rule="evenodd" clip-rule="evenodd" d="M76 74C75.4486 74 75 73.5514 75 73C75 72.4486 75.4486 72 76 72C76.5514 72 77 72.4486 77 73C77 73.5514 76.5514 74 76 74Z" fill="#ECECFE"/> <path fill-rule="evenodd" clip-rule="evenodd" d="M39 8C38.4486 8 38 7.5514 38 7C38 6.44855 38.4486 6 39 6C39.5514 6 40 6.44855 40 7C40 7.5514 39.5514 8 39 8Z" fill="#ECECFE"/> <path fill-rule="evenodd" clip-rule="evenodd" d="M4 66C3.4486 66 3 65.5514 3 65C3 64.4486 3.4486 64 4 64C4.5514 64 5 64.4486 5 65C5 65.5514 4.5514 66 4 66Z" fill="#ECECFE"/> <path fill-rule="evenodd" clip-rule="evenodd" d="M25 52C25 50.3431 26.3431 49 28 49C29.6569 49 31 50.3431 31 52C31 53.6569 29.6569 55 28 55C26.3431 55 25 53.6569 25 52ZM29 52C29 51.4477 28.5523 51 28 51C27.4477 51 27 51.4477 27 52C27 52.5523 27.4477 53 28 53C28.5523 53 29 52.5523 29 52Z" fill="#E1000F"/> <path fill-rule="evenodd" clip-rule="evenodd" d="M24.4908 45.942C24.9685 45.6648 25.5805 45.8273 25.8577 46.3049C26.1349 46.7826 25.9724 47.3946 25.4947 47.6718C23.9623 48.5611 23 50.1962 23 52C23 52.5523 22.5523 53 22 53C21.4477 53 21 52.5523 21 52C21 49.4759 22.3479 47.1855 24.4908 45.942Z" fill="#E1000F"/> <path fill-rule="evenodd" clip-rule="evenodd" d="M31.3457 55.7157C31.756 55.346 32.3883 55.3789 32.758 55.7891C33.1277 56.1994 33.0949 56.8317 32.6846 57.2014C31.4082 58.3516 29.7533 59 27.9999 59C26.2491 59 24.5963 58.3534 23.3206 57.2062C22.9099 56.8369 22.8764 56.2046 23.2457 55.794C23.615 55.3833 24.2473 55.3498 24.6579 55.7191C25.5699 56.5393 26.7478 57 27.9999 57C29.2539 57 30.4333 56.5379 31.3457 55.7157Z" fill="#E1000F"/> <path fill-rule="evenodd" clip-rule="evenodd" d="M29.0978 46.0154C29.2854 45.496 29.8586 45.227 30.3781 45.4146C33.1293 46.4083 35 49.0269 35 52C35 52.5523 34.5523 53 34 53C33.4477 53 33 52.5523 33 52C33 49.8762 31.6635 48.0053 29.6987 47.2957C29.1792 47.1081 28.9102 46.5349 29.0978 46.0154Z" fill="#E1000F"/> <path fill-rule="evenodd" clip-rule="evenodd" d="M21.531 39.5812C21.9983 39.3373 22.5668 39.4996 22.84 39.9348L22.8976 40.0401L25.8967 46.3792C26.1329 46.8785 25.9197 47.4746 25.4204 47.7108C24.9568 47.9301 24.4097 47.7619 24.1448 47.3371L24.0888 47.2345L21.553 41.876L21.3712 41.9947C18.4113 43.9572 16.4481 47.1438 16.0676 50.7221L16.041 51H22C22.5128 51 22.9355 51.386 22.9933 51.8834L23 52C23 52.5128 22.614 52.9355 22.1166 52.9933L22 53L15 53C14.4477 53 14 52.5523 14 52C14 46.7277 16.9407 41.9768 21.531 39.5812Z" fill="#E1000F"/> <path fill-rule="evenodd" clip-rule="evenodd" d="M31.61 55.5462C32.0779 55.3363 32.6215 55.5155 32.8778 55.9456L32.9317 56.0492L35.8615 62.5795C36.065 63.0332 35.9043 63.5674 35.4844 63.8336C33.2631 65.2411 30.6864 66 28.0001 66C25.301 66 22.7127 65.2338 20.4846 63.8137C20.0989 63.5678 19.9334 63.0959 20.0684 62.6695L20.1127 62.5545L23.0907 56.0427C23.3204 55.5404 23.9138 55.3195 24.416 55.5491C24.8824 55.7624 25.1062 56.2893 24.9519 56.7656L24.9095 56.8745L22.3061 62.565L22.5979 62.7185C24.1357 63.4954 25.8315 63.9345 27.5926 63.9932L28.0001 64C29.8979 64 31.7289 63.5594 33.379 62.7302L33.6681 62.578L31.1069 56.8679C30.897 56.4 31.0762 55.8563 31.5063 55.6001L31.61 55.5462Z" fill="#E1000F"/> <path fill-rule="evenodd" clip-rule="evenodd" d="M33.0959 39.88C33.3765 39.4529 33.934 39.3061 34.3886 39.5396C39.0229 41.92 42.0001 46.6953 42.0001 52C42.0001 52.5129 41.614 52.9355 41.1167 52.9933L41.0001 53L34 53C33.4477 53 33 52.5523 33 52C33 51.4872 33.3861 51.0645 33.8834 51.0068L34.0001 51H39.9581L39.9316 50.7145C39.5351 47.009 37.4415 43.7252 34.3041 41.7868L34.2551 41.757L30.8742 46.9042C30.5926 47.3328 30.0379 47.4741 29.5905 47.2493L29.4894 47.1909C29.0608 46.9093 28.9195 46.3546 29.1443 45.9072L29.2027 45.8061L33.0959 39.88Z" fill="#E1000F"/> <path fill-rule="evenodd" clip-rule="evenodd" d="M28 34C31.0366 34 33.9665 34.7536 36.5781 36.1718C37.0634 36.4353 37.2432 37.0424 36.9797 37.5278C36.7161 38.0131 36.109 38.1929 35.6237 37.9293C33.3033 36.6693 30.7011 36 28 36C19.1634 36 12 43.1634 12 52C12 56.7874 14.1138 61.2281 17.7078 64.2508C18.1304 64.6063 18.1849 65.2371 17.8294 65.6598C17.4739 66.0825 16.8431 66.1369 16.4204 65.7814C12.3793 62.3826 10 57.3841 10 52C10 42.0589 18.0589 34 28 34Z" fill="#E1000F"/> <path fill-rule="evenodd" clip-rule="evenodd" d="M39.47 39.4128C39.8653 39.0271 40.4984 39.0349 40.8841 39.4302C44.1425 42.7696 46 47.2396 46 52C46 61.9412 37.9412 70 28 70C25.0251 70 22.1522 69.2768 19.5799 67.913C19.0919 67.6543 18.9061 67.049 19.1648 66.5611C19.4235 66.0732 20.0288 65.8873 20.5167 66.146C22.8022 67.3577 25.3537 68 28 68C36.8366 68 44 60.8366 44 52C44 47.7668 42.3502 43.7964 39.4526 40.8269C39.0669 40.4316 39.0747 39.7985 39.47 39.4128Z" fill="#E1000F"/> <path d="M38.6838 10.0513C39.857 9.66025 41.0674 9.98551 42.2669 10.9202L42.327 10.969L42.5067 10.9586C44.1998 10.8793 45.5589 11.2574 46.5382 12.1332L46.7071 12.2929C47.7817 13.3675 47.9057 14.8771 47.2152 16.6993L47.105 16.974L47.628 18.02L47.7846 18.0302C50.3836 18.2382 51.9031 19.5164 51.9955 21.7781L52 22C52 24.25 50.6531 25.5816 48.2741 25.9162L48 25.949V26H54C54.593 26 55.0557 26.5131 54.9947 27.1029C54.8297 28.6974 54.6899 30.2549 54.5753 31.7754L54.5594 32H58.3053C59.1238 29.602 58.6029 28.4315 56.7575 27.9701C56.0034 27.7816 55.7433 26.8425 56.2929 26.2929C57.3426 25.2432 57.5629 24.3619 57.1056 23.4472C56.6341 22.5043 56.0227 22.0574 55.1731 22.0052L55 22C54.4477 22 54 21.5523 54 21C54 20.4477 54.4477 20 55 20C56.7262 20 58.064 20.8919 58.8944 22.5528C59.5346 23.8331 59.4686 25.1312 58.7556 26.3684L58.639 26.56L58.7887 26.6445C60.5102 27.6673 61.041 29.5274 60.3876 32H63C63.5865 32 64.047 32.5024 63.9962 33.0866C62.68 48.2237 64.6453 60.0156 69.8517 68.4759C70.2412 69.1089 69.828 69.9147 69.115 69.9937L69 70H63C62.4477 70 62 69.5523 62 69C62 68.4872 62.386 68.0645 62.8834 68.0067L63 68H67.262L67.1019 67.705C63.2194 60.4753 61.3977 51.2382 61.6178 40H59C58.4477 40 58 39.5523 58 39C58 38.4872 58.386 38.0645 58.8834 38.0067L59 38H61.6777C61.7243 36.8389 61.7917 35.6573 61.88 34.4553L61.915 34H59.0226C59.0074 34.0004 58.9921 34.0004 58.9767 34H54.4257L54.3793 34.7668C53.5401 49.9671 55.3793 61.2083 59.8517 68.4759C60.2412 69.1089 59.828 69.9147 59.115 69.9937L59 70H53C52.4477 70 52 69.5523 52 69C52 68.4872 52.386 68.0645 52.8834 68.0067L53 68H57.275L57.077 67.6219C53.2667 60.2241 51.69 49.6869 52.3144 36H43C42.4477 36 42 35.5523 42 35C42 34.4872 42.386 34.0645 42.8834 34.0067L43 34H52.42C52.5267 32.2148 52.6693 30.3783 52.8476 28.4905L52.895 28H43.0209C43.0064 28.0003 42.992 28.0003 42.9776 28H35.065L35.1311 29.1053L35.2324 30.988C35.258 31.5397 34.8314 32.0076 34.2798 32.0332C33.7281 32.0587 33.2601 31.6322 33.2346 31.0805L33.1771 29.9675L33.0021 27.0633C32.9655 26.4873 33.4228 26 34 26H41.7188L41.365 24.587L41.3457 24.5963C40.7477 24.8376 40.0609 24.9689 39.2921 24.9951L39 25C37.7724 25 36.7769 24.4138 36.0162 23.3223L35.948 23.22C35.0632 24.3317 33.8141 24.9376 32.2496 24.9954L32 25C30.1503 25 28.7197 24.2619 27.7874 22.8572L27.674 22.679C27.0543 22.8918 26.2417 22.9852 25.2513 22.9984L25 23C23.0104 23 21.6441 22.3545 21.1772 21.0767L21.144 20.976L20.8785 20.9585C17.8499 20.7234 16.1017 19.4862 16.0043 17.2041L16 17C16 14.3807 18.0756 13.0682 21.7099 13.0026L22 13H23.084L23.0985 12.9171C23.451 11.1092 24.7378 10.0755 26.771 10.004L27 10C28.9896 10 30.3559 10.6455 30.8228 11.9233L30.862 12.045L30.9416 12.0537C32.7897 12.2775 33.9114 13.1993 33.995 14.8041L34 15C34 15.5523 33.5523 16 33 16C32.4872 16 32.0645 15.614 32.0067 15.1166L32 15C32 14.3247 31.513 14 30 14C29.4872 14 29.0645 13.614 29.0067 13.1166L29 13C29 12.3247 28.513 12 27 12C25.5523 12 25 12.5523 25 14C25 14.5128 24.614 14.9355 24.1166 14.9933L24 15H22C19.1471 15 18 15.6883 18 17C18 18.3117 19.1471 19 22 19C22.5523 19 23 19.4477 23 20C23 20.6753 23.487 21 25 21C25.8117 21 26.4224 20.9412 26.8121 20.8375L26.9663 20.7901L27.024 20.767L27.0513 20.6661C27.3156 19.8592 28.5259 19.7323 28.9057 20.5736L28.9487 20.6838C29.4816 22.2825 30.4383 23 32 23C33.5617 23 34.5184 22.2825 35.0513 20.6838C35.3552 19.7721 36.6448 19.7721 36.9487 20.6838C37.4937 22.3189 38.1748 23 39 23C40.0046 23 40.7177 22.7881 41.182 22.3949L41.2929 22.2929C41.8136 21.7722 42.6838 21.9782 42.9343 22.6425L42.9701 22.7575L43.7808 26H46V25C46 24.4477 46.4477 24 47 24C49.1667 24 50 23.375 50 22C50 20.625 49.1667 20 47 20C46.6633 20 46.3523 19.8309 46.1684 19.5554L46.1056 19.4472L45.1056 17.4472C44.9682 17.1724 44.9647 16.8497 45.0962 16.572C45.7922 15.1025 45.7922 14.2064 45.2929 13.7071C44.6782 13.0924 43.6403 12.833 42.1046 12.9945C41.8241 13.024 41.5441 12.9337 41.3338 12.7458C40.4893 11.9913 39.8388 11.7745 39.3162 11.9487C38.692 12.1567 38.24 12.6088 37.9258 13.3781C37.7169 13.8894 37.1332 14.1346 36.6219 13.9258C36.1106 13.7169 35.8654 13.1332 36.0742 12.6219C36.6006 11.3332 37.4819 10.452 38.6838 10.0513Z" fill="#000091"/> <path d="M39.0715 68C38.5192 68 38.0715 68.4477 38.0715 69C38.0715 69.5128 38.4575 69.9355 38.9549 69.9933L39.0715 70H48C48.5523 70 49 69.5523 49 69C49 68.4872 48.614 68.0645 48.1167 68.0067L48 68H39.0715Z" fill="#000091"/> <path d="M22.6838 24.0513C23.1703 23.8891 23.6933 24.1217 23.9054 24.5753L23.9487 24.6838C24.1833 25.3877 24.6256 25.6531 25.3878 25.6531C25.8371 25.6531 26.3489 25.5507 26.8674 25.3778L27.02 25.3252L27.2829 25.2252C27.3216 25.2095 27.3576 25.1944 27.3907 25.1801L27.5528 25.1056C28.1827 24.7906 28.918 25.208 28.9936 25.8849L29 26C29 26.8252 29.6811 27.5063 31.3162 28.0513C31.8402 28.226 32.1233 28.7923 31.9487 29.3162C31.774 29.8402 31.2077 30.1233 30.6838 29.9487C29.0196 29.394 27.8734 28.5765 27.3403 27.499L27.271 27.347L27.197 27.3702C26.6918 27.5187 26.185 27.6161 25.6861 27.6445L25.3878 27.6531C23.8234 27.6531 22.582 26.9082 22.0513 25.3162C21.8767 24.7923 22.1598 24.226 22.6838 24.0513Z" fill="#000091"/></svg>
