<svg width="80" height="80" viewBox="0 0 80 80" fill="none" xmlns="http://www.w3.org/2000/svg">
	<path fill-rule="evenodd" clip-rule="evenodd" d="M40 26C35.0294 26 31 30.0294 31 35C31 39.9706 35.0294 44 40 44C44.9706 44 49 39.9706 49 35C49 30.0294 44.9706 26 40 26ZM46.9291 36C46.5875 38.388 45.0407 40.3872 42.9245 41.3617C43.523 39.9511 43.8898 38.0779 43.9788 36H46.9291ZM41.7957 37.8029C41.8801 37.238 41.9421 36.6333 41.9745 36H38.0255C38.0579 36.6333 38.1199 37.238 38.2043 37.8029L38.2869 38.3052C38.4048 38.9595 38.5524 39.5505 38.7167 40.0582L38.843 40.423C39.2084 41.4107 39.6351 42 40 42C40.3649 42 40.7916 41.4107 41.157 40.423L41.2833 40.0582C41.4476 39.5505 41.5952 38.9595 41.7131 38.3052L41.7957 37.8029ZM46.9291 34H43.9788C43.8898 31.9221 43.523 30.0489 42.9245 28.6383C45.0407 29.6128 46.5875 31.612 46.9291 34ZM33.0709 34C33.4125 31.612 34.9593 29.6128 37.0755 28.6383C36.477 30.0489 36.1102 31.9221 36.0212 34H33.0709ZM38.2043 32.1971C38.1199 32.762 38.0579 33.3667 38.0255 34H41.9745C41.9421 33.3667 41.8801 32.762 41.7957 32.1971L41.7131 31.6948C41.5952 31.0405 41.4476 30.4495 41.2833 29.9418L41.157 29.577C40.7916 28.5893 40.3649 28 40 28C39.6351 28 39.2084 28.5893 38.843 29.577L38.7167 29.9418C38.5524 30.4495 38.4048 31.0405 38.2869 31.6948L38.2043 32.1971ZM33.0709 36H36.0212C36.1102 38.0779 36.477 39.9511 37.0755 41.3617C34.9593 40.3872 33.4125 38.388 33.0709 36Z" fill="#E1000F"/>
	<path d="M50 53C50 52.4477 49.5523 52 49 52H31L30.8834 52.0067C30.386 52.0645 30 52.4872 30 53C30 53.5523 30.4477 54 31 54H49L49.1166 53.9933C49.614 53.9355 50 53.5128 50 53Z" fill="#E1000F"/>
	<path fill-rule="evenodd" clip-rule="evenodd" d="M19.9033 14.1161L19.9042 14.1205C17.6699 14.62 16 16.615 16 19V67L16.0046 67.2169C16.1182 69.8777 18.3112 72 21 72H59L59.2169 71.9954C61.8777 71.8818 64 69.6888 64 67V57L63.9933 56.8834C63.9355 56.386 63.5128 56 63 56C62.4477 56 62 56.4477 62 57V67L61.9949 67.1763C61.9037 68.7511 60.5977 70 59 70H21L20.8237 69.9949C19.2489 69.9037 18 68.5977 18 67V19L18.0051 18.8237C18.0963 17.2489 19.4023 16 21 16H59L59.1763 16.0051C60.7511 16.0963 62 17.4023 62 19V47L62.0067 47.1166C62.0645 47.614 62.4872 48 63 48C63.5523 48 64 47.5523 64 47V19L63.9954 18.7831C63.8818 16.1223 61.6888 14 59 14H55.0026L55.0046 13.2169L55 13C54.8864 10.3392 52.7882 8.09669 50.0994 8.09669L49.9033 8.11611L19.9033 14.1161ZM53 13V14H30.68L50.1833 10.0986L50.2757 10.1018C51.8505 10.193 53 11.4023 53 13Z" fill="#000091"/>
	<path d="M46 49C46 48.4477 45.5523 48 45 48H35L34.8834 48.0067C34.386 48.0645 34 48.4872 34 49C34 49.5523 34.4477 50 35 50H45L45.1166 49.9933C45.614 49.9355 46 49.5128 46 49Z" fill="#000091"/>
	<path d="M47 56C47.5523 56 48 56.4477 48 57C48 57.5128 47.614 57.9355 47.1166 57.9933L47 58H33C32.4477 58 32 57.5523 32 57C32 56.4872 32.386 56.0645 32.8834 56.0067L33 56H47Z" fill="#000091"/>
	<path d="M46 61C46 60.4477 45.5523 60 45 60H35L34.8834 60.0067C34.386 60.0645 34 60.4872 34 61C34 61.5523 34.4477 62 35 62H45L45.1166 61.9933C45.614 61.9355 46 61.5128 46 61Z" fill="#000091"/>
</svg>
