<svg width='80px' height='80px' fill='none' viewBox='0 0 80 80' xmlns='http://www.w3.org/2000/svg' focusable='false' aria-hidden='true'><path d="M11 6C11 6.6 10.6 7 10 7C9.4 7 9 6.6 9 6C9 5.4 9.4 5 10 5C10.6 5 11 5.4 11 6Z" fill="#ECECFE"/> <path d="M41 10C41 10.6 40.6 11 40 11C39.4 11 39 10.6 39 10C39 9.4 39.4 9 40 9C40.6 9 41 9.4 41 10Z" fill="#ECECFE"/> <path d="M77 16C77 16.6 76.6 17 76 17C75.4 17 75 16.6 75 16C75 15.4 75.4 15 76 15C76.6 15 77 15.4 77 16Z" fill="#ECECFE"/> <path d="M70 71C70.5523 71 71 70.5523 71 70C71 69.4477 70.5523 69 70 69C69.4477 69 69 69.4477 69 70C69 70.5523 69.4477 71 70 71Z" fill="#ECECFE"/> <path d="M22 75C22.5523 75 23 74.5523 23 74C23 73.4477 22.5523 73 22 73C21.4477 73 21 73.4477 21 74C21 74.5523 21.4477 75 22 75Z" fill="#ECECFE"/> <path d="M4 63C4.55228 63 5 62.5523 5 62C5 61.4477 4.55228 61 4 61C3.44771 61 3 61.4477 3 62C3 62.5523 3.44771 63 4 63Z" fill="#ECECFE"/> <path fill-rule="evenodd" clip-rule="evenodd" d="M53 38C53 39.6569 51.6569 41 50 41C48.3432 41 47 39.6569 47 38C47 36.3431 48.3432 35 50 35C51.6569 35 53 36.3431 53 38ZM55 38C55 40.7614 52.7614 43 50 43C47.2386 43 45 40.7614 45 38C45 35.2386 47.2386 33 50 33C52.7614 33 55 35.2386 55 38ZM53.2071 54.7071C52.8166 55.0976 52.1834 55.0976 51.7929 54.7071L34.647 37.5612C34.2684 37.1826 33.6588 37.1693 33.2641 37.5311L28.6757 41.7372C28.2686 42.1103 27.636 42.0828 27.2629 41.6757C26.8897 41.2686 26.9172 40.636 27.3243 40.2628L31.9127 36.0568C33.0967 34.9715 34.9254 35.0112 36.0612 36.147L49.013 49.0988L54.8254 44.0613C56.0823 42.972 57.9856 43.1132 59.068 44.376L60.7593 46.3492C61.1187 46.7685 61.0701 47.3998 60.6508 47.7592C60.2315 48.1187 59.6002 48.0701 59.2408 47.6508L57.5495 45.6776C57.1887 45.2567 56.5543 45.2096 56.1353 45.5727L50.4308 50.5166L53.2071 53.2929C53.5976 53.6834 53.5976 54.3166 53.2071 54.7071Z" fill="#E1000F"/> <path fill-rule="evenodd" clip-rule="evenodd" d="M24 27C22.3431 27 21 28.3431 21 30V58C21 59.6569 22.3431 61 24 61H27C27.5523 61 28 61.4477 28 62C28 62.5523 27.5523 63 27 63H24C21.2386 63 19 60.7614 19 58V30C19 27.2386 21.2386 25 24 25H54C54.5523 25 55 25.4477 55 26C55 26.5523 54.5523 27 54 27H24Z" fill="#000091"/> <path fill-rule="evenodd" clip-rule="evenodd" d="M26 31C25.4477 31 25 31.4477 25 32V56C25 56.5523 25.4477 57 26 57H48.5V59H26C24.3431 59 23 57.6569 23 56V32C23 30.3431 24.3431 29 26 29H58C58.5523 29 59 29.4477 59 30C59 30.5523 58.5523 31 58 31H26Z" fill="#000091"/> <path fill-rule="evenodd" clip-rule="evenodd" d="M48 30C48 29.4477 48.4477 29 49 29H63C64.6569 29 66 30.3431 66 32V56C66 57.6569 64.6569 59 63 59H47.5V57H63C63.5523 57 64 56.5523 64 56V32C64 31.4477 63.5523 31 63 31H49C48.4477 31 48 30.5523 48 30Z" fill="#000091"/> <path fill-rule="evenodd" clip-rule="evenodd" d="M18.5 19C15.4624 19 13 21.4624 13 24.5V50C13 50.5523 12.5523 51 12 51C11.4477 51 11 50.5523 11 50V24.5C11 20.3579 14.3579 17 18.5 17H28C28.5523 17 29 17.4477 29 18C29 18.5523 28.5523 19 28 19H18.5Z" fill="#000091"/> <path fill-rule="evenodd" clip-rule="evenodd" d="M21.5 23C19.0147 23 17 25.0147 17 27.5V54C17 54.5523 16.5523 55 16 55C15.4477 55 15 54.5523 15 54V27.5C15 23.9101 17.9101 21 21.5 21H57C57.5523 21 58 21.4477 58 22C58 22.5523 57.5523 23 57 23H21.5Z" fill="#000091"/> <path fill-rule="evenodd" clip-rule="evenodd" d="M32 18C32 17.4477 32.4477 17 33 17H55C57.7614 17 60 19.2386 60 22H58C58 20.3431 56.6569 19 55 19H33C32.4477 19 32 18.5523 32 18Z" fill="#000091"/> <path fill-rule="evenodd" clip-rule="evenodd" d="M37 22C37 21.4477 37.4477 21 38 21H60C62.7614 21 65 23.2386 65 26H63C63 24.3431 61.6569 23 60 23H38C37.4477 23 37 22.5523 37 22Z" fill="#000091"/> <path fill-rule="evenodd" clip-rule="evenodd" d="M58 26C58 25.4477 58.4477 25 59 25H65C67.7614 25 70 27.2386 70 30V58C70 60.7614 67.7614 63 65 63H45C44.4477 63 44 62.5523 44 62C44 61.4477 44.4477 61 45 61H65C66.6569 61 68 59.6569 68 58V30C68 28.3431 66.6569 27 65 27H59C58.4477 27 58 26.5523 58 26Z" fill="#000091"/></svg>
