<svg width='80px' height='80px' fill='none' viewBox='0 0 80 80' xmlns='http://www.w3.org/2000/svg' focusable='false' aria-hidden='true'>
	<path d="M37.2 46.2C36.9 46.2 36.5 46.1 36.2 46C35.5 45.6 35.1 44.9 35.1 44V35C35.1 34.1 35.6 33.3 36.2 33C36.9 32.6 37.7 32.7 38.5 33.2C39.2 33.6 41.5 35 43.5 36.2C44.5 36.8 45.4 37.4 45.9 37.6C46.7 38.1 47.1 38.8 47.1 39.5C47.1 40.3 46.7 41 45.9 41.5L45.5 41.8C43.8 42.9 39.7 45.4 38.6 46C38.1 46.1 37.6 46.2 37.2 46.2ZM37.2 34.7C37.2 34.7 37.1 34.8 37.1 35V43.9C37.1 44.1 37.2 44.2 37.2 44.2C37.2 44.2 37.3 44.2 37.5 44.1C38.5 43.6 42.7 41 44.3 40L44.7 39.7C44.9 39.6 45 39.5 45 39.5C45 39.5 44.9 39.4 44.8 39.3C44.3 39 43.4 38.5 42.4 37.8C40.5 36.7 38.2 35.2 37.5 34.9C37.3 34.7 37.2 34.7 37.2 34.7Z" fill="#E1000F"/>
	<path d="M18 21C18 21.6 17.6 22 17 22C16.4 22 16 21.6 16 21C16 20.4 16.4 20 17 20C17.6 20 18 20.4 18 21Z" fill="#E1000F"/>
	<path d="M22 21C22 21.6 21.6 22 21 22C20.4 22 20 21.6 20 21C20 20.4 20.4 20 21 20C21.6 20 22 20.4 22 21Z" fill="#E1000F"/>
	<path d="M23.5 57C22.1 57 21 55.9 21 54.5C21 53.1 22.1 52 23.5 52C24.9 52 26 53.1 26 54.5C26 55.9 24.9 57 23.5 57ZM23.5 54C23.2 54 23 54.2 23 54.5C23 54.8 23.2 55 23.5 55C23.8 55 24 54.8 24 54.5C24 54.2 23.8 54 23.5 54Z" fill="#E1000F"/>
	<path d="M21 55.5H17C16.4 55.5 16 55.1 16 54.5C16 53.9 16.4 53.5 17 53.5H21C21.6 53.5 22 53.9 22 54.5C22 55 21.6 55.5 21 55.5Z" fill="#E1000F"/>
	<path d="M51 22H29C28.4 22 28 21.6 28 21C28 20.4 28.4 20 29 20H51C51.6 20 52 20.4 52 21C52 21.5 51.6 22 51 22Z" fill="#E1000F"/>
	<path d="M63 22H55C54.4 22 54 21.6 54 21C54 20.4 54.4 20 55 20H63C63.6 20 64 20.4 64 21C64 21.5 63.6 22 63 22Z" fill="#E1000F"/>
	<path d="M26 21C26 21.6 25.6 22 25 22C24.4 22 24 21.6 24 21C24 20.4 24.4 20 25 20C25.6 20 26 20.4 26 21Z" fill="#E1000F"/>
	<path d="M54 60H13C12.4 60 12 59.6 12 59C12 58.4 12.4 58 13 58H54C54.6 58 55 58.4 55 59C55 59.5 54.6 60 54 60Z" fill="#000091"/>
	<path d="M67 60H61C60.4 60 60 59.6 60 59C60 58.4 60.4 58 61 58H67C67.6 58 68 58.4 68 59C68 59.5 67.6 60 67 60Z" fill="#000091"/>
	<path d="M13 64C12.4 64 12 63.6 12 63V17C12 16.4 12.4 16 13 16H67C67.6 16 68 16.4 68 17V63C68 63.6 67.6 64 67 64H13ZM14 62H66V18H14V62Z" fill="#000091"/>
	<path d="M67 26H13C12.4 26 12 25.6 12 25C12 24.4 12.4 24 13 24H67C67.6 24 68 24.4 68 25C68 25.5 67.6 26 67 26Z" fill="#000091"/>
	<path d="M29 54H63C63.6 54 64 54.4 64 55C64 55.6 63.6 56 63 56H29C28.4 56 28 55.6 28 55C28 54.4 28.5 54 29 54Z" fill="#000091"/>
	<path d="M63 51H17C16.4 51 16 50.6 16 50V29C16 28.4 16.4 28 17 28H63C63.6 28 64 28.4 64 29V50C64 50.5 63.6 51 63 51ZM18 49H62V30H18V49Z" fill="#000091"/>
</svg>
